<svg width="211" height="328" viewBox="0 0 211 328" fill="none" xmlns="http://www.w3.org/2000/svg" xmlns:xlink="http://www.w3.org/1999/xlink">
<rect x="1.43373e-05" y="9.2231e-06" width="211" height="328" rx="16" fill="#9978AA"/>
<rect x="11.5" y="11.5" width="187" height="306" fill="#9978AA" stroke="black"/>
<rect x="21" y="25" width="168" height="276" fill="#9978AA" stroke="black"/>
<rect x="189" y="35" width="255" height="10" transform="rotate(90 189 35)" fill="url(#pattern0_118_1603)"/>
<rect x="21.0003" y="290" width="255" height="9.99998" transform="rotate(-90 21.0003 290)" fill="url(#pattern1_118_1603)"/>
<rect x="23.0003" y="25" width="155" height="10" fill="url(#pattern2_118_1603)"/>
<rect x="180" y="300" width="155" height="10" transform="rotate(-180 180 300)" fill="url(#pattern3_118_1603)"/>
<rect x="33.5" y="39.5" width="140" height="247" fill="url(#pattern4_118_1603)" stroke="black"/>
<circle cx="178.5" cy="295.5" r="17.1111" transform="rotate(90 178.5 295.5)" fill="#9978AA" stroke="black" stroke-width="0.777778"/>
<path d="M183.336 290.475C183.336 288.85 182.318 287.842 180.281 287.452L180.281 291.358L179.242 291.358L179.242 287.342L178.805 287.327L178.32 287.327L177.977 287.342L177.977 290.874L176.938 290.874L176.938 287.467C176.031 287.65 175.328 287.999 174.828 288.514C174.333 289.035 174.086 289.733 174.086 290.608C174.086 291.4 174.258 292.194 174.602 292.991L173.352 292.991C173.013 292.23 172.844 291.408 172.844 290.522C172.844 289.293 173.19 288.298 173.883 287.538C174.581 286.783 175.599 286.285 176.938 286.046L176.938 284.764L177.977 284.764L177.977 285.921L178.305 285.905L178.633 285.905L179.242 285.921L179.242 284.764L180.281 284.764L180.281 286.03C181.656 286.238 182.714 286.728 183.453 287.499C184.198 288.27 184.57 289.262 184.57 290.475C184.57 291.543 184.323 292.499 183.828 293.342L182.68 292.749C183.117 291.905 183.336 291.147 183.336 290.475ZM173.305 293.999L175.367 294.288C175.201 294.569 175.073 294.85 174.984 295.132C174.901 295.413 174.859 295.681 174.859 295.936C174.859 296.504 175.018 296.941 175.336 297.249C175.654 297.556 176.107 297.71 176.695 297.71C177.378 297.71 177.898 297.473 178.258 296.999C178.622 296.525 178.805 295.84 178.805 294.944C178.805 294.845 178.797 294.691 178.781 294.483C178.781 294.436 178.779 294.397 178.773 294.366L184.406 295.155L184.406 299.6L182.469 299.6L182.469 296.741L180.391 296.452L180.391 296.53C180.391 297.603 180.081 298.441 179.461 299.046C178.846 299.65 177.995 299.952 176.906 299.952C175.661 299.952 174.674 299.616 173.945 298.944C173.221 298.277 172.859 297.366 172.859 296.21C172.859 295.777 172.896 295.382 172.969 295.022C173.042 294.663 173.154 294.322 173.305 293.999ZM173 300.796L179.654 301.448L179.654 303.157L177.115 303.503C176.729 303.555 176.359 303.597 176.003 303.631C175.651 303.667 175.308 303.696 174.973 303.717C175.56 303.772 176.021 303.818 176.359 303.854C176.699 303.894 176.951 303.926 177.115 303.95L179.654 304.378L179.654 306.069L173 306.63L173 305.285L176.09 305.144C176.163 305.141 176.272 305.136 176.418 305.13C177.226 305.091 177.888 305.071 178.405 305.071L173 304.205L173 303.243L178.441 302.428C177.989 302.428 177.342 302.4 176.5 302.346C176.309 302.334 176.166 302.324 176.072 302.318L173 302.113L173 300.796Z" fill="black"/>
<circle cx="31.5" cy="33.5" r="17.1111" transform="rotate(90 31.5 33.5)" fill="#9978AA" stroke="black" stroke-width="0.777778"/>
<path d="M36.336 28.4753C36.336 26.8503 35.3177 25.8425 33.2813 25.4518L33.2813 29.3581L32.2422 29.3581L32.2422 25.3425L31.8047 25.3268L31.3203 25.3268L30.9766 25.3425L30.9766 28.8737L29.9375 28.8737L29.9375 25.4675C29.0313 25.6497 28.3281 25.9987 27.8281 26.5143C27.3333 27.0352 27.086 27.7331 27.086 28.6081C27.086 29.3997 27.2578 30.194 27.6016 30.9909L26.3516 30.9909C26.013 30.2305 25.8438 29.4076 25.8438 28.5221C25.8438 27.293 26.1901 26.2982 26.8828 25.5378C27.5807 24.7826 28.599 24.2852 29.9375 24.0456L29.9375 22.7643L30.9766 22.7643L30.9766 23.9206L31.3047 23.905L31.6328 23.905L32.2422 23.9206L32.2422 22.7643L33.2813 22.7643L33.2813 24.03C34.6563 24.2383 35.7136 24.7279 36.4531 25.4987C37.1979 26.2695 37.5703 27.2617 37.5703 28.4753C37.5703 29.543 37.3229 30.4987 36.8281 31.3425L35.6797 30.7487C36.1172 29.905 36.336 29.1471 36.336 28.4753ZM26.3047 31.9987L28.3672 32.2878C28.2005 32.569 28.0729 32.8503 27.9844 33.1315C27.9011 33.4128 27.8594 33.681 27.8594 33.9362C27.8594 34.5039 28.0182 34.9414 28.336 35.2487C28.6537 35.556 29.1068 35.7096 29.6953 35.7096C30.3776 35.7096 30.8985 35.4727 31.2578 34.9987C31.6224 34.5247 31.8047 33.8399 31.8047 32.944C31.8047 32.8451 31.7969 32.6914 31.7813 32.4831C31.7813 32.4362 31.7787 32.3971 31.7735 32.3659L37.4063 33.155L37.4063 37.6003L35.4688 37.6003L35.4688 34.7409L33.3906 34.4518L33.3906 34.53C33.3906 35.6029 33.0807 36.4414 32.461 37.0456C31.8464 37.6497 30.9948 37.9518 29.9063 37.9518C28.6615 37.9518 27.6745 37.6159 26.9453 36.944C26.2214 36.2774 25.8594 35.3659 25.8594 34.2096C25.8594 33.7774 25.8958 33.3815 25.9688 33.0221C26.0417 32.6628 26.1537 32.3216 26.3047 31.9987ZM26 38.7962L32.6537 39.4479L32.6537 41.1569L30.1152 41.5033C29.7294 41.5549 29.3587 41.5974 29.0033 41.6309C28.6508 41.6673 28.3075 41.6962 27.9733 41.7175C28.5597 41.7721 29.0215 41.8177 29.3587 41.8542C29.699 41.8937 29.9512 41.9256 30.1152 41.9499L32.6537 42.3783L32.6537 44.069L26 44.6296L26 43.2852L29.0899 43.1439C29.1628 43.1408 29.2721 43.1363 29.418 43.1302C30.2261 43.0907 30.8885 43.071 31.405 43.071L26 42.2051L26 41.2435L31.4414 40.4277C30.9887 40.4277 30.3416 40.4004 29.5 40.3457C29.3086 40.3336 29.1658 40.3244 29.0716 40.3184L26 40.1133L26 38.7962Z" fill="black"/>
<circle cx="103" cy="163" r="69.4222" transform="rotate(90 103 163)" fill="#9978AA" stroke="black" stroke-width="3.15556"/>
<path d="M168.214 163.526C168.214 199.253 139.253 228.215 103.526 228.215C67.7992 228.215 38.8374 199.253 38.8374 163.526C38.8374 127.8 67.7992 98.8379 103.526 98.8379C139.253 98.8379 168.214 127.8 168.214 163.526Z" stroke="black" stroke-width="1.05185"/>
<path d="M119.76 141.906C119.76 135.812 115.941 132.033 108.305 130.568L108.305 145.216L104.408 145.216L104.408 130.158L102.768 130.099L100.951 130.099L99.6621 130.158L99.6621 143.4L95.7656 143.4L95.7656 130.627C92.3672 131.31 89.7305 132.619 87.8555 134.552C86 136.505 85.0723 139.123 85.0723 142.404C85.0723 145.373 85.7168 148.351 87.0059 151.339L82.3184 151.339C81.0488 148.488 80.4141 145.402 80.4141 142.082C80.4141 137.472 81.7129 133.742 84.3106 130.89C86.9277 128.058 90.7461 126.193 95.7656 125.294L95.7656 120.49L99.6621 120.49L99.6621 124.826L100.893 124.767L102.123 124.767L104.408 124.826L104.408 120.49L108.305 120.49L108.305 125.236C113.461 126.017 117.426 127.853 120.199 130.744C122.992 133.634 124.389 137.355 124.389 141.906C124.389 145.91 123.461 149.494 121.605 152.658L117.299 150.431C118.939 147.267 119.76 144.425 119.76 141.906ZM82.1426 155.119L89.877 156.203C89.252 157.257 88.7734 158.312 88.4414 159.367C88.1289 160.421 87.9727 161.427 87.9727 162.384C87.9727 164.513 88.5684 166.154 89.7598 167.306C90.9512 168.459 92.6504 169.035 94.8574 169.035C97.416 169.035 99.3692 168.146 100.717 166.369C102.084 164.591 102.768 162.023 102.768 158.664C102.768 158.293 102.738 157.716 102.68 156.935C102.68 156.759 102.67 156.613 102.65 156.496L123.773 159.455L123.773 176.125L116.508 176.125L116.508 165.402L108.715 164.318L108.715 164.611C108.715 168.634 107.553 171.779 105.229 174.044C102.924 176.31 99.7305 177.443 95.6484 177.443C90.9805 177.443 87.2793 176.183 84.5449 173.664C81.8301 171.164 80.4727 167.746 80.4727 163.41C80.4727 161.789 80.6094 160.304 80.8828 158.957C81.1563 157.609 81.5762 156.33 82.1426 155.119ZM81 180.67L107.995 183.314L107.995 190.247L97.6961 191.652C96.1306 191.862 94.6268 192.035 93.1846 192.17C91.7548 192.318 90.3619 192.435 89.006 192.521C91.385 192.743 93.2586 192.928 94.6268 193.076C96.0074 193.236 97.0305 193.366 97.6961 193.464L107.995 195.202L107.995 202.062L81 204.336L81 198.882L93.5359 198.309C93.8318 198.296 94.2755 198.278 94.8672 198.253C98.146 198.093 100.833 198.013 102.929 198.013L81 194.5L81 190.599L103.077 187.289C101.24 187.289 98.6144 187.178 95.2 186.956C94.4234 186.907 93.8441 186.87 93.462 186.845L81 186.013L81 180.67Z" fill="black"/>
<defs>
<pattern id="pattern0_118_1603" patternUnits="userSpaceOnUse" patternTransform="matrix(15.2616 0 0 10.1164 189 35)" preserveAspectRatio="none" viewBox="7.50705e-06 0 19.077 12.6454" width="1" height="1">
<g id="pattern0_118_1603_inner">
<path d="M9.49354 10.4556C9.5432 4.72657 5.33305 0.0454458 0.0899123 0L0.0859162 0.461036C5.09603 0.504461 9.11906 4.97754 9.07161 10.4519L9.49354 10.4556Z" fill="black"/>
<path d="M8.22774 10.4446C8.27077 5.47947 4.62198 1.42249 0.077924 1.38311L0.0739279 1.84414C4.38495 1.88151 7.84663 5.73043 7.8058 10.441L8.22774 10.4446Z" fill="black"/>
<path d="M6.53999 10.43C6.5742 6.48333 3.67388 3.25856 0.0619396 3.22725L0.0579435 3.68828C3.43685 3.71757 6.15006 6.7343 6.11806 10.4263L6.53999 10.43Z" fill="black"/>
<path d="M4.43032 10.4117C4.45349 7.73816 2.48876 5.55363 0.0419591 5.53243L0.037963 5.99346C2.25173 6.01265 4.02935 7.98913 4.00838 10.408L4.43032 10.4117Z" fill="black"/>
<path d="M2.32064 10.3934C2.33278 8.99299 1.30363 7.84871 0.0219786 7.8376L0 10.3733L2.32064 10.3934Z" fill="black"/>
<path d="M9.49355 10.4556C9.54321 4.72655 13.8339 0.119105 19.077 0.164551L19.073 0.625586C14.0629 0.58216 9.96294 4.98483 9.91549 10.4592L9.49355 10.4556Z" fill="black"/>
<path d="M10.7594 10.4665C10.8024 5.50139 14.521 1.50827 19.065 1.54766L19.061 2.00869C14.75 1.97133 11.2221 5.75967 11.1813 10.4702L10.7594 10.4665Z" fill="black"/>
<path d="M12.4471 10.4812C12.4813 6.53451 15.4371 3.36049 19.049 3.3918L19.045 3.85283C15.6661 3.82355 12.901 6.79279 12.869 10.4848L12.4471 10.4812Z" fill="black"/>
<path d="M14.5568 10.4994C14.5799 7.82591 16.5823 5.67577 19.0291 5.69698L19.0251 6.15801C16.8113 6.13882 14.9997 8.08419 14.9787 10.5031L14.5568 10.4994Z" fill="black"/>
<path d="M16.6664 10.5177C16.6786 9.11731 17.7274 7.99105 19.0091 8.00215L18.9871 10.5378L16.6664 10.5177Z" fill="black"/>
</g>
</pattern><pattern id="pattern1_118_1603" patternUnits="userSpaceOnUse" patternTransform="matrix(15.2616 0 0 10.1164 21.0003 290)" preserveAspectRatio="none" viewBox="7.50705e-06 0 19.077 12.6454" width="1" height="1">
<g id="pattern1_118_1603_inner">
<path d="M9.49354 10.4556C9.5432 4.72657 5.33305 0.0454458 0.0899123 0L0.0859162 0.461036C5.09603 0.504461 9.11906 4.97754 9.07161 10.4519L9.49354 10.4556Z" fill="black"/>
<path d="M8.22774 10.4446C8.27077 5.47947 4.62198 1.42249 0.077924 1.38311L0.0739279 1.84414C4.38495 1.88151 7.84663 5.73043 7.8058 10.441L8.22774 10.4446Z" fill="black"/>
<path d="M6.53999 10.43C6.5742 6.48333 3.67388 3.25856 0.0619396 3.22725L0.0579435 3.68828C3.43685 3.71757 6.15006 6.7343 6.11806 10.4263L6.53999 10.43Z" fill="black"/>
<path d="M4.43032 10.4117C4.45349 7.73816 2.48876 5.55363 0.0419591 5.53243L0.037963 5.99346C2.25173 6.01265 4.02935 7.98913 4.00838 10.408L4.43032 10.4117Z" fill="black"/>
<path d="M2.32064 10.3934C2.33278 8.99299 1.30363 7.84871 0.0219786 7.8376L0 10.3733L2.32064 10.3934Z" fill="black"/>
<path d="M9.49355 10.4556C9.54321 4.72655 13.8339 0.119105 19.077 0.164551L19.073 0.625586C14.0629 0.58216 9.96294 4.98483 9.91549 10.4592L9.49355 10.4556Z" fill="black"/>
<path d="M10.7594 10.4665C10.8024 5.50139 14.521 1.50827 19.065 1.54766L19.061 2.00869C14.75 1.97133 11.2221 5.75967 11.1813 10.4702L10.7594 10.4665Z" fill="black"/>
<path d="M12.4471 10.4812C12.4813 6.53451 15.4371 3.36049 19.049 3.3918L19.045 3.85283C15.6661 3.82355 12.901 6.79279 12.869 10.4848L12.4471 10.4812Z" fill="black"/>
<path d="M14.5568 10.4994C14.5799 7.82591 16.5823 5.67577 19.0291 5.69698L19.0251 6.15801C16.8113 6.13882 14.9997 8.08419 14.9787 10.5031L14.5568 10.4994Z" fill="black"/>
<path d="M16.6664 10.5177C16.6786 9.11731 17.7274 7.99105 19.0091 8.00215L18.9871 10.5378L16.6664 10.5177Z" fill="black"/>
</g>
</pattern><pattern id="pattern2_118_1603" patternUnits="userSpaceOnUse" patternTransform="matrix(15.2616 0 0 10.1164 23.0003 25)" preserveAspectRatio="none" viewBox="7.50705e-06 0 19.077 12.6454" width="1" height="1">
<g id="pattern2_118_1603_inner">
<path d="M9.49354 10.4556C9.5432 4.72657 5.33305 0.0454458 0.0899123 0L0.0859162 0.461036C5.09603 0.504461 9.11906 4.97754 9.07161 10.4519L9.49354 10.4556Z" fill="black"/>
<path d="M8.22774 10.4446C8.27077 5.47947 4.62198 1.42249 0.077924 1.38311L0.0739279 1.84414C4.38495 1.88151 7.84663 5.73043 7.8058 10.441L8.22774 10.4446Z" fill="black"/>
<path d="M6.53999 10.43C6.5742 6.48333 3.67388 3.25856 0.0619396 3.22725L0.0579435 3.68828C3.43685 3.71757 6.15006 6.7343 6.11806 10.4263L6.53999 10.43Z" fill="black"/>
<path d="M4.43032 10.4117C4.45349 7.73816 2.48876 5.55363 0.0419591 5.53243L0.037963 5.99346C2.25173 6.01265 4.02935 7.98913 4.00838 10.408L4.43032 10.4117Z" fill="black"/>
<path d="M2.32064 10.3934C2.33278 8.99299 1.30363 7.84871 0.0219786 7.8376L0 10.3733L2.32064 10.3934Z" fill="black"/>
<path d="M9.49355 10.4556C9.54321 4.72655 13.8339 0.119105 19.077 0.164551L19.073 0.625586C14.0629 0.58216 9.96294 4.98483 9.91549 10.4592L9.49355 10.4556Z" fill="black"/>
<path d="M10.7594 10.4665C10.8024 5.50139 14.521 1.50827 19.065 1.54766L19.061 2.00869C14.75 1.97133 11.2221 5.75967 11.1813 10.4702L10.7594 10.4665Z" fill="black"/>
<path d="M12.4471 10.4812C12.4813 6.53451 15.4371 3.36049 19.049 3.3918L19.045 3.85283C15.6661 3.82355 12.901 6.79279 12.869 10.4848L12.4471 10.4812Z" fill="black"/>
<path d="M14.5568 10.4994C14.5799 7.82591 16.5823 5.67577 19.0291 5.69698L19.0251 6.15801C16.8113 6.13882 14.9997 8.08419 14.9787 10.5031L14.5568 10.4994Z" fill="black"/>
<path d="M16.6664 10.5177C16.6786 9.11731 17.7274 7.99105 19.0091 8.00215L18.9871 10.5378L16.6664 10.5177Z" fill="black"/>
</g>
</pattern><pattern id="pattern3_118_1603" patternUnits="userSpaceOnUse" patternTransform="matrix(15.2616 0 0 10.1164 180 300)" preserveAspectRatio="none" viewBox="7.50705e-06 0 19.077 12.6454" width="1" height="1">
<g id="pattern3_118_1603_inner">
<path d="M9.49354 10.4556C9.5432 4.72657 5.33305 0.0454458 0.0899123 0L0.0859162 0.461036C5.09603 0.504461 9.11906 4.97754 9.07161 10.4519L9.49354 10.4556Z" fill="black"/>
<path d="M8.22774 10.4446C8.27077 5.47947 4.62198 1.42249 0.077924 1.38311L0.0739279 1.84414C4.38495 1.88151 7.84663 5.73043 7.8058 10.441L8.22774 10.4446Z" fill="black"/>
<path d="M6.53999 10.43C6.5742 6.48333 3.67388 3.25856 0.0619396 3.22725L0.0579435 3.68828C3.43685 3.71757 6.15006 6.7343 6.11806 10.4263L6.53999 10.43Z" fill="black"/>
<path d="M4.43032 10.4117C4.45349 7.73816 2.48876 5.55363 0.0419591 5.53243L0.037963 5.99346C2.25173 6.01265 4.02935 7.98913 4.00838 10.408L4.43032 10.4117Z" fill="black"/>
<path d="M2.32064 10.3934C2.33278 8.99299 1.30363 7.84871 0.0219786 7.8376L0 10.3733L2.32064 10.3934Z" fill="black"/>
<path d="M9.49355 10.4556C9.54321 4.72655 13.8339 0.119105 19.077 0.164551L19.073 0.625586C14.0629 0.58216 9.96294 4.98483 9.91549 10.4592L9.49355 10.4556Z" fill="black"/>
<path d="M10.7594 10.4665C10.8024 5.50139 14.521 1.50827 19.065 1.54766L19.061 2.00869C14.75 1.97133 11.2221 5.75967 11.1813 10.4702L10.7594 10.4665Z" fill="black"/>
<path d="M12.4471 10.4812C12.4813 6.53451 15.4371 3.36049 19.049 3.3918L19.045 3.85283C15.6661 3.82355 12.901 6.79279 12.869 10.4848L12.4471 10.4812Z" fill="black"/>
<path d="M14.5568 10.4994C14.5799 7.82591 16.5823 5.67577 19.0291 5.69698L19.0251 6.15801C16.8113 6.13882 14.9997 8.08419 14.9787 10.5031L14.5568 10.4994Z" fill="black"/>
<path d="M16.6664 10.5177C16.6786 9.11731 17.7274 7.99105 19.0091 8.00215L18.9871 10.5378L16.6664 10.5177Z" fill="black"/>
</g>
</pattern><pattern id="pattern4_118_1603" patternUnits="userSpaceOnUse" patternTransform="matrix(2.22 0 0 2.22 33 39)" preserveAspectRatio="none" viewBox="0 0 111 111" width="1" height="1">
<g id="pattern4_118_1603_inner">
<circle cx="55.5" cy="55.5" r="55" stroke="black"/>
<circle cx="55.5" cy="55.5001" r="47.9747" stroke="black"/>
<circle cx="55.5" cy="55.5001" r="38.1392" stroke="black"/>
<circle cx="55.5" cy="55.4999" r="29.7089" stroke="black"/>
<circle cx="55.5" cy="55.4999" r="29.7089" stroke="black"/>
<circle cx="55.5" cy="55.4998" r="17.0633" stroke="black"/>
<circle cx="55.5" cy="55.5001" r="8.63291" stroke="black"/>
</g>
</pattern></defs>
</svg>
