<svg width="211" height="328" viewBox="0 0 211 328" fill="none" xmlns="http://www.w3.org/2000/svg">
<rect width="211" height="328" rx="16" fill="white"/>
<rect x="11.5" y="11.5" width="187" height="306" stroke="black"/>
<rect x="27.5" y="28.5" width="160" height="57" fill="#00A7FB" stroke="black"/>
<circle cx="38.5" cy="39.5" r="22" fill="#D9D9D9" stroke="black"/>
<path d="M74.4346 48.5107H74.7422C75.3255 48.5107 75.7493 48.39 76.0137 48.1484C76.278 47.9069 76.4102 47.5195 76.4102 46.9863C76.4102 46.4941 76.278 46.1364 76.0137 45.9131C75.7493 45.6852 75.3255 45.5713 74.7422 45.5713H74.4346V48.5107ZM72.2812 54V43.9922H74.7422C76.0547 43.9922 77.0231 44.2428 77.6475 44.7441C78.2764 45.2454 78.5908 46.0202 78.5908 47.0684C78.5908 48.0391 78.2741 48.8001 77.6406 49.3516C77.0117 49.903 76.139 50.1787 75.0225 50.1787H74.4346V54H72.2812ZM87.3135 54H84.8457L82.2139 49.3242V54H80.0742V43.9922H83.1367C84.3535 43.9922 85.265 44.2292 85.8711 44.7031C86.4772 45.1725 86.7803 45.8812 86.7803 46.8291C86.7803 47.5173 86.5729 48.1051 86.1582 48.5928C85.7435 49.0804 85.208 49.3652 84.5518 49.4473L87.3135 54ZM82.2139 48.2578H82.5352C83.401 48.2578 83.973 48.1644 84.251 47.9775C84.529 47.7861 84.668 47.4557 84.668 46.9863C84.668 46.4941 84.5176 46.1455 84.2168 45.9404C83.9206 45.7308 83.36 45.626 82.5352 45.626H82.2139V48.2578ZM98.8115 49.0166C98.8115 49.7321 98.6771 50.4089 98.4082 51.0469C98.1439 51.6849 97.7611 52.2454 97.2598 52.7285C96.7402 53.2253 96.1546 53.6058 95.5029 53.8701C94.8512 54.1344 94.1768 54.2666 93.4795 54.2666C92.8688 54.2666 92.2695 54.1641 91.6816 53.959C91.0983 53.7493 90.5628 53.4508 90.0752 53.0635C89.4463 52.5622 88.9632 51.9629 88.626 51.2656C88.2933 50.5684 88.127 49.8187 88.127 49.0166C88.127 48.2965 88.2591 47.6221 88.5234 46.9932C88.7878 46.3597 89.1751 45.7969 89.6855 45.3047C90.1868 44.8171 90.7679 44.4388 91.4287 44.1699C92.0941 43.901 92.7777 43.7666 93.4795 43.7666C94.1768 43.7666 94.8535 43.901 95.5098 44.1699C96.1706 44.4388 96.7539 44.8171 97.2598 45.3047C97.7656 45.7969 98.1507 46.3597 98.415 46.9932C98.6794 47.6266 98.8115 48.3011 98.8115 49.0166ZM93.4795 52.3594C94.3864 52.3594 95.1338 52.0426 95.7217 51.4092C96.3141 50.7712 96.6104 49.9736 96.6104 49.0166C96.6104 48.0687 96.3118 47.2712 95.7148 46.624C95.1178 45.9769 94.3727 45.6533 93.4795 45.6533C92.5726 45.6533 91.8206 45.9769 91.2236 46.624C90.6266 47.2666 90.3281 48.0641 90.3281 49.0166C90.3281 49.9827 90.6221 50.7826 91.21 51.416C91.7979 52.0449 92.5544 52.3594 93.4795 52.3594ZM102.776 48.5107H103.084C103.667 48.5107 104.091 48.39 104.355 48.1484C104.62 47.9069 104.752 47.5195 104.752 46.9863C104.752 46.4941 104.62 46.1364 104.355 45.9131C104.091 45.6852 103.667 45.5713 103.084 45.5713H102.776V48.5107ZM100.623 54V43.9922H103.084C104.396 43.9922 105.365 44.2428 105.989 44.7441C106.618 45.2454 106.933 46.0202 106.933 47.0684C106.933 48.0391 106.616 48.8001 105.982 49.3516C105.354 49.903 104.481 50.1787 103.364 50.1787H102.776V54H100.623ZM115.655 54H113.188L110.556 49.3242V54H108.416V43.9922H111.479C112.695 43.9922 113.607 44.2292 114.213 44.7031C114.819 45.1725 115.122 45.8812 115.122 46.8291C115.122 47.5173 114.915 48.1051 114.5 48.5928C114.085 49.0804 113.55 49.3652 112.894 49.4473L115.655 54ZM110.556 48.2578H110.877C111.743 48.2578 112.315 48.1644 112.593 47.9775C112.871 47.7861 113.01 47.4557 113.01 46.9863C113.01 46.4941 112.859 46.1455 112.559 45.9404C112.262 45.7308 111.702 45.626 110.877 45.626H110.556V48.2578ZM116.947 54V43.9922H119.087V54H116.947ZM121.377 54V43.9922H127.27V45.7969H123.517V47.8545H127.27V49.6729H123.517V52.1816H127.27V54H121.377ZM126.306 40.5195L124.166 43.042H123.195L124.542 40.5195H126.306ZM133.114 45.8105V54H130.968V45.8105H128.521V43.9922H135.575V45.8105H133.114ZM136.963 54V43.9922H142.855V45.7969H139.103V47.8545H142.855V49.6729H139.103V52.1816H142.855V54H136.963ZM141.892 40.5195L139.752 43.042H138.781L140.128 40.5195H141.892ZM88.3672 61.5625V69.0938C88.3672 69.9531 88.3333 70.5833 88.2656 70.9844C88.1979 71.3854 88.0859 71.7266 87.9297 72.0078C87.7005 72.4349 87.362 72.7578 86.9141 72.9766C86.4714 73.1953 85.9323 73.3047 85.2969 73.3047C84.4948 73.3047 83.8516 73.1042 83.3672 72.7031C82.888 72.3021 82.5807 71.7135 82.4453 70.9375L84.2188 70.0938C84.2604 70.4531 84.3516 70.724 84.4922 70.9062C84.638 71.0885 84.8359 71.1797 85.0859 71.1797C85.3984 71.1797 85.6146 71.0677 85.7344 70.8438C85.8542 70.6146 85.9141 70.1068 85.9141 69.3203V68.2969V61.5625H88.3672ZM102.547 67.3047C102.547 68.1224 102.393 68.8958 102.086 69.625C101.784 70.3542 101.346 70.9948 100.773 71.5469C100.18 72.1146 99.5104 72.5495 98.7656 72.8516C98.0208 73.1536 97.25 73.3047 96.4531 73.3047C95.7552 73.3047 95.0703 73.1875 94.3984 72.9531C93.7318 72.7135 93.1198 72.3724 92.5625 71.9297C91.8438 71.3568 91.2917 70.6719 90.9062 69.875C90.526 69.0781 90.3359 68.2214 90.3359 67.3047C90.3359 66.4818 90.487 65.7109 90.7891 64.9922C91.0911 64.2682 91.5339 63.625 92.1172 63.0625C92.6901 62.5052 93.3542 62.0729 94.1094 61.7656C94.8698 61.4583 95.651 61.3047 96.4531 61.3047C97.25 61.3047 98.0234 61.4583 98.7734 61.7656C99.5286 62.0729 100.195 62.5052 100.773 63.0625C101.352 63.625 101.792 64.2682 102.094 64.9922C102.396 65.7161 102.547 66.487 102.547 67.3047ZM96.4531 71.125C97.4896 71.125 98.3438 70.763 99.0156 70.0391C99.6927 69.3099 100.031 68.3984 100.031 67.3047C100.031 66.2214 99.6901 65.3099 99.0078 64.5703C98.3255 63.8307 97.474 63.4609 96.4531 63.4609C95.4167 63.4609 94.5573 63.8307 93.875 64.5703C93.1927 65.3047 92.8516 66.2161 92.8516 67.3047C92.8516 68.4089 93.1875 69.3229 93.8594 70.0469C94.5312 70.7656 95.3958 71.125 96.4531 71.125ZM104.617 73V61.5625H107.062V66.7422L110.875 61.5625H113.703L109.609 66.7734L113.852 73H110.906L107.062 67.0156V73H104.617ZM114.992 73V61.5625H121.727V63.625H117.438V65.9766H121.727V68.0547H117.438V70.9219H121.727V73H114.992ZM132.406 73H129.586L126.578 67.6562V73H124.133V61.5625H127.633C129.023 61.5625 130.065 61.8333 130.758 62.375C131.451 62.9115 131.797 63.7214 131.797 64.8047C131.797 65.5911 131.56 66.263 131.086 66.8203C130.612 67.3776 130 67.7031 129.25 67.7969L132.406 73ZM126.578 66.4375H126.945C127.935 66.4375 128.589 66.3307 128.906 66.1172C129.224 65.8984 129.383 65.5208 129.383 64.9844C129.383 64.4219 129.211 64.0234 128.867 63.7891C128.529 63.5495 127.888 63.4297 126.945 63.4297H126.578V66.4375Z" fill="black"/>
<rect x="187.5" y="299.499" width="160" height="57" transform="rotate(-180 187.5 299.499)" fill="#461D07" stroke="black"/>
<path d="M140.565 279.488L140.258 279.488C139.674 279.488 139.251 279.609 138.986 279.851C138.722 280.092 138.59 280.479 138.59 281.013C138.59 281.505 138.722 281.863 138.986 282.086C139.251 282.314 139.674 282.428 140.258 282.428L140.565 282.428L140.565 279.488ZM142.719 273.999L142.719 284.007L140.258 284.007C138.945 284.007 137.977 283.756 137.353 283.255C136.724 282.754 136.409 281.979 136.409 280.931C136.409 279.96 136.726 279.199 137.359 278.647C137.988 278.096 138.861 277.82 139.978 277.82L140.565 277.82L140.565 273.999L142.719 273.999ZM127.687 273.999L130.154 273.999L132.786 278.675L132.786 273.999L134.926 273.999L134.926 284.007L131.863 284.007C130.646 284.007 129.735 283.77 129.129 283.296C128.523 282.826 128.22 282.118 128.22 281.17C128.22 280.482 128.427 279.894 128.842 279.406C129.257 278.919 129.792 278.634 130.448 278.552L127.687 273.999ZM132.786 279.741L132.465 279.741C131.599 279.741 131.027 279.835 130.749 280.021C130.471 280.213 130.332 280.543 130.332 281.013C130.332 281.505 130.482 281.854 130.783 282.059C131.079 282.268 131.64 282.373 132.465 282.373L132.786 282.373L132.786 279.741ZM116.188 278.982C116.188 278.267 116.323 277.59 116.592 276.952C116.856 276.314 117.239 275.754 117.74 275.271C118.26 274.774 118.845 274.393 119.497 274.129C120.149 273.865 120.823 273.732 121.521 273.732C122.131 273.732 122.73 273.835 123.318 274.04C123.902 274.25 124.437 274.548 124.925 274.936C125.554 275.437 126.037 276.036 126.374 276.733C126.707 277.431 126.873 278.18 126.873 278.982C126.873 279.702 126.741 280.377 126.477 281.006C126.212 281.639 125.825 282.202 125.314 282.694C124.813 283.182 124.232 283.56 123.571 283.829C122.906 284.098 122.222 284.232 121.521 284.232C120.823 284.232 120.146 284.098 119.49 283.829C118.829 283.56 118.246 283.182 117.74 282.694C117.234 282.202 116.849 281.639 116.585 281.006C116.321 280.372 116.188 279.698 116.188 278.982ZM121.521 275.64C120.614 275.64 119.866 275.956 119.278 276.59C118.686 277.228 118.39 278.025 118.39 278.982C118.39 279.93 118.688 280.728 119.285 281.375C119.882 282.022 120.627 282.346 121.521 282.346C122.427 282.346 123.179 282.022 123.776 281.375C124.373 280.732 124.672 279.935 124.672 278.982C124.672 278.016 124.378 277.216 123.79 276.583C123.202 275.954 122.446 275.64 121.521 275.64ZM112.224 279.488L111.916 279.488C111.333 279.488 110.909 279.609 110.645 279.851C110.38 280.092 110.248 280.479 110.248 281.013C110.248 281.505 110.38 281.863 110.645 282.086C110.909 282.314 111.333 282.428 111.916 282.428L112.224 282.428L112.224 279.488ZM114.377 273.999L114.377 284.007L111.916 284.007C110.604 284.007 109.635 283.756 109.011 283.255C108.382 282.754 108.067 281.979 108.067 280.931C108.067 279.96 108.384 279.199 109.018 278.647C109.646 278.096 110.519 277.82 111.636 277.82L112.224 277.82L112.224 273.999L114.377 273.999ZM99.3447 273.999L101.813 273.999L104.444 278.675L104.444 273.999L106.584 273.999L106.584 284.007L103.521 284.007C102.305 284.007 101.393 283.77 100.787 283.296C100.181 282.826 99.8779 282.118 99.8779 281.17C99.8779 280.482 100.085 279.894 100.5 279.406C100.915 278.919 101.45 278.634 102.106 278.552L99.3447 273.999ZM104.444 279.741L104.123 279.741C103.257 279.741 102.685 279.835 102.407 280.021C102.129 280.213 101.99 280.543 101.99 281.013C101.99 281.505 102.141 281.854 102.441 282.059C102.738 282.268 103.298 282.373 104.123 282.373L104.444 282.373L104.444 279.741ZM98.0527 273.999L98.0527 284.007L95.9131 284.007L95.9131 273.999L98.0527 273.999ZM93.623 273.999L93.623 284.007L87.7305 284.007L87.7305 282.202L91.4834 282.202L91.4834 280.145L87.7305 280.145L87.7305 278.326L91.4834 278.326L91.4834 275.817L87.7305 275.817L87.7305 273.999L93.623 273.999ZM88.6943 287.479L90.834 284.957L91.8047 284.957L90.458 287.479L88.6943 287.479ZM81.8857 282.188L81.8857 273.999L84.0322 273.999L84.0322 282.188L86.4795 282.188L86.4795 284.007L79.4248 284.007L79.4248 282.188L81.8857 282.188ZM78.0371 273.999L78.0371 284.007L72.1445 284.007L72.1445 282.202L75.8975 282.202L75.8975 280.145L72.1445 280.145L72.1445 278.326L75.8975 278.326L75.8975 275.817L72.1445 275.817L72.1445 273.999L78.0371 273.999ZM73.1084 287.479L75.248 284.957L76.2188 284.957L74.8721 287.479L73.1084 287.479ZM126.633 266.437L126.633 258.905C126.633 258.046 126.667 257.416 126.734 257.015C126.802 256.614 126.914 256.272 127.07 255.991C127.299 255.564 127.638 255.241 128.086 255.022C128.529 254.804 129.068 254.694 129.703 254.694C130.505 254.694 131.148 254.895 131.633 255.296C132.112 255.697 132.419 256.285 132.555 257.062L130.781 257.905C130.74 257.546 130.648 257.275 130.508 257.093C130.362 256.91 130.164 256.819 129.914 256.819C129.602 256.819 129.385 256.931 129.266 257.155C129.146 257.384 129.086 257.892 129.086 258.679L129.086 259.702L129.086 266.437L126.633 266.437ZM112.453 260.694C112.453 259.877 112.607 259.103 112.914 258.374C113.216 257.645 113.654 257.004 114.227 256.452C114.82 255.884 115.49 255.45 116.234 255.147C116.979 254.845 117.75 254.694 118.547 254.694C119.245 254.694 119.93 254.812 120.602 255.046C121.268 255.285 121.88 255.627 122.438 256.069C123.156 256.642 123.708 257.327 124.094 258.124C124.474 258.921 124.664 259.778 124.664 260.694C124.664 261.517 124.513 262.288 124.211 263.007C123.909 263.731 123.466 264.374 122.883 264.937C122.31 265.494 121.646 265.926 120.891 266.233C120.13 266.541 119.349 266.694 118.547 266.694C117.75 266.694 116.977 266.541 116.227 266.233C115.471 265.926 114.805 265.494 114.227 264.937C113.648 264.374 113.208 263.731 112.906 263.007C112.604 262.283 112.453 261.512 112.453 260.694ZM118.547 256.874C117.51 256.874 116.656 257.236 115.984 257.96C115.307 258.689 114.969 259.601 114.969 260.694C114.969 261.778 115.31 262.689 115.992 263.429C116.674 264.168 117.526 264.538 118.547 264.538C119.583 264.538 120.443 264.168 121.125 263.429C121.807 262.694 122.148 261.783 122.148 260.694C122.148 259.59 121.813 258.676 121.141 257.952C120.469 257.233 119.604 256.874 118.547 256.874ZM110.383 254.999L110.383 266.437L107.938 266.437L107.938 261.257L104.125 266.437L101.297 266.437L105.391 261.226L101.148 254.999L104.094 254.999L107.938 260.983L107.938 254.999L110.383 254.999ZM100.008 254.999L100.008 266.437L93.2734 266.437L93.2734 264.374L97.5625 264.374L97.5625 262.022L93.2734 262.022L93.2734 259.944L97.5625 259.944L97.5625 257.077L93.2734 257.077L93.2734 254.999L100.008 254.999ZM82.5938 254.999L85.4141 254.999L88.4219 260.343L88.4219 254.999L90.8672 254.999L90.8672 266.437L87.3672 266.437C85.9766 266.437 84.9349 266.166 84.2422 265.624C83.5495 265.088 83.2031 264.278 83.2031 263.194C83.2031 262.408 83.4401 261.736 83.9141 261.179C84.388 260.621 85 260.296 85.75 260.202L82.5938 254.999ZM88.4219 261.562L88.0547 261.562C87.0651 261.562 86.4115 261.668 86.0938 261.882C85.776 262.101 85.6172 262.478 85.6172 263.015C85.6172 263.577 85.7891 263.976 86.1328 264.21C86.4714 264.45 87.112 264.569 88.0547 264.569L88.4219 264.569L88.4219 261.562Z" fill="white"/>
<path d="M30.957 31.9121C28.1133 31.9121 26.3496 33.694 25.666 37.2578H32.502V39.0762H25.4746L25.4473 39.8418V40.6895L25.4746 41.291H31.6543V43.1094H25.6934C26.0124 44.6953 26.623 45.9258 27.5254 46.8008C28.4368 47.6667 29.6582 48.0996 31.1895 48.0996C32.5749 48.0996 33.9648 47.7988 35.3594 47.1973V49.3848C34.0286 49.9772 32.5885 50.2734 31.0391 50.2734C28.888 50.2734 27.1471 49.6673 25.8164 48.4551C24.4948 47.2337 23.6243 45.4518 23.2051 43.1094H20.9629V41.291H22.9863L22.959 40.7168V40.1426L22.9863 39.0762H20.9629V37.2578H23.1777C23.5423 34.8516 24.3991 33.0013 25.748 31.707C27.097 30.4036 28.8333 29.752 30.957 29.752C32.8255 29.752 34.498 30.1849 35.9746 31.0508L34.9355 33.0605C33.459 32.2949 32.1328 31.9121 30.957 31.9121ZM40.9375 50V33.334H39.0371V30.0391H44.7656V50H40.9375ZM48.9277 50L49.7656 41.4453H51.9629L52.4082 44.709C52.4746 45.2051 52.5293 45.6816 52.5723 46.1387C52.6191 46.5918 52.6562 47.0332 52.6836 47.4629C52.7539 46.709 52.8125 46.1152 52.8594 45.6816C52.9102 45.2441 52.9512 44.9199 52.9824 44.709L53.5332 41.4453H55.707L56.4277 50H54.6992L54.5176 46.0273C54.5137 45.9336 54.5078 45.793 54.5 45.6055C54.4492 44.5664 54.4238 43.7148 54.4238 43.0508L53.3105 50H52.0742L51.0254 43.0039C51.0254 43.5859 50.9902 44.418 50.9199 45.5C50.9043 45.7461 50.8926 45.9297 50.8848 46.0508L50.6211 50H48.9277Z" fill="black"/>
<path d="M164.43 124.756C163.291 124.756 162.585 125.47 162.311 126.897H165.049V127.625H162.234L162.223 127.932V128.271L162.234 128.512H164.709V129.24H162.322C162.45 129.876 162.694 130.368 163.056 130.719C163.421 131.066 163.91 131.239 164.523 131.239C165.078 131.239 165.634 131.118 166.193 130.878V131.754C165.66 131.991 165.083 132.11 164.463 132.11C163.601 132.11 162.904 131.867 162.371 131.381C161.842 130.892 161.493 130.179 161.325 129.24H160.427V128.512H161.238L161.227 128.282V128.052L161.238 127.625H160.427V126.897H161.314C161.46 125.933 161.804 125.192 162.344 124.674C162.884 124.152 163.579 123.891 164.43 123.891C165.178 123.891 165.848 124.064 166.439 124.411L166.023 125.216C165.432 124.909 164.901 124.756 164.43 124.756ZM168.427 132V125.325H167.666V124.006H169.96V132H168.427ZM171.678 132L172.594 125.988H173.941L175.099 129.528C175.123 129.602 175.149 129.71 175.177 129.852C175.207 129.995 175.234 130.158 175.259 130.341C175.281 130.155 175.305 129.989 175.333 129.844C175.36 129.696 175.386 129.588 175.411 129.52L176.589 125.988H177.916L178.836 132H177.616L177.177 128.374C177.144 128.106 177.122 127.903 177.111 127.766C177.1 127.629 177.095 127.502 177.095 127.384C177.095 127.321 177.095 127.275 177.095 127.245C177.097 127.212 177.1 127.183 177.103 127.158C177.062 127.394 177.022 127.598 176.984 127.77C176.948 127.94 176.915 128.069 176.885 128.156L175.612 132H174.889L173.637 128.156C173.626 128.121 173.601 128.022 173.563 127.861C173.527 127.699 173.477 127.464 173.411 127.154V127.331C173.411 127.61 173.386 127.952 173.337 128.357L173.333 128.374L172.898 132H171.678Z" fill="black"/>
<path d="M164.43 159.098C163.291 159.098 162.585 159.811 162.311 161.239H165.049V161.967H162.234L162.223 162.274V162.613L162.234 162.854H164.709V163.582H162.322C162.45 164.217 162.694 164.71 163.056 165.061C163.421 165.407 163.91 165.581 164.523 165.581C165.078 165.581 165.634 165.46 166.193 165.219V166.095C165.66 166.333 165.083 166.451 164.463 166.451C163.601 166.451 162.904 166.209 162.371 165.723C161.842 165.234 161.493 164.52 161.325 163.582H160.427V162.854H161.238L161.227 162.624V162.394L161.238 161.967H160.427V161.239H161.314C161.46 160.275 161.804 159.534 162.344 159.016C162.884 158.494 163.579 158.233 164.43 158.233C165.178 158.233 165.848 158.406 166.439 158.753L166.023 159.558C165.432 159.251 164.901 159.098 164.43 159.098ZM166.932 166.342L168.898 162.52C169.139 162.053 169.323 161.62 169.451 161.222C169.582 160.824 169.648 160.498 169.648 160.242C169.648 159.99 169.597 159.797 169.495 159.662C169.396 159.527 169.254 159.459 169.068 159.459C168.797 159.459 168.611 159.569 168.509 159.788C168.411 160.003 168.361 160.43 168.361 161.069H167.058C167.054 161.032 167.051 160.992 167.047 160.949C167.047 160.901 167.047 160.834 167.047 160.746C167.047 159.928 167.226 159.308 167.584 158.884C167.941 158.457 168.465 158.244 169.155 158.244C169.747 158.244 170.216 158.423 170.562 158.78C170.909 159.134 171.083 159.614 171.083 160.22C171.083 160.633 170.993 161.089 170.814 161.589C170.635 162.086 170.289 162.799 169.774 163.73L169.089 164.962H170.88V166.342H166.932ZM171.678 166.342L172.594 160.33H173.941L175.099 163.87C175.123 163.944 175.149 164.052 175.177 164.194C175.207 164.336 175.234 164.499 175.259 164.683C175.281 164.497 175.305 164.331 175.333 164.186C175.36 164.038 175.386 163.93 175.411 163.861L176.589 160.33H177.916L178.836 166.342H177.616L177.177 162.716C177.144 162.447 177.122 162.245 177.111 162.108C177.1 161.971 177.095 161.844 177.095 161.726C177.095 161.663 177.095 161.617 177.095 161.586C177.097 161.554 177.1 161.525 177.103 161.5C177.062 161.736 177.022 161.94 176.984 162.112C176.948 162.282 176.915 162.41 176.885 162.498L175.612 166.342H174.889L173.637 162.498C173.626 162.462 173.601 162.364 173.563 162.202C173.527 162.041 173.477 161.805 173.411 161.496V161.673C173.411 161.952 173.386 162.294 173.337 162.699L173.333 162.716L172.898 166.342H171.678Z" fill="black"/>
<path d="M164.43 193.44C163.291 193.44 162.585 194.153 162.311 195.58H165.049V196.309H162.234L162.223 196.615V196.955L162.234 197.196H164.709V197.924H162.322C162.45 198.559 162.694 199.052 163.056 199.402C163.421 199.749 163.91 199.923 164.523 199.923C165.078 199.923 165.634 199.802 166.193 199.561V200.437C165.66 200.674 165.083 200.793 164.463 200.793C163.601 200.793 162.904 200.55 162.371 200.065C161.842 199.576 161.493 198.862 161.325 197.924H160.427V197.196H161.238L161.227 196.966V196.736L161.238 196.309H160.427V195.58H161.314C161.46 194.617 161.804 193.876 162.344 193.357C162.884 192.835 163.579 192.574 164.43 192.574C165.178 192.574 165.848 192.748 166.439 193.095L166.023 193.9C165.432 193.593 164.901 193.44 164.43 193.44ZM166.856 198.395H168.192V198.488C168.192 198.798 168.244 199.035 168.35 199.2C168.46 199.36 168.617 199.441 168.821 199.441C169.047 199.441 169.221 199.34 169.341 199.14C169.465 198.939 169.528 198.654 169.528 198.285C169.528 197.862 169.449 197.561 169.292 197.382C169.135 197.199 168.876 197.108 168.515 197.108C168.493 197.108 168.462 197.11 168.421 197.114C168.381 197.117 168.348 197.119 168.323 197.119V195.805H168.427C168.858 195.805 169.166 195.727 169.352 195.57C169.542 195.413 169.637 195.155 169.637 194.798C169.637 194.524 169.582 194.31 169.473 194.157C169.363 194 169.212 193.921 169.018 193.921C168.818 193.921 168.664 193.998 168.558 194.151C168.456 194.305 168.405 194.531 168.405 194.83V194.918H167.113V194.732C167.113 194.035 167.283 193.503 167.622 193.138C167.962 192.77 168.454 192.585 169.1 192.585C169.699 192.585 170.159 192.773 170.48 193.149C170.801 193.525 170.962 194.064 170.962 194.765C170.962 195.246 170.86 195.632 170.655 195.92C170.451 196.205 170.157 196.373 169.774 196.424V196.522C170.256 196.617 170.615 196.82 170.853 197.13C171.09 197.44 171.208 197.862 171.208 198.395C171.208 199.14 171 199.725 170.584 200.152C170.172 200.58 169.606 200.793 168.887 200.793C168.237 200.793 167.733 200.603 167.376 200.224C167.022 199.844 166.845 199.306 166.845 198.608C166.845 198.587 166.846 198.554 166.85 198.51C166.854 198.462 166.856 198.424 166.856 198.395ZM171.678 200.684L172.594 194.672H173.941L175.099 198.211C175.123 198.285 175.149 198.393 175.177 198.536C175.207 198.678 175.234 198.841 175.259 199.025C175.281 198.838 175.305 198.673 175.333 198.528C175.36 198.38 175.386 198.272 175.411 198.203L176.589 194.672H177.916L178.836 200.684H177.616L177.177 197.057C177.144 196.789 177.122 196.587 177.111 196.45C177.1 196.313 177.095 196.186 177.095 196.068C177.095 196.005 177.095 195.958 177.095 195.928C177.097 195.895 177.1 195.867 177.103 195.842C177.062 196.077 177.022 196.281 176.984 196.454C176.948 196.624 176.915 196.752 176.885 196.84L175.612 200.684H174.889L173.637 196.84C173.626 196.804 173.601 196.706 173.563 196.544C173.527 196.383 173.477 196.147 173.411 195.838V196.014C173.411 196.294 173.386 196.636 173.337 197.041L173.333 197.057L172.898 200.684H171.678Z" fill="black"/>
<path d="M113.079 184.817L122.587 195.648C123.369 196.539 123.281 197.895 122.39 198.677L115.016 205.151C114.125 205.933 112.769 205.845 111.987 204.954L102.479 194.123L113.079 184.817Z" fill="white" stroke="black" stroke-width="0.613278"/>
<path d="M100.046 188.098L107.42 181.625C108.311 180.843 109.667 180.931 110.449 181.822L113.484 185.279L102.883 194.584L99.8488 191.128C99.0667 190.237 99.155 188.88 100.046 188.098Z" fill="#00A7FB" stroke="black" stroke-width="0.613278"/>
<path d="M125.629 127.439V141.852C125.629 143.037 124.668 143.998 123.482 143.998H113.67C112.484 143.998 111.523 143.037 111.523 141.852V127.439H125.629Z" fill="white" stroke="black" stroke-width="0.613278"/>
<path d="M113.67 121.307H123.482C124.668 121.307 125.629 122.268 125.629 123.453V128.053H111.523V123.453C111.523 122.268 112.484 121.307 113.67 121.307Z" fill="#00A7FB" stroke="black" stroke-width="0.613278"/>
<path d="M117.821 140.359V133.059H116.988V131.615H119.498V140.359H117.821Z" fill="black"/>
<path d="M120.846 154.107L126.001 167.565C126.425 168.672 125.871 169.914 124.764 170.338L115.601 173.848C114.494 174.272 113.253 173.718 112.828 172.611L107.673 159.152L120.846 154.107Z" fill="white" stroke="black" stroke-width="0.613278"/>
<path d="M107.484 152.657L116.648 149.147C117.755 148.723 118.996 149.277 119.42 150.384L121.065 154.679L107.893 159.724L106.248 155.429C105.824 154.322 106.377 153.081 107.484 152.657Z" fill="#00A7FB" stroke="black" stroke-width="0.613278"/>
<path d="M125.629 156.264V170.676C125.629 171.861 124.668 172.822 123.482 172.822H113.67C112.484 172.822 111.523 171.861 111.523 170.676V156.264H125.629Z" fill="white" stroke="black" stroke-width="0.613278"/>
<path d="M113.67 150.131H123.482C124.668 150.131 125.629 151.092 125.629 152.277V156.877H111.523V152.277C111.523 151.092 112.484 150.131 113.67 150.131Z" fill="#00A7FB" stroke="black" stroke-width="0.613278"/>
<path d="M116.186 169.184L118.336 165.003C118.599 164.492 118.801 164.019 118.941 163.584C119.084 163.149 119.156 162.791 119.156 162.512C119.156 162.236 119.1 162.025 118.989 161.877C118.881 161.729 118.725 161.655 118.521 161.655C118.226 161.655 118.022 161.775 117.911 162.015C117.803 162.25 117.749 162.717 117.749 163.416H116.323C116.319 163.376 116.315 163.332 116.311 163.284C116.311 163.232 116.311 163.159 116.311 163.063C116.311 162.168 116.507 161.49 116.898 161.027C117.29 160.559 117.863 160.326 118.617 160.326C119.264 160.326 119.777 160.521 120.156 160.913C120.536 161.3 120.725 161.825 120.725 162.488C120.725 162.939 120.628 163.438 120.432 163.985C120.236 164.528 119.857 165.309 119.294 166.327L118.545 167.674H120.504V169.184H116.186Z" fill="black"/>
<path d="M119.619 185.385L124.774 198.844C125.198 199.951 124.644 201.192 123.538 201.616L114.374 205.126C113.267 205.55 112.026 204.996 111.602 203.889L106.447 190.431L119.619 185.385Z" fill="white" stroke="black" stroke-width="0.613278"/>
<path d="M106.258 183.935L115.421 180.425C116.528 180.001 117.769 180.555 118.193 181.662L119.838 185.957L106.666 191.003L105.021 186.708C104.597 185.6 105.151 184.359 106.258 183.935Z" fill="#00A7FB" stroke="black" stroke-width="0.613278"/>
<path d="M119.619 185.385L124.774 198.844C125.198 199.951 124.644 201.192 123.538 201.616L114.374 205.126C113.267 205.55 112.026 204.996 111.602 203.889L106.447 190.431L119.619 185.385Z" fill="white" stroke="black" stroke-width="0.613278"/>
<path d="M106.258 183.935L115.421 180.425C116.528 180.001 117.769 180.555 118.193 181.662L119.838 185.957L106.666 191.003L105.021 186.708C104.597 185.6 105.151 184.359 106.258 183.935Z" fill="#00A7FB" stroke="black" stroke-width="0.613278"/>
<path d="M124.402 187.542V201.954C124.402 203.14 123.441 204.101 122.256 204.101H112.443C111.258 204.101 110.297 203.14 110.297 201.954V187.542H124.402Z" fill="white" stroke="black" stroke-width="0.613278"/>
<path d="M112.443 181.408H122.256C123.441 181.408 124.402 182.369 124.402 183.555V188.154H110.297V183.555C110.297 182.369 111.258 181.408 112.443 181.408Z" fill="#00A7FB" stroke="black" stroke-width="0.613278"/>
<path d="M114.875 197.958H116.337V198.06C116.337 198.4 116.395 198.659 116.51 198.839C116.63 199.015 116.802 199.102 117.025 199.102C117.273 199.102 117.463 198.993 117.594 198.773C117.73 198.553 117.798 198.242 117.798 197.839C117.798 197.376 117.712 197.046 117.54 196.851C117.369 196.651 117.085 196.551 116.69 196.551C116.666 196.551 116.632 196.553 116.588 196.557C116.544 196.561 116.508 196.563 116.48 196.563V195.126H116.594C117.065 195.126 117.403 195.04 117.606 194.868C117.814 194.696 117.918 194.415 117.918 194.024C117.918 193.724 117.858 193.491 117.738 193.323C117.618 193.151 117.453 193.065 117.241 193.065C117.021 193.065 116.854 193.149 116.738 193.317C116.626 193.485 116.57 193.732 116.57 194.06V194.155H115.157V193.952C115.157 193.189 115.342 192.608 115.714 192.209C116.085 191.806 116.624 191.604 117.331 191.604C117.986 191.604 118.489 191.81 118.84 192.221C119.191 192.632 119.367 193.221 119.367 193.988C119.367 194.515 119.255 194.936 119.032 195.251C118.808 195.563 118.487 195.747 118.067 195.802V195.91C118.594 196.014 118.988 196.236 119.247 196.575C119.507 196.914 119.637 197.376 119.637 197.958C119.637 198.773 119.409 199.414 118.954 199.881C118.503 200.348 117.884 200.582 117.097 200.582C116.387 200.582 115.836 200.374 115.444 199.959C115.057 199.544 114.863 198.955 114.863 198.192C114.863 198.168 114.865 198.132 114.869 198.084C114.873 198.032 114.875 197.99 114.875 197.958Z" fill="black"/>
<path d="M134.812 110V98.5625H136.172V108.703H140.492V110H134.812ZM147.117 109.023C147.742 109.023 148.336 108.906 148.898 108.672C149.466 108.432 149.977 108.086 150.43 107.633C150.878 107.185 151.219 106.677 151.453 106.109C151.688 105.542 151.805 104.94 151.805 104.305C151.805 103.664 151.685 103.055 151.445 102.477C151.211 101.898 150.872 101.388 150.43 100.945C149.982 100.497 149.474 100.156 148.906 99.9219C148.344 99.6875 147.747 99.5703 147.117 99.5703C146.482 99.5703 145.88 99.6875 145.312 99.9219C144.745 100.156 144.242 100.497 143.805 100.945C143.357 101.398 143.016 101.911 142.781 102.484C142.547 103.057 142.43 103.664 142.43 104.305C142.43 104.94 142.544 105.539 142.773 106.102C143.008 106.664 143.352 107.174 143.805 107.633C144.263 108.091 144.771 108.438 145.328 108.672C145.891 108.906 146.487 109.023 147.117 109.023ZM153.227 104.305C153.227 105.122 153.076 105.893 152.773 106.617C152.471 107.341 152.031 107.984 151.453 108.547C150.875 109.109 150.208 109.544 149.453 109.852C148.703 110.154 147.924 110.305 147.117 110.305C146.31 110.305 145.531 110.154 144.781 109.852C144.036 109.544 143.375 109.109 142.797 108.547C142.214 107.979 141.768 107.333 141.461 106.609C141.159 105.885 141.008 105.117 141.008 104.305C141.008 103.487 141.159 102.716 141.461 101.992C141.768 101.263 142.214 100.615 142.797 100.047C143.37 99.4896 144.031 99.0599 144.781 98.7578C145.531 98.4557 146.31 98.3047 147.117 98.3047C147.93 98.3047 148.711 98.4557 149.461 98.7578C150.216 99.0599 150.88 99.4896 151.453 100.047C152.031 100.609 152.471 101.255 152.773 101.984C153.076 102.708 153.227 103.482 153.227 104.305ZM157.391 110V104.766L153.516 98.5625H155.086L158.078 103.523L161.055 98.5625H162.617L158.75 104.766V110H157.391ZM164.031 110V98.5625H170.062V99.8047H165.391V103.086H170.062V104.352H165.391V108.734H170.062V110H164.031ZM172.375 110V98.5625H175.062C175.828 98.5625 176.388 98.6068 176.742 98.6953C177.102 98.7786 177.417 98.9245 177.688 99.1328C178.026 99.3984 178.289 99.7552 178.477 100.203C178.664 100.646 178.758 101.138 178.758 101.68C178.758 102.617 178.495 103.331 177.969 103.82C177.448 104.305 176.682 104.547 175.672 104.547H175.43L179.797 110H178.07L173.898 104.547H173.703V110H172.375ZM173.703 99.7109V103.539H174.742C175.805 103.539 176.516 103.404 176.875 103.133C177.234 102.857 177.414 102.378 177.414 101.695C177.414 100.961 177.229 100.448 176.859 100.156C176.49 99.8594 175.784 99.7109 174.742 99.7109H173.703Z" fill="black"/>
<path d="M134.211 191.776H136.332C136.332 191.805 136.333 191.849 136.336 191.909C136.339 191.966 136.34 192.009 136.34 192.038C136.34 192.991 136.164 193.735 135.812 194.269C135.464 194.802 134.98 195.069 134.363 195.069C133.762 195.069 133.285 194.809 132.934 194.288C132.582 193.765 132.406 193.052 132.406 192.151C132.406 191.243 132.589 190.528 132.953 190.007C133.318 189.483 133.815 189.222 134.445 189.222C134.872 189.222 135.234 189.347 135.531 189.597C135.831 189.847 136.049 190.21 136.188 190.687L135.164 191.159C135.12 190.875 135.035 190.663 134.91 190.522C134.788 190.382 134.625 190.312 134.422 190.312C134.117 190.312 133.893 190.46 133.75 190.757C133.609 191.051 133.539 191.516 133.539 192.151C133.539 192.758 133.613 193.218 133.762 193.53C133.913 193.843 134.133 193.999 134.422 193.999C134.674 193.999 134.871 193.894 135.012 193.683C135.155 193.469 135.227 193.17 135.227 192.784H134.211V191.776ZM138.152 191.769C138.165 191.769 138.186 191.77 138.215 191.772C138.246 191.775 138.268 191.776 138.281 191.776C138.529 191.776 138.715 191.707 138.84 191.569C138.965 191.431 139.027 191.228 139.027 190.96C139.027 190.687 138.97 190.487 138.855 190.362C138.741 190.237 138.557 190.175 138.305 190.175C138.266 190.175 138.236 190.176 138.215 190.179C138.194 190.179 138.174 190.18 138.156 190.183L138.152 191.769ZM137.051 194.999V189.296H138.234C138.885 189.296 139.357 189.424 139.648 189.679C139.943 189.934 140.09 190.341 140.09 190.901C140.09 191.308 140.014 191.634 139.863 191.882C139.715 192.127 139.49 192.299 139.188 192.397L140.281 194.999H139.082L138.152 192.64V194.999H137.051ZM142.531 193.983C142.823 193.983 143.04 193.831 143.184 193.526C143.329 193.222 143.402 192.763 143.402 192.151C143.402 191.534 143.329 191.073 143.184 190.769C143.04 190.464 142.823 190.312 142.531 190.312C142.24 190.312 142.022 190.464 141.879 190.769C141.736 191.071 141.664 191.532 141.664 192.151C141.664 192.769 141.736 193.228 141.879 193.53C142.022 193.832 142.24 193.983 142.531 193.983ZM144.539 192.229C144.539 193.099 144.357 193.791 143.992 194.304C143.628 194.814 143.141 195.069 142.531 195.069C141.901 195.069 141.41 194.813 141.059 194.3C140.707 193.784 140.531 193.068 140.531 192.151C140.531 191.237 140.708 190.521 141.062 190.003C141.419 189.482 141.909 189.222 142.531 189.222C143.156 189.222 143.647 189.487 144.004 190.019C144.361 190.55 144.539 191.287 144.539 192.229ZM148.773 189.296V192.878C148.773 193.315 148.76 193.627 148.734 193.812C148.708 193.994 148.665 194.145 148.605 194.265C148.467 194.538 148.267 194.741 148.004 194.874C147.743 195.004 147.408 195.069 146.996 195.069C146.585 195.069 146.246 195.004 145.98 194.874C145.717 194.741 145.518 194.538 145.383 194.265C145.32 194.142 145.276 193.989 145.25 193.804C145.224 193.619 145.211 193.31 145.211 192.878V192.71V189.296H146.348V192.968C146.348 193.434 146.395 193.735 146.488 193.87C146.585 194.003 146.754 194.069 146.996 194.069C147.243 194.069 147.413 194.002 147.504 193.866C147.598 193.728 147.645 193.429 147.645 192.968V189.296H148.773ZM150.738 191.769C150.751 191.769 150.771 191.77 150.797 191.772C150.826 191.775 150.846 191.776 150.859 191.776C151.102 191.776 151.285 191.707 151.41 191.569C151.538 191.429 151.602 191.228 151.602 190.968C151.602 190.697 151.542 190.498 151.422 190.37C151.302 190.24 151.115 190.175 150.859 190.175C150.846 190.175 150.826 190.176 150.797 190.179C150.771 190.181 150.751 190.183 150.738 190.183V191.769ZM149.637 194.999V189.296H150.82C151.448 189.296 151.914 189.433 152.219 189.706C152.523 189.977 152.676 190.392 152.676 190.952C152.676 191.486 152.529 191.901 152.234 192.198C151.94 192.493 151.527 192.64 150.996 192.64C150.928 192.64 150.876 192.64 150.84 192.64C150.806 192.637 150.773 192.634 150.742 192.632L150.738 194.999H149.637ZM153.277 194.999V189.296H155.676V190.351H154.379V191.503H155.555V192.55H154.379V193.886H155.676V194.999H153.277ZM133.078 204.937C132.969 204.981 132.858 205.013 132.746 205.034C132.637 205.058 132.526 205.069 132.414 205.069C131.688 205.069 131.096 204.805 130.641 204.276C130.188 203.748 129.961 203.055 129.961 202.198C129.961 201.308 130.182 200.589 130.625 200.042C131.07 199.495 131.651 199.222 132.367 199.222C132.5 199.222 132.625 199.233 132.742 199.257C132.859 199.278 132.971 199.312 133.078 199.358V200.425C132.969 200.381 132.862 200.348 132.758 200.327C132.656 200.306 132.556 200.296 132.457 200.296C132.077 200.296 131.768 200.464 131.531 200.8C131.294 201.136 131.176 201.581 131.176 202.136C131.176 202.67 131.297 203.102 131.539 203.433C131.784 203.763 132.098 203.929 132.48 203.929C132.577 203.929 132.674 203.917 132.773 203.894C132.875 203.87 132.977 203.836 133.078 203.792V204.937ZM135.594 203.983C135.885 203.983 136.103 203.831 136.246 203.526C136.392 203.222 136.465 202.763 136.465 202.151C136.465 201.534 136.392 201.073 136.246 200.769C136.103 200.464 135.885 200.312 135.594 200.312C135.302 200.312 135.085 200.464 134.941 200.769C134.798 201.071 134.727 201.532 134.727 202.151C134.727 202.769 134.798 203.228 134.941 203.53C135.085 203.832 135.302 203.983 135.594 203.983ZM137.602 202.229C137.602 203.099 137.419 203.791 137.055 204.304C136.69 204.814 136.203 205.069 135.594 205.069C134.964 205.069 134.473 204.813 134.121 204.3C133.77 203.784 133.594 203.068 133.594 202.151C133.594 201.237 133.771 200.521 134.125 200.003C134.482 199.482 134.971 199.222 135.594 199.222C136.219 199.222 136.71 199.487 137.066 200.019C137.423 200.55 137.602 201.287 137.602 202.229ZM138.027 204.999L138.586 199.296H140.051L140.348 201.472C140.392 201.802 140.428 202.12 140.457 202.425C140.488 202.727 140.513 203.021 140.531 203.308C140.578 202.805 140.617 202.409 140.648 202.12C140.682 201.828 140.71 201.612 140.73 201.472L141.098 199.296H142.547L143.027 204.999H141.875L141.754 202.351C141.751 202.288 141.747 202.194 141.742 202.069C141.708 201.377 141.691 200.809 141.691 200.366L140.949 204.999H140.125L139.426 200.335C139.426 200.723 139.402 201.278 139.355 201.999C139.345 202.163 139.337 202.285 139.332 202.366L139.156 204.999H138.027ZM144.746 201.769C144.759 201.769 144.779 201.77 144.805 201.772C144.833 201.775 144.854 201.776 144.867 201.776C145.109 201.776 145.293 201.707 145.418 201.569C145.546 201.429 145.609 201.228 145.609 200.968C145.609 200.697 145.549 200.498 145.43 200.37C145.31 200.24 145.122 200.175 144.867 200.175C144.854 200.175 144.833 200.176 144.805 200.179C144.779 200.181 144.759 200.183 144.746 200.183V201.769ZM143.645 204.999V199.296H144.828C145.456 199.296 145.922 199.433 146.227 199.706C146.531 199.977 146.684 200.392 146.684 200.952C146.684 201.486 146.536 201.901 146.242 202.198C145.948 202.493 145.535 202.64 145.004 202.64C144.936 202.64 144.884 202.64 144.848 202.64C144.814 202.637 144.781 202.634 144.75 202.632L144.746 204.999H143.645ZM147.285 204.999V199.296H148.41V203.886H149.707V204.999H147.285ZM150.16 204.999V199.296H152.559V200.351H151.262V201.503H152.438V202.55H151.262V203.886H152.559V204.999H150.16ZM153.867 204.999V200.351H152.996V199.296H155.883V200.351H155.012V204.999H153.867Z" fill="black"/>
<path d="M42.5701 198.243C43.709 198.243 44.4153 197.529 44.6891 196.102L41.9514 196.102L41.9514 195.374L44.7658 195.374L44.7767 195.067L44.7767 194.728L44.7658 194.487L42.2909 194.487L42.2909 193.759L44.6782 193.759C44.5504 193.123 44.3058 192.631 43.9444 192.28C43.5794 191.933 43.0903 191.76 42.477 191.76C41.9222 191.76 41.3655 191.881 40.807 192.121L40.807 191.245C41.34 191.008 41.9167 190.89 42.5373 190.89C43.3987 190.89 44.0959 191.132 44.6289 191.618C45.1582 192.107 45.5068 192.821 45.6747 193.759L46.5726 193.759L46.5726 194.487L45.7623 194.487L45.7732 194.717L45.7732 194.947L45.7623 195.374L46.5726 195.374L46.5726 196.102L45.6856 196.102C45.5396 197.066 45.1965 197.807 44.6562 198.325C44.116 198.847 43.4206 199.108 42.5701 199.108C41.8218 199.108 41.152 198.935 40.5606 198.588L40.9768 197.783C41.5681 198.09 42.0992 198.243 42.5701 198.243ZM38.5731 190.999L38.573 197.674L39.3341 197.674L39.3341 198.993L37.0399 198.993L37.0399 190.999L38.5731 190.999ZM35.322 190.999L34.4062 197.011L33.0593 197.011L31.9012 193.471C31.8766 193.397 31.8506 193.289 31.8232 193.147C31.7931 193.004 31.7657 192.842 31.7411 192.658C31.7192 192.844 31.6945 193.01 31.6672 193.155C31.6398 193.303 31.6138 193.411 31.5891 193.479L30.4106 197.011L29.0841 197.011L28.1643 190.999L29.3839 190.999L29.8233 194.625C29.8562 194.893 29.8781 195.096 29.889 195.233C29.9 195.37 29.9054 195.497 29.9054 195.615C29.9054 195.678 29.9054 195.724 29.9054 195.754C29.9027 195.787 29.9 195.816 29.8972 195.841C29.9383 195.605 29.978 195.401 30.0163 195.229C30.0519 195.059 30.0848 194.93 30.1149 194.843L31.3879 190.999L32.1107 190.999L33.3632 194.843C33.3741 194.878 33.3988 194.977 33.4371 195.138C33.4727 195.3 33.5233 195.535 33.589 195.845L33.589 195.668C33.589 195.389 33.6137 195.047 33.663 194.642L33.6671 194.625L34.1024 190.999L35.322 190.999Z" fill="black"/>
<path d="M42.5701 163.901C43.709 163.901 44.4153 163.188 44.6891 161.76L41.9514 161.76L41.9514 161.032L44.7658 161.032L44.7767 160.725L44.7767 160.386L44.7658 160.145L42.2909 160.145L42.2909 159.417L44.6782 159.417C44.5504 158.782 44.3058 158.289 43.9444 157.938C43.5794 157.592 43.0903 157.418 42.477 157.418C41.9222 157.418 41.3655 157.539 40.807 157.78L40.807 156.904C41.34 156.666 41.9167 156.548 42.5373 156.548C43.3987 156.548 44.0959 156.79 44.6289 157.276C45.1582 157.765 45.5068 158.479 45.6747 159.417L46.5726 159.417L46.5726 160.145L45.7623 160.145L45.7732 160.375L45.7732 160.605L45.7623 161.032L46.5726 161.032L46.5726 161.76L45.6856 161.76C45.5396 162.724 45.1965 163.465 44.6562 163.983C44.116 164.505 43.4206 164.766 42.5701 164.766C41.8218 164.766 41.152 164.593 40.5606 164.246L40.9768 163.441C41.5681 163.748 42.0992 163.901 42.5701 163.901ZM40.0678 156.657L38.1022 160.479C37.8612 160.946 37.6769 161.379 37.5491 161.777C37.4177 162.175 37.352 162.501 37.352 162.757C37.352 163.009 37.4031 163.202 37.5053 163.337C37.6039 163.472 37.7463 163.54 37.9324 163.54C38.2025 163.54 38.3887 163.43 38.4909 163.211C38.5895 162.996 38.6388 162.569 38.6388 161.93L39.9419 161.93C39.9456 161.967 39.9492 162.007 39.9529 162.051C39.9529 162.098 39.9529 162.166 39.9529 162.253C39.9529 163.071 39.774 163.691 39.4163 164.115C39.0585 164.542 38.5347 164.755 37.8448 164.755C37.2535 164.755 36.7844 164.577 36.4376 164.219C36.0909 163.865 35.9175 163.385 35.9175 162.779C35.9175 162.366 36.0069 161.91 36.1858 161.41C36.3646 160.913 36.7114 160.2 37.2261 159.269L37.9105 158.037L36.1201 158.037L36.1201 156.657L40.0678 156.657ZM35.322 156.657L34.4062 162.669L33.0593 162.669L31.9012 159.129C31.8766 159.055 31.8506 158.947 31.8232 158.805C31.7931 158.663 31.7657 158.5 31.7411 158.316C31.7192 158.502 31.6945 158.668 31.6672 158.813C31.6398 158.961 31.6138 159.069 31.5891 159.138L30.4106 162.669L29.0841 162.669L28.1643 156.657L29.3839 156.657L29.8233 160.283C29.8562 160.552 29.8781 160.754 29.889 160.891C29.9 161.028 29.9054 161.155 29.9054 161.273C29.9054 161.336 29.9054 161.383 29.9054 161.413C29.9027 161.445 29.9 161.474 29.8972 161.499C29.9383 161.263 29.978 161.059 30.0163 160.887C30.0519 160.717 30.0848 160.589 30.1149 160.501L31.3879 156.657L32.1107 156.657L33.3632 160.501C33.3741 160.537 33.3988 160.635 33.4371 160.797C33.4727 160.958 33.5233 161.194 33.589 161.503L33.589 161.326C33.589 161.047 33.6137 160.705 33.663 160.3L33.6671 160.283L34.1024 156.657L35.322 156.657Z" fill="black"/>
<path d="M42.5701 129.559C43.709 129.559 44.4153 128.846 44.6891 127.419L41.9514 127.419L41.9514 126.69L44.7658 126.69L44.7767 126.384L44.7767 126.044L44.7658 125.803L42.2909 125.803L42.2909 125.075L44.6782 125.075C44.5504 124.44 44.3058 123.947 43.9444 123.597C43.5794 123.25 43.0903 123.077 42.477 123.077C41.9222 123.077 41.3655 123.197 40.807 123.438L40.807 122.562C41.34 122.325 41.9167 122.206 42.5373 122.206C43.3987 122.206 44.0959 122.449 44.6289 122.934C45.1582 123.423 45.5068 124.137 45.6747 125.075L46.5726 125.075L46.5726 125.803L45.7623 125.803L45.7732 126.033L45.7732 126.263L45.7623 126.69L46.5726 126.69L46.5726 127.419L45.6856 127.419C45.5396 128.382 45.1965 129.123 44.6562 129.642C44.116 130.164 43.4206 130.425 42.5701 130.425C41.8218 130.425 41.152 130.251 40.5606 129.904L40.9768 129.099C41.5681 129.406 42.0992 129.559 42.5701 129.559ZM40.1445 124.604L38.8085 124.604L38.8085 124.511C38.8085 124.201 38.7556 123.964 38.6497 123.799C38.5402 123.639 38.3832 123.558 38.1788 123.558C37.9525 123.558 37.7791 123.659 37.6587 123.859C37.5345 124.06 37.4725 124.345 37.4725 124.714C37.4725 125.137 37.551 125.438 37.7079 125.617C37.8649 125.8 38.1241 125.891 38.4854 125.891C38.5073 125.891 38.5384 125.889 38.5785 125.885C38.6187 125.882 38.6515 125.88 38.6771 125.88L38.6771 127.194L38.5731 127.194C38.1423 127.194 37.8339 127.273 37.6477 127.429C37.4579 127.586 37.363 127.844 37.363 128.202C37.363 128.475 37.4177 128.689 37.5272 128.842C37.6368 128.999 37.7882 129.078 37.9817 129.078C38.1825 129.078 38.3358 129.001 38.4416 128.848C38.5438 128.694 38.595 128.468 38.595 128.169L38.595 128.081L39.8872 128.081L39.8872 128.267C39.8872 128.964 39.7174 129.496 39.3779 129.861C39.0385 130.229 38.5457 130.414 37.8996 130.414C37.3009 130.414 36.841 130.226 36.5198 129.85C36.1985 129.474 36.0379 128.935 36.0379 128.234C36.0379 127.753 36.1401 127.367 36.3446 127.079C36.549 126.794 36.8428 126.626 37.2261 126.575L37.2261 126.477C36.7443 126.382 36.3847 126.179 36.1474 125.869C35.9102 125.559 35.7915 125.137 35.7915 124.604C35.7915 123.859 35.9996 123.274 36.4157 122.847C36.8282 122.419 37.394 122.206 38.1131 122.206C38.7629 122.206 39.2666 122.396 39.6243 122.775C39.9784 123.155 40.1554 123.693 40.1554 124.391C40.1554 124.413 40.1536 124.445 40.15 124.489C40.1463 124.537 40.1445 124.575 40.1445 124.604ZM35.322 122.315L34.4062 128.327L33.0593 128.327L31.9012 124.788C31.8766 124.714 31.8506 124.606 31.8232 124.463C31.7931 124.321 31.7657 124.158 31.7411 123.974C31.7192 124.161 31.6945 124.326 31.6672 124.471C31.6398 124.619 31.6138 124.727 31.5891 124.796L30.4106 128.327L29.0841 128.327L28.1643 122.315L29.3839 122.315L29.8233 125.942C29.8562 126.21 29.8781 126.412 29.889 126.549C29.9 126.686 29.9054 126.813 29.9054 126.931C29.9054 126.994 29.9054 127.041 29.9054 127.071C29.9027 127.104 29.9 127.132 29.8972 127.157C29.9383 126.922 29.978 126.718 30.0163 126.545C30.0519 126.375 30.0848 126.247 30.1149 126.159L31.3879 122.315L32.1107 122.315L33.3632 126.159C33.3741 126.195 33.3988 126.293 33.4371 126.455C33.4727 126.616 33.5233 126.852 33.589 127.161L33.589 126.985C33.589 126.705 33.6137 126.363 33.663 125.958L33.6671 125.942L34.1024 122.315L35.322 122.315Z" fill="black"/>
<path d="M93.9209 138.182L84.4129 127.351C83.6309 126.46 83.7191 125.104 84.6099 124.322L91.9841 117.848C92.875 117.066 94.2312 117.154 95.0133 118.045L104.521 128.876L93.9209 138.182Z" fill="white" stroke="black" stroke-width="0.613278"/>
<path d="M106.954 134.901L99.58 141.374C98.6891 142.156 97.3328 142.068 96.5508 141.177L93.5163 137.72L104.117 128.415L107.151 131.871C107.933 132.762 107.845 134.119 106.954 134.901Z" fill="#461D07" stroke="black" stroke-width="0.613278"/>
<path d="M81.3713 195.56L81.3713 181.147C81.3714 179.962 82.3324 179.001 83.5178 179.001L93.3303 179.001C94.5158 179.001 95.4768 179.962 95.4768 181.147L95.4768 195.56L81.3713 195.56Z" fill="white" stroke="black" stroke-width="0.613278"/>
<path d="M93.3303 201.692L83.5178 201.692C82.3324 201.692 81.3713 200.731 81.3713 199.546L81.3713 194.946L95.4768 194.946L95.4768 199.546C95.4768 200.731 94.5158 201.692 93.3303 201.692Z" fill="#461D07" stroke="black" stroke-width="0.613278"/>
<path d="M89.1792 182.64L89.1792 189.94L90.0117 189.94L90.0117 191.384L87.5023 191.384L87.5023 182.64L89.1792 182.64Z" fill="black"/>
<path d="M86.1544 168.892L80.9993 155.434C80.5753 154.327 81.129 153.085 82.236 152.661L91.3993 149.151C92.5063 148.727 93.7475 149.281 94.1715 150.388L99.3266 163.847L86.1544 168.892Z" fill="white" stroke="black" stroke-width="0.613278"/>
<path d="M99.5158 170.342L90.3524 173.852C89.2454 174.276 88.0042 173.722 87.5802 172.615L85.935 168.32L99.1072 163.275L100.752 167.57C101.176 168.677 100.623 169.918 99.5158 170.342Z" fill="#461D07" stroke="black" stroke-width="0.613278"/>
<path d="M81.3714 166.735L81.3714 152.323C81.3714 151.138 82.3325 150.177 83.5179 150.177L93.3304 150.177C94.5158 150.177 95.4768 151.138 95.4769 152.323L95.4769 166.735L81.3714 166.735Z" fill="white" stroke="black" stroke-width="0.613278"/>
<path d="M93.3304 172.868L83.5179 172.868C82.3324 172.868 81.3714 171.907 81.3714 170.722L81.3714 166.122L95.4769 166.122L95.4769 170.722C95.4769 171.907 94.5158 172.868 93.3304 172.868Z" fill="#461D07" stroke="black" stroke-width="0.613278"/>
<path d="M90.8143 153.815L88.6642 157.996C88.4007 158.507 88.1991 158.98 88.0593 159.415C87.9156 159.85 87.8437 160.208 87.8437 160.487C87.8437 160.763 87.8996 160.974 88.0114 161.122C88.1192 161.27 88.2749 161.344 88.4786 161.344C88.774 161.344 88.9776 161.224 89.0894 160.984C89.1972 160.749 89.2511 160.282 89.2511 159.583L90.6765 159.583C90.6805 159.623 90.6845 159.667 90.6885 159.715C90.6885 159.767 90.6885 159.84 90.6885 159.936C90.6885 160.831 90.4929 161.509 90.1016 161.973C89.7103 162.44 89.1374 162.673 88.3827 162.673C87.7359 162.673 87.2229 162.478 86.8436 162.086C86.4642 161.699 86.2746 161.174 86.2746 160.511C86.2746 160.06 86.3724 159.561 86.5681 159.014C86.7637 158.471 87.143 157.69 87.706 156.672L88.4546 155.325L86.4962 155.325L86.4962 153.815L90.8143 153.815Z" fill="black"/>
<path d="M87.3809 137.615L82.2258 124.156C81.8018 123.049 82.3555 121.808 83.4625 121.384L92.6258 117.874C93.7328 117.45 94.974 118.004 95.398 119.111L100.553 132.569L87.3809 137.615Z" fill="white" stroke="black" stroke-width="0.613278"/>
<path d="M100.742 139.065L91.579 142.575C90.472 142.999 89.2308 142.445 88.8068 141.338L87.1615 137.043L100.334 131.997L101.979 136.292C102.403 137.4 101.849 138.641 100.742 139.065Z" fill="#461D07" stroke="black" stroke-width="0.613278"/>
<path d="M87.3809 137.615L82.2258 124.156C81.8018 123.049 82.3555 121.808 83.4625 121.384L92.6258 117.874C93.7328 117.45 94.974 118.004 95.398 119.111L100.553 132.569L87.3809 137.615Z" fill="white" stroke="black" stroke-width="0.613278"/>
<path d="M100.742 139.065L91.579 142.575C90.472 142.999 89.2308 142.445 88.8068 141.338L87.1615 137.043L100.334 131.997L101.979 136.292C102.403 137.4 101.849 138.641 100.742 139.065Z" fill="#461D07" stroke="black" stroke-width="0.613278"/>
<path d="M82.598 135.458L82.598 121.046C82.598 119.86 83.559 118.899 84.7444 118.899L94.5569 118.899C95.7424 118.899 96.7034 119.86 96.7034 121.046L96.7034 135.458L82.598 135.458Z" fill="white" stroke="black" stroke-width="0.613278"/>
<path d="M94.5569 141.591L84.7444 141.591C83.559 141.591 82.598 140.63 82.598 139.444L82.598 134.845L96.7034 134.845L96.7034 139.444C96.7034 140.63 95.7424 141.591 94.5569 141.591Z" fill="#461D07" stroke="black" stroke-width="0.613278"/>
<path d="M92.1247 125.042L90.6634 125.042L90.6634 124.94C90.6634 124.6 90.6055 124.341 90.4897 124.161C90.3699 123.985 90.1982 123.898 89.9746 123.898C89.7271 123.898 89.5374 124.007 89.4057 124.227C89.2699 124.447 89.202 124.758 89.202 125.161C89.202 125.624 89.2879 125.954 89.4596 126.149C89.6313 126.349 89.9147 126.449 90.31 126.449C90.334 126.449 90.3679 126.447 90.4118 126.443C90.4558 126.439 90.4917 126.437 90.5196 126.437L90.5196 127.874L90.4058 127.874C89.9347 127.874 89.5973 127.96 89.3937 128.132C89.1861 128.304 89.0823 128.585 89.0823 128.976C89.0823 129.276 89.1422 129.509 89.2619 129.677C89.3817 129.849 89.5474 129.935 89.759 129.935C89.9786 129.935 90.1463 129.851 90.2621 129.683C90.3739 129.515 90.4298 129.268 90.4298 128.94L90.4298 128.845L91.8432 128.845L91.8432 129.048C91.8432 129.811 91.6576 130.392 91.2862 130.791C90.9149 131.194 90.3759 131.396 89.6692 131.396C89.0144 131.396 88.5113 131.19 88.16 130.779C87.8086 130.368 87.6329 129.779 87.6329 129.012C87.6329 128.485 87.7447 128.064 87.9683 127.749C88.1919 127.437 88.5133 127.253 88.9325 127.198L88.9325 127.09C88.4055 126.986 88.0122 126.764 87.7527 126.425C87.4932 126.086 87.3634 125.624 87.3634 125.042C87.3634 124.227 87.591 123.586 88.0462 123.119C88.4973 122.652 89.1162 122.418 89.9028 122.418C90.6135 122.418 91.1645 122.626 91.5557 123.041C91.943 123.456 92.1367 124.045 92.1367 124.808C92.1367 124.832 92.1347 124.868 92.1307 124.916C92.1267 124.968 92.1247 125.01 92.1247 125.042Z" fill="black"/>
<path d="M72.1875 212.999L72.1875 224.437L70.8281 224.437L70.8281 214.296L66.5078 214.296L66.5078 212.999L72.1875 212.999ZM59.8828 213.976C59.2578 213.976 58.6641 214.093 58.1016 214.327C57.5339 214.567 57.0234 214.913 56.5703 215.366C56.1224 215.814 55.7813 216.322 55.5469 216.89C55.3125 217.457 55.1953 218.059 55.1953 218.694C55.1953 219.335 55.3151 219.944 55.5547 220.522C55.7891 221.101 56.1276 221.611 56.5703 222.054C57.0182 222.502 57.526 222.843 58.0938 223.077C58.6563 223.312 59.2526 223.429 59.8828 223.429C60.5182 223.429 61.1198 223.312 61.6875 223.077C62.2552 222.843 62.7578 222.502 63.1953 222.054C63.6432 221.601 63.9844 221.088 64.2188 220.515C64.4531 219.942 64.5703 219.335 64.5703 218.694C64.5703 218.059 64.4557 217.46 64.2266 216.897C63.9922 216.335 63.6484 215.825 63.1953 215.366C62.737 214.908 62.2292 214.562 61.6719 214.327C61.1094 214.093 60.513 213.976 59.8828 213.976ZM53.7734 218.694C53.7734 217.877 53.9245 217.106 54.2266 216.382C54.5286 215.658 54.9688 215.015 55.5469 214.452C56.125 213.89 56.7917 213.455 57.5469 213.147C58.2969 212.845 59.0755 212.694 59.8828 212.694C60.6901 212.694 61.4688 212.845 62.2188 213.147C62.9635 213.455 63.625 213.89 64.2031 214.452C64.7865 215.02 65.2318 215.666 65.5391 216.39C65.8411 217.114 65.9922 217.882 65.9922 218.694C65.9922 219.512 65.8411 220.283 65.5391 221.007C65.2318 221.736 64.7865 222.384 64.2031 222.952C63.6302 223.509 62.9688 223.939 62.2188 224.241C61.4688 224.543 60.6901 224.694 59.8828 224.694C59.0703 224.694 58.2891 224.543 57.5391 224.241C56.7839 223.939 56.1198 223.509 55.5469 222.952C54.9688 222.39 54.5286 221.744 54.2266 221.015C53.9245 220.291 53.7734 219.517 53.7734 218.694ZM49.6094 212.999L49.6094 218.233L53.4844 224.437L51.9141 224.437L48.9219 219.476L45.9453 224.437L44.3828 224.437L48.25 218.233L48.25 212.999L49.6094 212.999ZM42.9688 212.999L42.9688 224.437L36.9375 224.437L36.9375 223.194L41.6094 223.194L41.6094 219.913L36.9375 219.913L36.9375 218.647L41.6094 218.647L41.6094 214.265L36.9375 214.265L36.9375 212.999L42.9688 212.999ZM34.625 212.999L34.625 224.437L31.9375 224.437C31.1719 224.437 30.612 224.392 30.2578 224.304C29.8984 224.22 29.5833 224.075 29.3125 223.866C28.974 223.601 28.7109 223.244 28.5234 222.796C28.3359 222.353 28.2422 221.861 28.2422 221.319C28.2422 220.382 28.5052 219.668 29.0313 219.179C29.5521 218.694 30.3177 218.452 31.3281 218.452L31.5703 218.452L27.2031 212.999L28.9297 212.999L33.1016 218.452L33.2969 218.452L33.2969 212.999L34.625 212.999ZM33.2969 223.288L33.2969 219.46L32.2578 219.46C31.1953 219.46 30.4844 219.595 30.125 219.866C29.7656 220.142 29.5859 220.621 29.5859 221.304C29.5859 222.038 29.7708 222.551 30.1406 222.843C30.5104 223.14 31.2161 223.288 32.2578 223.288L33.2969 223.288Z" fill="black"/>
<path d="M72.7891 131.223L70.668 131.223C70.668 131.194 70.6667 131.15 70.6641 131.09C70.6615 131.033 70.6602 130.99 70.6602 130.961C70.6602 130.008 70.8359 129.264 71.1875 128.73C71.5365 128.197 72.0195 127.93 72.6367 127.93C73.2383 127.93 73.7148 128.19 74.0664 128.711C74.418 129.234 74.5938 129.947 74.5938 130.848C74.5938 131.757 74.4115 132.471 74.0469 132.992C73.6823 133.516 73.1849 133.777 72.5547 133.777C72.1276 133.777 71.7656 133.652 71.4688 133.402C71.1693 133.152 70.9505 132.789 70.8125 132.312L71.8359 131.84C71.8802 132.124 71.9648 132.336 72.0898 132.477C72.2122 132.617 72.375 132.687 72.5781 132.687C72.8828 132.687 73.1068 132.539 73.25 132.242C73.3906 131.948 73.4609 131.483 73.4609 130.848C73.4609 130.241 73.3867 129.781 73.2383 129.469C73.0872 129.156 72.8672 129 72.5781 129C72.3255 129 72.1289 129.105 71.9883 129.316C71.8451 129.53 71.7734 129.829 71.7734 130.215L72.7891 130.215L72.7891 131.223ZM68.8477 131.23C68.8346 131.23 68.8138 131.229 68.7852 131.227C68.7539 131.224 68.7318 131.223 68.7188 131.223C68.4714 131.223 68.2852 131.292 68.1602 131.43C68.0352 131.568 67.9727 131.771 67.9727 132.039C67.9727 132.312 68.0299 132.512 68.1445 132.637C68.2591 132.762 68.4427 132.824 68.6953 132.824C68.7344 132.824 68.7643 132.823 68.7852 132.82C68.806 132.82 68.8255 132.819 68.8438 132.816L68.8477 131.23ZM69.9492 128L69.9492 133.703L68.7656 133.703C68.1146 133.703 67.6432 133.576 67.3516 133.32C67.0573 133.065 66.9102 132.658 66.9102 132.098C66.9102 131.691 66.9857 131.365 67.1367 131.117C67.2852 130.872 67.5104 130.701 67.8125 130.602L66.7188 128L67.918 128L68.8477 130.359L68.8477 128L69.9492 128ZM64.4688 129.016C64.1771 129.016 63.9596 129.168 63.8164 129.473C63.6706 129.777 63.5977 130.236 63.5977 130.848C63.5977 131.465 63.6706 131.926 63.8164 132.23C63.9596 132.535 64.1771 132.687 64.4688 132.687C64.7604 132.687 64.9779 132.535 65.1211 132.23C65.2643 131.928 65.3359 131.467 65.3359 130.848C65.3359 130.23 65.2643 129.771 65.1211 129.469C64.9779 129.167 64.7604 129.016 64.4688 129.016ZM62.4609 130.77C62.4609 129.9 62.6432 129.208 63.0078 128.695C63.3724 128.185 63.8594 127.93 64.4688 127.93C65.099 127.93 65.5898 128.186 65.9414 128.699C66.293 129.215 66.4688 129.931 66.4688 130.848C66.4688 131.762 66.2917 132.478 65.9375 132.996C65.5807 133.517 65.0911 133.777 64.4688 133.777C63.8438 133.777 63.3529 133.512 62.9961 132.98C62.6393 132.449 62.4609 131.712 62.4609 130.77ZM58.2266 133.703L58.2266 130.121C58.2266 129.684 58.2396 129.372 58.2656 129.187C58.2917 129.005 58.3346 128.854 58.3945 128.734C58.5326 128.461 58.7331 128.258 58.9961 128.125C59.2565 127.995 59.5924 127.93 60.0039 127.93C60.4154 127.93 60.7539 127.995 61.0195 128.125C61.2826 128.258 61.4818 128.461 61.6172 128.734C61.6797 128.857 61.724 129.01 61.75 129.195C61.776 129.38 61.7891 129.689 61.7891 130.121L61.7891 130.289L61.7891 133.703L60.6523 133.703L60.6523 130.031C60.6523 129.565 60.6055 129.264 60.5117 129.129C60.4154 128.996 60.2461 128.93 60.0039 128.93C59.7565 128.93 59.5872 128.997 59.4961 129.133C59.4023 129.271 59.3555 129.57 59.3555 130.031L59.3555 133.703L58.2266 133.703ZM56.2617 131.23C56.2487 131.23 56.2292 131.229 56.2031 131.227C56.1745 131.224 56.1536 131.223 56.1406 131.223C55.8984 131.223 55.7148 131.292 55.5898 131.43C55.4622 131.57 55.3984 131.771 55.3984 132.031C55.3984 132.302 55.4583 132.501 55.5781 132.629C55.6979 132.759 55.8854 132.824 56.1406 132.824C56.1536 132.824 56.1745 132.823 56.2031 132.82C56.2292 132.818 56.2487 132.816 56.2617 132.816L56.2617 131.23ZM57.3633 128L57.3633 133.703L56.1797 133.703C55.5521 133.703 55.0859 133.566 54.7813 133.293C54.4766 133.022 54.3242 132.607 54.3242 132.047C54.3242 131.513 54.4714 131.098 54.7656 130.801C55.0599 130.507 55.4727 130.359 56.0039 130.359C56.0716 130.359 56.1237 130.359 56.1602 130.359C56.194 130.362 56.2266 130.365 56.2578 130.367L56.2617 128L57.3633 128ZM53.7227 128L53.7227 133.703L51.3242 133.703L51.3242 132.648L52.6211 132.648L52.6211 131.496L51.4453 131.496L51.4453 130.449L52.6211 130.449L52.6211 129.113L51.3242 129.113L51.3242 128L53.7227 128ZM73.9219 118.062C74.0313 118.018 74.1419 117.986 74.2539 117.965C74.3633 117.941 74.474 117.93 74.5859 117.93C75.3125 117.93 75.9036 118.194 76.3594 118.723C76.8125 119.251 77.0391 119.944 77.0391 120.801C77.0391 121.691 76.8177 122.41 76.375 122.957C75.9297 123.504 75.349 123.777 74.6328 123.777C74.5 123.777 74.375 123.766 74.2578 123.742C74.1406 123.721 74.0286 123.687 73.9219 123.641L73.9219 122.574C74.0313 122.618 74.138 122.651 74.2422 122.672C74.3438 122.693 74.444 122.703 74.543 122.703C74.9232 122.703 75.2318 122.535 75.4688 122.199C75.7057 121.863 75.8242 121.418 75.8242 120.863C75.8242 120.329 75.7031 119.897 75.4609 119.566C75.2161 119.236 74.9023 119.07 74.5195 119.07C74.4232 119.07 74.3255 119.082 74.2266 119.105C74.125 119.129 74.0234 119.163 73.9219 119.207L73.9219 118.062ZM71.4063 119.016C71.1146 119.016 70.8971 119.168 70.7539 119.473C70.6081 119.777 70.5352 120.236 70.5352 120.848C70.5352 121.465 70.6081 121.926 70.7539 122.23C70.8971 122.535 71.1146 122.687 71.4063 122.687C71.6979 122.687 71.9154 122.535 72.0586 122.23C72.2018 121.928 72.2734 121.467 72.2734 120.848C72.2734 120.23 72.2018 119.771 72.0586 119.469C71.9154 119.167 71.6979 119.016 71.4063 119.016ZM69.3984 120.77C69.3984 119.9 69.5807 119.208 69.9453 118.695C70.3099 118.185 70.7969 117.93 71.4063 117.93C72.0365 117.93 72.5273 118.186 72.8789 118.699C73.2305 119.215 73.4063 119.931 73.4063 120.848C73.4063 121.762 73.2292 122.478 72.875 122.996C72.5182 123.517 72.0286 123.777 71.4063 123.777C70.7813 123.777 70.2904 123.512 69.9336 122.98C69.5768 122.449 69.3984 121.712 69.3984 120.77ZM68.9727 118L68.4141 123.703L66.9492 123.703L66.6523 121.527C66.6081 121.197 66.5716 120.879 66.543 120.574C66.5117 120.272 66.487 119.978 66.4688 119.691C66.4219 120.194 66.3828 120.59 66.3516 120.879C66.3177 121.171 66.2904 121.387 66.2695 121.527L65.9023 123.703L64.4531 123.703L63.9727 118L65.125 118L65.2461 120.648C65.2487 120.711 65.2526 120.805 65.2578 120.93C65.2917 121.622 65.3086 122.19 65.3086 122.633L66.0508 118L66.875 118L67.5742 122.664C67.5742 122.276 67.5977 121.721 67.6445 121C67.6549 120.836 67.6628 120.714 67.668 120.633L67.8438 118L68.9727 118ZM62.2539 121.23C62.2409 121.23 62.2214 121.229 62.1953 121.227C62.1667 121.224 62.1458 121.223 62.1328 121.223C61.8906 121.223 61.707 121.292 61.582 121.43C61.4544 121.57 61.3906 121.771 61.3906 122.031C61.3906 122.302 61.4505 122.501 61.5703 122.629C61.6901 122.759 61.8776 122.824 62.1328 122.824C62.1458 122.824 62.1667 122.823 62.1953 122.82C62.2214 122.818 62.2409 122.816 62.2539 122.816L62.2539 121.23ZM63.3555 118L63.3555 123.703L62.1719 123.703C61.5443 123.703 61.0781 123.566 60.7734 123.293C60.4688 123.022 60.3164 122.607 60.3164 122.047C60.3164 121.513 60.4635 121.098 60.7578 120.801C61.0521 120.507 61.4648 120.359 61.9961 120.359C62.0638 120.359 62.1159 120.359 62.1523 120.359C62.1862 120.362 62.2188 120.365 62.25 120.367L62.2539 118L63.3555 118ZM59.7148 118L59.7148 123.703L58.5898 123.703L58.5898 119.113L57.293 119.113L57.293 118L59.7148 118ZM56.8398 118L56.8398 123.703L54.4414 123.703L54.4414 122.648L55.7383 122.648L55.7383 121.496L54.5625 121.496L54.5625 120.449L55.7383 120.449L55.7383 119.113L54.4414 119.113L54.4414 118L56.8398 118ZM53.1328 118L53.1328 122.648L54.0039 122.648L54.0039 123.703L51.1172 123.703L51.1172 122.648L51.9883 122.648L51.9883 118L53.1328 118Z" fill="black"/>
</svg>
