<svg width="211" height="328" viewBox="0 0 211 328" fill="none" xmlns="http://www.w3.org/2000/svg" xmlns:xlink="http://www.w3.org/1999/xlink">
<rect x="1.43373e-05" y="9.2231e-06" width="211" height="328" rx="16" fill="#D7CF95"/>
<rect x="11.5" y="11.5" width="187" height="306" fill="#D7CF95" stroke="black"/>
<rect x="21" y="25" width="168" height="276" fill="#D7CF95" stroke="black"/>
<rect x="189" y="35" width="255" height="10" transform="rotate(90 189 35)" fill="url(#pattern0_102_1405)"/>
<rect x="21.0002" y="290" width="255" height="9.99998" transform="rotate(-90 21.0002 290)" fill="url(#pattern1_102_1405)"/>
<rect x="23.0003" y="25" width="155" height="10" fill="url(#pattern2_102_1405)"/>
<rect x="180" y="300" width="155" height="10" transform="rotate(-180 180 300)" fill="url(#pattern3_102_1405)"/>
<rect x="33.5" y="39.5" width="140" height="247" fill="url(#pattern4_102_1405)" stroke="black"/>
<circle cx="178.5" cy="295.5" r="16.5" transform="rotate(90 178.5 295.5)" fill="#D7CF95" stroke="#FF0000" stroke-width="2"/>
<path d="M183.336 290.475C183.336 288.85 182.318 287.842 180.281 287.452L180.281 291.358L179.242 291.358L179.242 287.342L178.805 287.327L178.32 287.327L177.977 287.342L177.977 290.874L176.938 290.874L176.938 287.467C176.031 287.65 175.328 287.999 174.828 288.514C174.333 289.035 174.086 289.733 174.086 290.608C174.086 291.4 174.258 292.194 174.602 292.991L173.352 292.991C173.013 292.23 172.844 291.408 172.844 290.522C172.844 289.293 173.19 288.298 173.883 287.538C174.581 286.783 175.599 286.285 176.938 286.046L176.938 284.764L177.977 284.764L177.977 285.921L178.305 285.905L178.633 285.905L179.242 285.921L179.242 284.764L180.281 284.764L180.281 286.03C181.656 286.238 182.714 286.728 183.453 287.499C184.198 288.27 184.57 289.262 184.57 290.475C184.57 291.543 184.323 292.499 183.828 293.342L182.68 292.749C183.117 291.905 183.336 291.147 183.336 290.475ZM177.547 295.475L177.547 297.374L180.773 297.374C180.872 297.374 181.018 297.379 181.211 297.389C181.409 297.4 181.771 297.423 182.297 297.46C181.854 297.329 181.445 297.199 181.07 297.069C180.701 296.939 180.383 296.811 180.117 296.686L177.547 295.475ZM173 297.296L175.828 297.296L175.828 294.014L177.547 294.014L184.406 297.007L184.406 299.202L177.547 299.202L177.547 300.132L175.828 300.132L175.828 299.202L173 299.202L173 297.296ZM173 300.796L179.654 301.448L179.654 303.157L177.115 303.503C176.729 303.555 176.359 303.597 176.003 303.631C175.651 303.667 175.308 303.696 174.973 303.717C175.56 303.772 176.021 303.818 176.359 303.854C176.699 303.894 176.951 303.926 177.115 303.95L179.654 304.378L179.654 306.069L173 306.63L173 305.285L176.09 305.144C176.163 305.141 176.272 305.136 176.418 305.13C177.226 305.091 177.888 305.071 178.405 305.071L173 304.205L173 303.243L178.441 302.428C177.989 302.428 177.342 302.4 176.5 302.346C176.309 302.334 176.166 302.324 176.072 302.318L173 302.113L173 300.796Z" fill="black"/>
<circle cx="31.5" cy="33.5" r="16.5" transform="rotate(90 31.5 33.5)" fill="#D7CF95" stroke="#FF0000" stroke-width="2"/>
<path d="M36.336 28.4753C36.336 26.8503 35.3177 25.8425 33.2813 25.4518L33.2813 29.3581L32.2422 29.3581L32.2422 25.3425L31.8047 25.3268L31.3203 25.3268L30.9766 25.3425L30.9766 28.8737L29.9375 28.8737L29.9375 25.4675C29.0313 25.6497 28.3281 25.9987 27.8281 26.5143C27.3333 27.0352 27.086 27.7331 27.086 28.6081C27.086 29.3997 27.2578 30.194 27.6016 30.9909L26.3516 30.9909C26.013 30.2305 25.8438 29.4076 25.8438 28.5221C25.8438 27.293 26.1901 26.2982 26.8828 25.5378C27.5807 24.7826 28.599 24.2852 29.9375 24.0456L29.9375 22.7643L30.9766 22.7643L30.9766 23.9206L31.3047 23.905L31.6328 23.905L32.2422 23.9206L32.2422 22.7643L33.2813 22.7643L33.2813 24.03C34.6563 24.2383 35.7136 24.7279 36.4531 25.4987C37.1979 26.2695 37.5703 27.2617 37.5703 28.4753C37.5703 29.543 37.3229 30.4987 36.8281 31.3425L35.6797 30.7487C36.1172 29.905 36.336 29.1471 36.336 28.4753ZM30.5469 33.4753L30.5469 35.3737L33.7735 35.3737C33.8724 35.3737 34.0182 35.3789 34.211 35.3893C34.4089 35.3997 34.7708 35.4232 35.2969 35.4596C34.8542 35.3294 34.4453 35.1992 34.0703 35.069C33.7005 34.9388 33.3828 34.8112 33.1172 34.6862L30.5469 33.4753ZM26 35.2956L28.8281 35.2956L28.8281 32.0143L30.5469 32.0143L37.4063 35.0065L37.4063 37.2018L30.5469 37.2018L30.5469 38.1315L28.8281 38.1315L28.8281 37.2018L26 37.2018L26 35.2956ZM26 38.7962L32.6537 39.4479L32.6537 41.1569L30.1152 41.5033C29.7294 41.5549 29.3587 41.5974 29.0033 41.6309C28.6508 41.6673 28.3075 41.6962 27.9733 41.7175C28.5597 41.7721 29.0215 41.8177 29.3587 41.8542C29.699 41.8937 29.9512 41.9256 30.1152 41.9499L32.6537 42.3783L32.6537 44.069L26 44.6296L26 43.2852L29.0899 43.1439C29.1628 43.1408 29.2721 43.1363 29.418 43.1302C30.2261 43.0907 30.8885 43.071 31.405 43.071L26 42.2051L26 41.2435L31.4414 40.4277C30.9887 40.4277 30.3416 40.4004 29.5 40.3457C29.3086 40.3336 29.1658 40.3244 29.0716 40.3184L26 40.1133L26 38.7962Z" fill="black"/>
<path d="M64.8379 70.8594C64.5918 70.959 64.3428 71.0322 64.0908 71.0791C63.8447 71.1318 63.5957 71.1582 63.3438 71.1582C61.709 71.1582 60.3789 70.5635 59.3535 69.374C58.334 68.1846 57.8242 66.626 57.8242 64.6983C57.8242 62.6943 58.3223 61.0772 59.3184 59.8467C60.3203 58.6162 61.627 58.001 63.2383 58.001C63.5371 58.001 63.8184 58.0274 64.082 58.0801C64.3457 58.127 64.5977 58.2031 64.8379 58.3086L64.8379 60.708C64.5918 60.6084 64.3516 60.5352 64.1172 60.4883C63.8887 60.4414 63.6631 60.418 63.4404 60.418C62.585 60.418 61.8906 60.7959 61.3574 61.5518C60.8242 62.3076 60.5576 63.3096 60.5576 64.5576C60.5576 65.7588 60.8301 66.7315 61.375 67.4756C61.9258 68.2197 62.6318 68.5918 63.4932 68.5918C63.71 68.5918 63.9297 68.5654 64.1524 68.5127C64.3809 68.46 64.6094 68.3838 64.8379 68.2842L64.8379 70.8594ZM68.7666 66.7549L70.4717 66.7549C70.2959 65.8584 70.1377 64.9209 69.9971 63.9424C69.8565 62.958 69.7334 61.9209 69.6279 60.8311C69.499 61.792 69.3613 62.7676 69.2149 63.7578C69.0742 64.7422 68.9248 65.7412 68.7666 66.7549ZM65.3477 71L68.336 58.168L71.0166 58.168L73.8643 71L71.3067 71L70.876 68.75L68.3008 68.75L67.9053 71L65.3477 71ZM77.2744 63.7315C77.3037 63.7315 77.3506 63.7344 77.4151 63.7402C77.4854 63.7461 77.5352 63.749 77.5645 63.749C78.1211 63.749 78.5401 63.5938 78.8213 63.2832C79.1026 62.9727 79.2432 62.5156 79.2432 61.9121C79.2432 61.2969 79.1143 60.8486 78.8565 60.5674C78.5986 60.2861 78.1856 60.1455 77.6172 60.1455C77.5293 60.1455 77.4619 60.1485 77.4151 60.1543C77.3682 60.1543 77.3242 60.1572 77.2832 60.1631L77.2744 63.7315ZM74.7959 71L74.7959 58.168L77.459 58.168C78.9238 58.168 79.9844 58.4551 80.6406 59.0293C81.3027 59.6035 81.6338 60.5205 81.6338 61.7803C81.6338 62.6943 81.4639 63.4297 81.124 63.9863C80.7901 64.5371 80.2832 64.9238 79.6035 65.1465L82.0645 71L79.3662 71L77.2744 65.6914L77.2744 71L74.7959 71ZM84.2617 71L84.2617 60.541L82.3018 60.541L82.3018 58.168L88.7969 58.168L88.7969 60.541L86.8369 60.541L86.8369 71L84.2617 71ZM90.0713 71L90.0713 58.168L95.4678 58.168L95.4678 60.541L92.5498 60.541L92.5498 63.1338L95.1953 63.1338L95.1953 65.4893L92.5498 65.4893L92.5498 68.4951L95.4678 68.4951L95.4678 71L90.0713 71ZM103.519 66.7549L105.224 66.7549C105.048 65.8584 104.89 64.9209 104.749 63.9424C104.608 62.958 104.485 61.9209 104.38 60.8311C104.251 61.792 104.113 62.7676 103.967 63.7578C103.826 64.7422 103.677 65.7412 103.519 66.7549ZM100.1 71L103.088 58.168L105.769 58.168L108.616 71L106.059 71L105.628 68.75L103.053 68.75L102.657 71L100.1 71ZM116.148 70.8594C115.902 70.959 115.653 71.0322 115.401 71.0791C115.155 71.1319 114.906 71.1582 114.654 71.1582C113.02 71.1582 111.689 70.5635 110.664 69.374C109.645 68.1846 109.135 66.626 109.135 64.6983C109.135 62.6944 109.633 61.0772 110.629 59.8467C111.631 58.6162 112.938 58.001 114.549 58.001C114.848 58.001 115.129 58.0274 115.393 58.0801C115.656 58.127 115.908 58.2031 116.148 58.3086L116.148 60.708C115.902 60.6084 115.662 60.5352 115.428 60.4883C115.199 60.4414 114.974 60.418 114.751 60.418C113.896 60.418 113.201 60.7959 112.668 61.5518C112.135 62.3076 111.868 63.3096 111.868 64.5576C111.868 65.7588 112.141 66.7315 112.686 67.4756C113.236 68.2197 113.942 68.5918 114.804 68.5918C115.021 68.5918 115.24 68.5654 115.463 68.5127C115.691 68.46 115.92 68.3838 116.148 68.2842L116.148 70.8594ZM118.943 71L118.943 60.541L116.983 60.541L116.983 58.168L123.479 58.168L123.479 60.541L121.519 60.541L121.519 71L118.943 71ZM124.858 71L124.858 58.168L127.469 58.168L127.469 71L124.858 71ZM133.691 68.7149C134.348 68.7149 134.837 68.3721 135.159 67.6865C135.487 67.001 135.651 65.9697 135.651 64.5928C135.651 63.2041 135.487 62.167 135.159 61.4815C134.837 60.7959 134.348 60.4531 133.691 60.4531C133.035 60.4531 132.546 60.7959 132.224 61.4815C131.901 62.1612 131.74 63.1983 131.74 64.5928C131.74 65.9815 131.901 67.0156 132.224 67.6953C132.546 68.375 133.035 68.7149 133.691 68.7149ZM138.209 64.7686C138.209 66.7256 137.799 68.2813 136.979 69.4356C136.158 70.584 135.063 71.1582 133.691 71.1582C132.273 71.1582 131.169 70.5811 130.378 69.4268C129.587 68.2666 129.191 66.6553 129.191 64.5928C129.191 62.5362 129.59 60.9248 130.387 59.7588C131.189 58.5869 132.291 58.001 133.691 58.001C135.098 58.001 136.202 58.5987 137.005 59.794C137.808 60.9893 138.209 62.6475 138.209 64.7686ZM139.8 71L139.8 58.168L142.393 58.168L144.985 65.0762C145.062 65.2989 145.167 65.6416 145.302 66.1045C145.442 66.5615 145.601 67.1006 145.776 67.7217C145.642 66.8135 145.542 65.9815 145.478 65.2256C145.413 64.4639 145.381 63.7549 145.381 63.0987L145.381 58.168L147.754 58.168L147.754 71L145.381 71L142.568 63.8194C142.521 63.7139 142.398 63.2774 142.199 62.5098C142.105 62.1582 142.032 61.8828 141.98 61.6836C142.038 62.1817 142.082 62.7442 142.111 63.3711C142.141 63.9922 142.155 64.7364 142.155 65.6035L142.155 71L139.8 71Z" fill="black"/>
<circle cx="103" cy="163" r="69.4222" transform="rotate(90 103 163)" fill="white" stroke="black" stroke-width="3.15556"/>
<path d="M66.959 152.309L67.2734 152.309C68.6862 152.309 69.7663 151.78 70.5137 150.723C71.2611 149.656 71.6348 148.111 71.6348 146.088C71.6348 143.919 71.2702 142.31 70.541 141.262C69.821 140.204 68.7136 139.676 67.2188 139.676L66.959 139.676L66.959 152.309ZM63.0215 156L63.0215 136.039L66.4395 136.039C69.5202 136.039 71.8171 136.864 73.3301 138.514C74.8522 140.163 75.6133 142.67 75.6133 146.033C75.6133 148.057 75.3353 149.752 74.7793 151.119C74.2233 152.486 73.3529 153.617 72.168 154.51C71.4662 155.048 70.6686 155.43 69.7754 155.658C68.8913 155.886 67.638 156 66.0156 156L63.0215 156ZM84.418 152.445C85.4388 152.445 86.1999 151.912 86.7012 150.846C87.2116 149.779 87.4668 148.175 87.4668 146.033C87.4668 143.873 87.2116 142.26 86.7012 141.193C86.1999 140.127 85.4388 139.594 84.418 139.594C83.3971 139.594 82.6361 140.127 82.1348 141.193C81.6335 142.251 81.3828 143.864 81.3828 146.033C81.3828 148.193 81.6335 149.802 82.1348 150.859C82.6361 151.917 83.3971 152.445 84.418 152.445ZM91.4453 146.307C91.4453 149.351 90.8073 151.771 89.5313 153.566C88.2552 155.353 86.5508 156.246 84.418 156.246C82.2122 156.246 80.4942 155.348 79.2637 153.553C78.0332 151.748 77.418 149.242 77.418 146.033C77.418 142.834 78.0378 140.327 79.2774 138.514C80.5261 136.691 82.2396 135.779 84.418 135.779C86.6055 135.779 88.3236 136.709 89.5723 138.568C90.821 140.428 91.4453 143.007 91.4453 146.307ZM106.266 136.039L106.266 148.576C106.266 150.107 106.22 151.197 106.129 151.844C106.038 152.482 105.887 153.01 105.678 153.43C105.195 154.387 104.493 155.098 103.572 155.563C102.661 156.018 101.485 156.246 100.045 156.246C98.6048 156.246 97.4199 156.018 96.4902 155.563C95.5697 155.098 94.8724 154.387 94.3984 153.43C94.1797 153.001 94.0247 152.464 93.9336 151.816C93.8425 151.169 93.7969 150.089 93.7969 148.576L93.7969 147.988L93.7969 136.039L97.7754 136.039L97.7754 148.891C97.7754 150.522 97.9395 151.575 98.2676 152.049C98.6048 152.514 99.1973 152.746 100.045 152.746C100.911 152.746 101.503 152.509 101.822 152.035C102.15 151.552 102.314 150.504 102.314 148.891L102.314 136.039L106.266 136.039ZM113.143 144.324L113.566 144.324C114.587 144.324 115.335 144.124 115.809 143.723C116.292 143.322 116.533 142.702 116.533 141.863C116.533 140.979 116.287 140.327 115.795 139.908C115.312 139.489 114.56 139.279 113.539 139.279L113.143 139.279L113.143 144.324ZM113.143 152.445C113.206 152.445 113.298 152.45 113.416 152.459C113.544 152.468 113.639 152.473 113.703 152.473C114.724 152.473 115.462 152.268 115.918 151.857C116.383 151.447 116.615 150.796 116.615 149.902C116.615 148.945 116.383 148.262 115.918 147.852C115.453 147.441 114.688 147.236 113.621 147.236L113.143 147.236L113.143 152.445ZM109.287 156L109.287 136.039L113.17 136.039C115.777 136.039 117.618 136.449 118.693 137.27C119.778 138.081 120.32 139.443 120.32 141.357C120.32 142.442 120.115 143.335 119.705 144.037C119.295 144.739 118.657 145.299 117.791 145.719C118.757 146.065 119.468 146.612 119.924 147.359C120.389 148.098 120.621 149.073 120.621 150.285C120.621 151.188 120.471 152.008 120.17 152.746C119.869 153.475 119.432 154.095 118.857 154.605C118.283 155.107 117.591 155.467 116.779 155.686C115.977 155.895 114.71 156 112.979 156L109.287 156ZM122.959 156L122.959 136.039L126.896 136.039L126.896 152.104L131.436 152.104L131.436 156L122.959 156ZM133.021 156L133.021 136.039L141.416 136.039L141.416 139.73L136.877 139.73L136.877 143.764L140.992 143.764L140.992 147.428L136.877 147.428L136.877 152.104L141.416 152.104L141.416 156L133.021 156ZM73.166 190L73.166 170.039L77.1035 170.039L77.1035 186.104L81.6426 186.104L81.6426 190L73.166 190ZM89.5586 186.445C90.5794 186.445 91.3405 185.912 91.8418 184.846C92.3522 183.779 92.6074 182.175 92.6074 180.033C92.6074 177.873 92.3522 176.26 91.8418 175.193C91.3405 174.127 90.5794 173.594 89.5586 173.594C88.5378 173.594 87.7767 174.127 87.2754 175.193C86.7741 176.251 86.5234 177.864 86.5234 180.033C86.5234 182.193 86.7741 183.802 87.2754 184.859C87.7767 185.917 88.5378 186.445 89.5586 186.445ZM96.5859 180.307C96.5859 183.351 95.9479 185.771 94.6719 187.566C93.3958 189.353 91.6914 190.246 89.5586 190.246C87.3529 190.246 85.6348 189.348 84.4043 187.553C83.1738 185.748 82.5586 183.242 82.5586 180.033C82.5586 176.834 83.1784 174.327 84.418 172.514C85.6667 170.691 87.3802 169.779 89.5586 169.779C91.7461 169.779 93.4642 170.709 94.7129 172.568C95.9616 174.428 96.5859 177.007 96.5859 180.307ZM100.961 190L100.961 180.621L96.3399 170.039L100.537 170.039L101.85 173.648C102.096 174.296 102.319 174.943 102.52 175.59C102.72 176.228 102.911 176.88 103.094 177.545C103.258 176.807 103.436 176.119 103.627 175.48C103.818 174.842 104.014 174.268 104.215 173.758L105.664 170.039L109.561 170.039L104.912 180.621L104.912 190L100.961 190ZM110.025 190L110.025 170.039L118.42 170.039L118.42 173.73L113.881 173.73L113.881 177.764L117.996 177.764L117.996 181.428L113.881 181.428L113.881 186.104L118.42 186.104L118.42 190L110.025 190ZM124.982 178.693C125.028 178.693 125.101 178.698 125.201 178.707C125.311 178.716 125.388 178.721 125.434 178.721C126.299 178.721 126.951 178.479 127.389 177.996C127.826 177.513 128.045 176.802 128.045 175.863C128.045 174.906 127.844 174.209 127.443 173.772C127.042 173.334 126.4 173.115 125.516 173.115C125.379 173.115 125.274 173.12 125.201 173.129C125.128 173.129 125.06 173.133 124.996 173.143L124.982 178.693ZM121.127 190L121.127 170.039L125.27 170.039C127.548 170.039 129.198 170.486 130.219 171.379C131.249 172.272 131.764 173.699 131.764 175.658C131.764 177.08 131.499 178.224 130.971 179.09C130.451 179.947 129.663 180.548 128.605 180.895L132.434 190L128.236 190L124.982 181.742L124.982 190L121.127 190Z" fill="black"/>
<defs>
<pattern id="pattern0_102_1405" patternUnits="userSpaceOnUse" patternTransform="matrix(15.2616 0 0 10.1164 189 35)" preserveAspectRatio="none" viewBox="7.50705e-06 0 19.077 12.6454" width="1" height="1">
<g id="pattern0_102_1405_inner">
<path d="M9.49354 10.4556C9.5432 4.72657 5.33305 0.0454458 0.0899123 0L0.0859162 0.461036C5.09603 0.504461 9.11906 4.97754 9.07161 10.4519L9.49354 10.4556Z" fill="black"/>
<path d="M8.22774 10.4446C8.27077 5.47947 4.62198 1.42249 0.077924 1.38311L0.0739279 1.84414C4.38495 1.88151 7.84663 5.73043 7.8058 10.441L8.22774 10.4446Z" fill="black"/>
<path d="M6.53999 10.43C6.5742 6.48333 3.67388 3.25856 0.0619396 3.22725L0.0579435 3.68828C3.43685 3.71757 6.15006 6.7343 6.11806 10.4263L6.53999 10.43Z" fill="black"/>
<path d="M4.43032 10.4117C4.45349 7.73816 2.48876 5.55363 0.0419591 5.53243L0.037963 5.99346C2.25173 6.01265 4.02935 7.98913 4.00838 10.408L4.43032 10.4117Z" fill="black"/>
<path d="M2.32064 10.3934C2.33278 8.99299 1.30363 7.84871 0.0219786 7.8376L0 10.3733L2.32064 10.3934Z" fill="black"/>
<path d="M9.49355 10.4556C9.54321 4.72655 13.8339 0.119105 19.077 0.164551L19.073 0.625586C14.0629 0.58216 9.96294 4.98483 9.91549 10.4592L9.49355 10.4556Z" fill="black"/>
<path d="M10.7594 10.4665C10.8024 5.50139 14.521 1.50827 19.065 1.54766L19.061 2.00869C14.75 1.97133 11.2221 5.75967 11.1813 10.4702L10.7594 10.4665Z" fill="black"/>
<path d="M12.4471 10.4812C12.4813 6.53451 15.4371 3.36049 19.049 3.3918L19.045 3.85283C15.6661 3.82355 12.901 6.79279 12.869 10.4848L12.4471 10.4812Z" fill="black"/>
<path d="M14.5568 10.4994C14.5799 7.82591 16.5823 5.67577 19.0291 5.69698L19.0251 6.15801C16.8113 6.13882 14.9997 8.08419 14.9787 10.5031L14.5568 10.4994Z" fill="black"/>
<path d="M16.6664 10.5177C16.6786 9.11731 17.7274 7.99105 19.0091 8.00215L18.9871 10.5378L16.6664 10.5177Z" fill="black"/>
</g>
</pattern><pattern id="pattern1_102_1405" patternUnits="userSpaceOnUse" patternTransform="matrix(15.2616 0 0 10.1164 21.0002 290)" preserveAspectRatio="none" viewBox="7.50705e-06 0 19.077 12.6454" width="1" height="1">
<g id="pattern1_102_1405_inner">
<path d="M9.49354 10.4556C9.5432 4.72657 5.33305 0.0454458 0.0899123 0L0.0859162 0.461036C5.09603 0.504461 9.11906 4.97754 9.07161 10.4519L9.49354 10.4556Z" fill="black"/>
<path d="M8.22774 10.4446C8.27077 5.47947 4.62198 1.42249 0.077924 1.38311L0.0739279 1.84414C4.38495 1.88151 7.84663 5.73043 7.8058 10.441L8.22774 10.4446Z" fill="black"/>
<path d="M6.53999 10.43C6.5742 6.48333 3.67388 3.25856 0.0619396 3.22725L0.0579435 3.68828C3.43685 3.71757 6.15006 6.7343 6.11806 10.4263L6.53999 10.43Z" fill="black"/>
<path d="M4.43032 10.4117C4.45349 7.73816 2.48876 5.55363 0.0419591 5.53243L0.037963 5.99346C2.25173 6.01265 4.02935 7.98913 4.00838 10.408L4.43032 10.4117Z" fill="black"/>
<path d="M2.32064 10.3934C2.33278 8.99299 1.30363 7.84871 0.0219786 7.8376L0 10.3733L2.32064 10.3934Z" fill="black"/>
<path d="M9.49355 10.4556C9.54321 4.72655 13.8339 0.119105 19.077 0.164551L19.073 0.625586C14.0629 0.58216 9.96294 4.98483 9.91549 10.4592L9.49355 10.4556Z" fill="black"/>
<path d="M10.7594 10.4665C10.8024 5.50139 14.521 1.50827 19.065 1.54766L19.061 2.00869C14.75 1.97133 11.2221 5.75967 11.1813 10.4702L10.7594 10.4665Z" fill="black"/>
<path d="M12.4471 10.4812C12.4813 6.53451 15.4371 3.36049 19.049 3.3918L19.045 3.85283C15.6661 3.82355 12.901 6.79279 12.869 10.4848L12.4471 10.4812Z" fill="black"/>
<path d="M14.5568 10.4994C14.5799 7.82591 16.5823 5.67577 19.0291 5.69698L19.0251 6.15801C16.8113 6.13882 14.9997 8.08419 14.9787 10.5031L14.5568 10.4994Z" fill="black"/>
<path d="M16.6664 10.5177C16.6786 9.11731 17.7274 7.99105 19.0091 8.00215L18.9871 10.5378L16.6664 10.5177Z" fill="black"/>
</g>
</pattern><pattern id="pattern2_102_1405" patternUnits="userSpaceOnUse" patternTransform="matrix(15.2616 0 0 10.1164 23.0003 25)" preserveAspectRatio="none" viewBox="7.50705e-06 0 19.077 12.6454" width="1" height="1">
<g id="pattern2_102_1405_inner">
<path d="M9.49354 10.4556C9.5432 4.72657 5.33305 0.0454458 0.0899123 0L0.0859162 0.461036C5.09603 0.504461 9.11906 4.97754 9.07161 10.4519L9.49354 10.4556Z" fill="black"/>
<path d="M8.22774 10.4446C8.27077 5.47947 4.62198 1.42249 0.077924 1.38311L0.0739279 1.84414C4.38495 1.88151 7.84663 5.73043 7.8058 10.441L8.22774 10.4446Z" fill="black"/>
<path d="M6.53999 10.43C6.5742 6.48333 3.67388 3.25856 0.0619396 3.22725L0.0579435 3.68828C3.43685 3.71757 6.15006 6.7343 6.11806 10.4263L6.53999 10.43Z" fill="black"/>
<path d="M4.43032 10.4117C4.45349 7.73816 2.48876 5.55363 0.0419591 5.53243L0.037963 5.99346C2.25173 6.01265 4.02935 7.98913 4.00838 10.408L4.43032 10.4117Z" fill="black"/>
<path d="M2.32064 10.3934C2.33278 8.99299 1.30363 7.84871 0.0219786 7.8376L0 10.3733L2.32064 10.3934Z" fill="black"/>
<path d="M9.49355 10.4556C9.54321 4.72655 13.8339 0.119105 19.077 0.164551L19.073 0.625586C14.0629 0.58216 9.96294 4.98483 9.91549 10.4592L9.49355 10.4556Z" fill="black"/>
<path d="M10.7594 10.4665C10.8024 5.50139 14.521 1.50827 19.065 1.54766L19.061 2.00869C14.75 1.97133 11.2221 5.75967 11.1813 10.4702L10.7594 10.4665Z" fill="black"/>
<path d="M12.4471 10.4812C12.4813 6.53451 15.4371 3.36049 19.049 3.3918L19.045 3.85283C15.6661 3.82355 12.901 6.79279 12.869 10.4848L12.4471 10.4812Z" fill="black"/>
<path d="M14.5568 10.4994C14.5799 7.82591 16.5823 5.67577 19.0291 5.69698L19.0251 6.15801C16.8113 6.13882 14.9997 8.08419 14.9787 10.5031L14.5568 10.4994Z" fill="black"/>
<path d="M16.6664 10.5177C16.6786 9.11731 17.7274 7.99105 19.0091 8.00215L18.9871 10.5378L16.6664 10.5177Z" fill="black"/>
</g>
</pattern><pattern id="pattern3_102_1405" patternUnits="userSpaceOnUse" patternTransform="matrix(15.2616 0 0 10.1164 180 300)" preserveAspectRatio="none" viewBox="7.50705e-06 0 19.077 12.6454" width="1" height="1">
<g id="pattern3_102_1405_inner">
<path d="M9.49354 10.4556C9.5432 4.72657 5.33305 0.0454458 0.0899123 0L0.0859162 0.461036C5.09603 0.504461 9.11906 4.97754 9.07161 10.4519L9.49354 10.4556Z" fill="black"/>
<path d="M8.22774 10.4446C8.27077 5.47947 4.62198 1.42249 0.077924 1.38311L0.0739279 1.84414C4.38495 1.88151 7.84663 5.73043 7.8058 10.441L8.22774 10.4446Z" fill="black"/>
<path d="M6.53999 10.43C6.5742 6.48333 3.67388 3.25856 0.0619396 3.22725L0.0579435 3.68828C3.43685 3.71757 6.15006 6.7343 6.11806 10.4263L6.53999 10.43Z" fill="black"/>
<path d="M4.43032 10.4117C4.45349 7.73816 2.48876 5.55363 0.0419591 5.53243L0.037963 5.99346C2.25173 6.01265 4.02935 7.98913 4.00838 10.408L4.43032 10.4117Z" fill="black"/>
<path d="M2.32064 10.3934C2.33278 8.99299 1.30363 7.84871 0.0219786 7.8376L0 10.3733L2.32064 10.3934Z" fill="black"/>
<path d="M9.49355 10.4556C9.54321 4.72655 13.8339 0.119105 19.077 0.164551L19.073 0.625586C14.0629 0.58216 9.96294 4.98483 9.91549 10.4592L9.49355 10.4556Z" fill="black"/>
<path d="M10.7594 10.4665C10.8024 5.50139 14.521 1.50827 19.065 1.54766L19.061 2.00869C14.75 1.97133 11.2221 5.75967 11.1813 10.4702L10.7594 10.4665Z" fill="black"/>
<path d="M12.4471 10.4812C12.4813 6.53451 15.4371 3.36049 19.049 3.3918L19.045 3.85283C15.6661 3.82355 12.901 6.79279 12.869 10.4848L12.4471 10.4812Z" fill="black"/>
<path d="M14.5568 10.4994C14.5799 7.82591 16.5823 5.67577 19.0291 5.69698L19.0251 6.15801C16.8113 6.13882 14.9997 8.08419 14.9787 10.5031L14.5568 10.4994Z" fill="black"/>
<path d="M16.6664 10.5177C16.6786 9.11731 17.7274 7.99105 19.0091 8.00215L18.9871 10.5378L16.6664 10.5177Z" fill="black"/>
</g>
</pattern><pattern id="pattern4_102_1405" patternUnits="userSpaceOnUse" patternTransform="matrix(2.22 0 0 2.22 33 39)" preserveAspectRatio="none" viewBox="0 0 111 111" width="1" height="1">
<g id="pattern4_102_1405_inner">
<circle cx="55.5" cy="55.5" r="55" stroke="black"/>
<circle cx="55.5" cy="55.5001" r="47.9747" stroke="black"/>
<circle cx="55.5" cy="55.5001" r="38.1392" stroke="black"/>
<circle cx="55.5" cy="55.4999" r="29.7089" stroke="black"/>
<circle cx="55.5" cy="55.4999" r="29.7089" stroke="black"/>
<circle cx="55.5" cy="55.4998" r="17.0633" stroke="black"/>
<circle cx="55.5" cy="55.5001" r="8.63291" stroke="black"/>
</g>
</pattern></defs>
</svg>
