<svg width="211" height="328" viewBox="0 0 211 328" fill="none" xmlns="http://www.w3.org/2000/svg">
<rect width="211" height="328" rx="16" fill="white"/>
<rect x="11.5" y="11.5" width="187" height="306" stroke="black"/>
<path d="M50.037 233.06L65.5404 250.72C66.8157 252.173 66.6718 254.384 65.2192 255.66L53.195 266.215C51.7423 267.49 49.5309 267.347 48.2557 265.894L32.7522 248.233L50.037 233.06Z" fill="white" stroke="black"/>
<path d="M28.7854 238.41L40.8095 227.854C42.2622 226.579 44.4736 226.723 45.7488 228.175L50.6967 233.812L33.412 248.985L28.4641 243.349C27.1889 241.896 27.3327 239.685 28.7854 238.41Z" fill="#61AF25" stroke="black"/>
<path d="M159.211 145.664C157.586 145.664 156.578 146.682 156.188 148.719H160.094V149.758H156.078L156.062 150.195V150.68L156.078 151.023H159.609V152.062H156.203C156.385 152.969 156.734 153.672 157.25 154.172C157.771 154.667 158.469 154.914 159.344 154.914C160.135 154.914 160.93 154.742 161.727 154.398V155.648C160.966 155.987 160.143 156.156 159.258 156.156C158.029 156.156 157.034 155.81 156.273 155.117C155.518 154.419 155.021 153.401 154.781 152.062H153.5V151.023H154.656L154.641 150.695V150.367L154.656 149.758H153.5V148.719H154.766C154.974 147.344 155.464 146.286 156.234 145.547C157.005 144.802 157.997 144.43 159.211 144.43C160.279 144.43 161.234 144.677 162.078 145.172L161.484 146.32C160.641 145.883 159.883 145.664 159.211 145.664ZM162.781 156L165.586 150.547C165.93 149.88 166.193 149.263 166.375 148.695C166.562 148.128 166.656 147.661 166.656 147.297C166.656 146.938 166.583 146.661 166.438 146.469C166.297 146.276 166.094 146.18 165.828 146.18C165.443 146.18 165.177 146.336 165.031 146.648C164.891 146.956 164.82 147.565 164.82 148.477H162.961C162.956 148.424 162.951 148.367 162.945 148.305C162.945 148.237 162.945 148.141 162.945 148.016C162.945 146.849 163.201 145.964 163.711 145.359C164.221 144.75 164.969 144.445 165.953 144.445C166.797 144.445 167.466 144.701 167.961 145.211C168.456 145.716 168.703 146.401 168.703 147.266C168.703 147.854 168.576 148.505 168.32 149.219C168.065 149.927 167.57 150.945 166.836 152.273L165.859 154.031H168.414V156H162.781ZM169.553 156L170.859 147.422H172.781L174.434 152.473C174.469 152.578 174.506 152.732 174.545 152.936C174.588 153.139 174.627 153.371 174.662 153.633C174.693 153.367 174.729 153.131 174.768 152.924C174.807 152.713 174.844 152.559 174.879 152.461L176.561 147.422H178.453L179.766 156H178.025L177.398 150.826C177.352 150.443 177.32 150.154 177.305 149.959C177.289 149.764 177.281 149.582 177.281 149.414C177.281 149.324 177.281 149.258 177.281 149.215C177.285 149.168 177.289 149.127 177.293 149.092C177.234 149.428 177.178 149.719 177.123 149.965C177.072 150.207 177.025 150.391 176.982 150.516L175.166 156H174.135L172.348 150.516C172.332 150.465 172.297 150.324 172.242 150.094C172.191 149.863 172.119 149.527 172.025 149.086V149.338C172.025 149.736 171.99 150.225 171.92 150.803L171.914 150.826L171.293 156H169.553Z" fill="black"/>
<path d="M159.211 194.664C157.586 194.664 156.578 195.682 156.188 197.719H160.094V198.758H156.078L156.062 199.195V199.68L156.078 200.023H159.609V201.062H156.203C156.385 201.969 156.734 202.672 157.25 203.172C157.771 203.667 158.469 203.914 159.344 203.914C160.135 203.914 160.93 203.742 161.727 203.398V204.648C160.966 204.987 160.143 205.156 159.258 205.156C158.029 205.156 157.034 204.81 156.273 204.117C155.518 203.419 155.021 202.401 154.781 201.062H153.5V200.023H154.656L154.641 199.695V199.367L154.656 198.758H153.5V197.719H154.766C154.974 196.344 155.464 195.286 156.234 194.547C157.005 193.802 157.997 193.43 159.211 193.43C160.279 193.43 161.234 193.677 162.078 194.172L161.484 195.32C160.641 194.883 159.883 194.664 159.211 194.664ZM164.211 200.453H166.109V197.227C166.109 197.128 166.115 196.982 166.125 196.789C166.135 196.591 166.159 196.229 166.195 195.703C166.065 196.146 165.935 196.555 165.805 196.93C165.674 197.299 165.547 197.617 165.422 197.883L164.211 200.453ZM166.031 205V202.172H162.75V200.453L165.742 193.594H167.938V200.453H168.867V202.172H167.938V205H166.031ZM169.553 205L170.859 196.422H172.781L174.434 201.473C174.469 201.578 174.506 201.732 174.545 201.936C174.588 202.139 174.627 202.371 174.662 202.633C174.693 202.367 174.729 202.131 174.768 201.924C174.807 201.713 174.844 201.559 174.879 201.461L176.561 196.422H178.453L179.766 205H178.025L177.398 199.826C177.352 199.443 177.32 199.154 177.305 198.959C177.289 198.764 177.281 198.582 177.281 198.414C177.281 198.324 177.281 198.258 177.281 198.215C177.285 198.168 177.289 198.127 177.293 198.092C177.234 198.428 177.178 198.719 177.123 198.965C177.072 199.207 177.025 199.391 176.982 199.516L175.166 205H174.135L172.348 199.516C172.332 199.465 172.297 199.324 172.242 199.094C172.191 198.863 172.119 198.527 172.025 198.086V198.338C172.025 198.736 171.99 199.225 171.92 199.803L171.914 199.826L171.293 205H169.553Z" fill="black"/>
<path d="M159.211 243.664C157.586 243.664 156.578 244.682 156.188 246.719H160.094V247.758H156.078L156.062 248.195V248.68L156.078 249.023H159.609V250.062H156.203C156.385 250.969 156.734 251.672 157.25 252.172C157.771 252.667 158.469 252.914 159.344 252.914C160.135 252.914 160.93 252.742 161.727 252.398V253.648C160.966 253.987 160.143 254.156 159.258 254.156C158.029 254.156 157.034 253.81 156.273 253.117C155.518 252.419 155.021 251.401 154.781 250.062H153.5V249.023H154.656L154.641 248.695V248.367L154.656 247.758H153.5V246.719H154.766C154.974 245.344 155.464 244.286 156.234 243.547C157.005 242.802 157.997 242.43 159.211 242.43C160.279 242.43 161.234 242.677 162.078 243.172L161.484 244.32C160.641 243.883 159.883 243.664 159.211 243.664ZM162.992 254L166.594 244.477H163.156V242.594H169.391L165.25 254H162.992ZM169.553 254L170.859 245.422H172.781L174.434 250.473C174.469 250.578 174.506 250.732 174.545 250.936C174.588 251.139 174.627 251.371 174.662 251.633C174.693 251.367 174.729 251.131 174.768 250.924C174.807 250.713 174.844 250.559 174.879 250.461L176.561 245.422H178.453L179.766 254H178.025L177.398 248.826C177.352 248.443 177.32 248.154 177.305 247.959C177.289 247.764 177.281 247.582 177.281 247.414C177.281 247.324 177.281 247.258 177.281 247.215C177.285 247.168 177.289 247.127 177.293 247.092C177.234 247.428 177.178 247.719 177.123 247.965C177.072 248.207 177.025 248.391 176.982 248.516L175.166 254H174.135L172.348 248.516C172.332 248.465 172.297 248.324 172.242 248.094C172.191 247.863 172.119 247.527 172.025 247.086V247.338C172.025 247.736 171.99 248.225 171.92 248.803L171.914 248.826L171.293 254H169.553Z" fill="black"/>
<path d="M29.4902 113.919L28.9678 114.192C28.5837 113.473 28.2939 112.711 28.0986 111.907C27.9066 111.1 27.8105 110.25 27.8105 109.358C27.8105 108.411 27.9049 107.539 28.0938 106.741C28.2858 105.944 28.5771 105.2 28.9678 104.51L29.4902 104.749C29.1387 105.442 28.8783 106.165 28.709 106.917C28.543 107.666 28.46 108.479 28.46 109.358C28.46 110.267 28.5446 111.093 28.7139 111.839C28.8831 112.584 29.1419 113.278 29.4902 113.919ZM30.7402 112V104.568L35.9697 110.281V104.852H36.7803V112.278L31.5508 106.629V112H30.7402ZM39.1338 107.532V109.729C39.1338 110.371 39.2282 110.82 39.417 111.077C39.609 111.331 39.9313 111.458 40.3838 111.458C40.8363 111.458 41.1553 111.333 41.3408 111.082C41.5296 110.828 41.624 110.377 41.624 109.729V107.532H42.4053V110.14C42.4053 110.813 42.2327 111.325 41.8877 111.673C41.5426 112.018 41.0348 112.19 40.3643 112.19C39.7002 112.19 39.1956 112.016 38.8506 111.668C38.5055 111.32 38.333 110.81 38.333 110.14V107.532H39.1338ZM50.1055 112V109.368C50.1055 108.916 50.0143 108.58 49.832 108.362C49.6497 108.141 49.3698 108.03 48.9922 108.03C48.7871 108.03 48.5967 108.073 48.4209 108.157C48.2484 108.239 48.1019 108.356 47.9814 108.509C47.8936 108.626 47.8301 108.763 47.791 108.919C47.752 109.075 47.7324 109.332 47.7324 109.69V112H46.9951V109.368C46.9951 108.916 46.904 108.58 46.7217 108.362C46.5394 108.141 46.2594 108.03 45.8818 108.03C45.6768 108.03 45.4847 108.073 45.3057 108.157C45.1299 108.239 44.9818 108.356 44.8613 108.509C44.7767 108.623 44.7148 108.755 44.6758 108.904C44.64 109.054 44.6221 109.316 44.6221 109.69V112H43.8848V107.532H44.6318V108.221C44.8174 107.934 45.0387 107.721 45.2959 107.581C45.5531 107.441 45.8493 107.371 46.1846 107.371C46.5459 107.371 46.8535 107.449 47.1074 107.605C47.3613 107.758 47.5534 107.983 47.6836 108.279C47.8757 107.973 48.1019 107.745 48.3623 107.596C48.626 107.446 48.9303 107.371 49.2754 107.371C49.7734 107.371 50.1624 107.511 50.4424 107.791C50.7223 108.071 50.8623 108.46 50.8623 108.958V112H50.1055ZM53.0986 109.788C53.0986 110.309 53.2321 110.716 53.499 111.009C53.766 111.302 54.1322 111.448 54.5977 111.448C55.0534 111.448 55.4098 111.294 55.667 110.984C55.9274 110.672 56.0576 110.241 56.0576 109.69C56.0576 109.202 55.9307 108.82 55.6768 108.543C55.4229 108.266 55.0713 108.128 54.6221 108.128C54.1663 108.128 53.7985 108.281 53.5186 108.587C53.2386 108.89 53.0986 109.29 53.0986 109.788ZM52.3711 104.432H53.1279V108.372C53.3005 108.04 53.5234 107.791 53.7969 107.625C54.0703 107.456 54.391 107.371 54.7588 107.371C55.4001 107.371 55.9111 107.589 56.292 108.025C56.6761 108.462 56.8682 109.046 56.8682 109.778C56.8682 110.504 56.6729 111.089 56.2822 111.531C55.8916 111.971 55.374 112.19 54.7295 112.19C54.3844 112.19 54.0703 112.104 53.7871 111.932C53.5039 111.756 53.2744 111.508 53.0986 111.189V112H52.3711V104.432ZM61.2627 109.261C61.2367 108.867 61.1048 108.564 60.8672 108.353C60.6328 108.138 60.3105 108.03 59.9004 108.03C59.5293 108.03 59.2201 108.143 58.9727 108.367C58.7253 108.589 58.582 108.886 58.543 109.261H61.2627ZM62.083 109.881H58.543V109.949C58.543 110.428 58.6797 110.815 58.9531 111.111C59.2266 111.404 59.583 111.551 60.0225 111.551C60.3219 111.551 60.5921 111.471 60.833 111.312C61.0739 111.149 61.2871 110.905 61.4727 110.579L62.0537 110.97C61.8291 111.373 61.5426 111.678 61.1943 111.883C60.846 112.088 60.4424 112.19 59.9834 112.19C59.3031 112.19 58.7529 111.966 58.333 111.517C57.9131 111.067 57.7031 110.478 57.7031 109.749C57.7031 109.049 57.9115 108.476 58.3281 108.03C58.7448 107.584 59.2803 107.361 59.9346 107.361C60.5954 107.361 61.1178 107.573 61.502 107.996C61.8893 108.419 62.083 108.997 62.083 109.729V109.881ZM63.25 112V107.532H63.9287V108.46C64.1338 108.073 64.3519 107.796 64.583 107.63C64.8141 107.464 65.0957 107.381 65.4277 107.381C65.5189 107.381 65.6068 107.389 65.6914 107.405C65.776 107.418 65.8607 107.439 65.9453 107.469L65.6914 108.157C65.6035 108.128 65.5205 108.107 65.4424 108.094C65.3643 108.077 65.2894 108.069 65.2178 108.069C64.8141 108.069 64.5114 108.216 64.3096 108.509C64.1077 108.799 64.0068 109.236 64.0068 109.822V112H63.25ZM70.1543 109.778C70.1543 110.25 70.3122 110.651 70.6279 110.979C70.9437 111.305 71.3262 111.468 71.7754 111.468C72.2214 111.468 72.6006 111.305 72.9131 110.979C73.2256 110.651 73.3818 110.25 73.3818 109.778C73.3818 109.306 73.2256 108.908 72.9131 108.582C72.6006 108.253 72.2214 108.089 71.7754 108.089C71.3229 108.089 70.9388 108.253 70.623 108.582C70.3105 108.908 70.1543 109.306 70.1543 109.778ZM69.3438 109.778C69.3438 109.45 69.404 109.14 69.5244 108.851C69.6449 108.558 69.8206 108.297 70.0518 108.069C70.2829 107.841 70.5449 107.669 70.8379 107.552C71.1309 107.431 71.4434 107.371 71.7754 107.371C72.1009 107.371 72.4085 107.431 72.6982 107.552C72.9912 107.672 73.2565 107.848 73.4941 108.079C73.7253 108.304 73.901 108.562 74.0215 108.855C74.1419 109.145 74.2021 109.453 74.2021 109.778C74.2021 110.104 74.1419 110.411 74.0215 110.701C73.901 110.988 73.7253 111.243 73.4941 111.468C73.2565 111.702 72.9896 111.881 72.6934 112.005C72.4004 112.129 72.0944 112.19 71.7754 112.19C71.4466 112.19 71.1341 112.129 70.8379 112.005C70.5449 111.884 70.2829 111.71 70.0518 111.482C69.8206 111.248 69.6449 110.988 69.5244 110.701C69.404 110.415 69.3438 110.107 69.3438 109.778ZM75.5986 112V108.162H74.7393V107.532H75.5986V106.238C75.5986 105.496 75.6914 104.995 75.877 104.734C76.0658 104.471 76.4027 104.339 76.8877 104.339C77.0081 104.339 77.1221 104.347 77.2295 104.363C77.3402 104.38 77.446 104.406 77.5469 104.441V105.232C77.4492 105.177 77.3499 105.136 77.249 105.11C77.1514 105.084 77.0505 105.071 76.9463 105.071C76.7217 105.071 76.5671 105.143 76.4824 105.286C76.3978 105.429 76.3555 105.781 76.3555 106.341V107.532H77.5469V108.162H76.375V112H75.5986ZM28.5186 121.778C28.5186 122.28 28.6569 122.682 28.9336 122.984C29.2103 123.287 29.5765 123.438 30.0322 123.438C30.4782 123.438 30.8281 123.3 31.082 123.023C31.3392 122.747 31.4678 122.363 31.4678 121.871C31.4678 121.321 31.3392 120.89 31.082 120.577C30.8281 120.265 30.4733 120.108 30.0176 120.108C29.5521 120.108 29.1859 120.257 28.9189 120.553C28.652 120.849 28.5186 121.257 28.5186 121.778ZM27.7812 126.178V119.532H28.5088V120.372C28.6813 120.05 28.9092 119.802 29.1924 119.63C29.4756 119.457 29.7913 119.371 30.1396 119.371C30.7842 119.371 31.3018 119.591 31.6924 120.03C32.083 120.47 32.2783 121.052 32.2783 121.778C32.2783 122.517 32.0863 123.105 31.7021 123.541C31.3213 123.974 30.8102 124.19 30.1689 124.19C29.8011 124.19 29.4805 124.107 29.207 123.941C28.9336 123.772 28.7106 123.521 28.5381 123.189V126.178H27.7812ZM33.5137 124V119.532H34.1924V120.46C34.3975 120.073 34.6156 119.796 34.8467 119.63C35.0778 119.464 35.3594 119.381 35.6914 119.381C35.7826 119.381 35.8704 119.389 35.9551 119.405C36.0397 119.418 36.1243 119.439 36.209 119.469L35.9551 120.157C35.8672 120.128 35.7842 120.107 35.7061 120.094C35.6279 120.077 35.5531 120.069 35.4814 120.069C35.0778 120.069 34.7751 120.216 34.5732 120.509C34.3714 120.799 34.2705 121.236 34.2705 121.822V124H33.5137ZM37.4688 121.778C37.4688 122.25 37.6266 122.651 37.9424 122.979C38.2581 123.305 38.6406 123.468 39.0898 123.468C39.5358 123.468 39.915 123.305 40.2275 122.979C40.54 122.651 40.6963 122.25 40.6963 121.778C40.6963 121.306 40.54 120.908 40.2275 120.582C39.915 120.253 39.5358 120.089 39.0898 120.089C38.6374 120.089 38.2533 120.253 37.9375 120.582C37.625 120.908 37.4688 121.306 37.4688 121.778ZM36.6582 121.778C36.6582 121.45 36.7184 121.14 36.8389 120.851C36.9593 120.558 37.1351 120.297 37.3662 120.069C37.5973 119.841 37.8594 119.669 38.1523 119.552C38.4453 119.431 38.7578 119.371 39.0898 119.371C39.4154 119.371 39.723 119.431 40.0127 119.552C40.3057 119.672 40.571 119.848 40.8086 120.079C41.0397 120.304 41.2155 120.562 41.3359 120.855C41.4564 121.145 41.5166 121.453 41.5166 121.778C41.5166 122.104 41.4564 122.411 41.3359 122.701C41.2155 122.988 41.0397 123.243 40.8086 123.468C40.571 123.702 40.304 123.881 40.0078 124.005C39.7148 124.129 39.4089 124.19 39.0898 124.19C38.7611 124.19 38.4486 124.129 38.1523 124.005C37.8594 123.884 37.5973 123.71 37.3662 123.482C37.1351 123.248 36.9593 122.988 36.8389 122.701C36.7184 122.415 36.6582 122.107 36.6582 121.778ZM43.4502 121.778C43.4502 122.28 43.5885 122.682 43.8652 122.984C44.1419 123.287 44.5081 123.438 44.9639 123.438C45.4098 123.438 45.7598 123.3 46.0137 123.023C46.2708 122.747 46.3994 122.363 46.3994 121.871C46.3994 121.321 46.2708 120.89 46.0137 120.577C45.7598 120.265 45.4049 120.108 44.9492 120.108C44.4837 120.108 44.1175 120.257 43.8506 120.553C43.5837 120.849 43.4502 121.257 43.4502 121.778ZM42.7129 126.178V119.532H43.4404V120.372C43.613 120.05 43.8408 119.802 44.124 119.63C44.4072 119.457 44.723 119.371 45.0713 119.371C45.7158 119.371 46.2334 119.591 46.624 120.03C47.0146 120.47 47.21 121.052 47.21 121.778C47.21 122.517 47.0179 123.105 46.6338 123.541C46.2529 123.974 45.7419 124.19 45.1006 124.19C44.7327 124.19 44.4121 124.107 44.1387 123.941C43.8652 123.772 43.6423 123.521 43.4697 123.189V126.178H42.7129ZM51.6045 121.261C51.5785 120.867 51.4466 120.564 51.209 120.353C50.9746 120.138 50.6523 120.03 50.2422 120.03C49.8711 120.03 49.5618 120.143 49.3145 120.367C49.0671 120.589 48.9238 120.886 48.8848 121.261H51.6045ZM52.4248 121.881H48.8848V121.949C48.8848 122.428 49.0215 122.815 49.2949 123.111C49.5684 123.404 49.9248 123.551 50.3643 123.551C50.6637 123.551 50.9339 123.471 51.1748 123.312C51.4157 123.149 51.6289 122.905 51.8145 122.579L52.3955 122.97C52.1709 123.373 51.8844 123.678 51.5361 123.883C51.1878 124.088 50.7842 124.19 50.3252 124.19C49.6449 124.19 49.0947 123.966 48.6748 123.517C48.2549 123.067 48.0449 122.478 48.0449 121.749C48.0449 121.049 48.2533 120.476 48.6699 120.03C49.0866 119.584 49.6221 119.361 50.2764 119.361C50.9372 119.361 51.4596 119.573 51.8438 119.996C52.2311 120.419 52.4248 120.997 52.4248 121.729V121.881ZM53.5918 124V119.532H54.2705V120.46C54.4756 120.073 54.6937 119.796 54.9248 119.63C55.1559 119.464 55.4375 119.381 55.7695 119.381C55.8607 119.381 55.9486 119.389 56.0332 119.405C56.1178 119.418 56.2025 119.439 56.2871 119.469L56.0332 120.157C55.9453 120.128 55.8623 120.107 55.7842 120.094C55.7061 120.077 55.6312 120.069 55.5596 120.069C55.1559 120.069 54.8532 120.216 54.6514 120.509C54.4495 120.799 54.3486 121.236 54.3486 121.822V124H53.5918ZM57.2148 120.162H56.3945V119.532H57.2148V117.73H57.9961V119.532H58.8164V120.162H57.9961V124H57.2148V120.162ZM59.5439 117.379C59.5439 117.226 59.5977 117.096 59.7051 116.988C59.8158 116.878 59.9492 116.822 60.1055 116.822C60.2585 116.822 60.3887 116.878 60.4961 116.988C60.6068 117.099 60.6621 117.232 60.6621 117.389C60.6621 117.542 60.6084 117.672 60.501 117.779C60.3936 117.887 60.2617 117.94 60.1055 117.94C59.9492 117.94 59.8158 117.887 59.7051 117.779C59.5977 117.672 59.5439 117.538 59.5439 117.379ZM59.7246 124V119.532H60.4961V124H59.7246ZM65.2764 121.261C65.2503 120.867 65.1185 120.564 64.8809 120.353C64.6465 120.138 64.3242 120.03 63.9141 120.03C63.543 120.03 63.2337 120.143 62.9863 120.367C62.7389 120.589 62.5957 120.886 62.5566 121.261H65.2764ZM66.0967 121.881H62.5566V121.949C62.5566 122.428 62.6934 122.815 62.9668 123.111C63.2402 123.404 63.5967 123.551 64.0361 123.551C64.3356 123.551 64.6058 123.471 64.8467 123.312C65.0876 123.149 65.3008 122.905 65.4863 122.579L66.0674 122.97C65.8428 123.373 65.5563 123.678 65.208 123.883C64.8597 124.088 64.4561 124.19 63.9971 124.19C63.3167 124.19 62.7666 123.966 62.3467 123.517C61.9268 123.067 61.7168 122.478 61.7168 121.749C61.7168 121.049 61.9251 120.476 62.3418 120.03C62.7585 119.584 63.2939 119.361 63.9482 119.361C64.609 119.361 65.1315 119.573 65.5156 119.996C65.903 120.419 66.0967 120.997 66.0967 121.729V121.881ZM66.7803 123.248L67.4346 122.809C67.5583 123.046 67.7145 123.225 67.9033 123.346C68.0921 123.463 68.3151 123.521 68.5723 123.521C68.8229 123.521 69.0247 123.46 69.1777 123.336C69.334 123.212 69.4121 123.049 69.4121 122.848C69.4121 122.691 69.3584 122.561 69.251 122.457C69.1468 122.353 68.9661 122.257 68.709 122.169C68.6829 122.159 68.6406 122.145 68.582 122.125C67.4948 121.751 66.9512 121.282 66.9512 120.719C66.9512 120.322 67.0977 119.998 67.3906 119.747C67.6836 119.496 68.0645 119.371 68.5332 119.371C68.9206 119.371 69.2526 119.449 69.5293 119.605C69.806 119.758 70.0046 119.977 70.125 120.26L69.5049 120.641C69.4137 120.436 69.2786 120.278 69.0996 120.167C68.9238 120.056 68.7188 120.001 68.4844 120.001C68.2598 120.001 68.0758 120.064 67.9326 120.191C67.7926 120.315 67.7227 120.475 67.7227 120.67C67.7227 120.943 68.0189 121.173 68.6113 121.358C68.722 121.394 68.8099 121.422 68.875 121.441C69.36 121.598 69.6969 121.777 69.8857 121.979C70.0778 122.177 70.1738 122.441 70.1738 122.77C70.1738 123.193 70.0225 123.536 69.7197 123.8C69.4202 124.06 69.028 124.19 68.543 124.19C68.1263 124.19 67.7715 124.112 67.4785 123.956C67.1888 123.8 66.9561 123.564 66.7803 123.248ZM70.9355 125.919C71.2839 125.278 71.5426 124.584 71.7119 123.839C71.8812 123.093 71.9658 122.267 71.9658 121.358C71.9658 120.479 71.8812 119.666 71.7119 118.917C71.5459 118.165 71.2871 117.442 70.9355 116.749L71.4531 116.51C71.847 117.2 72.1383 117.944 72.3271 118.741C72.5192 119.539 72.6152 120.411 72.6152 121.358C72.6152 122.25 72.5176 123.1 72.3223 123.907C72.1302 124.711 71.8405 125.473 71.4531 126.192L70.9355 125.919Z" fill="black"/>
<rect x="27.5" y="28.5" width="160" height="57" fill="#61AF25" stroke="black"/>
<circle cx="38.5" cy="39.5" r="22" fill="#D9D9D9" stroke="black"/>
<path d="M30.957 31.9121C28.1133 31.9121 26.3496 33.694 25.666 37.2578H32.502V39.0762H25.4746L25.4473 39.8418V40.6895L25.4746 41.291H31.6543V43.1094H25.6934C26.0124 44.6953 26.623 45.9258 27.5254 46.8008C28.4368 47.6667 29.6582 48.0996 31.1895 48.0996C32.5749 48.0996 33.9648 47.7988 35.3594 47.1973V49.3848C34.0286 49.9772 32.5885 50.2734 31.0391 50.2734C28.888 50.2734 27.1471 49.6673 25.8164 48.4551C24.4948 47.2337 23.6243 45.4518 23.2051 43.1094H20.9629V41.291H22.9863L22.959 40.7168V40.1426L22.9863 39.0762H20.9629V37.2578H23.1777C23.5423 34.8516 24.3991 33.0013 25.748 31.707C27.097 30.4036 28.8333 29.752 30.957 29.752C32.8255 29.752 34.498 30.1849 35.9746 31.0508L34.9355 33.0605C33.459 32.2949 32.1328 31.9121 30.957 31.9121ZM39.707 42.043H43.0293V36.3965C43.0293 36.2233 43.0384 35.9681 43.0566 35.6309C43.0749 35.2845 43.1159 34.651 43.1797 33.7305C42.9518 34.5052 42.724 35.2207 42.4961 35.877C42.2682 36.5241 42.0449 37.0801 41.8262 37.5449L39.707 42.043ZM42.8926 50V45.0508H37.1504V42.043L42.3867 30.0391H46.2285V42.043H47.8555V45.0508H46.2285V50H42.8926ZM48.9277 50L49.7656 41.4453H51.9629L52.4082 44.709C52.4746 45.2051 52.5293 45.6816 52.5723 46.1387C52.6191 46.5918 52.6562 47.0332 52.6836 47.4629C52.7539 46.709 52.8125 46.1152 52.8594 45.6816C52.9102 45.2441 52.9512 44.9199 52.9824 44.709L53.5332 41.4453H55.707L56.4277 50H54.6992L54.5176 46.0273C54.5137 45.9336 54.5078 45.793 54.5 45.6055C54.4492 44.5664 54.4238 43.7148 54.4238 43.0508L53.3105 50H52.0742L51.0254 43.0039C51.0254 43.5859 50.9902 44.418 50.9199 45.5C50.9043 45.7461 50.8926 45.9297 50.8848 46.0508L50.6211 50H48.9277Z" fill="black"/>
<path d="M70.5 139.5V163C70.5 164.933 68.933 166.5 67 166.5H51C49.067 166.5 47.5 164.933 47.5 163V139.5H70.5Z" fill="white" stroke="black"/>
<path d="M51 129.5H67C68.933 129.5 70.5 131.067 70.5 133V140.5H47.5V133C47.5 131.067 49.067 129.5 51 129.5Z" fill="#61AF25" stroke="black"/>
<path d="M57.377 160V148.096H56.0195V145.742H60.1113V160H57.377Z" fill="black"/>
<path d="M62.701 182.984L71.1067 204.929C71.7981 206.734 70.8953 208.758 69.0902 209.45L54.1488 215.173C52.3436 215.864 50.3198 214.961 49.6284 213.156L41.2227 191.211L62.701 182.984Z" fill="white" stroke="black"/>
<path d="M40.9142 180.62L55.8556 174.897C57.6608 174.206 59.6846 175.109 60.376 176.914L63.0587 183.917L41.5804 192.144L38.8977 185.14C38.2063 183.335 39.1091 181.312 40.9142 180.62Z" fill="#61AF25" stroke="black"/>
<path d="M70.5 186.501V210.001C70.5 211.934 68.933 213.501 67 213.501H51C49.067 213.501 47.5 211.934 47.5 210.001V186.501H70.5Z" fill="white" stroke="black"/>
<path d="M51 176.501H67C68.933 176.501 70.5 178.068 70.5 180.001V187.501H47.5V180.001C47.5 178.068 49.067 176.501 51 176.501Z" fill="#61AF25" stroke="black"/>
<path d="M54.7109 207.001L58.2168 200.185C58.6465 199.351 58.9753 198.58 59.2031 197.87C59.4375 197.16 59.5547 196.578 59.5547 196.122C59.5547 195.673 59.4635 195.328 59.2812 195.087C59.1055 194.846 58.8516 194.726 58.5195 194.726C58.0378 194.726 57.7057 194.921 57.5234 195.312C57.3477 195.696 57.2598 196.457 57.2598 197.597H54.9355C54.929 197.532 54.9225 197.46 54.916 197.382C54.916 197.297 54.916 197.177 54.916 197.021C54.916 195.562 55.235 194.455 55.873 193.7C56.5111 192.938 57.4453 192.558 58.6758 192.558C59.7305 192.558 60.5671 192.877 61.1855 193.515C61.804 194.146 62.1133 195.002 62.1133 196.083C62.1133 196.819 61.9538 197.632 61.6348 198.524C61.3158 199.41 60.6973 200.683 59.7793 202.343L58.5586 204.54H61.752V207.001H54.7109Z" fill="black"/>
<path d="M60.701 233.985L69.1067 255.93C69.7981 257.735 68.8953 259.759 67.0902 260.451L52.1488 266.174C50.3436 266.865 48.3198 265.962 47.6284 264.157L39.2227 242.212L60.701 233.985Z" fill="white" stroke="black"/>
<path d="M38.9142 231.621L53.8556 225.898C55.6608 225.207 57.6846 226.109 58.376 227.915L61.0587 234.918L39.5804 243.145L36.8977 236.141C36.2063 234.336 37.1091 232.313 38.9142 231.621Z" fill="#61AF25" stroke="black"/>
<path d="M60.701 233.984L69.1067 255.929C69.7981 257.734 68.8953 259.758 67.0902 260.45L52.1488 266.173C50.3436 266.864 48.3198 265.961 47.6284 264.156L39.2227 242.211L60.701 233.984Z" fill="white" stroke="black"/>
<path d="M38.9142 231.62L53.8556 225.897C55.6608 225.206 57.6846 226.109 58.376 227.914L61.0587 234.917L39.5804 243.144L36.8977 236.14C36.2063 234.335 37.1091 232.312 38.9142 231.62Z" fill="#61AF25" stroke="black"/>
<path d="M68.5 237.502V261.002C68.5 262.935 66.933 264.502 65 264.502H49C47.067 264.502 45.5 262.935 45.5 261.002V237.502H68.5Z" fill="white" stroke="black"/>
<path d="M49 227.502H65C66.933 227.502 68.5 229.069 68.5 231.002V238.502H45.5V231.002C45.5 229.069 47.067 227.502 49 227.502Z" fill="#61AF25" stroke="black"/>
<path d="M52.5742 253.92H54.957V254.086C54.957 254.639 55.0514 255.062 55.2402 255.355C55.4355 255.642 55.7155 255.785 56.0801 255.785C56.4837 255.785 56.793 255.606 57.0078 255.248C57.2292 254.89 57.3398 254.382 57.3398 253.725C57.3398 252.969 57.1999 252.432 56.9199 252.113C56.64 251.788 56.1777 251.625 55.5332 251.625C55.4941 251.625 55.4388 251.628 55.3672 251.635C55.2956 251.641 55.237 251.645 55.1914 251.645V249.301H55.377C56.1452 249.301 56.6953 249.161 57.0273 248.881C57.3659 248.601 57.5352 248.142 57.5352 247.504C57.5352 247.016 57.4375 246.635 57.2422 246.361C57.0469 246.081 56.7767 245.941 56.4316 245.941C56.0736 245.941 55.8001 246.078 55.6113 246.352C55.429 246.625 55.3379 247.029 55.3379 247.562V247.719H53.0332V247.387C53.0332 246.143 53.3359 245.196 53.9414 244.545C54.5469 243.887 55.4258 243.559 56.5781 243.559C57.6458 243.559 58.4661 243.894 59.0391 244.564C59.612 245.235 59.8984 246.195 59.8984 247.445C59.8984 248.305 59.7161 248.992 59.3516 249.506C58.987 250.014 58.4629 250.313 57.7793 250.404V250.58C58.6387 250.749 59.2799 251.111 59.7031 251.664C60.1263 252.217 60.3379 252.969 60.3379 253.92C60.3379 255.248 59.9668 256.293 59.2246 257.055C58.4889 257.816 57.4798 258.197 56.1973 258.197C55.0384 258.197 54.14 257.859 53.502 257.182C52.8704 256.505 52.5547 255.544 52.5547 254.301C52.5547 254.262 52.5579 254.203 52.5645 254.125C52.571 254.04 52.5742 253.972 52.5742 253.92Z" fill="black"/>
<path d="M138.664 120V108.562H141.352C142.117 108.562 142.677 108.607 143.031 108.695C143.391 108.779 143.706 108.924 143.977 109.133C144.315 109.398 144.578 109.755 144.766 110.203C144.953 110.646 145.047 111.138 145.047 111.68C145.047 112.617 144.784 113.331 144.258 113.82C143.737 114.305 142.971 114.547 141.961 114.547H141.719L146.086 120H144.359L140.188 114.547H139.992V120H138.664ZM139.992 109.711V113.539H141.031C142.094 113.539 142.805 113.404 143.164 113.133C143.523 112.857 143.703 112.378 143.703 111.695C143.703 110.961 143.518 110.448 143.148 110.156C142.779 109.859 142.073 109.711 141.031 109.711H139.992ZM147.227 120V108.562H153.258V109.805H148.586V113.086H153.258V114.352H148.586V118.734H153.258V120H147.227ZM155.57 120V108.109L163.938 117.25V108.562H165.234V120.445L156.867 111.406V120H155.57ZM169.977 120V109.859H166.742V108.562H174.57V109.859H171.352V120H169.977Z" fill="black"/>
<path d="M74.9922 252.535L74.5742 252.754C74.2669 252.178 74.0352 251.569 73.8789 250.926C73.7253 250.28 73.6484 249.6 73.6484 248.887C73.6484 248.129 73.724 247.431 73.875 246.793C74.0286 246.155 74.2617 245.56 74.5742 245.008L74.9922 245.199C74.7109 245.754 74.5026 246.332 74.3672 246.934C74.2344 247.533 74.168 248.184 74.168 248.887C74.168 249.613 74.2357 250.275 74.3711 250.871C74.5065 251.467 74.7135 252.022 74.9922 252.535ZM80.6328 246.648C80.3594 246.352 80.0677 246.133 79.7578 245.992C79.4479 245.849 79.1055 245.777 78.7305 245.777C78.4284 245.777 78.1328 245.839 77.8438 245.961C77.5573 246.083 77.3086 246.254 77.0977 246.473C76.8789 246.699 76.7148 246.953 76.6055 247.234C76.4961 247.513 76.4414 247.822 76.4414 248.16C76.4414 248.426 76.474 248.671 76.5391 248.895C76.6042 249.118 76.7018 249.324 76.832 249.512C77.0612 249.837 77.3424 250.089 77.6758 250.266C78.0117 250.44 78.3737 250.527 78.7617 250.527C79.1263 250.527 79.4648 250.452 79.7773 250.301C80.0898 250.15 80.375 249.924 80.6328 249.625V250.527C80.349 250.733 80.043 250.889 79.7148 250.996C79.3893 251.1 79.0521 251.152 78.7031 251.152C78.401 251.152 78.1068 251.107 77.8203 251.016C77.5339 250.927 77.2656 250.797 77.0156 250.625C76.599 250.336 76.2799 249.98 76.0586 249.559C75.8398 249.137 75.7305 248.673 75.7305 248.168C75.7305 247.728 75.8034 247.328 75.9492 246.969C76.0977 246.607 76.3229 246.279 76.625 245.984C76.9167 245.703 77.2396 245.493 77.5938 245.355C77.9479 245.215 78.3346 245.145 78.7539 245.145C79.0846 245.145 79.4049 245.195 79.7148 245.297C80.0247 245.396 80.3307 245.551 80.6328 245.762V246.648ZM84.5898 250.512C84.9023 250.512 85.1992 250.453 85.4805 250.336C85.7643 250.216 86.0195 250.043 86.2461 249.816C86.4701 249.592 86.6406 249.339 86.7578 249.055C86.875 248.771 86.9336 248.47 86.9336 248.152C86.9336 247.832 86.8737 247.527 86.7539 247.238C86.6367 246.949 86.4674 246.694 86.2461 246.473C86.0221 246.249 85.7682 246.078 85.4844 245.961C85.2031 245.844 84.9049 245.785 84.5898 245.785C84.2721 245.785 83.9714 245.844 83.6875 245.961C83.4036 246.078 83.1523 246.249 82.9336 246.473C82.7096 246.699 82.5391 246.956 82.4219 247.242C82.3047 247.529 82.2461 247.832 82.2461 248.152C82.2461 248.47 82.3034 248.77 82.418 249.051C82.5352 249.332 82.707 249.587 82.9336 249.816C83.1628 250.046 83.4167 250.219 83.6953 250.336C83.9766 250.453 84.2747 250.512 84.5898 250.512ZM87.6445 248.152C87.6445 248.561 87.569 248.947 87.418 249.309C87.2669 249.671 87.0469 249.992 86.7578 250.273C86.4688 250.555 86.1354 250.772 85.7578 250.926C85.3828 251.077 84.9935 251.152 84.5898 251.152C84.1862 251.152 83.7969 251.077 83.4219 250.926C83.0495 250.772 82.7188 250.555 82.4297 250.273C82.138 249.99 81.9154 249.667 81.7617 249.305C81.6107 248.943 81.5352 248.559 81.5352 248.152C81.5352 247.743 81.6107 247.358 81.7617 246.996C81.9154 246.632 82.138 246.307 82.4297 246.023C82.7161 245.745 83.0469 245.53 83.4219 245.379C83.7969 245.228 84.1862 245.152 84.5898 245.152C84.9961 245.152 85.3867 245.228 85.7617 245.379C86.1393 245.53 86.4714 245.745 86.7578 246.023C87.0469 246.305 87.2669 246.628 87.418 246.992C87.569 247.354 87.6445 247.741 87.6445 248.152ZM91.4219 251.223L89.6445 247.113L88.9258 251H88.2617L89.4219 245.055L91.4219 249.785L93.4219 245.055L94.582 251H93.918L93.1914 247.113L91.4219 251.223ZM96.125 248.434V251H95.4609V245.281H96.6602C97.0794 245.281 97.388 245.303 97.5859 245.348C97.7839 245.392 97.9557 245.465 98.1016 245.566C98.2839 245.697 98.4258 245.875 98.5273 246.102C98.6315 246.328 98.6836 246.579 98.6836 246.855C98.6836 247.132 98.6315 247.383 98.5273 247.609C98.4258 247.836 98.2839 248.014 98.1016 248.145C97.9557 248.249 97.7839 248.323 97.5859 248.367C97.3906 248.411 97.082 248.434 96.6602 248.434H96.4688H96.125ZM96.125 247.816H96.4688C97.0521 247.816 97.444 247.749 97.6445 247.613C97.8477 247.475 97.9492 247.236 97.9492 246.895C97.9492 246.53 97.8451 246.273 97.6367 246.125C97.431 245.977 97.0417 245.902 96.4688 245.902H96.125V247.816ZM99.5234 251V245.281H100.203V250.352H102.363V251H99.5234ZM103.172 251V245.281H106.188V245.902H103.852V247.543H106.188V248.176H103.852V250.367H106.188V251H103.172ZM108.344 251V245.93H106.727V245.281H110.641V245.93H109.031V251H108.344ZM111.398 251V245.281H114.414V245.902H112.078V247.543H114.414V248.176H112.078V250.367H114.414V251H111.398ZM120.012 247.824C120.384 247.983 120.664 248.194 120.852 248.457C121.042 248.72 121.137 249.031 121.137 249.391C121.137 249.917 120.969 250.341 120.633 250.664C120.299 250.984 119.857 251.145 119.305 251.145C118.854 251.145 118.477 251.03 118.172 250.801C117.867 250.569 117.661 250.241 117.555 249.816L118.172 249.512C118.255 249.858 118.392 250.121 118.582 250.301C118.775 250.478 119.016 250.566 119.305 250.566C119.646 250.566 119.922 250.469 120.133 250.273C120.344 250.076 120.449 249.819 120.449 249.504C120.449 249.249 120.375 249.027 120.227 248.84C120.081 248.65 119.859 248.49 119.562 248.359L118.867 248.062C118.487 247.904 118.203 247.699 118.016 247.449C117.831 247.199 117.738 246.9 117.738 246.551C117.738 246.145 117.889 245.809 118.191 245.543C118.493 245.277 118.879 245.145 119.348 245.145C119.691 245.145 119.988 245.217 120.238 245.363C120.491 245.509 120.688 245.724 120.828 246.008L120.266 246.367C120.138 246.146 119.995 245.982 119.836 245.875C119.677 245.766 119.497 245.711 119.297 245.711C119.042 245.711 118.832 245.789 118.668 245.945C118.507 246.102 118.426 246.301 118.426 246.543C118.426 246.746 118.488 246.922 118.613 247.07C118.738 247.219 118.932 247.35 119.195 247.465L120.012 247.824ZM122.047 251V245.281H125.062V245.902H122.727V247.543H125.062V248.176H122.727V250.367H125.062V251H122.047ZM127.219 251V245.93H125.602V245.281H129.516V245.93H127.906V251H127.219ZM129.898 252.535C130.177 252.022 130.384 251.467 130.52 250.871C130.655 250.275 130.723 249.613 130.723 248.887C130.723 248.184 130.655 247.533 130.52 246.934C130.387 246.332 130.18 245.754 129.898 245.199L130.312 245.008C130.628 245.56 130.861 246.155 131.012 246.793C131.165 247.431 131.242 248.129 131.242 248.887C131.242 249.6 131.164 250.28 131.008 250.926C130.854 251.569 130.622 252.178 130.312 252.754L129.898 252.535Z" fill="black"/>
</svg>
