<svg width="211" height="328" viewBox="0 0 211 328" fill="none" xmlns="http://www.w3.org/2000/svg" xmlns:xlink="http://www.w3.org/1999/xlink">
<rect x="1.43373e-05" y="9.2231e-06" width="211" height="328" rx="16" fill="#D8B799"/>
<rect x="11.5" y="11.5" width="187" height="306" fill="#D8B799" stroke="black"/>
<rect x="21" y="25" width="168" height="276" fill="#D8B799" stroke="black"/>
<rect x="189" y="35" width="255" height="10" transform="rotate(90 189 35)" fill="url(#pattern0_118_1546)"/>
<rect x="21.0003" y="290" width="255" height="9.99998" transform="rotate(-90 21.0003 290)" fill="url(#pattern1_118_1546)"/>
<rect x="23.0003" y="25" width="155" height="10" fill="url(#pattern2_118_1546)"/>
<rect x="180" y="300" width="155" height="10" transform="rotate(-180 180 300)" fill="url(#pattern3_118_1546)"/>
<rect x="33.5" y="39.5" width="140" height="247" fill="url(#pattern4_118_1546)" stroke="black"/>
<circle cx="178.5" cy="295.5" r="17.1111" transform="rotate(90 178.5 295.5)" fill="#D8B799" stroke="black" stroke-width="0.777778"/>
<path d="M183.336 290.475C183.336 288.85 182.318 287.842 180.281 287.452L180.281 291.358L179.242 291.358L179.242 287.342L178.805 287.327L178.32 287.327L177.977 287.342L177.977 290.874L176.938 290.874L176.938 287.467C176.031 287.65 175.328 287.999 174.828 288.514C174.333 289.035 174.086 289.733 174.086 290.608C174.086 291.4 174.258 292.194 174.602 292.991L173.352 292.991C173.013 292.23 172.844 291.408 172.844 290.522C172.844 289.293 173.19 288.298 173.883 287.538C174.581 286.783 175.599 286.285 176.938 286.046L176.938 284.764L177.977 284.764L177.977 285.921L178.305 285.905L178.633 285.905L179.242 285.921L179.242 284.764L180.281 284.764L180.281 286.03C181.656 286.238 182.714 286.728 183.453 287.499C184.198 288.27 184.57 289.262 184.57 290.475C184.57 291.543 184.323 292.499 183.828 293.342L182.68 292.749C183.117 291.905 183.336 291.147 183.336 290.475ZM173 294.046L178.453 296.85C179.12 297.194 179.737 297.457 180.305 297.639C180.872 297.827 181.339 297.921 181.703 297.921C182.063 297.921 182.339 297.848 182.531 297.702C182.724 297.561 182.82 297.358 182.82 297.092C182.82 296.707 182.664 296.441 182.352 296.296C182.044 296.155 181.435 296.085 180.523 296.085L180.523 294.225C180.576 294.22 180.633 294.215 180.695 294.21C180.763 294.21 180.859 294.21 180.984 294.21C182.151 294.21 183.036 294.465 183.641 294.975C184.25 295.486 184.555 296.233 184.555 297.217C184.555 298.061 184.299 298.73 183.789 299.225C183.284 299.72 182.599 299.967 181.734 299.967C181.146 299.967 180.495 299.84 179.781 299.585C179.073 299.329 178.055 298.835 176.727 298.1L174.969 297.124L174.969 299.678L173 299.678L173 294.046ZM173 300.796L179.654 301.448L179.654 303.157L177.115 303.503C176.729 303.555 176.359 303.597 176.003 303.631C175.651 303.667 175.308 303.696 174.973 303.717C175.56 303.772 176.021 303.818 176.359 303.854C176.699 303.894 176.951 303.926 177.115 303.95L179.654 304.378L179.654 306.069L173 306.63L173 305.285L176.09 305.144C176.163 305.141 176.272 305.136 176.418 305.13C177.226 305.091 177.888 305.071 178.405 305.071L173 304.205L173 303.243L178.441 302.428C177.989 302.428 177.342 302.4 176.5 302.346C176.309 302.334 176.166 302.324 176.072 302.318L173 302.113L173 300.796Z" fill="black"/>
<circle cx="31.5" cy="33.5" r="17.1111" transform="rotate(90 31.5 33.5)" fill="#D8B799" stroke="black" stroke-width="0.777778"/>
<path d="M36.336 28.3639C36.336 26.7389 35.3177 25.7311 33.2813 25.3405L33.2813 29.2468L32.2422 29.2468L32.2422 25.2311L31.8047 25.2155L31.3203 25.2155L30.9766 25.2311L30.9766 28.7624L29.9375 28.7624L29.9375 25.3561C29.0313 25.5384 28.3281 25.8874 27.8281 26.403C27.3333 26.9238 27.086 27.6218 27.086 28.4968C27.086 29.2884 27.2578 30.0827 27.6016 30.8796L26.3516 30.8796C26.013 30.1191 25.8438 29.2962 25.8438 28.4108C25.8438 27.1816 26.1901 26.1869 26.8828 25.4264C27.5807 24.6712 28.599 24.1738 29.9375 23.9343L29.9375 22.653L30.9766 22.653L30.9766 23.8093L31.3047 23.7936L31.6328 23.7936L32.2422 23.8093L32.2422 22.653L33.2813 22.653L33.2813 23.9186C34.6563 24.127 35.7136 24.6165 36.4531 25.3874C37.1979 26.1582 37.5703 27.1504 37.5703 28.3639C37.5703 29.4316 37.3229 30.3874 36.8281 31.2311L35.6797 30.6374C36.1172 29.7936 36.336 29.0358 36.336 28.3639ZM26 31.9343L31.4531 34.7389C32.1198 35.0827 32.737 35.3457 33.3047 35.528C33.8724 35.7155 34.3386 35.8093 34.7031 35.8093C35.0625 35.8093 35.3386 35.7363 35.5313 35.5905C35.724 35.4499 35.8203 35.2468 35.8203 34.9811C35.8203 34.5957 35.6641 34.3301 35.3516 34.1843C35.0443 34.0436 34.4349 33.9733 33.5235 33.9733L33.5235 32.1139C33.5755 32.1087 33.6328 32.1035 33.6953 32.0983C33.763 32.0983 33.8594 32.0983 33.9844 32.0983C35.1511 32.0983 36.0365 32.3535 36.6406 32.8639C37.25 33.3744 37.5547 34.1218 37.5547 35.1061C37.5547 35.9499 37.2995 36.6191 36.7891 37.1139C36.2839 37.6087 35.599 37.8561 34.7344 37.8561C34.1458 37.8561 33.4948 37.7285 32.7813 37.4733C32.0729 37.2181 31.0547 36.7233 29.7266 35.9889L27.9688 35.0124L27.9688 37.5671L26 37.5671L26 31.9343ZM26 38.6849L32.6537 39.3366L32.6537 41.0456L30.1152 41.3919C29.7294 41.4436 29.3587 41.4861 29.0033 41.5195C28.6508 41.556 28.3075 41.5849 27.9733 41.6061C28.5597 41.6608 29.0215 41.7064 29.3587 41.7428C29.699 41.7823 29.9512 41.8142 30.1152 41.8385L32.6537 42.2669L32.6537 43.9577L26 44.5182L26 43.1738L29.0899 43.0326C29.1628 43.0295 29.2721 43.025 29.418 43.0189C30.2261 42.9794 30.8885 42.9596 31.405 42.9596L26 42.0938L26 41.1322L31.4414 40.3164C30.9887 40.3164 30.3416 40.2891 29.5 40.2344C29.3086 40.2222 29.1658 40.2131 29.0716 40.207L26 40.002L26 38.6849Z" fill="black"/>
<circle cx="103" cy="163" r="69.4222" transform="rotate(90 103 163)" fill="#D8B799" stroke="black" stroke-width="3.15556"/>
<path d="M168.214 163.526C168.214 199.253 139.253 228.215 103.526 228.215C67.7992 228.215 38.8374 199.253 38.8374 163.526C38.8374 127.8 67.7992 98.8379 103.526 98.8379C139.253 98.8379 168.214 127.8 168.214 163.526Z" stroke="black" stroke-width="1.05185"/>
<path d="M119.76 141.906C119.76 135.812 115.941 132.033 108.305 130.568L108.305 145.216L104.408 145.216L104.408 130.158L102.768 130.099L100.951 130.099L99.6621 130.158L99.6621 143.4L95.7656 143.4L95.7656 130.627C92.3672 131.31 89.7305 132.619 87.8555 134.552C86 136.505 85.0723 139.123 85.0723 142.404C85.0723 145.373 85.7168 148.351 87.0059 151.339L82.3184 151.339C81.0488 148.488 80.4141 145.402 80.4141 142.082C80.4141 137.472 81.7129 133.742 84.3106 130.89C86.9277 128.058 90.7461 126.193 95.7656 125.294L95.7656 120.49L99.6621 120.49L99.6621 124.826L100.893 124.767L102.123 124.767L104.408 124.826L104.408 120.49L108.305 120.49L108.305 125.236C113.461 126.017 117.426 127.853 120.199 130.744C122.992 133.634 124.389 137.355 124.389 141.906C124.389 145.91 123.461 149.494 121.605 152.658L117.299 150.431C118.939 147.267 119.76 144.425 119.76 141.906ZM81 155.294L101.449 165.812C103.949 167.101 106.264 168.087 108.393 168.771C110.521 169.474 112.27 169.826 113.637 169.826C114.984 169.826 116.02 169.552 116.742 169.005C117.465 168.478 117.826 167.716 117.826 166.72C117.826 165.275 117.24 164.279 116.068 163.732C114.916 163.205 112.631 162.941 109.213 162.941L109.213 155.968C109.408 155.949 109.623 155.929 109.857 155.91C110.111 155.91 110.473 155.91 110.941 155.91C115.316 155.91 118.637 156.867 120.902 158.781C123.188 160.695 124.33 163.498 124.33 167.189C124.33 170.353 123.373 172.863 121.459 174.718C119.564 176.574 116.996 177.502 113.754 177.502C111.547 177.502 109.105 177.023 106.43 176.066C103.773 175.109 99.9551 173.253 94.9746 170.5L88.3828 166.837L88.3828 176.418L81 176.418L81 155.294ZM81 180.67L107.995 183.314L107.995 190.247L97.6961 191.652C96.1306 191.862 94.6268 192.035 93.1846 192.17C91.7548 192.318 90.3619 192.435 89.006 192.521C91.385 192.743 93.2586 192.928 94.6268 193.076C96.0074 193.236 97.0305 193.366 97.6961 193.464L107.995 195.202L107.995 202.062L81 204.336L81 198.882L93.5359 198.309C93.8318 198.296 94.2755 198.278 94.8672 198.253C98.146 198.093 100.833 198.013 102.929 198.013L81 194.5L81 190.599L103.077 187.289C101.24 187.289 98.6144 187.178 95.2 186.956C94.4234 186.907 93.8441 186.87 93.462 186.845L81 186.013L81 180.67Z" fill="black"/>
<defs>
<pattern id="pattern0_118_1546" patternUnits="userSpaceOnUse" patternTransform="matrix(15.2616 0 0 10.1164 189 35)" preserveAspectRatio="none" viewBox="7.50705e-06 0 19.077 12.6454" width="1" height="1">
<g id="pattern0_118_1546_inner">
<path d="M9.49354 10.4556C9.5432 4.72657 5.33305 0.0454458 0.0899123 0L0.0859162 0.461036C5.09603 0.504461 9.11906 4.97754 9.07161 10.4519L9.49354 10.4556Z" fill="black"/>
<path d="M8.22774 10.4446C8.27077 5.47947 4.62198 1.42249 0.077924 1.38311L0.0739279 1.84414C4.38495 1.88151 7.84663 5.73043 7.8058 10.441L8.22774 10.4446Z" fill="black"/>
<path d="M6.53999 10.43C6.5742 6.48333 3.67388 3.25856 0.0619396 3.22725L0.0579435 3.68828C3.43685 3.71757 6.15006 6.7343 6.11806 10.4263L6.53999 10.43Z" fill="black"/>
<path d="M4.43032 10.4117C4.45349 7.73816 2.48876 5.55363 0.0419591 5.53243L0.037963 5.99346C2.25173 6.01265 4.02935 7.98913 4.00838 10.408L4.43032 10.4117Z" fill="black"/>
<path d="M2.32064 10.3934C2.33278 8.99299 1.30363 7.84871 0.0219786 7.8376L0 10.3733L2.32064 10.3934Z" fill="black"/>
<path d="M9.49355 10.4556C9.54321 4.72655 13.8339 0.119105 19.077 0.164551L19.073 0.625586C14.0629 0.58216 9.96294 4.98483 9.91549 10.4592L9.49355 10.4556Z" fill="black"/>
<path d="M10.7594 10.4665C10.8024 5.50139 14.521 1.50827 19.065 1.54766L19.061 2.00869C14.75 1.97133 11.2221 5.75967 11.1813 10.4702L10.7594 10.4665Z" fill="black"/>
<path d="M12.4471 10.4812C12.4813 6.53451 15.4371 3.36049 19.049 3.3918L19.045 3.85283C15.6661 3.82355 12.901 6.79279 12.869 10.4848L12.4471 10.4812Z" fill="black"/>
<path d="M14.5568 10.4994C14.5799 7.82591 16.5823 5.67577 19.0291 5.69698L19.0251 6.15801C16.8113 6.13882 14.9997 8.08419 14.9787 10.5031L14.5568 10.4994Z" fill="black"/>
<path d="M16.6664 10.5177C16.6786 9.11731 17.7274 7.99105 19.0091 8.00215L18.9871 10.5378L16.6664 10.5177Z" fill="black"/>
</g>
</pattern><pattern id="pattern1_118_1546" patternUnits="userSpaceOnUse" patternTransform="matrix(15.2616 0 0 10.1164 21.0003 290)" preserveAspectRatio="none" viewBox="7.50705e-06 0 19.077 12.6454" width="1" height="1">
<g id="pattern1_118_1546_inner">
<path d="M9.49354 10.4556C9.5432 4.72657 5.33305 0.0454458 0.0899123 0L0.0859162 0.461036C5.09603 0.504461 9.11906 4.97754 9.07161 10.4519L9.49354 10.4556Z" fill="black"/>
<path d="M8.22774 10.4446C8.27077 5.47947 4.62198 1.42249 0.077924 1.38311L0.0739279 1.84414C4.38495 1.88151 7.84663 5.73043 7.8058 10.441L8.22774 10.4446Z" fill="black"/>
<path d="M6.53999 10.43C6.5742 6.48333 3.67388 3.25856 0.0619396 3.22725L0.0579435 3.68828C3.43685 3.71757 6.15006 6.7343 6.11806 10.4263L6.53999 10.43Z" fill="black"/>
<path d="M4.43032 10.4117C4.45349 7.73816 2.48876 5.55363 0.0419591 5.53243L0.037963 5.99346C2.25173 6.01265 4.02935 7.98913 4.00838 10.408L4.43032 10.4117Z" fill="black"/>
<path d="M2.32064 10.3934C2.33278 8.99299 1.30363 7.84871 0.0219786 7.8376L0 10.3733L2.32064 10.3934Z" fill="black"/>
<path d="M9.49355 10.4556C9.54321 4.72655 13.8339 0.119105 19.077 0.164551L19.073 0.625586C14.0629 0.58216 9.96294 4.98483 9.91549 10.4592L9.49355 10.4556Z" fill="black"/>
<path d="M10.7594 10.4665C10.8024 5.50139 14.521 1.50827 19.065 1.54766L19.061 2.00869C14.75 1.97133 11.2221 5.75967 11.1813 10.4702L10.7594 10.4665Z" fill="black"/>
<path d="M12.4471 10.4812C12.4813 6.53451 15.4371 3.36049 19.049 3.3918L19.045 3.85283C15.6661 3.82355 12.901 6.79279 12.869 10.4848L12.4471 10.4812Z" fill="black"/>
<path d="M14.5568 10.4994C14.5799 7.82591 16.5823 5.67577 19.0291 5.69698L19.0251 6.15801C16.8113 6.13882 14.9997 8.08419 14.9787 10.5031L14.5568 10.4994Z" fill="black"/>
<path d="M16.6664 10.5177C16.6786 9.11731 17.7274 7.99105 19.0091 8.00215L18.9871 10.5378L16.6664 10.5177Z" fill="black"/>
</g>
</pattern><pattern id="pattern2_118_1546" patternUnits="userSpaceOnUse" patternTransform="matrix(15.2616 0 0 10.1164 23.0003 25)" preserveAspectRatio="none" viewBox="7.50705e-06 0 19.077 12.6454" width="1" height="1">
<g id="pattern2_118_1546_inner">
<path d="M9.49354 10.4556C9.5432 4.72657 5.33305 0.0454458 0.0899123 0L0.0859162 0.461036C5.09603 0.504461 9.11906 4.97754 9.07161 10.4519L9.49354 10.4556Z" fill="black"/>
<path d="M8.22774 10.4446C8.27077 5.47947 4.62198 1.42249 0.077924 1.38311L0.0739279 1.84414C4.38495 1.88151 7.84663 5.73043 7.8058 10.441L8.22774 10.4446Z" fill="black"/>
<path d="M6.53999 10.43C6.5742 6.48333 3.67388 3.25856 0.0619396 3.22725L0.0579435 3.68828C3.43685 3.71757 6.15006 6.7343 6.11806 10.4263L6.53999 10.43Z" fill="black"/>
<path d="M4.43032 10.4117C4.45349 7.73816 2.48876 5.55363 0.0419591 5.53243L0.037963 5.99346C2.25173 6.01265 4.02935 7.98913 4.00838 10.408L4.43032 10.4117Z" fill="black"/>
<path d="M2.32064 10.3934C2.33278 8.99299 1.30363 7.84871 0.0219786 7.8376L0 10.3733L2.32064 10.3934Z" fill="black"/>
<path d="M9.49355 10.4556C9.54321 4.72655 13.8339 0.119105 19.077 0.164551L19.073 0.625586C14.0629 0.58216 9.96294 4.98483 9.91549 10.4592L9.49355 10.4556Z" fill="black"/>
<path d="M10.7594 10.4665C10.8024 5.50139 14.521 1.50827 19.065 1.54766L19.061 2.00869C14.75 1.97133 11.2221 5.75967 11.1813 10.4702L10.7594 10.4665Z" fill="black"/>
<path d="M12.4471 10.4812C12.4813 6.53451 15.4371 3.36049 19.049 3.3918L19.045 3.85283C15.6661 3.82355 12.901 6.79279 12.869 10.4848L12.4471 10.4812Z" fill="black"/>
<path d="M14.5568 10.4994C14.5799 7.82591 16.5823 5.67577 19.0291 5.69698L19.0251 6.15801C16.8113 6.13882 14.9997 8.08419 14.9787 10.5031L14.5568 10.4994Z" fill="black"/>
<path d="M16.6664 10.5177C16.6786 9.11731 17.7274 7.99105 19.0091 8.00215L18.9871 10.5378L16.6664 10.5177Z" fill="black"/>
</g>
</pattern><pattern id="pattern3_118_1546" patternUnits="userSpaceOnUse" patternTransform="matrix(15.2616 0 0 10.1164 180 300)" preserveAspectRatio="none" viewBox="7.50705e-06 0 19.077 12.6454" width="1" height="1">
<g id="pattern3_118_1546_inner">
<path d="M9.49354 10.4556C9.5432 4.72657 5.33305 0.0454458 0.0899123 0L0.0859162 0.461036C5.09603 0.504461 9.11906 4.97754 9.07161 10.4519L9.49354 10.4556Z" fill="black"/>
<path d="M8.22774 10.4446C8.27077 5.47947 4.62198 1.42249 0.077924 1.38311L0.0739279 1.84414C4.38495 1.88151 7.84663 5.73043 7.8058 10.441L8.22774 10.4446Z" fill="black"/>
<path d="M6.53999 10.43C6.5742 6.48333 3.67388 3.25856 0.0619396 3.22725L0.0579435 3.68828C3.43685 3.71757 6.15006 6.7343 6.11806 10.4263L6.53999 10.43Z" fill="black"/>
<path d="M4.43032 10.4117C4.45349 7.73816 2.48876 5.55363 0.0419591 5.53243L0.037963 5.99346C2.25173 6.01265 4.02935 7.98913 4.00838 10.408L4.43032 10.4117Z" fill="black"/>
<path d="M2.32064 10.3934C2.33278 8.99299 1.30363 7.84871 0.0219786 7.8376L0 10.3733L2.32064 10.3934Z" fill="black"/>
<path d="M9.49355 10.4556C9.54321 4.72655 13.8339 0.119105 19.077 0.164551L19.073 0.625586C14.0629 0.58216 9.96294 4.98483 9.91549 10.4592L9.49355 10.4556Z" fill="black"/>
<path d="M10.7594 10.4665C10.8024 5.50139 14.521 1.50827 19.065 1.54766L19.061 2.00869C14.75 1.97133 11.2221 5.75967 11.1813 10.4702L10.7594 10.4665Z" fill="black"/>
<path d="M12.4471 10.4812C12.4813 6.53451 15.4371 3.36049 19.049 3.3918L19.045 3.85283C15.6661 3.82355 12.901 6.79279 12.869 10.4848L12.4471 10.4812Z" fill="black"/>
<path d="M14.5568 10.4994C14.5799 7.82591 16.5823 5.67577 19.0291 5.69698L19.0251 6.15801C16.8113 6.13882 14.9997 8.08419 14.9787 10.5031L14.5568 10.4994Z" fill="black"/>
<path d="M16.6664 10.5177C16.6786 9.11731 17.7274 7.99105 19.0091 8.00215L18.9871 10.5378L16.6664 10.5177Z" fill="black"/>
</g>
</pattern><pattern id="pattern4_118_1546" patternUnits="userSpaceOnUse" patternTransform="matrix(2.22 0 0 2.22 33 39)" preserveAspectRatio="none" viewBox="0 0 111 111" width="1" height="1">
<g id="pattern4_118_1546_inner">
<circle cx="55.5" cy="55.5" r="55" stroke="black"/>
<circle cx="55.5" cy="55.5001" r="47.9747" stroke="black"/>
<circle cx="55.5" cy="55.5001" r="38.1392" stroke="black"/>
<circle cx="55.5" cy="55.4999" r="29.7089" stroke="black"/>
<circle cx="55.5" cy="55.4999" r="29.7089" stroke="black"/>
<circle cx="55.5" cy="55.4998" r="17.0633" stroke="black"/>
<circle cx="55.5" cy="55.5001" r="8.63291" stroke="black"/>
</g>
</pattern></defs>
</svg>
