<svg width="211" height="328" viewBox="0 0 211 328" fill="none" xmlns="http://www.w3.org/2000/svg" xmlns:xlink="http://www.w3.org/1999/xlink">
<rect x="1.43373e-05" y="9.2231e-06" width="211" height="328" rx="16" fill="#E1AD5C"/>
<rect x="11.5" y="11.5" width="187" height="306" fill="#E1AD5C" stroke="black"/>
<rect x="21" y="25" width="168" height="276" fill="#E1AD5C" stroke="black"/>
<rect x="189" y="35" width="255" height="10" transform="rotate(90 189 35)" fill="url(#pattern0_118_1527)"/>
<rect x="21.0003" y="290" width="255" height="9.99998" transform="rotate(-90 21.0003 290)" fill="url(#pattern1_118_1527)"/>
<rect x="23.0003" y="25" width="155" height="10" fill="url(#pattern2_118_1527)"/>
<rect x="180" y="300" width="155" height="10" transform="rotate(-180 180 300)" fill="url(#pattern3_118_1527)"/>
<rect x="33.5" y="39.5" width="140" height="247" fill="url(#pattern4_118_1527)" stroke="black"/>
<circle cx="178.5" cy="295.5" r="17.1111" transform="rotate(90 178.5 295.5)" fill="#E1AD5C" stroke="black" stroke-width="0.777778"/>
<path d="M183.336 286.452C183.336 284.827 182.318 283.819 180.281 283.428L180.281 287.335L179.242 287.335L179.242 283.319L178.805 283.303L178.32 283.303L177.977 283.319L177.977 286.85L176.938 286.85L176.938 283.444C176.031 283.626 175.328 283.975 174.828 284.491C174.333 285.012 174.086 285.71 174.086 286.585C174.086 287.376 174.258 288.171 174.602 288.967L173.352 288.967C173.013 288.207 172.844 287.384 172.844 286.499C172.844 285.27 173.19 284.275 173.883 283.514C174.581 282.759 175.599 282.262 176.938 282.022L176.938 280.741L177.977 280.741L177.977 281.897L178.305 281.882L178.633 281.882L179.242 281.897L179.242 280.741L180.281 280.741L180.281 282.007C181.656 282.215 182.714 282.704 183.453 283.475C184.198 284.246 184.57 285.238 184.57 286.452C184.57 287.52 184.323 288.475 183.828 289.319L182.68 288.725C183.117 287.882 183.336 287.124 183.336 286.452ZM173 292.155L182.523 292.155L182.523 291.069L184.406 291.069L184.406 294.342L173 294.342L173 292.155ZM178.68 299.155C177.232 299.155 176.242 299.225 175.711 299.366C175.185 299.507 174.922 299.751 174.922 300.1C174.922 300.439 175.182 300.676 175.703 300.811C176.224 300.952 177.216 301.022 178.68 301.022C180.169 301.022 181.174 300.952 181.695 300.811C182.221 300.676 182.484 300.439 182.484 300.1C182.484 299.751 182.216 299.507 181.68 299.366C181.148 299.225 180.148 299.155 178.68 299.155ZM178.695 303.202C176.805 303.202 175.359 302.934 174.359 302.397C173.359 301.866 172.859 301.1 172.859 300.1C172.859 299.095 173.359 298.324 174.359 297.788C175.359 297.257 176.805 296.991 178.695 296.991C180.602 296.991 182.055 297.257 183.055 297.788C184.055 298.319 184.555 299.09 184.555 300.1C184.555 301.105 184.055 301.874 183.055 302.405C182.055 302.936 180.602 303.202 178.695 303.202ZM173 303.82L179.654 304.471L179.654 306.18L177.115 306.527C176.729 306.578 176.359 306.621 176.003 306.654C175.651 306.691 175.308 306.72 174.973 306.741C175.56 306.796 176.021 306.841 176.359 306.878C176.699 306.917 176.951 306.949 177.115 306.973L179.654 307.402L179.654 309.092L173 309.653L173 308.309L176.09 308.167C176.163 308.164 176.272 308.16 176.418 308.154C177.226 308.114 177.888 308.094 178.405 308.094L173 307.229L173 306.267L178.441 305.451C177.989 305.451 177.342 305.424 176.5 305.369C176.309 305.357 176.166 305.348 176.072 305.342L173 305.137L173 303.82Z" fill="black"/>
<circle cx="31.5" cy="33.5" r="17.1111" transform="rotate(90 31.5 33.5)" fill="#E1AD5C" stroke="black" stroke-width="0.777778"/>
<path d="M36.336 24.4518C36.336 22.8268 35.3177 21.819 33.2813 21.4284L33.2813 25.3346L32.2422 25.3346L32.2422 21.319L31.8047 21.3034L31.3203 21.3034L30.9766 21.319L30.9766 24.8503L29.9375 24.8503L29.9375 21.444C29.0313 21.6263 28.3281 21.9753 27.8281 22.4909C27.3333 23.0117 27.086 23.7096 27.086 24.5846C27.086 25.3763 27.2578 26.1706 27.6016 26.9675L26.3516 26.9675C26.013 26.207 25.8438 25.3841 25.8438 24.4987C25.8438 23.2695 26.1901 22.2747 26.8828 21.5143C27.5807 20.7591 28.599 20.2617 29.9375 20.0221L29.9375 18.7409L30.9766 18.7409L30.9766 19.8971L31.3047 19.8815L31.6328 19.8815L32.2422 19.8971L32.2422 18.7409L33.2813 18.7409L33.2813 20.0065C34.6563 20.2149 35.7136 20.7044 36.4531 21.4753C37.1979 22.2461 37.5703 23.2383 37.5703 24.4518C37.5703 25.5195 37.3229 26.4753 36.8281 27.319L35.6797 26.7253C36.1172 25.8815 36.336 25.1237 36.336 24.4518ZM26 30.155L35.5235 30.155L35.5235 29.069L37.4063 29.069L37.4063 32.3425L26 32.3425L26 30.155ZM31.6797 37.155C30.2318 37.155 29.2422 37.2253 28.7109 37.3659C28.1849 37.5065 27.9219 37.7513 27.9219 38.1003C27.9219 38.4388 28.1823 38.6758 28.7031 38.8112C29.224 38.9518 30.2162 39.0221 31.6797 39.0221C33.1693 39.0221 34.1745 38.9518 34.6953 38.8112C35.2214 38.6758 35.4844 38.4388 35.4844 38.1003C35.4844 37.7513 35.2162 37.5065 34.6797 37.3659C34.1484 37.2253 33.1484 37.155 31.6797 37.155ZM31.6953 41.2018C29.8047 41.2018 28.3594 40.9336 27.3594 40.3971C26.3594 39.8659 25.8594 39.1003 25.8594 38.1003C25.8594 37.0951 26.3594 36.3242 27.3594 35.7878C28.3594 35.2565 29.8047 34.9909 31.6953 34.9909C33.6016 34.9909 35.0547 35.2565 36.0547 35.7878C37.0547 36.319 37.5547 37.0899 37.5547 38.1003C37.5547 39.1055 37.0547 39.8737 36.0547 40.405C35.0547 40.9362 33.6016 41.2018 31.6953 41.2018ZM26 41.8197L32.6537 42.4714L32.6537 44.1803L30.1152 44.5267C29.7294 44.5783 29.3587 44.6209 29.0033 44.6543C28.6508 44.6908 28.3075 44.7196 27.9733 44.7409C28.5597 44.7956 29.0215 44.8412 29.3587 44.8776C29.699 44.9171 29.9512 44.949 30.1152 44.9733L32.6537 45.4017L32.6537 47.0925L26 47.653L26 46.3086L29.0899 46.1673C29.1628 46.1643 29.2721 46.1597 29.418 46.1537C30.2261 46.1142 30.8885 46.0944 31.405 46.0944L26 45.2285L26 44.2669L31.4414 43.4512C30.9887 43.4512 30.3416 43.4238 29.5 43.3691C29.3086 43.357 29.1658 43.3479 29.0716 43.3418L26 43.1367L26 41.8197Z" fill="black"/>
<circle cx="103" cy="163" r="69.4222" transform="rotate(90 103 163)" fill="#E1AD5C" stroke="black" stroke-width="3.15556"/>
<path d="M168.214 163.526C168.214 199.253 139.253 228.215 103.526 228.215C67.7992 228.215 38.8374 199.253 38.8374 163.526C38.8374 127.8 67.7992 98.8379 103.526 98.8379C139.253 98.8379 168.214 127.8 168.214 163.526Z" stroke="black" stroke-width="1.05185"/>
<path d="M119.76 128.693C119.76 122.599 115.941 118.82 108.305 117.355L108.305 132.003L104.408 132.003L104.408 116.945L102.768 116.886L100.951 116.886L99.6621 116.945L99.6621 130.187L95.7656 130.187L95.7656 117.414C92.3672 118.097 89.7305 119.406 87.8555 121.339C86 123.293 85.0723 125.91 85.0723 129.191C85.0723 132.16 85.7168 135.138 87.0059 138.127L82.3184 138.127C81.0488 135.275 80.4141 132.189 80.4141 128.869C80.4141 124.259 81.7129 120.529 84.3106 117.677C86.9277 114.845 90.7461 112.98 95.7656 112.082L95.7656 107.277L99.6621 107.277L99.6621 111.613L100.893 111.554L102.123 111.554L104.408 111.613L104.408 107.277L108.305 107.277L108.305 112.023C113.461 112.804 117.426 114.64 120.199 117.531C122.992 120.421 124.389 124.142 124.389 128.693C124.389 132.697 123.461 136.281 121.605 139.445L117.299 137.218C118.939 134.054 119.76 131.212 119.76 128.693ZM81 150.08L116.713 150.08L116.713 146.007L123.773 146.007L123.773 158.283L81 158.283L81 150.08ZM102.299 176.33C96.8691 176.33 93.1582 176.593 91.166 177.121C89.1934 177.648 88.207 178.566 88.207 179.875C88.207 181.144 89.1836 182.033 91.1367 182.541C93.0899 183.068 96.8106 183.332 102.299 183.332C107.885 183.332 111.654 183.068 113.607 182.541C115.58 182.033 116.566 181.144 116.566 179.875C116.566 178.566 115.561 177.648 113.549 177.121C111.557 176.593 107.807 176.33 102.299 176.33ZM102.357 191.505C95.2676 191.505 89.8477 190.5 86.0977 188.488C82.3477 186.496 80.4727 183.625 80.4727 179.875C80.4727 176.105 82.3477 173.214 86.0977 171.203C89.8477 169.21 95.2676 168.214 102.357 168.214C109.506 168.214 114.955 169.21 118.705 171.203C122.455 173.195 124.33 176.085 124.33 179.875C124.33 183.644 122.455 186.525 118.705 188.517C114.955 190.509 109.506 191.505 102.357 191.505ZM81 193.882L107.995 196.527L107.995 203.46L97.6961 204.865C96.1306 205.075 94.6268 205.247 93.1846 205.383C91.7548 205.531 90.3619 205.648 89.006 205.734C91.385 205.956 93.2586 206.141 94.6268 206.289C96.0074 206.449 97.0305 206.579 97.6961 206.677L107.995 208.415L107.995 215.275L81 217.549L81 212.095L93.5359 211.522C93.8318 211.509 94.2755 211.491 94.8672 211.466C98.146 211.306 100.833 211.226 102.929 211.226L81 207.713L81 203.811L103.077 200.502C101.24 200.502 98.6144 200.391 95.2 200.169C94.4234 200.12 93.8441 200.083 93.462 200.058L81 199.226L81 193.882Z" fill="black"/>
<defs>
<pattern id="pattern0_118_1527" patternUnits="userSpaceOnUse" patternTransform="matrix(15.2616 0 0 10.1164 189 35)" preserveAspectRatio="none" viewBox="7.50705e-06 0 19.077 12.6454" width="1" height="1">
<g id="pattern0_118_1527_inner">
<path d="M9.49354 10.4556C9.5432 4.72657 5.33305 0.0454458 0.0899123 0L0.0859162 0.461036C5.09603 0.504461 9.11906 4.97754 9.07161 10.4519L9.49354 10.4556Z" fill="black"/>
<path d="M8.22774 10.4446C8.27077 5.47947 4.62198 1.42249 0.077924 1.38311L0.0739279 1.84414C4.38495 1.88151 7.84663 5.73043 7.8058 10.441L8.22774 10.4446Z" fill="black"/>
<path d="M6.53999 10.43C6.5742 6.48333 3.67388 3.25856 0.0619396 3.22725L0.0579435 3.68828C3.43685 3.71757 6.15006 6.7343 6.11806 10.4263L6.53999 10.43Z" fill="black"/>
<path d="M4.43032 10.4117C4.45349 7.73816 2.48876 5.55363 0.0419591 5.53243L0.037963 5.99346C2.25173 6.01265 4.02935 7.98913 4.00838 10.408L4.43032 10.4117Z" fill="black"/>
<path d="M2.32064 10.3934C2.33278 8.99299 1.30363 7.84871 0.0219786 7.8376L0 10.3733L2.32064 10.3934Z" fill="black"/>
<path d="M9.49355 10.4556C9.54321 4.72655 13.8339 0.119105 19.077 0.164551L19.073 0.625586C14.0629 0.58216 9.96294 4.98483 9.91549 10.4592L9.49355 10.4556Z" fill="black"/>
<path d="M10.7594 10.4665C10.8024 5.50139 14.521 1.50827 19.065 1.54766L19.061 2.00869C14.75 1.97133 11.2221 5.75967 11.1813 10.4702L10.7594 10.4665Z" fill="black"/>
<path d="M12.4471 10.4812C12.4813 6.53451 15.4371 3.36049 19.049 3.3918L19.045 3.85283C15.6661 3.82355 12.901 6.79279 12.869 10.4848L12.4471 10.4812Z" fill="black"/>
<path d="M14.5568 10.4994C14.5799 7.82591 16.5823 5.67577 19.0291 5.69698L19.0251 6.15801C16.8113 6.13882 14.9997 8.08419 14.9787 10.5031L14.5568 10.4994Z" fill="black"/>
<path d="M16.6664 10.5177C16.6786 9.11731 17.7274 7.99105 19.0091 8.00215L18.9871 10.5378L16.6664 10.5177Z" fill="black"/>
</g>
</pattern><pattern id="pattern1_118_1527" patternUnits="userSpaceOnUse" patternTransform="matrix(15.2616 0 0 10.1164 21.0003 290)" preserveAspectRatio="none" viewBox="7.50705e-06 0 19.077 12.6454" width="1" height="1">
<g id="pattern1_118_1527_inner">
<path d="M9.49354 10.4556C9.5432 4.72657 5.33305 0.0454458 0.0899123 0L0.0859162 0.461036C5.09603 0.504461 9.11906 4.97754 9.07161 10.4519L9.49354 10.4556Z" fill="black"/>
<path d="M8.22774 10.4446C8.27077 5.47947 4.62198 1.42249 0.077924 1.38311L0.0739279 1.84414C4.38495 1.88151 7.84663 5.73043 7.8058 10.441L8.22774 10.4446Z" fill="black"/>
<path d="M6.53999 10.43C6.5742 6.48333 3.67388 3.25856 0.0619396 3.22725L0.0579435 3.68828C3.43685 3.71757 6.15006 6.7343 6.11806 10.4263L6.53999 10.43Z" fill="black"/>
<path d="M4.43032 10.4117C4.45349 7.73816 2.48876 5.55363 0.0419591 5.53243L0.037963 5.99346C2.25173 6.01265 4.02935 7.98913 4.00838 10.408L4.43032 10.4117Z" fill="black"/>
<path d="M2.32064 10.3934C2.33278 8.99299 1.30363 7.84871 0.0219786 7.8376L0 10.3733L2.32064 10.3934Z" fill="black"/>
<path d="M9.49355 10.4556C9.54321 4.72655 13.8339 0.119105 19.077 0.164551L19.073 0.625586C14.0629 0.58216 9.96294 4.98483 9.91549 10.4592L9.49355 10.4556Z" fill="black"/>
<path d="M10.7594 10.4665C10.8024 5.50139 14.521 1.50827 19.065 1.54766L19.061 2.00869C14.75 1.97133 11.2221 5.75967 11.1813 10.4702L10.7594 10.4665Z" fill="black"/>
<path d="M12.4471 10.4812C12.4813 6.53451 15.4371 3.36049 19.049 3.3918L19.045 3.85283C15.6661 3.82355 12.901 6.79279 12.869 10.4848L12.4471 10.4812Z" fill="black"/>
<path d="M14.5568 10.4994C14.5799 7.82591 16.5823 5.67577 19.0291 5.69698L19.0251 6.15801C16.8113 6.13882 14.9997 8.08419 14.9787 10.5031L14.5568 10.4994Z" fill="black"/>
<path d="M16.6664 10.5177C16.6786 9.11731 17.7274 7.99105 19.0091 8.00215L18.9871 10.5378L16.6664 10.5177Z" fill="black"/>
</g>
</pattern><pattern id="pattern2_118_1527" patternUnits="userSpaceOnUse" patternTransform="matrix(15.2616 0 0 10.1164 23.0003 25)" preserveAspectRatio="none" viewBox="7.50705e-06 0 19.077 12.6454" width="1" height="1">
<g id="pattern2_118_1527_inner">
<path d="M9.49354 10.4556C9.5432 4.72657 5.33305 0.0454458 0.0899123 0L0.0859162 0.461036C5.09603 0.504461 9.11906 4.97754 9.07161 10.4519L9.49354 10.4556Z" fill="black"/>
<path d="M8.22774 10.4446C8.27077 5.47947 4.62198 1.42249 0.077924 1.38311L0.0739279 1.84414C4.38495 1.88151 7.84663 5.73043 7.8058 10.441L8.22774 10.4446Z" fill="black"/>
<path d="M6.53999 10.43C6.5742 6.48333 3.67388 3.25856 0.0619396 3.22725L0.0579435 3.68828C3.43685 3.71757 6.15006 6.7343 6.11806 10.4263L6.53999 10.43Z" fill="black"/>
<path d="M4.43032 10.4117C4.45349 7.73816 2.48876 5.55363 0.0419591 5.53243L0.037963 5.99346C2.25173 6.01265 4.02935 7.98913 4.00838 10.408L4.43032 10.4117Z" fill="black"/>
<path d="M2.32064 10.3934C2.33278 8.99299 1.30363 7.84871 0.0219786 7.8376L0 10.3733L2.32064 10.3934Z" fill="black"/>
<path d="M9.49355 10.4556C9.54321 4.72655 13.8339 0.119105 19.077 0.164551L19.073 0.625586C14.0629 0.58216 9.96294 4.98483 9.91549 10.4592L9.49355 10.4556Z" fill="black"/>
<path d="M10.7594 10.4665C10.8024 5.50139 14.521 1.50827 19.065 1.54766L19.061 2.00869C14.75 1.97133 11.2221 5.75967 11.1813 10.4702L10.7594 10.4665Z" fill="black"/>
<path d="M12.4471 10.4812C12.4813 6.53451 15.4371 3.36049 19.049 3.3918L19.045 3.85283C15.6661 3.82355 12.901 6.79279 12.869 10.4848L12.4471 10.4812Z" fill="black"/>
<path d="M14.5568 10.4994C14.5799 7.82591 16.5823 5.67577 19.0291 5.69698L19.0251 6.15801C16.8113 6.13882 14.9997 8.08419 14.9787 10.5031L14.5568 10.4994Z" fill="black"/>
<path d="M16.6664 10.5177C16.6786 9.11731 17.7274 7.99105 19.0091 8.00215L18.9871 10.5378L16.6664 10.5177Z" fill="black"/>
</g>
</pattern><pattern id="pattern3_118_1527" patternUnits="userSpaceOnUse" patternTransform="matrix(15.2616 0 0 10.1164 180 300)" preserveAspectRatio="none" viewBox="7.50705e-06 0 19.077 12.6454" width="1" height="1">
<g id="pattern3_118_1527_inner">
<path d="M9.49354 10.4556C9.5432 4.72657 5.33305 0.0454458 0.0899123 0L0.0859162 0.461036C5.09603 0.504461 9.11906 4.97754 9.07161 10.4519L9.49354 10.4556Z" fill="black"/>
<path d="M8.22774 10.4446C8.27077 5.47947 4.62198 1.42249 0.077924 1.38311L0.0739279 1.84414C4.38495 1.88151 7.84663 5.73043 7.8058 10.441L8.22774 10.4446Z" fill="black"/>
<path d="M6.53999 10.43C6.5742 6.48333 3.67388 3.25856 0.0619396 3.22725L0.0579435 3.68828C3.43685 3.71757 6.15006 6.7343 6.11806 10.4263L6.53999 10.43Z" fill="black"/>
<path d="M4.43032 10.4117C4.45349 7.73816 2.48876 5.55363 0.0419591 5.53243L0.037963 5.99346C2.25173 6.01265 4.02935 7.98913 4.00838 10.408L4.43032 10.4117Z" fill="black"/>
<path d="M2.32064 10.3934C2.33278 8.99299 1.30363 7.84871 0.0219786 7.8376L0 10.3733L2.32064 10.3934Z" fill="black"/>
<path d="M9.49355 10.4556C9.54321 4.72655 13.8339 0.119105 19.077 0.164551L19.073 0.625586C14.0629 0.58216 9.96294 4.98483 9.91549 10.4592L9.49355 10.4556Z" fill="black"/>
<path d="M10.7594 10.4665C10.8024 5.50139 14.521 1.50827 19.065 1.54766L19.061 2.00869C14.75 1.97133 11.2221 5.75967 11.1813 10.4702L10.7594 10.4665Z" fill="black"/>
<path d="M12.4471 10.4812C12.4813 6.53451 15.4371 3.36049 19.049 3.3918L19.045 3.85283C15.6661 3.82355 12.901 6.79279 12.869 10.4848L12.4471 10.4812Z" fill="black"/>
<path d="M14.5568 10.4994C14.5799 7.82591 16.5823 5.67577 19.0291 5.69698L19.0251 6.15801C16.8113 6.13882 14.9997 8.08419 14.9787 10.5031L14.5568 10.4994Z" fill="black"/>
<path d="M16.6664 10.5177C16.6786 9.11731 17.7274 7.99105 19.0091 8.00215L18.9871 10.5378L16.6664 10.5177Z" fill="black"/>
</g>
</pattern><pattern id="pattern4_118_1527" patternUnits="userSpaceOnUse" patternTransform="matrix(2.22 0 0 2.22 33 39)" preserveAspectRatio="none" viewBox="0 0 111 111" width="1" height="1">
<g id="pattern4_118_1527_inner">
<circle cx="55.5" cy="55.5" r="55" stroke="black"/>
<circle cx="55.5" cy="55.5001" r="47.9747" stroke="black"/>
<circle cx="55.5" cy="55.5001" r="38.1392" stroke="black"/>
<circle cx="55.5" cy="55.4999" r="29.7089" stroke="black"/>
<circle cx="55.5" cy="55.4999" r="29.7089" stroke="black"/>
<circle cx="55.5" cy="55.4998" r="17.0633" stroke="black"/>
<circle cx="55.5" cy="55.5001" r="8.63291" stroke="black"/>
</g>
</pattern></defs>
</svg>
