<svg width="211" height="328" viewBox="0 0 211 328" fill="none" xmlns="http://www.w3.org/2000/svg">
<rect width="211" height="328" rx="16" fill="white"/>
<rect x="11.5" y="11.5" width="187" height="306" stroke="black"/>
<rect x="27.5" y="28.5" width="160" height="57" fill="black" stroke="black"/>
<circle cx="38.5" cy="39.5" r="22" fill="#D9D9D9" stroke="black"/>
<path d="M97.5879 43.9922L99.0713 49.4199C99.167 49.7663 99.2559 50.1377 99.3379 50.5342C99.4199 50.9307 99.4974 51.375 99.5703 51.8672C99.5794 51.4525 99.609 51.0446 99.6592 50.6436C99.7139 50.238 99.7936 49.8301 99.8984 49.4199L101.197 43.9922H103.31L100.691 54H98.6338L96.8428 47.6152C96.7562 47.3236 96.6878 47.0296 96.6377 46.7334C96.5876 46.4372 96.5534 46.1296 96.5352 45.8105C96.5124 46.1478 96.4759 46.4668 96.4258 46.7676C96.3802 47.0684 96.3187 47.3509 96.2412 47.6152L94.4365 54H92.3789L89.7607 43.9922H91.9004L93.2197 49.5498C93.2926 49.8688 93.3519 50.2152 93.3975 50.5889C93.443 50.958 93.4772 51.3613 93.5 51.7988C93.5866 51.2201 93.7461 50.4863 93.9785 49.5977L94.0127 49.4541L95.4824 43.9922H97.5879ZM104.738 54V43.9922H106.878V54H104.738ZM109.168 54V43.9922H111.308V52.1816H114.726V54H109.168ZM118.212 52.1953H119.401C120.522 52.1953 121.338 51.9401 121.849 51.4297C122.364 50.9193 122.621 50.1104 122.621 49.0029C122.621 47.9001 122.364 47.0934 121.849 46.583C121.338 46.068 120.522 45.8105 119.401 45.8105H118.212V52.1953ZM116.072 54V43.9922H118.8C119.875 43.9922 120.723 44.0674 121.343 44.2178C121.963 44.3682 122.507 44.6188 122.977 44.9697C123.583 45.4209 124.041 45.9906 124.351 46.6787C124.665 47.3623 124.822 48.1416 124.822 49.0166C124.822 49.9053 124.663 50.6937 124.344 51.3818C124.025 52.0654 123.558 52.6305 122.942 53.0771C122.487 53.4053 121.979 53.6423 121.418 53.7881C120.862 53.9294 120.046 54 118.971 54H118.212H116.072ZM76.4238 65.5107H76.7314C77.3148 65.5107 77.7386 65.39 78.0029 65.1484C78.2673 64.9069 78.3994 64.5195 78.3994 63.9863C78.3994 63.4941 78.2673 63.1364 78.0029 62.9131C77.7386 62.6852 77.3148 62.5713 76.7314 62.5713H76.4238V65.5107ZM74.2705 71V60.9922H76.7314C78.0439 60.9922 79.0124 61.2428 79.6367 61.7441C80.2656 62.2454 80.5801 63.0202 80.5801 64.0684C80.5801 65.0391 80.2633 65.8001 79.6299 66.3516C79.001 66.903 78.1283 67.1787 77.0117 67.1787H76.4238V71H74.2705ZM89.3027 71H86.835L84.2031 66.3242V71H82.0635V60.9922H85.126C86.3428 60.9922 87.2542 61.2292 87.8604 61.7031C88.4665 62.1725 88.7695 62.8812 88.7695 63.8291C88.7695 64.5173 88.5622 65.1051 88.1475 65.5928C87.7327 66.0804 87.1973 66.3652 86.541 66.4473L89.3027 71ZM84.2031 65.2578H84.5244C85.3903 65.2578 85.9622 65.1644 86.2402 64.9775C86.5182 64.7861 86.6572 64.4557 86.6572 63.9863C86.6572 63.4941 86.5068 63.1455 86.2061 62.9404C85.9098 62.7308 85.3493 62.626 84.5244 62.626H84.2031V65.2578ZM100.801 66.0166C100.801 66.7321 100.666 67.4089 100.397 68.0469C100.133 68.6849 99.7503 69.2454 99.249 69.7285C98.7295 70.2253 98.1439 70.6058 97.4922 70.8701C96.8405 71.1344 96.166 71.2666 95.4688 71.2666C94.8581 71.2666 94.2588 71.1641 93.6709 70.959C93.0876 70.7493 92.5521 70.4508 92.0645 70.0635C91.4355 69.5622 90.9525 68.9629 90.6152 68.2656C90.2826 67.5684 90.1162 66.8187 90.1162 66.0166C90.1162 65.2965 90.2484 64.6221 90.5127 63.9932C90.777 63.3597 91.1644 62.7969 91.6748 62.3047C92.1761 61.8171 92.7572 61.4388 93.418 61.1699C94.0833 60.901 94.7669 60.7666 95.4688 60.7666C96.166 60.7666 96.8428 60.901 97.499 61.1699C98.1598 61.4388 98.7432 61.8171 99.249 62.3047C99.7549 62.7969 100.14 63.3597 100.404 63.9932C100.669 64.6266 100.801 65.3011 100.801 66.0166ZM95.4688 69.3594C96.3757 69.3594 97.123 69.0426 97.7109 68.4092C98.3034 67.7712 98.5996 66.9736 98.5996 66.0166C98.5996 65.0687 98.3011 64.2712 97.7041 63.624C97.1071 62.9769 96.362 62.6533 95.4688 62.6533C94.5618 62.6533 93.8099 62.9769 93.2129 63.624C92.6159 64.2666 92.3174 65.0641 92.3174 66.0166C92.3174 66.9827 92.6113 67.7826 93.1992 68.416C93.7871 69.0449 94.5436 69.3594 95.4688 69.3594ZM104.766 65.5107H105.073C105.657 65.5107 106.08 65.39 106.345 65.1484C106.609 64.9069 106.741 64.5195 106.741 63.9863C106.741 63.4941 106.609 63.1364 106.345 62.9131C106.08 62.6852 105.657 62.5713 105.073 62.5713H104.766V65.5107ZM102.612 71V60.9922H105.073C106.386 60.9922 107.354 61.2428 107.979 61.7441C108.607 62.2454 108.922 63.0202 108.922 64.0684C108.922 65.0391 108.605 65.8001 107.972 66.3516C107.343 66.903 106.47 67.1787 105.354 67.1787H104.766V71H102.612ZM110.405 71V60.9922H116.298V62.7969H112.545V64.8545H116.298V66.6729H112.545V69.1816H116.298V71H110.405ZM125.643 71H123.175L120.543 66.3242V71H118.403V60.9922H121.466C122.683 60.9922 123.594 61.2292 124.2 61.7031C124.806 62.1725 125.109 62.8812 125.109 63.8291C125.109 64.5173 124.902 65.1051 124.487 65.5928C124.073 66.0804 123.537 66.3652 122.881 66.4473L125.643 71ZM120.543 65.2578H120.864C121.73 65.2578 122.302 65.1644 122.58 64.9775C122.858 64.7861 122.997 64.4557 122.997 63.9863C122.997 63.4941 122.847 63.1455 122.546 62.9404C122.25 62.7308 121.689 62.626 120.864 62.626H120.543V65.2578ZM130.633 62.8105V71H128.486V62.8105H126.039V60.9922H133.094V62.8105H130.633ZM136.539 71V66.4336L133.148 60.9922H135.657L137.141 63.7334C137.214 63.8701 137.289 64.0433 137.366 64.2529C137.444 64.4626 137.523 64.7041 137.605 64.9775C137.669 64.7451 137.74 64.5264 137.817 64.3213C137.899 64.1162 137.991 63.9157 138.091 63.7197L139.561 60.9922H142.056L138.679 66.4336V71H136.539Z" fill="white"/>
<rect x="187.5" y="299.499" width="160" height="57" transform="rotate(-180 187.5 299.499)" fill="#61AF25" stroke="black"/>
<path d="M117.412 284.007L115.929 278.579C115.833 278.233 115.744 277.861 115.662 277.465C115.58 277.068 115.503 276.624 115.43 276.132C115.421 276.547 115.391 276.954 115.341 277.355C115.286 277.761 115.206 278.169 115.102 278.579L113.803 284.007L111.69 284.007L114.309 273.999L116.366 273.999L118.157 280.384C118.244 280.675 118.312 280.969 118.362 281.266C118.412 281.562 118.447 281.869 118.465 282.188C118.488 281.851 118.524 281.532 118.574 281.231C118.62 280.931 118.681 280.648 118.759 280.384L120.563 273.999L122.621 273.999L125.239 284.007L123.1 284.007L121.78 278.449C121.707 278.13 121.648 277.784 121.603 277.41C121.557 277.041 121.523 276.638 121.5 276.2C121.413 276.779 121.254 277.513 121.021 278.401L120.987 278.545L119.518 284.007L117.412 284.007ZM110.262 273.999L110.262 284.007L108.122 284.007L108.122 273.999L110.262 273.999ZM105.832 273.999L105.832 284.007L103.692 284.007L103.692 275.817L100.274 275.817L100.274 273.999L105.832 273.999ZM96.7881 275.804L95.5986 275.804C94.4775 275.804 93.6618 276.059 93.1514 276.569C92.6364 277.08 92.3789 277.889 92.3789 278.996C92.3789 280.099 92.6364 280.906 93.1514 281.416C93.6618 281.931 94.4775 282.188 95.5986 282.188L96.7881 282.188L96.7881 275.804ZM98.9277 273.999L98.9277 284.007L96.2002 284.007C95.1247 284.007 94.277 283.932 93.6572 283.781C93.0374 283.631 92.4928 283.38 92.0234 283.029C91.4173 282.578 90.9593 282.008 90.6494 281.32C90.335 280.637 90.1777 279.857 90.1777 278.982C90.1777 278.094 90.3372 277.305 90.6563 276.617C90.9753 275.934 91.4424 275.368 92.0576 274.922C92.5133 274.594 93.0215 274.357 93.582 274.211C94.138 274.07 94.9538 273.999 96.0293 273.999L96.7881 273.999L98.9277 273.999ZM138.576 262.488L138.269 262.488C137.685 262.488 137.261 262.609 136.997 262.851C136.733 263.092 136.601 263.479 136.601 264.013C136.601 264.505 136.733 264.863 136.997 265.086C137.261 265.314 137.685 265.428 138.269 265.428L138.576 265.428L138.576 262.488ZM140.729 256.999L140.729 267.007L138.269 267.007C136.956 267.007 135.988 266.756 135.363 266.255C134.734 265.754 134.42 264.979 134.42 263.931C134.42 262.96 134.737 262.199 135.37 261.647C135.999 261.096 136.872 260.82 137.988 260.82L138.576 260.82L138.576 256.999L140.729 256.999ZM125.697 256.999L128.165 256.999L130.797 261.675L130.797 256.999L132.937 256.999L132.937 267.007L129.874 267.007C128.657 267.007 127.746 266.77 127.14 266.296C126.534 265.826 126.23 265.118 126.23 264.17C126.23 263.482 126.438 262.894 126.853 262.406C127.267 261.919 127.803 261.634 128.459 261.552L125.697 256.999ZM130.797 262.741L130.476 262.741C129.61 262.741 129.038 262.835 128.76 263.021C128.482 263.213 128.343 263.543 128.343 264.013C128.343 264.505 128.493 264.854 128.794 265.059C129.09 265.268 129.651 265.373 130.476 265.373L130.797 265.373L130.797 262.741ZM114.199 261.982C114.199 261.267 114.334 260.59 114.603 259.952C114.867 259.314 115.25 258.754 115.751 258.271C116.271 257.774 116.856 257.393 117.508 257.129C118.16 256.865 118.834 256.732 119.531 256.732C120.142 256.732 120.741 256.835 121.329 257.04C121.912 257.25 122.448 257.548 122.936 257.936C123.564 258.437 124.048 259.036 124.385 259.733C124.717 260.431 124.884 261.18 124.884 261.982C124.884 262.702 124.752 263.377 124.487 264.006C124.223 264.639 123.836 265.202 123.325 265.694C122.824 266.182 122.243 266.56 121.582 266.829C120.917 267.098 120.233 267.232 119.531 267.232C118.834 267.232 118.157 267.098 117.501 266.829C116.84 266.56 116.257 266.182 115.751 265.694C115.245 265.202 114.86 264.639 114.596 264.006C114.331 263.372 114.199 262.698 114.199 261.982ZM119.531 258.64C118.624 258.64 117.877 258.956 117.289 259.59C116.697 260.228 116.4 261.025 116.4 261.982C116.4 262.93 116.699 263.728 117.296 264.375C117.893 265.022 118.638 265.346 119.531 265.346C120.438 265.346 121.19 265.022 121.787 264.375C122.384 263.732 122.683 262.935 122.683 261.982C122.683 261.016 122.389 260.216 121.801 259.583C121.213 258.954 120.456 258.64 119.531 258.64ZM110.234 262.488L109.927 262.488C109.343 262.488 108.92 262.609 108.655 262.851C108.391 263.092 108.259 263.479 108.259 264.013C108.259 264.505 108.391 264.863 108.655 265.086C108.92 265.314 109.343 265.428 109.927 265.428L110.234 265.428L110.234 262.488ZM112.388 256.999L112.388 267.007L109.927 267.007C108.614 267.007 107.646 266.756 107.021 266.255C106.393 265.754 106.078 264.979 106.078 263.931C106.078 262.96 106.395 262.199 107.028 261.647C107.657 261.096 108.53 260.82 109.646 260.82L110.234 260.82L110.234 256.999L112.388 256.999ZM104.595 256.999L104.595 267.007L98.7022 267.007L98.7022 265.202L102.455 265.202L102.455 263.145L98.7022 263.145L98.7022 261.326L102.455 261.326L102.455 258.817L98.7022 258.817L98.7022 256.999L104.595 256.999ZM89.3574 256.999L91.8252 256.999L94.457 261.675L94.457 256.999L96.5967 256.999L96.5967 267.007L93.5342 267.007C92.3174 267.007 91.4059 266.77 90.7998 266.296C90.1937 265.826 89.8906 265.118 89.8906 264.17C89.8906 263.482 90.098 262.894 90.5127 262.406C90.9274 261.919 91.4629 261.634 92.1191 261.552L89.3574 256.999ZM94.457 262.741L94.1357 262.741C93.2699 262.741 92.6979 262.835 92.4199 263.021C92.1419 263.213 92.0029 263.543 92.0029 264.013C92.0029 264.505 92.1533 264.854 92.4541 265.059C92.7503 265.268 93.3109 265.373 94.1357 265.373L94.457 265.373L94.457 262.741ZM84.3672 265.188L84.3672 256.999L86.5137 256.999L86.5137 265.188L88.9609 265.188L88.9609 267.007L81.9063 267.007L81.9063 265.188L84.3672 265.188ZM78.4609 256.999L78.4609 261.565L81.8516 267.007L79.3428 267.007L77.8594 264.266C77.7865 264.129 77.7113 263.956 77.6338 263.746C77.5563 263.536 77.4766 263.295 77.3945 263.021C77.3307 263.254 77.2601 263.473 77.1826 263.678C77.1006 263.883 77.0094 264.083 76.9092 264.279L75.4395 267.007L72.9443 267.007L76.3213 261.565L76.3213 256.999L78.4609 256.999Z" fill="white"/>
<path d="M30.957 31.9121C28.1133 31.9121 26.3496 33.694 25.666 37.2578H32.502V39.0762H25.4746L25.4473 39.8418V40.6895L25.4746 41.291H31.6543V43.1094H25.6934C26.0124 44.6953 26.623 45.9258 27.5254 46.8008C28.4368 47.6667 29.6582 48.0996 31.1895 48.0996C32.5749 48.0996 33.9648 47.7988 35.3594 47.1973V49.3848C34.0286 49.9772 32.5885 50.2734 31.0391 50.2734C28.888 50.2734 27.1471 49.6673 25.8164 48.4551C24.4948 47.2337 23.6243 45.4518 23.2051 43.1094H20.9629V41.291H22.9863L22.959 40.7168V40.1426L22.9863 39.0762H20.9629V37.2578H23.1777C23.5423 34.8516 24.3991 33.0013 25.748 31.707C27.097 30.4036 28.8333 29.752 30.957 29.752C32.8255 29.752 34.498 30.1849 35.9746 31.0508L34.9355 33.0605C33.459 32.2949 32.1328 31.9121 30.957 31.9121ZM40.9375 50V33.334H39.0371V30.0391H44.7656V50H40.9375ZM48.9277 50L49.7656 41.4453H51.9629L52.4082 44.709C52.4746 45.2051 52.5293 45.6816 52.5723 46.1387C52.6191 46.5918 52.6562 47.0332 52.6836 47.4629C52.7539 46.709 52.8125 46.1152 52.8594 45.6816C52.9102 45.2441 52.9512 44.9199 52.9824 44.709L53.5332 41.4453H55.707L56.4277 50H54.6992L54.5176 46.0273C54.5137 45.9336 54.5078 45.793 54.5 45.6055C54.4492 44.5664 54.4238 43.7148 54.4238 43.0508L53.3105 50H52.0742L51.0254 43.0039C51.0254 43.5859 50.9902 44.418 50.9199 45.5C50.9043 45.7461 50.8926 45.9297 50.8848 46.0508L50.6211 50H48.9277Z" fill="black"/>
<g clip-path="url(#clip0_120_1699)">
<path d="M180.234 56.7263V46.8994C180.234 44.6485 178.41 42.8239 176.159 42.8239H174.267L174.492 40.8165H174.905C175.348 40.8165 175.726 41.0855 175.888 41.4679L176.641 41.1502V41.1498C176.356 40.4736 175.686 39.9999 174.905 39.999L169.094 39.9994C168.314 39.9999 167.644 40.4736 167.359 41.1498L168.111 41.4684C168.274 41.0856 168.652 40.8165 169.094 40.8169H169.507L169.733 42.8239H167.841C165.591 42.8239 163.766 44.6485 163.766 46.8994V56.7263C163.766 58.4327 165.007 59.8546 166.635 60.1376L164.079 63.999H166.352L167.4 62.4136H176.6L177.649 63.999H179.921L177.366 60.1375C178.993 59.8541 180.234 58.4327 180.234 56.7263ZM173.67 40.8165L173.445 42.8239H170.555L170.33 40.8169L173.67 40.8165ZM168.471 44.6537H175.529V45.83H168.471V44.6537ZM166.347 48.4557C166.347 47.944 166.762 47.5288 167.274 47.5288H176.727C177.238 47.5288 177.653 47.944 177.653 48.4557V51.5476C177.653 52.0593 177.238 52.474 176.727 52.474H167.273C166.762 52.474 166.347 52.0593 166.347 51.5476L166.347 48.4557ZM167.23 57.741C166.632 57.741 166.149 57.2572 166.149 56.6608C166.149 56.0637 166.632 55.5803 167.23 55.5803C167.826 55.5803 168.31 56.0637 168.31 56.6608C168.31 57.2572 167.826 57.741 167.23 57.741ZM168.082 61.3829L168.872 60.1894H175.128L175.918 61.3829H168.082ZM176.77 57.741C176.174 57.741 175.69 57.2572 175.69 56.6608C175.69 56.0637 176.174 55.5803 176.77 55.5803C177.368 55.5803 177.851 56.0637 177.851 56.6608C177.851 57.2572 177.368 57.741 176.77 57.741Z" fill="white"/>
</g>
<path d="M164.43 124.756C163.291 124.756 162.585 125.47 162.311 126.897H165.049V127.625H162.234L162.223 127.932V128.271L162.234 128.512H164.709V129.24H162.322C162.45 129.876 162.694 130.368 163.056 130.719C163.421 131.066 163.91 131.239 164.523 131.239C165.078 131.239 165.634 131.118 166.193 130.878V131.754C165.66 131.991 165.083 132.11 164.463 132.11C163.601 132.11 162.904 131.867 162.371 131.381C161.842 130.892 161.493 130.179 161.325 129.24H160.427V128.512H161.238L161.227 128.282V128.052L161.238 127.625H160.427V126.897H161.314C161.46 125.933 161.804 125.192 162.344 124.674C162.884 124.152 163.579 123.891 164.43 123.891C165.178 123.891 165.848 124.064 166.439 124.411L166.023 125.216C165.432 124.909 164.901 124.756 164.43 124.756ZM168.427 132V125.325H167.666V124.006H169.96V132H168.427ZM171.678 132L172.594 125.988H173.941L175.099 129.528C175.123 129.602 175.149 129.71 175.177 129.852C175.207 129.995 175.234 130.158 175.259 130.341C175.281 130.155 175.305 129.989 175.333 129.844C175.36 129.696 175.386 129.588 175.411 129.52L176.589 125.988H177.916L178.836 132H177.616L177.177 128.374C177.144 128.106 177.122 127.903 177.111 127.766C177.1 127.629 177.095 127.502 177.095 127.384C177.095 127.321 177.095 127.275 177.095 127.245C177.097 127.212 177.1 127.183 177.103 127.158C177.062 127.394 177.022 127.598 176.984 127.77C176.948 127.94 176.915 128.069 176.885 128.156L175.612 132H174.889L173.637 128.156C173.626 128.121 173.601 128.022 173.563 127.861C173.527 127.699 173.477 127.464 173.411 127.154V127.331C173.411 127.61 173.386 127.952 173.337 128.357L173.333 128.374L172.898 132H171.678Z" fill="black"/>
<path d="M164.43 159.098C163.291 159.098 162.585 159.811 162.311 161.239H165.049V161.967H162.234L162.223 162.274V162.613L162.234 162.854H164.709V163.582H162.322C162.45 164.217 162.694 164.71 163.056 165.061C163.421 165.407 163.91 165.581 164.523 165.581C165.078 165.581 165.634 165.46 166.193 165.219V166.095C165.66 166.333 165.083 166.451 164.463 166.451C163.601 166.451 162.904 166.209 162.371 165.723C161.842 165.234 161.493 164.52 161.325 163.582H160.427V162.854H161.238L161.227 162.624V162.394L161.238 161.967H160.427V161.239H161.314C161.46 160.275 161.804 159.534 162.344 159.016C162.884 158.494 163.579 158.233 164.43 158.233C165.178 158.233 165.848 158.406 166.439 158.753L166.023 159.558C165.432 159.251 164.901 159.098 164.43 159.098ZM166.932 166.342L168.898 162.52C169.139 162.053 169.323 161.62 169.451 161.222C169.582 160.824 169.648 160.498 169.648 160.242C169.648 159.99 169.597 159.797 169.495 159.662C169.396 159.527 169.254 159.459 169.068 159.459C168.797 159.459 168.611 159.569 168.509 159.788C168.411 160.003 168.361 160.43 168.361 161.069H167.058C167.054 161.032 167.051 160.992 167.047 160.949C167.047 160.901 167.047 160.834 167.047 160.746C167.047 159.928 167.226 159.308 167.584 158.884C167.941 158.457 168.465 158.244 169.155 158.244C169.747 158.244 170.216 158.423 170.562 158.78C170.909 159.134 171.083 159.614 171.083 160.22C171.083 160.633 170.993 161.089 170.814 161.589C170.635 162.086 170.289 162.799 169.774 163.73L169.089 164.962H170.88V166.342H166.932ZM171.678 166.342L172.594 160.33H173.941L175.099 163.87C175.123 163.944 175.149 164.052 175.177 164.194C175.207 164.336 175.234 164.499 175.259 164.683C175.281 164.497 175.305 164.331 175.333 164.186C175.36 164.038 175.386 163.93 175.411 163.861L176.589 160.33H177.916L178.836 166.342H177.616L177.177 162.716C177.144 162.447 177.122 162.245 177.111 162.108C177.1 161.971 177.095 161.844 177.095 161.726C177.095 161.663 177.095 161.617 177.095 161.586C177.097 161.554 177.1 161.525 177.103 161.5C177.062 161.736 177.022 161.94 176.984 162.112C176.948 162.282 176.915 162.41 176.885 162.498L175.612 166.342H174.889L173.637 162.498C173.626 162.462 173.601 162.364 173.563 162.202C173.527 162.041 173.477 161.805 173.411 161.496V161.673C173.411 161.952 173.386 162.294 173.337 162.699L173.333 162.716L172.898 166.342H171.678Z" fill="black"/>
<path d="M164.43 193.44C163.291 193.44 162.585 194.153 162.311 195.58H165.049V196.309H162.234L162.223 196.615V196.955L162.234 197.196H164.709V197.924H162.322C162.45 198.559 162.694 199.052 163.056 199.402C163.421 199.749 163.91 199.923 164.523 199.923C165.078 199.923 165.634 199.802 166.193 199.561V200.437C165.66 200.674 165.083 200.793 164.463 200.793C163.601 200.793 162.904 200.55 162.371 200.065C161.842 199.576 161.493 198.862 161.325 197.924H160.427V197.196H161.238L161.227 196.966V196.736L161.238 196.309H160.427V195.58H161.314C161.46 194.617 161.804 193.876 162.344 193.357C162.884 192.835 163.579 192.574 164.43 192.574C165.178 192.574 165.848 192.748 166.439 193.095L166.023 193.9C165.432 193.593 164.901 193.44 164.43 193.44ZM166.856 198.395H168.192V198.488C168.192 198.798 168.244 199.035 168.35 199.2C168.46 199.36 168.617 199.441 168.821 199.441C169.047 199.441 169.221 199.34 169.341 199.14C169.465 198.939 169.528 198.654 169.528 198.285C169.528 197.862 169.449 197.561 169.292 197.382C169.135 197.199 168.876 197.108 168.515 197.108C168.493 197.108 168.462 197.11 168.421 197.114C168.381 197.117 168.348 197.119 168.323 197.119V195.805H168.427C168.858 195.805 169.166 195.727 169.352 195.57C169.542 195.413 169.637 195.155 169.637 194.798C169.637 194.524 169.582 194.31 169.473 194.157C169.363 194 169.212 193.921 169.018 193.921C168.818 193.921 168.664 193.998 168.558 194.151C168.456 194.305 168.405 194.531 168.405 194.83V194.918H167.113V194.732C167.113 194.035 167.283 193.503 167.622 193.138C167.962 192.77 168.454 192.585 169.1 192.585C169.699 192.585 170.159 192.773 170.48 193.149C170.801 193.525 170.962 194.064 170.962 194.765C170.962 195.246 170.86 195.632 170.655 195.92C170.451 196.205 170.157 196.373 169.774 196.424V196.522C170.256 196.617 170.615 196.82 170.853 197.13C171.09 197.44 171.208 197.862 171.208 198.395C171.208 199.14 171 199.725 170.584 200.152C170.172 200.58 169.606 200.793 168.887 200.793C168.237 200.793 167.733 200.603 167.376 200.224C167.022 199.844 166.845 199.306 166.845 198.608C166.845 198.587 166.846 198.554 166.85 198.51C166.854 198.462 166.856 198.424 166.856 198.395ZM171.678 200.684L172.594 194.672H173.941L175.099 198.211C175.123 198.285 175.149 198.393 175.177 198.536C175.207 198.678 175.234 198.841 175.259 199.025C175.281 198.838 175.305 198.673 175.333 198.528C175.36 198.38 175.386 198.272 175.411 198.203L176.589 194.672H177.916L178.836 200.684H177.616L177.177 197.057C177.144 196.789 177.122 196.587 177.111 196.45C177.1 196.313 177.095 196.186 177.095 196.068C177.095 196.005 177.095 195.958 177.095 195.928C177.097 195.895 177.1 195.867 177.103 195.842C177.062 196.077 177.022 196.281 176.984 196.454C176.948 196.624 176.915 196.752 176.885 196.84L175.612 200.684H174.889L173.637 196.84C173.626 196.804 173.601 196.706 173.563 196.544C173.527 196.383 173.477 196.147 173.411 195.838V196.014C173.411 196.294 173.386 196.636 173.337 197.041L173.333 197.057L172.898 200.684H171.678Z" fill="black"/>
<path d="M113.079 184.817L122.587 195.648C123.369 196.539 123.281 197.895 122.39 198.677L115.016 205.151C114.125 205.933 112.769 205.845 111.987 204.954L102.479 194.123L113.079 184.817Z" fill="white" stroke="black" stroke-width="0.613278"/>
<path d="M100.046 188.098L107.42 181.625C108.311 180.843 109.667 180.931 110.449 181.822L113.484 185.279L102.883 194.584L99.8488 191.128C99.0667 190.237 99.155 188.88 100.046 188.098Z" fill="black" stroke="black" stroke-width="0.613278"/>
<path d="M125.629 127.439V141.852C125.629 143.037 124.668 143.998 123.482 143.998H113.67C112.484 143.998 111.523 143.037 111.523 141.852V127.439H125.629Z" fill="white" stroke="black" stroke-width="0.613278"/>
<path d="M113.67 121.307H123.482C124.668 121.307 125.629 122.268 125.629 123.453V128.053H111.523V123.453C111.523 122.268 112.484 121.307 113.67 121.307Z" fill="black" stroke="black" stroke-width="0.613278"/>
<path d="M117.821 140.359V133.059H116.988V131.615H119.498V140.359H117.821Z" fill="black"/>
<path d="M120.846 154.107L126.001 167.565C126.425 168.672 125.871 169.914 124.764 170.338L115.601 173.848C114.494 174.272 113.253 173.718 112.828 172.611L107.673 159.152L120.846 154.107Z" fill="white" stroke="black" stroke-width="0.613278"/>
<path d="M107.484 152.657L116.648 149.147C117.755 148.723 118.996 149.277 119.42 150.384L121.065 154.679L107.893 159.724L106.248 155.429C105.824 154.322 106.377 153.081 107.484 152.657Z" fill="black" stroke="black" stroke-width="0.613278"/>
<path d="M125.629 156.264V170.676C125.629 171.861 124.668 172.822 123.482 172.822H113.67C112.484 172.822 111.523 171.861 111.523 170.676V156.264H125.629Z" fill="white" stroke="black" stroke-width="0.613278"/>
<path d="M113.67 150.131H123.482C124.668 150.131 125.629 151.092 125.629 152.277V156.877H111.523V152.277C111.523 151.092 112.484 150.131 113.67 150.131Z" fill="black" stroke="black" stroke-width="0.613278"/>
<path d="M116.186 169.184L118.336 165.003C118.599 164.492 118.801 164.019 118.941 163.584C119.084 163.149 119.156 162.791 119.156 162.512C119.156 162.236 119.1 162.025 118.989 161.877C118.881 161.729 118.725 161.655 118.521 161.655C118.226 161.655 118.022 161.775 117.91 162.015C117.803 162.25 117.749 162.717 117.749 163.416H116.323C116.319 163.376 116.315 163.332 116.311 163.284C116.311 163.232 116.311 163.159 116.311 163.063C116.311 162.168 116.507 161.49 116.898 161.027C117.29 160.559 117.863 160.326 118.617 160.326C119.264 160.326 119.777 160.521 120.156 160.913C120.536 161.3 120.725 161.825 120.725 162.488C120.725 162.939 120.628 163.438 120.432 163.985C120.236 164.528 119.857 165.309 119.294 166.327L118.545 167.674H120.504V169.184H116.186Z" fill="black"/>
<path d="M119.619 185.384L124.774 198.843C125.198 199.95 124.644 201.191 123.537 201.615L114.374 205.125C113.267 205.549 112.026 204.995 111.602 203.888L106.447 190.43L119.619 185.384Z" fill="white" stroke="black" stroke-width="0.613278"/>
<path d="M106.258 183.934L115.421 180.424C116.528 180 117.769 180.554 118.193 181.661L119.838 185.956L106.666 191.002L105.021 186.707C104.597 185.6 105.151 184.358 106.258 183.934Z" fill="black" stroke="black" stroke-width="0.613278"/>
<path d="M119.619 185.384L124.774 198.843C125.198 199.95 124.644 201.191 123.537 201.615L114.374 205.125C113.267 205.549 112.026 204.995 111.602 203.888L106.447 190.43L119.619 185.384Z" fill="white" stroke="black" stroke-width="0.613278"/>
<path d="M106.258 183.934L115.421 180.424C116.528 180 117.769 180.554 118.193 181.661L119.838 185.956L106.666 191.002L105.021 186.707C104.597 185.6 105.151 184.358 106.258 183.934Z" fill="black" stroke="black" stroke-width="0.613278"/>
<path d="M124.402 187.541V201.953C124.402 203.139 123.441 204.1 122.256 204.1H112.443C111.258 204.1 110.297 203.139 110.297 201.953V187.541H124.402Z" fill="white" stroke="black" stroke-width="0.613278"/>
<path d="M112.443 181.408H122.256C123.441 181.408 124.402 182.369 124.402 183.555V188.154H110.297V183.555C110.297 182.369 111.258 181.408 112.443 181.408Z" fill="black" stroke="black" stroke-width="0.613278"/>
<path d="M114.875 197.958H116.337V198.059C116.337 198.399 116.394 198.658 116.51 198.838C116.63 199.014 116.802 199.101 117.025 199.101C117.273 199.101 117.463 198.992 117.594 198.772C117.73 198.552 117.798 198.241 117.798 197.838C117.798 197.375 117.712 197.045 117.54 196.85C117.369 196.65 117.085 196.55 116.69 196.55C116.666 196.55 116.632 196.552 116.588 196.556C116.544 196.56 116.508 196.562 116.48 196.562V195.125H116.594C117.065 195.125 117.403 195.039 117.606 194.867C117.814 194.695 117.918 194.414 117.918 194.023C117.918 193.723 117.858 193.49 117.738 193.322C117.618 193.15 117.453 193.064 117.241 193.064C117.021 193.064 116.854 193.148 116.738 193.316C116.626 193.484 116.57 193.731 116.57 194.059V194.154H115.157V193.951C115.157 193.188 115.342 192.607 115.714 192.208C116.085 191.805 116.624 191.603 117.331 191.603C117.986 191.603 118.489 191.809 118.84 192.22C119.191 192.631 119.367 193.22 119.367 193.987C119.367 194.514 119.255 194.935 119.032 195.25C118.808 195.562 118.487 195.746 118.067 195.801V195.909C118.594 196.013 118.988 196.235 119.247 196.574C119.507 196.913 119.637 197.375 119.637 197.958C119.637 198.772 119.409 199.413 118.954 199.88C118.503 200.347 117.884 200.581 117.097 200.581C116.386 200.581 115.835 200.373 115.444 199.958C115.057 199.543 114.863 198.954 114.863 198.191C114.863 198.167 114.865 198.131 114.869 198.083C114.873 198.031 114.875 197.989 114.875 197.958Z" fill="black"/>
<path d="M138.664 110V98.5625H141.352C142.117 98.5625 142.677 98.6068 143.031 98.6953C143.391 98.7786 143.706 98.9245 143.977 99.1328C144.315 99.3984 144.578 99.7552 144.766 100.203C144.953 100.646 145.047 101.138 145.047 101.68C145.047 102.617 144.784 103.331 144.258 103.82C143.737 104.305 142.971 104.547 141.961 104.547H141.719L146.086 110H144.359L140.188 104.547H139.992V110H138.664ZM139.992 99.7109V103.539H141.031C142.094 103.539 142.805 103.404 143.164 103.133C143.523 102.857 143.703 102.378 143.703 101.695C143.703 100.961 143.518 100.448 143.148 100.156C142.779 99.8594 142.073 99.7109 141.031 99.7109H139.992ZM147.227 110V98.5625H153.258V99.8047H148.586V103.086H153.258V104.352H148.586V108.734H153.258V110H147.227ZM155.57 110V98.1094L163.938 107.25V98.5625H165.234V110.445L156.867 101.406V110H155.57ZM169.977 110V99.8594H166.742V98.5625H174.57V99.8594H171.352V110H169.977Z" fill="black"/>
<path d="M129.906 194.937C129.797 194.981 129.686 195.013 129.574 195.034C129.465 195.058 129.354 195.069 129.242 195.069C128.516 195.069 127.924 194.805 127.469 194.276C127.016 193.748 126.789 193.055 126.789 192.198C126.789 191.308 127.01 190.589 127.453 190.042C127.898 189.495 128.479 189.222 129.195 189.222C129.328 189.222 129.453 189.233 129.57 189.257C129.688 189.278 129.799 189.312 129.906 189.358V190.425C129.797 190.381 129.69 190.348 129.586 190.327C129.484 190.306 129.384 190.296 129.285 190.296C128.905 190.296 128.596 190.464 128.359 190.8C128.122 191.136 128.004 191.581 128.004 192.136C128.004 192.67 128.125 193.102 128.367 193.433C128.612 193.763 128.926 193.929 129.309 193.929C129.405 193.929 129.503 193.917 129.602 193.894C129.703 193.87 129.805 193.836 129.906 193.792V194.937ZM132.422 193.983C132.714 193.983 132.931 193.831 133.074 193.526C133.22 193.222 133.293 192.763 133.293 192.151C133.293 191.534 133.22 191.073 133.074 190.769C132.931 190.464 132.714 190.312 132.422 190.312C132.13 190.312 131.913 190.464 131.77 190.769C131.626 191.071 131.555 191.532 131.555 192.151C131.555 192.769 131.626 193.228 131.77 193.53C131.913 193.832 132.13 193.983 132.422 193.983ZM134.43 192.229C134.43 193.099 134.247 193.791 133.883 194.304C133.518 194.814 133.031 195.069 132.422 195.069C131.792 195.069 131.301 194.813 130.949 194.3C130.598 193.784 130.422 193.068 130.422 192.151C130.422 191.237 130.599 190.521 130.953 190.003C131.31 189.482 131.799 189.222 132.422 189.222C133.047 189.222 133.538 189.487 133.895 190.019C134.251 190.55 134.43 191.287 134.43 192.229ZM134.855 194.999L135.414 189.296H136.879L137.176 191.472C137.22 191.802 137.257 192.12 137.285 192.425C137.316 192.727 137.341 193.021 137.359 193.308C137.406 192.805 137.445 192.409 137.477 192.12C137.51 191.828 137.538 191.612 137.559 191.472L137.926 189.296H139.375L139.855 194.999H138.703L138.582 192.351C138.579 192.288 138.576 192.194 138.57 192.069C138.536 191.377 138.52 190.809 138.52 190.366L137.777 194.999H136.953L136.254 190.335C136.254 190.723 136.23 191.278 136.184 191.999C136.173 192.163 136.165 192.285 136.16 192.366L135.984 194.999H134.855ZM141.574 191.769C141.587 191.769 141.607 191.77 141.633 191.772C141.661 191.775 141.682 191.776 141.695 191.776C141.938 191.776 142.121 191.707 142.246 191.569C142.374 191.429 142.438 191.228 142.438 190.968C142.438 190.697 142.378 190.498 142.258 190.37C142.138 190.24 141.951 190.175 141.695 190.175C141.682 190.175 141.661 190.176 141.633 190.179C141.607 190.181 141.587 190.183 141.574 190.183V191.769ZM140.473 194.999V189.296H141.656C142.284 189.296 142.75 189.433 143.055 189.706C143.359 189.977 143.512 190.392 143.512 190.952C143.512 191.486 143.365 191.901 143.07 192.198C142.776 192.493 142.363 192.64 141.832 192.64C141.764 192.64 141.712 192.64 141.676 192.64C141.642 192.637 141.609 192.634 141.578 192.632L141.574 194.999H140.473ZM144.113 194.999V189.296H145.238V193.886H146.535V194.999H144.113ZM146.988 194.999V189.296H149.387V190.351H148.09V191.503H149.266V192.55H148.09V193.886H149.387V194.999H146.988ZM150.695 194.999V190.351H149.824V189.296H152.711V190.351H151.84V194.999H150.695ZM153.277 194.999V189.296H155.676V190.351H154.379V191.503H155.555V192.55H154.379V193.886H155.676V194.999H153.277ZM146.914 204.8V203.616C147.057 203.741 147.198 203.835 147.336 203.897C147.474 203.96 147.613 203.991 147.754 203.991C147.947 203.991 148.098 203.94 148.207 203.839C148.319 203.737 148.375 203.599 148.375 203.425C148.375 203.209 148.225 202.974 147.926 202.722C147.842 202.651 147.78 202.597 147.738 202.558C147.389 202.245 147.15 201.965 147.02 201.718C146.889 201.468 146.824 201.185 146.824 200.87C146.824 200.378 146.962 199.981 147.238 199.679C147.517 199.374 147.88 199.222 148.328 199.222C148.487 199.222 148.643 199.245 148.797 199.292C148.953 199.336 149.117 199.407 149.289 199.503V200.511C149.089 200.414 148.932 200.348 148.82 200.312C148.711 200.275 148.613 200.257 148.527 200.257C148.363 200.257 148.229 200.309 148.125 200.413C148.021 200.515 147.969 200.649 147.969 200.815C147.969 200.961 148.008 201.098 148.086 201.226C148.164 201.351 148.346 201.537 148.633 201.784C149.016 202.112 149.262 202.386 149.371 202.604C149.48 202.821 149.535 203.082 149.535 203.39C149.535 203.908 149.388 204.318 149.094 204.62C148.802 204.92 148.404 205.069 147.898 205.069C147.706 205.069 147.527 205.047 147.363 205.003C147.202 204.959 147.052 204.891 146.914 204.8ZM150.16 204.999V199.296H152.559V200.351H151.262V201.503H152.438V202.55H151.262V203.886H152.559V204.999H150.16ZM153.867 204.999V200.351H152.996V199.296H155.883V200.351H155.012V204.999H153.867Z" fill="black"/>
<path d="M42.5701 198.243C43.709 198.243 44.4153 197.529 44.6891 196.102L41.9514 196.102L41.9514 195.374L44.7658 195.374L44.7767 195.067L44.7767 194.728L44.7658 194.487L42.2909 194.487L42.2909 193.759L44.6782 193.759C44.5504 193.123 44.3058 192.631 43.9444 192.28C43.5794 191.933 43.0903 191.76 42.477 191.76C41.9222 191.76 41.3655 191.881 40.807 192.121L40.807 191.245C41.34 191.008 41.9167 190.89 42.5373 190.89C43.3987 190.89 44.0959 191.132 44.6289 191.618C45.1582 192.107 45.5068 192.821 45.6747 193.759L46.5726 193.759L46.5726 194.487L45.7623 194.487L45.7732 194.717L45.7732 194.947L45.7623 195.374L46.5726 195.374L46.5726 196.102L45.6856 196.102C45.5396 197.066 45.1965 197.807 44.6562 198.325C44.116 198.847 43.4206 199.108 42.5701 199.108C41.8218 199.108 41.152 198.935 40.5606 198.588L40.9768 197.783C41.5681 198.09 42.0992 198.243 42.5701 198.243ZM38.5731 190.999L38.573 197.674L39.3341 197.674L39.3341 198.993L37.0399 198.993L37.0399 190.999L38.5731 190.999ZM35.322 190.999L34.4062 197.011L33.0593 197.011L31.9012 193.471C31.8766 193.397 31.8506 193.289 31.8232 193.147C31.7931 193.004 31.7657 192.842 31.7411 192.658C31.7192 192.844 31.6945 193.01 31.6672 193.155C31.6398 193.303 31.6138 193.411 31.5891 193.479L30.4106 197.011L29.0841 197.011L28.1643 190.999L29.3839 190.999L29.8233 194.625C29.8562 194.893 29.8781 195.096 29.889 195.233C29.9 195.37 29.9054 195.497 29.9054 195.615C29.9054 195.678 29.9054 195.724 29.9054 195.754C29.9027 195.787 29.9 195.816 29.8972 195.841C29.9383 195.605 29.978 195.401 30.0163 195.229C30.0519 195.059 30.0848 194.93 30.1149 194.843L31.3879 190.999L32.1107 190.999L33.3632 194.843C33.3741 194.878 33.3988 194.977 33.4371 195.138C33.4727 195.3 33.5233 195.535 33.589 195.845L33.589 195.668C33.589 195.389 33.6137 195.047 33.663 194.642L33.6671 194.625L34.1024 190.999L35.322 190.999Z" fill="black"/>
<path d="M42.5701 163.901C43.709 163.901 44.4153 163.188 44.6891 161.76L41.9514 161.76L41.9514 161.032L44.7658 161.032L44.7767 160.725L44.7767 160.386L44.7658 160.145L42.2909 160.145L42.2909 159.417L44.6782 159.417C44.5504 158.782 44.3058 158.289 43.9444 157.938C43.5794 157.592 43.0903 157.418 42.477 157.418C41.9222 157.418 41.3655 157.539 40.807 157.78L40.807 156.904C41.34 156.666 41.9167 156.548 42.5373 156.548C43.3987 156.548 44.0959 156.79 44.6289 157.276C45.1582 157.765 45.5068 158.479 45.6747 159.417L46.5726 159.417L46.5726 160.145L45.7623 160.145L45.7732 160.375L45.7732 160.605L45.7623 161.032L46.5726 161.032L46.5726 161.76L45.6856 161.76C45.5396 162.724 45.1965 163.465 44.6562 163.983C44.116 164.505 43.4206 164.766 42.5701 164.766C41.8218 164.766 41.152 164.593 40.5606 164.246L40.9768 163.441C41.5681 163.748 42.0992 163.901 42.5701 163.901ZM40.0678 156.657L38.1022 160.479C37.8612 160.946 37.6769 161.379 37.5491 161.777C37.4177 162.175 37.352 162.501 37.352 162.757C37.352 163.009 37.4031 163.202 37.5053 163.337C37.6039 163.472 37.7463 163.54 37.9324 163.54C38.2025 163.54 38.3887 163.43 38.4909 163.211C38.5895 162.996 38.6388 162.569 38.6388 161.93L39.9419 161.93C39.9456 161.967 39.9492 162.007 39.9529 162.051C39.9529 162.098 39.9529 162.166 39.9529 162.253C39.9529 163.071 39.774 163.691 39.4163 164.115C39.0585 164.542 38.5347 164.755 37.8448 164.755C37.2535 164.755 36.7844 164.577 36.4376 164.219C36.0909 163.865 35.9175 163.385 35.9175 162.779C35.9175 162.366 36.0069 161.91 36.1858 161.41C36.3646 160.913 36.7114 160.2 37.2261 159.269L37.9105 158.037L36.1201 158.037L36.1201 156.657L40.0678 156.657ZM35.322 156.657L34.4062 162.669L33.0593 162.669L31.9012 159.129C31.8766 159.055 31.8506 158.947 31.8232 158.805C31.7931 158.663 31.7657 158.5 31.7411 158.316C31.7192 158.502 31.6945 158.668 31.6672 158.813C31.6398 158.961 31.6138 159.069 31.5891 159.138L30.4106 162.669L29.0841 162.669L28.1643 156.657L29.3839 156.657L29.8233 160.283C29.8562 160.552 29.8781 160.754 29.889 160.891C29.9 161.028 29.9054 161.155 29.9054 161.273C29.9054 161.336 29.9054 161.383 29.9054 161.413C29.9027 161.445 29.9 161.474 29.8972 161.499C29.9383 161.263 29.978 161.059 30.0163 160.887C30.0519 160.717 30.0848 160.589 30.1149 160.501L31.3879 156.657L32.1107 156.657L33.3632 160.501C33.3741 160.537 33.3988 160.635 33.4371 160.797C33.4727 160.958 33.5233 161.194 33.589 161.503L33.589 161.326C33.589 161.047 33.6137 160.705 33.663 160.3L33.6671 160.283L34.1024 156.657L35.322 156.657Z" fill="black"/>
<path d="M42.5701 129.559C43.709 129.559 44.4153 128.846 44.6891 127.419L41.9514 127.419L41.9514 126.69L44.7658 126.69L44.7767 126.384L44.7767 126.044L44.7658 125.803L42.2909 125.803L42.2909 125.075L44.6782 125.075C44.5504 124.44 44.3058 123.947 43.9444 123.597C43.5794 123.25 43.0903 123.077 42.477 123.077C41.9222 123.077 41.3655 123.197 40.807 123.438L40.807 122.562C41.34 122.325 41.9167 122.206 42.5373 122.206C43.3987 122.206 44.0959 122.449 44.6289 122.934C45.1582 123.423 45.5068 124.137 45.6747 125.075L46.5726 125.075L46.5726 125.803L45.7623 125.803L45.7732 126.033L45.7732 126.263L45.7623 126.69L46.5726 126.69L46.5726 127.419L45.6856 127.419C45.5396 128.382 45.1965 129.123 44.6562 129.642C44.116 130.164 43.4206 130.425 42.5701 130.425C41.8218 130.425 41.152 130.251 40.5606 129.904L40.9768 129.099C41.5681 129.406 42.0992 129.559 42.5701 129.559ZM40.1445 124.604L38.8085 124.604L38.8085 124.511C38.8085 124.201 38.7556 123.964 38.6497 123.799C38.5402 123.639 38.3832 123.558 38.1788 123.558C37.9525 123.558 37.7791 123.659 37.6587 123.859C37.5345 124.06 37.4725 124.345 37.4725 124.714C37.4725 125.137 37.551 125.438 37.7079 125.617C37.8649 125.8 38.1241 125.891 38.4854 125.891C38.5073 125.891 38.5384 125.889 38.5785 125.885C38.6187 125.882 38.6515 125.88 38.6771 125.88L38.6771 127.194L38.5731 127.194C38.1423 127.194 37.8339 127.273 37.6477 127.429C37.4579 127.586 37.363 127.844 37.363 128.202C37.363 128.475 37.4177 128.689 37.5272 128.842C37.6368 128.999 37.7882 129.078 37.9817 129.078C38.1825 129.078 38.3358 129.001 38.4416 128.848C38.5438 128.694 38.595 128.468 38.595 128.169L38.595 128.081L39.8872 128.081L39.8872 128.267C39.8872 128.964 39.7174 129.496 39.3779 129.861C39.0385 130.229 38.5457 130.414 37.8996 130.414C37.3009 130.414 36.841 130.226 36.5198 129.85C36.1985 129.474 36.0379 128.935 36.0379 128.234C36.0379 127.753 36.1401 127.367 36.3446 127.079C36.549 126.794 36.8428 126.626 37.2261 126.575L37.2261 126.477C36.7443 126.382 36.3847 126.179 36.1474 125.869C35.9102 125.559 35.7915 125.137 35.7915 124.604C35.7915 123.859 35.9996 123.274 36.4157 122.847C36.8282 122.419 37.394 122.206 38.1131 122.206C38.7629 122.206 39.2666 122.396 39.6243 122.775C39.9784 123.155 40.1554 123.693 40.1554 124.391C40.1554 124.413 40.1536 124.445 40.15 124.489C40.1463 124.537 40.1445 124.575 40.1445 124.604ZM35.322 122.315L34.4062 128.327L33.0593 128.327L31.9012 124.788C31.8766 124.714 31.8506 124.606 31.8232 124.463C31.7931 124.321 31.7657 124.158 31.7411 123.974C31.7192 124.161 31.6945 124.326 31.6672 124.471C31.6398 124.619 31.6138 124.727 31.5891 124.796L30.4106 128.327L29.0841 128.327L28.1643 122.315L29.3839 122.315L29.8233 125.942C29.8562 126.21 29.8781 126.412 29.889 126.549C29.9 126.686 29.9054 126.813 29.9054 126.931C29.9054 126.994 29.9054 127.041 29.9054 127.071C29.9027 127.104 29.9 127.132 29.8972 127.157C29.9383 126.922 29.978 126.718 30.0163 126.545C30.0519 126.375 30.0848 126.247 30.1149 126.159L31.3879 122.315L32.1107 122.315L33.3632 126.159C33.3741 126.195 33.3988 126.293 33.4371 126.455C33.4727 126.616 33.5233 126.852 33.589 127.161L33.589 126.985C33.589 126.705 33.6137 126.363 33.663 125.958L33.6671 125.942L34.1024 122.315L35.322 122.315Z" fill="black"/>
<path d="M93.921 138.182L84.413 127.351C83.631 126.46 83.7192 125.104 84.61 124.322L91.9842 117.848C92.8751 117.066 94.2313 117.154 95.0134 118.045L104.521 128.876L93.921 138.182Z" fill="white" stroke="black" stroke-width="0.613278"/>
<path d="M106.954 134.901L99.58 141.374C98.6891 142.156 97.3328 142.068 96.5508 141.177L93.5163 137.72L104.117 128.415L107.151 131.871C107.933 132.762 107.845 134.119 106.954 134.901Z" fill="#61AF25" stroke="black" stroke-width="0.613278"/>
<path d="M81.3713 195.56L81.3713 181.147C81.3714 179.962 82.3324 179.001 83.5178 179.001L93.3303 179.001C94.5158 179.001 95.4768 179.962 95.4768 181.147L95.4768 195.56L81.3713 195.56Z" fill="white" stroke="black" stroke-width="0.613278"/>
<path d="M93.3303 201.692L83.5178 201.692C82.3324 201.692 81.3713 200.731 81.3713 199.546L81.3713 194.946L95.4768 194.946L95.4768 199.546C95.4768 200.731 94.5158 201.692 93.3303 201.692Z" fill="#61AF25" stroke="black" stroke-width="0.613278"/>
<path d="M89.1792 182.64L89.1792 189.94L90.0117 189.94L90.0117 191.384L87.5023 191.384L87.5023 182.64L89.1792 182.64Z" fill="black"/>
<path d="M86.1544 168.892L80.9993 155.434C80.5753 154.327 81.129 153.085 82.236 152.661L91.3993 149.151C92.5063 148.727 93.7475 149.281 94.1715 150.388L99.3266 163.847L86.1544 168.892Z" fill="white" stroke="black" stroke-width="0.613278"/>
<path d="M99.5158 170.342L90.3524 173.852C89.2454 174.276 88.0042 173.722 87.5802 172.615L85.935 168.32L99.1072 163.275L100.752 167.57C101.176 168.677 100.623 169.918 99.5158 170.342Z" fill="#61AF25" stroke="black" stroke-width="0.613278"/>
<path d="M81.3713 166.735L81.3713 152.323C81.3714 151.138 82.3324 150.177 83.5178 150.177L93.3303 150.177C94.5158 150.177 95.4768 151.138 95.4768 152.323L95.4768 166.735L81.3713 166.735Z" fill="white" stroke="black" stroke-width="0.613278"/>
<path d="M93.3303 172.868L83.5178 172.868C82.3324 172.868 81.3713 171.907 81.3713 170.722L81.3713 166.122L95.4768 166.122L95.4768 170.722C95.4768 171.907 94.5158 172.868 93.3303 172.868Z" fill="#61AF25" stroke="black" stroke-width="0.613278"/>
<path d="M90.8144 153.815L88.6643 157.996C88.4008 158.507 88.1991 158.98 88.0594 159.415C87.9157 159.85 87.8438 160.208 87.8438 160.487C87.8438 160.763 87.8997 160.974 88.0115 161.122C88.1193 161.27 88.275 161.344 88.4786 161.344C88.7741 161.344 88.9777 161.224 89.0895 160.984C89.1973 160.749 89.2512 160.282 89.2512 159.583L90.6766 159.583C90.6806 159.623 90.6846 159.667 90.6886 159.715C90.6886 159.767 90.6886 159.84 90.6886 159.936C90.6886 160.831 90.4929 161.509 90.1017 161.973C89.7104 162.44 89.1374 162.673 88.3828 162.673C87.736 162.673 87.2229 162.478 86.8436 162.086C86.4643 161.699 86.2747 161.174 86.2747 160.511C86.2747 160.06 86.3725 159.561 86.5681 159.014C86.7638 158.471 87.1431 157.69 87.706 156.672L88.4547 155.325L86.4962 155.325L86.4962 153.815L90.8144 153.815Z" fill="black"/>
<path d="M87.3809 137.615L82.2259 124.156C81.8019 123.049 82.3556 121.808 83.4626 121.384L92.6259 117.874C93.7329 117.45 94.9741 118.004 95.3981 119.111L100.553 132.569L87.3809 137.615Z" fill="white" stroke="black" stroke-width="0.613278"/>
<path d="M100.742 139.065L91.579 142.575C90.472 142.999 89.2308 142.445 88.8068 141.338L87.1615 137.043L100.334 131.997L101.979 136.292C102.403 137.4 101.849 138.641 100.742 139.065Z" fill="#61AF25" stroke="black" stroke-width="0.613278"/>
<path d="M87.3809 137.615L82.2259 124.156C81.8019 123.049 82.3556 121.808 83.4626 121.384L92.6259 117.874C93.7329 117.45 94.9741 118.004 95.3981 119.111L100.553 132.569L87.3809 137.615Z" fill="white" stroke="black" stroke-width="0.613278"/>
<path d="M100.742 139.065L91.579 142.575C90.472 142.999 89.2308 142.445 88.8068 141.338L87.1615 137.043L100.334 131.997L101.979 136.292C102.403 137.4 101.849 138.641 100.742 139.065Z" fill="#61AF25" stroke="black" stroke-width="0.613278"/>
<path d="M82.5979 135.458L82.5979 121.046C82.5979 119.86 83.559 118.899 84.7444 118.899L94.5569 118.899C95.7423 118.899 96.7033 119.86 96.7034 121.046L96.7034 135.458L82.5979 135.458Z" fill="white" stroke="black" stroke-width="0.613278"/>
<path d="M94.557 141.591L84.7445 141.591C83.5591 141.591 82.598 140.63 82.598 139.444L82.598 134.845L96.7035 134.845L96.7035 139.444C96.7035 140.63 95.7425 141.591 94.557 141.591Z" fill="#61AF25" stroke="black" stroke-width="0.613278"/>
<path d="M92.1248 125.042L90.6634 125.042L90.6634 124.94C90.6634 124.6 90.6055 124.341 90.4898 124.161C90.37 123.985 90.1983 123.898 89.9747 123.898C89.7271 123.898 89.5375 124.007 89.4057 124.227C89.27 124.447 89.2021 124.758 89.2021 125.161C89.2021 125.624 89.2879 125.954 89.4596 126.149C89.6313 126.349 89.9148 126.449 90.3101 126.449C90.334 126.449 90.368 126.447 90.4119 126.443C90.4558 126.439 90.4917 126.437 90.5197 126.437L90.5197 127.874L90.4059 127.874C89.9348 127.874 89.5974 127.96 89.3938 128.132C89.1861 128.304 89.0823 128.585 89.0823 128.976C89.0823 129.276 89.1422 129.509 89.262 129.677C89.3818 129.849 89.5475 129.935 89.7591 129.935C89.9787 129.935 90.1464 129.851 90.2622 129.683C90.374 129.515 90.4299 129.268 90.4299 128.94L90.4299 128.845L91.8433 128.845L91.8433 129.048C91.8433 129.811 91.6576 130.392 91.2863 130.791C90.915 131.194 90.376 131.396 89.6693 131.396C89.0144 131.396 88.5114 131.19 88.16 130.779C87.8087 130.368 87.633 129.779 87.633 129.012C87.633 128.485 87.7448 128.064 87.9684 127.749C88.192 127.437 88.5134 127.253 88.9326 127.198L88.9326 127.09C88.4056 126.986 88.0123 126.764 87.7528 126.425C87.4932 126.086 87.3635 125.624 87.3635 125.042C87.3635 124.227 87.5911 123.586 88.0462 123.119C88.4974 122.652 89.1163 122.418 89.9028 122.418C90.6135 122.418 91.1645 122.626 91.5558 123.041C91.9431 123.456 92.1367 124.045 92.1367 124.808C92.1367 124.832 92.1347 124.868 92.1307 124.916C92.1268 124.968 92.1248 125.01 92.1248 125.042Z" fill="black"/>
<path d="M68.3359 212.999L68.3359 224.437L65.6484 224.437C64.8828 224.437 64.3229 224.392 63.9688 224.304C63.6094 224.22 63.2943 224.075 63.0234 223.866C62.6849 223.601 62.4219 223.244 62.2344 222.796C62.0469 222.353 61.9531 221.861 61.9531 221.319C61.9531 220.382 62.2161 219.668 62.7422 219.179C63.263 218.694 64.0286 218.452 65.0391 218.452L65.2813 218.452L60.9141 212.999L62.6406 212.999L66.8125 218.452L67.0078 218.452L67.0078 212.999L68.3359 212.999ZM67.0078 223.288L67.0078 219.46L65.9688 219.46C64.9063 219.46 64.1953 219.595 63.8359 219.866C63.4766 220.142 63.2969 220.621 63.2969 221.304C63.2969 222.038 63.4818 222.551 63.8516 222.843C64.2214 223.14 64.9271 223.288 65.9688 223.288L67.0078 223.288ZM59.7734 212.999L59.7734 224.437L53.7422 224.437L53.7422 223.194L58.4141 223.194L58.4141 219.913L53.7422 219.913L53.7422 218.647L58.4141 218.647L58.4141 214.265L53.7422 214.265L53.7422 212.999L59.7734 212.999ZM51.4297 212.999L51.4297 224.89L43.0625 215.749L43.0625 224.437L41.7656 224.437L41.7656 212.554L50.1328 221.593L50.1328 212.999L51.4297 212.999ZM37.0234 212.999L37.0234 223.14L40.2578 223.14L40.2578 224.437L32.4297 224.437L32.4297 223.14L35.6484 223.14L35.6484 212.999L37.0234 212.999Z" fill="black"/>
<path d="M77.0938 128.062C77.2031 128.018 77.3138 127.986 77.4258 127.965C77.5352 127.941 77.6458 127.93 77.7578 127.93C78.4844 127.93 79.0755 128.194 79.5313 128.723C79.9844 129.251 80.2109 129.944 80.2109 130.801C80.2109 131.691 79.9896 132.41 79.5469 132.957C79.1016 133.504 78.5208 133.777 77.8047 133.777C77.6719 133.777 77.5469 133.766 77.4297 133.742C77.3125 133.721 77.2005 133.687 77.0938 133.641L77.0938 132.574C77.2031 132.618 77.3099 132.651 77.4141 132.672C77.5156 132.693 77.6159 132.703 77.7148 132.703C78.0951 132.703 78.4036 132.535 78.6406 132.199C78.8776 131.863 78.9961 131.418 78.9961 130.863C78.9961 130.329 78.875 129.897 78.6328 129.566C78.388 129.236 78.0742 129.07 77.6914 129.07C77.5951 129.07 77.4974 129.082 77.3984 129.105C77.2969 129.129 77.1953 129.163 77.0938 129.207L77.0938 128.062ZM74.5781 129.016C74.2865 129.016 74.069 129.168 73.9258 129.473C73.7799 129.777 73.707 130.236 73.707 130.848C73.707 131.465 73.7799 131.926 73.9258 132.23C74.069 132.535 74.2865 132.687 74.5781 132.687C74.8698 132.687 75.0872 132.535 75.2305 132.23C75.3737 131.928 75.4453 131.467 75.4453 130.848C75.4453 130.23 75.3737 129.771 75.2305 129.469C75.0872 129.167 74.8698 129.016 74.5781 129.016ZM72.5703 130.77C72.5703 129.9 72.7526 129.208 73.1172 128.695C73.4818 128.185 73.9688 127.93 74.5781 127.93C75.2083 127.93 75.6992 128.186 76.0508 128.699C76.4023 129.215 76.5781 129.931 76.5781 130.848C76.5781 131.762 76.401 132.478 76.0469 132.996C75.6901 133.517 75.2005 133.777 74.5781 133.777C73.9531 133.777 73.4622 133.512 73.1055 132.98C72.7487 132.449 72.5703 131.712 72.5703 130.77ZM72.1445 128L71.5859 133.703L70.1211 133.703L69.8242 131.527C69.7799 131.197 69.7435 130.879 69.7148 130.574C69.6836 130.272 69.6589 129.978 69.6406 129.691C69.5938 130.194 69.5547 130.59 69.5234 130.879C69.4896 131.171 69.4622 131.387 69.4414 131.527L69.0742 133.703L67.625 133.703L67.1445 128L68.2969 128L68.418 130.648C68.4206 130.711 68.4245 130.805 68.4297 130.93C68.4635 131.622 68.4805 132.19 68.4805 132.633L69.2227 128L70.0469 128L70.7461 132.664C70.7461 132.276 70.7695 131.721 70.8164 131C70.8268 130.836 70.8346 130.714 70.8398 130.633L71.0156 128L72.1445 128ZM65.4258 131.23C65.4128 131.23 65.3932 131.229 65.3672 131.227C65.3385 131.224 65.3177 131.223 65.3047 131.223C65.0625 131.223 64.8789 131.292 64.7539 131.43C64.6263 131.57 64.5625 131.771 64.5625 132.031C64.5625 132.302 64.6224 132.501 64.7422 132.629C64.862 132.759 65.0495 132.824 65.3047 132.824C65.3177 132.824 65.3385 132.823 65.3672 132.82C65.3932 132.818 65.4128 132.816 65.4258 132.816L65.4258 131.23ZM66.5273 128L66.5273 133.703L65.3438 133.703C64.7161 133.703 64.25 133.566 63.9453 133.293C63.6406 133.022 63.4883 132.607 63.4883 132.047C63.4883 131.513 63.6354 131.098 63.9297 130.801C64.224 130.507 64.6367 130.359 65.168 130.359C65.2357 130.359 65.2878 130.359 65.3242 130.359C65.3581 130.362 65.3906 130.365 65.4219 130.367L65.4258 128L66.5273 128ZM62.8867 128L62.8867 133.703L61.7617 133.703L61.7617 129.113L60.4648 129.113L60.4648 128L62.8867 128ZM60.0117 128L60.0117 133.703L57.6133 133.703L57.6133 132.648L58.9102 132.648L58.9102 131.496L57.7344 131.496L57.7344 130.449L58.9102 130.449L58.9102 129.113L57.6133 129.113L57.6133 128L60.0117 128ZM56.3047 128L56.3047 132.648L57.1758 132.648L57.1758 133.703L54.2891 133.703L54.2891 132.648L55.1602 132.648L55.1602 128L56.3047 128ZM53.7227 128L53.7227 133.703L51.3242 133.703L51.3242 132.648L52.6211 132.648L52.6211 131.496L51.4453 131.496L51.4453 130.449L52.6211 130.449L52.6211 129.113L51.3242 129.113L51.3242 128L53.7227 128ZM60.0859 118.199L60.0859 119.383C59.9427 119.258 59.8021 119.164 59.6641 119.102C59.526 119.039 59.3867 119.008 59.2461 119.008C59.0534 119.008 58.9023 119.059 58.793 119.16C58.681 119.262 58.625 119.4 58.625 119.574C58.625 119.79 58.7747 120.025 59.0742 120.277C59.1576 120.348 59.2201 120.402 59.2617 120.441C59.6107 120.754 59.8503 121.034 59.9805 121.281C60.1107 121.531 60.1758 121.814 60.1758 122.129C60.1758 122.621 60.0378 123.018 59.7617 123.32C59.4831 123.625 59.1198 123.777 58.6719 123.777C58.513 123.777 58.3568 123.754 58.2031 123.707C58.0469 123.663 57.8828 123.592 57.7109 123.496L57.7109 122.488C57.9115 122.585 58.0677 122.651 58.1797 122.687C58.2891 122.724 58.3867 122.742 58.4727 122.742C58.6367 122.742 58.7708 122.69 58.875 122.586C58.9792 122.484 59.0313 122.35 59.0313 122.184C59.0313 122.038 58.9922 121.901 58.9141 121.773C58.8359 121.648 58.6536 121.462 58.3672 121.215C57.9844 120.887 57.7383 120.613 57.6289 120.395C57.5195 120.178 57.4648 119.917 57.4648 119.609C57.4648 119.091 57.612 118.681 57.9063 118.379C58.1979 118.079 58.5964 117.93 59.1016 117.93C59.2943 117.93 59.4727 117.952 59.6367 117.996C59.7982 118.04 59.9479 118.108 60.0859 118.199ZM56.8398 118L56.8398 123.703L54.4414 123.703L54.4414 122.648L55.7383 122.648L55.7383 121.496L54.5625 121.496L54.5625 120.449L55.7383 120.449L55.7383 119.113L54.4414 119.113L54.4414 118L56.8398 118ZM53.1328 118L53.1328 122.648L54.0039 122.648L54.0039 123.703L51.1172 123.703L51.1172 122.648L51.9883 122.648L51.9883 118L53.1328 118Z" fill="black"/>
<defs>
<clipPath id="clip0_120_1699">
<rect width="24" height="24" fill="white" transform="translate(160 39.999)"/>
</clipPath>
</defs>
</svg>
