<svg width="211" height="328" viewBox="0 0 211 328" fill="none" xmlns="http://www.w3.org/2000/svg">
<rect width="211" height="328" rx="16" fill="white"/>
<rect x="11.5" y="11.5" width="187" height="306" stroke="black"/>
<path d="M50.0369 233.06L65.5404 250.721C66.8156 252.173 66.6718 254.385 65.2191 255.66L53.195 266.216C51.7423 267.491 49.5309 267.347 48.2557 265.894L32.7522 248.234L50.0369 233.06Z" fill="white" stroke="black"/>
<path d="M28.7853 238.41L40.8094 227.854C42.2621 226.579 44.4735 226.723 45.7487 228.175L50.6967 233.812L33.4119 248.985L28.464 243.349C27.1888 241.896 27.3326 239.685 28.7853 238.41Z" fill="#0081C8" stroke="black"/>
<path d="M159.211 145.664C157.586 145.664 156.578 146.682 156.188 148.719H160.094V149.758H156.078L156.062 150.195V150.68L156.078 151.023H159.609V152.062H156.203C156.385 152.969 156.734 153.672 157.25 154.172C157.771 154.667 158.469 154.914 159.344 154.914C160.135 154.914 160.93 154.742 161.727 154.398V155.648C160.966 155.987 160.143 156.156 159.258 156.156C158.029 156.156 157.034 155.81 156.273 155.117C155.518 154.419 155.021 153.401 154.781 152.062H153.5V151.023H154.656L154.641 150.695V150.367L154.656 149.758H153.5V148.719H154.766C154.974 147.344 155.464 146.286 156.234 145.547C157.005 144.802 157.997 144.43 159.211 144.43C160.279 144.43 161.234 144.677 162.078 145.172L161.484 146.32C160.641 145.883 159.883 145.664 159.211 145.664ZM164.914 156V146.477H163.828V144.594H167.102V156H164.914ZM169.553 156L170.859 147.422H172.781L174.434 152.473C174.469 152.578 174.506 152.732 174.545 152.936C174.588 153.139 174.627 153.371 174.662 153.633C174.693 153.367 174.729 153.131 174.768 152.924C174.807 152.713 174.844 152.559 174.879 152.461L176.561 147.422H178.453L179.766 156H178.025L177.398 150.826C177.352 150.443 177.32 150.154 177.305 149.959C177.289 149.764 177.281 149.582 177.281 149.414C177.281 149.324 177.281 149.258 177.281 149.215C177.285 149.168 177.289 149.127 177.293 149.092C177.234 149.428 177.178 149.719 177.123 149.965C177.072 150.207 177.025 150.391 176.982 150.516L175.166 156H174.135L172.348 150.516C172.332 150.465 172.297 150.324 172.242 150.094C172.191 149.863 172.119 149.527 172.025 149.086V149.338C172.025 149.736 171.99 150.225 171.92 150.803L171.914 150.826L171.293 156H169.553Z" fill="black"/>
<path d="M159.211 194.664C157.586 194.664 156.578 195.682 156.188 197.719H160.094V198.758H156.078L156.062 199.195V199.68L156.078 200.023H159.609V201.062H156.203C156.385 201.969 156.734 202.672 157.25 203.172C157.771 203.667 158.469 203.914 159.344 203.914C160.135 203.914 160.93 203.742 161.727 203.398V204.648C160.966 204.987 160.143 205.156 159.258 205.156C158.029 205.156 157.034 204.81 156.273 204.117C155.518 203.419 155.021 202.401 154.781 201.062H153.5V200.023H154.656L154.641 199.695V199.367L154.656 198.758H153.5V197.719H154.766C154.974 196.344 155.464 195.286 156.234 194.547C157.005 193.802 157.997 193.43 159.211 193.43C160.279 193.43 161.234 193.677 162.078 194.172L161.484 195.32C160.641 194.883 159.883 194.664 159.211 194.664ZM162.781 205L165.586 199.547C165.93 198.88 166.193 198.263 166.375 197.695C166.562 197.128 166.656 196.661 166.656 196.297C166.656 195.938 166.583 195.661 166.438 195.469C166.297 195.276 166.094 195.18 165.828 195.18C165.443 195.18 165.177 195.336 165.031 195.648C164.891 195.956 164.82 196.565 164.82 197.477H162.961C162.956 197.424 162.951 197.367 162.945 197.305C162.945 197.237 162.945 197.141 162.945 197.016C162.945 195.849 163.201 194.964 163.711 194.359C164.221 193.75 164.969 193.445 165.953 193.445C166.797 193.445 167.466 193.701 167.961 194.211C168.456 194.716 168.703 195.401 168.703 196.266C168.703 196.854 168.576 197.505 168.32 198.219C168.065 198.927 167.57 199.945 166.836 201.273L165.859 203.031H168.414V205H162.781ZM169.553 205L170.859 196.422H172.781L174.434 201.473C174.469 201.578 174.506 201.732 174.545 201.936C174.588 202.139 174.627 202.371 174.662 202.633C174.693 202.367 174.729 202.131 174.768 201.924C174.807 201.713 174.844 201.559 174.879 201.461L176.561 196.422H178.453L179.766 205H178.025L177.398 199.826C177.352 199.443 177.32 199.154 177.305 198.959C177.289 198.764 177.281 198.582 177.281 198.414C177.281 198.324 177.281 198.258 177.281 198.215C177.285 198.168 177.289 198.127 177.293 198.092C177.234 198.428 177.178 198.719 177.123 198.965C177.072 199.207 177.025 199.391 176.982 199.516L175.166 205H174.135L172.348 199.516C172.332 199.465 172.297 199.324 172.242 199.094C172.191 198.863 172.119 198.527 172.025 198.086V198.338C172.025 198.736 171.99 199.225 171.92 199.803L171.914 199.826L171.293 205H169.553Z" fill="black"/>
<path d="M159.211 243.664C157.586 243.664 156.578 244.682 156.188 246.719H160.094V247.758H156.078L156.062 248.195V248.68L156.078 249.023H159.609V250.062H156.203C156.385 250.969 156.734 251.672 157.25 252.172C157.771 252.667 158.469 252.914 159.344 252.914C160.135 252.914 160.93 252.742 161.727 252.398V253.648C160.966 253.987 160.143 254.156 159.258 254.156C158.029 254.156 157.034 253.81 156.273 253.117C155.518 252.419 155.021 251.401 154.781 250.062H153.5V249.023H154.656L154.641 248.695V248.367L154.656 247.758H153.5V246.719H154.766C154.974 245.344 155.464 244.286 156.234 243.547C157.005 242.802 157.997 242.43 159.211 242.43C160.279 242.43 161.234 242.677 162.078 243.172L161.484 244.32C160.641 243.883 159.883 243.664 159.211 243.664ZM162.672 250.734H164.578V250.867C164.578 251.31 164.654 251.648 164.805 251.883C164.961 252.112 165.185 252.227 165.477 252.227C165.799 252.227 166.047 252.083 166.219 251.797C166.396 251.51 166.484 251.104 166.484 250.578C166.484 249.974 166.372 249.544 166.148 249.289C165.924 249.029 165.555 248.898 165.039 248.898C165.008 248.898 164.964 248.901 164.906 248.906C164.849 248.911 164.802 248.914 164.766 248.914V247.039H164.914C165.529 247.039 165.969 246.927 166.234 246.703C166.505 246.479 166.641 246.112 166.641 245.602C166.641 245.211 166.562 244.906 166.406 244.688C166.25 244.464 166.034 244.352 165.758 244.352C165.471 244.352 165.253 244.461 165.102 244.68C164.956 244.898 164.883 245.221 164.883 245.648V245.773H163.039V245.508C163.039 244.513 163.281 243.755 163.766 243.234C164.25 242.708 164.953 242.445 165.875 242.445C166.729 242.445 167.385 242.714 167.844 243.25C168.302 243.786 168.531 244.555 168.531 245.555C168.531 246.242 168.385 246.792 168.094 247.203C167.802 247.609 167.383 247.849 166.836 247.922V248.062C167.523 248.198 168.036 248.487 168.375 248.93C168.714 249.372 168.883 249.974 168.883 250.734C168.883 251.797 168.586 252.633 167.992 253.242C167.404 253.852 166.596 254.156 165.57 254.156C164.643 254.156 163.924 253.885 163.414 253.344C162.909 252.802 162.656 252.034 162.656 251.039C162.656 251.008 162.659 250.961 162.664 250.898C162.669 250.831 162.672 250.776 162.672 250.734ZM169.553 254L170.859 245.422H172.781L174.434 250.473C174.469 250.578 174.506 250.732 174.545 250.936C174.588 251.139 174.627 251.371 174.662 251.633C174.693 251.367 174.729 251.131 174.768 250.924C174.807 250.713 174.844 250.559 174.879 250.461L176.561 245.422H178.453L179.766 254H178.025L177.398 248.826C177.352 248.443 177.32 248.154 177.305 247.959C177.289 247.764 177.281 247.582 177.281 247.414C177.281 247.324 177.281 247.258 177.281 247.215C177.285 247.168 177.289 247.127 177.293 247.092C177.234 247.428 177.178 247.719 177.123 247.965C177.072 248.207 177.025 248.391 176.982 248.516L175.166 254H174.135L172.348 248.516C172.332 248.465 172.297 248.324 172.242 248.094C172.191 247.863 172.119 247.527 172.025 247.086V247.338C172.025 247.736 171.99 248.225 171.92 248.803L171.914 248.826L171.293 254H169.553Z" fill="black"/>
<path d="M29.4902 113.919L28.9678 114.192C28.5837 113.473 28.2939 112.711 28.0986 111.907C27.9066 111.1 27.8105 110.25 27.8105 109.358C27.8105 108.411 27.9049 107.539 28.0938 106.741C28.2858 105.944 28.5771 105.2 28.9678 104.51L29.4902 104.749C29.1387 105.442 28.8783 106.165 28.709 106.917C28.543 107.666 28.46 108.479 28.46 109.358C28.46 110.267 28.5446 111.093 28.7139 111.839C28.8831 112.584 29.1419 113.278 29.4902 113.919ZM30.7402 112V104.568L35.9697 110.281V104.852H36.7803V112.278L31.5508 106.629V112H30.7402ZM38.8652 109.778C38.8652 110.25 39.0231 110.651 39.3389 110.979C39.6546 111.305 40.0371 111.468 40.4863 111.468C40.9323 111.468 41.3115 111.305 41.624 110.979C41.9365 110.651 42.0928 110.25 42.0928 109.778C42.0928 109.306 41.9365 108.908 41.624 108.582C41.3115 108.253 40.9323 108.089 40.4863 108.089C40.0339 108.089 39.6497 108.253 39.334 108.582C39.0215 108.908 38.8652 109.306 38.8652 109.778ZM38.0547 109.778C38.0547 109.45 38.1149 109.14 38.2354 108.851C38.3558 108.558 38.5316 108.297 38.7627 108.069C38.9938 107.841 39.2559 107.669 39.5488 107.552C39.8418 107.431 40.1543 107.371 40.4863 107.371C40.8118 107.371 41.1195 107.431 41.4092 107.552C41.7021 107.672 41.9674 107.848 42.2051 108.079C42.4362 108.304 42.612 108.562 42.7324 108.855C42.8529 109.145 42.9131 109.453 42.9131 109.778C42.9131 110.104 42.8529 110.411 42.7324 110.701C42.612 110.988 42.4362 111.243 42.2051 111.468C41.9674 111.702 41.7005 111.881 41.4043 112.005C41.1113 112.129 40.8053 112.19 40.4863 112.19C40.1576 112.19 39.8451 112.129 39.5488 112.005C39.2559 111.884 38.9938 111.71 38.7627 111.482C38.5316 111.248 38.3558 110.988 38.2354 110.701C38.1149 110.415 38.0547 110.107 38.0547 109.778ZM50.3301 112V109.368C50.3301 108.916 50.2389 108.58 50.0566 108.362C49.8743 108.141 49.5944 108.03 49.2168 108.03C49.0117 108.03 48.8213 108.073 48.6455 108.157C48.473 108.239 48.3265 108.356 48.2061 108.509C48.1182 108.626 48.0547 108.763 48.0156 108.919C47.9766 109.075 47.957 109.332 47.957 109.69V112H47.2197V109.368C47.2197 108.916 47.1286 108.58 46.9463 108.362C46.764 108.141 46.484 108.03 46.1064 108.03C45.9014 108.03 45.7093 108.073 45.5303 108.157C45.3545 108.239 45.2064 108.356 45.0859 108.509C45.0013 108.623 44.9395 108.755 44.9004 108.904C44.8646 109.054 44.8467 109.316 44.8467 109.69V112H44.1094V107.532H44.8564V108.221C45.042 107.934 45.2633 107.721 45.5205 107.581C45.7777 107.441 46.0739 107.371 46.4092 107.371C46.7705 107.371 47.0781 107.449 47.332 107.605C47.5859 107.758 47.778 107.983 47.9082 108.279C48.1003 107.973 48.3265 107.745 48.5869 107.596C48.8506 107.446 49.1549 107.371 49.5 107.371C49.998 107.371 50.387 107.511 50.667 107.791C50.9469 108.071 51.0869 108.46 51.0869 108.958V112H50.3301ZM53.3232 109.788C53.3232 110.309 53.4567 110.716 53.7236 111.009C53.9906 111.302 54.3568 111.448 54.8223 111.448C55.278 111.448 55.6344 111.294 55.8916 110.984C56.152 110.672 56.2822 110.241 56.2822 109.69C56.2822 109.202 56.1553 108.82 55.9014 108.543C55.6475 108.266 55.2959 108.128 54.8467 108.128C54.391 108.128 54.0231 108.281 53.7432 108.587C53.4632 108.89 53.3232 109.29 53.3232 109.788ZM52.5957 104.432H53.3525V108.372C53.5251 108.04 53.748 107.791 54.0215 107.625C54.2949 107.456 54.6156 107.371 54.9834 107.371C55.6247 107.371 56.1357 107.589 56.5166 108.025C56.9007 108.462 57.0928 109.046 57.0928 109.778C57.0928 110.504 56.8975 111.089 56.5068 111.531C56.1162 111.971 55.5986 112.19 54.9541 112.19C54.609 112.19 54.2949 112.104 54.0117 111.932C53.7285 111.756 53.499 111.508 53.3232 111.189V112H52.5957V104.432ZM58.3281 112V107.532H59.0068V108.46C59.2119 108.073 59.43 107.796 59.6611 107.63C59.8923 107.464 60.1738 107.381 60.5059 107.381C60.597 107.381 60.6849 107.389 60.7695 107.405C60.8542 107.418 60.9388 107.439 61.0234 107.469L60.7695 108.157C60.6816 108.128 60.5986 108.107 60.5205 108.094C60.4424 108.077 60.3675 108.069 60.2959 108.069C59.8923 108.069 59.5895 108.216 59.3877 108.509C59.1859 108.799 59.085 109.236 59.085 109.822V112H58.3281ZM65.0029 109.261C64.9769 108.867 64.8451 108.564 64.6074 108.353C64.373 108.138 64.0508 108.03 63.6406 108.03C63.2695 108.03 62.9603 108.143 62.7129 108.367C62.4655 108.589 62.3223 108.886 62.2832 109.261H65.0029ZM65.8232 109.881H62.2832V109.949C62.2832 110.428 62.4199 110.815 62.6934 111.111C62.9668 111.404 63.3232 111.551 63.7627 111.551C64.0622 111.551 64.3324 111.471 64.5732 111.312C64.8141 111.149 65.0273 110.905 65.2129 110.579L65.7939 110.97C65.5693 111.373 65.2829 111.678 64.9346 111.883C64.5863 112.088 64.1826 112.19 63.7236 112.19C63.0433 112.19 62.4932 111.966 62.0732 111.517C61.6533 111.067 61.4434 110.478 61.4434 109.749C61.4434 109.049 61.6517 108.476 62.0684 108.03C62.485 107.584 63.0205 107.361 63.6748 107.361C64.3356 107.361 64.8581 107.573 65.2422 107.996C65.6296 108.419 65.8232 108.997 65.8232 109.729V109.881ZM73.3477 109.788C73.3477 109.29 73.2093 108.89 72.9326 108.587C72.6559 108.281 72.2913 108.128 71.8389 108.128C71.3864 108.128 71.0332 108.266 70.7793 108.543C70.5254 108.82 70.3984 109.202 70.3984 109.69C70.3984 110.241 70.527 110.672 70.7842 110.984C71.0413 111.294 71.3962 111.448 71.8486 111.448C72.3174 111.448 72.6836 111.302 72.9473 111.009C73.2142 110.716 73.3477 110.309 73.3477 109.788ZM74.0898 104.432V112H73.3477V111.189C73.1719 111.512 72.944 111.759 72.6641 111.932C72.3841 112.104 72.0716 112.19 71.7266 112.19C71.0853 112.19 70.5677 111.971 70.1738 111.531C69.7832 111.089 69.5879 110.504 69.5879 109.778C69.5879 109.046 69.7799 108.462 70.1641 108.025C70.5482 107.589 71.0592 107.371 71.6973 107.371C72.0684 107.371 72.3906 107.456 72.6641 107.625C72.9375 107.791 73.1589 108.04 73.3281 108.372V104.432H74.0898ZM78.8213 109.261C78.7952 108.867 78.6634 108.564 78.4258 108.353C78.1914 108.138 77.8691 108.03 77.459 108.03C77.0879 108.03 76.7786 108.143 76.5312 108.367C76.2839 108.589 76.1406 108.886 76.1016 109.261H78.8213ZM79.6416 109.881H76.1016V109.949C76.1016 110.428 76.2383 110.815 76.5117 111.111C76.7852 111.404 77.1416 111.551 77.5811 111.551C77.8805 111.551 78.1507 111.471 78.3916 111.312C78.6325 111.149 78.8457 110.905 79.0312 110.579L79.6123 110.97C79.3877 111.373 79.1012 111.678 78.7529 111.883C78.4046 112.088 78.001 112.19 77.542 112.19C76.8617 112.19 76.3115 111.966 75.8916 111.517C75.4717 111.067 75.2617 110.478 75.2617 109.749C75.2617 109.049 75.4701 108.476 75.8867 108.03C76.3034 107.584 76.8389 107.361 77.4932 107.361C78.154 107.361 78.6764 107.573 79.0605 107.996C79.4479 108.419 79.6416 108.997 79.6416 109.729V109.881ZM28.5186 121.778C28.5186 122.28 28.6569 122.682 28.9336 122.984C29.2103 123.287 29.5765 123.438 30.0322 123.438C30.4782 123.438 30.8281 123.3 31.082 123.023C31.3392 122.747 31.4678 122.363 31.4678 121.871C31.4678 121.321 31.3392 120.89 31.082 120.577C30.8281 120.265 30.4733 120.108 30.0176 120.108C29.5521 120.108 29.1859 120.257 28.9189 120.553C28.652 120.849 28.5186 121.257 28.5186 121.778ZM27.7812 126.178V119.532H28.5088V120.372C28.6813 120.05 28.9092 119.802 29.1924 119.63C29.4756 119.457 29.7913 119.371 30.1396 119.371C30.7842 119.371 31.3018 119.591 31.6924 120.03C32.083 120.47 32.2783 121.052 32.2783 121.778C32.2783 122.517 32.0863 123.105 31.7021 123.541C31.3213 123.974 30.8102 124.19 30.1689 124.19C29.8011 124.19 29.4805 124.107 29.207 123.941C28.9336 123.772 28.7106 123.521 28.5381 123.189V126.178H27.7812ZM33.5137 124V119.532H34.1924V120.46C34.3975 120.073 34.6156 119.796 34.8467 119.63C35.0778 119.464 35.3594 119.381 35.6914 119.381C35.7826 119.381 35.8704 119.389 35.9551 119.405C36.0397 119.418 36.1243 119.439 36.209 119.469L35.9551 120.157C35.8672 120.128 35.7842 120.107 35.7061 120.094C35.6279 120.077 35.5531 120.069 35.4814 120.069C35.0778 120.069 34.7751 120.216 34.5732 120.509C34.3714 120.799 34.2705 121.236 34.2705 121.822V124H33.5137ZM37.4688 121.778C37.4688 122.25 37.6266 122.651 37.9424 122.979C38.2581 123.305 38.6406 123.468 39.0898 123.468C39.5358 123.468 39.915 123.305 40.2275 122.979C40.54 122.651 40.6963 122.25 40.6963 121.778C40.6963 121.306 40.54 120.908 40.2275 120.582C39.915 120.253 39.5358 120.089 39.0898 120.089C38.6374 120.089 38.2533 120.253 37.9375 120.582C37.625 120.908 37.4688 121.306 37.4688 121.778ZM36.6582 121.778C36.6582 121.45 36.7184 121.14 36.8389 120.851C36.9593 120.558 37.1351 120.297 37.3662 120.069C37.5973 119.841 37.8594 119.669 38.1523 119.552C38.4453 119.431 38.7578 119.371 39.0898 119.371C39.4154 119.371 39.723 119.431 40.0127 119.552C40.3057 119.672 40.571 119.848 40.8086 120.079C41.0397 120.304 41.2155 120.562 41.3359 120.855C41.4564 121.145 41.5166 121.453 41.5166 121.778C41.5166 122.104 41.4564 122.411 41.3359 122.701C41.2155 122.988 41.0397 123.243 40.8086 123.468C40.571 123.702 40.304 123.881 40.0078 124.005C39.7148 124.129 39.4089 124.19 39.0898 124.19C38.7611 124.19 38.4486 124.129 38.1523 124.005C37.8594 123.884 37.5973 123.71 37.3662 123.482C37.1351 123.248 36.9593 122.988 36.8389 122.701C36.7184 122.415 36.6582 122.107 36.6582 121.778ZM43.4502 121.778C43.4502 122.28 43.5885 122.682 43.8652 122.984C44.1419 123.287 44.5081 123.438 44.9639 123.438C45.4098 123.438 45.7598 123.3 46.0137 123.023C46.2708 122.747 46.3994 122.363 46.3994 121.871C46.3994 121.321 46.2708 120.89 46.0137 120.577C45.7598 120.265 45.4049 120.108 44.9492 120.108C44.4837 120.108 44.1175 120.257 43.8506 120.553C43.5837 120.849 43.4502 121.257 43.4502 121.778ZM42.7129 126.178V119.532H43.4404V120.372C43.613 120.05 43.8408 119.802 44.124 119.63C44.4072 119.457 44.723 119.371 45.0713 119.371C45.7158 119.371 46.2334 119.591 46.624 120.03C47.0146 120.47 47.21 121.052 47.21 121.778C47.21 122.517 47.0179 123.105 46.6338 123.541C46.2529 123.974 45.7419 124.19 45.1006 124.19C44.7327 124.19 44.4121 124.107 44.1387 123.941C43.8652 123.772 43.6423 123.521 43.4697 123.189V126.178H42.7129ZM48.4453 124V119.532H49.124V120.46C49.3291 120.073 49.5472 119.796 49.7783 119.63C50.0094 119.464 50.291 119.381 50.623 119.381C50.7142 119.381 50.8021 119.389 50.8867 119.405C50.9714 119.418 51.056 119.439 51.1406 119.469L50.8867 120.157C50.7988 120.128 50.7158 120.107 50.6377 120.094C50.5596 120.077 50.4847 120.069 50.4131 120.069C50.0094 120.069 49.7067 120.216 49.5049 120.509C49.3031 120.799 49.2021 121.236 49.2021 121.822V124H48.4453ZM51.8096 117.379C51.8096 117.226 51.8633 117.096 51.9707 116.988C52.0814 116.878 52.2148 116.822 52.3711 116.822C52.5241 116.822 52.6543 116.878 52.7617 116.988C52.8724 117.099 52.9277 117.232 52.9277 117.389C52.9277 117.542 52.874 117.672 52.7666 117.779C52.6592 117.887 52.5273 117.94 52.3711 117.94C52.2148 117.94 52.0814 117.887 51.9707 117.779C51.8633 117.672 51.8096 117.538 51.8096 117.379ZM51.9902 124V119.532H52.7617V124H51.9902ZM57.542 121.261C57.516 120.867 57.3841 120.564 57.1465 120.353C56.9121 120.138 56.5898 120.03 56.1797 120.03C55.8086 120.03 55.4993 120.143 55.252 120.367C55.0046 120.589 54.8613 120.886 54.8223 121.261H57.542ZM58.3623 121.881H54.8223V121.949C54.8223 122.428 54.959 122.815 55.2324 123.111C55.5059 123.404 55.8623 123.551 56.3018 123.551C56.6012 123.551 56.8714 123.471 57.1123 123.312C57.3532 123.149 57.5664 122.905 57.752 122.579L58.333 122.97C58.1084 123.373 57.8219 123.678 57.4736 123.883C57.1253 124.088 56.7217 124.19 56.2627 124.19C55.5824 124.19 55.0322 123.966 54.6123 123.517C54.1924 123.067 53.9824 122.478 53.9824 121.749C53.9824 121.049 54.1908 120.476 54.6074 120.03C55.0241 119.584 55.5596 119.361 56.2139 119.361C56.8747 119.361 57.3971 119.573 57.7812 119.996C58.1686 120.419 58.3623 120.997 58.3623 121.729V121.881ZM55.4619 118.829L56.458 117.13H57.4395L56.0479 118.829H55.4619ZM59.6367 120.162H58.8164V119.532H59.6367V117.73H60.418V119.532H61.2383V120.162H60.418V124H59.6367V120.162ZM65.2764 121.261C65.2503 120.867 65.1185 120.564 64.8809 120.353C64.6465 120.138 64.3242 120.03 63.9141 120.03C63.543 120.03 63.2337 120.143 62.9863 120.367C62.7389 120.589 62.5957 120.886 62.5566 121.261H65.2764ZM66.0967 121.881H62.5566V121.949C62.5566 122.428 62.6934 122.815 62.9668 123.111C63.2402 123.404 63.5967 123.551 64.0361 123.551C64.3356 123.551 64.6058 123.471 64.8467 123.312C65.0876 123.149 65.3008 122.905 65.4863 122.579L66.0674 122.97C65.8428 123.373 65.5563 123.678 65.208 123.883C64.8597 124.088 64.4561 124.19 63.9971 124.19C63.3167 124.19 62.7666 123.966 62.3467 123.517C61.9268 123.067 61.7168 122.478 61.7168 121.749C61.7168 121.049 61.9251 120.476 62.3418 120.03C62.7585 119.584 63.2939 119.361 63.9482 119.361C64.609 119.361 65.1315 119.573 65.5156 119.996C65.903 120.419 66.0967 120.997 66.0967 121.729V121.881ZM63.1963 118.829L64.1924 117.13H65.1738L63.7822 118.829H63.1963ZM66.7803 123.248L67.4346 122.809C67.5583 123.046 67.7145 123.225 67.9033 123.346C68.0921 123.463 68.3151 123.521 68.5723 123.521C68.8229 123.521 69.0247 123.46 69.1777 123.336C69.334 123.212 69.4121 123.049 69.4121 122.848C69.4121 122.691 69.3584 122.561 69.251 122.457C69.1468 122.353 68.9661 122.257 68.709 122.169C68.6829 122.159 68.6406 122.145 68.582 122.125C67.4948 121.751 66.9512 121.282 66.9512 120.719C66.9512 120.322 67.0977 119.998 67.3906 119.747C67.6836 119.496 68.0645 119.371 68.5332 119.371C68.9206 119.371 69.2526 119.449 69.5293 119.605C69.806 119.758 70.0046 119.977 70.125 120.26L69.5049 120.641C69.4137 120.436 69.2786 120.278 69.0996 120.167C68.9238 120.056 68.7188 120.001 68.4844 120.001C68.2598 120.001 68.0758 120.064 67.9326 120.191C67.7926 120.315 67.7227 120.475 67.7227 120.67C67.7227 120.943 68.0189 121.173 68.6113 121.358C68.722 121.394 68.8099 121.422 68.875 121.441C69.36 121.598 69.6969 121.777 69.8857 121.979C70.0778 122.177 70.1738 122.441 70.1738 122.77C70.1738 123.193 70.0225 123.536 69.7197 123.8C69.4202 124.06 69.028 124.19 68.543 124.19C68.1263 124.19 67.7715 124.112 67.4785 123.956C67.1888 123.8 66.9561 123.564 66.7803 123.248ZM70.9355 125.919C71.2839 125.278 71.5426 124.584 71.7119 123.839C71.8812 123.093 71.9658 122.267 71.9658 121.358C71.9658 120.479 71.8812 119.666 71.7119 118.917C71.5459 118.165 71.2871 117.442 70.9355 116.749L71.4531 116.51C71.847 117.2 72.1383 117.944 72.3271 118.741C72.5192 119.539 72.6152 120.411 72.6152 121.358C72.6152 122.25 72.5176 123.1 72.3223 123.907C72.1302 124.711 71.8405 125.473 71.4531 126.192L70.9355 125.919Z" fill="black"/>
<path d="M78.9922 252.535L78.5742 252.754C78.2669 252.178 78.0352 251.569 77.8789 250.926C77.7253 250.28 77.6484 249.6 77.6484 248.887C77.6484 248.129 77.724 247.431 77.875 246.793C78.0286 246.155 78.2617 245.56 78.5742 245.008L78.9922 245.199C78.7109 245.754 78.5026 246.332 78.3672 246.934C78.2344 247.533 78.168 248.184 78.168 248.887C78.168 249.613 78.2357 250.275 78.3711 250.871C78.5065 251.467 78.7135 252.022 78.9922 252.535ZM83.1367 248.047H85.4961V248.238C85.4961 249.139 85.2409 249.85 84.7305 250.371C84.2201 250.892 83.5234 251.152 82.6406 251.152C82.3724 251.152 82.1159 251.124 81.8711 251.066C81.6289 251.009 81.4049 250.926 81.1992 250.816C80.7305 250.559 80.3685 250.203 80.1133 249.75C79.8581 249.294 79.7305 248.777 79.7305 248.199C79.7305 247.723 79.806 247.293 79.957 246.91C80.1107 246.525 80.3411 246.186 80.6484 245.895C80.9062 245.65 81.2057 245.465 81.5469 245.34C81.888 245.215 82.2656 245.152 82.6797 245.152C83.2292 245.152 83.7057 245.253 84.1094 245.453C84.513 245.651 84.8477 245.951 85.1133 246.352L84.543 246.809C84.3372 246.462 84.0807 246.203 83.7734 246.031C83.4661 245.857 83.1094 245.77 82.7031 245.77C82.0391 245.77 81.5 245.993 81.0859 246.441C80.6719 246.889 80.4648 247.475 80.4648 248.199C80.4648 248.882 80.6745 249.441 81.0938 249.879C81.5156 250.316 82.0521 250.535 82.7031 250.535C83.276 250.535 83.7526 250.362 84.1328 250.016C84.5156 249.667 84.7279 249.214 84.7695 248.656H83.1367V248.047ZM86.5078 251V245.281H87.8516C88.2344 245.281 88.5143 245.303 88.6914 245.348C88.8711 245.389 89.0286 245.462 89.1641 245.566C89.3333 245.699 89.4648 245.878 89.5586 246.102C89.6523 246.323 89.6992 246.569 89.6992 246.84C89.6992 247.309 89.5677 247.665 89.3047 247.91C89.0443 248.152 88.6615 248.273 88.1562 248.273H88.0352L90.2188 251H89.3555L87.2695 248.273H87.1719V251H86.5078ZM87.1719 245.855V247.77H87.6914C88.2227 247.77 88.5781 247.702 88.7578 247.566C88.9375 247.428 89.0273 247.189 89.0273 246.848C89.0273 246.48 88.9349 246.224 88.75 246.078C88.5651 245.93 88.2122 245.855 87.6914 245.855H87.1719ZM93.582 250.512C93.8945 250.512 94.1914 250.453 94.4727 250.336C94.7565 250.216 95.0117 250.043 95.2383 249.816C95.4622 249.592 95.6328 249.339 95.75 249.055C95.8672 248.771 95.9258 248.47 95.9258 248.152C95.9258 247.832 95.8659 247.527 95.7461 247.238C95.6289 246.949 95.4596 246.694 95.2383 246.473C95.0143 246.249 94.7604 246.078 94.4766 245.961C94.1953 245.844 93.8971 245.785 93.582 245.785C93.2643 245.785 92.9635 245.844 92.6797 245.961C92.3958 246.078 92.1445 246.249 91.9258 246.473C91.7018 246.699 91.5312 246.956 91.4141 247.242C91.2969 247.529 91.2383 247.832 91.2383 248.152C91.2383 248.47 91.2956 248.77 91.4102 249.051C91.5273 249.332 91.6992 249.587 91.9258 249.816C92.1549 250.046 92.4089 250.219 92.6875 250.336C92.9688 250.453 93.2669 250.512 93.582 250.512ZM96.6367 248.152C96.6367 248.561 96.5612 248.947 96.4102 249.309C96.2591 249.671 96.0391 249.992 95.75 250.273C95.4609 250.555 95.1276 250.772 94.75 250.926C94.375 251.077 93.9857 251.152 93.582 251.152C93.1784 251.152 92.7891 251.077 92.4141 250.926C92.0417 250.772 91.7109 250.555 91.4219 250.273C91.1302 249.99 90.9076 249.667 90.7539 249.305C90.6029 248.943 90.5273 248.559 90.5273 248.152C90.5273 247.743 90.6029 247.358 90.7539 246.996C90.9076 246.632 91.1302 246.307 91.4219 246.023C91.7083 245.745 92.0391 245.53 92.4141 245.379C92.7891 245.228 93.1784 245.152 93.582 245.152C93.9883 245.152 94.3789 245.228 94.7539 245.379C95.1315 245.53 95.4635 245.745 95.75 246.023C96.0391 246.305 96.2591 246.628 96.4102 246.992C96.5612 247.354 96.6367 247.741 96.6367 248.152ZM97.7266 245.281H98.4141V248.84C98.4141 249.418 98.5365 249.842 98.7812 250.113C99.0286 250.384 99.4154 250.52 99.9414 250.52C100.467 250.52 100.853 250.384 101.098 250.113C101.345 249.842 101.469 249.418 101.469 248.84V245.281H102.16V248.84C102.16 249.613 101.975 250.193 101.605 250.578C101.238 250.961 100.684 251.152 99.9414 251.152C99.2018 251.152 98.6471 250.961 98.2773 250.578C97.9102 250.193 97.7266 249.613 97.7266 248.84V245.281ZM104.18 248.434V251H103.516V245.281H104.715C105.134 245.281 105.443 245.303 105.641 245.348C105.839 245.392 106.01 245.465 106.156 245.566C106.339 245.697 106.48 245.875 106.582 246.102C106.686 246.328 106.738 246.579 106.738 246.855C106.738 247.132 106.686 247.383 106.582 247.609C106.48 247.836 106.339 248.014 106.156 248.145C106.01 248.249 105.839 248.323 105.641 248.367C105.445 248.411 105.137 248.434 104.715 248.434H104.523H104.18ZM104.18 247.816H104.523C105.107 247.816 105.499 247.749 105.699 247.613C105.902 247.475 106.004 247.236 106.004 246.895C106.004 246.53 105.9 246.273 105.691 246.125C105.486 245.977 105.096 245.902 104.523 245.902H104.18V247.816ZM107.578 251V245.281H110.594V245.902H108.258V247.543H110.594V248.176H108.258V250.367H110.594V251H107.578ZM118.75 246.648C118.477 246.352 118.185 246.133 117.875 245.992C117.565 245.849 117.223 245.777 116.848 245.777C116.546 245.777 116.25 245.839 115.961 245.961C115.674 246.083 115.426 246.254 115.215 246.473C114.996 246.699 114.832 246.953 114.723 247.234C114.613 247.513 114.559 247.822 114.559 248.16C114.559 248.426 114.591 248.671 114.656 248.895C114.721 249.118 114.819 249.324 114.949 249.512C115.178 249.837 115.46 250.089 115.793 250.266C116.129 250.44 116.491 250.527 116.879 250.527C117.243 250.527 117.582 250.452 117.895 250.301C118.207 250.15 118.492 249.924 118.75 249.625V250.527C118.466 250.733 118.16 250.889 117.832 250.996C117.507 251.1 117.169 251.152 116.82 251.152C116.518 251.152 116.224 251.107 115.938 251.016C115.651 250.927 115.383 250.797 115.133 250.625C114.716 250.336 114.397 249.98 114.176 249.559C113.957 249.137 113.848 248.673 113.848 248.168C113.848 247.728 113.921 247.328 114.066 246.969C114.215 246.607 114.44 246.279 114.742 245.984C115.034 245.703 115.357 245.493 115.711 245.355C116.065 245.215 116.452 245.145 116.871 245.145C117.202 245.145 117.522 245.195 117.832 245.297C118.142 245.396 118.448 245.551 118.75 245.762V246.648ZM122.707 250.512C123.02 250.512 123.316 250.453 123.598 250.336C123.882 250.216 124.137 250.043 124.363 249.816C124.587 249.592 124.758 249.339 124.875 249.055C124.992 248.771 125.051 248.47 125.051 248.152C125.051 247.832 124.991 247.527 124.871 247.238C124.754 246.949 124.585 246.694 124.363 246.473C124.139 246.249 123.885 246.078 123.602 245.961C123.32 245.844 123.022 245.785 122.707 245.785C122.389 245.785 122.089 245.844 121.805 245.961C121.521 246.078 121.27 246.249 121.051 246.473C120.827 246.699 120.656 246.956 120.539 247.242C120.422 247.529 120.363 247.832 120.363 248.152C120.363 248.47 120.421 248.77 120.535 249.051C120.652 249.332 120.824 249.587 121.051 249.816C121.28 250.046 121.534 250.219 121.812 250.336C122.094 250.453 122.392 250.512 122.707 250.512ZM125.762 248.152C125.762 248.561 125.686 248.947 125.535 249.309C125.384 249.671 125.164 249.992 124.875 250.273C124.586 250.555 124.253 250.772 123.875 250.926C123.5 251.077 123.111 251.152 122.707 251.152C122.303 251.152 121.914 251.077 121.539 250.926C121.167 250.772 120.836 250.555 120.547 250.273C120.255 249.99 120.033 249.667 119.879 249.305C119.728 248.943 119.652 248.559 119.652 248.152C119.652 247.743 119.728 247.358 119.879 246.996C120.033 246.632 120.255 246.307 120.547 246.023C120.833 245.745 121.164 245.53 121.539 245.379C121.914 245.228 122.303 245.152 122.707 245.152C123.113 245.152 123.504 245.228 123.879 245.379C124.257 245.53 124.589 245.745 124.875 246.023C125.164 246.305 125.384 246.628 125.535 246.992C125.686 247.354 125.762 247.741 125.762 248.152ZM129.539 251.223L127.762 247.113L127.043 251H126.379L127.539 245.055L129.539 249.785L131.539 245.055L132.699 251H132.035L131.309 247.113L129.539 251.223ZM134.242 248.434V251H133.578V245.281H134.777C135.197 245.281 135.505 245.303 135.703 245.348C135.901 245.392 136.073 245.465 136.219 245.566C136.401 245.697 136.543 245.875 136.645 246.102C136.749 246.328 136.801 246.579 136.801 246.855C136.801 247.132 136.749 247.383 136.645 247.609C136.543 247.836 136.401 248.014 136.219 248.145C136.073 248.249 135.901 248.323 135.703 248.367C135.508 248.411 135.199 248.434 134.777 248.434H134.586H134.242ZM134.242 247.816H134.586C135.169 247.816 135.561 247.749 135.762 247.613C135.965 247.475 136.066 247.236 136.066 246.895C136.066 246.53 135.962 246.273 135.754 246.125C135.548 245.977 135.159 245.902 134.586 245.902H134.242V247.816ZM137.641 251V245.281H138.32V250.352H140.48V251H137.641ZM141.289 251V245.281H144.305V245.902H141.969V247.543H144.305V248.176H141.969V250.367H144.305V251H141.289ZM146.461 251V245.93H144.844V245.281H148.758V245.93H147.148V251H146.461ZM149.141 252.535C149.419 252.022 149.626 251.467 149.762 250.871C149.897 250.275 149.965 249.613 149.965 248.887C149.965 248.184 149.897 247.533 149.762 246.934C149.629 246.332 149.422 245.754 149.141 245.199L149.555 245.008C149.87 245.56 150.103 246.155 150.254 246.793C150.408 247.431 150.484 248.129 150.484 248.887C150.484 249.6 150.406 250.28 150.25 250.926C150.096 251.569 149.865 252.178 149.555 252.754L149.141 252.535Z" fill="black"/>
<rect x="27.5" y="28.5" width="160" height="57" fill="#00A1EA" stroke="black"/>
<circle cx="38.5" cy="39.5" r="22" fill="#D9D9D9" stroke="black"/>
<path d="M30.957 31.9121C28.1133 31.9121 26.3496 33.694 25.666 37.2578H32.502V39.0762H25.4746L25.4473 39.8418V40.6895L25.4746 41.291H31.6543V43.1094H25.6934C26.0124 44.6953 26.623 45.9258 27.5254 46.8008C28.4368 47.6667 29.6582 48.0996 31.1895 48.0996C32.5749 48.0996 33.9648 47.7988 35.3594 47.1973V49.3848C34.0286 49.9772 32.5885 50.2734 31.0391 50.2734C28.888 50.2734 27.1471 49.6673 25.8164 48.4551C24.4948 47.2337 23.6243 45.4518 23.2051 43.1094H20.9629V41.291H22.9863L22.959 40.7168V40.1426L22.9863 39.0762H20.9629V37.2578H23.1777C23.5423 34.8516 24.3991 33.0013 25.748 31.707C27.097 30.4036 28.8333 29.752 30.957 29.752C32.8255 29.752 34.498 30.1849 35.9746 31.0508L34.9355 33.0605C33.459 32.2949 32.1328 31.9121 30.957 31.9121ZM40.9375 50V33.334H39.0371V30.0391H44.7656V50H40.9375ZM48.9277 50L49.7656 41.4453H51.9629L52.4082 44.709C52.4746 45.2051 52.5293 45.6816 52.5723 46.1387C52.6191 46.5918 52.6562 47.0332 52.6836 47.4629C52.7539 46.709 52.8125 46.1152 52.8594 45.6816C52.9102 45.2441 52.9512 44.9199 52.9824 44.709L53.5332 41.4453H55.707L56.4277 50H54.6992L54.5176 46.0273C54.5137 45.9336 54.5078 45.793 54.5 45.6055C54.4492 44.5664 54.4238 43.7148 54.4238 43.0508L53.3105 50H52.0742L51.0254 43.0039C51.0254 43.5859 50.9902 44.418 50.9199 45.5C50.9043 45.7461 50.8926 45.9297 50.8848 46.0508L50.6211 50H48.9277Z" fill="black"/>
<path d="M70.5 139.5V163C70.5 164.933 68.933 166.5 67 166.5H51C49.067 166.5 47.5 164.933 47.5 163V139.5H70.5Z" fill="white" stroke="black"/>
<path d="M51 129.5H67C68.933 129.5 70.5 131.067 70.5 133V140.5H47.5V133C47.5 131.067 49.067 129.5 51 129.5Z" fill="#0081C8" stroke="black"/>
<path d="M57.377 160V148.096H56.0195V145.742H60.1113V160H57.377Z" fill="black"/>
<path d="M62.701 182.983L71.1067 204.928C71.7981 206.733 70.8953 208.757 69.0902 209.449L54.1488 215.172C52.3436 215.863 50.3198 214.96 49.6284 213.155L41.2227 191.21L62.701 182.983Z" fill="white" stroke="black"/>
<path d="M40.9142 180.62L55.8556 174.897C57.6608 174.205 59.6846 175.108 60.376 176.913L63.0587 183.917L41.5804 192.144L38.8977 185.14C38.2063 183.335 39.1091 181.311 40.9142 180.62Z" fill="#0081C8" stroke="black"/>
<path d="M70.5 186.5V210C70.5 211.933 68.933 213.5 67 213.5H51C49.067 213.5 47.5 211.933 47.5 210V186.5H70.5Z" fill="white" stroke="black"/>
<path d="M51 176.5H67C68.933 176.5 70.5 178.067 70.5 180V187.5H47.5V180C47.5 178.067 49.067 176.5 51 176.5Z" fill="#0081C8" stroke="black"/>
<path d="M54.7109 207L58.2168 200.184C58.6465 199.351 58.9752 198.579 59.2031 197.87C59.4375 197.16 59.5547 196.577 59.5547 196.122C59.5547 195.672 59.4635 195.327 59.2812 195.086C59.1054 194.846 58.8515 194.725 58.5195 194.725C58.0377 194.725 57.7057 194.92 57.5234 195.311C57.3476 195.695 57.2597 196.457 57.2597 197.596H54.9355C54.929 197.531 54.9225 197.459 54.916 197.381C54.916 197.297 54.916 197.176 54.916 197.02C54.916 195.562 55.235 194.455 55.873 193.7C56.511 192.938 57.4453 192.557 58.6758 192.557C59.7304 192.557 60.567 192.876 61.1855 193.514C61.804 194.146 62.1133 195.002 62.1133 196.083C62.1133 196.818 61.9537 197.632 61.6347 198.524C61.3157 199.409 60.6972 200.682 59.7793 202.342L58.5586 204.54H61.7519V207H54.7109Z" fill="black"/>
<path d="M60.701 233.984L69.1067 255.929C69.7981 257.734 68.8953 259.758 67.0902 260.45L52.1488 266.173C50.3436 266.864 48.3198 265.961 47.6284 264.156L39.2227 242.211L60.701 233.984Z" fill="white" stroke="black"/>
<path d="M38.9142 231.621L53.8556 225.898C55.6608 225.206 57.6846 226.109 58.376 227.914L61.0587 234.918L39.5804 243.145L36.8977 236.141C36.2063 234.336 37.1091 232.312 38.9142 231.621Z" fill="#0081C8" stroke="black"/>
<path d="M60.701 233.984L69.1067 255.929C69.7981 257.734 68.8953 259.758 67.0902 260.45L52.1488 266.173C50.3436 266.864 48.3198 265.961 47.6284 264.156L39.2227 242.211L60.701 233.984Z" fill="white" stroke="black"/>
<path d="M38.9142 231.621L53.8556 225.898C55.6608 225.206 57.6846 226.109 58.376 227.914L61.0587 234.918L39.5804 243.145L36.8977 236.141C36.2063 234.336 37.1091 232.312 38.9142 231.621Z" fill="#0081C8" stroke="black"/>
<path d="M68.5 237.501V261.001C68.5 262.934 66.933 264.501 65 264.501H49C47.067 264.501 45.5 262.934 45.5 261.001V237.501H68.5Z" fill="white" stroke="black"/>
<path d="M49 227.501H65C66.933 227.501 68.5 229.068 68.5 231.001V238.501H45.5V231.001C45.5 229.068 47.067 227.501 49 227.501Z" fill="#0081C8" stroke="black"/>
<path d="M52.5742 253.919H54.957V254.085C54.957 254.639 55.0514 255.062 55.2402 255.355C55.4355 255.641 55.7155 255.785 56.08 255.785C56.4837 255.785 56.7929 255.606 57.0078 255.248C57.2291 254.889 57.3398 254.382 57.3398 253.724C57.3398 252.969 57.1998 252.432 56.9199 252.113C56.6399 251.787 56.1777 251.625 55.5332 251.625C55.4941 251.625 55.4388 251.628 55.3672 251.634C55.2955 251.641 55.2369 251.644 55.1914 251.644V249.3H55.3769C56.1452 249.3 56.6953 249.16 57.0273 248.88C57.3659 248.6 57.5351 248.141 57.5351 247.503C57.5351 247.015 57.4375 246.634 57.2422 246.361C57.0468 246.081 56.7767 245.941 56.4316 245.941C56.0735 245.941 55.8001 246.078 55.6113 246.351C55.429 246.625 55.3379 247.028 55.3379 247.562V247.718H53.0332V247.386C53.0332 246.143 53.3359 245.195 53.9414 244.544C54.5468 243.887 55.4258 243.558 56.5781 243.558C57.6458 243.558 58.4661 243.893 59.039 244.564C59.6119 245.235 59.8984 246.195 59.8984 247.445C59.8984 248.304 59.7161 248.991 59.3515 249.505C58.9869 250.013 58.4629 250.313 57.7793 250.404V250.58C58.6386 250.749 59.2799 251.11 59.7031 251.664C60.1263 252.217 60.3379 252.969 60.3379 253.919C60.3379 255.248 59.9668 256.292 59.2246 257.054C58.4889 257.816 57.4798 258.197 56.1972 258.197C55.0384 258.197 54.1399 257.858 53.5019 257.181C52.8704 256.504 52.5547 255.544 52.5547 254.3C52.5547 254.261 52.5579 254.203 52.5644 254.125C52.5709 254.04 52.5742 253.972 52.5742 253.919Z" fill="black"/>
<path d="M134.812 120V108.562H136.172V118.703H140.492V120H134.812ZM147.117 119.023C147.742 119.023 148.336 118.906 148.898 118.672C149.466 118.432 149.977 118.086 150.43 117.633C150.878 117.185 151.219 116.677 151.453 116.109C151.688 115.542 151.805 114.94 151.805 114.305C151.805 113.664 151.685 113.055 151.445 112.477C151.211 111.898 150.872 111.388 150.43 110.945C149.982 110.497 149.474 110.156 148.906 109.922C148.344 109.688 147.747 109.57 147.117 109.57C146.482 109.57 145.88 109.688 145.312 109.922C144.745 110.156 144.242 110.497 143.805 110.945C143.357 111.398 143.016 111.911 142.781 112.484C142.547 113.057 142.43 113.664 142.43 114.305C142.43 114.94 142.544 115.539 142.773 116.102C143.008 116.664 143.352 117.174 143.805 117.633C144.263 118.091 144.771 118.438 145.328 118.672C145.891 118.906 146.487 119.023 147.117 119.023ZM153.227 114.305C153.227 115.122 153.076 115.893 152.773 116.617C152.471 117.341 152.031 117.984 151.453 118.547C150.875 119.109 150.208 119.544 149.453 119.852C148.703 120.154 147.924 120.305 147.117 120.305C146.31 120.305 145.531 120.154 144.781 119.852C144.036 119.544 143.375 119.109 142.797 118.547C142.214 117.979 141.768 117.333 141.461 116.609C141.159 115.885 141.008 115.117 141.008 114.305C141.008 113.487 141.159 112.716 141.461 111.992C141.768 111.263 142.214 110.615 142.797 110.047C143.37 109.49 144.031 109.06 144.781 108.758C145.531 108.456 146.31 108.305 147.117 108.305C147.93 108.305 148.711 108.456 149.461 108.758C150.216 109.06 150.88 109.49 151.453 110.047C152.031 110.609 152.471 111.255 152.773 111.984C153.076 112.708 153.227 113.482 153.227 114.305ZM157.391 120V114.766L153.516 108.562H155.086L158.078 113.523L161.055 108.562H162.617L158.75 114.766V120H157.391ZM164.031 120V108.562H170.062V109.805H165.391V113.086H170.062V114.352H165.391V118.734H170.062V120H164.031ZM172.375 120V108.562H175.062C175.828 108.562 176.388 108.607 176.742 108.695C177.102 108.779 177.417 108.924 177.688 109.133C178.026 109.398 178.289 109.755 178.477 110.203C178.664 110.646 178.758 111.138 178.758 111.68C178.758 112.617 178.495 113.331 177.969 113.82C177.448 114.305 176.682 114.547 175.672 114.547H175.43L179.797 120H178.07L173.898 114.547H173.703V120H172.375ZM173.703 109.711V113.539H174.742C175.805 113.539 176.516 113.404 176.875 113.133C177.234 112.857 177.414 112.378 177.414 111.695C177.414 110.961 177.229 110.448 176.859 110.156C176.49 109.859 175.784 109.711 174.742 109.711H173.703Z" fill="black"/>
</svg>
