<svg width="211" height="328" viewBox="0 0 211 328" fill="none" xmlns="http://www.w3.org/2000/svg" xmlns:xlink="http://www.w3.org/1999/xlink">
<rect x="1.43373e-05" y="9.2231e-06" width="211" height="328" rx="16" fill="#E5BD9F"/>
<rect x="11.5" y="11.5" width="187" height="306" fill="#E5BD9F" stroke="black"/>
<rect x="21" y="25" width="168" height="276" fill="#E5BD9F" stroke="black"/>
<rect x="189" y="35" width="255" height="10" transform="rotate(90 189 35)" fill="url(#pattern0_102_1304)"/>
<rect x="21.0002" y="290" width="255" height="9.99998" transform="rotate(-90 21.0002 290)" fill="url(#pattern1_102_1304)"/>
<rect x="23.0003" y="25" width="155" height="10" fill="url(#pattern2_102_1304)"/>
<rect x="180" y="300" width="155" height="10" transform="rotate(-180 180 300)" fill="url(#pattern3_102_1304)"/>
<rect x="33.5" y="39.5" width="140" height="247" fill="url(#pattern4_102_1304)" stroke="black"/>
<circle cx="178.5" cy="295.5" r="16.5" transform="rotate(90 178.5 295.5)" fill="#E5BD9F" stroke="#FF0000" stroke-width="2"/>
<path d="M183.336 290.475C183.336 288.85 182.318 287.842 180.281 287.452L180.281 291.358L179.242 291.358L179.242 287.342L178.805 287.327L178.32 287.327L177.977 287.342L177.977 290.874L176.938 290.874L176.938 287.467C176.031 287.65 175.328 287.999 174.828 288.514C174.333 289.035 174.086 289.733 174.086 290.608C174.086 291.4 174.258 292.194 174.602 292.991L173.352 292.991C173.013 292.23 172.844 291.408 172.844 290.522C172.844 289.293 173.19 288.298 173.883 287.538C174.581 286.783 175.599 286.285 176.938 286.046L176.938 284.764L177.977 284.764L177.977 285.921L178.305 285.905L178.633 285.905L179.242 285.921L179.242 284.764L180.281 284.764L180.281 286.03C181.656 286.238 182.714 286.728 183.453 287.499C184.198 288.27 184.57 289.262 184.57 290.475C184.57 291.543 184.323 292.499 183.828 293.342L182.68 292.749C183.117 291.905 183.336 291.147 183.336 290.475ZM177.547 295.475L177.547 297.374L180.773 297.374C180.872 297.374 181.018 297.379 181.211 297.389C181.409 297.4 181.771 297.423 182.297 297.46C181.854 297.329 181.445 297.199 181.07 297.069C180.701 296.939 180.383 296.811 180.117 296.686L177.547 295.475ZM173 297.296L175.828 297.296L175.828 294.014L177.547 294.014L184.406 297.007L184.406 299.202L177.547 299.202L177.547 300.132L175.828 300.132L175.828 299.202L173 299.202L173 297.296ZM173 300.796L179.654 301.448L179.654 303.157L177.115 303.503C176.729 303.555 176.359 303.597 176.003 303.631C175.651 303.667 175.308 303.696 174.973 303.717C175.56 303.772 176.021 303.818 176.359 303.854C176.699 303.894 176.951 303.926 177.115 303.95L179.654 304.378L179.654 306.069L173 306.63L173 305.285L176.09 305.144C176.163 305.141 176.272 305.136 176.418 305.13C177.226 305.091 177.888 305.071 178.405 305.071L173 304.205L173 303.243L178.441 302.428C177.989 302.428 177.342 302.4 176.5 302.346C176.309 302.334 176.166 302.324 176.072 302.318L173 302.113L173 300.796Z" fill="black"/>
<circle cx="31.5" cy="33.5" r="16.5" transform="rotate(90 31.5 33.5)" fill="#E5BD9F" stroke="#FF0000" stroke-width="2"/>
<path d="M36.336 28.4753C36.336 26.8503 35.3177 25.8425 33.2813 25.4518L33.2813 29.3581L32.2422 29.3581L32.2422 25.3425L31.8047 25.3268L31.3203 25.3268L30.9766 25.3425L30.9766 28.8737L29.9375 28.8737L29.9375 25.4675C29.0313 25.6497 28.3281 25.9987 27.8281 26.5143C27.3333 27.0352 27.086 27.7331 27.086 28.6081C27.086 29.3997 27.2578 30.194 27.6016 30.9909L26.3516 30.9909C26.013 30.2305 25.8438 29.4076 25.8438 28.5221C25.8438 27.293 26.1901 26.2982 26.8828 25.5378C27.5807 24.7826 28.599 24.2852 29.9375 24.0456L29.9375 22.7643L30.9766 22.7643L30.9766 23.9206L31.3047 23.905L31.6328 23.905L32.2422 23.9206L32.2422 22.7643L33.2813 22.7643L33.2813 24.03C34.6563 24.2383 35.7136 24.7279 36.4531 25.4987C37.1979 26.2695 37.5703 27.2617 37.5703 28.4753C37.5703 29.543 37.3229 30.4987 36.8281 31.3425L35.6797 30.7487C36.1172 29.905 36.336 29.1471 36.336 28.4753ZM30.5469 33.4753L30.5469 35.3737L33.7735 35.3737C33.8724 35.3737 34.0182 35.3789 34.211 35.3893C34.4089 35.3997 34.7708 35.4232 35.2969 35.4596C34.8542 35.3294 34.4453 35.1992 34.0703 35.069C33.7005 34.9388 33.3828 34.8112 33.1172 34.6862L30.5469 33.4753ZM26 35.2956L28.8281 35.2956L28.8281 32.0143L30.5469 32.0143L37.4063 35.0065L37.4063 37.2018L30.5469 37.2018L30.5469 38.1315L28.8281 38.1315L28.8281 37.2018L26 37.2018L26 35.2956ZM26 38.7962L32.6537 39.4479L32.6537 41.1569L30.1152 41.5033C29.7294 41.5549 29.3587 41.5974 29.0033 41.6309C28.6508 41.6673 28.3075 41.6962 27.9733 41.7175C28.5597 41.7721 29.0215 41.8177 29.3587 41.8542C29.699 41.8937 29.9512 41.9256 30.1152 41.9499L32.6537 42.3783L32.6537 44.069L26 44.6296L26 43.2852L29.0899 43.1439C29.1628 43.1408 29.2721 43.1363 29.418 43.1302C30.2261 43.0907 30.8885 43.071 31.405 43.071L26 42.2051L26 41.2435L31.4414 40.4277C30.9887 40.4277 30.3416 40.4004 29.5 40.3457C29.3086 40.3336 29.1658 40.3244 29.0716 40.3184L26 40.1133L26 38.7962Z" fill="black"/>
<path d="M64.8379 70.8594C64.5918 70.959 64.3428 71.0322 64.0908 71.0791C63.8447 71.1318 63.5957 71.1582 63.3438 71.1582C61.709 71.1582 60.3789 70.5635 59.3535 69.374C58.334 68.1846 57.8242 66.626 57.8242 64.6983C57.8242 62.6943 58.3223 61.0772 59.3184 59.8467C60.3203 58.6162 61.627 58.001 63.2383 58.001C63.5371 58.001 63.8184 58.0274 64.082 58.0801C64.3457 58.127 64.5977 58.2031 64.8379 58.3086L64.8379 60.708C64.5918 60.6084 64.3516 60.5352 64.1172 60.4883C63.8887 60.4414 63.6631 60.418 63.4404 60.418C62.585 60.418 61.8906 60.7959 61.3574 61.5518C60.8242 62.3076 60.5576 63.3096 60.5576 64.5576C60.5576 65.7588 60.8301 66.7315 61.375 67.4756C61.9258 68.2197 62.6318 68.5918 63.4932 68.5918C63.71 68.5918 63.9297 68.5654 64.1524 68.5127C64.3809 68.46 64.6094 68.3838 64.8379 68.2842L64.8379 70.8594ZM68.7666 66.7549L70.4717 66.7549C70.2959 65.8584 70.1377 64.9209 69.9971 63.9424C69.8565 62.958 69.7334 61.9209 69.6279 60.8311C69.499 61.792 69.3613 62.7676 69.2149 63.7578C69.0742 64.7422 68.9248 65.7412 68.7666 66.7549ZM65.3477 71L68.336 58.168L71.0166 58.168L73.8643 71L71.3067 71L70.876 68.75L68.3008 68.75L67.9053 71L65.3477 71ZM77.2744 63.7315C77.3037 63.7315 77.3506 63.7344 77.4151 63.7402C77.4854 63.7461 77.5352 63.749 77.5645 63.749C78.1211 63.749 78.5401 63.5938 78.8213 63.2832C79.1026 62.9727 79.2432 62.5156 79.2432 61.9121C79.2432 61.2969 79.1143 60.8486 78.8565 60.5674C78.5986 60.2861 78.1856 60.1455 77.6172 60.1455C77.5293 60.1455 77.4619 60.1485 77.4151 60.1543C77.3682 60.1543 77.3242 60.1572 77.2832 60.1631L77.2744 63.7315ZM74.7959 71L74.7959 58.168L77.459 58.168C78.9238 58.168 79.9844 58.4551 80.6406 59.0293C81.3027 59.6035 81.6338 60.5205 81.6338 61.7803C81.6338 62.6943 81.4639 63.4297 81.124 63.9863C80.7901 64.5371 80.2832 64.9238 79.6035 65.1465L82.0645 71L79.3662 71L77.2744 65.6914L77.2744 71L74.7959 71ZM84.2617 71L84.2617 60.541L82.3018 60.541L82.3018 58.168L88.7969 58.168L88.7969 60.541L86.8369 60.541L86.8369 71L84.2617 71ZM90.0713 71L90.0713 58.168L95.4678 58.168L95.4678 60.541L92.5498 60.541L92.5498 63.1338L95.1953 63.1338L95.1953 65.4893L92.5498 65.4893L92.5498 68.4951L95.4678 68.4951L95.4678 71L90.0713 71ZM103.519 66.7549L105.224 66.7549C105.048 65.8584 104.89 64.9209 104.749 63.9424C104.608 62.958 104.485 61.9209 104.38 60.8311C104.251 61.792 104.113 62.7676 103.967 63.7578C103.826 64.7422 103.677 65.7412 103.519 66.7549ZM100.1 71L103.088 58.168L105.769 58.168L108.616 71L106.059 71L105.628 68.75L103.053 68.75L102.657 71L100.1 71ZM116.148 70.8594C115.902 70.959 115.653 71.0322 115.401 71.0791C115.155 71.1319 114.906 71.1582 114.654 71.1582C113.02 71.1582 111.689 70.5635 110.664 69.374C109.645 68.1846 109.135 66.626 109.135 64.6983C109.135 62.6944 109.633 61.0772 110.629 59.8467C111.631 58.6162 112.938 58.001 114.549 58.001C114.848 58.001 115.129 58.0274 115.393 58.0801C115.656 58.127 115.908 58.2031 116.148 58.3086L116.148 60.708C115.902 60.6084 115.662 60.5352 115.428 60.4883C115.199 60.4414 114.974 60.418 114.751 60.418C113.896 60.418 113.201 60.7959 112.668 61.5518C112.135 62.3076 111.868 63.3096 111.868 64.5576C111.868 65.7588 112.141 66.7315 112.686 67.4756C113.236 68.2197 113.942 68.5918 114.804 68.5918C115.021 68.5918 115.24 68.5654 115.463 68.5127C115.691 68.46 115.92 68.3838 116.148 68.2842L116.148 70.8594ZM118.943 71L118.943 60.541L116.983 60.541L116.983 58.168L123.479 58.168L123.479 60.541L121.519 60.541L121.519 71L118.943 71ZM124.858 71L124.858 58.168L127.469 58.168L127.469 71L124.858 71ZM133.691 68.7149C134.348 68.7149 134.837 68.3721 135.159 67.6865C135.487 67.001 135.651 65.9697 135.651 64.5928C135.651 63.2041 135.487 62.167 135.159 61.4815C134.837 60.7959 134.348 60.4531 133.691 60.4531C133.035 60.4531 132.546 60.7959 132.224 61.4815C131.901 62.1612 131.74 63.1983 131.74 64.5928C131.74 65.9815 131.901 67.0156 132.224 67.6953C132.546 68.375 133.035 68.7149 133.691 68.7149ZM138.209 64.7686C138.209 66.7256 137.799 68.2813 136.979 69.4356C136.158 70.584 135.063 71.1582 133.691 71.1582C132.273 71.1582 131.169 70.5811 130.378 69.4268C129.587 68.2666 129.191 66.6553 129.191 64.5928C129.191 62.5362 129.59 60.9248 130.387 59.7588C131.189 58.5869 132.291 58.001 133.691 58.001C135.098 58.001 136.202 58.5987 137.005 59.794C137.808 60.9893 138.209 62.6475 138.209 64.7686ZM139.8 71L139.8 58.168L142.393 58.168L144.985 65.0762C145.062 65.2989 145.167 65.6416 145.302 66.1045C145.442 66.5615 145.601 67.1006 145.776 67.7217C145.642 66.8135 145.542 65.9815 145.478 65.2256C145.413 64.4639 145.381 63.7549 145.381 63.0987L145.381 58.168L147.754 58.168L147.754 71L145.381 71L142.568 63.8194C142.521 63.7139 142.398 63.2774 142.199 62.5098C142.105 62.1582 142.032 61.8828 141.98 61.6836C142.038 62.1817 142.082 62.7442 142.111 63.3711C142.141 63.9922 142.155 64.7364 142.155 65.6035L142.155 71L139.8 71Z" fill="black"/>
<circle cx="103" cy="163" r="69.4222" transform="rotate(90 103 163)" fill="white" stroke="black" stroke-width="3.15556"/>
<path d="M72.6094 147.844C72.3359 147.954 72.0593 148.036 71.7793 148.088C71.5059 148.146 71.2292 148.176 70.9492 148.176C69.1328 148.176 67.655 147.515 66.5156 146.193C65.3828 144.872 64.8164 143.14 64.8164 140.998C64.8164 138.771 65.3698 136.975 66.4766 135.607C67.5899 134.24 69.0417 133.557 70.832 133.557C71.1641 133.557 71.4766 133.586 71.7695 133.645C72.0625 133.697 72.3425 133.781 72.6094 133.898L72.6094 136.564C72.336 136.454 72.069 136.372 71.8086 136.32C71.5547 136.268 71.304 136.242 71.0567 136.242C70.1061 136.242 69.3346 136.662 68.7422 137.502C68.1498 138.342 67.8535 139.455 67.8535 140.842C67.8535 142.176 68.1563 143.257 68.7617 144.084C69.3737 144.911 70.1582 145.324 71.1152 145.324C71.3561 145.324 71.6003 145.295 71.8477 145.236C72.1016 145.178 72.3555 145.093 72.6094 144.982L72.6094 147.844ZM73.5762 139.66L75.1777 133.742L77.9707 133.742L75.5586 139.66L73.5762 139.66ZM79.416 148L79.416 133.742L85.4121 133.742L85.4121 136.379L82.1699 136.379L82.1699 139.26L85.1094 139.26L85.1094 141.877L82.1699 141.877L82.1699 145.217L85.4121 145.217L85.4121 148L79.416 148ZM86.9063 147.502L86.9063 144.543C87.2643 144.855 87.6159 145.09 87.9609 145.246C88.306 145.402 88.6543 145.48 89.0059 145.48C89.4876 145.48 89.8652 145.354 90.1387 145.1C90.4186 144.846 90.5586 144.501 90.5586 144.064C90.5586 143.524 90.1843 142.938 89.4356 142.307C89.2272 142.131 89.071 141.994 88.9668 141.897C88.0944 141.115 87.4955 140.415 87.1699 139.797C86.8444 139.172 86.6817 138.466 86.6817 137.678C86.6817 136.447 87.0267 135.454 87.7168 134.699C88.4134 133.938 89.3216 133.557 90.4414 133.557C90.8386 133.557 91.2292 133.615 91.6133 133.732C92.0039 133.843 92.4141 134.019 92.8438 134.26L92.8438 136.779C92.3425 136.538 91.9518 136.372 91.6719 136.281C91.3985 136.19 91.1543 136.145 90.9395 136.145C90.5293 136.145 90.194 136.275 89.9336 136.535C89.6732 136.789 89.543 137.124 89.543 137.541C89.543 137.906 89.6406 138.247 89.836 138.566C90.0313 138.879 90.487 139.344 91.2031 139.963C92.1602 140.783 92.7754 141.467 93.0488 142.014C93.3223 142.554 93.459 143.208 93.459 143.977C93.459 145.272 93.0912 146.298 92.3555 147.053C91.6263 147.801 90.6302 148.176 89.3672 148.176C88.8854 148.176 88.4395 148.12 88.0293 148.01C87.6257 147.899 87.2513 147.73 86.9063 147.502ZM96.3594 148L96.3594 136.379L94.1817 136.379L94.1817 133.742L101.398 133.742L101.398 136.379L99.2207 136.379L99.2207 148L96.3594 148ZM106.525 148L107.922 133.742L111.584 133.742L112.326 139.182C112.437 140.008 112.528 140.803 112.6 141.564C112.678 142.32 112.74 143.055 112.785 143.772C112.902 142.515 113 141.525 113.078 140.803C113.163 140.074 113.231 139.533 113.283 139.182L114.201 133.742L117.824 133.742L119.025 148L116.145 148L115.842 141.379C115.835 141.223 115.826 140.988 115.813 140.676C115.728 138.944 115.686 137.525 115.686 136.418L113.83 148L111.77 148L110.021 136.34C110.021 137.31 109.963 138.697 109.846 140.5C109.82 140.91 109.8 141.216 109.787 141.418L109.348 148L106.525 148ZM125.09 145.461C125.819 145.461 126.363 145.08 126.721 144.318C127.085 143.557 127.268 142.411 127.268 140.881C127.268 139.338 127.085 138.186 126.721 137.424C126.363 136.662 125.819 136.281 125.09 136.281C124.361 136.281 123.817 136.662 123.459 137.424C123.101 138.179 122.922 139.331 122.922 140.881C122.922 142.424 123.101 143.573 123.459 144.328C123.817 145.083 124.361 145.461 125.09 145.461ZM130.109 141.076C130.109 143.251 129.654 144.979 128.742 146.262C127.831 147.538 126.613 148.176 125.09 148.176C123.514 148.176 122.287 147.535 121.408 146.252C120.529 144.963 120.09 143.173 120.09 140.881C120.09 138.596 120.533 136.805 121.418 135.51C122.31 134.208 123.534 133.557 125.09 133.557C126.652 133.557 127.88 134.221 128.771 135.549C129.663 136.877 130.109 138.719 130.109 141.076ZM131.877 148L131.877 133.742L134.758 133.742L137.639 141.418C137.723 141.665 137.841 142.046 137.99 142.561C138.146 143.068 138.322 143.667 138.518 144.357C138.368 143.348 138.257 142.424 138.186 141.584C138.114 140.738 138.078 139.95 138.078 139.221L138.078 133.742L140.715 133.742L140.715 148L138.078 148L134.953 140.022C134.901 139.904 134.764 139.419 134.543 138.566C134.439 138.176 134.357 137.87 134.299 137.648C134.364 138.202 134.413 138.827 134.445 139.523C134.478 140.214 134.494 141.04 134.494 142.004L134.494 148L131.877 148ZM50.1484 167.283L52.043 167.283C51.8477 166.287 51.6719 165.245 51.5156 164.158C51.3594 163.064 51.2227 161.912 51.1055 160.701C50.9622 161.769 50.8093 162.853 50.6465 163.953C50.4902 165.047 50.3242 166.157 50.1484 167.283ZM46.3496 172L49.6699 157.742L52.6484 157.742L55.8125 172L52.9707 172L52.4922 169.5L49.6309 169.5L49.1914 172L46.3496 172ZM56.8477 172L56.8477 157.742L59.7285 157.742L62.6094 165.418C62.694 165.665 62.8112 166.046 62.9609 166.561C63.1172 167.068 63.293 167.667 63.4883 168.357C63.3385 167.348 63.2279 166.424 63.1563 165.584C63.0846 164.738 63.0488 163.95 63.0488 163.221L63.0488 157.742L65.6856 157.742L65.6856 172L63.0488 172L59.9238 164.021C59.8718 163.904 59.735 163.419 59.5137 162.566C59.4095 162.176 59.3281 161.87 59.2695 161.648C59.3346 162.202 59.3835 162.827 59.416 163.523C59.4486 164.214 59.4649 165.04 59.4649 166.004L59.4649 172L56.8477 172ZM67.9414 172L67.9414 157.742L70.8223 157.742L73.7031 165.418C73.7878 165.665 73.905 166.046 74.0547 166.561C74.2109 167.068 74.3867 167.667 74.582 168.357C74.4323 167.348 74.3216 166.424 74.25 165.584C74.1784 164.738 74.1426 163.95 74.1426 163.221L74.1426 157.742L76.7793 157.742L76.7793 172L74.1426 172L71.0176 164.021C70.9655 163.904 70.8288 163.419 70.6074 162.566C70.5033 162.176 70.4219 161.87 70.3633 161.648C70.4284 162.202 70.4772 162.827 70.5098 163.523C70.5423 164.214 70.5586 165.04 70.5586 166.004L70.5586 172L67.9414 172ZM79.1524 172L79.1524 157.742L82.0527 157.742L82.0527 172L79.1524 172ZM87.0039 172L82.9414 157.742L85.8223 157.742L87.502 164.197C87.6647 164.829 87.8014 165.503 87.9121 166.219C88.0293 166.935 88.1205 167.687 88.1856 168.475C88.2311 167.745 88.306 167.029 88.4102 166.326C88.5208 165.617 88.6576 164.926 88.8203 164.256L90.4609 157.742L93.4199 157.742L89.3867 172L87.0039 172ZM94.1719 172L94.1719 157.742L100.168 157.742L100.168 160.379L96.9258 160.379L96.9258 163.26L99.8652 163.26L99.8652 165.877L96.9258 165.877L96.9258 169.217L100.168 169.217L100.168 172L94.1719 172ZM104.855 163.924C104.888 163.924 104.94 163.927 105.012 163.934C105.09 163.94 105.145 163.943 105.178 163.943C105.796 163.943 106.262 163.771 106.574 163.426C106.887 163.081 107.043 162.573 107.043 161.902C107.043 161.219 106.9 160.721 106.613 160.408C106.327 160.096 105.868 159.939 105.236 159.939C105.139 159.939 105.064 159.943 105.012 159.949C104.96 159.949 104.911 159.952 104.865 159.959L104.855 163.924ZM102.102 172L102.102 157.742L105.061 157.742C106.688 157.742 107.867 158.061 108.596 158.699C109.331 159.337 109.699 160.356 109.699 161.756C109.699 162.772 109.51 163.589 109.133 164.207C108.762 164.819 108.199 165.249 107.443 165.496L110.178 172L107.18 172L104.855 166.102L104.855 172L102.102 172ZM110.842 171.502L110.842 168.543C111.2 168.855 111.551 169.09 111.896 169.246C112.242 169.402 112.59 169.48 112.941 169.48C113.423 169.48 113.801 169.354 114.074 169.1C114.354 168.846 114.494 168.501 114.494 168.064C114.494 167.524 114.12 166.938 113.371 166.307C113.163 166.131 113.007 165.994 112.902 165.897C112.03 165.115 111.431 164.415 111.105 163.797C110.78 163.172 110.617 162.466 110.617 161.678C110.617 160.447 110.962 159.454 111.652 158.699C112.349 157.938 113.257 157.557 114.377 157.557C114.774 157.557 115.165 157.615 115.549 157.732C115.939 157.843 116.35 158.019 116.779 158.26L116.779 160.779C116.278 160.538 115.887 160.372 115.607 160.281C115.334 160.19 115.09 160.145 114.875 160.145C114.465 160.145 114.13 160.275 113.869 160.535C113.609 160.789 113.479 161.124 113.479 161.541C113.479 161.906 113.576 162.247 113.771 162.566C113.967 162.879 114.423 163.344 115.139 163.963C116.096 164.783 116.711 165.467 116.984 166.014C117.258 166.554 117.395 167.208 117.395 167.977C117.395 169.272 117.027 170.298 116.291 171.053C115.562 171.801 114.566 172.176 113.303 172.176C112.821 172.176 112.375 172.12 111.965 172.01C111.561 171.899 111.187 171.73 110.842 171.502ZM121.555 167.283L123.449 167.283C123.254 166.287 123.078 165.245 122.922 164.158C122.766 163.064 122.629 161.912 122.512 160.701C122.368 161.769 122.216 162.853 122.053 163.953C121.896 165.047 121.73 166.157 121.555 167.283ZM117.756 172L121.076 157.742L124.055 157.742L127.219 172L124.377 172L123.898 169.5L121.037 169.5L120.598 172L117.756 172ZM128.371 172L128.371 157.742L131.271 157.742L131.271 172L128.371 172ZM136.418 163.924C136.451 163.924 136.503 163.927 136.574 163.934C136.652 163.94 136.708 163.943 136.74 163.943C137.359 163.943 137.824 163.771 138.137 163.426C138.449 163.081 138.605 162.573 138.605 161.902C138.605 161.219 138.462 160.721 138.176 160.408C137.889 160.096 137.43 159.939 136.799 159.939C136.701 159.939 136.626 159.943 136.574 159.949C136.522 159.949 136.473 159.952 136.428 159.959L136.418 163.924ZM133.664 172L133.664 157.742L136.623 157.742C138.251 157.742 139.429 158.061 140.158 158.699C140.894 159.337 141.262 160.356 141.262 161.756C141.262 162.772 141.073 163.589 140.695 164.207C140.324 164.819 139.761 165.249 139.006 165.496L141.74 172L138.742 172L136.418 166.102L136.418 172L133.664 172ZM142.844 172L142.844 157.742L148.84 157.742L148.84 160.379L145.598 160.379L145.598 163.26L148.537 163.26L148.537 165.877L145.598 165.877L145.598 169.217L148.84 169.217L148.84 172L142.844 172ZM155.48 167.82L155.48 157.742L158.166 157.742L158.166 167.82L155.48 167.82ZM158.547 170.457C158.547 170.952 158.381 171.362 158.049 171.688C157.723 172.013 157.316 172.176 156.828 172.176C156.34 172.176 155.93 172.013 155.598 171.688C155.266 171.362 155.1 170.952 155.1 170.457C155.1 169.969 155.266 169.562 155.598 169.236C155.936 168.904 156.346 168.738 156.828 168.738C157.31 168.738 157.717 168.904 158.049 169.236C158.381 169.562 158.547 169.969 158.547 170.457Z" fill="black"/>
<defs>
<pattern id="pattern0_102_1304" patternUnits="userSpaceOnUse" patternTransform="matrix(15.2616 0 0 10.1164 189 35)" preserveAspectRatio="none" viewBox="7.50705e-06 0 19.077 12.6454" width="1" height="1">
<g id="pattern0_102_1304_inner">
<path d="M9.49354 10.4556C9.5432 4.72657 5.33305 0.0454458 0.0899123 0L0.0859162 0.461036C5.09603 0.504461 9.11906 4.97754 9.07161 10.4519L9.49354 10.4556Z" fill="black"/>
<path d="M8.22774 10.4446C8.27077 5.47947 4.62198 1.42249 0.077924 1.38311L0.0739279 1.84414C4.38495 1.88151 7.84663 5.73043 7.8058 10.441L8.22774 10.4446Z" fill="black"/>
<path d="M6.53999 10.43C6.5742 6.48333 3.67388 3.25856 0.0619396 3.22725L0.0579435 3.68828C3.43685 3.71757 6.15006 6.7343 6.11806 10.4263L6.53999 10.43Z" fill="black"/>
<path d="M4.43032 10.4117C4.45349 7.73816 2.48876 5.55363 0.0419591 5.53243L0.037963 5.99346C2.25173 6.01265 4.02935 7.98913 4.00838 10.408L4.43032 10.4117Z" fill="black"/>
<path d="M2.32064 10.3934C2.33278 8.99299 1.30363 7.84871 0.0219786 7.8376L0 10.3733L2.32064 10.3934Z" fill="black"/>
<path d="M9.49355 10.4556C9.54321 4.72655 13.8339 0.119105 19.077 0.164551L19.073 0.625586C14.0629 0.58216 9.96294 4.98483 9.91549 10.4592L9.49355 10.4556Z" fill="black"/>
<path d="M10.7594 10.4665C10.8024 5.50139 14.521 1.50827 19.065 1.54766L19.061 2.00869C14.75 1.97133 11.2221 5.75967 11.1813 10.4702L10.7594 10.4665Z" fill="black"/>
<path d="M12.4471 10.4812C12.4813 6.53451 15.4371 3.36049 19.049 3.3918L19.045 3.85283C15.6661 3.82355 12.901 6.79279 12.869 10.4848L12.4471 10.4812Z" fill="black"/>
<path d="M14.5568 10.4994C14.5799 7.82591 16.5823 5.67577 19.0291 5.69698L19.0251 6.15801C16.8113 6.13882 14.9997 8.08419 14.9787 10.5031L14.5568 10.4994Z" fill="black"/>
<path d="M16.6664 10.5177C16.6786 9.11731 17.7274 7.99105 19.0091 8.00215L18.9871 10.5378L16.6664 10.5177Z" fill="black"/>
</g>
</pattern><pattern id="pattern1_102_1304" patternUnits="userSpaceOnUse" patternTransform="matrix(15.2616 0 0 10.1164 21.0002 290)" preserveAspectRatio="none" viewBox="7.50705e-06 0 19.077 12.6454" width="1" height="1">
<g id="pattern1_102_1304_inner">
<path d="M9.49354 10.4556C9.5432 4.72657 5.33305 0.0454458 0.0899123 0L0.0859162 0.461036C5.09603 0.504461 9.11906 4.97754 9.07161 10.4519L9.49354 10.4556Z" fill="black"/>
<path d="M8.22774 10.4446C8.27077 5.47947 4.62198 1.42249 0.077924 1.38311L0.0739279 1.84414C4.38495 1.88151 7.84663 5.73043 7.8058 10.441L8.22774 10.4446Z" fill="black"/>
<path d="M6.53999 10.43C6.5742 6.48333 3.67388 3.25856 0.0619396 3.22725L0.0579435 3.68828C3.43685 3.71757 6.15006 6.7343 6.11806 10.4263L6.53999 10.43Z" fill="black"/>
<path d="M4.43032 10.4117C4.45349 7.73816 2.48876 5.55363 0.0419591 5.53243L0.037963 5.99346C2.25173 6.01265 4.02935 7.98913 4.00838 10.408L4.43032 10.4117Z" fill="black"/>
<path d="M2.32064 10.3934C2.33278 8.99299 1.30363 7.84871 0.0219786 7.8376L0 10.3733L2.32064 10.3934Z" fill="black"/>
<path d="M9.49355 10.4556C9.54321 4.72655 13.8339 0.119105 19.077 0.164551L19.073 0.625586C14.0629 0.58216 9.96294 4.98483 9.91549 10.4592L9.49355 10.4556Z" fill="black"/>
<path d="M10.7594 10.4665C10.8024 5.50139 14.521 1.50827 19.065 1.54766L19.061 2.00869C14.75 1.97133 11.2221 5.75967 11.1813 10.4702L10.7594 10.4665Z" fill="black"/>
<path d="M12.4471 10.4812C12.4813 6.53451 15.4371 3.36049 19.049 3.3918L19.045 3.85283C15.6661 3.82355 12.901 6.79279 12.869 10.4848L12.4471 10.4812Z" fill="black"/>
<path d="M14.5568 10.4994C14.5799 7.82591 16.5823 5.67577 19.0291 5.69698L19.0251 6.15801C16.8113 6.13882 14.9997 8.08419 14.9787 10.5031L14.5568 10.4994Z" fill="black"/>
<path d="M16.6664 10.5177C16.6786 9.11731 17.7274 7.99105 19.0091 8.00215L18.9871 10.5378L16.6664 10.5177Z" fill="black"/>
</g>
</pattern><pattern id="pattern2_102_1304" patternUnits="userSpaceOnUse" patternTransform="matrix(15.2616 0 0 10.1164 23.0003 25)" preserveAspectRatio="none" viewBox="7.50705e-06 0 19.077 12.6454" width="1" height="1">
<g id="pattern2_102_1304_inner">
<path d="M9.49354 10.4556C9.5432 4.72657 5.33305 0.0454458 0.0899123 0L0.0859162 0.461036C5.09603 0.504461 9.11906 4.97754 9.07161 10.4519L9.49354 10.4556Z" fill="black"/>
<path d="M8.22774 10.4446C8.27077 5.47947 4.62198 1.42249 0.077924 1.38311L0.0739279 1.84414C4.38495 1.88151 7.84663 5.73043 7.8058 10.441L8.22774 10.4446Z" fill="black"/>
<path d="M6.53999 10.43C6.5742 6.48333 3.67388 3.25856 0.0619396 3.22725L0.0579435 3.68828C3.43685 3.71757 6.15006 6.7343 6.11806 10.4263L6.53999 10.43Z" fill="black"/>
<path d="M4.43032 10.4117C4.45349 7.73816 2.48876 5.55363 0.0419591 5.53243L0.037963 5.99346C2.25173 6.01265 4.02935 7.98913 4.00838 10.408L4.43032 10.4117Z" fill="black"/>
<path d="M2.32064 10.3934C2.33278 8.99299 1.30363 7.84871 0.0219786 7.8376L0 10.3733L2.32064 10.3934Z" fill="black"/>
<path d="M9.49355 10.4556C9.54321 4.72655 13.8339 0.119105 19.077 0.164551L19.073 0.625586C14.0629 0.58216 9.96294 4.98483 9.91549 10.4592L9.49355 10.4556Z" fill="black"/>
<path d="M10.7594 10.4665C10.8024 5.50139 14.521 1.50827 19.065 1.54766L19.061 2.00869C14.75 1.97133 11.2221 5.75967 11.1813 10.4702L10.7594 10.4665Z" fill="black"/>
<path d="M12.4471 10.4812C12.4813 6.53451 15.4371 3.36049 19.049 3.3918L19.045 3.85283C15.6661 3.82355 12.901 6.79279 12.869 10.4848L12.4471 10.4812Z" fill="black"/>
<path d="M14.5568 10.4994C14.5799 7.82591 16.5823 5.67577 19.0291 5.69698L19.0251 6.15801C16.8113 6.13882 14.9997 8.08419 14.9787 10.5031L14.5568 10.4994Z" fill="black"/>
<path d="M16.6664 10.5177C16.6786 9.11731 17.7274 7.99105 19.0091 8.00215L18.9871 10.5378L16.6664 10.5177Z" fill="black"/>
</g>
</pattern><pattern id="pattern3_102_1304" patternUnits="userSpaceOnUse" patternTransform="matrix(15.2616 0 0 10.1164 180 300)" preserveAspectRatio="none" viewBox="7.50705e-06 0 19.077 12.6454" width="1" height="1">
<g id="pattern3_102_1304_inner">
<path d="M9.49354 10.4556C9.5432 4.72657 5.33305 0.0454458 0.0899123 0L0.0859162 0.461036C5.09603 0.504461 9.11906 4.97754 9.07161 10.4519L9.49354 10.4556Z" fill="black"/>
<path d="M8.22774 10.4446C8.27077 5.47947 4.62198 1.42249 0.077924 1.38311L0.0739279 1.84414C4.38495 1.88151 7.84663 5.73043 7.8058 10.441L8.22774 10.4446Z" fill="black"/>
<path d="M6.53999 10.43C6.5742 6.48333 3.67388 3.25856 0.0619396 3.22725L0.0579435 3.68828C3.43685 3.71757 6.15006 6.7343 6.11806 10.4263L6.53999 10.43Z" fill="black"/>
<path d="M4.43032 10.4117C4.45349 7.73816 2.48876 5.55363 0.0419591 5.53243L0.037963 5.99346C2.25173 6.01265 4.02935 7.98913 4.00838 10.408L4.43032 10.4117Z" fill="black"/>
<path d="M2.32064 10.3934C2.33278 8.99299 1.30363 7.84871 0.0219786 7.8376L0 10.3733L2.32064 10.3934Z" fill="black"/>
<path d="M9.49355 10.4556C9.54321 4.72655 13.8339 0.119105 19.077 0.164551L19.073 0.625586C14.0629 0.58216 9.96294 4.98483 9.91549 10.4592L9.49355 10.4556Z" fill="black"/>
<path d="M10.7594 10.4665C10.8024 5.50139 14.521 1.50827 19.065 1.54766L19.061 2.00869C14.75 1.97133 11.2221 5.75967 11.1813 10.4702L10.7594 10.4665Z" fill="black"/>
<path d="M12.4471 10.4812C12.4813 6.53451 15.4371 3.36049 19.049 3.3918L19.045 3.85283C15.6661 3.82355 12.901 6.79279 12.869 10.4848L12.4471 10.4812Z" fill="black"/>
<path d="M14.5568 10.4994C14.5799 7.82591 16.5823 5.67577 19.0291 5.69698L19.0251 6.15801C16.8113 6.13882 14.9997 8.08419 14.9787 10.5031L14.5568 10.4994Z" fill="black"/>
<path d="M16.6664 10.5177C16.6786 9.11731 17.7274 7.99105 19.0091 8.00215L18.9871 10.5378L16.6664 10.5177Z" fill="black"/>
</g>
</pattern><pattern id="pattern4_102_1304" patternUnits="userSpaceOnUse" patternTransform="matrix(2.22 0 0 2.22 33 39)" preserveAspectRatio="none" viewBox="0 0 111 111" width="1" height="1">
<g id="pattern4_102_1304_inner">
<circle cx="55.5" cy="55.5" r="55" stroke="black"/>
<circle cx="55.5" cy="55.5001" r="47.9747" stroke="black"/>
<circle cx="55.5" cy="55.5001" r="38.1392" stroke="black"/>
<circle cx="55.5" cy="55.4999" r="29.7089" stroke="black"/>
<circle cx="55.5" cy="55.4999" r="29.7089" stroke="black"/>
<circle cx="55.5" cy="55.4998" r="17.0633" stroke="black"/>
<circle cx="55.5" cy="55.5001" r="8.63291" stroke="black"/>
</g>
</pattern></defs>
</svg>
