<svg width="211" height="328" viewBox="0 0 211 328" fill="none" xmlns="http://www.w3.org/2000/svg" xmlns:xlink="http://www.w3.org/1999/xlink">
<rect x="1.43373e-05" y="9.2231e-06" width="211" height="328" rx="16" fill="#9740BE"/>
<rect x="21" y="25" width="168" height="276" fill="#B88ACD" fill-opacity="0.8"/>
<rect x="21" y="25" width="168" height="276" fill="url(#pattern0_129_2301)"/>
<rect x="21" y="25" width="168" height="276" stroke="black" stroke-width="2"/>
<path d="M54 34.5C54 46.3741 44.3741 56 32.5 56C20.6259 56 11 46.3741 11 34.5C11 22.6259 20.6259 13 32.5 13C44.3741 13 54 22.6259 54 34.5Z" fill="white" stroke="black" stroke-width="2"/>
<path d="M27.3639 29.6641C25.7389 29.6641 24.7311 30.6823 24.3405 32.7188L28.2468 32.7188L28.2468 33.7578L24.2311 33.7578L24.2155 34.1953L24.2155 34.6797L24.2311 35.0234L27.7624 35.0234L27.7624 36.0625L24.3561 36.0625C24.5384 36.9688 24.8874 37.6719 25.403 38.1719C25.9238 38.6667 26.6218 38.9141 27.4968 38.9141C28.2884 38.9141 29.0827 38.7422 29.8796 38.3984L29.8796 39.6484C29.1192 39.987 28.2962 40.1563 27.4108 40.1563C26.1817 40.1563 25.1869 39.8099 24.4264 39.1172C23.6712 38.4193 23.1738 37.4011 22.9343 36.0625L21.653 36.0625L21.653 35.0234L22.8093 35.0234L22.7936 34.6953L22.7936 34.3672L22.8093 33.7578L21.653 33.7578L21.653 32.7188L22.9186 32.7188C23.127 31.3438 23.6165 30.2865 24.3874 29.5469C25.1582 28.8021 26.1504 28.4297 27.3639 28.4297C28.4317 28.4297 29.3874 28.6771 30.2311 29.1719L29.6374 30.3203C28.7936 29.8828 28.0358 29.6641 27.3639 29.6641ZM30.8874 39.6953L31.1764 37.6328C31.4577 37.7995 31.7389 37.9271 32.0202 38.0156C32.3014 38.099 32.5697 38.1406 32.8249 38.1406C33.3926 38.1406 33.8301 37.9818 34.1374 37.6641C34.4447 37.3464 34.5983 36.8932 34.5983 36.3047C34.5983 35.6224 34.3613 35.1016 33.8874 34.7422C33.4134 34.3776 32.7285 34.1953 31.8327 34.1953C31.7337 34.1953 31.5801 34.2031 31.3718 34.2188C31.3249 34.2188 31.2858 34.2214 31.2546 34.2266L32.0436 28.5938L36.4889 28.5938L36.4889 30.5313L33.6296 30.5313L33.3405 32.6094L33.4186 32.6094C34.4915 32.6094 35.3301 32.9193 35.9343 33.5391C36.5384 34.1537 36.8405 35.0052 36.8405 36.0938C36.8405 37.3386 36.5046 38.3255 35.8327 39.0547C35.166 39.7787 34.2546 40.1406 33.0983 40.1406C32.666 40.1406 32.2702 40.1042 31.9108 40.0313C31.5514 39.9583 31.2103 39.8464 30.8874 39.6953ZM37.6849 40L38.3366 33.3464L40.0456 33.3464L40.3919 35.8848C40.4436 36.2706 40.4861 36.6413 40.5195 36.9968C40.556 37.3492 40.5849 37.6925 40.6061 38.0267C40.6608 37.4403 40.7064 36.9785 40.7429 36.6413C40.7823 36.301 40.8142 36.0488 40.8386 35.8848L41.2669 33.3464L42.9577 33.3464L43.5182 40L42.1738 40L42.0326 36.9102C42.0295 36.8373 42.025 36.7279 42.0189 36.582C41.9794 35.7739 41.9596 35.1116 41.9596 34.5951L41.0938 40L40.1322 40L39.3164 34.5586C39.3164 35.0113 39.2891 35.6584 39.2344 36.5C39.2222 36.6914 39.2131 36.8342 39.207 36.9284L39.002 40L37.6849 40Z" fill="black"/>
<circle cx="103" cy="163" r="69.4222" fill="#9740BE" fill-opacity="0.5" stroke="black" stroke-width="3.15556"/>
<path d="M103.526 97.7862C139.253 97.7862 168.214 126.748 168.214 162.475C168.214 198.201 139.253 227.163 103.526 227.163C67.7992 227.163 38.8375 198.201 38.8375 162.475C38.8375 126.748 67.7993 97.7861 103.526 97.7862Z" stroke="black" stroke-width="1.05185"/>
<path d="M81.9059 146.24C75.8122 146.24 72.0329 150.059 70.568 157.695L85.2165 157.695L85.2165 161.592L70.1579 161.592L70.0993 163.232L70.0993 165.049L70.1579 166.338L83.4001 166.338L83.4001 170.234L70.6266 170.234C71.3102 173.633 72.6188 176.27 74.5524 178.145C76.5055 180 79.1227 180.928 82.404 180.928C85.3727 180.928 88.3512 180.283 91.3395 178.994L91.3395 183.682C88.488 184.951 85.402 185.586 82.0817 185.586C77.4723 185.586 73.7419 184.287 70.8903 181.689C68.0583 179.072 66.193 175.254 65.2946 170.234L60.4899 170.234L60.4899 166.338L64.8258 166.338L64.7673 165.107L64.7673 163.877L64.8258 161.592L60.4899 161.592L60.4899 157.695L65.236 157.695C66.0173 152.539 67.8532 148.574 70.7438 145.801C73.6344 143.008 77.3551 141.611 81.9059 141.611C85.9098 141.611 89.4938 142.539 92.6579 144.395L90.4313 148.701C87.2673 147.061 84.4255 146.24 81.9059 146.24ZM95.1188 183.857L96.2028 176.123C97.2575 176.748 98.3122 177.227 99.3669 177.559C100.422 177.871 101.427 178.027 102.384 178.027C104.513 178.027 106.154 177.432 107.306 176.24C108.459 175.049 109.035 173.35 109.035 171.143C109.035 168.584 108.146 166.631 106.369 165.283C104.591 163.916 102.023 163.232 98.6637 163.232C98.2926 163.232 97.7165 163.262 96.9352 163.32C96.7594 163.32 96.613 163.33 96.4958 163.35L99.4548 142.227L116.125 142.227L116.125 149.492L105.402 149.492L104.318 157.285L104.611 157.285C108.634 157.285 111.779 158.447 114.045 160.772C116.31 163.076 117.443 166.27 117.443 170.352C117.443 175.02 116.183 178.721 113.664 181.455C111.164 184.17 107.746 185.527 103.41 185.527C101.789 185.527 100.304 185.391 98.9567 185.117C97.609 184.844 96.3297 184.424 95.1188 183.857ZM120.67 185L123.314 158.005L130.247 158.005L131.653 168.304C131.862 169.869 132.035 171.373 132.17 172.815C132.318 174.245 132.435 175.638 132.522 176.994C132.743 174.615 132.928 172.741 133.076 171.373C133.236 169.993 133.366 168.97 133.465 168.304L135.203 158.005L142.062 158.005L144.336 185L138.882 185L138.309 172.464C138.296 172.168 138.278 171.725 138.253 171.133C138.093 167.854 138.013 165.167 138.013 163.071L134.5 185L130.599 185L127.289 162.923C127.289 164.76 127.178 167.386 126.956 170.8C126.907 171.577 126.87 172.156 126.845 172.538L126.013 185L120.67 185Z" fill="black"/>
<rect x="42" y="221" width="126" height="26" fill="black" stroke="#9740BE" stroke-width="2"/>
<path d="M56.4032 233.78H59.3632V239.46C58.6032 240.033 57.7232 240.473 56.7232 240.78C55.7232 241.087 54.7166 241.24 53.7032 241.24C52.2499 241.24 50.9432 240.933 49.7832 240.32C48.6232 239.693 47.7099 238.833 47.0432 237.74C46.3899 236.633 46.0632 235.387 46.0632 234C46.0632 232.613 46.3899 231.373 47.0432 230.28C47.7099 229.173 48.6299 228.313 49.8032 227.7C50.9766 227.073 52.2966 226.76 53.7632 226.76C54.9899 226.76 56.1032 226.967 57.1032 227.38C58.1032 227.793 58.9432 228.393 59.6232 229.18L57.5432 231.1C56.5432 230.047 55.3366 229.52 53.9232 229.52C53.0299 229.52 52.2366 229.707 51.5432 230.08C50.8499 230.453 50.3099 230.98 49.9232 231.66C49.5366 232.34 49.3432 233.12 49.3432 234C49.3432 234.867 49.5366 235.64 49.9232 236.32C50.3099 237 50.8432 237.533 51.5232 237.92C52.2166 238.293 53.0032 238.48 53.8832 238.48C54.8166 238.48 55.6566 238.28 56.4032 237.88V233.78ZM71.5929 238H65.0929L63.8529 241H60.5329L66.7729 227H69.9729L76.2329 241H72.8329L71.5929 238ZM70.5729 235.54L68.3529 230.18L66.1329 235.54H70.5729ZM90.5254 227V241H87.8654L80.8854 232.5V241H77.6854V227H80.3654L87.3254 235.5V227H90.5254ZM100.618 241.24C99.1644 241.24 97.8511 240.927 96.6777 240.3C95.5177 239.673 94.6044 238.813 93.9377 237.72C93.2844 236.613 92.9577 235.373 92.9577 234C92.9577 232.627 93.2844 231.393 93.9377 230.3C94.6044 229.193 95.5177 228.327 96.6777 227.7C97.8511 227.073 99.1644 226.76 100.618 226.76C102.071 226.76 103.378 227.073 104.538 227.7C105.698 228.327 106.611 229.193 107.278 230.3C107.944 231.393 108.278 232.627 108.278 234C108.278 235.373 107.944 236.613 107.278 237.72C106.611 238.813 105.698 239.673 104.538 240.3C103.378 240.927 102.071 241.24 100.618 241.24ZM100.618 238.48C101.444 238.48 102.191 238.293 102.858 237.92C103.524 237.533 104.044 237 104.418 236.32C104.804 235.64 104.998 234.867 104.998 234C104.998 233.133 104.804 232.36 104.418 231.68C104.044 231 103.524 230.473 102.858 230.1C102.191 229.713 101.444 229.52 100.618 229.52C99.7911 229.52 99.0444 229.713 98.3777 230.1C97.7111 230.473 97.1844 231 96.7977 231.68C96.4244 232.36 96.2377 233.133 96.2377 234C96.2377 234.867 96.4244 235.64 96.7977 236.32C97.1844 237 97.7111 237.533 98.3777 237.92C99.0444 238.293 99.7911 238.48 100.618 238.48ZM116.773 227C118.013 227 119.086 227.207 119.993 227.62C120.913 228.033 121.619 228.62 122.113 229.38C122.606 230.14 122.853 231.04 122.853 232.08C122.853 233.107 122.606 234.007 122.113 234.78C121.619 235.54 120.913 236.127 119.993 236.54C119.086 236.94 118.013 237.14 116.773 237.14H113.953V241H110.713V227H116.773ZM116.593 234.5C117.566 234.5 118.306 234.293 118.813 233.88C119.319 233.453 119.573 232.853 119.573 232.08C119.573 231.293 119.319 230.693 118.813 230.28C118.306 229.853 117.566 229.64 116.593 229.64H113.953V234.5H116.593ZM132.141 241.24C130.688 241.24 129.375 240.927 128.201 240.3C127.041 239.673 126.128 238.813 125.461 237.72C124.808 236.613 124.481 235.373 124.481 234C124.481 232.627 124.808 231.393 125.461 230.3C126.128 229.193 127.041 228.327 128.201 227.7C129.375 227.073 130.688 226.76 132.141 226.76C133.595 226.76 134.901 227.073 136.061 227.7C137.221 228.327 138.135 229.193 138.801 230.3C139.468 231.393 139.801 232.627 139.801 234C139.801 235.373 139.468 236.613 138.801 237.72C138.135 238.813 137.221 239.673 136.061 240.3C134.901 240.927 133.595 241.24 132.141 241.24ZM132.141 238.48C132.968 238.48 133.715 238.293 134.381 237.92C135.048 237.533 135.568 237 135.941 236.32C136.328 235.64 136.521 234.867 136.521 234C136.521 233.133 136.328 232.36 135.941 231.68C135.568 231 135.048 230.473 134.381 230.1C133.715 229.713 132.968 229.52 132.141 229.52C131.315 229.52 130.568 229.713 129.901 230.1C129.235 230.473 128.708 231 128.321 231.68C127.948 232.36 127.761 233.133 127.761 234C127.761 234.867 127.948 235.64 128.321 236.32C128.708 237 129.235 237.533 129.901 237.92C130.568 238.293 131.315 238.48 132.141 238.48ZM142.236 227H145.476V238.36H152.496V241H142.236V227ZM159.581 236.04V241H156.341V236L150.921 227H154.361L158.101 233.22L161.841 227H165.021L159.581 236.04Z" fill="white"/>
<defs>
<pattern id="pattern0_129_2301" patternUnits="userSpaceOnUse" patternTransform="matrix(16.05 0 0 8.2125 20.894 24.8931)" preserveAspectRatio="none" viewBox="-0.353516 -0.356445 53.5 27.375" width="1" height="1">
<use xlink:href="#pattern0_129_2301_inner" transform="translate(-53.5 -27.375)"/>
<use xlink:href="#pattern0_129_2301_inner" transform="translate(0 -27.375)"/>
<use xlink:href="#pattern0_129_2301_inner" transform="translate(-53.5 0)"/>
<g id="pattern0_129_2301_inner">
<path d="M0 0L27 26.5L53.5 0M0 9.5L27 36.5L53.5 9.5" stroke="black" stroke-opacity="0.2"/>
</g>
</pattern></defs>
</svg>
