<svg width="211" height="328" viewBox="0 0 211 328" fill="none" xmlns="http://www.w3.org/2000/svg">
<rect width="211" height="328" rx="16" fill="white"/>
<rect x="11.5" y="11.5" width="187" height="306" stroke="black"/>
<path d="M159.211 145.664C157.586 145.664 156.578 146.682 156.188 148.719H160.094V149.758H156.078L156.062 150.195V150.68L156.078 151.023H159.609V152.062H156.203C156.385 152.969 156.734 153.672 157.25 154.172C157.771 154.667 158.469 154.914 159.344 154.914C160.135 154.914 160.93 154.742 161.727 154.398V155.648C160.966 155.987 160.143 156.156 159.258 156.156C158.029 156.156 157.034 155.81 156.273 155.117C155.518 154.419 155.021 153.401 154.781 152.062H153.5V151.023H154.656L154.641 150.695V150.367L154.656 149.758H153.5V148.719H154.766C154.974 147.344 155.464 146.286 156.234 145.547C157.005 144.802 157.997 144.43 159.211 144.43C160.279 144.43 161.234 144.677 162.078 145.172L161.484 146.32C160.641 145.883 159.883 145.664 159.211 145.664ZM164.914 156V146.477H163.828V144.594H167.102V156H164.914ZM169.553 156L170.859 147.422H172.781L174.434 152.473C174.469 152.578 174.506 152.732 174.545 152.936C174.588 153.139 174.627 153.371 174.662 153.633C174.693 153.367 174.729 153.131 174.768 152.924C174.807 152.713 174.844 152.559 174.879 152.461L176.561 147.422H178.453L179.766 156H178.025L177.398 150.826C177.352 150.443 177.32 150.154 177.305 149.959C177.289 149.764 177.281 149.582 177.281 149.414C177.281 149.324 177.281 149.258 177.281 149.215C177.285 149.168 177.289 149.127 177.293 149.092C177.234 149.428 177.178 149.719 177.123 149.965C177.072 150.207 177.025 150.391 176.982 150.516L175.166 156H174.135L172.348 150.516C172.332 150.465 172.297 150.324 172.242 150.094C172.191 149.863 172.119 149.527 172.025 149.086V149.338C172.025 149.736 171.99 150.225 171.92 150.803L171.914 150.826L171.293 156H169.553Z" fill="black"/>
<path d="M159.211 194.664C157.586 194.664 156.578 195.682 156.188 197.719H160.094V198.758H156.078L156.062 199.195V199.68L156.078 200.023H159.609V201.062H156.203C156.385 201.969 156.734 202.672 157.25 203.172C157.771 203.667 158.469 203.914 159.344 203.914C160.135 203.914 160.93 203.742 161.727 203.398V204.648C160.966 204.987 160.143 205.156 159.258 205.156C158.029 205.156 157.034 204.81 156.273 204.117C155.518 203.419 155.021 202.401 154.781 201.062H153.5V200.023H154.656L154.641 199.695V199.367L154.656 198.758H153.5V197.719H154.766C154.974 196.344 155.464 195.286 156.234 194.547C157.005 193.802 157.997 193.43 159.211 193.43C160.279 193.43 161.234 193.677 162.078 194.172L161.484 195.32C160.641 194.883 159.883 194.664 159.211 194.664ZM162.781 205L165.586 199.547C165.93 198.88 166.193 198.263 166.375 197.695C166.562 197.128 166.656 196.661 166.656 196.297C166.656 195.938 166.583 195.661 166.438 195.469C166.297 195.276 166.094 195.18 165.828 195.18C165.443 195.18 165.177 195.336 165.031 195.648C164.891 195.956 164.82 196.565 164.82 197.477H162.961C162.956 197.424 162.951 197.367 162.945 197.305C162.945 197.237 162.945 197.141 162.945 197.016C162.945 195.849 163.201 194.964 163.711 194.359C164.221 193.75 164.969 193.445 165.953 193.445C166.797 193.445 167.466 193.701 167.961 194.211C168.456 194.716 168.703 195.401 168.703 196.266C168.703 196.854 168.576 197.505 168.32 198.219C168.065 198.927 167.57 199.945 166.836 201.273L165.859 203.031H168.414V205H162.781ZM169.553 205L170.859 196.422H172.781L174.434 201.473C174.469 201.578 174.506 201.732 174.545 201.936C174.588 202.139 174.627 202.371 174.662 202.633C174.693 202.367 174.729 202.131 174.768 201.924C174.807 201.713 174.844 201.559 174.879 201.461L176.561 196.422H178.453L179.766 205H178.025L177.398 199.826C177.352 199.443 177.32 199.154 177.305 198.959C177.289 198.764 177.281 198.582 177.281 198.414C177.281 198.324 177.281 198.258 177.281 198.215C177.285 198.168 177.289 198.127 177.293 198.092C177.234 198.428 177.178 198.719 177.123 198.965C177.072 199.207 177.025 199.391 176.982 199.516L175.166 205H174.135L172.348 199.516C172.332 199.465 172.297 199.324 172.242 199.094C172.191 198.863 172.119 198.527 172.025 198.086V198.338C172.025 198.736 171.99 199.225 171.92 199.803L171.914 199.826L171.293 205H169.553Z" fill="black"/>
<path d="M29.4902 113.919L28.9678 114.192C28.5837 113.473 28.2939 112.711 28.0986 111.907C27.9066 111.1 27.8105 110.25 27.8105 109.358C27.8105 108.411 27.9049 107.539 28.0938 106.741C28.2858 105.944 28.5771 105.2 28.9678 104.51L29.4902 104.749C29.1387 105.442 28.8783 106.165 28.709 106.917C28.543 107.666 28.46 108.479 28.46 109.358C28.46 110.267 28.5446 111.093 28.7139 111.839C28.8831 112.584 29.1419 113.278 29.4902 113.919ZM30.7402 112V104.568L35.9697 110.281V104.852H36.7803V112.278L31.5508 106.629V112H30.7402ZM39.1338 107.532V109.729C39.1338 110.371 39.2282 110.82 39.417 111.077C39.609 111.331 39.9313 111.458 40.3838 111.458C40.8363 111.458 41.1553 111.333 41.3408 111.082C41.5296 110.828 41.624 110.377 41.624 109.729V107.532H42.4053V110.14C42.4053 110.813 42.2327 111.325 41.8877 111.673C41.5426 112.018 41.0348 112.19 40.3643 112.19C39.7002 112.19 39.1956 112.016 38.8506 111.668C38.5055 111.32 38.333 110.81 38.333 110.14V107.532H39.1338ZM50.1055 112V109.368C50.1055 108.916 50.0143 108.58 49.832 108.362C49.6497 108.141 49.3698 108.03 48.9922 108.03C48.7871 108.03 48.5967 108.073 48.4209 108.157C48.2484 108.239 48.1019 108.356 47.9814 108.509C47.8936 108.626 47.8301 108.763 47.791 108.919C47.752 109.075 47.7324 109.332 47.7324 109.69V112H46.9951V109.368C46.9951 108.916 46.904 108.58 46.7217 108.362C46.5394 108.141 46.2594 108.03 45.8818 108.03C45.6768 108.03 45.4847 108.073 45.3057 108.157C45.1299 108.239 44.9818 108.356 44.8613 108.509C44.7767 108.623 44.7148 108.755 44.6758 108.904C44.64 109.054 44.6221 109.316 44.6221 109.69V112H43.8848V107.532H44.6318V108.221C44.8174 107.934 45.0387 107.721 45.2959 107.581C45.5531 107.441 45.8493 107.371 46.1846 107.371C46.5459 107.371 46.8535 107.449 47.1074 107.605C47.3613 107.758 47.5534 107.983 47.6836 108.279C47.8757 107.973 48.1019 107.745 48.3623 107.596C48.626 107.446 48.9303 107.371 49.2754 107.371C49.7734 107.371 50.1624 107.511 50.4424 107.791C50.7223 108.071 50.8623 108.46 50.8623 108.958V112H50.1055ZM53.0986 109.788C53.0986 110.309 53.2321 110.716 53.499 111.009C53.766 111.302 54.1322 111.448 54.5977 111.448C55.0534 111.448 55.4098 111.294 55.667 110.984C55.9274 110.672 56.0576 110.241 56.0576 109.69C56.0576 109.202 55.9307 108.82 55.6768 108.543C55.4229 108.266 55.0713 108.128 54.6221 108.128C54.1663 108.128 53.7985 108.281 53.5186 108.587C53.2386 108.89 53.0986 109.29 53.0986 109.788ZM52.3711 104.432H53.1279V108.372C53.3005 108.04 53.5234 107.791 53.7969 107.625C54.0703 107.456 54.391 107.371 54.7588 107.371C55.4001 107.371 55.9111 107.589 56.292 108.025C56.6761 108.462 56.8682 109.046 56.8682 109.778C56.8682 110.504 56.6729 111.089 56.2822 111.531C55.8916 111.971 55.374 112.19 54.7295 112.19C54.3844 112.19 54.0703 112.104 53.7871 111.932C53.5039 111.756 53.2744 111.508 53.0986 111.189V112H52.3711V104.432ZM61.2627 109.261C61.2367 108.867 61.1048 108.564 60.8672 108.353C60.6328 108.138 60.3105 108.03 59.9004 108.03C59.5293 108.03 59.2201 108.143 58.9727 108.367C58.7253 108.589 58.582 108.886 58.543 109.261H61.2627ZM62.083 109.881H58.543V109.949C58.543 110.428 58.6797 110.815 58.9531 111.111C59.2266 111.404 59.583 111.551 60.0225 111.551C60.3219 111.551 60.5921 111.471 60.833 111.312C61.0739 111.149 61.2871 110.905 61.4727 110.579L62.0537 110.97C61.8291 111.373 61.5426 111.678 61.1943 111.883C60.846 112.088 60.4424 112.19 59.9834 112.19C59.3031 112.19 58.7529 111.966 58.333 111.517C57.9131 111.067 57.7031 110.478 57.7031 109.749C57.7031 109.049 57.9115 108.476 58.3281 108.03C58.7448 107.584 59.2803 107.361 59.9346 107.361C60.5954 107.361 61.1178 107.573 61.502 107.996C61.8893 108.419 62.083 108.997 62.083 109.729V109.881ZM63.25 112V107.532H63.9287V108.46C64.1338 108.073 64.3519 107.796 64.583 107.63C64.8141 107.464 65.0957 107.381 65.4277 107.381C65.5189 107.381 65.6068 107.389 65.6914 107.405C65.776 107.418 65.8607 107.439 65.9453 107.469L65.6914 108.157C65.6035 108.128 65.5205 108.107 65.4424 108.094C65.3643 108.077 65.2894 108.069 65.2178 108.069C64.8141 108.069 64.5114 108.216 64.3096 108.509C64.1077 108.799 64.0068 109.236 64.0068 109.822V112H63.25ZM70.1543 109.778C70.1543 110.25 70.3122 110.651 70.6279 110.979C70.9437 111.305 71.3262 111.468 71.7754 111.468C72.2214 111.468 72.6006 111.305 72.9131 110.979C73.2256 110.651 73.3818 110.25 73.3818 109.778C73.3818 109.306 73.2256 108.908 72.9131 108.582C72.6006 108.253 72.2214 108.089 71.7754 108.089C71.3229 108.089 70.9388 108.253 70.623 108.582C70.3105 108.908 70.1543 109.306 70.1543 109.778ZM69.3438 109.778C69.3438 109.45 69.404 109.14 69.5244 108.851C69.6449 108.558 69.8206 108.297 70.0518 108.069C70.2829 107.841 70.5449 107.669 70.8379 107.552C71.1309 107.431 71.4434 107.371 71.7754 107.371C72.1009 107.371 72.4085 107.431 72.6982 107.552C72.9912 107.672 73.2565 107.848 73.4941 108.079C73.7253 108.304 73.901 108.562 74.0215 108.855C74.1419 109.145 74.2021 109.453 74.2021 109.778C74.2021 110.104 74.1419 110.411 74.0215 110.701C73.901 110.988 73.7253 111.243 73.4941 111.468C73.2565 111.702 72.9896 111.881 72.6934 112.005C72.4004 112.129 72.0944 112.19 71.7754 112.19C71.4466 112.19 71.1341 112.129 70.8379 112.005C70.5449 111.884 70.2829 111.71 70.0518 111.482C69.8206 111.248 69.6449 110.988 69.5244 110.701C69.404 110.415 69.3438 110.107 69.3438 109.778ZM75.5986 112V108.162H74.7393V107.532H75.5986V106.238C75.5986 105.496 75.6914 104.995 75.877 104.734C76.0658 104.471 76.4027 104.339 76.8877 104.339C77.0081 104.339 77.1221 104.347 77.2295 104.363C77.3402 104.38 77.446 104.406 77.5469 104.441V105.232C77.4492 105.177 77.3499 105.136 77.249 105.11C77.1514 105.084 77.0505 105.071 76.9463 105.071C76.7217 105.071 76.5671 105.143 76.4824 105.286C76.3978 105.429 76.3555 105.781 76.3555 106.341V107.532H77.5469V108.162H76.375V112H75.5986ZM28.5186 121.778C28.5186 122.28 28.6569 122.682 28.9336 122.984C29.2103 123.287 29.5765 123.438 30.0322 123.438C30.4782 123.438 30.8281 123.3 31.082 123.023C31.3392 122.747 31.4678 122.363 31.4678 121.871C31.4678 121.321 31.3392 120.89 31.082 120.577C30.8281 120.265 30.4733 120.108 30.0176 120.108C29.5521 120.108 29.1859 120.257 28.9189 120.553C28.652 120.849 28.5186 121.257 28.5186 121.778ZM27.7812 126.178V119.532H28.5088V120.372C28.6813 120.05 28.9092 119.802 29.1924 119.63C29.4756 119.457 29.7913 119.371 30.1396 119.371C30.7842 119.371 31.3018 119.591 31.6924 120.03C32.083 120.47 32.2783 121.052 32.2783 121.778C32.2783 122.517 32.0863 123.105 31.7021 123.541C31.3213 123.974 30.8102 124.19 30.1689 124.19C29.8011 124.19 29.4805 124.107 29.207 123.941C28.9336 123.772 28.7106 123.521 28.5381 123.189V126.178H27.7812ZM33.5137 124V119.532H34.1924V120.46C34.3975 120.073 34.6156 119.796 34.8467 119.63C35.0778 119.464 35.3594 119.381 35.6914 119.381C35.7826 119.381 35.8704 119.389 35.9551 119.405C36.0397 119.418 36.1243 119.439 36.209 119.469L35.9551 120.157C35.8672 120.128 35.7842 120.107 35.7061 120.094C35.6279 120.077 35.5531 120.069 35.4814 120.069C35.0778 120.069 34.7751 120.216 34.5732 120.509C34.3714 120.799 34.2705 121.236 34.2705 121.822V124H33.5137ZM37.4688 121.778C37.4688 122.25 37.6266 122.651 37.9424 122.979C38.2581 123.305 38.6406 123.468 39.0898 123.468C39.5358 123.468 39.915 123.305 40.2275 122.979C40.54 122.651 40.6963 122.25 40.6963 121.778C40.6963 121.306 40.54 120.908 40.2275 120.582C39.915 120.253 39.5358 120.089 39.0898 120.089C38.6374 120.089 38.2533 120.253 37.9375 120.582C37.625 120.908 37.4688 121.306 37.4688 121.778ZM36.6582 121.778C36.6582 121.45 36.7184 121.14 36.8389 120.851C36.9593 120.558 37.1351 120.297 37.3662 120.069C37.5973 119.841 37.8594 119.669 38.1523 119.552C38.4453 119.431 38.7578 119.371 39.0898 119.371C39.4154 119.371 39.723 119.431 40.0127 119.552C40.3057 119.672 40.571 119.848 40.8086 120.079C41.0397 120.304 41.2155 120.562 41.3359 120.855C41.4564 121.145 41.5166 121.453 41.5166 121.778C41.5166 122.104 41.4564 122.411 41.3359 122.701C41.2155 122.988 41.0397 123.243 40.8086 123.468C40.571 123.702 40.304 123.881 40.0078 124.005C39.7148 124.129 39.4089 124.19 39.0898 124.19C38.7611 124.19 38.4486 124.129 38.1523 124.005C37.8594 123.884 37.5973 123.71 37.3662 123.482C37.1351 123.248 36.9593 122.988 36.8389 122.701C36.7184 122.415 36.6582 122.107 36.6582 121.778ZM43.4502 121.778C43.4502 122.28 43.5885 122.682 43.8652 122.984C44.1419 123.287 44.5081 123.438 44.9639 123.438C45.4098 123.438 45.7598 123.3 46.0137 123.023C46.2708 122.747 46.3994 122.363 46.3994 121.871C46.3994 121.321 46.2708 120.89 46.0137 120.577C45.7598 120.265 45.4049 120.108 44.9492 120.108C44.4837 120.108 44.1175 120.257 43.8506 120.553C43.5837 120.849 43.4502 121.257 43.4502 121.778ZM42.7129 126.178V119.532H43.4404V120.372C43.613 120.05 43.8408 119.802 44.124 119.63C44.4072 119.457 44.723 119.371 45.0713 119.371C45.7158 119.371 46.2334 119.591 46.624 120.03C47.0146 120.47 47.21 121.052 47.21 121.778C47.21 122.517 47.0179 123.105 46.6338 123.541C46.2529 123.974 45.7419 124.19 45.1006 124.19C44.7327 124.19 44.4121 124.107 44.1387 123.941C43.8652 123.772 43.6423 123.521 43.4697 123.189V126.178H42.7129ZM51.6045 121.261C51.5785 120.867 51.4466 120.564 51.209 120.353C50.9746 120.138 50.6523 120.03 50.2422 120.03C49.8711 120.03 49.5618 120.143 49.3145 120.367C49.0671 120.589 48.9238 120.886 48.8848 121.261H51.6045ZM52.4248 121.881H48.8848V121.949C48.8848 122.428 49.0215 122.815 49.2949 123.111C49.5684 123.404 49.9248 123.551 50.3643 123.551C50.6637 123.551 50.9339 123.471 51.1748 123.312C51.4157 123.149 51.6289 122.905 51.8145 122.579L52.3955 122.97C52.1709 123.373 51.8844 123.678 51.5361 123.883C51.1878 124.088 50.7842 124.19 50.3252 124.19C49.6449 124.19 49.0947 123.966 48.6748 123.517C48.2549 123.067 48.0449 122.478 48.0449 121.749C48.0449 121.049 48.2533 120.476 48.6699 120.03C49.0866 119.584 49.6221 119.361 50.2764 119.361C50.9372 119.361 51.4596 119.573 51.8438 119.996C52.2311 120.419 52.4248 120.997 52.4248 121.729V121.881ZM53.5918 124V119.532H54.2705V120.46C54.4756 120.073 54.6937 119.796 54.9248 119.63C55.1559 119.464 55.4375 119.381 55.7695 119.381C55.8607 119.381 55.9486 119.389 56.0332 119.405C56.1178 119.418 56.2025 119.439 56.2871 119.469L56.0332 120.157C55.9453 120.128 55.8623 120.107 55.7842 120.094C55.7061 120.077 55.6312 120.069 55.5596 120.069C55.1559 120.069 54.8532 120.216 54.6514 120.509C54.4495 120.799 54.3486 121.236 54.3486 121.822V124H53.5918ZM57.2148 120.162H56.3945V119.532H57.2148V117.73H57.9961V119.532H58.8164V120.162H57.9961V124H57.2148V120.162ZM59.5439 117.379C59.5439 117.226 59.5977 117.096 59.7051 116.988C59.8158 116.878 59.9492 116.822 60.1055 116.822C60.2585 116.822 60.3887 116.878 60.4961 116.988C60.6068 117.099 60.6621 117.232 60.6621 117.389C60.6621 117.542 60.6084 117.672 60.501 117.779C60.3936 117.887 60.2617 117.94 60.1055 117.94C59.9492 117.94 59.8158 117.887 59.7051 117.779C59.5977 117.672 59.5439 117.538 59.5439 117.379ZM59.7246 124V119.532H60.4961V124H59.7246ZM65.2764 121.261C65.2503 120.867 65.1185 120.564 64.8809 120.353C64.6465 120.138 64.3242 120.03 63.9141 120.03C63.543 120.03 63.2337 120.143 62.9863 120.367C62.7389 120.589 62.5957 120.886 62.5566 121.261H65.2764ZM66.0967 121.881H62.5566V121.949C62.5566 122.428 62.6934 122.815 62.9668 123.111C63.2402 123.404 63.5967 123.551 64.0361 123.551C64.3356 123.551 64.6058 123.471 64.8467 123.312C65.0876 123.149 65.3008 122.905 65.4863 122.579L66.0674 122.97C65.8428 123.373 65.5563 123.678 65.208 123.883C64.8597 124.088 64.4561 124.19 63.9971 124.19C63.3167 124.19 62.7666 123.966 62.3467 123.517C61.9268 123.067 61.7168 122.478 61.7168 121.749C61.7168 121.049 61.9251 120.476 62.3418 120.03C62.7585 119.584 63.2939 119.361 63.9482 119.361C64.609 119.361 65.1315 119.573 65.5156 119.996C65.903 120.419 66.0967 120.997 66.0967 121.729V121.881ZM66.7803 123.248L67.4346 122.809C67.5583 123.046 67.7145 123.225 67.9033 123.346C68.0921 123.463 68.3151 123.521 68.5723 123.521C68.8229 123.521 69.0247 123.46 69.1777 123.336C69.334 123.212 69.4121 123.049 69.4121 122.848C69.4121 122.691 69.3584 122.561 69.251 122.457C69.1468 122.353 68.9661 122.257 68.709 122.169C68.6829 122.159 68.6406 122.145 68.582 122.125C67.4948 121.751 66.9512 121.282 66.9512 120.719C66.9512 120.322 67.0977 119.998 67.3906 119.747C67.6836 119.496 68.0645 119.371 68.5332 119.371C68.9206 119.371 69.2526 119.449 69.5293 119.605C69.806 119.758 70.0046 119.977 70.125 120.26L69.5049 120.641C69.4137 120.436 69.2786 120.278 69.0996 120.167C68.9238 120.056 68.7188 120.001 68.4844 120.001C68.2598 120.001 68.0758 120.064 67.9326 120.191C67.7926 120.315 67.7227 120.475 67.7227 120.67C67.7227 120.943 68.0189 121.173 68.6113 121.358C68.722 121.394 68.8099 121.422 68.875 121.441C69.36 121.598 69.6969 121.777 69.8857 121.979C70.0778 122.177 70.1738 122.441 70.1738 122.77C70.1738 123.193 70.0225 123.536 69.7197 123.8C69.4202 124.06 69.028 124.19 68.543 124.19C68.1263 124.19 67.7715 124.112 67.4785 123.956C67.1888 123.8 66.9561 123.564 66.7803 123.248ZM70.9355 125.919C71.2839 125.278 71.5426 124.584 71.7119 123.839C71.8812 123.093 71.9658 122.267 71.9658 121.358C71.9658 120.479 71.8812 119.666 71.7119 118.917C71.5459 118.165 71.2871 117.442 70.9355 116.749L71.4531 116.51C71.847 117.2 72.1383 117.944 72.3271 118.741C72.5192 119.539 72.6152 120.411 72.6152 121.358C72.6152 122.25 72.5176 123.1 72.3223 123.907C72.1302 124.711 71.8405 125.473 71.4531 126.192L70.9355 125.919Z" fill="black"/>
<rect x="27.5" y="28.5" width="160" height="57" fill="#EFFFD7" stroke="black"/>
<circle cx="38.5" cy="39.5" r="22" fill="#D9D9D9" stroke="black"/>
<path d="M30.957 31.9121C28.1133 31.9121 26.3496 33.694 25.666 37.2578H32.502V39.0762H25.4746L25.4473 39.8418V40.6895L25.4746 41.291H31.6543V43.1094H25.6934C26.0124 44.6953 26.623 45.9258 27.5254 46.8008C28.4368 47.6667 29.6582 48.0996 31.1895 48.0996C32.5749 48.0996 33.9648 47.7988 35.3594 47.1973V49.3848C34.0286 49.9772 32.5885 50.2734 31.0391 50.2734C28.888 50.2734 27.1471 49.6673 25.8164 48.4551C24.4948 47.2337 23.6243 45.4518 23.2051 43.1094H20.9629V41.291H22.9863L22.959 40.7168V40.1426L22.9863 39.0762H20.9629V37.2578H23.1777C23.5423 34.8516 24.3991 33.0013 25.748 31.707C27.097 30.4036 28.8333 29.752 30.957 29.752C32.8255 29.752 34.498 30.1849 35.9746 31.0508L34.9355 33.0605C33.459 32.2949 32.1328 31.9121 30.957 31.9121ZM37.2051 50L42.1133 40.457C42.7148 39.2904 43.1751 38.2103 43.4941 37.2168C43.8223 36.2233 43.9863 35.4076 43.9863 34.7695C43.9863 34.1406 43.8587 33.6576 43.6035 33.3203C43.3574 32.9831 43.002 32.8145 42.5371 32.8145C41.8626 32.8145 41.3978 33.0879 41.1426 33.6348C40.8965 34.1725 40.7734 35.2389 40.7734 36.834H37.5195C37.5104 36.7428 37.5013 36.6426 37.4922 36.5332C37.4922 36.4147 37.4922 36.2461 37.4922 36.0273C37.4922 33.9857 37.9388 32.4362 38.832 31.3789C39.7253 30.3125 41.0332 29.7793 42.7559 29.7793C44.2324 29.7793 45.4036 30.2259 46.2695 31.1191C47.1354 32.0033 47.5684 33.2018 47.5684 34.7148C47.5684 35.7448 47.3451 36.8841 46.8984 38.1328C46.4518 39.3724 45.5859 41.1543 44.3008 43.4785L42.5918 46.5547H47.0625V50H37.2051ZM48.9277 50L49.7656 41.4453H51.9629L52.4082 44.709C52.4746 45.2051 52.5293 45.6816 52.5723 46.1387C52.6191 46.5918 52.6562 47.0332 52.6836 47.4629C52.7539 46.709 52.8125 46.1152 52.8594 45.6816C52.9102 45.2441 52.9512 44.9199 52.9824 44.709L53.5332 41.4453H55.707L56.4277 50H54.6992L54.5176 46.0273C54.5137 45.9336 54.5078 45.793 54.5 45.6055C54.4492 44.5664 54.4238 43.7148 54.4238 43.0508L53.3105 50H52.0742L51.0254 43.0039C51.0254 43.5859 50.9902 44.418 50.9199 45.5C50.9043 45.7461 50.8926 45.9297 50.8848 46.0508L50.6211 50H48.9277Z" fill="black"/>
<path d="M70.5 139.5V163C70.5 164.933 68.933 166.5 67 166.5H51C49.067 166.5 47.5 164.933 47.5 163V139.5H70.5Z" fill="white" stroke="black"/>
<path d="M51 129.5H67C68.933 129.5 70.5 131.067 70.5 133V140.5H47.5V133C47.5 131.067 49.067 129.5 51 129.5Z" fill="#EFFFD7" stroke="black"/>
<path d="M57.377 160V148.096H56.0195V145.742H60.1113V160H57.377Z" fill="black"/>
<path d="M62.701 182.984L71.1067 204.929C71.7981 206.734 70.8953 208.758 69.0902 209.45L54.1488 215.173C52.3436 215.864 50.3198 214.961 49.6284 213.156L41.2227 191.211L62.701 182.984Z" fill="white" stroke="black"/>
<path d="M40.9142 180.62L55.8556 174.897C57.6608 174.206 59.6846 175.109 60.376 176.914L63.0587 183.917L41.5804 192.144L38.8977 185.14C38.2063 183.335 39.1091 181.312 40.9142 180.62Z" fill="#EFFFD7" stroke="black"/>
<path d="M70.5 186.501V210.001C70.5 211.934 68.933 213.501 67 213.501H51C49.067 213.501 47.5 211.934 47.5 210.001V186.501H70.5Z" fill="white" stroke="black"/>
<path d="M51 176.501H67C68.933 176.501 70.5 178.068 70.5 180.001V187.501H47.5V180.001C47.5 178.068 49.067 176.501 51 176.501Z" fill="#EFFFD7" stroke="black"/>
<path d="M54.7109 207.001L58.2168 200.185C58.6465 199.351 58.9753 198.58 59.2031 197.87C59.4375 197.16 59.5547 196.578 59.5547 196.122C59.5547 195.673 59.4635 195.328 59.2812 195.087C59.1055 194.846 58.8516 194.726 58.5195 194.726C58.0378 194.726 57.7057 194.921 57.5234 195.312C57.3477 195.696 57.2598 196.457 57.2598 197.597H54.9355C54.929 197.532 54.9225 197.46 54.916 197.382C54.916 197.297 54.916 197.177 54.916 197.021C54.916 195.562 55.235 194.455 55.873 193.7C56.5111 192.938 57.4453 192.558 58.6758 192.558C59.7305 192.558 60.5671 192.877 61.1855 193.515C61.804 194.146 62.1133 195.002 62.1133 196.083C62.1133 196.819 61.9538 197.632 61.6348 198.524C61.3158 199.41 60.6973 200.683 59.7793 202.343L58.5586 204.54H61.752V207.001H54.7109Z" fill="black"/>
<path d="M138.664 120V108.562H141.352C142.117 108.562 142.677 108.607 143.031 108.695C143.391 108.779 143.706 108.924 143.977 109.133C144.315 109.398 144.578 109.755 144.766 110.203C144.953 110.646 145.047 111.138 145.047 111.68C145.047 112.617 144.784 113.331 144.258 113.82C143.737 114.305 142.971 114.547 141.961 114.547H141.719L146.086 120H144.359L140.188 114.547H139.992V120H138.664ZM139.992 109.711V113.539H141.031C142.094 113.539 142.805 113.404 143.164 113.133C143.523 112.857 143.703 112.378 143.703 111.695C143.703 110.961 143.518 110.448 143.148 110.156C142.779 109.859 142.073 109.711 141.031 109.711H139.992ZM147.227 120V108.562H153.258V109.805H148.586V113.086H153.258V114.352H148.586V118.734H153.258V120H147.227ZM155.57 120V108.109L163.938 117.25V108.562H165.234V120.445L156.867 111.406V120H155.57ZM169.977 120V109.859H166.742V108.562H174.57V109.859H171.352V120H169.977Z" fill="black"/>
<g clip-path="url(#clip0_120_1983)">
<path d="M175.682 69.4409C176.464 69.4409 176.668 68.8648 176.86 68.8648H177.196C177.485 68.8648 177.635 69.181 177.967 69.392V70.7258H177.38C177.107 70.7258 176.886 70.9473 176.886 71.2207V72.3054H180.386V71.2207C180.386 70.9474 180.165 70.7258 179.891 70.7258H179.306V69.392C179.637 69.181 179.788 68.8648 180.076 68.8648H180.413C180.605 68.8648 180.809 69.4409 181.59 69.4409C182.187 69.4409 182.67 68.9572 182.67 68.3605C182.67 67.763 182.187 67.2798 181.59 67.2798C180.809 67.2798 180.605 67.8556 180.413 67.8556H180.076C179.644 67.8556 179.524 67.1445 178.636 67.1445C177.749 67.1445 177.629 67.8556 177.196 67.8556H176.86C176.668 67.8556 176.464 67.2798 175.682 67.2798C175.086 67.2798 174.602 67.763 174.602 68.3605C174.602 68.9572 175.086 69.4409 175.682 69.4409Z" fill="black"/>
<path d="M173.249 78.7244L169.947 77.8072C169.683 77.7341 169.411 77.8884 169.338 78.1515L169.018 79.3005C168.945 79.5638 169.099 79.8366 169.363 79.9098L172.664 80.8272C172.928 80.9004 173.2 80.7463 173.274 80.483L173.593 79.3339C173.666 79.0707 173.512 78.7979 173.249 78.7244Z" fill="black"/>
<path d="M186.464 71.9896L185.522 71.6574C185.349 71.596 185.16 71.596 184.986 71.6574L184.045 71.9896C183.724 72.1034 183.509 72.4074 183.509 72.7482V76.1287C183.509 76.4695 183.724 76.7737 184.045 76.8869L184.986 77.2194C185.16 77.2803 185.349 77.2803 185.522 77.2194L186.463 76.8869C186.785 76.7737 187 76.4695 187 76.1287V72.7482C187 72.4074 186.785 72.1034 186.464 71.9896Z" fill="black"/>
<path d="M183.072 72.752C181.068 72.752 177.829 72.752 176.045 72.752C175.547 72.7517 175.062 72.8209 174.607 72.9501C173.81 73.1748 173.115 73.5782 172.536 74.0603C171.666 74.787 171.032 75.6822 170.54 76.5948C170.395 76.8647 170.265 77.1372 170.144 77.4093L173.559 78.3583C173.688 78.1072 173.828 77.8676 173.975 77.6495C174.298 77.1698 174.656 76.7992 174.996 76.5745C175.167 76.461 175.333 76.3806 175.501 76.3266C175.67 76.2732 175.843 76.244 176.045 76.2437C177.832 76.2437 181.078 76.2437 183.081 76.2437C183.076 76.206 183.072 76.1677 183.072 76.1288V72.752H183.072Z" fill="black"/>
<path d="M169.33 83.8976C169.33 84.4271 169.759 84.856 170.288 84.856C170.817 84.856 171.247 84.4271 171.247 83.8976C171.247 83.3681 170.293 81.7754 170.288 81.7754C170.283 81.7754 169.33 83.3681 169.33 83.8976Z" fill="black"/>
</g>
<path d="M74.9922 203.535L74.5742 203.754C74.2669 203.178 74.0352 202.569 73.8789 201.926C73.7253 201.28 73.6484 200.6 73.6484 199.887C73.6484 199.129 73.724 198.431 73.875 197.793C74.0286 197.155 74.2617 196.56 74.5742 196.008L74.9922 196.199C74.7109 196.754 74.5026 197.332 74.3672 197.934C74.2344 198.533 74.168 199.184 74.168 199.887C74.168 200.613 74.2357 201.275 74.3711 201.871C74.5065 202.467 74.7135 203.022 74.9922 203.535ZM80.6328 197.648C80.3594 197.352 80.0677 197.133 79.7578 196.992C79.4479 196.849 79.1055 196.777 78.7305 196.777C78.4284 196.777 78.1328 196.839 77.8438 196.961C77.5573 197.083 77.3086 197.254 77.0977 197.473C76.8789 197.699 76.7148 197.953 76.6055 198.234C76.4961 198.513 76.4414 198.822 76.4414 199.16C76.4414 199.426 76.474 199.671 76.5391 199.895C76.6042 200.118 76.7018 200.324 76.832 200.512C77.0612 200.837 77.3424 201.089 77.6758 201.266C78.0117 201.44 78.3737 201.527 78.7617 201.527C79.1263 201.527 79.4648 201.452 79.7773 201.301C80.0898 201.15 80.375 200.924 80.6328 200.625V201.527C80.349 201.733 80.043 201.889 79.7148 201.996C79.3893 202.1 79.0521 202.152 78.7031 202.152C78.401 202.152 78.1068 202.107 77.8203 202.016C77.5339 201.927 77.2656 201.797 77.0156 201.625C76.599 201.336 76.2799 200.98 76.0586 200.559C75.8398 200.137 75.7305 199.673 75.7305 199.168C75.7305 198.728 75.8034 198.328 75.9492 197.969C76.0977 197.607 76.3229 197.279 76.625 196.984C76.9167 196.703 77.2396 196.493 77.5938 196.355C77.9479 196.215 78.3346 196.145 78.7539 196.145C79.0846 196.145 79.4049 196.195 79.7148 196.297C80.0247 196.396 80.3307 196.551 80.6328 196.762V197.648ZM84.5898 201.512C84.9023 201.512 85.1992 201.453 85.4805 201.336C85.7643 201.216 86.0195 201.043 86.2461 200.816C86.4701 200.592 86.6406 200.339 86.7578 200.055C86.875 199.771 86.9336 199.47 86.9336 199.152C86.9336 198.832 86.8737 198.527 86.7539 198.238C86.6367 197.949 86.4674 197.694 86.2461 197.473C86.0221 197.249 85.7682 197.078 85.4844 196.961C85.2031 196.844 84.9049 196.785 84.5898 196.785C84.2721 196.785 83.9714 196.844 83.6875 196.961C83.4036 197.078 83.1523 197.249 82.9336 197.473C82.7096 197.699 82.5391 197.956 82.4219 198.242C82.3047 198.529 82.2461 198.832 82.2461 199.152C82.2461 199.47 82.3034 199.77 82.418 200.051C82.5352 200.332 82.707 200.587 82.9336 200.816C83.1628 201.046 83.4167 201.219 83.6953 201.336C83.9766 201.453 84.2747 201.512 84.5898 201.512ZM87.6445 199.152C87.6445 199.561 87.569 199.947 87.418 200.309C87.2669 200.671 87.0469 200.992 86.7578 201.273C86.4688 201.555 86.1354 201.772 85.7578 201.926C85.3828 202.077 84.9935 202.152 84.5898 202.152C84.1862 202.152 83.7969 202.077 83.4219 201.926C83.0495 201.772 82.7188 201.555 82.4297 201.273C82.138 200.99 81.9154 200.667 81.7617 200.305C81.6107 199.943 81.5352 199.559 81.5352 199.152C81.5352 198.743 81.6107 198.358 81.7617 197.996C81.9154 197.632 82.138 197.307 82.4297 197.023C82.7161 196.745 83.0469 196.53 83.4219 196.379C83.7969 196.228 84.1862 196.152 84.5898 196.152C84.9961 196.152 85.3867 196.228 85.7617 196.379C86.1393 196.53 86.4714 196.745 86.7578 197.023C87.0469 197.305 87.2669 197.628 87.418 197.992C87.569 198.354 87.6445 198.741 87.6445 199.152ZM91.4219 202.223L89.6445 198.113L88.9258 202H88.2617L89.4219 196.055L91.4219 200.785L93.4219 196.055L94.582 202H93.918L93.1914 198.113L91.4219 202.223ZM96.125 199.434V202H95.4609V196.281H96.6602C97.0794 196.281 97.388 196.303 97.5859 196.348C97.7839 196.392 97.9557 196.465 98.1016 196.566C98.2839 196.697 98.4258 196.875 98.5273 197.102C98.6315 197.328 98.6836 197.579 98.6836 197.855C98.6836 198.132 98.6315 198.383 98.5273 198.609C98.4258 198.836 98.2839 199.014 98.1016 199.145C97.9557 199.249 97.7839 199.323 97.5859 199.367C97.3906 199.411 97.082 199.434 96.6602 199.434H96.4688H96.125ZM96.125 198.816H96.4688C97.0521 198.816 97.444 198.749 97.6445 198.613C97.8477 198.475 97.9492 198.236 97.9492 197.895C97.9492 197.53 97.8451 197.273 97.6367 197.125C97.431 196.977 97.0417 196.902 96.4688 196.902H96.125V198.816ZM99.5234 202V196.281H100.203V201.352H102.363V202H99.5234ZM103.172 202V196.281H106.188V196.902H103.852V198.543H106.188V199.176H103.852V201.367H106.188V202H103.172ZM108.344 202V196.93H106.727V196.281H110.641V196.93H109.031V202H108.344ZM111.398 202V196.281H114.414V196.902H112.078V198.543H114.414V199.176H112.078V201.367H114.414V202H111.398ZM120.012 198.824C120.384 198.983 120.664 199.194 120.852 199.457C121.042 199.72 121.137 200.031 121.137 200.391C121.137 200.917 120.969 201.341 120.633 201.664C120.299 201.984 119.857 202.145 119.305 202.145C118.854 202.145 118.477 202.03 118.172 201.801C117.867 201.569 117.661 201.241 117.555 200.816L118.172 200.512C118.255 200.858 118.392 201.121 118.582 201.301C118.775 201.478 119.016 201.566 119.305 201.566C119.646 201.566 119.922 201.469 120.133 201.273C120.344 201.076 120.449 200.819 120.449 200.504C120.449 200.249 120.375 200.027 120.227 199.84C120.081 199.65 119.859 199.49 119.562 199.359L118.867 199.062C118.487 198.904 118.203 198.699 118.016 198.449C117.831 198.199 117.738 197.9 117.738 197.551C117.738 197.145 117.889 196.809 118.191 196.543C118.493 196.277 118.879 196.145 119.348 196.145C119.691 196.145 119.988 196.217 120.238 196.363C120.491 196.509 120.688 196.724 120.828 197.008L120.266 197.367C120.138 197.146 119.995 196.982 119.836 196.875C119.677 196.766 119.497 196.711 119.297 196.711C119.042 196.711 118.832 196.789 118.668 196.945C118.507 197.102 118.426 197.301 118.426 197.543C118.426 197.746 118.488 197.922 118.613 198.07C118.738 198.219 118.932 198.35 119.195 198.465L120.012 198.824ZM122.047 202V196.281H125.062V196.902H122.727V198.543H125.062V199.176H122.727V201.367H125.062V202H122.047ZM127.219 202V196.93H125.602V196.281H129.516V196.93H127.906V202H127.219ZM129.898 203.535C130.177 203.022 130.384 202.467 130.52 201.871C130.655 201.275 130.723 200.613 130.723 199.887C130.723 199.184 130.655 198.533 130.52 197.934C130.387 197.332 130.18 196.754 129.898 196.199L130.312 196.008C130.628 196.56 130.861 197.155 131.012 197.793C131.165 198.431 131.242 199.129 131.242 199.887C131.242 200.6 131.164 201.28 131.008 201.926C130.854 202.569 130.622 203.178 130.312 203.754L129.898 203.535Z" fill="black"/>
<g clip-path="url(#clip1_120_1983)">
<path d="M38.3176 69.4409C37.5362 69.4409 37.3321 68.8648 37.1399 68.8648H36.804C36.5152 68.8648 36.3649 69.181 36.0335 69.392V70.7258H36.6196C36.8926 70.7258 37.1142 70.9473 37.1142 71.2207V72.3054H33.6139V71.2207C33.6139 70.9474 33.8355 70.7258 34.1088 70.7258H34.6943V69.392C34.363 69.181 34.2123 68.8648 33.9235 68.8648H33.5873C33.3955 68.8648 33.1913 69.4409 32.41 69.4409C31.8133 69.4409 31.3296 68.9572 31.3296 68.3605C31.3296 67.763 31.8133 67.2798 32.41 67.2798C33.1913 67.2798 33.3955 67.8556 33.5873 67.8556H33.9235C34.3561 67.8556 34.4765 67.1445 35.3639 67.1445C36.2513 67.1445 36.3714 67.8556 36.804 67.8556H37.1399C37.332 67.8556 37.5361 67.2798 38.3175 67.2798C38.9142 67.2798 39.3979 67.763 39.3979 68.3605C39.398 68.9572 38.9143 69.4409 38.3176 69.4409Z" fill="black"/>
<path d="M40.7513 78.7244L44.0532 77.8072C44.3165 77.7341 44.5893 77.8884 44.6624 78.1515L44.9818 79.3005C45.055 79.5638 44.9009 79.8366 44.6373 79.9098L41.3357 80.8272C41.0724 80.9004 40.7996 80.7463 40.7262 80.483L40.4071 79.3339C40.3336 79.0707 40.488 78.7979 40.7513 78.7244Z" fill="black"/>
<path d="M27.5364 71.9896L28.4781 71.6574C28.6514 71.596 28.8404 71.596 29.0136 71.6574L29.9551 71.9896C30.2765 72.1034 30.4915 72.4074 30.4915 72.7482V76.1287C30.4915 76.4695 30.2765 76.7737 29.9548 76.8869L29.0136 77.2194C28.8404 77.2803 28.6514 77.2803 28.4781 77.2194L27.5366 76.8869C27.215 76.7737 27 76.4695 27 76.1287V72.7482C27 72.4074 27.215 72.1034 27.5364 71.9896Z" fill="black"/>
<path d="M30.928 72.752C32.9319 72.752 36.1708 72.752 37.9554 72.752C38.4535 72.7517 38.9381 72.8209 39.3927 72.9501C40.1901 73.1748 40.8848 73.5782 41.4637 74.0603C42.3343 74.787 42.9678 75.6822 43.4602 76.5948C43.6048 76.8647 43.7355 77.1372 43.8564 77.4093L40.4414 78.3583C40.3116 78.1072 40.1723 77.8676 40.0248 77.6495C39.7017 77.1698 39.3438 76.7992 39.0035 76.5745C38.8326 76.461 38.667 76.3806 38.4986 76.3266C38.3297 76.2732 38.157 76.244 37.9554 76.2437C36.1683 76.2437 32.9218 76.2437 30.9188 76.2437C30.9242 76.206 30.9279 76.1677 30.9279 76.1288V72.752H30.928Z" fill="black"/>
<path d="M44.6702 83.8976C44.6702 84.4271 44.2413 84.856 43.7118 84.856C43.1826 84.856 42.7535 84.4271 42.7535 83.8976C42.7535 83.3681 43.7067 81.7754 43.7118 81.7754C43.7173 81.7754 44.6702 83.3681 44.6702 83.8976Z" fill="black"/>
</g>
<defs>
<clipPath id="clip0_120_1983">
<rect width="18" height="18" fill="white" transform="translate(169 67)"/>
</clipPath>
<clipPath id="clip1_120_1983">
<rect width="18" height="18" fill="white" transform="matrix(-1 0 0 1 45 67)"/>
</clipPath>
</defs>
</svg>
