<svg width="211" height="328" viewBox="0 0 211 328" fill="none" xmlns="http://www.w3.org/2000/svg" xmlns:xlink="http://www.w3.org/1999/xlink">
<rect y="9.2231e-06" width="211" height="328" rx="16" fill="#9EC3D0"/>
<rect x="11.5" y="11.5" width="187" height="306" fill="#9EC3D0" stroke="black"/>
<rect x="21" y="25" width="168" height="276" fill="#9EC3D0" stroke="black"/>
<rect x="189" y="35" width="255" height="10" transform="rotate(90 189 35)" fill="url(#pattern0_117_1358)"/>
<rect x="21.0001" y="290" width="255" height="9.99998" transform="rotate(-90 21.0001 290)" fill="url(#pattern1_117_1358)"/>
<rect x="23.0001" y="25" width="155" height="10" fill="url(#pattern2_117_1358)"/>
<rect x="180" y="300" width="155" height="10" transform="rotate(-180 180 300)" fill="url(#pattern3_117_1358)"/>
<rect x="33.5" y="39.5" width="140" height="247" fill="url(#pattern4_117_1358)" stroke="black"/>
<circle cx="178.5" cy="295.5" r="16.5" transform="rotate(90 178.5 295.5)" fill="#9EC3D0" stroke="#FF0000" stroke-width="2"/>
<path d="M183.336 290.475C183.336 288.85 182.318 287.842 180.281 287.452L180.281 291.358L179.242 291.358L179.242 287.342L178.805 287.327L178.32 287.327L177.976 287.342L177.976 290.874L176.937 290.874L176.937 287.467C176.031 287.65 175.328 287.999 174.828 288.514C174.333 289.035 174.086 289.733 174.086 290.608C174.086 291.4 174.258 292.194 174.601 292.991L173.351 292.991C173.013 292.23 172.844 291.408 172.844 290.522C172.844 289.293 173.19 288.298 173.883 287.538C174.581 286.783 175.599 286.285 176.937 286.046L176.937 284.764L177.976 284.764L177.976 285.921L178.305 285.905L178.633 285.905L179.242 285.921L179.242 284.764L180.281 284.764L180.281 286.03C181.656 286.238 182.713 286.728 183.453 287.499C184.198 288.27 184.57 289.262 184.57 290.475C184.57 291.543 184.323 292.499 183.828 293.342L182.68 292.749C183.117 291.905 183.336 291.147 183.336 290.475ZM177.547 295.475L177.547 297.374L180.773 297.374C180.872 297.374 181.018 297.379 181.211 297.389C181.409 297.4 181.771 297.423 182.297 297.46C181.854 297.329 181.445 297.199 181.07 297.069C180.7 296.939 180.383 296.811 180.117 296.686L177.547 295.475ZM173 297.296L175.828 297.296L175.828 294.014L177.547 294.014L184.406 297.007L184.406 299.202L177.547 299.202L177.547 300.132L175.828 300.132L175.828 299.202L173 299.202L173 297.296ZM173 300.796L179.654 301.448L179.654 303.157L177.115 303.503C176.729 303.555 176.359 303.597 176.003 303.631C175.651 303.667 175.307 303.696 174.973 303.717C175.56 303.772 176.021 303.818 176.359 303.854C176.699 303.894 176.951 303.926 177.115 303.95L179.654 304.378L179.654 306.069L173 306.63L173 305.285L176.09 305.144C176.163 305.141 176.272 305.136 176.418 305.13C177.226 305.091 177.888 305.071 178.405 305.071L173 304.205L173 303.243L178.441 302.428C177.989 302.428 177.341 302.4 176.5 302.346C176.308 302.334 176.166 302.324 176.071 302.318L173 302.113L173 300.796Z" fill="black"/>
<circle cx="31.4999" cy="33.5" r="16.5" transform="rotate(90 31.4999 33.5)" fill="#9EC3D0" stroke="#FF0000" stroke-width="2"/>
<path d="M36.3358 28.4753C36.3358 26.8503 35.3176 25.8425 33.2811 25.4518L33.2811 29.3581L32.2421 29.3581L32.2421 25.3425L31.8046 25.3268L31.3202 25.3268L30.9764 25.3425L30.9764 28.8737L29.9374 28.8737L29.9374 25.4675C29.0311 25.6497 28.328 25.9987 27.828 26.5143C27.3332 27.0352 27.0858 27.7331 27.0858 28.6081C27.0858 29.3997 27.2577 30.194 27.6014 30.9909L26.3514 30.9909C26.0129 30.2305 25.8436 29.4076 25.8436 28.5221C25.8436 27.293 26.19 26.2982 26.8827 25.5378C27.5806 24.7826 28.5988 24.2852 29.9374 24.0456L29.9374 22.7643L30.9764 22.7643L30.9764 23.9206L31.3046 23.905L31.6327 23.905L32.2421 23.9206L32.2421 22.7643L33.2811 22.7643L33.2811 24.03C34.6561 24.2383 35.7134 24.7279 36.453 25.4987C37.1978 26.2695 37.5702 27.2617 37.5702 28.4753C37.5702 29.543 37.3228 30.4987 36.828 31.3425L35.6796 30.7487C36.1171 29.905 36.3358 29.1471 36.3358 28.4753ZM30.5468 33.4753L30.5468 35.3737L33.7733 35.3737C33.8723 35.3737 34.0181 35.3789 34.2108 35.3893C34.4087 35.3997 34.7707 35.4232 35.2968 35.4596C34.854 35.3294 34.4452 35.1992 34.0702 35.069C33.7004 34.9388 33.3827 34.8112 33.1171 34.6862L30.5468 33.4753ZM25.9999 35.2956L28.828 35.2956L28.828 32.0143L30.5468 32.0143L37.4061 35.0065L37.4061 37.2018L30.5468 37.2018L30.5468 38.1315L28.828 38.1315L28.828 37.2018L25.9999 37.2018L25.9999 35.2956ZM25.9999 38.7962L32.6535 39.4479L32.6535 41.1569L30.1151 41.5033C29.7293 41.5549 29.3586 41.5974 29.0031 41.6309C28.6507 41.6673 28.3074 41.6962 27.9732 41.7175C28.5596 41.7721 29.0214 41.8177 29.3586 41.8542C29.6989 41.8937 29.951 41.9256 30.1151 41.9499L32.6535 42.3783L32.6535 44.069L25.9999 44.6296L25.9999 43.2852L29.0897 43.1439C29.1626 43.1408 29.272 43.1363 29.4178 43.1302C30.226 43.0907 30.8883 43.071 31.4048 43.071L25.9999 42.2051L25.9999 41.2435L31.4413 40.4277C30.9886 40.4277 30.3415 40.4004 29.4999 40.3457C29.3085 40.3336 29.1657 40.3244 29.0715 40.3184L25.9999 40.1133L25.9999 38.7962Z" fill="black"/>
<path d="M64.8379 70.8594C64.5918 70.959 64.3428 71.0322 64.0908 71.0791C63.8447 71.1318 63.5957 71.1582 63.3437 71.1582C61.709 71.1582 60.3789 70.5635 59.3535 69.374C58.334 68.1846 57.8242 66.626 57.8242 64.6983C57.8242 62.6943 58.3223 61.0772 59.3184 59.8467C60.3203 58.6162 61.627 58.001 63.2383 58.001C63.5371 58.001 63.8184 58.0274 64.082 58.0801C64.3457 58.127 64.5977 58.2031 64.8379 58.3086L64.8379 60.708C64.5918 60.6084 64.3516 60.5352 64.1172 60.4883C63.8887 60.4414 63.6631 60.418 63.4404 60.418C62.585 60.418 61.8906 60.7959 61.3574 61.5518C60.8242 62.3076 60.5576 63.3096 60.5576 64.5576C60.5576 65.7588 60.8301 66.7315 61.375 67.4756C61.9258 68.2197 62.6318 68.5918 63.4932 68.5918C63.71 68.5918 63.9297 68.5654 64.1523 68.5127C64.3809 68.46 64.6094 68.3838 64.8379 68.2842L64.8379 70.8594ZM68.7666 66.7549L70.4717 66.7549C70.2959 65.8584 70.1377 64.9209 69.9971 63.9424C69.8564 62.958 69.7334 61.9209 69.6279 60.8311C69.499 61.792 69.3613 62.7676 69.2148 63.7578C69.0742 64.7422 68.9248 65.7412 68.7666 66.7549ZM65.3477 71L68.3359 58.168L71.0166 58.168L73.8643 71L71.3066 71L70.876 68.75L68.3008 68.75L67.9053 71L65.3477 71ZM77.2744 63.7315C77.3037 63.7315 77.3506 63.7344 77.415 63.7402C77.4853 63.7461 77.5352 63.749 77.5645 63.749C78.1211 63.749 78.54 63.5938 78.8213 63.2832C79.1025 62.9727 79.2432 62.5156 79.2432 61.9121C79.2432 61.2969 79.1143 60.8486 78.8564 60.5674C78.5986 60.2861 78.1855 60.1455 77.6172 60.1455C77.5293 60.1455 77.4619 60.1485 77.415 60.1543C77.3682 60.1543 77.3242 60.1572 77.2832 60.1631L77.2744 63.7315ZM74.7959 71L74.7959 58.168L77.459 58.168C78.9238 58.168 79.9844 58.4551 80.6406 59.0293C81.3027 59.6035 81.6338 60.5205 81.6338 61.7803C81.6338 62.6943 81.4639 63.4297 81.124 63.9863C80.79 64.5371 80.2832 64.9238 79.6035 65.1465L82.0644 71L79.3662 71L77.2744 65.6914L77.2744 71L74.7959 71ZM84.2617 71L84.2617 60.541L82.3018 60.541L82.3018 58.168L88.7969 58.168L88.7969 60.541L86.8369 60.541L86.8369 71L84.2617 71ZM90.0713 71L90.0713 58.168L95.4678 58.168L95.4678 60.541L92.5498 60.541L92.5498 63.1338L95.1953 63.1338L95.1953 65.4893L92.5498 65.4893L92.5498 68.4951L95.4678 68.4951L95.4678 71L90.0713 71ZM103.519 66.7549L105.224 66.7549C105.048 65.8584 104.89 64.9209 104.749 63.9424C104.608 62.958 104.485 61.9209 104.38 60.8311C104.251 61.792 104.113 62.7676 103.967 63.7578C103.826 64.7422 103.677 65.7412 103.519 66.7549ZM100.1 71L103.088 58.168L105.769 58.168L108.616 71L106.059 71L105.628 68.75L103.053 68.75L102.657 71L100.1 71ZM116.148 70.8594C115.902 70.959 115.653 71.0322 115.401 71.0791C115.155 71.1319 114.906 71.1582 114.654 71.1582C113.02 71.1582 111.689 70.5635 110.664 69.374C109.645 68.1846 109.135 66.626 109.135 64.6983C109.135 62.6944 109.633 61.0772 110.629 59.8467C111.631 58.6162 112.937 58.001 114.549 58.001C114.848 58.001 115.129 58.0274 115.393 58.0801C115.656 58.127 115.908 58.2031 116.148 58.3086L116.148 60.708C115.902 60.6084 115.662 60.5352 115.428 60.4883C115.199 60.4414 114.974 60.418 114.751 60.418C113.896 60.418 113.201 60.7959 112.668 61.5518C112.135 62.3076 111.868 63.3096 111.868 64.5576C111.868 65.7588 112.141 66.7315 112.686 67.4756C113.236 68.2197 113.942 68.5918 114.804 68.5918C115.021 68.5918 115.24 68.5654 115.463 68.5127C115.691 68.46 115.92 68.3838 116.148 68.2842L116.148 70.8594ZM118.943 71L118.943 60.541L116.983 60.541L116.983 58.168L123.479 58.168L123.479 60.541L121.519 60.541L121.519 71L118.943 71ZM124.858 71L124.858 58.168L127.469 58.168L127.469 71L124.858 71ZM133.691 68.7149C134.348 68.7149 134.837 68.3721 135.159 67.6865C135.487 67.001 135.651 65.9697 135.651 64.5928C135.651 63.2041 135.487 62.167 135.159 61.4815C134.837 60.7959 134.348 60.4531 133.691 60.4531C133.035 60.4531 132.546 60.7959 132.224 61.4815C131.901 62.1612 131.74 63.1983 131.74 64.5928C131.74 65.9815 131.901 67.0156 132.224 67.6953C132.546 68.375 133.035 68.7149 133.691 68.7149ZM138.209 64.7686C138.209 66.7256 137.799 68.2813 136.979 69.4356C136.158 70.584 135.062 71.1582 133.691 71.1582C132.273 71.1582 131.169 70.5811 130.378 69.4268C129.587 68.2666 129.191 66.6553 129.191 64.5928C129.191 62.5362 129.59 60.9248 130.387 59.7588C131.189 58.5869 132.291 58.001 133.691 58.001C135.098 58.001 136.202 58.5987 137.005 59.794C137.808 60.9893 138.209 62.6475 138.209 64.7686ZM139.8 71L139.8 58.168L142.393 58.168L144.985 65.0762C145.062 65.2989 145.167 65.6416 145.302 66.1045C145.442 66.5615 145.601 67.1006 145.776 67.7217C145.642 66.8135 145.542 65.9815 145.478 65.2256C145.413 64.4639 145.381 63.7549 145.381 63.0987L145.381 58.168L147.754 58.168L147.754 71L145.381 71L142.568 63.8194C142.521 63.7139 142.398 63.2774 142.199 62.5098C142.105 62.1582 142.032 61.8828 141.979 61.6836C142.038 62.1817 142.082 62.7442 142.111 63.3711C142.141 63.9922 142.155 64.7364 142.155 65.6035L142.155 71L139.8 71Z" fill="black"/>
<circle cx="103" cy="163" r="69.4222" transform="rotate(90 103 163)" fill="white" stroke="black" stroke-width="3.15556"/>
<path d="M82.1525 211L82.1525 196.742L84.965 196.742L84.965 202.016L88.1486 202.016L88.1486 196.742L90.9904 196.742L90.9904 211L88.1486 211L88.1486 204.799L84.965 204.799L84.965 211L82.1525 211ZM97.7482 208.461C98.4773 208.461 99.021 208.08 99.379 207.318C99.7436 206.557 99.9259 205.411 99.9259 203.881C99.9259 202.338 99.7436 201.186 99.379 200.424C99.021 199.662 98.4773 199.281 97.7482 199.281C97.019 199.281 96.4754 199.662 96.1173 200.424C95.7592 201.179 95.5802 202.331 95.5802 203.881C95.5802 205.424 95.7592 206.573 96.1173 207.328C96.4754 208.083 97.019 208.461 97.7482 208.461ZM102.768 204.076C102.768 206.251 102.312 207.979 101.401 209.262C100.489 210.538 99.2716 211.176 97.7482 211.176C96.1726 211.176 94.9454 210.535 94.0665 209.252C93.1876 207.963 92.7482 206.173 92.7482 203.881C92.7482 201.596 93.1909 199.805 94.0763 198.51C94.9682 197.208 96.1922 196.557 97.7482 196.557C99.3107 196.557 100.538 197.221 101.43 198.549C102.322 199.877 102.768 201.719 102.768 204.076ZM105.522 211L105.522 199.379L103.344 199.379L103.344 196.742L110.561 196.742L110.561 199.379L108.383 199.379L108.383 211L105.522 211ZM111.977 211L111.977 196.742L117.973 196.742L117.973 199.379L114.731 199.379L114.731 202.26L117.67 202.26L117.67 204.877L114.731 204.877L114.731 208.217L117.973 208.217L117.973 211L111.977 211ZM119.906 211L119.906 196.742L122.719 196.742L122.719 208.217L125.961 208.217L125.961 211L119.906 211Z" fill="black"/>
<path d="M108 185.501V170.501H98.0001V185.501M120.5 157.446V173.501C120.5 177.701 120.5 179.801 119.683 181.405C118.964 182.817 117.816 183.964 116.405 184.683C114.801 185.501 112.701 185.501 108.5 185.501H97.5001C93.2997 185.501 91.1995 185.501 89.5952 184.683C88.184 183.964 87.0366 182.817 86.3176 181.405C85.5001 179.801 85.5001 177.701 85.5001 173.501V157.444M125.5 163.001L111.917 147.911C108.828 144.479 107.283 142.763 105.464 142.129C103.867 141.573 102.128 141.573 100.53 142.13C98.7109 142.763 97.1666 144.479 94.078 147.912L80.5001 163.001" stroke="#FF0000" stroke-width="5" stroke-linecap="round" stroke-linejoin="round"/>
<defs>
<pattern id="pattern0_117_1358" patternUnits="userSpaceOnUse" patternTransform="matrix(15.2616 0 0 10.1164 189 35)" preserveAspectRatio="none" viewBox="7.50705e-06 0 19.077 12.6454" width="1" height="1">
<g id="pattern0_117_1358_inner">
<path d="M9.49354 10.4556C9.5432 4.72657 5.33305 0.0454458 0.0899123 0L0.0859162 0.461036C5.09603 0.504461 9.11906 4.97754 9.07161 10.4519L9.49354 10.4556Z" fill="black"/>
<path d="M8.22774 10.4446C8.27077 5.47947 4.62198 1.42249 0.077924 1.38311L0.0739279 1.84414C4.38495 1.88151 7.84663 5.73043 7.8058 10.441L8.22774 10.4446Z" fill="black"/>
<path d="M6.53999 10.43C6.5742 6.48333 3.67388 3.25856 0.0619396 3.22725L0.0579435 3.68828C3.43685 3.71757 6.15006 6.7343 6.11806 10.4263L6.53999 10.43Z" fill="black"/>
<path d="M4.43032 10.4117C4.45349 7.73816 2.48876 5.55363 0.0419591 5.53243L0.037963 5.99346C2.25173 6.01265 4.02935 7.98913 4.00838 10.408L4.43032 10.4117Z" fill="black"/>
<path d="M2.32064 10.3934C2.33278 8.99299 1.30363 7.84871 0.0219786 7.8376L0 10.3733L2.32064 10.3934Z" fill="black"/>
<path d="M9.49355 10.4556C9.54321 4.72655 13.8339 0.119105 19.077 0.164551L19.073 0.625586C14.0629 0.58216 9.96294 4.98483 9.91549 10.4592L9.49355 10.4556Z" fill="black"/>
<path d="M10.7594 10.4665C10.8024 5.50139 14.521 1.50827 19.065 1.54766L19.061 2.00869C14.75 1.97133 11.2221 5.75967 11.1813 10.4702L10.7594 10.4665Z" fill="black"/>
<path d="M12.4471 10.4812C12.4813 6.53451 15.4371 3.36049 19.049 3.3918L19.045 3.85283C15.6661 3.82355 12.901 6.79279 12.869 10.4848L12.4471 10.4812Z" fill="black"/>
<path d="M14.5568 10.4994C14.5799 7.82591 16.5823 5.67577 19.0291 5.69698L19.0251 6.15801C16.8113 6.13882 14.9997 8.08419 14.9787 10.5031L14.5568 10.4994Z" fill="black"/>
<path d="M16.6664 10.5177C16.6786 9.11731 17.7274 7.99105 19.0091 8.00215L18.9871 10.5378L16.6664 10.5177Z" fill="black"/>
</g>
</pattern><pattern id="pattern1_117_1358" patternUnits="userSpaceOnUse" patternTransform="matrix(15.2616 0 0 10.1164 21.0001 290)" preserveAspectRatio="none" viewBox="7.50705e-06 0 19.077 12.6454" width="1" height="1">
<g id="pattern1_117_1358_inner">
<path d="M9.49354 10.4556C9.5432 4.72657 5.33305 0.0454458 0.0899123 0L0.0859162 0.461036C5.09603 0.504461 9.11906 4.97754 9.07161 10.4519L9.49354 10.4556Z" fill="black"/>
<path d="M8.22774 10.4446C8.27077 5.47947 4.62198 1.42249 0.077924 1.38311L0.0739279 1.84414C4.38495 1.88151 7.84663 5.73043 7.8058 10.441L8.22774 10.4446Z" fill="black"/>
<path d="M6.53999 10.43C6.5742 6.48333 3.67388 3.25856 0.0619396 3.22725L0.0579435 3.68828C3.43685 3.71757 6.15006 6.7343 6.11806 10.4263L6.53999 10.43Z" fill="black"/>
<path d="M4.43032 10.4117C4.45349 7.73816 2.48876 5.55363 0.0419591 5.53243L0.037963 5.99346C2.25173 6.01265 4.02935 7.98913 4.00838 10.408L4.43032 10.4117Z" fill="black"/>
<path d="M2.32064 10.3934C2.33278 8.99299 1.30363 7.84871 0.0219786 7.8376L0 10.3733L2.32064 10.3934Z" fill="black"/>
<path d="M9.49355 10.4556C9.54321 4.72655 13.8339 0.119105 19.077 0.164551L19.073 0.625586C14.0629 0.58216 9.96294 4.98483 9.91549 10.4592L9.49355 10.4556Z" fill="black"/>
<path d="M10.7594 10.4665C10.8024 5.50139 14.521 1.50827 19.065 1.54766L19.061 2.00869C14.75 1.97133 11.2221 5.75967 11.1813 10.4702L10.7594 10.4665Z" fill="black"/>
<path d="M12.4471 10.4812C12.4813 6.53451 15.4371 3.36049 19.049 3.3918L19.045 3.85283C15.6661 3.82355 12.901 6.79279 12.869 10.4848L12.4471 10.4812Z" fill="black"/>
<path d="M14.5568 10.4994C14.5799 7.82591 16.5823 5.67577 19.0291 5.69698L19.0251 6.15801C16.8113 6.13882 14.9997 8.08419 14.9787 10.5031L14.5568 10.4994Z" fill="black"/>
<path d="M16.6664 10.5177C16.6786 9.11731 17.7274 7.99105 19.0091 8.00215L18.9871 10.5378L16.6664 10.5177Z" fill="black"/>
</g>
</pattern><pattern id="pattern2_117_1358" patternUnits="userSpaceOnUse" patternTransform="matrix(15.2616 0 0 10.1164 23.0001 25)" preserveAspectRatio="none" viewBox="7.50705e-06 0 19.077 12.6454" width="1" height="1">
<g id="pattern2_117_1358_inner">
<path d="M9.49354 10.4556C9.5432 4.72657 5.33305 0.0454458 0.0899123 0L0.0859162 0.461036C5.09603 0.504461 9.11906 4.97754 9.07161 10.4519L9.49354 10.4556Z" fill="black"/>
<path d="M8.22774 10.4446C8.27077 5.47947 4.62198 1.42249 0.077924 1.38311L0.0739279 1.84414C4.38495 1.88151 7.84663 5.73043 7.8058 10.441L8.22774 10.4446Z" fill="black"/>
<path d="M6.53999 10.43C6.5742 6.48333 3.67388 3.25856 0.0619396 3.22725L0.0579435 3.68828C3.43685 3.71757 6.15006 6.7343 6.11806 10.4263L6.53999 10.43Z" fill="black"/>
<path d="M4.43032 10.4117C4.45349 7.73816 2.48876 5.55363 0.0419591 5.53243L0.037963 5.99346C2.25173 6.01265 4.02935 7.98913 4.00838 10.408L4.43032 10.4117Z" fill="black"/>
<path d="M2.32064 10.3934C2.33278 8.99299 1.30363 7.84871 0.0219786 7.8376L0 10.3733L2.32064 10.3934Z" fill="black"/>
<path d="M9.49355 10.4556C9.54321 4.72655 13.8339 0.119105 19.077 0.164551L19.073 0.625586C14.0629 0.58216 9.96294 4.98483 9.91549 10.4592L9.49355 10.4556Z" fill="black"/>
<path d="M10.7594 10.4665C10.8024 5.50139 14.521 1.50827 19.065 1.54766L19.061 2.00869C14.75 1.97133 11.2221 5.75967 11.1813 10.4702L10.7594 10.4665Z" fill="black"/>
<path d="M12.4471 10.4812C12.4813 6.53451 15.4371 3.36049 19.049 3.3918L19.045 3.85283C15.6661 3.82355 12.901 6.79279 12.869 10.4848L12.4471 10.4812Z" fill="black"/>
<path d="M14.5568 10.4994C14.5799 7.82591 16.5823 5.67577 19.0291 5.69698L19.0251 6.15801C16.8113 6.13882 14.9997 8.08419 14.9787 10.5031L14.5568 10.4994Z" fill="black"/>
<path d="M16.6664 10.5177C16.6786 9.11731 17.7274 7.99105 19.0091 8.00215L18.9871 10.5378L16.6664 10.5177Z" fill="black"/>
</g>
</pattern><pattern id="pattern3_117_1358" patternUnits="userSpaceOnUse" patternTransform="matrix(15.2616 0 0 10.1164 180 300)" preserveAspectRatio="none" viewBox="7.50705e-06 0 19.077 12.6454" width="1" height="1">
<g id="pattern3_117_1358_inner">
<path d="M9.49354 10.4556C9.5432 4.72657 5.33305 0.0454458 0.0899123 0L0.0859162 0.461036C5.09603 0.504461 9.11906 4.97754 9.07161 10.4519L9.49354 10.4556Z" fill="black"/>
<path d="M8.22774 10.4446C8.27077 5.47947 4.62198 1.42249 0.077924 1.38311L0.0739279 1.84414C4.38495 1.88151 7.84663 5.73043 7.8058 10.441L8.22774 10.4446Z" fill="black"/>
<path d="M6.53999 10.43C6.5742 6.48333 3.67388 3.25856 0.0619396 3.22725L0.0579435 3.68828C3.43685 3.71757 6.15006 6.7343 6.11806 10.4263L6.53999 10.43Z" fill="black"/>
<path d="M4.43032 10.4117C4.45349 7.73816 2.48876 5.55363 0.0419591 5.53243L0.037963 5.99346C2.25173 6.01265 4.02935 7.98913 4.00838 10.408L4.43032 10.4117Z" fill="black"/>
<path d="M2.32064 10.3934C2.33278 8.99299 1.30363 7.84871 0.0219786 7.8376L0 10.3733L2.32064 10.3934Z" fill="black"/>
<path d="M9.49355 10.4556C9.54321 4.72655 13.8339 0.119105 19.077 0.164551L19.073 0.625586C14.0629 0.58216 9.96294 4.98483 9.91549 10.4592L9.49355 10.4556Z" fill="black"/>
<path d="M10.7594 10.4665C10.8024 5.50139 14.521 1.50827 19.065 1.54766L19.061 2.00869C14.75 1.97133 11.2221 5.75967 11.1813 10.4702L10.7594 10.4665Z" fill="black"/>
<path d="M12.4471 10.4812C12.4813 6.53451 15.4371 3.36049 19.049 3.3918L19.045 3.85283C15.6661 3.82355 12.901 6.79279 12.869 10.4848L12.4471 10.4812Z" fill="black"/>
<path d="M14.5568 10.4994C14.5799 7.82591 16.5823 5.67577 19.0291 5.69698L19.0251 6.15801C16.8113 6.13882 14.9997 8.08419 14.9787 10.5031L14.5568 10.4994Z" fill="black"/>
<path d="M16.6664 10.5177C16.6786 9.11731 17.7274 7.99105 19.0091 8.00215L18.9871 10.5378L16.6664 10.5177Z" fill="black"/>
</g>
</pattern><pattern id="pattern4_117_1358" patternUnits="userSpaceOnUse" patternTransform="matrix(2.22 0 0 2.22 33 39)" preserveAspectRatio="none" viewBox="0 0 111 111" width="1" height="1">
<g id="pattern4_117_1358_inner">
<circle cx="55.5" cy="55.5" r="55" stroke="black"/>
<circle cx="55.5" cy="55.5001" r="47.9747" stroke="black"/>
<circle cx="55.5" cy="55.5001" r="38.1392" stroke="black"/>
<circle cx="55.5" cy="55.4999" r="29.7089" stroke="black"/>
<circle cx="55.5" cy="55.4999" r="29.7089" stroke="black"/>
<circle cx="55.5" cy="55.4998" r="17.0633" stroke="black"/>
<circle cx="55.5" cy="55.5001" r="8.63291" stroke="black"/>
</g>
</pattern></defs>
</svg>
