<svg width="211" height="328" viewBox="0 0 211 328" fill="none" xmlns="http://www.w3.org/2000/svg" xmlns:xlink="http://www.w3.org/1999/xlink">
<rect x="2.95961e-05" y="9.2231e-06" width="211" height="328" rx="16" fill="#F17C04"/>
<rect x="21" y="25" width="168" height="276" fill="#F7D09C" fill-opacity="0.8"/>
<rect x="21" y="25" width="168" height="276" fill="url(#pattern0_129_2262)"/>
<rect x="21" y="25" width="168" height="276" stroke="black" stroke-width="2"/>
<path d="M54 34.5C54 46.3741 44.3741 56 32.5 56C20.6259 56 11 46.3741 11 34.5C11 22.6259 20.6259 13 32.5 13C44.3741 13 54 22.6259 54 34.5Z" fill="white" stroke="black" stroke-width="2"/>
<path d="M23.3405 29.6641C21.7155 29.6641 20.7077 30.6823 20.3171 32.7188L24.2233 32.7188L24.2233 33.7578L20.2077 33.7578L20.1921 34.1953L20.1921 34.6797L20.2077 35.0234L23.7389 35.0234L23.7389 36.0625L20.3327 36.0625C20.515 36.9688 20.8639 37.6719 21.3796 38.1719C21.9004 38.6667 22.5983 38.9141 23.4733 38.9141C24.265 38.9141 25.0593 38.7422 25.8561 38.3984L25.8561 39.6484C25.0957 39.987 24.2728 40.1563 23.3874 40.1563C22.1582 40.1563 21.1634 39.8099 20.403 39.1172C19.6478 38.4193 19.1504 37.4011 18.9108 36.0625L17.6296 36.0625L17.6296 35.0234L18.7858 35.0234L18.7702 34.6953L18.7702 34.3672L18.7858 33.7578L17.6296 33.7578L17.6296 32.7188L18.8952 32.7188C19.1035 31.3438 19.5931 30.2865 20.3639 29.5469C21.1348 28.8021 22.127 28.4297 23.3405 28.4297C24.4082 28.4297 25.3639 28.6771 26.2077 29.1719L25.6139 30.3203C24.7702 29.8828 24.0124 29.6641 23.3405 29.6641ZM29.0436 40L29.0436 30.4766L27.9577 30.4766L27.9577 28.5938L31.2311 28.5938L31.2311 40L29.0436 40ZM36.0436 34.3203C36.0436 35.7682 36.1139 36.7578 36.2546 37.2891C36.3952 37.8151 36.64 38.0781 36.9889 38.0781C37.3275 38.0781 37.5645 37.8177 37.6999 37.2969C37.8405 36.7761 37.9108 35.7839 37.9108 34.3203C37.9108 32.8307 37.8405 31.8255 37.6999 31.3047C37.5645 30.7787 37.3275 30.5156 36.9889 30.5156C36.64 30.5156 36.3952 30.7839 36.2546 31.3203C36.1139 31.8516 36.0436 32.8516 36.0436 34.3203ZM40.0905 34.3047C40.0905 36.1953 39.8223 37.6406 39.2858 38.6406C38.7546 39.6406 37.9889 40.1406 36.9889 40.1406C35.9837 40.1406 35.2129 39.6406 34.6764 38.6406C34.1452 37.6406 33.8796 36.1953 33.8796 34.3047C33.8796 32.3984 34.1452 30.9453 34.6764 29.9453C35.2077 28.9453 35.9785 28.4453 36.9889 28.4453C37.9942 28.4453 38.7624 28.9453 39.2936 29.9453C39.8249 30.9453 40.0905 32.3985 40.0905 34.3047ZM40.7083 40L41.36 33.3464L43.069 33.3464L43.4154 35.8848C43.467 36.2706 43.5096 36.6413 43.543 36.9968C43.5794 37.3492 43.6083 37.6925 43.6296 38.0267C43.6843 37.4403 43.7298 36.9785 43.7663 36.6413C43.8058 36.301 43.8377 36.0488 43.862 35.8848L44.2904 33.3464L45.9811 33.3464L46.5417 40L45.1973 40L45.056 36.9102C45.053 36.8373 45.0484 36.7279 45.0423 36.582C45.0028 35.7739 44.9831 35.1116 44.9831 34.5951L44.1172 40L43.1556 40L42.3399 34.5586C42.3399 35.0113 42.3125 35.6584 42.2578 36.5C42.2457 36.6914 42.2366 36.8342 42.2305 36.9284L42.0254 40L40.7083 40Z" fill="black"/>
<circle cx="103" cy="163" r="69.4222" fill="#F7983D" fill-opacity="0.7" stroke="black" stroke-width="3.15556"/>
<path d="M103.526 97.7862C139.253 97.7862 168.214 126.748 168.214 162.475C168.214 198.201 139.253 227.163 103.526 227.163C67.7992 227.163 38.8375 198.201 38.8375 162.475C38.8375 126.748 67.7993 97.7861 103.526 97.7862Z" stroke="black" stroke-width="1.05185"/>
<path d="M68.6931 146.24C62.5993 146.24 58.82 150.059 57.3552 157.695L72.0036 157.695L72.0036 161.592L56.945 161.592L56.8864 163.232L56.8864 165.049L56.945 166.338L70.1872 166.338L70.1872 170.234L57.4138 170.234C58.0973 173.633 59.4059 176.27 61.3395 178.145C63.2927 180 65.9098 180.928 69.1911 180.928C72.1598 180.928 75.1384 180.283 78.1266 178.994L78.1266 183.682C75.2751 184.951 72.1891 185.586 68.8688 185.586C64.2594 185.586 60.529 184.287 57.6774 181.689C54.8454 179.072 52.9802 175.254 52.0817 170.234L47.277 170.234L47.277 166.338L51.613 166.338L51.5544 165.107L51.5544 163.877L51.613 161.592L47.277 161.592L47.277 157.695L52.0231 157.695C52.8044 152.539 54.6403 148.574 57.5309 145.801C60.4216 143.008 64.1423 141.611 68.6931 141.611C72.697 141.611 76.2809 142.539 79.445 144.395L77.2184 148.701C74.0544 147.061 71.2126 146.24 68.6931 146.24ZM90.0798 185L90.0798 149.287L86.0075 149.287L86.0075 142.227L98.2829 142.227L98.2829 185L90.0798 185ZM116.33 163.701C116.33 169.131 116.593 172.842 117.121 174.834C117.648 176.807 118.566 177.793 119.875 177.793C121.144 177.793 122.033 176.816 122.541 174.863C123.068 172.91 123.332 169.189 123.332 163.701C123.332 158.115 123.068 154.346 122.541 152.393C122.033 150.42 121.144 149.434 119.875 149.434C118.566 149.434 117.648 150.439 117.121 152.451C116.593 154.443 116.33 158.193 116.33 163.701ZM131.506 163.643C131.506 170.732 130.5 176.152 128.488 179.902C126.496 183.652 123.625 185.527 119.875 185.527C116.105 185.527 113.215 183.652 111.203 179.902C109.211 176.152 108.215 170.732 108.215 163.643C108.215 156.494 109.211 151.045 111.203 147.295C113.195 143.545 116.086 141.67 119.875 141.67C123.644 141.67 126.525 143.545 128.517 147.295C130.509 151.045 131.506 156.494 131.506 163.643ZM133.883 185L136.527 158.005L143.46 158.005L144.865 168.304C145.075 169.869 145.248 171.373 145.383 172.815C145.531 174.245 145.648 175.638 145.734 176.994C145.956 174.615 146.141 172.741 146.289 171.373C146.449 169.993 146.579 168.97 146.677 168.304L148.415 158.005L155.275 158.005L157.549 185L152.095 185L151.522 172.464C151.509 172.168 151.491 171.725 151.466 171.133C151.306 167.854 151.226 165.167 151.226 163.071L147.713 185L143.812 185L140.502 162.923C140.502 164.76 140.391 167.386 140.169 170.8C140.12 171.577 140.083 172.156 140.058 172.538L139.226 185L133.883 185Z" fill="black"/>
<rect x="42" y="221" width="126" height="26" fill="black" stroke="#F17C04" stroke-width="2"/>
<path d="M56.4032 233.78H59.3632V239.46C58.6032 240.033 57.7232 240.473 56.7232 240.78C55.7232 241.087 54.7166 241.24 53.7032 241.24C52.2499 241.24 50.9432 240.933 49.7832 240.32C48.6232 239.693 47.7099 238.833 47.0432 237.74C46.3899 236.633 46.0632 235.387 46.0632 234C46.0632 232.613 46.3899 231.373 47.0432 230.28C47.7099 229.173 48.6299 228.313 49.8032 227.7C50.9766 227.073 52.2966 226.76 53.7632 226.76C54.9899 226.76 56.1032 226.967 57.1032 227.38C58.1032 227.793 58.9432 228.393 59.6232 229.18L57.5432 231.1C56.5432 230.047 55.3366 229.52 53.9232 229.52C53.0299 229.52 52.2366 229.707 51.5432 230.08C50.8499 230.453 50.3099 230.98 49.9232 231.66C49.5366 232.34 49.3432 233.12 49.3432 234C49.3432 234.867 49.5366 235.64 49.9232 236.32C50.3099 237 50.8432 237.533 51.5232 237.92C52.2166 238.293 53.0032 238.48 53.8832 238.48C54.8166 238.48 55.6566 238.28 56.4032 237.88V233.78ZM71.5929 238H65.0929L63.8529 241H60.5329L66.7729 227H69.9729L76.2329 241H72.8329L71.5929 238ZM70.5729 235.54L68.3529 230.18L66.1329 235.54H70.5729ZM90.5254 227V241H87.8654L80.8854 232.5V241H77.6854V227H80.3654L87.3254 235.5V227H90.5254ZM100.618 241.24C99.1644 241.24 97.8511 240.927 96.6777 240.3C95.5177 239.673 94.6044 238.813 93.9377 237.72C93.2844 236.613 92.9577 235.373 92.9577 234C92.9577 232.627 93.2844 231.393 93.9377 230.3C94.6044 229.193 95.5177 228.327 96.6777 227.7C97.8511 227.073 99.1644 226.76 100.618 226.76C102.071 226.76 103.378 227.073 104.538 227.7C105.698 228.327 106.611 229.193 107.278 230.3C107.944 231.393 108.278 232.627 108.278 234C108.278 235.373 107.944 236.613 107.278 237.72C106.611 238.813 105.698 239.673 104.538 240.3C103.378 240.927 102.071 241.24 100.618 241.24ZM100.618 238.48C101.444 238.48 102.191 238.293 102.858 237.92C103.524 237.533 104.044 237 104.418 236.32C104.804 235.64 104.998 234.867 104.998 234C104.998 233.133 104.804 232.36 104.418 231.68C104.044 231 103.524 230.473 102.858 230.1C102.191 229.713 101.444 229.52 100.618 229.52C99.7911 229.52 99.0444 229.713 98.3777 230.1C97.7111 230.473 97.1844 231 96.7977 231.68C96.4244 232.36 96.2377 233.133 96.2377 234C96.2377 234.867 96.4244 235.64 96.7977 236.32C97.1844 237 97.7111 237.533 98.3777 237.92C99.0444 238.293 99.7911 238.48 100.618 238.48ZM116.773 227C118.013 227 119.086 227.207 119.993 227.62C120.913 228.033 121.619 228.62 122.113 229.38C122.606 230.14 122.853 231.04 122.853 232.08C122.853 233.107 122.606 234.007 122.113 234.78C121.619 235.54 120.913 236.127 119.993 236.54C119.086 236.94 118.013 237.14 116.773 237.14H113.953V241H110.713V227H116.773ZM116.593 234.5C117.566 234.5 118.306 234.293 118.813 233.88C119.319 233.453 119.573 232.853 119.573 232.08C119.573 231.293 119.319 230.693 118.813 230.28C118.306 229.853 117.566 229.64 116.593 229.64H113.953V234.5H116.593ZM132.141 241.24C130.688 241.24 129.375 240.927 128.201 240.3C127.041 239.673 126.128 238.813 125.461 237.72C124.808 236.613 124.481 235.373 124.481 234C124.481 232.627 124.808 231.393 125.461 230.3C126.128 229.193 127.041 228.327 128.201 227.7C129.375 227.073 130.688 226.76 132.141 226.76C133.595 226.76 134.901 227.073 136.061 227.7C137.221 228.327 138.135 229.193 138.801 230.3C139.468 231.393 139.801 232.627 139.801 234C139.801 235.373 139.468 236.613 138.801 237.72C138.135 238.813 137.221 239.673 136.061 240.3C134.901 240.927 133.595 241.24 132.141 241.24ZM132.141 238.48C132.968 238.48 133.715 238.293 134.381 237.92C135.048 237.533 135.568 237 135.941 236.32C136.328 235.64 136.521 234.867 136.521 234C136.521 233.133 136.328 232.36 135.941 231.68C135.568 231 135.048 230.473 134.381 230.1C133.715 229.713 132.968 229.52 132.141 229.52C131.315 229.52 130.568 229.713 129.901 230.1C129.235 230.473 128.708 231 128.321 231.68C127.948 232.36 127.761 233.133 127.761 234C127.761 234.867 127.948 235.64 128.321 236.32C128.708 237 129.235 237.533 129.901 237.92C130.568 238.293 131.315 238.48 132.141 238.48ZM142.236 227H145.476V238.36H152.496V241H142.236V227ZM159.581 236.04V241H156.341V236L150.921 227H154.361L158.101 233.22L161.841 227H165.021L159.581 236.04Z" fill="white"/>
<defs>
<pattern id="pattern0_129_2262" patternUnits="userSpaceOnUse" patternTransform="matrix(16.05 0 0 8.2125 20.894 24.8931)" preserveAspectRatio="none" viewBox="-0.353516 -0.356445 53.5 27.375" width="1" height="1">
<use xlink:href="#pattern0_129_2262_inner" transform="translate(-53.5 -27.375)"/>
<use xlink:href="#pattern0_129_2262_inner" transform="translate(0 -27.375)"/>
<use xlink:href="#pattern0_129_2262_inner" transform="translate(-53.5 0)"/>
<g id="pattern0_129_2262_inner">
<path d="M0 0L27 26.5L53.5 0M0 9.5L27 36.5L53.5 9.5" stroke="black" stroke-opacity="0.2"/>
</g>
</pattern></defs>
</svg>
