<svg width="211" height="328" viewBox="0 0 211 328" fill="none" xmlns="http://www.w3.org/2000/svg" xmlns:xlink="http://www.w3.org/1999/xlink">
<rect x="3.05176e-05" y="9.2231e-06" width="211" height="328" rx="16" fill="#3FBDF7"/>
<rect x="21" y="25" width="168" height="276" fill="#96D7F5" fill-opacity="0.8"/>
<rect x="21" y="25" width="168" height="276" fill="url(#pattern0_129_2287)"/>
<rect x="21" y="25" width="168" height="276" stroke="black" stroke-width="2"/>
<path d="M54 34.5C54 46.3741 44.3741 56 32.5 56C20.6259 56 11 46.3741 11 34.5C11 22.6259 20.6259 13 32.5 13C44.3741 13 54 22.6259 54 34.5Z" fill="white" stroke="black" stroke-width="2"/>
<path d="M27.364 29.6641C25.739 29.6641 24.7311 30.6823 24.3405 32.7188L28.2468 32.7188L28.2468 33.7578L24.2311 33.7578L24.2155 34.1953L24.2155 34.6797L24.2311 35.0234L27.7624 35.0234L27.7624 36.0625L24.3561 36.0625C24.5384 36.9688 24.8874 37.6719 25.403 38.1719C25.9239 38.6667 26.6218 38.9141 27.4968 38.9141C28.2884 38.9141 29.0827 38.7422 29.8796 38.3984L29.8796 39.6484C29.1192 39.987 28.2963 40.1563 27.4108 40.1563C26.1817 40.1563 25.1869 39.8099 24.4265 39.1172C23.6713 38.4193 23.1739 37.4011 22.9343 36.0625L21.653 36.0625L21.653 35.0234L22.8093 35.0234L22.7936 34.6953L22.7936 34.3672L22.8093 33.7578L21.653 33.7578L21.653 32.7188L22.9186 32.7188C23.127 31.3438 23.6166 30.2865 24.3874 29.5469C25.1582 28.8021 26.1504 28.4297 27.364 28.4297C28.4317 28.4297 29.3874 28.6771 30.2311 29.1719L29.6374 30.3203C28.7936 29.8828 28.0358 29.6641 27.364 29.6641ZM30.8249 36.7344L32.7311 36.7344L32.7311 36.8672C32.7311 37.3099 32.8067 37.6484 32.9577 37.8828C33.114 38.112 33.3379 38.2266 33.6296 38.2266C33.9525 38.2266 34.1999 38.0833 34.3718 37.7969C34.5489 37.5104 34.6374 37.1042 34.6374 36.5781C34.6374 35.974 34.5254 35.5443 34.3015 35.2891C34.0775 35.0287 33.7077 34.8984 33.1921 34.8984C33.1608 34.8984 33.1166 34.9011 33.0593 34.9063C33.002 34.9115 32.9551 34.9141 32.9186 34.9141L32.9186 33.0391L33.0671 33.0391C33.6817 33.0391 34.1218 32.9271 34.3874 32.7031C34.6582 32.4792 34.7936 32.112 34.7936 31.6016C34.7936 31.2109 34.7155 30.9063 34.5593 30.6875C34.403 30.4636 34.1869 30.3516 33.9108 30.3516C33.6244 30.3516 33.4056 30.4609 33.2546 30.6797C33.1088 30.8984 33.0358 31.2214 33.0358 31.6484L33.0358 31.7734L31.1921 31.7734L31.1921 31.5078C31.1921 30.513 31.4343 29.7552 31.9186 29.2344C32.403 28.7083 33.1061 28.4453 34.028 28.4453C34.8822 28.4453 35.5384 28.7136 35.9968 29.25C36.4551 29.7865 36.6843 30.5547 36.6843 31.5547C36.6843 32.2422 36.5384 32.7917 36.2468 33.2031C35.9551 33.6094 35.5358 33.849 34.989 33.9219L34.989 34.0625C35.6765 34.1979 36.1895 34.487 36.528 34.9297C36.8666 35.3724 37.0358 35.974 37.0358 36.7344C37.0358 37.7969 36.739 38.6328 36.1452 39.2422C35.5567 39.8516 34.7494 40.1563 33.7233 40.1563C32.7963 40.1563 32.0775 39.8854 31.5671 39.3438C31.0619 38.8021 30.8093 38.0339 30.8093 37.0391C30.8093 37.0078 30.8119 36.9609 30.8171 36.8984C30.8223 36.8307 30.8249 36.7761 30.8249 36.7344ZM37.6849 40L38.3366 33.3464L40.0456 33.3464L40.392 35.8848C40.4436 36.2706 40.4861 36.6413 40.5196 36.9968C40.556 37.3492 40.5849 37.6925 40.6061 38.0267C40.6608 37.4403 40.7064 36.9785 40.7429 36.6413C40.7824 36.301 40.8143 36.0488 40.8386 35.8848L41.267 33.3464L42.9577 33.3464L43.5183 40L42.1739 40L42.0326 36.9102C42.0295 36.8373 42.025 36.7279 42.0189 36.582C41.9794 35.7739 41.9597 35.1116 41.9597 34.5951L41.0938 40L40.1322 40L39.3164 34.5586C39.3164 35.0113 39.2891 35.6584 39.2344 36.5C39.2223 36.6914 39.2131 36.8342 39.2071 36.9284L39.002 40L37.6849 40Z" fill="black"/>
<circle cx="103" cy="163" r="69.4222" fill="#3FBDF7" fill-opacity="0.5" stroke="black" stroke-width="3.15556"/>
<path d="M103.526 97.7862C139.253 97.7862 168.214 126.748 168.214 162.475C168.214 198.201 139.253 227.163 103.526 227.163C67.7993 227.163 38.8375 198.201 38.8375 162.475C38.8375 126.748 67.7993 97.7861 103.526 97.7862Z" stroke="black" stroke-width="1.05185"/>
<path d="M81.906 146.24C75.8122 146.24 72.0329 150.059 70.5681 157.695L85.2165 157.695L85.2165 161.592L70.1579 161.592L70.0993 163.232L70.0993 165.049L70.1579 166.338L83.4001 166.338L83.4001 170.234L70.6267 170.234C71.3103 173.633 72.6189 176.27 74.5525 178.145C76.5056 180 79.1228 180.928 82.404 180.928C85.3728 180.928 88.3513 180.283 91.3396 178.994L91.3396 183.682C88.488 184.951 85.4021 185.586 82.0817 185.586C77.4724 185.586 73.7419 184.287 70.8903 181.689C68.0583 179.072 66.1931 175.254 65.2946 170.234L60.49 170.234L60.49 166.338L64.8259 166.338L64.7673 165.107L64.7673 163.877L64.8259 161.592L60.49 161.592L60.49 157.695L65.2361 157.695C66.0173 152.539 67.8532 148.574 70.7439 145.801C73.6345 143.008 77.3552 141.611 81.906 141.611C85.9099 141.611 89.4939 142.539 92.6579 144.395L90.4314 148.701C87.2673 147.061 84.4255 146.24 81.906 146.24ZM94.8845 172.754L102.033 172.754L102.033 173.252C102.033 174.912 102.316 176.182 102.883 177.061C103.468 177.92 104.308 178.35 105.402 178.35C106.613 178.35 107.541 177.813 108.185 176.738C108.849 175.664 109.181 174.141 109.181 172.168C109.181 169.902 108.761 168.291 107.922 167.334C107.082 166.357 105.695 165.869 103.761 165.869C103.644 165.869 103.478 165.879 103.263 165.898C103.049 165.918 102.873 165.928 102.736 165.928L102.736 158.897L103.293 158.897C105.597 158.897 107.248 158.477 108.244 157.637C109.259 156.797 109.767 155.42 109.767 153.506C109.767 152.041 109.474 150.898 108.888 150.078C108.302 149.238 107.492 148.818 106.457 148.818C105.383 148.818 104.562 149.229 103.996 150.049C103.449 150.869 103.176 152.08 103.176 153.682L103.176 154.15L96.2614 154.15L96.2614 153.154C96.2614 149.424 97.1696 146.582 98.9861 144.629C100.802 142.656 103.439 141.67 106.896 141.67C110.099 141.67 112.56 142.676 114.279 144.688C115.998 146.699 116.857 149.58 116.857 153.33C116.857 155.908 116.31 157.969 115.217 159.512C114.123 161.035 112.551 161.934 110.5 162.207L110.5 162.734C113.078 163.242 115.002 164.326 116.271 165.986C117.541 167.647 118.176 169.902 118.175 172.754C118.175 176.738 117.062 179.873 114.836 182.158C112.629 184.443 109.601 185.586 105.754 185.586C102.277 185.586 99.5817 184.57 97.6677 182.539C95.7732 180.508 94.8259 177.627 94.8259 173.897C94.8259 173.779 94.8357 173.604 94.8552 173.369C94.8747 173.115 94.8845 172.91 94.8845 172.754ZM120.67 185L123.314 158.005L130.247 158.005L131.653 168.304C131.862 169.869 132.035 171.373 132.17 172.815C132.318 174.245 132.435 175.638 132.522 176.994C132.743 174.615 132.928 172.741 133.076 171.373C133.237 169.993 133.366 168.97 133.465 168.304L135.203 158.005L142.062 158.005L144.336 185L138.882 185L138.309 172.464C138.297 172.168 138.278 171.725 138.253 171.133C138.093 167.854 138.013 165.167 138.013 163.071L134.5 185L130.599 185L127.289 162.923C127.289 164.76 127.178 167.386 126.956 170.8C126.907 171.577 126.87 172.156 126.845 172.538L126.013 185L120.67 185Z" fill="black"/>
<rect x="42" y="221" width="126" height="26" fill="black" stroke="#3FBDF7" stroke-width="2"/>
<path d="M56.4032 233.78H59.3632V239.46C58.6032 240.033 57.7232 240.473 56.7232 240.78C55.7232 241.087 54.7166 241.24 53.7032 241.24C52.2499 241.24 50.9432 240.933 49.7832 240.32C48.6232 239.693 47.7099 238.833 47.0432 237.74C46.3899 236.633 46.0632 235.387 46.0632 234C46.0632 232.613 46.3899 231.373 47.0432 230.28C47.7099 229.173 48.6299 228.313 49.8032 227.7C50.9766 227.073 52.2966 226.76 53.7632 226.76C54.9899 226.76 56.1032 226.967 57.1032 227.38C58.1032 227.793 58.9432 228.393 59.6232 229.18L57.5432 231.1C56.5432 230.047 55.3366 229.52 53.9232 229.52C53.0299 229.52 52.2366 229.707 51.5432 230.08C50.8499 230.453 50.3099 230.98 49.9232 231.66C49.5366 232.34 49.3432 233.12 49.3432 234C49.3432 234.867 49.5366 235.64 49.9232 236.32C50.3099 237 50.8432 237.533 51.5232 237.92C52.2166 238.293 53.0032 238.48 53.8832 238.48C54.8166 238.48 55.6566 238.28 56.4032 237.88V233.78ZM71.5929 238H65.0929L63.8529 241H60.5329L66.7729 227H69.9729L76.2329 241H72.8329L71.5929 238ZM70.5729 235.54L68.3529 230.18L66.1329 235.54H70.5729ZM90.5254 227V241H87.8654L80.8854 232.5V241H77.6854V227H80.3654L87.3254 235.5V227H90.5254ZM100.618 241.24C99.1644 241.24 97.8511 240.927 96.6778 240.3C95.5178 239.673 94.6044 238.813 93.9378 237.72C93.2844 236.613 92.9578 235.373 92.9578 234C92.9578 232.627 93.2844 231.393 93.9378 230.3C94.6044 229.193 95.5178 228.327 96.6778 227.7C97.8511 227.073 99.1644 226.76 100.618 226.76C102.071 226.76 103.378 227.073 104.538 227.7C105.698 228.327 106.611 229.193 107.278 230.3C107.944 231.393 108.278 232.627 108.278 234C108.278 235.373 107.944 236.613 107.278 237.72C106.611 238.813 105.698 239.673 104.538 240.3C103.378 240.927 102.071 241.24 100.618 241.24ZM100.618 238.48C101.444 238.48 102.191 238.293 102.858 237.92C103.524 237.533 104.044 237 104.418 236.32C104.804 235.64 104.998 234.867 104.998 234C104.998 233.133 104.804 232.36 104.418 231.68C104.044 231 103.524 230.473 102.858 230.1C102.191 229.713 101.444 229.52 100.618 229.52C99.7911 229.52 99.0444 229.713 98.3778 230.1C97.7111 230.473 97.1844 231 96.7978 231.68C96.4244 232.36 96.2378 233.133 96.2378 234C96.2378 234.867 96.4244 235.64 96.7978 236.32C97.1844 237 97.7111 237.533 98.3778 237.92C99.0444 238.293 99.7911 238.48 100.618 238.48ZM116.773 227C118.013 227 119.086 227.207 119.993 227.62C120.913 228.033 121.619 228.62 122.113 229.38C122.606 230.14 122.853 231.04 122.853 232.08C122.853 233.107 122.606 234.007 122.113 234.78C121.619 235.54 120.913 236.127 119.993 236.54C119.086 236.94 118.013 237.14 116.773 237.14H113.953V241H110.713V227H116.773ZM116.593 234.5C117.566 234.5 118.306 234.293 118.813 233.88C119.319 233.453 119.573 232.853 119.573 232.08C119.573 231.293 119.319 230.693 118.813 230.28C118.306 229.853 117.566 229.64 116.593 229.64H113.953V234.5H116.593ZM132.141 241.24C130.688 241.24 129.375 240.927 128.201 240.3C127.041 239.673 126.128 238.813 125.461 237.72C124.808 236.613 124.481 235.373 124.481 234C124.481 232.627 124.808 231.393 125.461 230.3C126.128 229.193 127.041 228.327 128.201 227.7C129.375 227.073 130.688 226.76 132.141 226.76C133.595 226.76 134.901 227.073 136.061 227.7C137.221 228.327 138.135 229.193 138.801 230.3C139.468 231.393 139.801 232.627 139.801 234C139.801 235.373 139.468 236.613 138.801 237.72C138.135 238.813 137.221 239.673 136.061 240.3C134.901 240.927 133.595 241.24 132.141 241.24ZM132.141 238.48C132.968 238.48 133.715 238.293 134.381 237.92C135.048 237.533 135.568 237 135.941 236.32C136.328 235.64 136.521 234.867 136.521 234C136.521 233.133 136.328 232.36 135.941 231.68C135.568 231 135.048 230.473 134.381 230.1C133.715 229.713 132.968 229.52 132.141 229.52C131.315 229.52 130.568 229.713 129.901 230.1C129.235 230.473 128.708 231 128.321 231.68C127.948 232.36 127.761 233.133 127.761 234C127.761 234.867 127.948 235.64 128.321 236.32C128.708 237 129.235 237.533 129.901 237.92C130.568 238.293 131.315 238.48 132.141 238.48ZM142.236 227H145.476V238.36H152.496V241H142.236V227ZM159.581 236.04V241H156.341V236L150.921 227H154.361L158.101 233.22L161.841 227H165.021L159.581 236.04Z" fill="white"/>
<defs>
<pattern id="pattern0_129_2287" patternUnits="userSpaceOnUse" patternTransform="matrix(16.05 0 0 8.2125 20.894 24.8931)" preserveAspectRatio="none" viewBox="-0.353516 -0.356445 53.5 27.375" width="1" height="1">
<use xlink:href="#pattern0_129_2287_inner" transform="translate(-53.5 -27.375)"/>
<use xlink:href="#pattern0_129_2287_inner" transform="translate(0 -27.375)"/>
<use xlink:href="#pattern0_129_2287_inner" transform="translate(-53.5 0)"/>
<g id="pattern0_129_2287_inner">
<path d="M0 0L27 26.5L53.5 0M0 9.5L27 36.5L53.5 9.5" stroke="black" stroke-opacity="0.2"/>
</g>
</pattern></defs>
</svg>
