<svg width="211" height="328" viewBox="0 0 211 328" fill="none" xmlns="http://www.w3.org/2000/svg" xmlns:xlink="http://www.w3.org/1999/xlink">
<rect x="3.05176e-05" y="9.2231e-06" width="211" height="328" rx="16" fill="#F22B76"/>
<rect x="21" y="25" width="168" height="276" fill="#FBA6C6" fill-opacity="0.8"/>
<rect x="21" y="25" width="168" height="276" fill="url(#pattern0_129_2405)"/>
<rect x="21" y="25" width="168" height="276" stroke="black" stroke-width="2"/>
<path d="M54 34.5C54 46.3741 44.3741 56 32.5 56C20.6259 56 11 46.3741 11 34.5C11 22.6259 20.6259 13 32.5 13C44.3741 13 54 22.6259 54 34.5Z" fill="white" stroke="black" stroke-width="2"/>
<path d="M27.364 29.6641C25.739 29.6641 24.7311 30.6823 24.3405 32.7188L28.2468 32.7188L28.2468 33.7578L24.2311 33.7578L24.2155 34.1953L24.2155 34.6797L24.2311 35.0234L27.7624 35.0234L27.7624 36.0625L24.3561 36.0625C24.5384 36.9688 24.8874 37.6719 25.403 38.1719C25.9239 38.6667 26.6218 38.9141 27.4968 38.9141C28.2884 38.9141 29.0827 38.7422 29.8796 38.3984L29.8796 39.6484C29.1192 39.987 28.2963 40.1563 27.4108 40.1563C26.1817 40.1563 25.1869 39.8099 24.4265 39.1172C23.6713 38.4193 23.1739 37.4011 22.9343 36.0625L21.653 36.0625L21.653 35.0234L22.8093 35.0234L22.7936 34.6953L22.7936 34.3672L22.8093 33.7578L21.653 33.7578L21.653 32.7188L22.9186 32.7188C23.127 31.3438 23.6166 30.2865 24.3874 29.5469C25.1582 28.8021 26.1504 28.4297 27.364 28.4297C28.4317 28.4297 29.3874 28.6771 30.2311 29.1719L29.6374 30.3203C28.7936 29.8828 28.0358 29.6641 27.364 29.6641ZM30.9343 40L33.739 34.5469C34.0827 33.8802 34.3457 33.263 34.528 32.6953C34.7155 32.1276 34.8093 31.6615 34.8093 31.2969C34.8093 30.9375 34.7364 30.6615 34.5905 30.4688C34.4499 30.2761 34.2468 30.1797 33.9811 30.1797C33.5957 30.1797 33.3301 30.3359 33.1843 30.6484C33.0436 30.9557 32.9733 31.5651 32.9733 32.4766L31.114 32.4766C31.1088 32.4245 31.1035 32.3672 31.0983 32.3047C31.0983 32.237 31.0983 32.1406 31.0983 32.0156C31.0983 30.849 31.3535 29.9636 31.864 29.3594C32.3744 28.75 33.1218 28.4453 34.1061 28.4453C34.9499 28.4453 35.6192 28.7005 36.114 29.2109C36.6088 29.7162 36.8561 30.4011 36.8561 31.2656C36.8561 31.8542 36.7285 32.5052 36.4733 33.2188C36.2181 33.9271 35.7233 34.9453 34.989 36.2734L34.0124 38.0313L36.5671 38.0313L36.5671 40L30.9343 40ZM37.6849 40L38.3366 33.3464L40.0456 33.3464L40.392 35.8848C40.4436 36.2706 40.4861 36.6413 40.5196 36.9968C40.556 37.3492 40.5849 37.6925 40.6061 38.0267C40.6608 37.4403 40.7064 36.9785 40.7429 36.6413C40.7824 36.301 40.8143 36.0488 40.8386 35.8848L41.267 33.3464L42.9577 33.3464L43.5183 40L42.1739 40L42.0326 36.9102C42.0295 36.8373 42.025 36.7279 42.0189 36.582C41.9794 35.7739 41.9597 35.1116 41.9597 34.5951L41.0938 40L40.1322 40L39.3164 34.5586C39.3164 35.0113 39.2891 35.6584 39.2344 36.5C39.2223 36.6914 39.2131 36.8342 39.2071 36.9284L39.002 40L37.6849 40Z" fill="black"/>
<circle cx="103" cy="163" r="69.4222" fill="#F22B76" fill-opacity="0.5" stroke="black" stroke-width="3.15556"/>
<path d="M103.526 97.7862C139.253 97.7862 168.214 126.748 168.214 162.475C168.214 198.201 139.253 227.163 103.526 227.163C67.7993 227.163 38.8375 198.201 38.8375 162.475C38.8375 126.748 67.7993 97.7861 103.526 97.7862Z" stroke="black" stroke-width="1.05185"/>
<path d="M63.9994 73.648H54.4634L51.8714 78H45.1834L59.5514 55.6H65.7914L71.1994 78H64.8954L63.9994 73.648ZM63.0394 68.976L61.5354 61.712L57.2474 68.976H63.0394ZM84.9392 78.448C82.6778 78.448 80.6938 78.0427 78.9872 77.232C77.2805 76.4 75.9685 75.2373 75.0512 73.744C74.1338 72.2507 73.6752 70.5333 73.6752 68.592C73.6752 66.032 74.2618 63.728 75.4352 61.68C76.6298 59.632 78.2938 58.032 80.4272 56.88C82.5605 55.728 84.9925 55.152 87.7232 55.152C89.7925 55.152 91.6272 55.5253 93.2272 56.272C94.8272 56.9973 96.0218 58.032 96.8112 59.376L92.2352 63.024C91.1472 61.2747 89.5045 60.4 87.3072 60.4C85.8778 60.4 84.6192 60.7413 83.5312 61.424C82.4432 62.0853 81.5898 63.0133 80.9712 64.208C80.3738 65.3813 80.0752 66.704 80.0752 68.176C80.0752 69.6907 80.5658 70.9067 81.5472 71.824C82.5285 72.7413 83.8618 73.2 85.5472 73.2C87.6805 73.2 89.5045 72.336 91.0192 70.608L94.7632 74.288C93.5472 75.76 92.1285 76.8267 90.5072 77.488C88.8858 78.128 87.0298 78.448 84.9392 78.448ZM104.377 60.624H97.4967L98.5207 55.6H118.585L117.561 60.624H110.713L107.225 78H100.889L104.377 60.624ZM120.945 55.6H127.281L122.801 78H116.465L120.945 55.6ZM139.405 78.448C137.144 78.448 135.17 78.032 133.485 77.2C131.821 76.368 130.53 75.2053 129.613 73.712C128.717 72.2187 128.269 70.512 128.269 68.592C128.269 66.032 128.856 63.728 130.029 61.68C131.224 59.632 132.877 58.032 134.989 56.88C137.122 55.728 139.544 55.152 142.253 55.152C144.514 55.152 146.477 55.568 148.141 56.4C149.826 57.232 151.117 58.3947 152.013 59.888C152.93 61.3813 153.389 63.088 153.389 65.008C153.389 67.568 152.792 69.872 151.597 71.92C150.424 73.968 148.77 75.568 146.637 76.72C144.525 77.872 142.114 78.448 139.405 78.448ZM139.949 73.2C141.357 73.2 142.594 72.848 143.661 72.144C144.728 71.44 145.549 70.5013 146.125 69.328C146.701 68.1333 146.989 66.8213 146.989 65.392C146.989 63.8773 146.52 62.672 145.581 61.776C144.664 60.8587 143.373 60.4 141.709 60.4C140.301 60.4 139.064 60.752 137.997 61.456C136.93 62.16 136.109 63.1093 135.533 64.304C134.957 65.4773 134.669 66.7787 134.669 68.208C134.669 69.7227 135.128 70.9387 136.045 71.856C136.984 72.752 138.285 73.2 139.949 73.2ZM180.131 55.6L175.651 78H170.435L163.043 65.712L160.579 78H154.371L158.851 55.6H164.067L171.491 67.856L173.923 55.6H180.131Z" fill="#F22B76"/>
<mask id="path-9-outside-1_129_2405" maskUnits="userSpaceOnUse" x="43" y="51" width="139" height="26" fill="black">
<rect fill="white" x="43" y="51" width="139" height="26"/>
<path d="M63.9994 70.648H54.4634L51.8714 75H45.1834L59.5514 52.6H65.7914L71.1994 75H64.8954L63.9994 70.648ZM63.0394 65.976L61.5354 58.712L57.2474 65.976H63.0394ZM84.9392 75.448C82.6778 75.448 80.6938 75.0427 78.9872 74.232C77.2805 73.4 75.9685 72.2373 75.0512 70.744C74.1338 69.2507 73.6752 67.5333 73.6752 65.592C73.6752 63.032 74.2618 60.728 75.4352 58.68C76.6298 56.632 78.2938 55.032 80.4272 53.88C82.5605 52.728 84.9925 52.152 87.7232 52.152C89.7925 52.152 91.6272 52.5253 93.2272 53.272C94.8272 53.9973 96.0218 55.032 96.8112 56.376L92.2352 60.024C91.1472 58.2747 89.5045 57.4 87.3072 57.4C85.8778 57.4 84.6192 57.7413 83.5312 58.424C82.4432 59.0853 81.5898 60.0133 80.9712 61.208C80.3738 62.3813 80.0752 63.704 80.0752 65.176C80.0752 66.6907 80.5658 67.9067 81.5472 68.824C82.5285 69.7413 83.8618 70.2 85.5472 70.2C87.6805 70.2 89.5045 69.336 91.0192 67.608L94.7632 71.288C93.5472 72.76 92.1285 73.8267 90.5072 74.488C88.8858 75.128 87.0298 75.448 84.9392 75.448ZM104.377 57.624H97.4967L98.5207 52.6H118.585L117.561 57.624H110.713L107.225 75H100.889L104.377 57.624ZM120.945 52.6H127.281L122.801 75H116.465L120.945 52.6ZM139.405 75.448C137.144 75.448 135.17 75.032 133.485 74.2C131.821 73.368 130.53 72.2053 129.613 70.712C128.717 69.2187 128.269 67.512 128.269 65.592C128.269 63.032 128.856 60.728 130.029 58.68C131.224 56.632 132.877 55.032 134.989 53.88C137.122 52.728 139.544 52.152 142.253 52.152C144.514 52.152 146.477 52.568 148.141 53.4C149.826 54.232 151.117 55.3947 152.013 56.888C152.93 58.3813 153.389 60.088 153.389 62.008C153.389 64.568 152.792 66.872 151.597 68.92C150.424 70.968 148.77 72.568 146.637 73.72C144.525 74.872 142.114 75.448 139.405 75.448ZM139.949 70.2C141.357 70.2 142.594 69.848 143.661 69.144C144.728 68.44 145.549 67.5013 146.125 66.328C146.701 65.1333 146.989 63.8213 146.989 62.392C146.989 60.8773 146.52 59.672 145.581 58.776C144.664 57.8587 143.373 57.4 141.709 57.4C140.301 57.4 139.064 57.752 137.997 58.456C136.93 59.16 136.109 60.1093 135.533 61.304C134.957 62.4773 134.669 63.7787 134.669 65.208C134.669 66.7227 135.128 67.9387 136.045 68.856C136.984 69.752 138.285 70.2 139.949 70.2ZM180.131 52.6L175.651 75H170.435L163.043 62.712L160.579 75H154.371L158.851 52.6H164.067L171.491 64.856L173.923 52.6H180.131Z"/>
</mask>
<path d="M63.9994 70.648H54.4634L51.8714 75H45.1834L59.5514 52.6H65.7914L71.1994 75H64.8954L63.9994 70.648ZM63.0394 65.976L61.5354 58.712L57.2474 65.976H63.0394ZM84.9392 75.448C82.6778 75.448 80.6938 75.0427 78.9872 74.232C77.2805 73.4 75.9685 72.2373 75.0512 70.744C74.1338 69.2507 73.6752 67.5333 73.6752 65.592C73.6752 63.032 74.2618 60.728 75.4352 58.68C76.6298 56.632 78.2938 55.032 80.4272 53.88C82.5605 52.728 84.9925 52.152 87.7232 52.152C89.7925 52.152 91.6272 52.5253 93.2272 53.272C94.8272 53.9973 96.0218 55.032 96.8112 56.376L92.2352 60.024C91.1472 58.2747 89.5045 57.4 87.3072 57.4C85.8778 57.4 84.6192 57.7413 83.5312 58.424C82.4432 59.0853 81.5898 60.0133 80.9712 61.208C80.3738 62.3813 80.0752 63.704 80.0752 65.176C80.0752 66.6907 80.5658 67.9067 81.5472 68.824C82.5285 69.7413 83.8618 70.2 85.5472 70.2C87.6805 70.2 89.5045 69.336 91.0192 67.608L94.7632 71.288C93.5472 72.76 92.1285 73.8267 90.5072 74.488C88.8858 75.128 87.0298 75.448 84.9392 75.448ZM104.377 57.624H97.4967L98.5207 52.6H118.585L117.561 57.624H110.713L107.225 75H100.889L104.377 57.624ZM120.945 52.6H127.281L122.801 75H116.465L120.945 52.6ZM139.405 75.448C137.144 75.448 135.17 75.032 133.485 74.2C131.821 73.368 130.53 72.2053 129.613 70.712C128.717 69.2187 128.269 67.512 128.269 65.592C128.269 63.032 128.856 60.728 130.029 58.68C131.224 56.632 132.877 55.032 134.989 53.88C137.122 52.728 139.544 52.152 142.253 52.152C144.514 52.152 146.477 52.568 148.141 53.4C149.826 54.232 151.117 55.3947 152.013 56.888C152.93 58.3813 153.389 60.088 153.389 62.008C153.389 64.568 152.792 66.872 151.597 68.92C150.424 70.968 148.77 72.568 146.637 73.72C144.525 74.872 142.114 75.448 139.405 75.448ZM139.949 70.2C141.357 70.2 142.594 69.848 143.661 69.144C144.728 68.44 145.549 67.5013 146.125 66.328C146.701 65.1333 146.989 63.8213 146.989 62.392C146.989 60.8773 146.52 59.672 145.581 58.776C144.664 57.8587 143.373 57.4 141.709 57.4C140.301 57.4 139.064 57.752 137.997 58.456C136.93 59.16 136.109 60.1093 135.533 61.304C134.957 62.4773 134.669 63.7787 134.669 65.208C134.669 66.7227 135.128 67.9387 136.045 68.856C136.984 69.752 138.285 70.2 139.949 70.2ZM180.131 52.6L175.651 75H170.435L163.043 62.712L160.579 75H154.371L158.851 52.6H164.067L171.491 64.856L173.923 52.6H180.131Z" fill="white"/>
<path d="M63.9994 70.648L64.9789 70.4464L64.8145 69.648H63.9994V70.648ZM54.4634 70.648V69.648H53.8951L53.6042 70.1363L54.4634 70.648ZM51.8714 75V76H52.4397L52.7306 75.5117L51.8714 75ZM45.1834 75L44.3417 74.4601L43.3539 76H45.1834V75ZM59.5514 52.6V51.6H59.0048L58.7097 52.0601L59.5514 52.6ZM65.7914 52.6L66.7635 52.3653L66.5787 51.6H65.7914V52.6ZM71.1994 75V76H72.4696L72.1715 74.7653L71.1994 75ZM64.8954 75L63.9159 75.2017L64.0803 76H64.8954V75ZM63.0394 65.976V66.976H64.2677L64.0186 65.7733L63.0394 65.976ZM61.5354 58.712L62.5146 58.5093L61.9899 55.9749L60.6743 58.2037L61.5354 58.712ZM57.2474 65.976L56.3863 65.4677L55.4959 66.976H57.2474V65.976ZM63.9994 70.648V69.648H54.4634V70.648V71.648H63.9994V70.648ZM54.4634 70.648L53.6042 70.1363L51.0122 74.4883L51.8714 75L52.7306 75.5117L55.3226 71.1597L54.4634 70.648ZM51.8714 75V74H45.1834V75V76H51.8714V75ZM45.1834 75L46.0251 75.5399L60.3931 53.1399L59.5514 52.6L58.7097 52.0601L44.3417 74.4601L45.1834 75ZM59.5514 52.6V53.6H65.7914V52.6V51.6H59.5514V52.6ZM65.7914 52.6L64.8193 52.8347L70.2273 75.2347L71.1994 75L72.1715 74.7653L66.7635 52.3653L65.7914 52.6ZM71.1994 75V74H64.8954V75V76H71.1994V75ZM64.8954 75L65.8749 74.7984L64.9789 70.4464L63.9994 70.648L63.0199 70.8497L63.9159 75.2017L64.8954 75ZM63.0394 65.976L64.0186 65.7733L62.5146 58.5093L61.5354 58.712L60.5562 58.9148L62.0602 66.1788L63.0394 65.976ZM61.5354 58.712L60.6743 58.2037L56.3863 65.4677L57.2474 65.976L58.1086 66.4844L62.3966 59.2204L61.5354 58.712ZM57.2474 65.976V66.976H63.0394V65.976V64.976H57.2474V65.976ZM78.9872 74.232L78.5489 75.1309L78.5581 75.1353L78.9872 74.232ZM75.0512 70.744L74.1991 71.2674L74.1991 71.2674L75.0512 70.744ZM75.4352 58.68L74.5714 58.1761L74.5675 58.1829L75.4352 58.68ZM80.4272 53.88L79.952 53.0001L79.952 53.0001L80.4272 53.88ZM93.2272 53.272L92.8042 54.1782L92.8143 54.1828L93.2272 53.272ZM96.8112 56.376L97.4345 57.1579L98.1126 56.6174L97.6734 55.8696L96.8112 56.376ZM92.2352 60.024L91.386 60.5521L91.9796 61.5066L92.8585 60.8059L92.2352 60.024ZM83.5312 58.424L84.0506 59.2785L84.0566 59.2748L84.0626 59.2711L83.5312 58.424ZM80.9712 61.208L80.0831 60.7481L80.08 60.7543L80.9712 61.208ZM81.5472 68.824L80.8643 69.5545L81.5472 68.824ZM91.0192 67.608L91.7201 66.8948L90.9651 66.1527L90.2672 66.9488L91.0192 67.608ZM94.7632 71.288L95.5341 71.9249L96.1183 71.2178L95.4641 70.5748L94.7632 71.288ZM90.5072 74.488L90.8743 75.4182L90.8848 75.4139L90.5072 74.488ZM84.9392 75.448V74.448C82.7974 74.448 80.965 74.0644 79.4162 73.3287L78.9872 74.232L78.5581 75.1353C80.4227 76.0209 82.5582 76.448 84.9392 76.448V75.448ZM78.9872 74.232L79.4254 73.3331C77.8747 72.5772 76.7128 71.5385 75.9032 70.2206L75.0512 70.744L74.1991 71.2674C75.2242 72.9362 76.6863 74.2228 78.549 75.1309L78.9872 74.232ZM75.0512 70.744L75.9032 70.2206C75.0928 68.9013 74.6752 67.3691 74.6752 65.592H73.6752H72.6752C72.6752 67.6976 73.1748 69.6 74.1991 71.2674L75.0512 70.744ZM73.6752 65.592H74.6752C74.6752 63.1912 75.2235 61.0611 76.3028 59.1771L75.4352 58.68L74.5675 58.1829C73.3002 60.3949 72.6752 62.8728 72.6752 65.592H73.6752ZM75.4352 58.68L76.2989 59.1839C77.3989 57.2983 78.9267 55.8267 80.9023 54.7599L80.4272 53.88L79.952 53.0001C77.6609 54.2373 75.8608 55.9658 74.5714 58.1761L75.4352 58.68ZM80.4272 53.88L80.9023 54.7599C82.872 53.6963 85.1371 53.152 87.7232 53.152V52.152V51.152C84.8479 51.152 82.2489 51.7598 79.952 53.0001L80.4272 53.88ZM87.7232 52.152V53.152C89.6713 53.152 91.3576 53.5031 92.8043 54.1782L93.2272 53.272L93.65 52.3658C91.8967 51.5476 89.9137 51.152 87.7232 51.152V52.152ZM93.2272 53.272L92.8143 54.1828C94.2512 54.8342 95.277 55.7385 95.9489 56.8824L96.8112 56.376L97.6734 55.8696C96.7666 54.3255 95.4031 53.1605 93.64 52.3612L93.2272 53.272ZM96.8112 56.376L96.1878 55.5941L91.6118 59.2421L92.2352 60.024L92.8585 60.8059L97.4345 57.1579L96.8112 56.376ZM92.2352 60.024L93.0843 59.4959C91.7996 57.4303 89.8223 56.4 87.3072 56.4V57.4V58.4C89.1867 58.4 90.4947 59.1191 91.386 60.5521L92.2352 60.024ZM87.3072 57.4V56.4C85.7117 56.4 84.2645 56.7833 82.9997 57.5769L83.5312 58.424L84.0626 59.2711C84.9738 58.6994 86.044 58.4 87.3072 58.4V57.4ZM83.5312 58.424L83.0117 57.5695C81.758 58.3316 80.7812 59.4002 80.0832 60.7482L80.9712 61.208L81.8592 61.6679C82.3985 60.6264 83.1283 59.8391 84.0506 59.2785L83.5312 58.424ZM80.9712 61.208L80.08 60.7543C79.403 62.0841 79.0752 63.5652 79.0752 65.176H80.0752H81.0752C81.0752 63.8429 81.3446 62.6786 81.8623 61.6617L80.9712 61.208ZM80.0752 65.176H79.0752C79.0752 66.9286 79.6538 68.4231 80.8643 69.5545L81.5472 68.824L82.23 68.0935C81.4778 67.3903 81.0752 66.4527 81.0752 65.176H80.0752ZM81.5472 68.824L80.8643 69.5545C82.0748 70.6861 83.6757 71.2 85.5472 71.2V70.2V69.2C84.048 69.2 82.9822 68.7965 82.23 68.0935L81.5472 68.824ZM85.5472 70.2V71.2C87.9927 71.2 90.0832 70.1929 91.7712 68.2672L91.0192 67.608L90.2672 66.9488C88.9258 68.4791 87.3683 69.2 85.5472 69.2V70.2ZM91.0192 67.608L90.3182 68.3212L94.0622 72.0012L94.7632 71.288L95.4641 70.5748L91.7201 66.8948L91.0192 67.608ZM94.7632 71.288L93.9922 70.6511C92.8717 72.0076 91.5843 72.9687 90.1295 73.5621L90.5072 74.488L90.8848 75.4139C92.6727 74.6847 94.2226 73.5125 95.5341 71.9249L94.7632 71.288ZM90.5072 74.488L90.14 73.5579C88.6564 74.1435 86.9286 74.448 84.9392 74.448V75.448V76.448C87.131 76.448 89.1153 76.1125 90.8743 75.4182L90.5072 74.488ZM104.377 57.624L105.357 57.8208L105.597 56.624H104.377V57.624ZM97.4967 57.624L96.5168 57.4243L96.2723 58.624H97.4967V57.624ZM98.5207 52.6V51.6H97.7039L97.5408 52.4003L98.5207 52.6ZM118.585 52.6L119.565 52.7997L119.809 51.6H118.585V52.6ZM117.561 57.624V58.624H118.377L118.541 57.8237L117.561 57.624ZM110.713 57.624V56.624H109.893L109.732 57.4272L110.713 57.624ZM107.225 75V76H108.044L108.205 75.1968L107.225 75ZM100.889 75L99.9082 74.8032L99.668 76H100.889V75ZM104.377 57.624V56.624H97.4967V57.624V58.624H104.377V57.624ZM97.4967 57.624L98.4765 57.8237L99.5005 52.7997L98.5207 52.6L97.5408 52.4003L96.5168 57.4243L97.4967 57.624ZM98.5207 52.6V53.6H118.585V52.6V51.6H98.5207V52.6ZM118.585 52.6L117.605 52.4003L116.581 57.4243L117.561 57.624L118.541 57.8237L119.565 52.7997L118.585 52.6ZM117.561 57.624V56.624H110.713V57.624V58.624H117.561V57.624ZM110.713 57.624L109.732 57.4272L106.244 74.8032L107.225 75L108.205 75.1968L111.693 57.8208L110.713 57.624ZM107.225 75V74H100.889V75V76H107.225V75ZM100.889 75L101.869 75.1968L105.357 57.8208L104.377 57.624L103.396 57.4272L99.9082 74.8032L100.889 75ZM120.945 52.6V51.6H120.125L119.965 52.4039L120.945 52.6ZM127.281 52.6L128.262 52.7961L128.501 51.6H127.281V52.6ZM122.801 75V76H123.621L123.782 75.1961L122.801 75ZM116.465 75L115.485 74.8039L115.245 76H116.465V75ZM120.945 52.6V53.6H127.281V52.6V51.6H120.945V52.6ZM127.281 52.6L126.301 52.4039L121.821 74.8039L122.801 75L123.782 75.1961L128.262 52.7961L127.281 52.6ZM122.801 75V74H116.465V75V76H122.801V75ZM116.465 75L117.446 75.1961L121.926 52.7961L120.945 52.6L119.965 52.4039L115.485 74.8039L116.465 75ZM133.485 74.2L133.038 75.0944L133.042 75.0967L133.485 74.2ZM129.613 70.712L128.755 71.2265L128.761 71.2354L129.613 70.712ZM130.029 58.68L129.165 58.1761L129.161 58.1829L130.029 58.68ZM134.989 53.88L134.514 53.0001L134.51 53.0021L134.989 53.88ZM148.141 53.4L147.694 54.2944L147.698 54.2967L148.141 53.4ZM152.013 56.888L151.155 57.4025L151.161 57.4114L152.013 56.888ZM151.597 68.92L150.733 68.4161L150.729 68.4229L151.597 68.92ZM146.637 73.72L146.162 72.8401L146.158 72.8421L146.637 73.72ZM143.661 69.144L143.11 68.3094L143.11 68.3094L143.661 69.144ZM146.125 66.328L147.023 66.7687L147.026 66.7623L146.125 66.328ZM145.581 58.776L144.874 59.4831L144.882 59.4913L144.89 59.4994L145.581 58.776ZM137.997 58.456L138.548 59.2906L138.548 59.2906L137.997 58.456ZM135.533 61.304L136.431 61.7447L136.434 61.7383L135.533 61.304ZM136.045 68.856L135.338 69.5631L135.346 69.5713L135.354 69.5794L136.045 68.856ZM139.405 75.448V74.448C137.266 74.448 135.45 74.0549 133.928 73.3033L133.485 74.2L133.042 75.0967C134.89 76.0091 137.021 76.448 139.405 76.448V75.448ZM133.485 74.2L133.932 73.3056C132.424 72.5517 131.279 71.513 130.465 70.1886L129.613 70.712L128.761 71.2354C129.782 72.8977 131.217 74.1843 133.038 75.0944L133.485 74.2ZM129.613 70.712L130.47 70.1975C129.677 68.8752 129.269 67.3499 129.269 65.592H128.269H127.269C127.269 67.6741 127.757 69.5621 128.755 71.2265L129.613 70.712ZM128.269 65.592H129.269C129.269 63.1912 129.817 61.0611 130.897 59.1771L130.029 58.68L129.161 58.1829C127.894 60.3949 127.269 62.8728 127.269 65.592H128.269ZM130.029 58.68L130.893 59.1839C131.994 57.2957 133.513 55.824 135.468 54.7579L134.989 53.88L134.51 53.0021C132.241 54.24 130.453 55.9683 129.165 58.1761L130.029 58.68ZM134.989 53.88L135.464 54.7599C137.435 53.6956 139.69 53.152 142.253 53.152V52.152V51.152C139.397 51.152 136.81 51.7604 134.514 53.0001L134.989 53.88ZM142.253 52.152V53.152C144.392 53.152 146.195 53.5452 147.694 54.2944L148.141 53.4L148.588 52.5056C146.759 51.5908 144.637 51.152 142.253 51.152V52.152ZM148.141 53.4L147.698 54.2967C149.226 55.0508 150.366 56.0868 151.155 57.4025L152.013 56.888L152.87 56.3735C151.868 54.7025 150.427 53.4133 148.584 52.5033L148.141 53.4ZM152.013 56.888L151.161 57.4114C151.972 58.7324 152.389 60.2545 152.389 62.008H153.389H154.389C154.389 59.9215 153.888 58.0302 152.865 56.3646L152.013 56.888ZM153.389 62.008H152.389C152.389 64.4055 151.832 66.5332 150.733 68.4161L151.597 68.92L152.461 69.4239C153.752 67.2108 154.389 64.7305 154.389 62.008H153.389ZM151.597 68.92L150.729 68.4229C149.651 70.3046 148.136 71.7741 146.162 72.8401L146.637 73.72L147.112 74.5999C149.405 73.3619 151.196 71.6314 152.465 69.4171L151.597 68.92ZM146.637 73.72L146.158 72.8421C144.211 73.9043 141.968 74.448 139.405 74.448V75.448V76.448C142.26 76.448 144.839 75.8397 147.116 74.5979L146.637 73.72ZM139.949 70.2V71.2C141.532 71.2 142.965 70.8014 144.212 69.9786L143.661 69.144L143.11 68.3094C142.223 68.8946 141.182 69.2 139.949 69.2V70.2ZM143.661 69.144L144.212 69.9786C145.431 69.1742 146.37 68.0981 147.023 66.7687L146.125 66.328L145.227 65.8873C144.728 66.9046 144.025 67.7058 143.11 68.3094L143.661 69.144ZM146.125 66.328L147.026 66.7623C147.672 65.4218 147.989 63.9598 147.989 62.392H146.989H145.989C145.989 63.6829 145.73 64.8448 145.224 65.8937L146.125 66.328ZM146.989 62.392H147.989C147.989 60.6538 147.441 59.1691 146.271 58.0527L145.581 58.776L144.89 59.4994C145.598 60.1749 145.989 61.1009 145.989 62.392H146.989ZM145.581 58.776L146.288 58.0689C145.134 56.915 143.56 56.4 141.709 56.4V57.4V58.4C143.186 58.4 144.193 58.8024 144.874 59.4831L145.581 58.776ZM141.709 57.4V56.4C140.126 56.4 138.693 56.7986 137.446 57.6214L137.997 58.456L138.548 59.2906C139.434 58.7054 140.476 58.4 141.709 58.4V57.4ZM137.997 58.456L137.446 57.6214C136.223 58.4287 135.283 59.5189 134.632 60.8697L135.533 61.304L136.434 61.7383C136.934 60.6998 137.638 59.8913 138.548 59.2906L137.997 58.456ZM135.533 61.304L134.635 60.8633C133.986 62.1863 133.669 63.6404 133.669 65.208H134.669H135.669C135.669 63.9169 135.928 62.7684 136.431 61.7447L135.533 61.304ZM134.669 65.208H133.669C133.669 66.9399 134.202 68.4269 135.338 69.5631L136.045 68.856L136.752 68.1489C136.054 67.4505 135.669 66.5054 135.669 65.208H134.669ZM136.045 68.856L135.354 69.5794C136.527 70.699 138.103 71.2 139.949 71.2V70.2V69.2C138.467 69.2 137.44 68.805 136.735 68.1327L136.045 68.856ZM180.131 52.6L181.112 52.7961L181.351 51.6H180.131V52.6ZM175.651 75V76H176.471L176.632 75.1961L175.651 75ZM170.435 75L169.579 75.5155L169.87 76H170.435V75ZM163.043 62.712L163.9 62.1965L162.57 59.9855L162.063 62.5154L163.043 62.712ZM160.579 75V76H161.399L161.56 75.1966L160.579 75ZM154.371 75L153.391 74.8039L153.152 76H154.371V75ZM158.851 52.6V51.6H158.032L157.871 52.4039L158.851 52.6ZM164.067 52.6L164.923 52.0819L164.631 51.6H164.067V52.6ZM171.491 64.856L170.636 65.3741L171.971 67.5776L172.472 65.0506L171.491 64.856ZM173.923 52.6V51.6H173.102L172.943 52.4054L173.923 52.6ZM180.131 52.6L179.151 52.4039L174.671 74.8039L175.651 75L176.632 75.1961L181.112 52.7961L180.131 52.6ZM175.651 75V74H170.435V75V76H175.651V75ZM170.435 75L171.292 74.4845L163.9 62.1965L163.043 62.712L162.187 63.2275L169.579 75.5155L170.435 75ZM163.043 62.712L162.063 62.5154L159.599 74.8034L160.579 75L161.56 75.1966L164.024 62.9086L163.043 62.712ZM160.579 75V74H154.371V75V76H160.579V75ZM154.371 75L155.352 75.1961L159.832 52.7961L158.851 52.6L157.871 52.4039L153.391 74.8039L154.371 75ZM158.851 52.6V53.6H164.067V52.6V51.6H158.851V52.6ZM164.067 52.6L163.212 53.1181L170.636 65.3741L171.491 64.856L172.347 64.3379L164.923 52.0819L164.067 52.6ZM171.491 64.856L172.472 65.0506L174.904 52.7946L173.923 52.6L172.943 52.4054L170.511 64.6614L171.491 64.856ZM173.923 52.6V53.6H180.131V52.6V51.6H173.923V52.6Z" fill="#F22B76" mask="url(#path-9-outside-1_129_2405)"/>
<g clip-path="url(#clip0_129_2405)">
<path d="M105.5 215C117.374 215 127 209.653 127 203.056C127 196.459 117.374 191.111 105.5 191.111C93.6259 191.111 84 196.459 84 203.056C84 209.653 93.6259 215 105.5 215Z" fill="#8899A6"/>
<path d="M105.5 212.909C117.374 212.909 127 207.562 127 200.965C127 194.368 117.374 189.021 105.5 189.021C93.6259 189.021 84 194.368 84 200.965C84 207.562 93.6259 212.909 105.5 212.909Z" fill="#CCD6DD"/>
<path d="M123.029 200.29C123.029 205.379 115.181 209.502 105.5 209.502C95.8191 209.502 87.9716 205.379 87.9716 200.29C87.9716 195.205 95.8191 191.08 105.5 191.08C115.18 191.08 123.029 195.205 123.029 200.29Z" fill="#DD2E44"/>
<path d="M122.501 198.926C122.501 210.696 88.4995 210.696 88.4995 198.926V188.464H122.501V198.926Z" fill="#F4ABBA"/>
<path d="M105.481 193.698C94.75 193.698 88.4983 188.763 88.4983 188.763C88.4983 188.763 88.4792 189.866 88.4792 190.775C88.4792 190.775 88.5174 196.626 91.5513 196.626C94.4885 196.626 94.2747 199.43 96.1308 199.721C97.9715 200.008 98.1757 198.6 100.461 198.6C102.746 198.6 103.148 201.116 105.481 201.116C108.215 201.116 108.44 198.6 110.723 198.6C113.007 198.6 113.27 200.062 114.768 199.657C116.568 199.17 115.74 196.627 119.411 196.627C122.444 196.627 122.52 191.075 122.52 191.075C122.52 190.167 122.499 188.764 122.499 188.764C122.499 188.764 116.213 193.698 105.481 193.698Z" fill="#DD2E44"/>
<path d="M123.029 187.214C123.029 192.301 115.181 196.425 105.5 196.425C95.8191 196.425 87.9716 192.301 87.9716 187.214C87.9716 182.126 95.8191 178.002 105.5 178.002C115.18 178.002 123.029 182.126 123.029 187.214Z" fill="#EA596E"/>
<path d="M114.654 188.464C113.932 188.464 113.346 187.879 113.346 187.156V178.002C113.346 177.655 113.484 177.323 113.729 177.077C113.975 176.832 114.307 176.694 114.654 176.694C115.001 176.694 115.334 176.832 115.579 177.077C115.824 177.323 115.962 177.655 115.962 178.002V187.156C115.962 187.879 115.377 188.464 114.654 188.464Z" fill="#FFF8E8"/>
<path d="M114.654 179.963C113.266 179.963 112.175 179.328 111.734 178.263C111.352 177.34 111.162 175.337 114.192 172.308C114.253 172.247 114.325 172.199 114.404 172.166C114.483 172.133 114.568 172.116 114.654 172.116C114.74 172.116 114.825 172.133 114.904 172.166C114.984 172.199 115.056 172.247 115.116 172.308C118.147 175.338 117.957 177.34 117.575 178.263C117.134 179.328 116.042 179.963 114.654 179.963Z" fill="#FAAA35"/>
<path d="M105.5 192.387C104.777 192.387 104.192 191.802 104.192 191.079V181.926C104.192 181.754 104.226 181.584 104.292 181.426C104.357 181.267 104.454 181.123 104.575 181.001C104.697 180.88 104.841 180.783 105 180.718C105.158 180.652 105.328 180.618 105.5 180.618C105.672 180.618 105.842 180.652 106.001 180.718C106.159 180.783 106.303 180.88 106.425 181.001C106.546 181.123 106.643 181.267 106.708 181.426C106.774 181.584 106.808 181.754 106.808 181.926V191.08C106.808 191.802 106.223 192.387 105.5 192.387Z" fill="#FFF8E8"/>
<path d="M105.5 183.887C104.112 183.887 103.02 183.251 102.58 182.187C102.196 181.264 102.007 179.261 105.038 176.232C105.098 176.171 105.171 176.123 105.25 176.09C105.329 176.057 105.414 176.04 105.5 176.04C105.586 176.04 105.671 176.057 105.75 176.09C105.83 176.123 105.902 176.171 105.962 176.232C108.993 179.262 108.803 181.264 108.42 182.187C107.98 183.251 106.888 183.887 105.5 183.887Z" fill="#FAAA35"/>
<path d="M96.3458 188.464C95.6232 188.464 95.0379 187.879 95.0379 187.156V178.002C95.0379 177.831 95.0717 177.66 95.1374 177.502C95.2032 177.343 95.2995 177.199 95.421 177.077C95.5424 176.956 95.6866 176.86 95.8453 176.794C96.004 176.728 96.174 176.694 96.3458 176.694C96.5175 176.694 96.6876 176.728 96.8463 176.794C97.005 176.86 97.1492 176.956 97.2706 177.077C97.3921 177.199 97.4884 177.343 97.5541 177.502C97.6199 177.66 97.6537 177.831 97.6537 178.002V187.156C97.6537 187.879 97.0684 188.464 96.3458 188.464Z" fill="#FFF8E8"/>
<path d="M96.3458 179.963C94.9579 179.963 93.8661 179.328 93.4254 178.263C93.042 177.34 92.8532 175.337 95.8835 172.308C95.9442 172.247 96.0163 172.199 96.0956 172.166C96.1749 172.133 96.2599 172.116 96.3458 172.116C96.4317 172.116 96.5167 172.133 96.596 172.166C96.6753 172.199 96.7474 172.247 96.808 172.308C99.8384 175.338 99.6484 177.34 99.2662 178.263C98.8255 179.328 97.7337 179.963 96.3458 179.963Z" fill="#FAAA35"/>
</g>
<path d="M76.2813 142L76.2813 127.742L79.1817 127.742L79.1817 142L76.2813 142ZM82.9121 142L82.9121 130.379L80.7344 130.379L80.7344 127.742L87.9512 127.742L87.9512 130.379L85.7735 130.379L85.7735 142L82.9121 142ZM88.5664 133.66L90.168 127.742L92.961 127.742L90.5489 133.66L88.5664 133.66ZM93.9668 141.502L93.9668 138.543C94.3249 138.855 94.6765 139.09 95.0215 139.246C95.3666 139.402 95.7149 139.48 96.0664 139.48C96.5482 139.48 96.9258 139.354 97.1992 139.1C97.4792 138.846 97.6192 138.501 97.6192 138.064C97.6192 137.524 97.2448 136.938 96.4961 136.307C96.2878 136.131 96.1315 135.994 96.0274 135.896C95.155 135.115 94.556 134.415 94.2305 133.797C93.905 133.172 93.7422 132.466 93.7422 131.678C93.7422 130.447 94.0873 129.454 94.7774 128.699C95.474 127.938 96.3822 127.557 97.502 127.557C97.8991 127.557 98.2897 127.615 98.6739 127.732C99.0645 127.843 99.4746 128.019 99.9043 128.26L99.9043 130.779C99.403 130.538 99.0124 130.372 98.7325 130.281C98.459 130.19 98.2149 130.145 98 130.145C97.5899 130.145 97.2546 130.275 96.9942 130.535C96.7338 130.789 96.6035 131.124 96.6035 131.541C96.6035 131.906 96.7012 132.247 96.8965 132.566C97.0918 132.879 97.5476 133.344 98.2637 133.963C99.2207 134.783 99.836 135.467 100.109 136.014C100.383 136.554 100.52 137.208 100.52 137.977C100.52 139.272 100.152 140.298 99.416 141.053C98.6869 141.801 97.6908 142.176 96.4278 142.176C95.946 142.176 95.5 142.12 95.0899 142.01C94.6862 141.899 94.3119 141.73 93.9668 141.502ZM105.793 142L107.189 127.742L110.852 127.742L111.594 133.182C111.704 134.008 111.796 134.803 111.867 135.564C111.945 136.32 112.007 137.055 112.053 137.772C112.17 136.515 112.268 135.525 112.346 134.803C112.43 134.074 112.499 133.533 112.551 133.182L113.469 127.742L117.092 127.742L118.293 142L115.412 142L115.109 135.379C115.103 135.223 115.093 134.988 115.08 134.676C114.995 132.944 114.953 131.525 114.953 130.418L113.098 142L111.037 142L109.289 130.34C109.289 131.31 109.23 132.697 109.113 134.5C109.087 134.91 109.068 135.216 109.055 135.418L108.615 142L105.793 142ZM121.193 142L121.193 135.301L117.893 127.742L120.891 127.742L121.828 130.32C122.004 130.783 122.163 131.245 122.307 131.707C122.45 132.163 122.587 132.628 122.717 133.104C122.834 132.576 122.961 132.085 123.098 131.629C123.234 131.173 123.374 130.763 123.518 130.398L124.553 127.742L127.336 127.742L124.016 135.301L124.016 142L121.193 142ZM68.918 157.66L69.2207 157.66C69.9499 157.66 70.4837 157.517 70.8223 157.23C71.1673 156.944 71.3399 156.501 71.3399 155.902C71.3399 155.271 71.1641 154.805 70.8125 154.506C70.4675 154.206 69.9304 154.057 69.2012 154.057L68.918 154.057L68.918 157.66ZM68.918 163.461C68.9636 163.461 69.0287 163.464 69.1133 163.471C69.2045 163.477 69.2728 163.48 69.3184 163.48C70.0475 163.48 70.5749 163.334 70.9004 163.041C71.2324 162.748 71.3985 162.283 71.3985 161.645C71.3985 160.961 71.2324 160.473 70.9004 160.18C70.5684 159.887 70.0215 159.74 69.2598 159.74L68.918 159.74L68.918 163.461ZM66.1641 166L66.1641 151.742L68.9375 151.742C70.7995 151.742 72.1146 152.035 72.8828 152.621C73.6576 153.201 74.0449 154.174 74.0449 155.541C74.0449 156.316 73.8985 156.954 73.6055 157.455C73.3125 157.956 72.8568 158.357 72.2383 158.656C72.9284 158.904 73.4362 159.294 73.7617 159.828C74.0938 160.355 74.2598 161.052 74.2598 161.918C74.2598 162.563 74.1524 163.148 73.9375 163.676C73.7227 164.197 73.4102 164.639 73 165.004C72.5899 165.362 72.0951 165.619 71.5156 165.775C70.9427 165.925 70.0378 166 68.8008 166L66.1641 166ZM76.0469 166L76.0469 151.742L78.9473 151.742L78.9473 166L76.0469 166ZM84.0938 157.924C84.1263 157.924 84.1784 157.927 84.25 157.934C84.3281 157.94 84.3835 157.943 84.416 157.943C85.0345 157.943 85.5 157.771 85.8125 157.426C86.125 157.081 86.2813 156.573 86.2813 155.902C86.2813 155.219 86.138 154.721 85.8516 154.408C85.5651 154.096 85.1061 153.939 84.4746 153.939C84.377 153.939 84.3021 153.943 84.25 153.949C84.1979 153.949 84.1491 153.952 84.1035 153.959L84.0938 157.924ZM81.3399 166L81.3399 151.742L84.2989 151.742C85.9265 151.742 87.1048 152.061 87.834 152.699C88.5697 153.337 88.9375 154.356 88.9375 155.756C88.9375 156.771 88.7487 157.589 88.3711 158.207C88 158.819 87.4369 159.249 86.6817 159.496L89.416 166L86.418 166L84.0938 160.102L84.0938 166L81.3399 166ZM91.8574 166L91.8574 154.379L89.6797 154.379L89.6797 151.742L96.8965 151.742L96.8965 154.379L94.7188 154.379L94.7188 166L91.8574 166ZM98.3125 166L98.3125 151.742L101.125 151.742L101.125 157.016L104.309 157.016L104.309 151.742L107.15 151.742L107.15 166L104.309 166L104.309 159.799L101.125 159.799L101.125 166L98.3125 166ZM112.199 163.363L112.424 163.363C113.433 163.363 114.204 162.986 114.738 162.23C115.272 161.469 115.539 160.365 115.539 158.92C115.539 157.37 115.279 156.221 114.758 155.473C114.244 154.717 113.452 154.34 112.385 154.34L112.199 154.34L112.199 163.363ZM109.387 166L109.387 151.742L111.828 151.742C114.029 151.742 115.669 152.331 116.75 153.51C117.837 154.688 118.381 156.479 118.381 158.881C118.381 160.326 118.182 161.537 117.785 162.514C117.388 163.49 116.766 164.298 115.92 164.936C115.419 165.32 114.849 165.593 114.211 165.756C113.579 165.919 112.684 166 111.525 166L109.387 166ZM122.395 161.283L124.289 161.283C124.094 160.287 123.918 159.245 123.762 158.158C123.605 157.064 123.469 155.912 123.352 154.701C123.208 155.769 123.055 156.853 122.893 157.953C122.736 159.047 122.57 160.157 122.395 161.283ZM118.596 166L121.916 151.742L124.895 151.742L128.059 166L125.217 166L124.738 163.5L121.877 163.5L121.438 166L118.596 166ZM130.1 166L130.1 159.301L126.799 151.742L129.797 151.742L130.734 154.32C130.91 154.783 131.07 155.245 131.213 155.707C131.356 156.163 131.493 156.628 131.623 157.104C131.74 156.576 131.867 156.085 132.004 155.629C132.141 155.173 132.281 154.763 132.424 154.398L133.459 151.742L136.242 151.742L132.922 159.301L132.922 166L130.1 166ZM136.867 161.82L136.867 151.742L139.553 151.742L139.553 161.82L136.867 161.82ZM139.934 164.457C139.934 164.952 139.768 165.362 139.436 165.688C139.11 166.013 138.703 166.176 138.215 166.176C137.727 166.176 137.316 166.013 136.984 165.688C136.652 165.362 136.486 164.952 136.486 164.457C136.486 163.969 136.652 163.562 136.984 163.236C137.323 162.904 137.733 162.738 138.215 162.738C138.697 162.738 139.104 162.904 139.436 163.236C139.768 163.562 139.934 163.969 139.934 164.457Z" fill="white"/>
<defs>
<clipPath id="clip0_129_2405">
<rect width="43" height="43" fill="white" transform="translate(84 172)"/>
</clipPath>
<pattern id="pattern0_129_2405" patternUnits="userSpaceOnUse" patternTransform="matrix(16.05 0 0 8.2125 20.894 24.8931)" preserveAspectRatio="none" viewBox="-0.353516 -0.356445 53.5 27.375" width="1" height="1">
<use xlink:href="#pattern0_129_2405_inner" transform="translate(-53.5 -27.375)"/>
<use xlink:href="#pattern0_129_2405_inner" transform="translate(0 -27.375)"/>
<use xlink:href="#pattern0_129_2405_inner" transform="translate(-53.5 0)"/>
<g id="pattern0_129_2405_inner">
<path d="M0 0L27 26.5L53.5 0M0 9.5L27 36.5L53.5 9.5" stroke="black" stroke-opacity="0.2"/>
</g>
</pattern></defs>
</svg>
