<svg width="211" height="328" viewBox="0 0 211 328" fill="none" xmlns="http://www.w3.org/2000/svg" xmlns:xlink="http://www.w3.org/1999/xlink">
<rect x="1.43373e-05" y="9.2231e-06" width="211" height="328" rx="16" fill="#C8D4B3"/>
<rect x="11.5" y="11.5" width="187" height="306" fill="#C8D4B3" stroke="black"/>
<rect x="21" y="25" width="168" height="276" fill="#C8D4B3" stroke="black"/>
<rect x="189" y="35" width="255" height="10" transform="rotate(90 189 35)" fill="url(#pattern0_118_1565)"/>
<rect x="21.0003" y="290" width="255" height="9.99998" transform="rotate(-90 21.0003 290)" fill="url(#pattern1_118_1565)"/>
<rect x="23.0003" y="25" width="155" height="10" fill="url(#pattern2_118_1565)"/>
<rect x="180" y="300" width="155" height="10" transform="rotate(-180 180 300)" fill="url(#pattern3_118_1565)"/>
<rect x="33.5" y="39.5" width="140" height="247" fill="url(#pattern4_118_1565)" stroke="black"/>
<circle cx="178.5" cy="295.5" r="17.1111" transform="rotate(90 178.5 295.5)" fill="#C8D4B3" stroke="black" stroke-width="0.777778"/>
<path d="M183.336 290.475C183.336 288.85 182.318 287.842 180.281 287.452L180.281 291.358L179.242 291.358L179.242 287.342L178.805 287.327L178.32 287.327L177.977 287.342L177.977 290.874L176.938 290.874L176.938 287.467C176.031 287.65 175.328 287.999 174.828 288.514C174.333 289.035 174.086 289.733 174.086 290.608C174.086 291.4 174.258 292.194 174.602 292.991L173.352 292.991C173.013 292.23 172.844 291.408 172.844 290.522C172.844 289.293 173.19 288.298 173.883 287.538C174.581 286.783 175.599 286.285 176.938 286.046L176.938 284.764L177.977 284.764L177.977 285.921L178.305 285.905L178.633 285.905L179.242 285.921L179.242 284.764L180.281 284.764L180.281 286.03C181.656 286.238 182.714 286.728 183.453 287.499C184.198 288.27 184.57 289.262 184.57 290.475C184.57 291.543 184.323 292.499 183.828 293.342L182.68 292.749C183.117 291.905 183.336 291.147 183.336 290.475ZM176.266 293.936L176.266 295.842L176.133 295.842C175.69 295.842 175.352 295.918 175.117 296.069C174.888 296.225 174.773 296.449 174.773 296.741C174.773 297.064 174.917 297.311 175.203 297.483C175.49 297.66 175.896 297.749 176.422 297.749C177.026 297.749 177.456 297.637 177.711 297.413C177.971 297.189 178.102 296.819 178.102 296.303C178.102 296.272 178.099 296.228 178.094 296.171C178.089 296.113 178.086 296.066 178.086 296.03L179.961 296.03L179.961 296.178C179.961 296.793 180.073 297.233 180.297 297.499C180.521 297.77 180.888 297.905 181.398 297.905C181.789 297.905 182.094 297.827 182.313 297.671C182.536 297.514 182.648 297.298 182.648 297.022C182.648 296.736 182.539 296.517 182.32 296.366C182.102 296.22 181.779 296.147 181.352 296.147L181.227 296.147L181.227 294.303L181.492 294.303C182.487 294.303 183.245 294.546 183.766 295.03C184.292 295.514 184.555 296.217 184.555 297.139C184.555 297.993 184.286 298.65 183.75 299.108C183.214 299.566 182.445 299.796 181.445 299.796C180.758 299.796 180.208 299.65 179.797 299.358C179.391 299.066 179.151 298.647 179.078 298.1L178.938 298.1C178.802 298.788 178.513 299.301 178.07 299.639C177.628 299.978 177.026 300.147 176.266 300.147C175.203 300.147 174.367 299.85 173.758 299.257C173.148 298.668 172.844 297.861 172.844 296.835C172.844 295.908 173.115 295.189 173.656 294.678C174.198 294.173 174.966 293.921 175.961 293.921C175.992 293.921 176.039 293.923 176.102 293.928C176.169 293.934 176.224 293.936 176.266 293.936ZM173 300.796L179.654 301.448L179.654 303.157L177.115 303.503C176.729 303.555 176.359 303.597 176.003 303.631C175.651 303.667 175.308 303.696 174.973 303.717C175.56 303.772 176.021 303.818 176.359 303.854C176.699 303.894 176.951 303.926 177.115 303.95L179.654 304.378L179.654 306.069L173 306.63L173 305.285L176.09 305.144C176.163 305.141 176.272 305.136 176.418 305.13C177.226 305.091 177.888 305.071 178.405 305.071L173 304.205L173 303.243L178.441 302.428C177.989 302.428 177.342 302.4 176.5 302.346C176.309 302.334 176.166 302.324 176.072 302.318L173 302.113L173 300.796Z" fill="black"/>
<circle cx="31.5" cy="33.5" r="17.1111" transform="rotate(90 31.5 33.5)" fill="#C8D4B3" stroke="black" stroke-width="0.777778"/>
<path d="M36.336 28.4753C36.336 26.8503 35.3177 25.8425 33.2813 25.4518L33.2813 29.3581L32.2422 29.3581L32.2422 25.3425L31.8047 25.3268L31.3203 25.3268L30.9766 25.3425L30.9766 28.8737L29.9375 28.8737L29.9375 25.4675C29.0313 25.6497 28.3281 25.9987 27.8281 26.5143C27.3333 27.0352 27.086 27.7331 27.086 28.6081C27.086 29.3997 27.2578 30.194 27.6016 30.9909L26.3516 30.9909C26.013 30.2305 25.8438 29.4076 25.8438 28.5221C25.8438 27.293 26.1901 26.2982 26.8828 25.5378C27.5807 24.7826 28.599 24.2852 29.9375 24.0456L29.9375 22.7643L30.9766 22.7643L30.9766 23.9206L31.3047 23.905L31.6328 23.905L32.2422 23.9206L32.2422 22.7643L33.2813 22.7643L33.2813 24.03C34.6563 24.2383 35.7136 24.7279 36.4531 25.4987C37.1979 26.2695 37.5703 27.2617 37.5703 28.4753C37.5703 29.543 37.3229 30.4987 36.8281 31.3425L35.6797 30.7487C36.1172 29.905 36.336 29.1471 36.336 28.4753ZM29.2656 31.9362L29.2656 33.8425L29.1328 33.8425C28.6901 33.8425 28.3516 33.918 28.1172 34.069C27.888 34.2253 27.7735 34.4492 27.7735 34.7409C27.7735 35.0638 27.9167 35.3112 28.2031 35.4831C28.4896 35.6602 28.8958 35.7487 29.4219 35.7487C30.0261 35.7487 30.4557 35.6367 30.711 35.4128C30.9714 35.1888 31.1016 34.819 31.1016 34.3034C31.1016 34.2721 31.099 34.2279 31.0938 34.1706C31.0886 34.1133 31.086 34.0664 31.086 34.03L32.961 34.03L32.961 34.1784C32.961 34.793 33.0729 35.2331 33.2969 35.4987C33.5208 35.7695 33.888 35.905 34.3985 35.905C34.7891 35.905 35.0938 35.8268 35.3125 35.6706C35.5365 35.5143 35.6485 35.2982 35.6485 35.0221C35.6485 34.7357 35.5391 34.5169 35.3203 34.3659C35.1016 34.2201 34.7787 34.1471 34.3516 34.1471L34.2266 34.1471L34.2266 32.3034L34.4922 32.3034C35.487 32.3034 36.2448 32.5456 36.7656 33.03C37.2917 33.5143 37.5547 34.2175 37.5547 35.1393C37.5547 35.9935 37.2865 36.6497 36.75 37.1081C36.2136 37.5664 35.4453 37.7956 34.4453 37.7956C33.7578 37.7956 33.2083 37.6497 32.7969 37.3581C32.3906 37.0664 32.1511 36.6471 32.0781 36.1003L31.9375 36.1003C31.8021 36.7878 31.513 37.3008 31.0703 37.6393C30.6276 37.9779 30.0261 38.1471 29.2656 38.1471C28.2031 38.1471 27.3672 37.8503 26.7578 37.2565C26.1485 36.668 25.8438 35.8607 25.8438 34.8346C25.8438 33.9076 26.1146 33.1888 26.6563 32.6784C27.1979 32.1732 27.9662 31.9206 28.961 31.9206C28.9922 31.9206 29.0391 31.9232 29.1016 31.9284C29.1693 31.9336 29.224 31.9362 29.2656 31.9362ZM26 38.7962L32.6537 39.4479L32.6537 41.1569L30.1152 41.5033C29.7294 41.5549 29.3587 41.5974 29.0033 41.6309C28.6508 41.6673 28.3075 41.6962 27.9733 41.7175C28.5597 41.7721 29.0215 41.8177 29.3587 41.8542C29.699 41.8937 29.9512 41.9256 30.1152 41.9499L32.6537 42.3783L32.6537 44.069L26 44.6296L26 43.2852L29.0899 43.1439C29.1628 43.1408 29.2721 43.1363 29.418 43.1302C30.2261 43.0907 30.8885 43.071 31.405 43.071L26 42.2051L26 41.2435L31.4414 40.4277C30.9887 40.4277 30.3416 40.4004 29.5 40.3457C29.3086 40.3336 29.1658 40.3244 29.0716 40.3184L26 40.1133L26 38.7962Z" fill="black"/>
<circle cx="103" cy="163" r="69.4222" transform="rotate(90 103 163)" fill="#C8D3B4" stroke="black" stroke-width="3.15556"/>
<path d="M168.214 163.526C168.214 199.253 139.253 228.214 103.526 228.214C67.7992 228.214 38.8374 199.253 38.8374 163.526C38.8374 127.799 67.7992 98.8374 103.526 98.8374C139.253 98.8374 168.214 127.799 168.214 163.526Z" stroke="black" stroke-width="1.05185"/>
<path d="M119.76 141.906C119.76 135.812 115.941 132.033 108.305 130.568L108.305 145.216L104.408 145.216L104.408 130.158L102.768 130.099L100.951 130.099L99.6621 130.158L99.6621 143.4L95.7656 143.4L95.7656 130.627C92.3672 131.31 89.7305 132.619 87.8555 134.552C86 136.505 85.0723 139.123 85.0723 142.404C85.0723 145.373 85.7168 148.351 87.0059 151.339L82.3184 151.339C81.0488 148.488 80.4141 145.402 80.4141 142.082C80.4141 137.472 81.7129 133.742 84.3106 130.89C86.9277 128.058 90.7461 126.193 95.7656 125.294L95.7656 120.49L99.6621 120.49L99.6621 124.826L100.893 124.767L102.123 124.767L104.408 124.826L104.408 120.49L108.305 120.49L108.305 125.236C113.461 126.017 117.426 127.853 120.199 130.744C122.992 133.634 124.389 137.355 124.389 141.906C124.389 145.91 123.461 149.494 121.605 152.658L117.299 150.431C118.939 147.267 119.76 144.425 119.76 141.906ZM93.2461 154.884L93.2461 162.033L92.7481 162.033C91.0879 162.033 89.8184 162.316 88.9395 162.882C88.0801 163.468 87.6504 164.308 87.6504 165.402C87.6504 166.613 88.1875 167.541 89.2617 168.185C90.3359 168.849 91.8594 169.181 93.832 169.181C96.0977 169.181 97.709 168.761 98.666 167.921C99.6426 167.082 100.131 165.695 100.131 163.761C100.131 163.644 100.121 163.478 100.102 163.263C100.082 163.048 100.072 162.873 100.072 162.736L107.104 162.736L107.104 163.293C107.104 165.597 107.523 167.248 108.363 168.244C109.203 169.259 110.58 169.767 112.494 169.767C113.959 169.767 115.102 169.474 115.922 168.888C116.762 168.302 117.182 167.492 117.182 166.457C117.182 165.382 116.771 164.562 115.951 163.996C115.131 163.449 113.92 163.175 112.318 163.175L111.85 163.175L111.85 156.261L112.846 156.261C116.576 156.261 119.418 157.169 121.371 158.986C123.344 160.802 124.33 163.439 124.33 166.896C124.33 170.099 123.324 172.56 121.313 174.279C119.301 175.998 116.42 176.857 112.67 176.857C110.092 176.857 108.031 176.31 106.488 175.216C104.965 174.123 104.066 172.55 103.793 170.5L103.266 170.5C102.758 173.078 101.674 175.002 100.014 176.271C98.3535 177.541 96.0977 178.175 93.2461 178.175C89.2617 178.175 86.127 177.062 83.8418 174.835C81.5566 172.628 80.4141 169.601 80.4141 165.753C80.4141 162.277 81.4297 159.582 83.4609 157.668C85.4922 155.773 88.3731 154.826 92.1035 154.826C92.2207 154.826 92.3965 154.835 92.6309 154.855C92.8848 154.875 93.0899 154.884 93.2461 154.884ZM81 180.67L107.995 183.314L107.995 190.247L97.6961 191.652C96.1306 191.862 94.6268 192.035 93.1846 192.17C91.7548 192.318 90.3619 192.435 89.006 192.521C91.385 192.743 93.2586 192.928 94.6268 193.076C96.0074 193.236 97.0305 193.366 97.6961 193.464L107.995 195.202L107.995 202.062L81 204.336L81 198.882L93.5359 198.309C93.8318 198.296 94.2755 198.278 94.8672 198.253C98.146 198.093 100.833 198.013 102.929 198.013L81 194.5L81 190.599L103.077 187.289C101.24 187.289 98.6144 187.178 95.2 186.956C94.4234 186.907 93.8441 186.87 93.462 186.845L81 186.013L81 180.67Z" fill="black"/>
<defs>
<pattern id="pattern0_118_1565" patternUnits="userSpaceOnUse" patternTransform="matrix(15.2616 0 0 10.1164 189 35)" preserveAspectRatio="none" viewBox="7.50705e-06 0 19.077 12.6454" width="1" height="1">
<g id="pattern0_118_1565_inner">
<path d="M9.49354 10.4556C9.5432 4.72657 5.33305 0.0454458 0.0899123 0L0.0859162 0.461036C5.09603 0.504461 9.11906 4.97754 9.07161 10.4519L9.49354 10.4556Z" fill="black"/>
<path d="M8.22774 10.4446C8.27077 5.47947 4.62198 1.42249 0.077924 1.38311L0.0739279 1.84414C4.38495 1.88151 7.84663 5.73043 7.8058 10.441L8.22774 10.4446Z" fill="black"/>
<path d="M6.53999 10.43C6.5742 6.48333 3.67388 3.25856 0.0619396 3.22725L0.0579435 3.68828C3.43685 3.71757 6.15006 6.7343 6.11806 10.4263L6.53999 10.43Z" fill="black"/>
<path d="M4.43032 10.4117C4.45349 7.73816 2.48876 5.55363 0.0419591 5.53243L0.037963 5.99346C2.25173 6.01265 4.02935 7.98913 4.00838 10.408L4.43032 10.4117Z" fill="black"/>
<path d="M2.32064 10.3934C2.33278 8.99299 1.30363 7.84871 0.0219786 7.8376L0 10.3733L2.32064 10.3934Z" fill="black"/>
<path d="M9.49355 10.4556C9.54321 4.72655 13.8339 0.119105 19.077 0.164551L19.073 0.625586C14.0629 0.58216 9.96294 4.98483 9.91549 10.4592L9.49355 10.4556Z" fill="black"/>
<path d="M10.7594 10.4665C10.8024 5.50139 14.521 1.50827 19.065 1.54766L19.061 2.00869C14.75 1.97133 11.2221 5.75967 11.1813 10.4702L10.7594 10.4665Z" fill="black"/>
<path d="M12.4471 10.4812C12.4813 6.53451 15.4371 3.36049 19.049 3.3918L19.045 3.85283C15.6661 3.82355 12.901 6.79279 12.869 10.4848L12.4471 10.4812Z" fill="black"/>
<path d="M14.5568 10.4994C14.5799 7.82591 16.5823 5.67577 19.0291 5.69698L19.0251 6.15801C16.8113 6.13882 14.9997 8.08419 14.9787 10.5031L14.5568 10.4994Z" fill="black"/>
<path d="M16.6664 10.5177C16.6786 9.11731 17.7274 7.99105 19.0091 8.00215L18.9871 10.5378L16.6664 10.5177Z" fill="black"/>
</g>
</pattern><pattern id="pattern1_118_1565" patternUnits="userSpaceOnUse" patternTransform="matrix(15.2616 0 0 10.1164 21.0003 290)" preserveAspectRatio="none" viewBox="7.50705e-06 0 19.077 12.6454" width="1" height="1">
<g id="pattern1_118_1565_inner">
<path d="M9.49354 10.4556C9.5432 4.72657 5.33305 0.0454458 0.0899123 0L0.0859162 0.461036C5.09603 0.504461 9.11906 4.97754 9.07161 10.4519L9.49354 10.4556Z" fill="black"/>
<path d="M8.22774 10.4446C8.27077 5.47947 4.62198 1.42249 0.077924 1.38311L0.0739279 1.84414C4.38495 1.88151 7.84663 5.73043 7.8058 10.441L8.22774 10.4446Z" fill="black"/>
<path d="M6.53999 10.43C6.5742 6.48333 3.67388 3.25856 0.0619396 3.22725L0.0579435 3.68828C3.43685 3.71757 6.15006 6.7343 6.11806 10.4263L6.53999 10.43Z" fill="black"/>
<path d="M4.43032 10.4117C4.45349 7.73816 2.48876 5.55363 0.0419591 5.53243L0.037963 5.99346C2.25173 6.01265 4.02935 7.98913 4.00838 10.408L4.43032 10.4117Z" fill="black"/>
<path d="M2.32064 10.3934C2.33278 8.99299 1.30363 7.84871 0.0219786 7.8376L0 10.3733L2.32064 10.3934Z" fill="black"/>
<path d="M9.49355 10.4556C9.54321 4.72655 13.8339 0.119105 19.077 0.164551L19.073 0.625586C14.0629 0.58216 9.96294 4.98483 9.91549 10.4592L9.49355 10.4556Z" fill="black"/>
<path d="M10.7594 10.4665C10.8024 5.50139 14.521 1.50827 19.065 1.54766L19.061 2.00869C14.75 1.97133 11.2221 5.75967 11.1813 10.4702L10.7594 10.4665Z" fill="black"/>
<path d="M12.4471 10.4812C12.4813 6.53451 15.4371 3.36049 19.049 3.3918L19.045 3.85283C15.6661 3.82355 12.901 6.79279 12.869 10.4848L12.4471 10.4812Z" fill="black"/>
<path d="M14.5568 10.4994C14.5799 7.82591 16.5823 5.67577 19.0291 5.69698L19.0251 6.15801C16.8113 6.13882 14.9997 8.08419 14.9787 10.5031L14.5568 10.4994Z" fill="black"/>
<path d="M16.6664 10.5177C16.6786 9.11731 17.7274 7.99105 19.0091 8.00215L18.9871 10.5378L16.6664 10.5177Z" fill="black"/>
</g>
</pattern><pattern id="pattern2_118_1565" patternUnits="userSpaceOnUse" patternTransform="matrix(15.2616 0 0 10.1164 23.0003 25)" preserveAspectRatio="none" viewBox="7.50705e-06 0 19.077 12.6454" width="1" height="1">
<g id="pattern2_118_1565_inner">
<path d="M9.49354 10.4556C9.5432 4.72657 5.33305 0.0454458 0.0899123 0L0.0859162 0.461036C5.09603 0.504461 9.11906 4.97754 9.07161 10.4519L9.49354 10.4556Z" fill="black"/>
<path d="M8.22774 10.4446C8.27077 5.47947 4.62198 1.42249 0.077924 1.38311L0.0739279 1.84414C4.38495 1.88151 7.84663 5.73043 7.8058 10.441L8.22774 10.4446Z" fill="black"/>
<path d="M6.53999 10.43C6.5742 6.48333 3.67388 3.25856 0.0619396 3.22725L0.0579435 3.68828C3.43685 3.71757 6.15006 6.7343 6.11806 10.4263L6.53999 10.43Z" fill="black"/>
<path d="M4.43032 10.4117C4.45349 7.73816 2.48876 5.55363 0.0419591 5.53243L0.037963 5.99346C2.25173 6.01265 4.02935 7.98913 4.00838 10.408L4.43032 10.4117Z" fill="black"/>
<path d="M2.32064 10.3934C2.33278 8.99299 1.30363 7.84871 0.0219786 7.8376L0 10.3733L2.32064 10.3934Z" fill="black"/>
<path d="M9.49355 10.4556C9.54321 4.72655 13.8339 0.119105 19.077 0.164551L19.073 0.625586C14.0629 0.58216 9.96294 4.98483 9.91549 10.4592L9.49355 10.4556Z" fill="black"/>
<path d="M10.7594 10.4665C10.8024 5.50139 14.521 1.50827 19.065 1.54766L19.061 2.00869C14.75 1.97133 11.2221 5.75967 11.1813 10.4702L10.7594 10.4665Z" fill="black"/>
<path d="M12.4471 10.4812C12.4813 6.53451 15.4371 3.36049 19.049 3.3918L19.045 3.85283C15.6661 3.82355 12.901 6.79279 12.869 10.4848L12.4471 10.4812Z" fill="black"/>
<path d="M14.5568 10.4994C14.5799 7.82591 16.5823 5.67577 19.0291 5.69698L19.0251 6.15801C16.8113 6.13882 14.9997 8.08419 14.9787 10.5031L14.5568 10.4994Z" fill="black"/>
<path d="M16.6664 10.5177C16.6786 9.11731 17.7274 7.99105 19.0091 8.00215L18.9871 10.5378L16.6664 10.5177Z" fill="black"/>
</g>
</pattern><pattern id="pattern3_118_1565" patternUnits="userSpaceOnUse" patternTransform="matrix(15.2616 0 0 10.1164 180 300)" preserveAspectRatio="none" viewBox="7.50705e-06 0 19.077 12.6454" width="1" height="1">
<g id="pattern3_118_1565_inner">
<path d="M9.49354 10.4556C9.5432 4.72657 5.33305 0.0454458 0.0899123 0L0.0859162 0.461036C5.09603 0.504461 9.11906 4.97754 9.07161 10.4519L9.49354 10.4556Z" fill="black"/>
<path d="M8.22774 10.4446C8.27077 5.47947 4.62198 1.42249 0.077924 1.38311L0.0739279 1.84414C4.38495 1.88151 7.84663 5.73043 7.8058 10.441L8.22774 10.4446Z" fill="black"/>
<path d="M6.53999 10.43C6.5742 6.48333 3.67388 3.25856 0.0619396 3.22725L0.0579435 3.68828C3.43685 3.71757 6.15006 6.7343 6.11806 10.4263L6.53999 10.43Z" fill="black"/>
<path d="M4.43032 10.4117C4.45349 7.73816 2.48876 5.55363 0.0419591 5.53243L0.037963 5.99346C2.25173 6.01265 4.02935 7.98913 4.00838 10.408L4.43032 10.4117Z" fill="black"/>
<path d="M2.32064 10.3934C2.33278 8.99299 1.30363 7.84871 0.0219786 7.8376L0 10.3733L2.32064 10.3934Z" fill="black"/>
<path d="M9.49355 10.4556C9.54321 4.72655 13.8339 0.119105 19.077 0.164551L19.073 0.625586C14.0629 0.58216 9.96294 4.98483 9.91549 10.4592L9.49355 10.4556Z" fill="black"/>
<path d="M10.7594 10.4665C10.8024 5.50139 14.521 1.50827 19.065 1.54766L19.061 2.00869C14.75 1.97133 11.2221 5.75967 11.1813 10.4702L10.7594 10.4665Z" fill="black"/>
<path d="M12.4471 10.4812C12.4813 6.53451 15.4371 3.36049 19.049 3.3918L19.045 3.85283C15.6661 3.82355 12.901 6.79279 12.869 10.4848L12.4471 10.4812Z" fill="black"/>
<path d="M14.5568 10.4994C14.5799 7.82591 16.5823 5.67577 19.0291 5.69698L19.0251 6.15801C16.8113 6.13882 14.9997 8.08419 14.9787 10.5031L14.5568 10.4994Z" fill="black"/>
<path d="M16.6664 10.5177C16.6786 9.11731 17.7274 7.99105 19.0091 8.00215L18.9871 10.5378L16.6664 10.5177Z" fill="black"/>
</g>
</pattern><pattern id="pattern4_118_1565" patternUnits="userSpaceOnUse" patternTransform="matrix(2.22 0 0 2.22 33 39)" preserveAspectRatio="none" viewBox="0 0 111 111" width="1" height="1">
<g id="pattern4_118_1565_inner">
<circle cx="55.5" cy="55.5" r="55" stroke="black"/>
<circle cx="55.5" cy="55.5001" r="47.9747" stroke="black"/>
<circle cx="55.5" cy="55.5001" r="38.1392" stroke="black"/>
<circle cx="55.5" cy="55.4999" r="29.7089" stroke="black"/>
<circle cx="55.5" cy="55.4999" r="29.7089" stroke="black"/>
<circle cx="55.5" cy="55.4998" r="17.0633" stroke="black"/>
<circle cx="55.5" cy="55.5001" r="8.63291" stroke="black"/>
</g>
</pattern></defs>
</svg>
