<svg width="211" height="328" viewBox="0 0 211 328" fill="none" xmlns="http://www.w3.org/2000/svg" xmlns:xlink="http://www.w3.org/1999/xlink">
<rect x="1.43373e-05" y="9.2231e-06" width="211" height="328" rx="16" fill="#E1D994"/>
<rect x="21" y="25" width="168" height="276" fill="#E1D994"/>
<rect x="21" y="25" width="168" height="276" fill="url(#pattern0_136_2679)"/>
<rect x="21" y="25" width="168" height="276" stroke="black" stroke-width="2"/>
<path d="M54 34.5C54 46.3741 44.3741 56 32.5 56C20.6259 56 11 46.3741 11 34.5C11 22.6259 20.6259 13 32.5 13C44.3741 13 54 22.6259 54 34.5Z" fill="white" stroke="black" stroke-width="2"/>
<path d="M27.3639 29.6641C25.7389 29.6641 24.7311 30.6823 24.3405 32.7188L28.2468 32.7188L28.2468 33.7578L24.2311 33.7578L24.2155 34.1953L24.2155 34.6797L24.2311 35.0234L27.7624 35.0234L27.7624 36.0625L24.3561 36.0625C24.5384 36.9688 24.8874 37.6719 25.403 38.1719C25.9238 38.6667 26.6218 38.9141 27.4968 38.9141C28.2884 38.9141 29.0827 38.7422 29.8796 38.3984L29.8796 39.6484C29.1192 39.987 28.2962 40.1563 27.4108 40.1563C26.1817 40.1563 25.1869 39.8099 24.4264 39.1172C23.6712 38.4193 23.1738 37.4011 22.9343 36.0625L21.653 36.0625L21.653 35.0234L22.8093 35.0234L22.7936 34.6953L22.7936 34.3672L22.8093 33.7578L21.653 33.7578L21.653 32.7188L22.9186 32.7188C23.127 31.3438 23.6165 30.2865 24.3874 29.5469C25.1582 28.8021 26.1504 28.4297 27.3639 28.4297C28.4317 28.4297 29.3874 28.6771 30.2311 29.1719L29.6374 30.3203C28.7936 29.8828 28.0358 29.6641 27.3639 29.6641ZM32.3639 35.4531L34.2624 35.4531L34.2624 32.2266C34.2624 32.1276 34.2676 31.9818 34.278 31.7891C34.2884 31.5912 34.3119 31.2292 34.3483 30.7031C34.2181 31.1458 34.0879 31.5547 33.9577 31.9297C33.8275 32.2995 33.6999 32.6172 33.5749 32.8828L32.3639 35.4531ZM34.1843 40L34.1843 37.1719L30.903 37.1719L30.903 35.4531L33.8952 28.5938L36.0905 28.5938L36.0905 35.4531L37.0202 35.4531L37.0202 37.1719L36.0905 37.1719L36.0905 40L34.1843 40ZM37.6849 40L38.3366 33.3464L40.0456 33.3464L40.3919 35.8848C40.4436 36.2706 40.4861 36.6413 40.5195 36.9968C40.556 37.3492 40.5849 37.6925 40.6061 38.0267C40.6608 37.4403 40.7064 36.9785 40.7429 36.6413C40.7823 36.301 40.8142 36.0488 40.8386 35.8848L41.2669 33.3464L42.9577 33.3464L43.5182 40L42.1738 40L42.0326 36.9102C42.0295 36.8373 42.025 36.7279 42.0189 36.582C41.9794 35.7739 41.9596 35.1116 41.9596 34.5951L41.0938 40L40.1322 40L39.3164 34.5586C39.3164 35.0113 39.2891 35.6584 39.2344 36.5C39.2222 36.6914 39.2131 36.8342 39.207 36.9284L39.002 40L37.6849 40Z" fill="black"/>
<path d="M63.9994 73.648H54.4634L51.8714 78H45.1834L59.5514 55.6H65.7914L71.1994 78H64.8954L63.9994 73.648ZM63.0394 68.976L61.5354 61.712L57.2474 68.976H63.0394ZM84.9391 78.448C82.6778 78.448 80.6938 78.0427 78.9871 77.232C77.2805 76.4 75.9685 75.2373 75.0511 73.744C74.1338 72.2507 73.6751 70.5333 73.6751 68.592C73.6751 66.032 74.2618 63.728 75.4351 61.68C76.6298 59.632 78.2938 58.032 80.4271 56.88C82.5605 55.728 84.9925 55.152 87.7231 55.152C89.7925 55.152 91.6271 55.5253 93.2271 56.272C94.8271 56.9973 96.0218 58.032 96.8111 59.376L92.2351 63.024C91.1471 61.2747 89.5045 60.4 87.3071 60.4C85.8778 60.4 84.6191 60.7413 83.5311 61.424C82.4431 62.0853 81.5898 63.0133 80.9711 64.208C80.3738 65.3813 80.0751 66.704 80.0751 68.176C80.0751 69.6907 80.5658 70.9067 81.5471 71.824C82.5285 72.7413 83.8618 73.2 85.5471 73.2C87.6805 73.2 89.5045 72.336 91.0191 70.608L94.7631 74.288C93.5471 75.76 92.1285 76.8267 90.5071 77.488C88.8858 78.128 87.0298 78.448 84.9391 78.448ZM104.377 60.624H97.4966L98.5206 55.6H118.585L117.561 60.624H110.713L107.225 78H100.889L104.377 60.624ZM120.945 55.6H127.281L122.801 78H116.465L120.945 55.6ZM139.405 78.448C137.144 78.448 135.17 78.032 133.485 77.2C131.821 76.368 130.53 75.2053 129.613 73.712C128.717 72.2187 128.269 70.512 128.269 68.592C128.269 66.032 128.856 63.728 130.029 61.68C131.224 59.632 132.877 58.032 134.989 56.88C137.122 55.728 139.544 55.152 142.253 55.152C144.514 55.152 146.477 55.568 148.141 56.4C149.826 57.232 151.117 58.3947 152.013 59.888C152.93 61.3813 153.389 63.088 153.389 65.008C153.389 67.568 152.792 69.872 151.597 71.92C150.424 73.968 148.77 75.568 146.637 76.72C144.525 77.872 142.114 78.448 139.405 78.448ZM139.949 73.2C141.357 73.2 142.594 72.848 143.661 72.144C144.728 71.44 145.549 70.5013 146.125 69.328C146.701 68.1333 146.989 66.8213 146.989 65.392C146.989 63.8773 146.52 62.672 145.581 61.776C144.664 60.8587 143.373 60.4 141.709 60.4C140.301 60.4 139.064 60.752 137.997 61.456C136.93 62.16 136.109 63.1093 135.533 64.304C134.957 65.4773 134.669 66.7787 134.669 68.208C134.669 69.7227 135.128 70.9387 136.045 71.856C136.984 72.752 138.285 73.2 139.949 73.2ZM180.131 55.6L175.651 78H170.435L163.043 65.712L160.579 78H154.371L158.851 55.6H164.067L171.491 67.856L173.923 55.6H180.131Z" fill="#565028"/>
<mask id="path-7-outside-1_136_2679" maskUnits="userSpaceOnUse" x="43" y="51" width="139" height="26" fill="black">
<rect fill="white" x="43" y="51" width="139" height="26"/>
<path d="M63.9994 70.648H54.4634L51.8714 75H45.1834L59.5514 52.6H65.7914L71.1994 75H64.8954L63.9994 70.648ZM63.0394 65.976L61.5354 58.712L57.2474 65.976H63.0394ZM84.9391 75.448C82.6778 75.448 80.6938 75.0427 78.9871 74.232C77.2805 73.4 75.9685 72.2373 75.0511 70.744C74.1338 69.2507 73.6751 67.5333 73.6751 65.592C73.6751 63.032 74.2618 60.728 75.4351 58.68C76.6298 56.632 78.2938 55.032 80.4271 53.88C82.5605 52.728 84.9925 52.152 87.7231 52.152C89.7925 52.152 91.6271 52.5253 93.2271 53.272C94.8271 53.9973 96.0218 55.032 96.8111 56.376L92.2351 60.024C91.1471 58.2747 89.5045 57.4 87.3071 57.4C85.8778 57.4 84.6191 57.7413 83.5311 58.424C82.4431 59.0853 81.5898 60.0133 80.9711 61.208C80.3738 62.3813 80.0751 63.704 80.0751 65.176C80.0751 66.6907 80.5658 67.9067 81.5471 68.824C82.5285 69.7413 83.8618 70.2 85.5471 70.2C87.6805 70.2 89.5045 69.336 91.0191 67.608L94.7631 71.288C93.5471 72.76 92.1285 73.8267 90.5071 74.488C88.8858 75.128 87.0298 75.448 84.9391 75.448ZM104.377 57.624H97.4966L98.5206 52.6H118.585L117.561 57.624H110.713L107.225 75H100.889L104.377 57.624ZM120.945 52.6H127.281L122.801 75H116.465L120.945 52.6ZM139.405 75.448C137.144 75.448 135.17 75.032 133.485 74.2C131.821 73.368 130.53 72.2053 129.613 70.712C128.717 69.2187 128.269 67.512 128.269 65.592C128.269 63.032 128.856 60.728 130.029 58.68C131.224 56.632 132.877 55.032 134.989 53.88C137.122 52.728 139.544 52.152 142.253 52.152C144.514 52.152 146.477 52.568 148.141 53.4C149.826 54.232 151.117 55.3947 152.013 56.888C152.93 58.3813 153.389 60.088 153.389 62.008C153.389 64.568 152.792 66.872 151.597 68.92C150.424 70.968 148.77 72.568 146.637 73.72C144.525 74.872 142.114 75.448 139.405 75.448ZM139.949 70.2C141.357 70.2 142.594 69.848 143.661 69.144C144.728 68.44 145.549 67.5013 146.125 66.328C146.701 65.1333 146.989 63.8213 146.989 62.392C146.989 60.8773 146.52 59.672 145.581 58.776C144.664 57.8587 143.373 57.4 141.709 57.4C140.301 57.4 139.064 57.752 137.997 58.456C136.93 59.16 136.109 60.1093 135.533 61.304C134.957 62.4773 134.669 63.7787 134.669 65.208C134.669 66.7227 135.128 67.9387 136.045 68.856C136.984 69.752 138.285 70.2 139.949 70.2ZM180.131 52.6L175.651 75H170.435L163.043 62.712L160.579 75H154.371L158.851 52.6H164.067L171.491 64.856L173.923 52.6H180.131Z"/>
</mask>
<path d="M63.9994 70.648H54.4634L51.8714 75H45.1834L59.5514 52.6H65.7914L71.1994 75H64.8954L63.9994 70.648ZM63.0394 65.976L61.5354 58.712L57.2474 65.976H63.0394ZM84.9391 75.448C82.6778 75.448 80.6938 75.0427 78.9871 74.232C77.2805 73.4 75.9685 72.2373 75.0511 70.744C74.1338 69.2507 73.6751 67.5333 73.6751 65.592C73.6751 63.032 74.2618 60.728 75.4351 58.68C76.6298 56.632 78.2938 55.032 80.4271 53.88C82.5605 52.728 84.9925 52.152 87.7231 52.152C89.7925 52.152 91.6271 52.5253 93.2271 53.272C94.8271 53.9973 96.0218 55.032 96.8111 56.376L92.2351 60.024C91.1471 58.2747 89.5045 57.4 87.3071 57.4C85.8778 57.4 84.6191 57.7413 83.5311 58.424C82.4431 59.0853 81.5898 60.0133 80.9711 61.208C80.3738 62.3813 80.0751 63.704 80.0751 65.176C80.0751 66.6907 80.5658 67.9067 81.5471 68.824C82.5285 69.7413 83.8618 70.2 85.5471 70.2C87.6805 70.2 89.5045 69.336 91.0191 67.608L94.7631 71.288C93.5471 72.76 92.1285 73.8267 90.5071 74.488C88.8858 75.128 87.0298 75.448 84.9391 75.448ZM104.377 57.624H97.4966L98.5206 52.6H118.585L117.561 57.624H110.713L107.225 75H100.889L104.377 57.624ZM120.945 52.6H127.281L122.801 75H116.465L120.945 52.6ZM139.405 75.448C137.144 75.448 135.17 75.032 133.485 74.2C131.821 73.368 130.53 72.2053 129.613 70.712C128.717 69.2187 128.269 67.512 128.269 65.592C128.269 63.032 128.856 60.728 130.029 58.68C131.224 56.632 132.877 55.032 134.989 53.88C137.122 52.728 139.544 52.152 142.253 52.152C144.514 52.152 146.477 52.568 148.141 53.4C149.826 54.232 151.117 55.3947 152.013 56.888C152.93 58.3813 153.389 60.088 153.389 62.008C153.389 64.568 152.792 66.872 151.597 68.92C150.424 70.968 148.77 72.568 146.637 73.72C144.525 74.872 142.114 75.448 139.405 75.448ZM139.949 70.2C141.357 70.2 142.594 69.848 143.661 69.144C144.728 68.44 145.549 67.5013 146.125 66.328C146.701 65.1333 146.989 63.8213 146.989 62.392C146.989 60.8773 146.52 59.672 145.581 58.776C144.664 57.8587 143.373 57.4 141.709 57.4C140.301 57.4 139.064 57.752 137.997 58.456C136.93 59.16 136.109 60.1093 135.533 61.304C134.957 62.4773 134.669 63.7787 134.669 65.208C134.669 66.7227 135.128 67.9387 136.045 68.856C136.984 69.752 138.285 70.2 139.949 70.2ZM180.131 52.6L175.651 75H170.435L163.043 62.712L160.579 75H154.371L158.851 52.6H164.067L171.491 64.856L173.923 52.6H180.131Z" fill="white"/>
<path d="M63.9994 70.648L64.9788 70.4464L64.8145 69.648H63.9994V70.648ZM54.4634 70.648V69.648H53.8951L53.6042 70.1363L54.4634 70.648ZM51.8714 75V76H52.4397L52.7306 75.5117L51.8714 75ZM45.1834 75L44.3417 74.4601L43.3539 76H45.1834V75ZM59.5514 52.6V51.6H59.0048L58.7097 52.0601L59.5514 52.6ZM65.7914 52.6L66.7635 52.3653L66.5787 51.6H65.7914V52.6ZM71.1994 75V76H72.4696L72.1715 74.7653L71.1994 75ZM64.8954 75L63.9159 75.2017L64.0803 76H64.8954V75ZM63.0394 65.976V66.976H64.2676L64.0186 65.7733L63.0394 65.976ZM61.5354 58.712L62.5146 58.5093L61.9899 55.9749L60.6742 58.2037L61.5354 58.712ZM57.2474 65.976L56.3862 65.4677L55.4958 66.976H57.2474V65.976ZM63.9994 70.648V69.648H54.4634V70.648V71.648H63.9994V70.648ZM54.4634 70.648L53.6042 70.1363L51.0122 74.4883L51.8714 75L52.7306 75.5117L55.3226 71.1597L54.4634 70.648ZM51.8714 75V74H45.1834V75V76H51.8714V75ZM45.1834 75L46.0251 75.5399L60.3931 53.1399L59.5514 52.6L58.7097 52.0601L44.3417 74.4601L45.1834 75ZM59.5514 52.6V53.6H65.7914V52.6V51.6H59.5514V52.6ZM65.7914 52.6L64.8193 52.8347L70.2273 75.2347L71.1994 75L72.1715 74.7653L66.7635 52.3653L65.7914 52.6ZM71.1994 75V74H64.8954V75V76H71.1994V75ZM64.8954 75L65.8748 74.7984L64.9788 70.4464L63.9994 70.648L63.0199 70.8497L63.9159 75.2017L64.8954 75ZM63.0394 65.976L64.0186 65.7733L62.5146 58.5093L61.5354 58.712L60.5562 58.9148L62.0602 66.1788L63.0394 65.976ZM61.5354 58.712L60.6742 58.2037L56.3862 65.4677L57.2474 65.976L58.1085 66.4844L62.3965 59.2204L61.5354 58.712ZM57.2474 65.976V66.976H63.0394V65.976V64.976H57.2474V65.976ZM78.9871 74.232L78.5489 75.1309L78.5581 75.1353L78.9871 74.232ZM75.0511 70.744L74.1991 71.2674L74.1991 71.2674L75.0511 70.744ZM75.4351 58.68L74.5713 58.1761L74.5675 58.1829L75.4351 58.68ZM80.4271 53.88L79.952 53.0001L79.952 53.0001L80.4271 53.88ZM93.2271 53.272L92.8042 54.1782L92.8143 54.1828L93.2271 53.272ZM96.8111 56.376L97.4345 57.1579L98.1126 56.6174L97.6734 55.8696L96.8111 56.376ZM92.2351 60.024L91.386 60.5521L91.9796 61.5066L92.8585 60.8059L92.2351 60.024ZM83.5311 58.424L84.0506 59.2785L84.0566 59.2748L84.0626 59.2711L83.5311 58.424ZM80.9711 61.208L80.0831 60.7481L80.08 60.7543L80.9711 61.208ZM81.5471 68.824L80.8643 69.5545L81.5471 68.824ZM91.0191 67.608L91.7201 66.8948L90.965 66.1527L90.2671 66.9488L91.0191 67.608ZM94.7631 71.288L95.5341 71.9249L96.1182 71.2178L95.4641 70.5748L94.7631 71.288ZM90.5071 74.488L90.8743 75.4182L90.8848 75.4139L90.5071 74.488ZM84.9391 75.448V74.448C82.7974 74.448 80.965 74.0644 79.4162 73.3287L78.9871 74.232L78.5581 75.1353C80.4226 76.0209 82.5582 76.448 84.9391 76.448V75.448ZM78.9871 74.232L79.4253 73.3331C77.8747 72.5772 76.7128 71.5385 75.9032 70.2206L75.0511 70.744L74.1991 71.2674C75.2242 72.9362 76.6863 74.2228 78.5489 75.1309L78.9871 74.232ZM75.0511 70.744L75.9032 70.2206C75.0928 68.9013 74.6751 67.3691 74.6751 65.592H73.6751H72.6751C72.6751 67.6976 73.1748 69.6 74.1991 71.2674L75.0511 70.744ZM73.6751 65.592H74.6751C74.6751 63.1912 75.2235 61.0611 76.3028 59.1771L75.4351 58.68L74.5675 58.1829C73.3002 60.3949 72.6751 62.8728 72.6751 65.592H73.6751ZM75.4351 58.68L76.2989 59.1839C77.3989 57.2983 78.9267 55.8267 80.9023 54.7599L80.4271 53.88L79.952 53.0001C77.6609 54.2373 75.8608 55.9658 74.5714 58.1761L75.4351 58.68ZM80.4271 53.88L80.9023 54.7599C82.872 53.6963 85.1371 53.152 87.7231 53.152V52.152V51.152C84.8478 51.152 82.2489 51.7598 79.952 53.0001L80.4271 53.88ZM87.7231 52.152V53.152C89.6713 53.152 91.3575 53.5031 92.8043 54.1782L93.2271 53.272L93.65 52.3658C91.8967 51.5476 89.9137 51.152 87.7231 51.152V52.152ZM93.2271 53.272L92.8143 54.1828C94.2512 54.8342 95.277 55.7385 95.9489 56.8824L96.8111 56.376L97.6734 55.8696C96.7666 54.3255 95.4031 53.1605 93.64 52.3612L93.2271 53.272ZM96.8111 56.376L96.1878 55.5941L91.6118 59.2421L92.2351 60.024L92.8585 60.8059L97.4345 57.1579L96.8111 56.376ZM92.2351 60.024L93.0843 59.4959C91.7996 57.4303 89.8223 56.4 87.3071 56.4V57.4V58.4C89.1867 58.4 90.4947 59.1191 91.386 60.5521L92.2351 60.024ZM87.3071 57.4V56.4C85.7117 56.4 84.2645 56.7833 82.9996 57.5769L83.5311 58.424L84.0626 59.2711C84.9738 58.6994 86.0439 58.4 87.3071 58.4V57.4ZM83.5311 58.424L83.0117 57.5695C81.758 58.3316 80.7812 59.4002 80.0831 60.7482L80.9711 61.208L81.8591 61.6679C82.3984 60.6264 83.1283 59.8391 84.0506 59.2785L83.5311 58.424ZM80.9711 61.208L80.08 60.7543C79.403 62.0841 79.0751 63.5652 79.0751 65.176H80.0751H81.0751C81.0751 63.8429 81.3446 62.6786 81.8623 61.6617L80.9711 61.208ZM80.0751 65.176H79.0751C79.0751 66.9286 79.6538 68.4231 80.8643 69.5545L81.5471 68.824L82.23 68.0935C81.4778 67.3903 81.0751 66.4527 81.0751 65.176H80.0751ZM81.5471 68.824L80.8643 69.5545C82.0748 70.6861 83.6757 71.2 85.5471 71.2V70.2V69.2C84.048 69.2 82.9821 68.7965 82.23 68.0935L81.5471 68.824ZM85.5471 70.2V71.2C87.9927 71.2 90.0831 70.1929 91.7711 68.2672L91.0191 67.608L90.2671 66.9488C88.9258 68.4791 87.3682 69.2 85.5471 69.2V70.2ZM91.0191 67.608L90.3182 68.3212L94.0622 72.0012L94.7631 71.288L95.4641 70.5748L91.7201 66.8948L91.0191 67.608ZM94.7631 71.288L93.9922 70.6511C92.8717 72.0076 91.5843 72.9687 90.1295 73.5621L90.5071 74.488L90.8848 75.4139C92.6727 74.6847 94.2226 73.5125 95.5341 71.9249L94.7631 71.288ZM90.5071 74.488L90.14 73.5579C88.6563 74.1435 86.9286 74.448 84.9391 74.448V75.448V76.448C87.131 76.448 89.1153 76.1125 90.8743 75.4182L90.5071 74.488ZM104.377 57.624L105.357 57.8208L105.597 56.624H104.377V57.624ZM97.4966 57.624L96.5168 57.4243L96.2723 58.624H97.4966V57.624ZM98.5206 52.6V51.6H97.7039L97.5408 52.4003L98.5206 52.6ZM118.585 52.6L119.564 52.7997L119.809 51.6H118.585V52.6ZM117.561 57.624V58.624H118.377L118.54 57.8237L117.561 57.624ZM110.713 57.624V56.624H109.893L109.732 57.4272L110.713 57.624ZM107.225 75V76H108.044L108.205 75.1968L107.225 75ZM100.889 75L99.9082 74.8032L99.668 76H100.889V75ZM104.377 57.624V56.624H97.4966V57.624V58.624H104.377V57.624ZM97.4966 57.624L98.4765 57.8237L99.5005 52.7997L98.5206 52.6L97.5408 52.4003L96.5168 57.4243L97.4966 57.624ZM98.5206 52.6V53.6H118.585V52.6V51.6H98.5206V52.6ZM118.585 52.6L117.605 52.4003L116.581 57.4243L117.561 57.624L118.54 57.8237L119.564 52.7997L118.585 52.6ZM117.561 57.624V56.624H110.713V57.624V58.624H117.561V57.624ZM110.713 57.624L109.732 57.4272L106.244 74.8032L107.225 75L108.205 75.1968L111.693 57.8208L110.713 57.624ZM107.225 75V74H100.889V75V76H107.225V75ZM100.889 75L101.869 75.1968L105.357 57.8208L104.377 57.624L103.396 57.4272L99.9082 74.8032L100.889 75ZM120.945 52.6V51.6H120.125L119.965 52.4039L120.945 52.6ZM127.281 52.6L128.262 52.7961L128.501 51.6H127.281V52.6ZM122.801 75V76H123.621L123.782 75.1961L122.801 75ZM116.465 75L115.485 74.8039L115.245 76H116.465V75ZM120.945 52.6V53.6H127.281V52.6V51.6H120.945V52.6ZM127.281 52.6L126.301 52.4039L121.821 74.8039L122.801 75L123.782 75.1961L128.262 52.7961L127.281 52.6ZM122.801 75V74H116.465V75V76H122.801V75ZM116.465 75L117.446 75.1961L121.926 52.7961L120.945 52.6L119.965 52.4039L115.485 74.8039L116.465 75ZM133.485 74.2L133.038 75.0944L133.042 75.0967L133.485 74.2ZM129.613 70.712L128.755 71.2265L128.761 71.2354L129.613 70.712ZM130.029 58.68L129.165 58.1761L129.161 58.1829L130.029 58.68ZM134.989 53.88L134.514 53.0001L134.51 53.0021L134.989 53.88ZM148.141 53.4L147.694 54.2944L147.698 54.2967L148.141 53.4ZM152.013 56.888L151.155 57.4025L151.161 57.4114L152.013 56.888ZM151.597 68.92L150.733 68.4161L150.729 68.4229L151.597 68.92ZM146.637 73.72L146.162 72.8401L146.158 72.8421L146.637 73.72ZM143.661 69.144L143.11 68.3094L143.11 68.3094L143.661 69.144ZM146.125 66.328L147.023 66.7687L147.026 66.7623L146.125 66.328ZM145.581 58.776L144.874 59.4831L144.882 59.4913L144.89 59.4994L145.581 58.776ZM137.997 58.456L138.548 59.2906L138.548 59.2906L137.997 58.456ZM135.533 61.304L136.431 61.7447L136.434 61.7383L135.533 61.304ZM136.045 68.856L135.338 69.5631L135.346 69.5713L135.354 69.5794L136.045 68.856ZM139.405 75.448V74.448C137.266 74.448 135.45 74.0549 133.928 73.3033L133.485 74.2L133.042 75.0967C134.89 76.0091 137.021 76.448 139.405 76.448V75.448ZM133.485 74.2L133.932 73.3056C132.424 72.5517 131.279 71.513 130.465 70.1886L129.613 70.712L128.761 71.2354C129.782 72.8977 131.217 74.1843 133.038 75.0944L133.485 74.2ZM129.613 70.712L130.47 70.1975C129.677 68.8752 129.269 67.3499 129.269 65.592H128.269H127.269C127.269 67.6741 127.757 69.5621 128.755 71.2265L129.613 70.712ZM128.269 65.592H129.269C129.269 63.1912 129.817 61.0611 130.897 59.1771L130.029 58.68L129.161 58.1829C127.894 60.3949 127.269 62.8728 127.269 65.592H128.269ZM130.029 58.68L130.893 59.1839C131.994 57.2957 133.513 55.824 135.468 54.7579L134.989 53.88L134.51 53.0021C132.241 54.24 130.453 55.9683 129.165 58.1761L130.029 58.68ZM134.989 53.88L135.464 54.7599C137.435 53.6956 139.69 53.152 142.253 53.152V52.152V51.152C139.397 51.152 136.81 51.7604 134.514 53.0001L134.989 53.88ZM142.253 52.152V53.152C144.392 53.152 146.195 53.5452 147.694 54.2944L148.141 53.4L148.588 52.5056C146.758 51.5908 144.636 51.152 142.253 51.152V52.152ZM148.141 53.4L147.698 54.2967C149.226 55.0508 150.366 56.0868 151.155 57.4025L152.013 56.888L152.87 56.3735C151.868 54.7025 150.427 53.4133 148.584 52.5033L148.141 53.4ZM152.013 56.888L151.161 57.4114C151.972 58.7324 152.389 60.2545 152.389 62.008H153.389H154.389C154.389 59.9215 153.888 58.0302 152.865 56.3646L152.013 56.888ZM153.389 62.008H152.389C152.389 64.4055 151.831 66.5332 150.733 68.4161L151.597 68.92L152.461 69.4239C153.752 67.2108 154.389 64.7305 154.389 62.008H153.389ZM151.597 68.92L150.729 68.4229C149.651 70.3046 148.136 71.7741 146.162 72.8401L146.637 73.72L147.112 74.5999C149.405 73.3619 151.196 71.6314 152.465 69.4171L151.597 68.92ZM146.637 73.72L146.158 72.8421C144.211 73.9043 141.968 74.448 139.405 74.448V75.448V76.448C142.26 76.448 144.839 75.8397 147.116 74.5979L146.637 73.72ZM139.949 70.2V71.2C141.532 71.2 142.965 70.8014 144.212 69.9786L143.661 69.144L143.11 68.3094C142.223 68.8946 141.182 69.2 139.949 69.2V70.2ZM143.661 69.144L144.212 69.9786C145.431 69.1742 146.37 68.0981 147.023 66.7687L146.125 66.328L145.227 65.8873C144.728 66.9046 144.025 67.7058 143.11 68.3094L143.661 69.144ZM146.125 66.328L147.026 66.7623C147.672 65.4218 147.989 63.9598 147.989 62.392H146.989H145.989C145.989 63.6829 145.73 64.8448 145.224 65.8937L146.125 66.328ZM146.989 62.392H147.989C147.989 60.6538 147.441 59.1691 146.271 58.0527L145.581 58.776L144.89 59.4994C145.598 60.1749 145.989 61.1009 145.989 62.392H146.989ZM145.581 58.776L146.288 58.0689C145.134 56.915 143.56 56.4 141.709 56.4V57.4V58.4C143.186 58.4 144.193 58.8024 144.874 59.4831L145.581 58.776ZM141.709 57.4V56.4C140.126 56.4 138.693 56.7986 137.446 57.6214L137.997 58.456L138.548 59.2906C139.434 58.7054 140.476 58.4 141.709 58.4V57.4ZM137.997 58.456L137.446 57.6214C136.223 58.4287 135.283 59.5189 134.632 60.8697L135.533 61.304L136.434 61.7383C136.934 60.6998 137.638 59.8913 138.548 59.2906L137.997 58.456ZM135.533 61.304L134.635 60.8633C133.986 62.1863 133.669 63.6404 133.669 65.208H134.669H135.669C135.669 63.9169 135.928 62.7684 136.431 61.7447L135.533 61.304ZM134.669 65.208H133.669C133.669 66.9399 134.202 68.4269 135.338 69.5631L136.045 68.856L136.752 68.1489C136.054 67.4505 135.669 66.5054 135.669 65.208H134.669ZM136.045 68.856L135.354 69.5794C136.527 70.699 138.103 71.2 139.949 71.2V70.2V69.2C138.467 69.2 137.44 68.805 136.735 68.1327L136.045 68.856ZM180.131 52.6L181.112 52.7961L181.351 51.6H180.131V52.6ZM175.651 75V76H176.471L176.632 75.1961L175.651 75ZM170.435 75L169.578 75.5155L169.87 76H170.435V75ZM163.043 62.712L163.9 62.1965L162.57 59.9855L162.063 62.5154L163.043 62.712ZM160.579 75V76H161.399L161.56 75.1966L160.579 75ZM154.371 75L153.391 74.8039L153.152 76H154.371V75ZM158.851 52.6V51.6H158.032L157.871 52.4039L158.851 52.6ZM164.067 52.6L164.923 52.0819L164.631 51.6H164.067V52.6ZM171.491 64.856L170.636 65.3741L171.971 67.5776L172.472 65.0506L171.491 64.856ZM173.923 52.6V51.6H173.102L172.943 52.4054L173.923 52.6ZM180.131 52.6L179.151 52.4039L174.671 74.8039L175.651 75L176.632 75.1961L181.112 52.7961L180.131 52.6ZM175.651 75V74H170.435V75V76H175.651V75ZM170.435 75L171.292 74.4845L163.9 62.1965L163.043 62.712L162.186 63.2275L169.578 75.5155L170.435 75ZM163.043 62.712L162.063 62.5154L159.599 74.8034L160.579 75L161.56 75.1966L164.024 62.9086L163.043 62.712ZM160.579 75V74H154.371V75V76H160.579V75ZM154.371 75L155.352 75.1961L159.832 52.7961L158.851 52.6L157.871 52.4039L153.391 74.8039L154.371 75ZM158.851 52.6V53.6H164.067V52.6V51.6H158.851V52.6ZM164.067 52.6L163.212 53.1181L170.636 65.3741L171.491 64.856L172.347 64.3379L164.923 52.0819L164.067 52.6ZM171.491 64.856L172.472 65.0506L174.904 52.7946L173.923 52.6L172.943 52.4054L170.511 64.6614L171.491 64.856ZM173.923 52.6V53.6H180.131V52.6V51.6H173.923V52.6Z" fill="#E1D994" mask="url(#path-7-outside-1_136_2679)"/>
<circle cx="103" cy="163" r="69.4222" transform="rotate(90 103 163)" fill="white" fill-opacity="0.4" stroke="black" stroke-width="3.15556"/>
<path d="M38.9998 163C38.9998 127.654 67.6536 99 103 99C138.346 99 167 127.654 167 163" stroke="#0773AE" stroke-width="10"/>
<path d="M167 163C167 198.346 138.346 227 103 227C67.6535 227 38.9998 198.346 38.9998 163" stroke="#61AF25" stroke-width="10"/>
<path d="M79.406 162.078C79.4581 162.078 79.5414 162.083 79.656 162.094C79.781 162.104 79.8696 162.109 79.9216 162.109C80.9112 162.109 81.656 161.833 82.156 161.281C82.656 160.729 82.906 159.917 82.906 158.844C82.906 157.75 82.6769 156.953 82.2185 156.453C81.7602 155.953 81.0258 155.703 80.0154 155.703C79.8591 155.703 79.7394 155.708 79.656 155.719C79.5727 155.719 79.4946 155.724 79.4216 155.734L79.406 162.078ZM74.9998 175L74.9998 152.188L79.7341 152.188C82.3383 152.188 84.2237 152.698 85.3904 153.719C86.5675 154.74 87.156 156.37 87.156 158.609C87.156 160.234 86.8539 161.542 86.2498 162.531C85.656 163.51 84.755 164.198 83.5466 164.594L87.9216 175L83.1248 175L79.406 165.563L79.406 175L74.9998 175ZM89.6873 175L89.6873 152.188L99.281 152.188L99.281 156.406L94.0935 156.406L94.0935 161.016L98.7966 161.016L98.7966 165.203L94.0935 165.203L94.0935 170.547L99.281 170.547L99.281 175L89.6873 175ZM102.375 175L102.375 152.188L106.984 152.188L111.594 164.469C111.729 164.865 111.916 165.474 112.156 166.297C112.406 167.109 112.687 168.068 113 169.172C112.76 167.557 112.583 166.078 112.469 164.734C112.354 163.38 112.297 162.12 112.297 160.953L112.297 152.188L116.515 152.188L116.515 175L112.297 175L107.297 162.234C107.213 162.047 106.995 161.271 106.64 159.906C106.474 159.281 106.344 158.792 106.25 158.438C106.354 159.323 106.432 160.323 106.484 161.438C106.536 162.542 106.562 163.865 106.562 165.406L106.562 175L102.375 175ZM122.265 175L122.265 156.406L118.781 156.406L118.781 152.188L130.328 152.188L130.328 156.406L126.844 156.406L126.844 175L122.265 175Z" fill="black"/>
<defs>
<pattern id="pattern0_136_2679" patternUnits="userSpaceOnUse" patternTransform="matrix(16.05 0 0 8.2125 20.894 24.8931)" preserveAspectRatio="none" viewBox="-0.353516 -0.356445 53.5 27.375" width="1" height="1">
<use xlink:href="#pattern0_136_2679_inner" transform="translate(-53.5 -27.375)"/>
<use xlink:href="#pattern0_136_2679_inner" transform="translate(0 -27.375)"/>
<use xlink:href="#pattern0_136_2679_inner" transform="translate(-53.5 0)"/>
<g id="pattern0_136_2679_inner">
<path d="M0 0L27 26.5L53.5 0M0 9.5L27 36.5L53.5 9.5" stroke="black" stroke-opacity="0.2"/>
</g>
</pattern></defs>
</svg>
