<svg width="211" height="328" viewBox="0 0 211 328" fill="none" xmlns="http://www.w3.org/2000/svg">
<rect width="211" height="328" rx="16" fill="white"/>
<rect x="11.5" y="11.5" width="187" height="306" stroke="black"/>
<rect x="27.5" y="28.5" width="160" height="57" fill="black" stroke="black"/>
<path d="M46.2227 239V231.395H43.7969V230.422H49.668V231.395H47.2539V239H46.2227ZM50.7109 239V229.918H51.6074V234.465C51.8379 234.121 52.1152 233.865 52.4395 233.697C52.7637 233.529 53.1387 233.445 53.5645 233.445C54.1973 233.445 54.6914 233.613 55.0469 233.949C55.4023 234.285 55.5801 234.752 55.5801 235.35V239H54.6426V235.842C54.6426 235.299 54.5273 234.896 54.2969 234.635C54.0703 234.369 53.7188 234.236 53.2422 234.236C52.9688 234.236 52.7188 234.287 52.4922 234.389C52.2695 234.486 52.084 234.627 51.9355 234.811C51.8223 234.951 51.7402 235.111 51.6895 235.291C51.6426 235.471 51.6191 235.783 51.6191 236.229V239H50.7109ZM57.2324 231.055C57.2324 230.871 57.2969 230.715 57.4258 230.586C57.5586 230.453 57.7188 230.387 57.9062 230.387C58.0898 230.387 58.2461 230.453 58.375 230.586C58.5078 230.719 58.5742 230.879 58.5742 231.066C58.5742 231.25 58.5098 231.406 58.3809 231.535C58.252 231.664 58.0938 231.729 57.9062 231.729C57.7188 231.729 57.5586 231.664 57.4258 231.535C57.2969 231.406 57.2324 231.246 57.2324 231.055ZM57.4492 239V233.639H58.375V239H57.4492ZM59.7402 238.098L60.5254 237.57C60.6738 237.855 60.8613 238.07 61.0879 238.215C61.3145 238.355 61.582 238.426 61.8906 238.426C62.1914 238.426 62.4336 238.352 62.6172 238.203C62.8047 238.055 62.8984 237.859 62.8984 237.617C62.8984 237.43 62.834 237.273 62.7051 237.148C62.5801 237.023 62.3633 236.908 62.0547 236.803C62.0234 236.791 61.9727 236.773 61.9023 236.75C60.5977 236.301 59.9453 235.738 59.9453 235.062C59.9453 234.586 60.1211 234.197 60.4727 233.896C60.8242 233.596 61.2812 233.445 61.8438 233.445C62.3086 233.445 62.707 233.539 63.0391 233.727C63.3711 233.91 63.6094 234.172 63.7539 234.512L63.0098 234.969C62.9004 234.723 62.7383 234.533 62.5234 234.4C62.3125 234.268 62.0664 234.201 61.7852 234.201C61.5156 234.201 61.2949 234.277 61.123 234.43C60.9551 234.578 60.8711 234.77 60.8711 235.004C60.8711 235.332 61.2266 235.607 61.9375 235.83C62.0703 235.873 62.1758 235.906 62.2539 235.93C62.8359 236.117 63.2402 236.332 63.4668 236.574C63.6973 236.812 63.8125 237.129 63.8125 237.523C63.8125 238.031 63.6309 238.443 63.2676 238.76C62.9082 239.072 62.4375 239.229 61.8555 239.229C61.3555 239.229 60.9297 239.135 60.5781 238.947C60.2305 238.76 59.9512 238.477 59.7402 238.098ZM72.8477 237.729V238.795C72.6055 238.939 72.332 239.047 72.0273 239.117C71.7266 239.191 71.4004 239.229 71.0488 239.229C70.2207 239.229 69.5527 238.967 69.0449 238.443C68.541 237.916 68.2891 237.225 68.2891 236.369C68.2891 235.51 68.5508 234.809 69.0742 234.266C69.5977 233.719 70.2676 233.445 71.084 233.445C71.3809 233.445 71.6699 233.477 71.9512 233.539C72.2363 233.602 72.5039 233.693 72.7539 233.814V234.799C72.5195 234.646 72.2773 234.531 72.0273 234.453C71.7773 234.371 71.5234 234.33 71.2656 234.33C70.6641 234.33 70.1816 234.52 69.8184 234.898C69.4551 235.273 69.2734 235.773 69.2734 236.398C69.2734 236.949 69.4551 237.41 69.8184 237.781C70.1855 238.152 70.6445 238.338 71.1953 238.338C71.4727 238.338 71.7441 238.289 72.0098 238.191C72.2754 238.094 72.5547 237.939 72.8477 237.729ZM78.2266 236.369C78.2266 235.764 78.0605 235.277 77.7285 234.91C77.4004 234.539 76.9707 234.354 76.4395 234.354C75.8887 234.354 75.459 234.523 75.1504 234.863C74.8418 235.203 74.6875 235.678 74.6875 236.287C74.6875 236.936 74.8418 237.436 75.1504 237.787C75.4629 238.139 75.9043 238.314 76.4746 238.314C77.0215 238.314 77.4492 238.145 77.7578 237.805C78.0703 237.461 78.2266 236.982 78.2266 236.369ZM79.1172 233.639V239H78.2266V238.027C78.0117 238.418 77.7363 238.717 77.4004 238.924C77.0684 239.127 76.6953 239.229 76.2812 239.229C75.5117 239.229 74.8906 238.965 74.418 238.438C73.9492 237.906 73.7148 237.205 73.7148 236.334C73.7148 235.451 73.9434 234.75 74.4004 234.23C74.8574 233.707 75.4688 233.445 76.2344 233.445C76.6836 233.445 77.0723 233.547 77.4004 233.75C77.7324 233.949 78 234.248 78.2031 234.646V233.639H79.1172ZM80.9688 239V233.639H81.7832V234.752C82.0293 234.287 82.291 233.955 82.5684 233.756C82.8457 233.557 83.1836 233.457 83.582 233.457C83.6914 233.457 83.7969 233.467 83.8984 233.486C84 233.502 84.1016 233.527 84.2031 233.562L83.8984 234.389C83.793 234.354 83.6934 234.328 83.5996 234.312C83.5059 234.293 83.416 234.283 83.3301 234.283C82.8457 234.283 82.4824 234.459 82.2402 234.811C81.998 235.158 81.877 235.684 81.877 236.387V239H80.9688ZM89.2773 236.346C89.2773 235.748 89.1113 235.268 88.7793 234.904C88.4473 234.537 88.0098 234.354 87.4668 234.354C86.9238 234.354 86.5 234.52 86.1953 234.852C85.8906 235.184 85.7383 235.643 85.7383 236.229C85.7383 236.889 85.8926 237.406 86.2012 237.781C86.5098 238.152 86.9355 238.338 87.4785 238.338C88.041 238.338 88.4805 238.162 88.7969 237.811C89.1172 237.459 89.2773 236.971 89.2773 236.346ZM90.168 229.918V239H89.2773V238.027C89.0664 238.414 88.793 238.711 88.457 238.918C88.1211 239.125 87.7461 239.229 87.332 239.229C86.5625 239.229 85.9414 238.965 85.4688 238.438C85 237.906 84.7656 237.205 84.7656 236.334C84.7656 235.455 84.9961 234.754 85.457 234.23C85.918 233.707 86.5312 233.445 87.2969 233.445C87.7422 233.445 88.1289 233.547 88.457 233.75C88.7852 233.949 89.0508 234.248 89.2539 234.646V229.918H90.168ZM99.6953 237.729V238.795C99.4531 238.939 99.1797 239.047 98.875 239.117C98.5742 239.191 98.248 239.229 97.8965 239.229C97.0684 239.229 96.4004 238.967 95.8926 238.443C95.3887 237.916 95.1367 237.225 95.1367 236.369C95.1367 235.51 95.3984 234.809 95.9219 234.266C96.4453 233.719 97.1152 233.445 97.9316 233.445C98.2285 233.445 98.5176 233.477 98.7988 233.539C99.084 233.602 99.3516 233.693 99.6016 233.814V234.799C99.3672 234.646 99.125 234.531 98.875 234.453C98.625 234.371 98.3711 234.33 98.1133 234.33C97.5117 234.33 97.0293 234.52 96.666 234.898C96.3027 235.273 96.1211 235.773 96.1211 236.398C96.1211 236.949 96.3027 237.41 96.666 237.781C97.0332 238.152 97.4922 238.338 98.043 238.338C98.3203 238.338 98.5918 238.289 98.8574 238.191C99.123 238.094 99.4023 237.939 99.6953 237.729ZM105.074 236.369C105.074 235.764 104.908 235.277 104.576 234.91C104.248 234.539 103.818 234.354 103.287 234.354C102.736 234.354 102.307 234.523 101.998 234.863C101.689 235.203 101.535 235.678 101.535 236.287C101.535 236.936 101.689 237.436 101.998 237.787C102.311 238.139 102.752 238.314 103.322 238.314C103.869 238.314 104.297 238.145 104.605 237.805C104.918 237.461 105.074 236.982 105.074 236.369ZM105.965 233.639V239H105.074V238.027C104.859 238.418 104.584 238.717 104.248 238.924C103.916 239.127 103.543 239.229 103.129 239.229C102.359 239.229 101.738 238.965 101.266 238.438C100.797 237.906 100.562 237.205 100.562 236.334C100.562 235.451 100.791 234.75 101.248 234.23C101.705 233.707 102.316 233.445 103.082 233.445C103.531 233.445 103.92 233.547 104.248 233.75C104.58 233.949 104.848 234.248 105.051 234.646V233.639H105.965ZM107.805 239V233.639H108.701V234.465C108.932 234.121 109.209 233.865 109.533 233.697C109.857 233.529 110.232 233.445 110.658 233.445C111.291 233.445 111.785 233.613 112.141 233.949C112.496 234.285 112.674 234.752 112.674 235.35V239H111.736V235.842C111.736 235.299 111.621 234.896 111.391 234.635C111.164 234.369 110.812 234.236 110.336 234.236C110.062 234.236 109.812 234.287 109.586 234.389C109.363 234.486 109.178 234.627 109.029 234.811C108.916 234.951 108.834 235.111 108.783 235.291C108.736 235.471 108.713 235.783 108.713 236.229V239H107.805ZM118.908 236.346C118.908 236.971 119.068 237.459 119.389 237.811C119.709 238.162 120.148 238.338 120.707 238.338C121.254 238.338 121.682 238.152 121.99 237.781C122.303 237.406 122.459 236.889 122.459 236.229C122.459 235.643 122.307 235.184 122.002 234.852C121.697 234.52 121.275 234.354 120.736 234.354C120.189 234.354 119.748 234.537 119.412 234.904C119.076 235.268 118.908 235.748 118.908 236.346ZM118.035 229.918H118.943V234.646C119.15 234.248 119.418 233.949 119.746 233.75C120.074 233.547 120.459 233.445 120.9 233.445C121.67 233.445 122.283 233.707 122.74 234.23C123.201 234.754 123.432 235.455 123.432 236.334C123.432 237.205 123.197 237.906 122.729 238.438C122.26 238.965 121.639 239.229 120.865 239.229C120.451 239.229 120.074 239.125 119.734 238.918C119.395 238.707 119.119 238.41 118.908 238.027V239H118.035V229.918ZM128.705 235.713C128.674 235.24 128.516 234.877 128.23 234.623C127.949 234.365 127.562 234.236 127.07 234.236C126.625 234.236 126.254 234.371 125.957 234.641C125.66 234.906 125.488 235.264 125.441 235.713H128.705ZM129.689 236.457H125.441V236.539C125.441 237.113 125.605 237.578 125.934 237.934C126.262 238.285 126.689 238.461 127.217 238.461C127.576 238.461 127.9 238.365 128.189 238.174C128.479 237.979 128.734 237.686 128.957 237.295L129.654 237.764C129.385 238.248 129.041 238.613 128.623 238.859C128.205 239.105 127.721 239.229 127.17 239.229C126.354 239.229 125.693 238.959 125.189 238.42C124.686 237.881 124.434 237.174 124.434 236.299C124.434 235.459 124.684 234.771 125.184 234.236C125.684 233.701 126.326 233.434 127.111 233.434C127.904 233.434 128.531 233.688 128.992 234.195C129.457 234.703 129.689 235.396 129.689 236.275V236.457ZM135.479 233.639V236.275C135.479 237.045 135.592 237.584 135.818 237.893C136.049 238.197 136.436 238.35 136.979 238.35C137.521 238.35 137.904 238.199 138.127 237.898C138.354 237.594 138.467 237.053 138.467 236.275V233.639H139.404V236.768C139.404 237.576 139.197 238.189 138.783 238.607C138.369 239.021 137.76 239.229 136.955 239.229C136.158 239.229 135.553 239.02 135.139 238.602C134.725 238.184 134.518 237.572 134.518 236.768V233.639H135.479ZM140.611 238.098L141.396 237.57C141.545 237.855 141.732 238.07 141.959 238.215C142.186 238.355 142.453 238.426 142.762 238.426C143.062 238.426 143.305 238.352 143.488 238.203C143.676 238.055 143.77 237.859 143.77 237.617C143.77 237.43 143.705 237.273 143.576 237.148C143.451 237.023 143.234 236.908 142.926 236.803C142.895 236.791 142.844 236.773 142.773 236.75C141.469 236.301 140.816 235.738 140.816 235.062C140.816 234.586 140.992 234.197 141.344 233.896C141.695 233.596 142.152 233.445 142.715 233.445C143.18 233.445 143.578 233.539 143.91 233.727C144.242 233.91 144.48 234.172 144.625 234.512L143.881 234.969C143.771 234.723 143.609 234.533 143.395 234.4C143.184 234.268 142.938 234.201 142.656 234.201C142.387 234.201 142.166 234.277 141.994 234.43C141.826 234.578 141.742 234.77 141.742 235.004C141.742 235.332 142.098 235.607 142.809 235.83C142.941 235.873 143.047 235.906 143.125 235.93C143.707 236.117 144.111 236.332 144.338 236.574C144.568 236.812 144.684 237.129 144.684 237.523C144.684 238.031 144.502 238.443 144.139 238.76C143.779 239.072 143.309 239.229 142.727 239.229C142.227 239.229 141.801 239.135 141.449 238.947C141.102 238.76 140.822 238.477 140.611 238.098ZM149.869 235.713C149.838 235.24 149.68 234.877 149.395 234.623C149.113 234.365 148.727 234.236 148.234 234.236C147.789 234.236 147.418 234.371 147.121 234.641C146.824 234.906 146.652 235.264 146.605 235.713H149.869ZM150.854 236.457H146.605V236.539C146.605 237.113 146.77 237.578 147.098 237.934C147.426 238.285 147.854 238.461 148.381 238.461C148.74 238.461 149.064 238.365 149.354 238.174C149.643 237.979 149.898 237.686 150.121 237.295L150.818 237.764C150.549 238.248 150.205 238.613 149.787 238.859C149.369 239.105 148.885 239.229 148.334 239.229C147.518 239.229 146.857 238.959 146.354 238.42C145.85 237.881 145.598 237.174 145.598 236.299C145.598 235.459 145.848 234.771 146.348 234.236C146.848 233.701 147.49 233.434 148.275 233.434C149.068 233.434 149.695 233.688 150.156 234.195C150.621 234.703 150.854 235.396 150.854 236.275V236.457ZM156.344 236.346C156.344 235.748 156.178 235.268 155.846 234.904C155.514 234.537 155.076 234.354 154.533 234.354C153.99 234.354 153.566 234.52 153.262 234.852C152.957 235.184 152.805 235.643 152.805 236.229C152.805 236.889 152.959 237.406 153.268 237.781C153.576 238.152 154.002 238.338 154.545 238.338C155.107 238.338 155.547 238.162 155.863 237.811C156.184 237.459 156.344 236.971 156.344 236.346ZM157.234 229.918V239H156.344V238.027C156.133 238.414 155.859 238.711 155.523 238.918C155.188 239.125 154.812 239.229 154.398 239.229C153.629 239.229 153.008 238.965 152.535 238.438C152.066 237.906 151.832 237.205 151.832 236.334C151.832 235.455 152.062 234.754 152.523 234.23C152.984 233.707 153.598 233.445 154.363 233.445C154.809 233.445 155.195 233.547 155.523 233.75C155.852 233.949 156.117 234.248 156.32 234.646V229.918H157.234ZM162.479 231.055C162.479 230.871 162.543 230.715 162.672 230.586C162.805 230.453 162.965 230.387 163.152 230.387C163.336 230.387 163.492 230.453 163.621 230.586C163.754 230.719 163.82 230.879 163.82 231.066C163.82 231.25 163.756 231.406 163.627 231.535C163.498 231.664 163.34 231.729 163.152 231.729C162.965 231.729 162.805 231.664 162.672 231.535C162.543 231.406 162.479 231.246 162.479 231.055ZM162.695 239V233.639H163.621V239H162.695ZM165.555 239V233.639H166.451V234.465C166.682 234.121 166.959 233.865 167.283 233.697C167.607 233.529 167.982 233.445 168.408 233.445C169.041 233.445 169.535 233.613 169.891 233.949C170.246 234.285 170.424 234.752 170.424 235.35V239H169.486V235.842C169.486 235.299 169.371 234.896 169.141 234.635C168.914 234.369 168.562 234.236 168.086 234.236C167.812 234.236 167.562 234.287 167.336 234.389C167.113 234.486 166.928 234.627 166.779 234.811C166.666 234.951 166.584 235.111 166.533 235.291C166.486 235.471 166.463 235.783 166.463 236.229V239H165.555ZM32.5762 250.334C32.5762 250.936 32.7422 251.418 33.0742 251.781C33.4062 252.145 33.8457 252.326 34.3926 252.326C34.9277 252.326 35.3477 252.16 35.6523 251.828C35.9609 251.496 36.1152 251.035 36.1152 250.445C36.1152 249.785 35.9609 249.268 35.6523 248.893C35.3477 248.518 34.9219 248.33 34.375 248.33C33.8164 248.33 33.377 248.508 33.0566 248.863C32.7363 249.219 32.5762 249.709 32.5762 250.334ZM31.6914 255.613V247.639H32.5645V248.646C32.7715 248.26 33.0449 247.963 33.3848 247.756C33.7246 247.549 34.1035 247.445 34.5215 247.445C35.2949 247.445 35.916 247.709 36.3848 248.236C36.8535 248.764 37.0879 249.463 37.0879 250.334C37.0879 251.221 36.8574 251.926 36.3965 252.449C35.9395 252.969 35.3262 253.229 34.5566 253.229C34.1152 253.229 33.7305 253.129 33.4023 252.93C33.0742 252.727 32.8066 252.426 32.5996 252.027V255.613H31.6914ZM38.6055 253V243.918H39.543V253H38.6055ZM45.5664 250.369C45.5664 249.764 45.4004 249.277 45.0684 248.91C44.7402 248.539 44.3105 248.354 43.7793 248.354C43.2285 248.354 42.7988 248.523 42.4902 248.863C42.1816 249.203 42.0273 249.678 42.0273 250.287C42.0273 250.936 42.1816 251.436 42.4902 251.787C42.8027 252.139 43.2441 252.314 43.8145 252.314C44.3613 252.314 44.7891 252.145 45.0977 251.805C45.4102 251.461 45.5664 250.982 45.5664 250.369ZM46.457 247.639V253H45.5664V252.027C45.3516 252.418 45.0762 252.717 44.7402 252.924C44.4082 253.127 44.0352 253.229 43.6211 253.229C42.8516 253.229 42.2305 252.965 41.7578 252.438C41.2891 251.906 41.0547 251.205 41.0547 250.334C41.0547 249.451 41.2832 248.75 41.7402 248.23C42.1973 247.707 42.8086 247.445 43.5742 247.445C44.0234 247.445 44.4121 247.547 44.7402 247.75C45.0723 247.949 45.3398 248.248 45.543 248.646V247.639H46.457ZM52.4102 251.729V252.795C52.168 252.939 51.8945 253.047 51.5898 253.117C51.2891 253.191 50.9629 253.229 50.6113 253.229C49.7832 253.229 49.1152 252.967 48.6074 252.443C48.1035 251.916 47.8516 251.225 47.8516 250.369C47.8516 249.51 48.1133 248.809 48.6367 248.266C49.1602 247.719 49.8301 247.445 50.6465 247.445C50.9434 247.445 51.2324 247.477 51.5137 247.539C51.7988 247.602 52.0664 247.693 52.3164 247.814V248.799C52.082 248.646 51.8398 248.531 51.5898 248.453C51.3398 248.371 51.0859 248.33 50.8281 248.33C50.2266 248.33 49.7441 248.52 49.3809 248.898C49.0176 249.273 48.8359 249.773 48.8359 250.398C48.8359 250.949 49.0176 251.41 49.3809 251.781C49.748 252.152 50.207 252.338 50.7578 252.338C51.0352 252.338 51.3066 252.289 51.5723 252.191C51.8379 252.094 52.1172 251.939 52.4102 251.729ZM57.4902 249.713C57.459 249.24 57.3008 248.877 57.0156 248.623C56.7344 248.365 56.3477 248.236 55.8555 248.236C55.4102 248.236 55.0391 248.371 54.7422 248.641C54.4453 248.906 54.2734 249.264 54.2266 249.713H57.4902ZM58.4746 250.457H54.2266V250.539C54.2266 251.113 54.3906 251.578 54.7188 251.934C55.0469 252.285 55.4746 252.461 56.002 252.461C56.3613 252.461 56.6855 252.365 56.9746 252.174C57.2637 251.979 57.5195 251.686 57.7422 251.295L58.4395 251.764C58.1699 252.248 57.8262 252.613 57.4082 252.859C56.9902 253.105 56.5059 253.229 55.9551 253.229C55.1387 253.229 54.4785 252.959 53.9746 252.42C53.4707 251.881 53.2188 251.174 53.2188 250.299C53.2188 249.459 53.4688 248.771 53.9688 248.236C54.4688 247.701 55.1113 247.434 55.8965 247.434C56.6895 247.434 57.3164 247.688 57.7773 248.195C58.2422 248.703 58.4746 249.396 58.4746 250.275V250.457ZM63.9414 250.334C63.9414 250.9 64.1309 251.381 64.5098 251.775C64.8887 252.166 65.3477 252.361 65.8867 252.361C66.4219 252.361 66.877 252.166 67.252 251.775C67.627 251.381 67.8145 250.9 67.8145 250.334C67.8145 249.768 67.627 249.289 67.252 248.898C66.877 248.504 66.4219 248.307 65.8867 248.307C65.3438 248.307 64.8828 248.504 64.5039 248.898C64.1289 249.289 63.9414 249.768 63.9414 250.334ZM62.9688 250.334C62.9688 249.939 63.041 249.568 63.1855 249.221C63.3301 248.869 63.541 248.557 63.8184 248.283C64.0957 248.01 64.4102 247.803 64.7617 247.662C65.1133 247.518 65.4883 247.445 65.8867 247.445C66.2773 247.445 66.6465 247.518 66.9941 247.662C67.3457 247.807 67.6641 248.018 67.9492 248.295C68.2266 248.564 68.4375 248.875 68.582 249.227C68.7266 249.574 68.7988 249.943 68.7988 250.334C68.7988 250.725 68.7266 251.094 68.582 251.441C68.4375 251.785 68.2266 252.092 67.9492 252.361C67.6641 252.643 67.3438 252.857 66.9883 253.006C66.6367 253.154 66.2695 253.229 65.8867 253.229C65.4922 253.229 65.1172 253.154 64.7617 253.006C64.4102 252.861 64.0957 252.652 63.8184 252.379C63.541 252.098 63.3301 251.785 63.1855 251.441C63.041 251.098 62.9688 250.729 62.9688 250.334ZM70.4746 253V248.395H69.4434V247.639H70.4746V246.086C70.4746 245.195 70.5859 244.594 70.8086 244.281C71.0352 243.965 71.4395 243.807 72.0215 243.807C72.166 243.807 72.3027 243.816 72.4316 243.836C72.5645 243.855 72.6914 243.887 72.8125 243.93V244.879C72.6953 244.812 72.5762 244.764 72.4551 244.732C72.3379 244.701 72.2168 244.686 72.0918 244.686C71.8223 244.686 71.6367 244.771 71.5352 244.943C71.4336 245.115 71.3828 245.537 71.3828 246.209V247.639H72.8125V248.395H71.4062V253H70.4746ZM81.3438 250.369C81.3438 249.764 81.1777 249.277 80.8457 248.91C80.5176 248.539 80.0879 248.354 79.5566 248.354C79.0059 248.354 78.5762 248.523 78.2676 248.863C77.959 249.203 77.8047 249.678 77.8047 250.287C77.8047 250.936 77.959 251.436 78.2676 251.787C78.5801 252.139 79.0215 252.314 79.5918 252.314C80.1387 252.314 80.5664 252.145 80.875 251.805C81.1875 251.461 81.3438 250.982 81.3438 250.369ZM82.2344 247.639V253H81.3438V252.027C81.1289 252.418 80.8535 252.717 80.5176 252.924C80.1855 253.127 79.8125 253.229 79.3984 253.229C78.6289 253.229 78.0078 252.965 77.5352 252.438C77.0664 251.906 76.832 251.205 76.832 250.334C76.832 249.451 77.0605 248.75 77.5176 248.23C77.9746 247.707 78.5859 247.445 79.3516 247.445C79.8008 247.445 80.1895 247.547 80.5176 247.75C80.8496 247.949 81.1172 248.248 81.3203 248.646V247.639H82.2344ZM84.0742 253V247.639H84.9707V248.465C85.2012 248.121 85.4785 247.865 85.8027 247.697C86.127 247.529 86.502 247.445 86.9277 247.445C87.5605 247.445 88.0547 247.613 88.4102 247.949C88.7656 248.285 88.9434 248.752 88.9434 249.35V253H88.0059V249.842C88.0059 249.299 87.8906 248.896 87.6602 248.635C87.4336 248.369 87.082 248.236 86.6055 248.236C86.332 248.236 86.082 248.287 85.8555 248.389C85.6328 248.486 85.4473 248.627 85.2988 248.811C85.1855 248.951 85.1035 249.111 85.0527 249.291C85.0059 249.471 84.9824 249.783 84.9824 250.229V253H84.0742ZM90.5488 255.613L92.002 252.473L89.8984 247.639H90.959L92.5176 251.488L94.1699 247.639H95.1777L91.5801 255.613H90.5488ZM100.475 250.334C100.475 250.936 100.641 251.418 100.973 251.781C101.305 252.145 101.744 252.326 102.291 252.326C102.826 252.326 103.246 252.16 103.551 251.828C103.859 251.496 104.014 251.035 104.014 250.445C104.014 249.785 103.859 249.268 103.551 248.893C103.246 248.518 102.82 248.33 102.273 248.33C101.715 248.33 101.275 248.508 100.955 248.863C100.635 249.219 100.475 249.709 100.475 250.334ZM99.5898 255.613V247.639H100.463V248.646C100.67 248.26 100.943 247.963 101.283 247.756C101.623 247.549 102.002 247.445 102.42 247.445C103.193 247.445 103.814 247.709 104.283 248.236C104.752 248.764 104.986 249.463 104.986 250.334C104.986 251.221 104.756 251.926 104.295 252.449C103.838 252.969 103.225 253.229 102.455 253.229C102.014 253.229 101.629 253.129 101.301 252.93C100.973 252.727 100.705 252.426 100.498 252.027V255.613H99.5898ZM106.469 253V247.639H107.283V248.752C107.529 248.287 107.791 247.955 108.068 247.756C108.346 247.557 108.684 247.457 109.082 247.457C109.191 247.457 109.297 247.467 109.398 247.486C109.5 247.502 109.602 247.527 109.703 247.562L109.398 248.389C109.293 248.354 109.193 248.328 109.1 248.312C109.006 248.293 108.916 248.283 108.83 248.283C108.346 248.283 107.982 248.459 107.74 248.811C107.498 249.158 107.377 249.684 107.377 250.387V253H106.469ZM111.215 250.334C111.215 250.9 111.404 251.381 111.783 251.775C112.162 252.166 112.621 252.361 113.16 252.361C113.695 252.361 114.15 252.166 114.525 251.775C114.9 251.381 115.088 250.9 115.088 250.334C115.088 249.768 114.9 249.289 114.525 248.898C114.15 248.504 113.695 248.307 113.16 248.307C112.617 248.307 112.156 248.504 111.777 248.898C111.402 249.289 111.215 249.768 111.215 250.334ZM110.242 250.334C110.242 249.939 110.314 249.568 110.459 249.221C110.604 248.869 110.814 248.557 111.092 248.283C111.369 248.01 111.684 247.803 112.035 247.662C112.387 247.518 112.762 247.445 113.16 247.445C113.551 247.445 113.92 247.518 114.268 247.662C114.619 247.807 114.938 248.018 115.223 248.295C115.5 248.564 115.711 248.875 115.855 249.227C116 249.574 116.072 249.943 116.072 250.334C116.072 250.725 116 251.094 115.855 251.441C115.711 251.785 115.5 252.092 115.223 252.361C114.938 252.643 114.617 252.857 114.262 253.006C113.91 253.154 113.543 253.229 113.16 253.229C112.766 253.229 112.391 253.154 112.035 253.006C111.684 252.861 111.369 252.652 111.092 252.379C110.814 252.098 110.604 251.785 110.459 251.441C110.314 251.098 110.242 250.729 110.242 250.334ZM118.393 250.334C118.393 250.936 118.559 251.418 118.891 251.781C119.223 252.145 119.662 252.326 120.209 252.326C120.744 252.326 121.164 252.16 121.469 251.828C121.777 251.496 121.932 251.035 121.932 250.445C121.932 249.785 121.777 249.268 121.469 248.893C121.164 248.518 120.738 248.33 120.191 248.33C119.633 248.33 119.193 248.508 118.873 248.863C118.553 249.219 118.393 249.709 118.393 250.334ZM117.508 255.613V247.639H118.381V248.646C118.588 248.26 118.861 247.963 119.201 247.756C119.541 247.549 119.92 247.445 120.338 247.445C121.111 247.445 121.732 247.709 122.201 248.236C122.67 248.764 122.904 249.463 122.904 250.334C122.904 251.221 122.674 251.926 122.213 252.449C121.756 252.969 121.143 253.229 120.373 253.229C119.932 253.229 119.547 253.129 119.219 252.93C118.891 252.727 118.623 252.426 118.416 252.027V255.613H117.508ZM128.178 249.713C128.146 249.24 127.988 248.877 127.703 248.623C127.422 248.365 127.035 248.236 126.543 248.236C126.098 248.236 125.727 248.371 125.43 248.641C125.133 248.906 124.961 249.264 124.914 249.713H128.178ZM129.162 250.457H124.914V250.539C124.914 251.113 125.078 251.578 125.406 251.934C125.734 252.285 126.162 252.461 126.689 252.461C127.049 252.461 127.373 252.365 127.662 252.174C127.951 251.979 128.207 251.686 128.43 251.295L129.127 251.764C128.857 252.248 128.514 252.613 128.096 252.859C127.678 253.105 127.193 253.229 126.643 253.229C125.826 253.229 125.166 252.959 124.662 252.42C124.158 251.881 123.906 251.174 123.906 250.299C123.906 249.459 124.156 248.771 124.656 248.236C125.156 247.701 125.799 247.434 126.584 247.434C127.377 247.434 128.004 247.688 128.465 248.195C128.93 248.703 129.162 249.396 129.162 250.275V250.457ZM130.562 253V247.639H131.377V248.752C131.623 248.287 131.885 247.955 132.162 247.756C132.439 247.557 132.777 247.457 133.176 247.457C133.285 247.457 133.391 247.467 133.492 247.486C133.594 247.502 133.695 247.527 133.797 247.562L133.492 248.389C133.387 248.354 133.287 248.328 133.193 248.312C133.1 248.293 133.01 248.283 132.924 248.283C132.439 248.283 132.076 248.459 131.834 248.811C131.592 249.158 131.471 249.684 131.471 250.387V253H130.562ZM134.91 248.395H133.926V247.639H134.91V245.477H135.848V247.639H136.832V248.395H135.848V253H134.91V248.395ZM137.658 255.613L139.111 252.473L137.008 247.639H138.068L139.627 251.488L141.279 247.639H142.287L138.689 255.613H137.658ZM147.572 250.346C147.572 250.971 147.732 251.459 148.053 251.811C148.373 252.162 148.812 252.338 149.371 252.338C149.918 252.338 150.346 252.152 150.654 251.781C150.967 251.406 151.123 250.889 151.123 250.229C151.123 249.643 150.971 249.184 150.666 248.852C150.361 248.52 149.939 248.354 149.4 248.354C148.854 248.354 148.412 248.537 148.076 248.904C147.74 249.268 147.572 249.748 147.572 250.346ZM146.699 243.918H147.607V248.646C147.814 248.248 148.082 247.949 148.41 247.75C148.738 247.547 149.123 247.445 149.564 247.445C150.334 247.445 150.947 247.707 151.404 248.23C151.865 248.754 152.096 249.455 152.096 250.334C152.096 251.205 151.861 251.906 151.393 252.438C150.924 252.965 150.303 253.229 149.529 253.229C149.115 253.229 148.738 253.125 148.398 252.918C148.059 252.707 147.783 252.41 147.572 252.027V253H146.699V243.918ZM154.428 247.639V250.275C154.428 251.045 154.541 251.584 154.768 251.893C154.998 252.197 155.385 252.35 155.928 252.35C156.471 252.35 156.854 252.199 157.076 251.898C157.303 251.594 157.416 251.053 157.416 250.275V247.639H158.354V250.768C158.354 251.576 158.146 252.189 157.732 252.607C157.318 253.021 156.709 253.229 155.904 253.229C155.107 253.229 154.502 253.02 154.088 252.602C153.674 252.184 153.467 251.572 153.467 250.768V247.639H154.428ZM160.27 248.395H159.285V247.639H160.27V245.477H161.207V247.639H162.191V248.395H161.207V253H160.27V248.395ZM166.773 253V243.918H167.67V248.465C167.9 248.121 168.178 247.865 168.502 247.697C168.826 247.529 169.201 247.445 169.627 247.445C170.26 247.445 170.754 247.613 171.109 247.949C171.465 248.285 171.643 248.752 171.643 249.35V253H170.705V249.842C170.705 249.299 170.59 248.896 170.359 248.635C170.133 248.369 169.781 248.236 169.305 248.236C169.031 248.236 168.781 248.287 168.555 248.389C168.332 248.486 168.146 248.627 167.998 248.811C167.885 248.951 167.803 249.111 167.752 249.291C167.705 249.471 167.682 249.783 167.682 250.229V253H166.773ZM177.566 250.369C177.566 249.764 177.4 249.277 177.068 248.91C176.74 248.539 176.311 248.354 175.779 248.354C175.229 248.354 174.799 248.523 174.49 248.863C174.182 249.203 174.027 249.678 174.027 250.287C174.027 250.936 174.182 251.436 174.49 251.787C174.803 252.139 175.244 252.314 175.814 252.314C176.361 252.314 176.789 252.145 177.098 251.805C177.41 251.461 177.566 250.982 177.566 250.369ZM178.457 247.639V253H177.566V252.027C177.352 252.418 177.076 252.717 176.74 252.924C176.408 253.127 176.035 253.229 175.621 253.229C174.852 253.229 174.23 252.965 173.758 252.438C173.289 251.906 173.055 251.205 173.055 250.334C173.055 249.451 173.283 248.75 173.74 248.23C174.197 247.707 174.809 247.445 175.574 247.445C176.023 247.445 176.412 247.547 176.74 247.75C177.072 247.949 177.34 248.248 177.543 248.646V247.639H178.457ZM179.729 252.098L180.514 251.57C180.662 251.855 180.85 252.07 181.076 252.215C181.303 252.355 181.57 252.426 181.879 252.426C182.18 252.426 182.422 252.352 182.605 252.203C182.793 252.055 182.887 251.859 182.887 251.617C182.887 251.43 182.822 251.273 182.693 251.148C182.568 251.023 182.352 250.908 182.043 250.803C182.012 250.791 181.961 250.773 181.891 250.75C180.586 250.301 179.934 249.738 179.934 249.062C179.934 248.586 180.109 248.197 180.461 247.896C180.812 247.596 181.27 247.445 181.832 247.445C182.297 247.445 182.695 247.539 183.027 247.727C183.359 247.91 183.598 248.172 183.742 248.512L182.998 248.969C182.889 248.723 182.727 248.533 182.512 248.4C182.301 248.268 182.055 248.201 181.773 248.201C181.504 248.201 181.283 248.277 181.111 248.43C180.943 248.578 180.859 248.77 180.859 249.004C180.859 249.332 181.215 249.607 181.926 249.83C182.059 249.873 182.164 249.906 182.242 249.93C182.824 250.117 183.229 250.332 183.455 250.574C183.686 250.812 183.801 251.129 183.801 251.523C183.801 252.031 183.619 252.443 183.256 252.76C182.896 253.072 182.426 253.229 181.844 253.229C181.344 253.229 180.918 253.135 180.566 252.947C180.219 252.76 179.939 252.477 179.729 252.098ZM57.7715 267V261.639H58.668V262.465C58.8984 262.121 59.1758 261.865 59.5 261.697C59.8242 261.529 60.1992 261.445 60.625 261.445C61.2578 261.445 61.752 261.613 62.1074 261.949C62.4629 262.285 62.6406 262.752 62.6406 263.35V267H61.7031V263.842C61.7031 263.299 61.5879 262.896 61.3574 262.635C61.1309 262.369 60.7793 262.236 60.3027 262.236C60.0293 262.236 59.7793 262.287 59.5527 262.389C59.3301 262.486 59.1445 262.627 58.9961 262.811C58.8828 262.951 58.8008 263.111 58.75 263.291C58.7031 263.471 58.6797 263.783 58.6797 264.229V267H57.7715ZM65.002 264.334C65.002 264.9 65.1914 265.381 65.5703 265.775C65.9492 266.166 66.4082 266.361 66.9473 266.361C67.4824 266.361 67.9375 266.166 68.3125 265.775C68.6875 265.381 68.875 264.9 68.875 264.334C68.875 263.768 68.6875 263.289 68.3125 262.898C67.9375 262.504 67.4824 262.307 66.9473 262.307C66.4043 262.307 65.9434 262.504 65.5645 262.898C65.1895 263.289 65.002 263.768 65.002 264.334ZM64.0293 264.334C64.0293 263.939 64.1016 263.568 64.2461 263.221C64.3906 262.869 64.6016 262.557 64.8789 262.283C65.1562 262.01 65.4707 261.803 65.8223 261.662C66.1738 261.518 66.5488 261.445 66.9473 261.445C67.3379 261.445 67.707 261.518 68.0547 261.662C68.4062 261.807 68.7246 262.018 69.0098 262.295C69.2871 262.564 69.498 262.875 69.6426 263.227C69.7871 263.574 69.8594 263.943 69.8594 264.334C69.8594 264.725 69.7871 265.094 69.6426 265.441C69.498 265.785 69.2871 266.092 69.0098 266.361C68.7246 266.643 68.4043 266.857 68.0488 267.006C67.6973 267.154 67.3301 267.229 66.9473 267.229C66.5527 267.229 66.1777 267.154 65.8223 267.006C65.4707 266.861 65.1562 266.652 64.8789 266.379C64.6016 266.098 64.3906 265.785 64.2461 265.441C64.1016 265.098 64.0293 264.729 64.0293 264.334ZM82.2988 267V263.842C82.2988 263.299 82.1895 262.896 81.9707 262.635C81.752 262.369 81.416 262.236 80.9629 262.236C80.7168 262.236 80.4883 262.287 80.2773 262.389C80.0703 262.486 79.8945 262.627 79.75 262.811C79.6445 262.951 79.5684 263.115 79.5215 263.303C79.4746 263.49 79.4512 263.799 79.4512 264.229V267H78.5664V263.842C78.5664 263.299 78.457 262.896 78.2383 262.635C78.0195 262.369 77.6836 262.236 77.2305 262.236C76.9844 262.236 76.7539 262.287 76.5391 262.389C76.3281 262.486 76.1504 262.627 76.0059 262.811C75.9043 262.947 75.8301 263.105 75.7832 263.285C75.7402 263.465 75.7188 263.779 75.7188 264.229V267H74.834V261.639H75.7305V262.465C75.9531 262.121 76.2188 261.865 76.5273 261.697C76.8359 261.529 77.1914 261.445 77.5938 261.445C78.0273 261.445 78.3965 261.539 78.7012 261.727C79.0059 261.91 79.2363 262.18 79.3926 262.535C79.623 262.168 79.8945 261.895 80.207 261.715C80.5234 261.535 80.8887 261.445 81.3027 261.445C81.9004 261.445 82.3672 261.613 82.7031 261.949C83.0391 262.285 83.207 262.752 83.207 263.35V267H82.2988ZM85.5566 264.334C85.5566 264.9 85.7461 265.381 86.125 265.775C86.5039 266.166 86.9629 266.361 87.502 266.361C88.0371 266.361 88.4922 266.166 88.8672 265.775C89.2422 265.381 89.4297 264.9 89.4297 264.334C89.4297 263.768 89.2422 263.289 88.8672 262.898C88.4922 262.504 88.0371 262.307 87.502 262.307C86.959 262.307 86.498 262.504 86.1191 262.898C85.7441 263.289 85.5566 263.768 85.5566 264.334ZM84.584 264.334C84.584 263.939 84.6562 263.568 84.8008 263.221C84.9453 262.869 85.1562 262.557 85.4336 262.283C85.7109 262.01 86.0254 261.803 86.377 261.662C86.7285 261.518 87.1035 261.445 87.502 261.445C87.8926 261.445 88.2617 261.518 88.6094 261.662C88.9609 261.807 89.2793 262.018 89.5645 262.295C89.8418 262.564 90.0527 262.875 90.1973 263.227C90.3418 263.574 90.4141 263.943 90.4141 264.334C90.4141 264.725 90.3418 265.094 90.1973 265.441C90.0527 265.785 89.8418 266.092 89.5645 266.361C89.2793 266.643 88.959 266.857 88.6035 267.006C88.252 267.154 87.8848 267.229 87.502 267.229C87.1074 267.229 86.7324 267.154 86.377 267.006C86.0254 266.861 85.7109 266.652 85.4336 266.379C85.1562 266.098 84.9453 265.785 84.8008 265.441C84.6562 265.098 84.584 264.729 84.584 264.334ZM91.8496 267V261.639H92.7461V262.465C92.9766 262.121 93.2539 261.865 93.5781 261.697C93.9023 261.529 94.2773 261.445 94.7031 261.445C95.3359 261.445 95.8301 261.613 96.1855 261.949C96.541 262.285 96.7188 262.752 96.7188 263.35V267H95.7812V263.842C95.7812 263.299 95.666 262.896 95.4355 262.635C95.209 262.369 94.8574 262.236 94.3809 262.236C94.1074 262.236 93.8574 262.287 93.6309 262.389C93.4082 262.486 93.2227 262.627 93.0742 262.811C92.9609 262.951 92.8789 263.111 92.8281 263.291C92.7812 263.471 92.7578 263.783 92.7578 264.229V267H91.8496ZM102.344 263.713C102.312 263.24 102.154 262.877 101.869 262.623C101.588 262.365 101.201 262.236 100.709 262.236C100.264 262.236 99.8926 262.371 99.5957 262.641C99.2988 262.906 99.127 263.264 99.0801 263.713H102.344ZM103.328 264.457H99.0801V264.539C99.0801 265.113 99.2441 265.578 99.5723 265.934C99.9004 266.285 100.328 266.461 100.855 266.461C101.215 266.461 101.539 266.365 101.828 266.174C102.117 265.979 102.373 265.686 102.596 265.295L103.293 265.764C103.023 266.248 102.68 266.613 102.262 266.859C101.844 267.105 101.359 267.229 100.809 267.229C99.9922 267.229 99.332 266.959 98.8281 266.42C98.3242 265.881 98.0723 265.174 98.0723 264.299C98.0723 263.459 98.3223 262.771 98.8223 262.236C99.3223 261.701 99.9648 261.434 100.75 261.434C101.543 261.434 102.17 261.688 102.631 262.195C103.096 262.703 103.328 263.396 103.328 264.275V264.457ZM104.857 262.395H103.873V261.639H104.857V259.477H105.795V261.639H106.779V262.395H105.795V267H104.857V262.395ZM111.924 264.369C111.924 263.764 111.758 263.277 111.426 262.91C111.098 262.539 110.668 262.354 110.137 262.354C109.586 262.354 109.156 262.523 108.848 262.863C108.539 263.203 108.385 263.678 108.385 264.287C108.385 264.936 108.539 265.436 108.848 265.787C109.16 266.139 109.602 266.314 110.172 266.314C110.719 266.314 111.146 266.145 111.455 265.805C111.768 265.461 111.924 264.982 111.924 264.369ZM112.814 261.639V267H111.924V266.027C111.709 266.418 111.434 266.717 111.098 266.924C110.766 267.127 110.393 267.229 109.979 267.229C109.209 267.229 108.588 266.965 108.115 266.438C107.646 265.906 107.412 265.205 107.412 264.334C107.412 263.451 107.641 262.75 108.098 262.23C108.555 261.707 109.166 261.445 109.932 261.445C110.381 261.445 110.77 261.547 111.098 261.75C111.43 261.949 111.697 262.248 111.9 262.646V261.639H112.814ZM114.666 267V261.639H115.48V262.752C115.727 262.287 115.988 261.955 116.266 261.756C116.543 261.557 116.881 261.457 117.279 261.457C117.389 261.457 117.494 261.467 117.596 261.486C117.697 261.502 117.799 261.527 117.9 261.562L117.596 262.389C117.49 262.354 117.391 262.328 117.297 262.312C117.203 262.293 117.113 262.283 117.027 262.283C116.543 262.283 116.18 262.459 115.938 262.811C115.695 263.158 115.574 263.684 115.574 264.387V267H114.666ZM118.656 269.613L120.109 266.473L118.006 261.639H119.066L120.625 265.488L122.277 261.639H123.285L119.688 269.613H118.656ZM129.461 267.334L126.807 261.639H127.838L129.449 265.383L131.066 261.639H132.098L129.461 267.334ZM137.189 264.369C137.189 263.764 137.023 263.277 136.691 262.91C136.363 262.539 135.934 262.354 135.402 262.354C134.852 262.354 134.422 262.523 134.113 262.863C133.805 263.203 133.65 263.678 133.65 264.287C133.65 264.936 133.805 265.436 134.113 265.787C134.426 266.139 134.867 266.314 135.438 266.314C135.984 266.314 136.412 266.145 136.721 265.805C137.033 265.461 137.189 264.982 137.189 264.369ZM138.08 261.639V267H137.189V266.027C136.975 266.418 136.699 266.717 136.363 266.924C136.031 267.127 135.658 267.229 135.244 267.229C134.475 267.229 133.854 266.965 133.381 266.438C132.912 265.906 132.678 265.205 132.678 264.334C132.678 263.451 132.906 262.75 133.363 262.23C133.82 261.707 134.432 261.445 135.197 261.445C135.646 261.445 136.035 261.547 136.363 261.75C136.695 261.949 136.963 262.248 137.166 262.646V261.639H138.08ZM139.967 267V257.918H140.904V267H139.967ZM143.688 261.639V264.275C143.688 265.045 143.801 265.584 144.027 265.893C144.258 266.197 144.645 266.35 145.188 266.35C145.73 266.35 146.113 266.199 146.336 265.898C146.562 265.594 146.676 265.053 146.676 264.275V261.639H147.613V264.768C147.613 265.576 147.406 266.189 146.992 266.607C146.578 267.021 145.969 267.229 145.164 267.229C144.367 267.229 143.762 267.02 143.348 266.602C142.934 266.184 142.727 265.572 142.727 264.768V261.639H143.688ZM153.191 263.713C153.16 263.24 153.002 262.877 152.717 262.623C152.436 262.365 152.049 262.236 151.557 262.236C151.111 262.236 150.74 262.371 150.443 262.641C150.146 262.906 149.975 263.264 149.928 263.713H153.191ZM154.176 264.457H149.928V264.539C149.928 265.113 150.092 265.578 150.42 265.934C150.748 266.285 151.176 266.461 151.703 266.461C152.062 266.461 152.387 266.365 152.676 266.174C152.965 265.979 153.221 265.686 153.443 265.295L154.141 265.764C153.871 266.248 153.527 266.613 153.109 266.859C152.691 267.105 152.207 267.229 151.656 267.229C150.84 267.229 150.18 266.959 149.676 266.42C149.172 265.881 148.92 265.174 148.92 264.299C148.92 263.459 149.17 262.771 149.67 262.236C150.17 261.701 150.812 261.434 151.598 261.434C152.391 261.434 153.018 261.688 153.479 262.195C153.943 262.703 154.176 263.396 154.176 264.275V264.457ZM155.693 266.426C155.693 266.234 155.762 266.07 155.898 265.934C156.035 265.797 156.199 265.729 156.391 265.729C156.586 265.729 156.752 265.797 156.889 265.934C157.029 266.066 157.1 266.23 157.1 266.426C157.1 266.617 157.031 266.779 156.895 266.912C156.758 267.041 156.59 267.105 156.391 267.105C156.195 267.105 156.029 267.041 155.893 266.912C155.76 266.779 155.693 266.617 155.693 266.426Z" fill="black"/>
<mask id="path-5-inside-1_120_1855" fill="white">
<path d="M81.6852 152.307L79.9148 156.128C78.5169 159.204 78.891 162.746 80.9401 165.355C82.2441 167.033 84.4794 168.338 87.1798 169.736C87.1798 169.736 65.8513 164.61 57.9336 158.085C57.9336 158.085 50.8549 172.159 51.6 173.744C52.3451 175.328 75.9105 184.462 90.813 183.623C90.0679 189.495 89.974 191.825 89.2289 197.696C90.9054 201.425 99.1018 212.329 113.167 208.508C115.775 207.762 118.195 204.78 119.406 202.45C142.225 158.645 114.471 192.757 161.692 160.975C145.858 142.707 159.83 147.461 134.403 159.39C134.403 159.39 134.589 146.156 122.387 136.276C123.04 135.158 130.77 127.795 127.044 127.608C126.113 127.515 125.181 127.981 124.622 128.727C123.318 130.311 120.617 133.48 119.965 133.76"/>
</mask>
<path d="M81.6852 152.307L79.9148 156.128C78.5169 159.204 78.891 162.746 80.9401 165.355C82.2441 167.033 84.4794 168.338 87.1798 169.736C87.1798 169.736 65.8513 164.61 57.9336 158.085C57.9336 158.085 50.8549 172.159 51.6 173.744C52.3451 175.328 75.9105 184.462 90.813 183.623C90.0679 189.495 89.974 191.825 89.2289 197.696C90.9054 201.425 99.1018 212.329 113.167 208.508C115.775 207.762 118.195 204.78 119.406 202.45C142.225 158.645 114.471 192.757 161.692 160.975C145.858 142.707 159.83 147.461 134.403 159.39C134.403 159.39 134.589 146.156 122.387 136.276C123.04 135.158 130.77 127.795 127.044 127.608C126.113 127.515 125.181 127.981 124.622 128.727C123.318 130.311 120.617 133.48 119.965 133.76" fill="#010202"/>
<path d="M79.9148 156.128L79.0074 155.708L79.0044 155.715L79.9148 156.128ZM80.9401 165.355L81.7296 164.742L81.7266 164.738L80.9401 165.355ZM87.1798 169.736L86.9461 170.708L87.6395 168.848L87.1798 169.736ZM57.9336 158.085L58.5695 157.314L57.603 156.517L57.0402 157.636L57.9336 158.085ZM90.813 183.623L91.805 183.749L91.9563 182.557L90.7568 182.624L90.813 183.623ZM89.2289 197.696L88.2368 197.57L88.2014 197.85L88.3168 198.107L89.2289 197.696ZM113.167 208.508L113.429 209.473L113.442 209.469L113.167 208.508ZM119.406 202.45L118.52 201.988L118.519 201.988L119.406 202.45ZM161.692 160.975L162.251 161.804L163.188 161.174L162.448 160.32L161.692 160.975ZM134.403 159.39L133.403 159.376L133.38 160.975L134.828 160.296L134.403 159.39ZM122.387 136.276L121.523 135.772L121.091 136.513L121.758 137.053L122.387 136.276ZM127.044 127.608L126.945 128.604L126.969 128.606L126.994 128.607L127.044 127.608ZM124.622 128.727L125.394 129.362L125.409 129.345L125.423 129.327L124.622 128.727ZM81.6852 152.307L80.7779 151.887L79.0074 155.708L79.9148 156.128L80.8221 156.549L82.5926 152.727L81.6852 152.307ZM79.9148 156.128L79.0044 155.715C77.4588 159.115 77.864 163.057 80.1536 165.973L80.9401 165.355L81.7266 164.738C79.918 162.434 79.5751 159.293 80.8252 156.542L79.9148 156.128ZM80.9401 165.355L80.1505 165.969C81.6092 167.846 84.0451 169.239 86.72 170.624L87.1798 169.736L87.6395 168.848C84.9137 167.437 82.8789 166.22 81.7296 164.742L80.9401 165.355ZM87.1798 169.736C87.4135 168.764 87.4135 168.764 87.4134 168.764C87.4133 168.763 87.4131 168.763 87.4129 168.763C87.4123 168.763 87.4115 168.763 87.4103 168.763C87.408 168.762 87.4044 168.761 87.3995 168.76C87.3898 168.758 87.375 168.754 87.3552 168.749C87.3157 168.74 87.2565 168.725 87.1785 168.706C87.0227 168.667 86.7921 168.61 86.4953 168.534C85.9017 168.382 85.0434 168.158 83.988 167.869C81.8767 167.289 78.9807 166.45 75.8407 165.408C69.506 163.307 62.3659 160.442 58.5695 157.314L57.9336 158.085L57.2976 158.857C61.4189 162.253 68.9019 165.214 75.211 167.306C78.3928 168.362 81.3238 169.212 83.4589 169.797C84.5269 170.09 85.3967 170.318 86.0004 170.472C86.3022 170.549 86.5376 170.608 86.6981 170.647C86.7783 170.667 86.8398 170.682 86.8815 170.692C86.9023 170.698 86.9182 170.701 86.929 170.704C86.9344 170.705 86.9386 170.706 86.9414 170.707C86.9428 170.707 86.9439 170.708 86.9447 170.708C86.9451 170.708 86.9454 170.708 86.9456 170.708C86.9459 170.708 86.9461 170.708 87.1798 169.736ZM57.9336 158.085C57.0402 157.636 57.0402 157.636 57.0401 157.636C57.04 157.636 57.0399 157.637 57.0398 157.637C57.0396 157.637 57.0392 157.638 57.0388 157.639C57.0379 157.641 57.0365 157.643 57.0348 157.647C57.0313 157.654 57.0261 157.664 57.0193 157.678C57.0057 157.705 56.9857 157.745 56.9596 157.797C56.9075 157.902 56.8313 158.055 56.7347 158.25C56.5416 158.64 56.2668 159.198 55.9394 159.873C55.2851 161.222 54.4192 163.04 53.5758 164.909C52.7344 166.774 51.907 168.71 51.3351 170.288C51.0503 171.074 50.8189 171.798 50.6832 172.394C50.6156 172.69 50.5653 172.982 50.55 173.249C50.5364 173.486 50.5399 173.839 50.6951 174.169L51.6 173.744L52.5049 173.318C52.567 173.45 52.5384 173.508 52.5467 173.364C52.5532 173.251 52.5785 173.078 52.6332 172.838C52.742 172.361 52.9414 171.725 53.2154 170.969C53.7612 169.463 54.5638 167.583 55.3989 165.732C56.232 163.885 57.0893 162.085 57.7389 160.746C58.0635 160.076 58.3359 159.523 58.527 159.137C58.6225 158.944 58.6977 158.793 58.7489 158.691C58.7745 158.639 58.7941 158.6 58.8073 158.574C58.8139 158.561 58.8188 158.551 58.8221 158.544C58.8238 158.541 58.825 158.539 58.8258 158.537C58.8262 158.536 58.8265 158.536 58.8267 158.535C58.8268 158.535 58.8268 158.535 58.8269 158.535C58.8269 158.535 58.8269 158.535 57.9336 158.085ZM51.6 173.744L50.6951 174.169C50.7957 174.383 50.9444 174.541 51.046 174.638C51.1598 174.746 51.2897 174.848 51.4217 174.941C51.6862 175.128 52.0248 175.329 52.4147 175.538C53.1987 175.959 54.2708 176.457 55.5596 176.996C58.1418 178.077 61.6556 179.352 65.6076 180.549C73.4829 182.934 83.2373 185.051 90.8692 184.621L90.813 183.623L90.7568 182.624C83.4862 183.034 74.0067 181.003 66.1873 178.635C62.2921 177.455 58.8434 176.202 56.3318 175.151C55.0737 174.625 54.0661 174.155 53.3605 173.776C53.0057 173.586 52.7471 173.429 52.5772 173.309C52.492 173.248 52.4455 173.209 52.4255 173.19C52.3933 173.159 52.4508 173.203 52.5049 173.318L51.6 173.744ZM90.813 183.623L89.821 183.497C89.4468 186.446 89.236 188.506 89.0261 190.558C88.8165 192.607 88.6078 194.647 88.2368 197.57L89.2289 197.696L90.2209 197.822C90.5951 194.874 90.8058 192.813 91.0157 190.761C91.2254 188.712 91.4341 186.672 91.805 183.749L90.813 183.623ZM89.2289 197.696L88.3168 198.107C89.225 200.126 91.8093 203.935 95.9922 206.762C100.214 209.615 106.076 211.471 113.429 209.473L113.167 208.508L112.905 207.543C106.193 209.366 100.924 207.681 97.1121 205.105C93.2615 202.502 90.9092 198.995 90.1409 197.286L89.2289 197.696ZM113.167 208.508L113.442 209.469C114.986 209.028 116.39 207.957 117.532 206.765C118.686 205.561 119.648 204.153 120.294 202.911L119.406 202.45L118.519 201.988C117.954 203.076 117.1 204.325 116.088 205.381C115.065 206.449 113.955 207.242 112.892 207.546L113.167 208.508ZM119.406 202.45L120.293 202.912C126.013 191.932 128.572 185.817 129.932 182.321C130.626 180.534 130.97 179.537 131.273 178.871C131.546 178.271 131.683 178.18 131.85 178.096C131.988 178.026 132.186 177.955 132.534 177.854C132.837 177.765 133.341 177.629 133.864 177.472C134.983 177.138 136.54 176.613 138.779 175.617C143.246 173.629 150.419 169.768 162.251 161.804L161.692 160.975L161.134 160.145C149.355 168.073 142.289 171.866 137.966 173.79C135.81 174.749 134.334 175.244 133.291 175.556C132.734 175.723 132.376 175.816 131.973 175.934C131.614 176.039 131.262 176.151 130.946 176.312C130.205 176.687 129.816 177.244 129.453 178.042C129.12 178.774 128.718 179.924 128.068 181.596C126.738 185.017 124.209 191.065 118.52 201.988L119.406 202.45ZM161.692 160.975L162.448 160.32C158.528 155.797 156.458 152.707 155.152 150.782C154.517 149.847 153.996 149.081 153.513 148.595C153.259 148.34 152.958 148.1 152.59 147.958C152.197 147.806 151.8 147.794 151.413 147.886C151.054 147.971 150.721 148.143 150.419 148.332C150.112 148.523 149.781 148.767 149.426 149.04C148.697 149.602 147.822 150.319 146.577 151.229C144.115 153.029 140.276 155.53 133.978 158.485L134.403 159.39L134.828 160.296C141.243 157.286 145.193 154.719 147.757 152.843C149.026 151.916 149.973 151.143 150.646 150.625C150.993 150.358 151.258 150.165 151.476 150.029C151.699 149.89 151.82 149.845 151.876 149.831C151.899 149.826 151.902 149.828 151.891 149.828C151.887 149.827 151.881 149.827 151.877 149.826C151.872 149.825 151.869 149.824 151.87 149.824C151.876 149.826 151.947 149.856 152.095 150.005C152.414 150.327 152.817 150.902 153.497 151.904C154.818 153.852 156.94 157.018 160.937 161.63L161.692 160.975ZM134.403 159.39C135.403 159.404 135.403 159.404 135.403 159.403C135.403 159.403 135.403 159.402 135.403 159.402C135.403 159.401 135.403 159.4 135.403 159.398C135.403 159.396 135.403 159.392 135.403 159.387C135.403 159.379 135.403 159.366 135.403 159.351C135.403 159.321 135.403 159.278 135.402 159.223C135.4 159.113 135.396 158.955 135.386 158.753C135.366 158.349 135.324 157.769 135.234 157.045C135.054 155.597 134.684 153.571 133.922 151.229C132.396 146.542 129.297 140.584 123.016 135.499L122.387 136.276L121.758 137.053C127.679 141.847 130.588 147.447 132.02 151.848C132.736 154.049 133.082 155.949 133.249 157.291C133.332 157.962 133.371 158.493 133.388 158.851C133.397 159.031 133.401 159.167 133.402 159.256C133.403 159.3 133.403 159.333 133.403 159.353C133.403 159.363 133.403 159.37 133.403 159.374C133.403 159.376 133.403 159.377 133.403 159.378C133.403 159.378 133.403 159.378 133.403 159.377C133.403 159.377 133.403 159.377 133.403 159.377C133.403 159.377 133.403 159.376 134.403 159.39ZM122.387 136.276L123.251 136.78C123.249 136.783 123.257 136.77 123.28 136.738C123.302 136.707 123.332 136.668 123.371 136.618C123.45 136.518 123.555 136.394 123.684 136.244C123.944 135.943 124.277 135.572 124.66 135.142C125.417 134.293 126.35 133.238 127.149 132.204C127.918 131.209 128.671 130.1 128.941 129.16C129.074 128.696 129.16 128.031 128.779 127.444C128.379 126.829 127.696 126.64 127.094 126.61L127.044 127.608L126.994 128.607C127.323 128.624 127.214 128.705 127.102 128.534C127.008 128.389 127.096 128.338 127.019 128.608C126.867 129.137 126.345 129.973 125.566 130.981C124.816 131.952 123.927 132.959 123.168 133.811C122.793 134.231 122.444 134.62 122.17 134.937C121.92 135.227 121.661 135.537 121.523 135.772L122.387 136.276ZM127.044 127.608L127.144 126.613C125.823 126.481 124.565 127.136 123.822 128.127L124.622 128.727L125.423 129.327C125.797 128.827 126.402 128.549 126.945 128.604L127.044 127.608ZM124.622 128.727L123.85 128.091C123.203 128.877 122.212 130.054 121.305 131.065C120.85 131.572 120.426 132.026 120.081 132.367C119.908 132.538 119.766 132.67 119.656 132.762C119.522 132.875 119.506 132.869 119.571 132.841L119.965 133.76L120.36 134.679C120.588 134.581 120.798 134.415 120.942 134.294C121.11 134.153 121.295 133.979 121.487 133.789C121.873 133.408 122.328 132.919 122.793 132.401C123.726 131.361 124.737 130.161 125.394 129.362L124.622 128.727Z" fill="black" mask="url(#path-5-inside-1_120_1855)"/>
<path d="M52.3452 170.761L49.086 167.871C49.086 167.871 48.0607 154.916 53.0903 157.153C58.1199 159.297 58.1199 159.297 58.1199 159.297L52.3452 170.761Z" fill="white" stroke="#010202" stroke-miterlimit="10"/>
<path d="M153.31 150.07C153.31 150.07 155.545 145.316 156.57 147.18C157.594 149.045 164.767 150.629 163.928 153.891C163.09 157.153 160.669 159.949 160.669 159.949L153.31 150.07Z" fill="white" stroke="#010202" stroke-miterlimit="10"/>
<path d="M171.752 171.879C172.31 171.413 171.752 170.668 171.752 170.668L152.659 132.175C152.472 131.802 152.378 131.336 152.286 130.963C152.286 130.218 152.472 129.752 152.378 128.913C152.192 127.608 151.261 128.354 150.516 127.142C150.143 126.583 150.051 125.931 150.051 125.465C150.051 125.092 150.237 124.719 150.516 124.439C156.943 119.22 152.565 114.374 152.565 114.374C149.492 111.577 148.747 109.993 147.908 108.875C147.815 108.688 147.908 108.502 148.094 108.409C149.957 108.129 149.492 107.943 149.492 107.943C149.492 107.943 146.511 105.519 146.325 104.308C146.231 103.655 145.951 104.214 145.951 104.401C144.741 109.434 149.957 114.28 149.957 114.28C155.08 119.034 149.212 122.389 149.212 122.389C148.56 122.669 147.815 122.389 147.349 122.109C147.162 122.016 147.07 121.83 146.976 121.643C146.139 119.966 140.737 109.807 140.923 109.527C141.201 109.154 141.76 109.527 142.225 109.434C142.692 109.341 142.413 109.061 142.413 109.061L137.662 105.333C137.57 105.24 137.476 105.333 137.476 105.426L137.57 111.391C137.57 111.391 137.57 111.764 137.942 111.391C138.315 111.018 138.407 110.459 138.78 110.459C139.152 110.459 143.996 120.898 144.835 122.575C144.927 122.762 144.927 122.948 144.927 123.135C144.927 123.694 144.741 124.439 143.996 124.812C143.996 124.812 137.848 127.515 137.103 120.525C137.103 120.525 136.358 113.442 131.609 111.391C131.422 111.298 130.864 111.205 131.329 111.671C132.074 112.603 132.26 116.424 132.26 116.424C132.26 116.424 132.168 116.89 133.472 115.585C133.658 115.399 133.844 115.492 133.936 115.678C134.309 117.076 135.148 118.474 135.521 122.669C135.521 122.669 136.731 129.099 144.741 127.049C145.113 126.956 145.486 127.049 145.766 127.235C146.139 127.515 146.604 127.981 146.79 128.633C147.349 129.938 146.045 130.218 147.07 131.15C147.721 131.802 148.188 131.802 148.747 132.362C149.119 132.641 149.398 133.014 149.584 133.387L168.771 171.786C168.771 171.786 169.144 172.718 169.796 172.532L171.752 171.879Z" fill="white" stroke="#010202" stroke-miterlimit="10"/>
<path d="M94.5387 143.079C94.5387 143.079 65.2925 134.132 69.577 158.457C69.577 158.457 74.9791 172.344 77.4008 173.929C77.4008 173.929 81.4051 174.302 84.2932 175.513C84.2932 175.513 87.46 176.632 89.2289 184.181C89.2289 184.181 90.5329 187.63 97.239 184.181C97.239 184.181 102.082 181.851 102.549 175.14C102.549 175.14 91.1856 158.085 94.5387 143.079Z" fill="white" stroke="#010202" stroke-miterlimit="10"/>
<path d="M113.539 135.437C113.539 135.437 128.442 108.781 142.227 129.192C142.227 129.192 148.001 142.986 147.256 145.689C147.256 145.689 144.648 148.765 143.344 151.654C143.344 151.654 141.854 154.637 145.766 161.347C145.766 161.347 147.162 164.702 139.991 166.939C139.991 166.939 134.868 168.617 129.932 164.05C129.932 164.05 126.299 144.012 113.539 135.437Z" fill="white" stroke="#010202" stroke-miterlimit="10"/>
<path d="M91.7445 148.765C91.7445 148.765 70.1343 143.173 74.3264 162.093L91.7445 148.765Z" fill="white"/>
<path d="M91.7444 148.765C90.6267 148.579 89.4151 148.485 88.2975 148.392C87.1798 148.299 85.9697 148.299 84.852 148.392C82.5227 148.485 80.195 148.951 78.3321 150.07C76.3754 151.095 75.0715 153.052 74.5126 155.289C74.2339 156.408 74.1401 157.526 74.1401 158.738C74.1401 159.297 74.2339 159.856 74.2339 160.508C74.3263 161.068 74.4202 161.627 74.4202 162.279C73.7675 160.042 73.3949 157.619 73.7675 155.196C73.9538 153.984 74.4202 152.866 75.0715 151.747C75.7242 150.722 76.748 149.883 77.7733 149.231C79.9148 148.019 82.4303 147.647 84.7581 147.74C87.1798 147.647 89.509 148.019 91.7444 148.765Z" fill="#010202"/>
<path d="M119.593 137.58C119.593 137.58 131.329 118.567 141.388 135.157L119.593 137.58Z" fill="white"/>
<path d="M119.593 137.581C120.71 135.53 122.201 133.573 123.877 131.895C125.554 130.218 127.603 128.82 130.025 128.167C131.236 127.888 132.54 127.794 133.75 128.074C134.962 128.354 136.079 128.913 137.103 129.658C139.06 131.15 140.456 133.107 141.482 135.158C141.109 134.692 140.736 134.226 140.456 133.76C140.084 133.293 139.711 132.827 139.339 132.455C138.501 131.616 137.662 130.777 136.731 130.218C134.868 129.006 132.54 128.447 130.397 129.099C128.256 129.658 126.299 130.963 124.53 132.455C123.691 133.2 122.853 134.039 122.014 134.878C121.083 135.717 120.338 136.649 119.593 137.581Z" fill="#010202"/>
<path d="M132.54 154.916C132.074 153.705 131.236 152.773 130.211 151.934C129.932 150.629 129.56 149.324 129.093 148.019C124.903 137.487 113.259 132.268 103.108 136.369C99.5683 137.767 96.6802 140.19 94.6311 143.08C90.7192 148.579 89.6953 155.942 92.3957 162.745C93.0484 164.33 93.8859 165.728 94.8173 167.033C94.8173 167.965 94.9112 168.99 95.2838 169.829C96.8664 173.836 102.082 175.794 108.416 175.514C108.602 175.514 108.696 175.514 108.882 175.514C113.539 180.92 119.128 187.817 119.406 190.799C120.059 196.018 117.638 195.646 117.171 192.197C117.171 192.197 113.912 191.172 113.632 192.104C113.353 193.036 114.285 195.646 115.122 197.137C115.402 197.696 122.667 201.704 127.789 192.197C128.069 185.766 127.044 177.285 126.393 168.617C131.515 164.33 134.217 159.11 132.54 154.916Z" fill="white" stroke="#010202" stroke-miterlimit="10"/>
<path d="M117.618 154.1C118.763 153.64 119.116 151.834 118.407 150.066C117.697 148.299 116.194 147.24 115.048 147.7C113.902 148.161 113.548 149.967 114.258 151.734C114.969 153.502 116.472 154.561 117.618 154.1Z" fill="#010202"/>
<path d="M117.618 154.1C118.763 153.64 119.116 151.834 118.407 150.066C117.697 148.299 116.194 147.24 115.048 147.7C113.902 148.161 113.548 149.967 114.258 151.734C114.969 153.502 116.472 154.561 117.618 154.1Z" fill="#010202"/>
<path d="M105.225 159.06C106.37 158.6 106.723 156.794 106.014 155.026C105.304 153.259 103.801 152.2 102.655 152.66C101.509 153.121 101.155 154.927 101.865 156.694C102.576 158.462 104.079 159.521 105.225 159.06Z" fill="#010202"/>
<path d="M105.808 173.184C105.808 173.184 103.851 173.463 104.038 174.861C104.224 176.259 105.435 175.607 104.596 178.776C103.759 181.945 102.362 183.529 102.827 183.902C103.294 184.275 106.459 186.232 110.185 177.284L105.808 173.184Z" fill="white" stroke="#010202" stroke-miterlimit="10"/>
<path d="M126.671 164.795C126.671 164.795 128.348 163.676 129.093 164.795C129.932 165.913 128.534 166.286 131.422 168.057C134.217 169.828 136.358 169.921 136.266 170.48C136.172 171.04 135.24 174.674 126.393 170.76L126.671 164.795Z" fill="white" stroke="#010202" stroke-miterlimit="10"/>
<path d="M105.902 160.695C106.553 159.763 107.392 159.017 108.323 158.271C109.255 157.619 110.279 157.06 111.304 156.594C111.863 156.407 112.42 156.221 112.887 156.035C113.445 155.941 114.004 155.755 114.563 155.755C115.681 155.568 116.799 155.662 117.916 155.848C116.799 156.034 115.681 156.221 114.657 156.5C113.632 156.78 112.608 157.06 111.583 157.526C109.627 158.271 107.765 159.39 105.902 160.695Z" fill="#010202"/>
<path d="M106.739 166.753C108.416 164.516 110.745 162.746 113.259 161.441C114.563 160.882 115.961 160.416 117.357 160.322C118.755 160.136 120.245 160.322 121.549 160.788C120.152 160.695 118.755 160.788 117.451 161.068C116.147 161.348 114.843 161.814 113.632 162.373C112.422 162.932 111.21 163.584 110.092 164.33C108.975 165.076 107.765 165.821 106.739 166.753Z" fill="#010202"/>
<path d="M110.838 171.787C111.396 170.855 112.142 170.109 112.981 169.457C113.818 168.804 114.749 168.245 115.681 167.872C116.147 167.686 116.706 167.5 117.171 167.406C117.73 167.313 118.196 167.127 118.755 167.127C119.779 167.033 120.897 167.127 121.922 167.406C120.897 167.5 119.873 167.593 118.848 167.872C117.824 168.059 116.892 168.338 115.961 168.804C114.191 169.457 112.514 170.482 110.838 171.787Z" fill="#010202"/>
<path d="M113.818 177.097C114.285 176.259 114.936 175.606 115.681 175.047C116.426 174.488 117.265 174.022 118.103 173.649C118.942 173.276 119.873 173.09 120.804 172.996C121.736 172.903 122.667 172.996 123.599 173.183C122.667 173.369 121.828 173.462 120.897 173.742C120.059 173.928 119.22 174.208 118.383 174.581C116.892 175.14 115.308 175.979 113.818 177.097Z" fill="#010202"/>
<path d="M116.985 182.318C117.357 181.665 117.916 181.106 118.475 180.64C119.034 180.174 119.687 179.801 120.432 179.522C121.083 179.242 121.828 179.055 122.573 178.962C123.318 178.869 124.063 178.962 124.809 179.149C124.063 179.335 123.412 179.521 122.76 179.708C122.108 179.894 121.456 180.174 120.804 180.454C119.5 180.92 118.289 181.665 116.985 182.318Z" fill="#010202"/>
<path d="M119.687 186.138C119.965 185.672 120.338 185.206 120.804 184.926C121.269 184.554 121.736 184.274 122.201 184.088C122.76 183.901 123.318 183.715 123.877 183.808C124.436 183.808 125.089 184.088 125.367 184.554C124.809 184.46 124.344 184.46 123.877 184.554C123.412 184.647 122.946 184.833 122.481 185.02C121.642 185.299 120.71 185.765 119.687 186.138Z" fill="#010202"/>
<path d="M121.642 189.495C121.828 189.122 122.108 188.842 122.481 188.563C122.853 188.283 123.226 188.19 123.691 188.096C124.157 188.003 124.622 188.096 124.995 188.376C125.367 188.563 125.648 188.935 125.834 189.308C125.367 189.215 125.089 189.122 124.716 189.029C124.344 189.029 124.064 188.935 123.785 189.029C123.132 189.122 122.481 189.308 121.642 189.495Z" fill="#010202"/>
<path d="M98.9156 149.325C98.7293 148.672 98.8232 148.113 99.1019 147.554C99.2881 147.274 99.4744 147.088 99.847 146.901C100.127 146.715 100.592 146.808 100.778 146.995C100.5 147.181 100.313 147.274 100.22 147.461C100.127 147.647 99.9409 147.833 99.847 148.02C99.6607 148.486 99.4744 148.859 98.9156 149.325Z" fill="#010202"/>
<path d="M111.955 142.427C112.141 142.147 112.422 141.961 112.794 141.774C113.073 141.681 113.445 141.588 113.818 141.588C114.191 141.588 114.563 141.681 114.843 141.867C115.122 142.054 115.402 142.334 115.495 142.706C115.122 142.613 114.843 142.613 114.657 142.52C114.377 142.52 114.098 142.52 113.912 142.52C113.167 142.52 112.608 142.52 111.955 142.427Z" fill="#010202"/>
<path d="M101.059 169.642C100.686 169.548 100.313 169.269 100.127 168.896C99.9409 168.523 99.847 168.057 99.9409 167.684C100.033 167.312 100.22 166.939 100.5 166.659C100.778 166.38 101.059 166.193 101.431 166.007C101.337 166.38 101.245 166.752 101.151 167.032C101.059 167.312 100.965 167.591 100.872 167.871C100.686 168.337 100.778 168.896 101.059 169.642Z" fill="#010202"/>
<path d="M125.181 156.408C125.461 156.129 125.926 156.035 126.299 156.129C126.671 156.129 127.044 156.408 127.417 156.595C127.697 156.874 127.883 157.247 128.069 157.62C128.162 157.993 128.256 158.366 128.162 158.738C127.883 158.459 127.697 158.179 127.417 157.993C127.23 157.806 127.044 157.527 126.765 157.34C126.393 156.968 125.926 156.688 125.181 156.408Z" fill="#010202"/>
<path d="M91.5582 154.078C91.5582 154.078 84.9444 148.859 81.0325 141.123C76.2831 131.896 75.5379 119.127 95.1899 107.756C97.8917 106.172 100.965 105.52 104.039 105.799C144.554 109.807 126.952 146.901 126.952 146.901C126.952 146.901 106.181 136.929 105.808 134.319C105.808 134.319 92.7682 156.501 91.5582 154.078Z" fill="#0995DC" stroke="black" stroke-miterlimit="10"/>
<path d="M80.5675 140.656C80.9401 137.58 82.0578 134.598 83.4541 131.802C84.1068 130.404 85.0383 129.099 85.7834 127.794C86.5285 126.489 87.2736 125.184 88.0188 123.88C89.4151 121.177 90.813 118.474 92.117 115.678C92.7682 114.28 93.4209 112.975 94.0722 111.577C94.4447 110.924 94.7249 110.179 95.0036 109.526C95.1899 109.154 95.2837 108.874 95.47 108.501C95.6563 108.128 95.7487 107.756 95.8426 107.383C95.935 108.128 95.6563 108.967 95.5624 109.713C95.3761 110.458 95.1899 111.204 95.0036 111.95C94.5386 113.441 94.0722 114.932 93.5133 116.33C92.3956 119.219 91.1855 122.015 89.6953 124.812C88.9502 126.21 88.205 127.514 87.366 128.819L86.0621 130.683C85.6895 131.336 85.2245 131.988 84.852 132.547C83.1754 135.064 81.6852 137.767 80.5675 140.656Z" fill="black"/>
<path d="M87.3661 150.07C87.1798 148.951 87.2737 147.833 87.46 146.715C87.6462 145.596 87.8325 144.478 88.2051 143.453C88.4838 142.334 88.8563 141.309 89.2289 140.284C89.6014 139.259 90.0679 138.233 90.5329 137.115L90.6267 137.022C92.2094 134.598 93.7935 132.175 95.2838 129.659C96.774 127.142 98.2643 124.719 99.4744 122.109C99.7545 121.457 100.033 120.804 100.219 120.152C100.406 119.5 100.686 118.754 100.872 118.102C101.431 116.704 101.99 115.306 102.549 114.001C103.2 112.696 103.759 111.391 104.318 109.993C104.598 109.341 104.877 108.688 104.97 107.943C105.063 107.29 105.157 106.451 104.598 105.985C104.97 106.172 105.157 106.545 105.249 106.917C105.343 107.29 105.343 107.663 105.343 108.036C105.343 108.781 105.157 109.527 104.97 110.273C104.598 111.671 104.131 113.069 103.666 114.467C103.2 115.865 102.735 117.17 102.269 118.568L101.99 119.593C101.896 119.966 101.804 120.245 101.71 120.618C101.523 121.364 101.245 122.016 100.965 122.762C99.7545 125.465 98.3567 128.074 96.774 130.591C95.1899 133.107 93.6072 135.53 91.8368 137.86L91.9307 137.767C91.4643 138.793 90.9054 139.725 90.4405 140.75C89.974 141.775 89.5091 142.707 89.1365 143.732C88.7639 144.757 88.2975 145.783 88.0188 146.808C87.6462 147.833 87.3661 148.951 87.3661 150.07Z" fill="black"/>
<path d="M106.18 134.038C106.18 134.038 115.961 115.957 109.069 106.916" stroke="black" stroke-width="1.25" stroke-miterlimit="10"/>
<path d="M114.401 116.671C115.256 117.124 116.086 117.607 116.872 118.131C117.004 118.248 117.147 118.334 117.241 118.39C117.367 118.466 117.428 118.505 117.47 118.547C117.563 118.64 117.683 118.757 117.888 118.873C117.939 118.924 117.955 118.94 118.031 119.015L118.055 119.039L118.082 119.061C118.437 119.327 118.845 119.634 119.356 119.848C120.2 120.407 121.041 120.875 121.966 121.338C122.389 121.573 122.833 121.807 123.272 122.038C123.715 122.272 124.153 122.503 124.566 122.732L124.585 122.742C124.855 122.877 125.273 123.112 125.608 123.328L125.907 123.534C126.331 123.876 126.675 124.218 127.036 124.579C127.62 125.374 128.164 126.148 128.669 126.926C127.989 126.301 127.309 125.684 126.628 125.088L126.614 125.075L126.599 125.064L125.481 124.226C125.042 123.896 124.694 123.78 124.151 123.599C123.25 123.237 122.391 122.717 121.417 122.229C120.476 121.664 119.678 121.22 118.876 120.596L118.852 120.577L118.826 120.562L118.67 120.462C118.329 120.231 118.049 119.957 117.614 119.605C117.61 119.6 117.602 119.591 117.589 119.574C117.571 119.55 117.534 119.503 117.497 119.459C117.434 119.383 117.339 119.282 117.205 119.197L116.592 118.585L116.569 118.563C115.848 117.933 115.118 117.309 114.401 116.671Z" fill="white" stroke="black"/>
<path d="M128.721 140.936C127.51 139.165 126.393 137.488 125.089 135.996C124.436 135.251 123.785 134.598 122.946 133.946C122.201 133.387 121.363 132.828 120.432 132.268C118.755 131.15 116.985 130.032 115.308 128.82C113.632 127.608 111.955 126.397 110.373 125.092C112.328 125.744 114.284 126.676 116.147 127.608C118.01 128.54 119.779 129.566 121.549 130.777C122.387 131.336 123.318 131.989 124.063 132.641C124.903 133.387 125.648 134.226 126.206 135.158C127.324 136.928 128.162 138.886 128.721 140.936Z" fill="black"/>
<rect x="41" y="29" width="16" height="56" fill="#A3B6CC"/>
<rect x="58" y="29" width="15" height="56" fill="#BA256D"/>
<rect x="28" y="29" width="12" height="56" fill="#844020"/>
<rect x="90" y="29" width="16" height="56" fill="#D81F20"/>
<rect x="107" y="29" width="15" height="56" fill="#EBDC22"/>
<rect x="74" y="29" width="15" height="56" fill="#E3780D"/>
<rect x="123" y="29" width="15" height="56" fill="#22B03C"/>
<rect x="139" y="29" width="16" height="56" fill="#214285"/>
<rect x="172" y="29" width="15" height="56" fill="#94C99B"/>
<rect x="156" y="29" width="15" height="56" fill="#010603"/>
<rect x="28" y="44" width="159" height="29" fill="white" stroke="black"/>
<path d="M60.584 53.9922L62.0674 59.4199C62.1631 59.7663 62.252 60.1377 62.334 60.5342C62.416 60.9307 62.4935 61.375 62.5664 61.8672C62.5755 61.4525 62.6051 61.0446 62.6553 60.6436C62.71 60.238 62.7897 59.8301 62.8945 59.4199L64.1934 53.9922H66.3057L63.6875 64H61.6299L59.8389 57.6152C59.7523 57.3236 59.6839 57.0296 59.6338 56.7334C59.5837 56.4372 59.5495 56.1296 59.5312 55.8105C59.5085 56.1478 59.472 56.4668 59.4219 56.7676C59.3763 57.0684 59.3148 57.3509 59.2373 57.6152L57.4326 64H55.375L52.7568 53.9922H54.8965L56.2158 59.5498C56.2887 59.8688 56.348 60.2152 56.3936 60.5889C56.4391 60.958 56.4733 61.3613 56.4961 61.7988C56.5827 61.2201 56.7422 60.4863 56.9746 59.5977L57.0088 59.4541L58.4785 53.9922H60.584ZM67.7344 64V53.9922H69.874V64H67.7344ZM72.1641 64V53.9922H74.3037V62.1816H77.7217V64H72.1641ZM81.208 62.1953H82.3975C83.5186 62.1953 84.3343 61.9401 84.8447 61.4297C85.3597 60.9193 85.6172 60.1104 85.6172 59.0029C85.6172 57.9001 85.3597 57.0934 84.8447 56.583C84.3343 56.068 83.5186 55.8105 82.3975 55.8105H81.208V62.1953ZM79.0684 64V53.9922H81.7959C82.8714 53.9922 83.7191 54.0674 84.3389 54.2178C84.9587 54.3682 85.5033 54.6188 85.9727 54.9697C86.5788 55.4209 87.0368 55.9906 87.3467 56.6787C87.6611 57.3623 87.8184 58.1416 87.8184 59.0166C87.8184 59.9053 87.6589 60.6937 87.3398 61.3818C87.0208 62.0654 86.5537 62.6305 85.9385 63.0771C85.4827 63.4053 84.9746 63.6423 84.4141 63.7881C83.8581 63.9294 83.0423 64 81.9668 64H81.208H79.0684ZM96.0693 58.5107H96.377C96.9603 58.5107 97.3841 58.39 97.6484 58.1484C97.9128 57.9069 98.0449 57.5195 98.0449 56.9863C98.0449 56.4941 97.9128 56.1364 97.6484 55.9131C97.3841 55.6852 96.9603 55.5713 96.377 55.5713H96.0693V58.5107ZM93.916 64V53.9922H96.377C97.6895 53.9922 98.6579 54.2428 99.2822 54.7441C99.9111 55.2454 100.226 56.0202 100.226 57.0684C100.226 58.0391 99.9089 58.8001 99.2754 59.3516C98.6465 59.903 97.7738 60.1787 96.6572 60.1787H96.0693V64H93.916ZM108.948 64H106.48L103.849 59.3242V64H101.709V53.9922H104.771C105.988 53.9922 106.9 54.2292 107.506 54.7031C108.112 55.1725 108.415 55.8812 108.415 56.8291C108.415 57.5173 108.208 58.1051 107.793 58.5928C107.378 59.0804 106.843 59.3652 106.187 59.4473L108.948 64ZM103.849 58.2578H104.17C105.036 58.2578 105.608 58.1644 105.886 57.9775C106.164 57.7861 106.303 57.4557 106.303 56.9863C106.303 56.4941 106.152 56.1455 105.852 55.9404C105.555 55.7308 104.995 55.626 104.17 55.626H103.849V58.2578ZM120.446 59.0166C120.446 59.7321 120.312 60.4089 120.043 61.0469C119.779 61.6849 119.396 62.2454 118.895 62.7285C118.375 63.2253 117.789 63.6058 117.138 63.8701C116.486 64.1344 115.812 64.2666 115.114 64.2666C114.504 64.2666 113.904 64.1641 113.316 63.959C112.733 63.7493 112.198 63.4508 111.71 63.0635C111.081 62.5622 110.598 61.9629 110.261 61.2656C109.928 60.5684 109.762 59.8187 109.762 59.0166C109.762 58.2965 109.894 57.6221 110.158 56.9932C110.423 56.3597 110.81 55.7969 111.32 55.3047C111.822 54.8171 112.403 54.4388 113.063 54.1699C113.729 53.901 114.412 53.7666 115.114 53.7666C115.812 53.7666 116.488 53.901 117.145 54.1699C117.805 54.4388 118.389 54.8171 118.895 55.3047C119.4 55.7969 119.785 56.3597 120.05 56.9932C120.314 57.6266 120.446 58.3011 120.446 59.0166ZM115.114 62.3594C116.021 62.3594 116.769 62.0426 117.356 61.4092C117.949 60.7712 118.245 59.9736 118.245 59.0166C118.245 58.0687 117.947 57.2712 117.35 56.624C116.753 55.9769 116.007 55.6533 115.114 55.6533C114.207 55.6533 113.455 55.9769 112.858 56.624C112.261 57.2666 111.963 58.0641 111.963 59.0166C111.963 59.9827 112.257 60.7826 112.845 61.416C113.433 62.0449 114.189 62.3594 115.114 62.3594ZM124.411 58.5107H124.719C125.302 58.5107 125.726 58.39 125.99 58.1484C126.255 57.9069 126.387 57.5195 126.387 56.9863C126.387 56.4941 126.255 56.1364 125.99 55.9131C125.726 55.6852 125.302 55.5713 124.719 55.5713H124.411V58.5107ZM122.258 64V53.9922H124.719C126.031 53.9922 127 54.2428 127.624 54.7441C128.253 55.2454 128.567 56.0202 128.567 57.0684C128.567 58.0391 128.251 58.8001 127.617 59.3516C126.988 59.903 126.116 60.1787 124.999 60.1787H124.411V64H122.258ZM130.051 64V53.9922H135.943V55.7969H132.19V57.8545H135.943V59.6729H132.19V62.1816H135.943V64H130.051ZM145.288 64H142.82L140.188 59.3242V64H138.049V53.9922H141.111C142.328 53.9922 143.24 54.2292 143.846 54.7031C144.452 55.1725 144.755 55.8812 144.755 56.8291C144.755 57.5173 144.548 58.1051 144.133 58.5928C143.718 59.0804 143.183 59.3652 142.526 59.4473L145.288 64ZM140.188 58.2578H140.51C141.376 58.2578 141.948 58.1644 142.226 57.9775C142.504 57.7861 142.643 57.4557 142.643 56.9863C142.643 56.4941 142.492 56.1455 142.191 55.9404C141.895 55.7308 141.335 55.626 140.51 55.626H140.188V58.2578ZM150.278 55.8105V64H148.132V55.8105H145.685V53.9922H152.739V55.8105H150.278ZM156.185 64V59.4336L152.794 53.9922H155.303L156.786 56.7334C156.859 56.8701 156.934 57.0433 157.012 57.2529C157.089 57.4626 157.169 57.7041 157.251 57.9775C157.315 57.7451 157.385 57.5264 157.463 57.3213C157.545 57.1162 157.636 56.9157 157.736 56.7197L159.206 53.9922H161.701L158.324 59.4336V64H156.185Z" fill="black"/>
</svg>
