<svg width="211" height="328" viewBox="0 0 211 328" fill="none" xmlns="http://www.w3.org/2000/svg">
<rect width="211" height="328" rx="16" fill="white"/>
<rect x="11.5" y="11.5" width="187" height="306" stroke="black"/>
<rect x="27.5" y="28.5" width="160" height="57" fill="black" stroke="black"/>
<path d="M42.6191 232.473C42.209 232.027 41.7715 231.699 41.3066 231.488C40.8418 231.273 40.3281 231.166 39.7656 231.166C39.3125 231.166 38.8691 231.258 38.4355 231.441C38.0059 231.625 37.6328 231.881 37.3164 232.209C36.9883 232.549 36.7422 232.93 36.5781 233.352C36.4141 233.77 36.332 234.232 36.332 234.74C36.332 235.139 36.3809 235.506 36.4785 235.842C36.5762 236.178 36.7227 236.486 36.918 236.768C37.2617 237.256 37.6836 237.633 38.1836 237.898C38.6875 238.16 39.2305 238.291 39.8125 238.291C40.3594 238.291 40.8672 238.178 41.3359 237.951C41.8047 237.725 42.2324 237.387 42.6191 236.938V238.291C42.1934 238.6 41.7344 238.834 41.2422 238.994C40.7539 239.15 40.248 239.229 39.7246 239.229C39.2715 239.229 38.8301 239.16 38.4004 239.023C37.9707 238.891 37.5684 238.695 37.1934 238.438C36.5684 238.004 36.0898 237.471 35.7578 236.838C35.4297 236.205 35.2656 235.51 35.2656 234.752C35.2656 234.092 35.375 233.492 35.5938 232.953C35.8164 232.41 36.1543 231.918 36.6074 231.477C37.0449 231.055 37.5293 230.74 38.0605 230.533C38.5918 230.322 39.1719 230.217 39.8008 230.217C40.2969 230.217 40.7773 230.293 41.2422 230.445C41.707 230.594 42.166 230.826 42.6191 231.143V232.473ZM48.0742 235.713C48.043 235.24 47.8848 234.877 47.5996 234.623C47.3184 234.365 46.9316 234.236 46.4395 234.236C45.9941 234.236 45.623 234.371 45.3262 234.641C45.0293 234.906 44.8574 235.264 44.8105 235.713H48.0742ZM49.0586 236.457H44.8105V236.539C44.8105 237.113 44.9746 237.578 45.3027 237.934C45.6309 238.285 46.0586 238.461 46.5859 238.461C46.9453 238.461 47.2695 238.365 47.5586 238.174C47.8477 237.979 48.1035 237.686 48.3262 237.295L49.0234 237.764C48.7539 238.248 48.4102 238.613 47.9922 238.859C47.5742 239.105 47.0898 239.229 46.5391 239.229C45.7227 239.229 45.0625 238.959 44.5586 238.42C44.0547 237.881 43.8027 237.174 43.8027 236.299C43.8027 235.459 44.0527 234.771 44.5527 234.236C45.0527 233.701 45.6953 233.434 46.4805 233.434C47.2734 233.434 47.9004 233.688 48.3613 234.195C48.8262 234.703 49.0586 235.396 49.0586 236.275V236.457ZM50.5879 234.395H49.6035V233.639H50.5879V231.477H51.5254V233.639H52.5098V234.395H51.5254V239H50.5879V234.395ZM53.6934 234.395H52.709V233.639H53.6934V231.477H54.6309V233.639H55.6152V234.395H54.6309V239H53.6934V234.395ZM60.4609 235.713C60.4297 235.24 60.2715 234.877 59.9863 234.623C59.7051 234.365 59.3184 234.236 58.8262 234.236C58.3809 234.236 58.0098 234.371 57.7129 234.641C57.416 234.906 57.2441 235.264 57.1973 235.713H60.4609ZM61.4453 236.457H57.1973V236.539C57.1973 237.113 57.3613 237.578 57.6895 237.934C58.0176 238.285 58.4453 238.461 58.9727 238.461C59.332 238.461 59.6562 238.365 59.9453 238.174C60.2344 237.979 60.4902 237.686 60.7129 237.295L61.4102 237.764C61.1406 238.248 60.7969 238.613 60.3789 238.859C59.9609 239.105 59.4766 239.229 58.9258 239.229C58.1094 239.229 57.4492 238.959 56.9453 238.42C56.4414 237.881 56.1895 237.174 56.1895 236.299C56.1895 235.459 56.4395 234.771 56.9395 234.236C57.4395 233.701 58.082 233.434 58.8672 233.434C59.6602 233.434 60.2871 233.688 60.748 234.195C61.2129 234.703 61.4453 235.396 61.4453 236.275V236.457ZM70.4863 237.729V238.795C70.2441 238.939 69.9707 239.047 69.666 239.117C69.3652 239.191 69.0391 239.229 68.6875 239.229C67.8594 239.229 67.1914 238.967 66.6836 238.443C66.1797 237.916 65.9277 237.225 65.9277 236.369C65.9277 235.51 66.1895 234.809 66.7129 234.266C67.2363 233.719 67.9062 233.445 68.7227 233.445C69.0195 233.445 69.3086 233.477 69.5898 233.539C69.875 233.602 70.1426 233.693 70.3926 233.814V234.799C70.1582 234.646 69.916 234.531 69.666 234.453C69.416 234.371 69.1621 234.33 68.9043 234.33C68.3027 234.33 67.8203 234.52 67.457 234.898C67.0938 235.273 66.9121 235.773 66.9121 236.398C66.9121 236.949 67.0938 237.41 67.457 237.781C67.8242 238.152 68.2832 238.338 68.834 238.338C69.1113 238.338 69.3828 238.289 69.6484 238.191C69.9141 238.094 70.1934 237.939 70.4863 237.729ZM75.8652 236.369C75.8652 235.764 75.6992 235.277 75.3672 234.91C75.0391 234.539 74.6094 234.354 74.0781 234.354C73.5273 234.354 73.0977 234.523 72.7891 234.863C72.4805 235.203 72.3262 235.678 72.3262 236.287C72.3262 236.936 72.4805 237.436 72.7891 237.787C73.1016 238.139 73.543 238.314 74.1133 238.314C74.6602 238.314 75.0879 238.145 75.3965 237.805C75.709 237.461 75.8652 236.982 75.8652 236.369ZM76.7559 233.639V239H75.8652V238.027C75.6504 238.418 75.375 238.717 75.0391 238.924C74.707 239.127 74.334 239.229 73.9199 239.229C73.1504 239.229 72.5293 238.965 72.0566 238.438C71.5879 237.906 71.3535 237.205 71.3535 236.334C71.3535 235.451 71.582 234.75 72.0391 234.23C72.4961 233.707 73.1074 233.445 73.873 233.445C74.3223 233.445 74.7109 233.547 75.0391 233.75C75.3711 233.949 75.6387 234.248 75.8418 234.646V233.639H76.7559ZM78.6074 239V233.639H79.4219V234.752C79.668 234.287 79.9297 233.955 80.207 233.756C80.4844 233.557 80.8223 233.457 81.2207 233.457C81.3301 233.457 81.4355 233.467 81.5371 233.486C81.6387 233.502 81.7402 233.527 81.8418 233.562L81.5371 234.389C81.4316 234.354 81.332 234.328 81.2383 234.312C81.1445 234.293 81.0547 234.283 80.9688 234.283C80.4844 234.283 80.1211 234.459 79.8789 234.811C79.6367 235.158 79.5156 235.684 79.5156 236.387V239H78.6074ZM82.9551 234.395H81.9707V233.639H82.9551V231.477H83.8926V233.639H84.877V234.395H83.8926V239H82.9551V234.395ZM89.7227 235.713C89.6914 235.24 89.5332 234.877 89.248 234.623C88.9668 234.365 88.5801 234.236 88.0879 234.236C87.6426 234.236 87.2715 234.371 86.9746 234.641C86.6777 234.906 86.5059 235.264 86.459 235.713H89.7227ZM90.707 236.457H86.459V236.539C86.459 237.113 86.623 237.578 86.9512 237.934C87.2793 238.285 87.707 238.461 88.2344 238.461C88.5938 238.461 88.918 238.365 89.207 238.174C89.4961 237.979 89.752 237.686 89.9746 237.295L90.6719 237.764C90.4023 238.248 90.0586 238.613 89.6406 238.859C89.2227 239.105 88.7383 239.229 88.1875 239.229C87.3711 239.229 86.7109 238.959 86.207 238.42C85.7031 237.881 85.4512 237.174 85.4512 236.299C85.4512 235.459 85.7012 234.771 86.2012 234.236C86.7012 233.701 87.3438 233.434 88.1289 233.434C88.9219 233.434 89.5488 233.688 90.0098 234.195C90.4746 234.703 90.707 235.396 90.707 236.275V236.457ZM96.5195 236.334C96.5195 236.936 96.6855 237.418 97.0176 237.781C97.3496 238.145 97.7891 238.326 98.3359 238.326C98.8711 238.326 99.291 238.16 99.5957 237.828C99.9043 237.496 100.059 237.035 100.059 236.445C100.059 235.785 99.9043 235.268 99.5957 234.893C99.291 234.518 98.8652 234.33 98.3184 234.33C97.7598 234.33 97.3203 234.508 97 234.863C96.6797 235.219 96.5195 235.709 96.5195 236.334ZM95.6348 241.613V233.639H96.5078V234.646C96.7148 234.26 96.9883 233.963 97.3281 233.756C97.668 233.549 98.0469 233.445 98.4648 233.445C99.2383 233.445 99.8594 233.709 100.328 234.236C100.797 234.764 101.031 235.463 101.031 236.334C101.031 237.221 100.801 237.926 100.34 238.449C99.8828 238.969 99.2695 239.229 98.5 239.229C98.0586 239.229 97.6738 239.129 97.3457 238.93C97.0176 238.727 96.75 238.426 96.543 238.027V241.613H95.6348ZM106.305 235.713C106.273 235.24 106.115 234.877 105.83 234.623C105.549 234.365 105.162 234.236 104.67 234.236C104.225 234.236 103.854 234.371 103.557 234.641C103.26 234.906 103.088 235.264 103.041 235.713H106.305ZM107.289 236.457H103.041V236.539C103.041 237.113 103.205 237.578 103.533 237.934C103.861 238.285 104.289 238.461 104.816 238.461C105.176 238.461 105.5 238.365 105.789 238.174C106.078 237.979 106.334 237.686 106.557 237.295L107.254 237.764C106.984 238.248 106.641 238.613 106.223 238.859C105.805 239.105 105.32 239.229 104.77 239.229C103.953 239.229 103.293 238.959 102.789 238.42C102.285 237.881 102.033 237.174 102.033 236.299C102.033 235.459 102.283 234.771 102.783 234.236C103.283 233.701 103.926 233.434 104.711 233.434C105.504 233.434 106.131 233.688 106.592 234.195C107.057 234.703 107.289 235.396 107.289 236.275V236.457ZM109.539 233.639V236.275C109.539 237.045 109.652 237.584 109.879 237.893C110.109 238.197 110.496 238.35 111.039 238.35C111.582 238.35 111.965 238.199 112.188 237.898C112.414 237.594 112.527 237.053 112.527 236.275V233.639H113.465V236.768C113.465 237.576 113.258 238.189 112.844 238.607C112.43 239.021 111.82 239.229 111.016 239.229C110.219 239.229 109.613 239.02 109.199 238.602C108.785 238.184 108.578 237.572 108.578 236.768V233.639H109.539ZM115.381 234.395H114.396V233.639H115.381V231.477H116.318V233.639H117.303V234.395H116.318V239H115.381V234.395ZM117.965 235.865H120.701V236.791H117.965V235.865ZM126.273 235.713C126.242 235.24 126.084 234.877 125.799 234.623C125.518 234.365 125.131 234.236 124.639 234.236C124.193 234.236 123.822 234.371 123.525 234.641C123.229 234.906 123.057 235.264 123.01 235.713H126.273ZM127.258 236.457H123.01V236.539C123.01 237.113 123.174 237.578 123.502 237.934C123.83 238.285 124.258 238.461 124.785 238.461C125.145 238.461 125.469 238.365 125.758 238.174C126.047 237.979 126.303 237.686 126.525 237.295L127.223 237.764C126.953 238.248 126.609 238.613 126.191 238.859C125.773 239.105 125.289 239.229 124.738 239.229C123.922 239.229 123.262 238.959 122.758 238.42C122.254 237.881 122.002 237.174 122.002 236.299C122.002 235.459 122.252 234.771 122.752 234.236C123.252 233.701 123.895 233.434 124.68 233.434C125.473 233.434 126.1 233.688 126.561 234.195C127.025 234.703 127.258 235.396 127.258 236.275V236.457ZM122.887 232.795L124.041 230.756H125.189L126.344 232.795H125.623L124.615 231.453L123.596 232.795H122.887ZM128.787 234.395H127.803V233.639H128.787V231.477H129.725V233.639H130.709V234.395H129.725V239H128.787V234.395ZM131.764 239V233.639H132.578V234.752C132.824 234.287 133.086 233.955 133.363 233.756C133.641 233.557 133.979 233.457 134.377 233.457C134.486 233.457 134.592 233.467 134.693 233.486C134.795 233.502 134.896 233.527 134.998 233.562L134.693 234.389C134.588 234.354 134.488 234.328 134.395 234.312C134.301 234.293 134.211 234.283 134.125 234.283C133.641 234.283 133.277 234.459 133.035 234.811C132.793 235.158 132.672 235.684 132.672 236.387V239H131.764ZM139.773 235.713C139.742 235.24 139.584 234.877 139.299 234.623C139.018 234.365 138.631 234.236 138.139 234.236C137.693 234.236 137.322 234.371 137.025 234.641C136.729 234.906 136.557 235.264 136.51 235.713H139.773ZM140.758 236.457H136.51V236.539C136.51 237.113 136.674 237.578 137.002 237.934C137.33 238.285 137.758 238.461 138.285 238.461C138.645 238.461 138.969 238.365 139.258 238.174C139.547 237.979 139.803 237.686 140.025 237.295L140.723 237.764C140.453 238.248 140.109 238.613 139.691 238.859C139.273 239.105 138.789 239.229 138.238 239.229C137.422 239.229 136.762 238.959 136.258 238.42C135.754 237.881 135.502 237.174 135.502 236.299C135.502 235.459 135.752 234.771 136.252 234.236C136.752 233.701 137.395 233.434 138.18 233.434C138.973 233.434 139.6 233.688 140.061 234.195C140.525 234.703 140.758 235.396 140.758 236.275V236.457ZM146.547 233.639V236.275C146.547 237.045 146.66 237.584 146.887 237.893C147.117 238.197 147.504 238.35 148.047 238.35C148.59 238.35 148.973 238.199 149.195 237.898C149.422 237.594 149.535 237.053 149.535 236.275V233.639H150.473V236.768C150.473 237.576 150.266 238.189 149.852 238.607C149.438 239.021 148.828 239.229 148.023 239.229C147.227 239.229 146.621 239.02 146.207 238.602C145.793 238.184 145.586 237.572 145.586 236.768V233.639H146.547ZM152.389 234.395H151.404V233.639H152.389V231.477H153.326V233.639H154.311V234.395H153.326V239H152.389V234.395ZM155.184 231.055C155.184 230.871 155.248 230.715 155.377 230.586C155.51 230.453 155.67 230.387 155.857 230.387C156.041 230.387 156.197 230.453 156.326 230.586C156.459 230.719 156.525 230.879 156.525 231.066C156.525 231.25 156.461 231.406 156.332 231.535C156.203 231.664 156.045 231.729 155.857 231.729C155.67 231.729 155.51 231.664 155.377 231.535C155.248 231.406 155.184 231.246 155.184 231.055ZM155.4 239V233.639H156.326V239H155.4ZM158.307 239V229.918H159.244V239H158.307ZM160.996 231.055C160.996 230.871 161.061 230.715 161.189 230.586C161.322 230.453 161.482 230.387 161.67 230.387C161.854 230.387 162.01 230.453 162.139 230.586C162.271 230.719 162.338 230.879 162.338 231.066C162.338 231.25 162.273 231.406 162.145 231.535C162.016 231.664 161.857 231.729 161.67 231.729C161.482 231.729 161.322 231.664 161.189 231.535C161.061 231.406 160.996 231.246 160.996 231.055ZM161.213 239V233.639H162.139V239H161.213ZM163.504 238.098L164.289 237.57C164.438 237.855 164.625 238.07 164.852 238.215C165.078 238.355 165.346 238.426 165.654 238.426C165.955 238.426 166.197 238.352 166.381 238.203C166.568 238.055 166.662 237.859 166.662 237.617C166.662 237.43 166.598 237.273 166.469 237.148C166.344 237.023 166.127 236.908 165.818 236.803C165.787 236.791 165.736 236.773 165.666 236.75C164.361 236.301 163.709 235.738 163.709 235.062C163.709 234.586 163.885 234.197 164.236 233.896C164.588 233.596 165.045 233.445 165.607 233.445C166.072 233.445 166.471 233.539 166.803 233.727C167.135 233.91 167.373 234.172 167.518 234.512L166.773 234.969C166.664 234.723 166.502 234.533 166.287 234.4C166.076 234.268 165.83 234.201 165.549 234.201C165.279 234.201 165.059 234.277 164.887 234.43C164.719 234.578 164.635 234.77 164.635 235.004C164.635 235.332 164.99 235.607 165.701 235.83C165.834 235.873 165.939 235.906 166.018 235.93C166.6 236.117 167.004 236.332 167.23 236.574C167.461 236.812 167.576 237.129 167.576 237.523C167.576 238.031 167.395 238.443 167.031 238.76C166.672 239.072 166.201 239.229 165.619 239.229C165.119 239.229 164.693 239.135 164.342 238.947C163.994 238.76 163.715 238.477 163.504 238.098ZM172.762 235.713C172.73 235.24 172.572 234.877 172.287 234.623C172.006 234.365 171.619 234.236 171.127 234.236C170.682 234.236 170.311 234.371 170.014 234.641C169.717 234.906 169.545 235.264 169.498 235.713H172.762ZM173.746 236.457H169.498V236.539C169.498 237.113 169.662 237.578 169.99 237.934C170.318 238.285 170.746 238.461 171.273 238.461C171.633 238.461 171.957 238.365 172.246 238.174C172.535 237.979 172.791 237.686 173.014 237.295L173.711 237.764C173.441 238.248 173.098 238.613 172.68 238.859C172.262 239.105 171.777 239.229 171.227 239.229C170.41 239.229 169.75 238.959 169.246 238.42C168.742 237.881 168.49 237.174 168.49 236.299C168.49 235.459 168.74 234.771 169.24 234.236C169.74 233.701 170.383 233.434 171.168 233.434C171.961 233.434 172.588 233.688 173.049 234.195C173.514 234.703 173.746 235.396 173.746 236.275V236.457ZM170.266 232.795L171.461 230.756H172.639L170.969 232.795H170.266ZM178.938 235.713C178.906 235.24 178.748 234.877 178.463 234.623C178.182 234.365 177.795 234.236 177.303 234.236C176.857 234.236 176.486 234.371 176.189 234.641C175.893 234.906 175.721 235.264 175.674 235.713H178.938ZM179.922 236.457H175.674V236.539C175.674 237.113 175.838 237.578 176.166 237.934C176.494 238.285 176.922 238.461 177.449 238.461C177.809 238.461 178.133 238.365 178.422 238.174C178.711 237.979 178.967 237.686 179.189 237.295L179.887 237.764C179.617 238.248 179.273 238.613 178.855 238.859C178.438 239.105 177.953 239.229 177.402 239.229C176.586 239.229 175.926 238.959 175.422 238.42C174.918 237.881 174.666 237.174 174.666 236.299C174.666 235.459 174.916 234.771 175.416 234.236C175.916 233.701 176.559 233.434 177.344 233.434C178.137 233.434 178.764 233.688 179.225 234.195C179.689 234.703 179.922 235.396 179.922 236.275V236.457ZM49.8672 250.369C49.8672 249.764 49.7012 249.277 49.3691 248.91C49.041 248.539 48.6113 248.354 48.0801 248.354C47.5293 248.354 47.0996 248.523 46.791 248.863C46.4824 249.203 46.3281 249.678 46.3281 250.287C46.3281 250.936 46.4824 251.436 46.791 251.787C47.1035 252.139 47.5449 252.314 48.1152 252.314C48.6621 252.314 49.0898 252.145 49.3984 251.805C49.7109 251.461 49.8672 250.982 49.8672 250.369ZM50.7578 247.639V253H49.8672V252.027C49.6523 252.418 49.377 252.717 49.041 252.924C48.709 253.127 48.3359 253.229 47.9219 253.229C47.1523 253.229 46.5312 252.965 46.0586 252.438C45.5898 251.906 45.3555 251.205 45.3555 250.334C45.3555 249.451 45.584 248.75 46.041 248.23C46.498 247.707 47.1094 247.445 47.875 247.445C48.3242 247.445 48.7129 247.547 49.041 247.75C49.373 247.949 49.6406 248.248 49.8438 248.646V247.639H50.7578ZM49.0879 246.795H48.3848L46.7148 244.756H47.8926L49.0879 246.795ZM56.1836 253V243.918H57.1211V253H56.1836ZM63.1445 250.369C63.1445 249.764 62.9785 249.277 62.6465 248.91C62.3184 248.539 61.8887 248.354 61.3574 248.354C60.8066 248.354 60.377 248.523 60.0684 248.863C59.7598 249.203 59.6055 249.678 59.6055 250.287C59.6055 250.936 59.7598 251.436 60.0684 251.787C60.3809 252.139 60.8223 252.314 61.3926 252.314C61.9395 252.314 62.3672 252.145 62.6758 251.805C62.9883 251.461 63.1445 250.982 63.1445 250.369ZM64.0352 247.639V253H63.1445V252.027C62.9297 252.418 62.6543 252.717 62.3184 252.924C61.9863 253.127 61.6133 253.229 61.1992 253.229C60.4297 253.229 59.8086 252.965 59.3359 252.438C58.8672 251.906 58.6328 251.205 58.6328 250.334C58.6328 249.451 58.8613 248.75 59.3184 248.23C59.7754 247.707 60.3867 247.445 61.1523 247.445C61.6016 247.445 61.9902 247.547 62.3184 247.75C62.6504 247.949 62.918 248.248 63.1211 248.646V247.639H64.0352ZM70.2988 250.334C70.2988 250.936 70.4648 251.418 70.7969 251.781C71.1289 252.145 71.5684 252.326 72.1152 252.326C72.6504 252.326 73.0703 252.16 73.375 251.828C73.6836 251.496 73.8379 251.035 73.8379 250.445C73.8379 249.785 73.6836 249.268 73.375 248.893C73.0703 248.518 72.6445 248.33 72.0977 248.33C71.5391 248.33 71.0996 248.508 70.7793 248.863C70.459 249.219 70.2988 249.709 70.2988 250.334ZM69.4141 255.613V247.639H70.2871V248.646C70.4941 248.26 70.7676 247.963 71.1074 247.756C71.4473 247.549 71.8262 247.445 72.2441 247.445C73.0176 247.445 73.6387 247.709 74.1074 248.236C74.5762 248.764 74.8105 249.463 74.8105 250.334C74.8105 251.221 74.5801 251.926 74.1191 252.449C73.6621 252.969 73.0488 253.229 72.2793 253.229C71.8379 253.229 71.4531 253.129 71.125 252.93C70.7969 252.727 70.5293 252.426 70.3223 252.027V255.613H69.4141ZM76.3281 253V243.918H77.2656V253H76.3281ZM83.2891 250.369C83.2891 249.764 83.123 249.277 82.791 248.91C82.4629 248.539 82.0332 248.354 81.502 248.354C80.9512 248.354 80.5215 248.523 80.2129 248.863C79.9043 249.203 79.75 249.678 79.75 250.287C79.75 250.936 79.9043 251.436 80.2129 251.787C80.5254 252.139 80.9668 252.314 81.5371 252.314C82.084 252.314 82.5117 252.145 82.8203 251.805C83.1328 251.461 83.2891 250.982 83.2891 250.369ZM84.1797 247.639V253H83.2891V252.027C83.0742 252.418 82.7988 252.717 82.4629 252.924C82.1309 253.127 81.7578 253.229 81.3438 253.229C80.5742 253.229 79.9531 252.965 79.4805 252.438C79.0117 251.906 78.7773 251.205 78.7773 250.334C78.7773 249.451 79.0059 248.75 79.4629 248.23C79.9199 247.707 80.5312 247.445 81.2969 247.445C81.7461 247.445 82.1348 247.547 82.4629 247.75C82.7949 247.949 83.0625 248.248 83.2656 248.646V247.639H84.1797ZM90.1328 251.729V252.795C89.8906 252.939 89.6172 253.047 89.3125 253.117C89.0117 253.191 88.6855 253.229 88.334 253.229C87.5059 253.229 86.8379 252.967 86.3301 252.443C85.8262 251.916 85.5742 251.225 85.5742 250.369C85.5742 249.51 85.8359 248.809 86.3594 248.266C86.8828 247.719 87.5527 247.445 88.3691 247.445C88.666 247.445 88.9551 247.477 89.2363 247.539C89.5215 247.602 89.7891 247.693 90.0391 247.814V248.799C89.8047 248.646 89.5625 248.531 89.3125 248.453C89.0625 248.371 88.8086 248.33 88.5508 248.33C87.9492 248.33 87.4668 248.52 87.1035 248.898C86.7402 249.273 86.5586 249.773 86.5586 250.398C86.5586 250.949 86.7402 251.41 87.1035 251.781C87.4707 252.152 87.9297 252.338 88.4805 252.338C88.7578 252.338 89.0293 252.289 89.2949 252.191C89.5605 252.094 89.8398 251.939 90.1328 251.729ZM95.2129 249.713C95.1816 249.24 95.0234 248.877 94.7383 248.623C94.457 248.365 94.0703 248.236 93.5781 248.236C93.1328 248.236 92.7617 248.371 92.4648 248.641C92.168 248.906 91.9961 249.264 91.9492 249.713H95.2129ZM96.1973 250.457H91.9492V250.539C91.9492 251.113 92.1133 251.578 92.4414 251.934C92.7695 252.285 93.1973 252.461 93.7246 252.461C94.084 252.461 94.4082 252.365 94.6973 252.174C94.9863 251.979 95.2422 251.686 95.4648 251.295L96.1621 251.764C95.8926 252.248 95.5488 252.613 95.1309 252.859C94.7129 253.105 94.2285 253.229 93.6777 253.229C92.8613 253.229 92.2012 252.959 91.6973 252.42C91.1934 251.881 90.9414 251.174 90.9414 250.299C90.9414 249.459 91.1914 248.771 91.6914 248.236C92.1914 247.701 92.834 247.434 93.6191 247.434C94.4121 247.434 95.0391 247.688 95.5 248.195C95.9648 248.703 96.1973 249.396 96.1973 250.275V250.457ZM105.227 250.346C105.227 249.748 105.061 249.268 104.729 248.904C104.396 248.537 103.959 248.354 103.416 248.354C102.873 248.354 102.449 248.52 102.145 248.852C101.84 249.184 101.688 249.643 101.688 250.229C101.688 250.889 101.842 251.406 102.15 251.781C102.459 252.152 102.885 252.338 103.428 252.338C103.99 252.338 104.43 252.162 104.746 251.811C105.066 251.459 105.227 250.971 105.227 250.346ZM106.117 243.918V253H105.227V252.027C105.016 252.414 104.742 252.711 104.406 252.918C104.07 253.125 103.695 253.229 103.281 253.229C102.512 253.229 101.891 252.965 101.418 252.438C100.949 251.906 100.715 251.205 100.715 250.334C100.715 249.455 100.945 248.754 101.406 248.23C101.867 247.707 102.48 247.445 103.246 247.445C103.691 247.445 104.078 247.547 104.406 247.75C104.734 247.949 105 248.248 105.203 248.646V243.918H106.117ZM111.795 249.713C111.764 249.24 111.605 248.877 111.32 248.623C111.039 248.365 110.652 248.236 110.16 248.236C109.715 248.236 109.344 248.371 109.047 248.641C108.75 248.906 108.578 249.264 108.531 249.713H111.795ZM112.779 250.457H108.531V250.539C108.531 251.113 108.695 251.578 109.023 251.934C109.352 252.285 109.779 252.461 110.307 252.461C110.666 252.461 110.99 252.365 111.279 252.174C111.568 251.979 111.824 251.686 112.047 251.295L112.744 251.764C112.475 252.248 112.131 252.613 111.713 252.859C111.295 253.105 110.811 253.229 110.26 253.229C109.443 253.229 108.783 252.959 108.279 252.42C107.775 251.881 107.523 251.174 107.523 250.299C107.523 249.459 107.773 248.771 108.273 248.236C108.773 247.701 109.416 247.434 110.201 247.434C110.994 247.434 111.621 247.688 112.082 248.195C112.547 248.703 112.779 249.396 112.779 250.275V250.457ZM117.707 253V247.639H118.604V248.465C118.834 248.121 119.111 247.865 119.436 247.697C119.76 247.529 120.135 247.445 120.561 247.445C121.193 247.445 121.688 247.613 122.043 247.949C122.398 248.285 122.576 248.752 122.576 249.35V253H121.639V249.842C121.639 249.299 121.523 248.896 121.293 248.635C121.066 248.369 120.715 248.236 120.238 248.236C119.965 248.236 119.715 248.287 119.488 248.389C119.266 248.486 119.08 248.627 118.932 248.811C118.818 248.951 118.736 249.111 118.686 249.291C118.639 249.471 118.615 249.783 118.615 250.229V253H117.707ZM123.514 247.41L124.627 244.229L125.623 244.574L124.188 247.686L123.514 247.41ZM127.111 245.055C127.111 244.871 127.176 244.715 127.305 244.586C127.438 244.453 127.598 244.387 127.785 244.387C127.969 244.387 128.125 244.453 128.254 244.586C128.387 244.719 128.453 244.879 128.453 245.066C128.453 245.25 128.389 245.406 128.26 245.535C128.131 245.664 127.973 245.729 127.785 245.729C127.598 245.729 127.438 245.664 127.305 245.535C127.176 245.406 127.111 245.246 127.111 245.055ZM127.328 253V247.639H128.254V253H127.328ZM137.652 253V249.842C137.652 249.299 137.543 248.896 137.324 248.635C137.105 248.369 136.77 248.236 136.316 248.236C136.07 248.236 135.842 248.287 135.631 248.389C135.424 248.486 135.248 248.627 135.104 248.811C134.998 248.951 134.922 249.115 134.875 249.303C134.828 249.49 134.805 249.799 134.805 250.229V253H133.92V249.842C133.92 249.299 133.811 248.896 133.592 248.635C133.373 248.369 133.037 248.236 132.584 248.236C132.338 248.236 132.107 248.287 131.893 248.389C131.682 248.486 131.504 248.627 131.359 248.811C131.258 248.947 131.184 249.105 131.137 249.285C131.094 249.465 131.072 249.779 131.072 250.229V253H130.188V247.639H131.084V248.465C131.307 248.121 131.572 247.865 131.881 247.697C132.189 247.529 132.545 247.445 132.947 247.445C133.381 247.445 133.75 247.539 134.055 247.727C134.359 247.91 134.59 248.18 134.746 248.535C134.977 248.168 135.248 247.895 135.561 247.715C135.877 247.535 136.242 247.445 136.656 247.445C137.254 247.445 137.721 247.613 138.057 247.949C138.393 248.285 138.561 248.752 138.561 249.35V253H137.652ZM141.256 250.334C141.256 250.936 141.422 251.418 141.754 251.781C142.086 252.145 142.525 252.326 143.072 252.326C143.607 252.326 144.027 252.16 144.332 251.828C144.641 251.496 144.795 251.035 144.795 250.445C144.795 249.785 144.641 249.268 144.332 248.893C144.027 248.518 143.602 248.33 143.055 248.33C142.496 248.33 142.057 248.508 141.736 248.863C141.416 249.219 141.256 249.709 141.256 250.334ZM140.371 255.613V247.639H141.244V248.646C141.451 248.26 141.725 247.963 142.064 247.756C142.404 247.549 142.783 247.445 143.201 247.445C143.975 247.445 144.596 247.709 145.064 248.236C145.533 248.764 145.768 249.463 145.768 250.334C145.768 251.221 145.537 251.926 145.076 252.449C144.619 252.969 144.006 253.229 143.236 253.229C142.795 253.229 142.41 253.129 142.082 252.93C141.754 252.727 141.486 252.426 141.279 252.027V255.613H140.371ZM147.777 250.334C147.777 250.9 147.967 251.381 148.346 251.775C148.725 252.166 149.184 252.361 149.723 252.361C150.258 252.361 150.713 252.166 151.088 251.775C151.463 251.381 151.65 250.9 151.65 250.334C151.65 249.768 151.463 249.289 151.088 248.898C150.713 248.504 150.258 248.307 149.723 248.307C149.18 248.307 148.719 248.504 148.34 248.898C147.965 249.289 147.777 249.768 147.777 250.334ZM146.805 250.334C146.805 249.939 146.877 249.568 147.021 249.221C147.166 248.869 147.377 248.557 147.654 248.283C147.932 248.01 148.246 247.803 148.598 247.662C148.949 247.518 149.324 247.445 149.723 247.445C150.113 247.445 150.482 247.518 150.83 247.662C151.182 247.807 151.5 248.018 151.785 248.295C152.062 248.564 152.273 248.875 152.418 249.227C152.562 249.574 152.635 249.943 152.635 250.334C152.635 250.725 152.562 251.094 152.418 251.441C152.273 251.785 152.062 252.092 151.785 252.361C151.5 252.643 151.18 252.857 150.824 253.006C150.473 253.154 150.105 253.229 149.723 253.229C149.328 253.229 148.953 253.154 148.598 253.006C148.246 252.861 147.932 252.652 147.654 252.379C147.377 252.098 147.166 251.785 147.021 251.441C146.877 251.098 146.805 250.729 146.805 250.334ZM154.082 253V247.639H154.896V248.752C155.143 248.287 155.404 247.955 155.682 247.756C155.959 247.557 156.297 247.457 156.695 247.457C156.805 247.457 156.91 247.467 157.012 247.486C157.113 247.502 157.215 247.527 157.316 247.562L157.012 248.389C156.906 248.354 156.807 248.328 156.713 248.312C156.619 248.293 156.529 248.283 156.443 248.283C155.959 248.283 155.596 248.459 155.354 248.811C155.111 249.158 154.99 249.684 154.99 250.387V253H154.082ZM158.43 248.395H157.445V247.639H158.43V245.477H159.367V247.639H160.352V248.395H159.367V253H158.43V248.395ZM165.197 249.713C165.166 249.24 165.008 248.877 164.723 248.623C164.441 248.365 164.055 248.236 163.562 248.236C163.117 248.236 162.746 248.371 162.449 248.641C162.152 248.906 161.98 249.264 161.934 249.713H165.197ZM166.182 250.457H161.934V250.539C161.934 251.113 162.098 251.578 162.426 251.934C162.754 252.285 163.182 252.461 163.709 252.461C164.068 252.461 164.393 252.365 164.682 252.174C164.971 251.979 165.227 251.686 165.449 251.295L166.146 251.764C165.877 252.248 165.533 252.613 165.115 252.859C164.697 253.105 164.213 253.229 163.662 253.229C162.846 253.229 162.186 252.959 161.682 252.42C161.178 251.881 160.926 251.174 160.926 250.299C160.926 249.459 161.176 248.771 161.676 248.236C162.176 247.701 162.818 247.434 163.604 247.434C164.396 247.434 165.023 247.688 165.484 248.195C165.949 248.703 166.182 249.396 166.182 250.275V250.457ZM36.0801 264.334C36.0801 263.709 35.9199 263.219 35.5996 262.863C35.2832 262.508 34.8438 262.33 34.2812 262.33C33.7383 262.33 33.3105 262.518 32.998 262.893C32.6855 263.268 32.5293 263.785 32.5293 264.445C32.5293 265.035 32.6816 265.496 32.9863 265.828C33.2949 266.16 33.7188 266.326 34.2578 266.326C34.8047 266.326 35.2441 266.145 35.5762 265.781C35.9121 265.418 36.0801 264.936 36.0801 264.334ZM36.9707 269.613H36.0566V266.027C35.8535 266.426 35.5879 266.727 35.2598 266.93C34.9316 267.129 34.5449 267.229 34.0996 267.229C33.3301 267.229 32.7148 266.969 32.2539 266.449C31.7969 265.926 31.5684 265.221 31.5684 264.334C31.5684 263.463 31.8027 262.764 32.2715 262.236C32.7402 261.709 33.3613 261.445 34.1348 261.445C34.5527 261.445 34.9297 261.549 35.2656 261.756C35.6016 261.963 35.873 262.26 36.0801 262.646V261.639H36.9707V269.613ZM39.707 261.639V264.275C39.707 265.045 39.8203 265.584 40.0469 265.893C40.2773 266.197 40.6641 266.35 41.207 266.35C41.75 266.35 42.1328 266.199 42.3555 265.898C42.582 265.594 42.6953 265.053 42.6953 264.275V261.639H43.6328V264.768C43.6328 265.576 43.4258 266.189 43.0117 266.607C42.5977 267.021 41.9883 267.229 41.1836 267.229C40.3867 267.229 39.7812 267.02 39.3672 266.602C38.9531 266.184 38.7461 265.572 38.7461 264.768V261.639H39.707ZM49.2109 263.713C49.1797 263.24 49.0215 262.877 48.7363 262.623C48.4551 262.365 48.0684 262.236 47.5762 262.236C47.1309 262.236 46.7598 262.371 46.4629 262.641C46.166 262.906 45.9941 263.264 45.9473 263.713H49.2109ZM50.1953 264.457H45.9473V264.539C45.9473 265.113 46.1113 265.578 46.4395 265.934C46.7676 266.285 47.1953 266.461 47.7227 266.461C48.082 266.461 48.4062 266.365 48.6953 266.174C48.9844 265.979 49.2402 265.686 49.4629 265.295L50.1602 265.764C49.8906 266.248 49.5469 266.613 49.1289 266.859C48.7109 267.105 48.2266 267.229 47.6758 267.229C46.8594 267.229 46.1992 266.959 45.6953 266.42C45.1914 265.881 44.9395 265.174 44.9395 264.299C44.9395 263.459 45.1895 262.771 45.6895 262.236C46.1895 261.701 46.832 261.434 47.6172 261.434C48.4102 261.434 49.0371 261.688 49.498 262.195C49.9629 262.703 50.1953 263.396 50.1953 264.275V264.457ZM51.6309 267V257.918H52.5684V267H51.6309ZM54.5371 267V257.918H55.4746V267H54.5371ZM61.1992 263.713C61.168 263.24 61.0098 262.877 60.7246 262.623C60.4434 262.365 60.0566 262.236 59.5645 262.236C59.1191 262.236 58.748 262.371 58.4512 262.641C58.1543 262.906 57.9824 263.264 57.9355 263.713H61.1992ZM62.1836 264.457H57.9355V264.539C57.9355 265.113 58.0996 265.578 58.4277 265.934C58.7559 266.285 59.1836 266.461 59.7109 266.461C60.0703 266.461 60.3945 266.365 60.6836 266.174C60.9727 265.979 61.2285 265.686 61.4512 265.295L62.1484 265.764C61.8789 266.248 61.5352 266.613 61.1172 266.859C60.6992 267.105 60.2148 267.229 59.6641 267.229C58.8477 267.229 58.1875 266.959 57.6836 266.42C57.1797 265.881 56.9277 265.174 56.9277 264.299C56.9277 263.459 57.1777 262.771 57.6777 262.236C58.1777 261.701 58.8203 261.434 59.6055 261.434C60.3984 261.434 61.0254 261.688 61.4863 262.195C61.9512 262.703 62.1836 263.396 62.1836 264.275V264.457ZM67.9961 264.334C67.9961 264.936 68.1621 265.418 68.4941 265.781C68.8262 266.145 69.2656 266.326 69.8125 266.326C70.3477 266.326 70.7676 266.16 71.0723 265.828C71.3809 265.496 71.5352 265.035 71.5352 264.445C71.5352 263.785 71.3809 263.268 71.0723 262.893C70.7676 262.518 70.3418 262.33 69.7949 262.33C69.2363 262.33 68.7969 262.508 68.4766 262.863C68.1562 263.219 67.9961 263.709 67.9961 264.334ZM67.1113 269.613V261.639H67.9844V262.646C68.1914 262.26 68.4648 261.963 68.8047 261.756C69.1445 261.549 69.5234 261.445 69.9414 261.445C70.7148 261.445 71.3359 261.709 71.8047 262.236C72.2734 262.764 72.5078 263.463 72.5078 264.334C72.5078 265.221 72.2773 265.926 71.8164 266.449C71.3594 266.969 70.7461 267.229 69.9766 267.229C69.5352 267.229 69.1504 267.129 68.8223 266.93C68.4941 266.727 68.2266 266.426 68.0195 266.027V269.613H67.1113ZM73.9902 267V261.639H74.8047V262.752C75.0508 262.287 75.3125 261.955 75.5898 261.756C75.8672 261.557 76.2051 261.457 76.6035 261.457C76.7129 261.457 76.8184 261.467 76.9199 261.486C77.0215 261.502 77.123 261.527 77.2246 261.562L76.9199 262.389C76.8145 262.354 76.7148 262.328 76.6211 262.312C76.5273 262.293 76.4375 262.283 76.3516 262.283C75.8672 262.283 75.5039 262.459 75.2617 262.811C75.0195 263.158 74.8984 263.684 74.8984 264.387V267H73.9902ZM78.7363 264.334C78.7363 264.9 78.9258 265.381 79.3047 265.775C79.6836 266.166 80.1426 266.361 80.6816 266.361C81.2168 266.361 81.6719 266.166 82.0469 265.775C82.4219 265.381 82.6094 264.9 82.6094 264.334C82.6094 263.768 82.4219 263.289 82.0469 262.898C81.6719 262.504 81.2168 262.307 80.6816 262.307C80.1387 262.307 79.6777 262.504 79.2988 262.898C78.9238 263.289 78.7363 263.768 78.7363 264.334ZM77.7637 264.334C77.7637 263.939 77.8359 263.568 77.9805 263.221C78.125 262.869 78.3359 262.557 78.6133 262.283C78.8906 262.01 79.2051 261.803 79.5566 261.662C79.9082 261.518 80.2832 261.445 80.6816 261.445C81.0723 261.445 81.4414 261.518 81.7891 261.662C82.1406 261.807 82.459 262.018 82.7441 262.295C83.0215 262.564 83.2324 262.875 83.377 263.227C83.5215 263.574 83.5938 263.943 83.5938 264.334C83.5938 264.725 83.5215 265.094 83.377 265.441C83.2324 265.785 83.0215 266.092 82.7441 266.361C82.459 266.643 82.1387 266.857 81.7832 267.006C81.4316 267.154 81.0645 267.229 80.6816 267.229C80.2871 267.229 79.9121 267.154 79.5566 267.006C79.2051 266.861 78.8906 266.652 78.6133 266.379C78.3359 266.098 78.125 265.785 77.9805 265.441C77.8359 265.098 77.7637 264.729 77.7637 264.334ZM85.9141 264.334C85.9141 264.936 86.0801 265.418 86.4121 265.781C86.7441 266.145 87.1836 266.326 87.7305 266.326C88.2656 266.326 88.6855 266.16 88.9902 265.828C89.2988 265.496 89.4531 265.035 89.4531 264.445C89.4531 263.785 89.2988 263.268 88.9902 262.893C88.6855 262.518 88.2598 262.33 87.7129 262.33C87.1543 262.33 86.7148 262.508 86.3945 262.863C86.0742 263.219 85.9141 263.709 85.9141 264.334ZM85.0293 269.613V261.639H85.9023V262.646C86.1094 262.26 86.3828 261.963 86.7227 261.756C87.0625 261.549 87.4414 261.445 87.8594 261.445C88.6328 261.445 89.2539 261.709 89.7227 262.236C90.1914 262.764 90.4258 263.463 90.4258 264.334C90.4258 265.221 90.1953 265.926 89.7344 266.449C89.2773 266.969 88.6641 267.229 87.8945 267.229C87.4531 267.229 87.0684 267.129 86.7402 266.93C86.4121 266.727 86.1445 266.426 85.9375 266.027V269.613H85.0293ZM91.9082 267V261.639H92.7227V262.752C92.9688 262.287 93.2305 261.955 93.5078 261.756C93.7852 261.557 94.123 261.457 94.5215 261.457C94.6309 261.457 94.7363 261.467 94.8379 261.486C94.9395 261.502 95.041 261.527 95.1426 261.562L94.8379 262.389C94.7324 262.354 94.6328 262.328 94.5391 262.312C94.4453 262.293 94.3555 262.283 94.2695 262.283C93.7852 262.283 93.4219 262.459 93.1797 262.811C92.9375 263.158 92.8164 263.684 92.8164 264.387V267H91.9082ZM95.9453 259.055C95.9453 258.871 96.0098 258.715 96.1387 258.586C96.2715 258.453 96.4316 258.387 96.6191 258.387C96.8027 258.387 96.959 258.453 97.0879 258.586C97.2207 258.719 97.2871 258.879 97.2871 259.066C97.2871 259.25 97.2227 259.406 97.0938 259.535C96.9648 259.664 96.8066 259.729 96.6191 259.729C96.4316 259.729 96.2715 259.664 96.1387 259.535C96.0098 259.406 95.9453 259.246 95.9453 259.055ZM96.1621 267V261.639H97.0879V267H96.1621ZM102.824 263.713C102.793 263.24 102.635 262.877 102.35 262.623C102.068 262.365 101.682 262.236 101.189 262.236C100.744 262.236 100.373 262.371 100.076 262.641C99.7793 262.906 99.6074 263.264 99.5605 263.713H102.824ZM103.809 264.457H99.5605V264.539C99.5605 265.113 99.7246 265.578 100.053 265.934C100.381 266.285 100.809 266.461 101.336 266.461C101.695 266.461 102.02 266.365 102.309 266.174C102.598 265.979 102.854 265.686 103.076 265.295L103.773 265.764C103.504 266.248 103.16 266.613 102.742 266.859C102.324 267.105 101.84 267.229 101.289 267.229C100.473 267.229 99.8125 266.959 99.3086 266.42C98.8047 265.881 98.5527 265.174 98.5527 264.299C98.5527 263.459 98.8027 262.771 99.3027 262.236C99.8027 261.701 100.445 261.434 101.23 261.434C102.023 261.434 102.65 261.688 103.111 262.195C103.576 262.703 103.809 263.396 103.809 264.275V264.457ZM100.328 260.795L101.523 258.756H102.701L101.031 260.795H100.328ZM105.338 262.395H104.354V261.639H105.338V259.477H106.275V261.639H107.26V262.395H106.275V267H105.338V262.395ZM112.105 263.713C112.074 263.24 111.916 262.877 111.631 262.623C111.35 262.365 110.963 262.236 110.471 262.236C110.025 262.236 109.654 262.371 109.357 262.641C109.061 262.906 108.889 263.264 108.842 263.713H112.105ZM113.09 264.457H108.842V264.539C108.842 265.113 109.006 265.578 109.334 265.934C109.662 266.285 110.09 266.461 110.617 266.461C110.977 266.461 111.301 266.365 111.59 266.174C111.879 265.979 112.135 265.686 112.357 265.295L113.055 265.764C112.785 266.248 112.441 266.613 112.023 266.859C111.605 267.105 111.121 267.229 110.57 267.229C109.754 267.229 109.094 266.959 108.59 266.42C108.086 265.881 107.834 265.174 107.834 264.299C107.834 263.459 108.084 262.771 108.584 262.236C109.084 261.701 109.727 261.434 110.512 261.434C111.305 261.434 111.932 261.688 112.393 262.195C112.857 262.703 113.09 263.396 113.09 264.275V264.457ZM109.609 260.795L110.805 258.756H111.982L110.312 260.795H109.609ZM125.482 267V263.842C125.482 263.299 125.373 262.896 125.154 262.635C124.936 262.369 124.6 262.236 124.146 262.236C123.9 262.236 123.672 262.287 123.461 262.389C123.254 262.486 123.078 262.627 122.934 262.811C122.828 262.951 122.752 263.115 122.705 263.303C122.658 263.49 122.635 263.799 122.635 264.229V267H121.75V263.842C121.75 263.299 121.641 262.896 121.422 262.635C121.203 262.369 120.867 262.236 120.414 262.236C120.168 262.236 119.938 262.287 119.723 262.389C119.512 262.486 119.334 262.627 119.189 262.811C119.088 262.947 119.014 263.105 118.967 263.285C118.924 263.465 118.902 263.779 118.902 264.229V267H118.018V261.639H118.914V262.465C119.137 262.121 119.402 261.865 119.711 261.697C120.02 261.529 120.375 261.445 120.777 261.445C121.211 261.445 121.58 261.539 121.885 261.727C122.189 261.91 122.42 262.18 122.576 262.535C122.807 262.168 123.078 261.895 123.391 261.715C123.707 261.535 124.072 261.445 124.486 261.445C125.084 261.445 125.551 261.613 125.887 261.949C126.223 262.285 126.391 262.752 126.391 263.35V267H125.482ZM132.303 264.369C132.303 263.764 132.137 263.277 131.805 262.91C131.477 262.539 131.047 262.354 130.516 262.354C129.965 262.354 129.535 262.523 129.227 262.863C128.918 263.203 128.764 263.678 128.764 264.287C128.764 264.936 128.918 265.436 129.227 265.787C129.539 266.139 129.98 266.314 130.551 266.314C131.098 266.314 131.525 266.145 131.834 265.805C132.146 265.461 132.303 264.982 132.303 264.369ZM133.193 261.639V267H132.303V266.027C132.088 266.418 131.812 266.717 131.477 266.924C131.145 267.127 130.771 267.229 130.357 267.229C129.588 267.229 128.967 266.965 128.494 266.438C128.025 265.906 127.791 265.205 127.791 264.334C127.791 263.451 128.02 262.75 128.477 262.23C128.934 261.707 129.545 261.445 130.311 261.445C130.76 261.445 131.148 261.547 131.477 261.75C131.809 261.949 132.076 262.248 132.279 262.646V261.639H133.193ZM134.863 259.055C134.863 258.871 134.928 258.715 135.057 258.586C135.189 258.453 135.35 258.387 135.537 258.387C135.721 258.387 135.877 258.453 136.006 258.586C136.139 258.719 136.205 258.879 136.205 259.066C136.205 259.25 136.141 259.406 136.012 259.535C135.883 259.664 135.725 259.729 135.537 259.729C135.35 259.729 135.189 259.664 135.057 259.535C134.928 259.406 134.863 259.246 134.863 259.055ZM135.08 267V261.639H136.006V267H135.08ZM137.371 266.098L138.156 265.57C138.305 265.855 138.492 266.07 138.719 266.215C138.945 266.355 139.213 266.426 139.521 266.426C139.822 266.426 140.064 266.352 140.248 266.203C140.436 266.055 140.529 265.859 140.529 265.617C140.529 265.43 140.465 265.273 140.336 265.148C140.211 265.023 139.994 264.908 139.686 264.803C139.654 264.791 139.604 264.773 139.533 264.75C138.229 264.301 137.576 263.738 137.576 263.062C137.576 262.586 137.752 262.197 138.104 261.896C138.455 261.596 138.912 261.445 139.475 261.445C139.939 261.445 140.338 261.539 140.67 261.727C141.002 261.91 141.24 262.172 141.385 262.512L140.641 262.969C140.531 262.723 140.369 262.533 140.154 262.4C139.943 262.268 139.697 262.201 139.416 262.201C139.146 262.201 138.926 262.277 138.754 262.43C138.586 262.578 138.502 262.77 138.502 263.004C138.502 263.332 138.857 263.607 139.568 263.83C139.701 263.873 139.807 263.906 139.885 263.93C140.467 264.117 140.871 264.332 141.098 264.574C141.328 264.812 141.443 265.129 141.443 265.523C141.443 266.031 141.262 266.443 140.898 266.76C140.539 267.072 140.068 267.229 139.486 267.229C138.986 267.229 138.561 267.135 138.209 266.947C137.861 266.76 137.582 266.477 137.371 266.098ZM146.365 267V261.639H147.262V262.465C147.492 262.121 147.77 261.865 148.094 261.697C148.418 261.529 148.793 261.445 149.219 261.445C149.852 261.445 150.346 261.613 150.701 261.949C151.057 262.285 151.234 262.752 151.234 263.35V267H150.297V263.842C150.297 263.299 150.182 262.896 149.951 262.635C149.725 262.369 149.373 262.236 148.896 262.236C148.623 262.236 148.373 262.287 148.146 262.389C147.924 262.486 147.738 262.627 147.59 262.811C147.477 262.951 147.395 263.111 147.344 263.291C147.297 263.471 147.273 263.783 147.273 264.229V267H146.365ZM152.172 261.41L153.285 258.229L154.281 258.574L152.846 261.686L152.172 261.41ZM160.041 264.369C160.041 263.764 159.875 263.277 159.543 262.91C159.215 262.539 158.785 262.354 158.254 262.354C157.703 262.354 157.273 262.523 156.965 262.863C156.656 263.203 156.502 263.678 156.502 264.287C156.502 264.936 156.656 265.436 156.965 265.787C157.277 266.139 157.719 266.314 158.289 266.314C158.836 266.314 159.264 266.145 159.572 265.805C159.885 265.461 160.041 264.982 160.041 264.369ZM160.932 261.639V267H160.041V266.027C159.826 266.418 159.551 266.717 159.215 266.924C158.883 267.127 158.51 267.229 158.096 267.229C157.326 267.229 156.705 266.965 156.232 266.438C155.764 265.906 155.529 265.205 155.529 264.334C155.529 263.451 155.758 262.75 156.215 262.23C156.672 261.707 157.283 261.445 158.049 261.445C158.498 261.445 158.887 261.547 159.215 261.75C159.547 261.949 159.814 262.248 160.018 262.646V261.639H160.932ZM167.195 264.334C167.195 264.936 167.361 265.418 167.693 265.781C168.025 266.145 168.465 266.326 169.012 266.326C169.547 266.326 169.967 266.16 170.271 265.828C170.58 265.496 170.734 265.035 170.734 264.445C170.734 263.785 170.58 263.268 170.271 262.893C169.967 262.518 169.541 262.33 168.994 262.33C168.436 262.33 167.996 262.508 167.676 262.863C167.355 263.219 167.195 263.709 167.195 264.334ZM166.311 269.613V261.639H167.184V262.646C167.391 262.26 167.664 261.963 168.004 261.756C168.344 261.549 168.723 261.445 169.141 261.445C169.914 261.445 170.535 261.709 171.004 262.236C171.473 262.764 171.707 263.463 171.707 264.334C171.707 265.221 171.477 265.926 171.016 266.449C170.559 266.969 169.945 267.229 169.176 267.229C168.734 267.229 168.35 267.129 168.021 266.93C167.693 266.727 167.426 266.426 167.219 266.027V269.613H166.311ZM177.279 264.369C177.279 263.764 177.113 263.277 176.781 262.91C176.453 262.539 176.023 262.354 175.492 262.354C174.941 262.354 174.512 262.523 174.203 262.863C173.895 263.203 173.74 263.678 173.74 264.287C173.74 264.936 173.895 265.436 174.203 265.787C174.516 266.139 174.957 266.314 175.527 266.314C176.074 266.314 176.502 266.145 176.811 265.805C177.123 265.461 177.279 264.982 177.279 264.369ZM178.17 261.639V267H177.279V266.027C177.064 266.418 176.789 266.717 176.453 266.924C176.121 267.127 175.748 267.229 175.334 267.229C174.564 267.229 173.943 266.965 173.471 266.438C173.002 265.906 172.768 265.205 172.768 264.334C172.768 263.451 172.996 262.75 173.453 262.23C173.91 261.707 174.521 261.445 175.287 261.445C175.736 261.445 176.125 261.547 176.453 261.75C176.785 261.949 177.053 262.248 177.256 262.646V261.639H178.17ZM179.441 266.098L180.227 265.57C180.375 265.855 180.562 266.07 180.789 266.215C181.016 266.355 181.283 266.426 181.592 266.426C181.893 266.426 182.135 266.352 182.318 266.203C182.506 266.055 182.6 265.859 182.6 265.617C182.6 265.43 182.535 265.273 182.406 265.148C182.281 265.023 182.064 264.908 181.756 264.803C181.725 264.791 181.674 264.773 181.604 264.75C180.299 264.301 179.646 263.738 179.646 263.062C179.646 262.586 179.822 262.197 180.174 261.896C180.525 261.596 180.982 261.445 181.545 261.445C182.01 261.445 182.408 261.539 182.74 261.727C183.072 261.91 183.311 262.172 183.455 262.512L182.711 262.969C182.602 262.723 182.439 262.533 182.225 262.4C182.014 262.268 181.768 262.201 181.486 262.201C181.217 262.201 180.996 262.277 180.824 262.43C180.656 262.578 180.572 262.77 180.572 263.004C180.572 263.332 180.928 263.607 181.639 263.83C181.771 263.873 181.877 263.906 181.955 263.93C182.537 264.117 182.941 264.332 183.168 264.574C183.398 264.812 183.514 265.129 183.514 265.523C183.514 266.031 183.332 266.443 182.969 266.76C182.609 267.072 182.139 267.229 181.557 267.229C181.057 267.229 180.631 267.135 180.279 266.947C179.932 266.76 179.652 266.477 179.441 266.098ZM58.1055 278.346C58.1055 277.748 57.9395 277.268 57.6074 276.904C57.2754 276.537 56.8379 276.354 56.2949 276.354C55.752 276.354 55.3281 276.52 55.0234 276.852C54.7188 277.184 54.5664 277.643 54.5664 278.229C54.5664 278.889 54.7207 279.406 55.0293 279.781C55.3379 280.152 55.7637 280.338 56.3066 280.338C56.8691 280.338 57.3086 280.162 57.625 279.811C57.9453 279.459 58.1055 278.971 58.1055 278.346ZM58.9961 271.918V281H58.1055V280.027C57.8945 280.414 57.6211 280.711 57.2852 280.918C56.9492 281.125 56.5742 281.229 56.1602 281.229C55.3906 281.229 54.7695 280.965 54.2969 280.438C53.8281 279.906 53.5938 279.205 53.5938 278.334C53.5938 277.455 53.8242 276.754 54.2852 276.23C54.7461 275.707 55.3594 275.445 56.125 275.445C56.5703 275.445 56.957 275.547 57.2852 275.75C57.6133 275.949 57.8789 276.248 58.082 276.646V271.918H58.9961ZM64.6738 277.713C64.6426 277.24 64.4844 276.877 64.1992 276.623C63.918 276.365 63.5312 276.236 63.0391 276.236C62.5938 276.236 62.2227 276.371 61.9258 276.641C61.6289 276.906 61.457 277.264 61.4102 277.713H64.6738ZM65.6582 278.457H61.4102V278.539C61.4102 279.113 61.5742 279.578 61.9023 279.934C62.2305 280.285 62.6582 280.461 63.1855 280.461C63.5449 280.461 63.8691 280.365 64.1582 280.174C64.4473 279.979 64.7031 279.686 64.9258 279.295L65.623 279.764C65.3535 280.248 65.0098 280.613 64.5918 280.859C64.1738 281.105 63.6895 281.229 63.1387 281.229C62.3223 281.229 61.6621 280.959 61.1582 280.42C60.6543 279.881 60.4023 279.174 60.4023 278.299C60.4023 277.459 60.6523 276.771 61.1523 276.236C61.6523 275.701 62.2949 275.434 63.0801 275.434C63.873 275.434 64.5 275.688 64.9609 276.195C65.4258 276.703 65.6582 277.396 65.6582 278.275V278.457ZM72.3496 281.334L69.6953 275.639H70.7266L72.3379 279.383L73.9551 275.639H74.9863L72.3496 281.334ZM80.0781 278.369C80.0781 277.764 79.9121 277.277 79.5801 276.91C79.252 276.539 78.8223 276.354 78.291 276.354C77.7402 276.354 77.3105 276.523 77.002 276.863C76.6934 277.203 76.5391 277.678 76.5391 278.287C76.5391 278.936 76.6934 279.436 77.002 279.787C77.3145 280.139 77.7559 280.314 78.3262 280.314C78.873 280.314 79.3008 280.145 79.6094 279.805C79.9219 279.461 80.0781 278.982 80.0781 278.369ZM80.9688 275.639V281H80.0781V280.027C79.8633 280.418 79.5879 280.717 79.252 280.924C78.9199 281.127 78.5469 281.229 78.1328 281.229C77.3633 281.229 76.7422 280.965 76.2695 280.438C75.8008 279.906 75.5664 279.205 75.5664 278.334C75.5664 277.451 75.7949 276.75 76.252 276.23C76.709 275.707 77.3203 275.445 78.0859 275.445C78.5352 275.445 78.9238 275.547 79.252 275.75C79.584 275.949 79.8516 276.248 80.0547 276.646V275.639H80.9688ZM82.8555 281V271.918H83.793V281H82.8555ZM89.5176 277.713C89.4863 277.24 89.3281 276.877 89.043 276.623C88.7617 276.365 88.375 276.236 87.8828 276.236C87.4375 276.236 87.0664 276.371 86.7695 276.641C86.4727 276.906 86.3008 277.264 86.2539 277.713H89.5176ZM90.502 278.457H86.2539V278.539C86.2539 279.113 86.418 279.578 86.7461 279.934C87.0742 280.285 87.502 280.461 88.0293 280.461C88.3887 280.461 88.7129 280.365 89.002 280.174C89.291 279.979 89.5469 279.686 89.7695 279.295L90.4668 279.764C90.1973 280.248 89.8535 280.613 89.4355 280.859C89.0176 281.105 88.5332 281.229 87.9824 281.229C87.166 281.229 86.5059 280.959 86.002 280.42C85.498 279.881 85.2461 279.174 85.2461 278.299C85.2461 277.459 85.4961 276.771 85.9961 276.236C86.4961 275.701 87.1387 275.434 87.9238 275.434C88.7168 275.434 89.3438 275.688 89.8047 276.195C90.2695 276.703 90.502 277.396 90.502 278.275V278.457ZM92.752 275.639V278.275C92.752 279.045 92.8652 279.584 93.0918 279.893C93.3223 280.197 93.709 280.35 94.252 280.35C94.7949 280.35 95.1777 280.199 95.4004 279.898C95.627 279.594 95.7402 279.053 95.7402 278.275V275.639H96.6777V278.768C96.6777 279.576 96.4707 280.189 96.0566 280.607C95.6426 281.021 95.0332 281.229 94.2285 281.229C93.4316 281.229 92.8262 281.02 92.4121 280.602C91.998 280.184 91.791 279.572 91.791 278.768V275.639H92.752ZM98.4648 281V275.639H99.2793V276.752C99.5254 276.287 99.7871 275.955 100.064 275.756C100.342 275.557 100.68 275.457 101.078 275.457C101.188 275.457 101.293 275.467 101.395 275.486C101.496 275.502 101.598 275.527 101.699 275.562L101.395 276.389C101.289 276.354 101.189 276.328 101.096 276.312C101.002 276.293 100.912 276.283 100.826 276.283C100.342 276.283 99.9785 276.459 99.7363 276.811C99.4941 277.158 99.373 277.684 99.373 278.387V281H98.4648ZM113.676 281V277.842C113.676 277.299 113.566 276.896 113.348 276.635C113.129 276.369 112.793 276.236 112.34 276.236C112.094 276.236 111.865 276.287 111.654 276.389C111.447 276.486 111.271 276.627 111.127 276.811C111.021 276.951 110.945 277.115 110.898 277.303C110.852 277.49 110.828 277.799 110.828 278.229V281H109.943V277.842C109.943 277.299 109.834 276.896 109.615 276.635C109.396 276.369 109.061 276.236 108.607 276.236C108.361 276.236 108.131 276.287 107.916 276.389C107.705 276.486 107.527 276.627 107.383 276.811C107.281 276.947 107.207 277.105 107.16 277.285C107.117 277.465 107.096 277.779 107.096 278.229V281H106.211V275.639H107.107V276.465C107.33 276.121 107.596 275.865 107.904 275.697C108.213 275.529 108.568 275.445 108.971 275.445C109.404 275.445 109.773 275.539 110.078 275.727C110.383 275.91 110.613 276.18 110.77 276.535C111 276.168 111.271 275.895 111.584 275.715C111.9 275.535 112.266 275.445 112.68 275.445C113.277 275.445 113.744 275.613 114.08 275.949C114.416 276.285 114.584 276.752 114.584 277.35V281H113.676ZM116.934 278.334C116.934 278.9 117.123 279.381 117.502 279.775C117.881 280.166 118.34 280.361 118.879 280.361C119.414 280.361 119.869 280.166 120.244 279.775C120.619 279.381 120.807 278.9 120.807 278.334C120.807 277.768 120.619 277.289 120.244 276.898C119.869 276.504 119.414 276.307 118.879 276.307C118.336 276.307 117.875 276.504 117.496 276.898C117.121 277.289 116.934 277.768 116.934 278.334ZM115.961 278.334C115.961 277.939 116.033 277.568 116.178 277.221C116.322 276.869 116.533 276.557 116.811 276.283C117.088 276.01 117.402 275.803 117.754 275.662C118.105 275.518 118.48 275.445 118.879 275.445C119.27 275.445 119.639 275.518 119.986 275.662C120.338 275.807 120.656 276.018 120.941 276.295C121.219 276.564 121.43 276.875 121.574 277.227C121.719 277.574 121.791 277.943 121.791 278.334C121.791 278.725 121.719 279.094 121.574 279.441C121.43 279.785 121.219 280.092 120.941 280.361C120.656 280.643 120.336 280.857 119.98 281.006C119.629 281.154 119.262 281.229 118.879 281.229C118.484 281.229 118.109 281.154 117.754 281.006C117.402 280.861 117.088 280.652 116.811 280.379C116.533 280.098 116.322 279.785 116.178 279.441C116.033 279.098 115.961 278.729 115.961 278.334ZM123.227 281V275.639H124.123V276.465C124.354 276.121 124.631 275.865 124.955 275.697C125.279 275.529 125.654 275.445 126.08 275.445C126.713 275.445 127.207 275.613 127.562 275.949C127.918 276.285 128.096 276.752 128.096 277.35V281H127.158V277.842C127.158 277.299 127.043 276.896 126.812 276.635C126.586 276.369 126.234 276.236 125.758 276.236C125.484 276.236 125.234 276.287 125.008 276.389C124.785 276.486 124.6 276.627 124.451 276.811C124.338 276.951 124.256 277.111 124.205 277.291C124.158 277.471 124.135 277.783 124.135 278.229V281H123.227ZM133.721 277.713C133.689 277.24 133.531 276.877 133.246 276.623C132.965 276.365 132.578 276.236 132.086 276.236C131.641 276.236 131.27 276.371 130.973 276.641C130.676 276.906 130.504 277.264 130.457 277.713H133.721ZM134.705 278.457H130.457V278.539C130.457 279.113 130.621 279.578 130.949 279.934C131.277 280.285 131.705 280.461 132.232 280.461C132.592 280.461 132.916 280.365 133.205 280.174C133.494 279.979 133.75 279.686 133.973 279.295L134.67 279.764C134.4 280.248 134.057 280.613 133.639 280.859C133.221 281.105 132.736 281.229 132.186 281.229C131.369 281.229 130.709 280.959 130.205 280.42C129.701 279.881 129.449 279.174 129.449 278.299C129.449 277.459 129.699 276.771 130.199 276.236C130.699 275.701 131.342 275.434 132.127 275.434C132.92 275.434 133.547 275.688 134.008 276.195C134.473 276.703 134.705 277.396 134.705 278.275V278.457ZM131.225 274.795L132.42 272.756H133.598L131.928 274.795H131.225ZM136.234 276.395H135.25V275.639H136.234V273.477H137.172V275.639H138.156V276.395H137.172V281H136.234V276.395ZM143.301 278.369C143.301 277.764 143.135 277.277 142.803 276.91C142.475 276.539 142.045 276.354 141.514 276.354C140.963 276.354 140.533 276.523 140.225 276.863C139.916 277.203 139.762 277.678 139.762 278.287C139.762 278.936 139.916 279.436 140.225 279.787C140.537 280.139 140.979 280.314 141.549 280.314C142.096 280.314 142.523 280.145 142.832 279.805C143.145 279.461 143.301 278.982 143.301 278.369ZM144.191 275.639V281H143.301V280.027C143.086 280.418 142.811 280.717 142.475 280.924C142.143 281.127 141.77 281.229 141.355 281.229C140.586 281.229 139.965 280.965 139.492 280.438C139.023 279.906 138.789 279.205 138.789 278.334C138.789 277.451 139.018 276.75 139.475 276.23C139.932 275.707 140.543 275.445 141.309 275.445C141.758 275.445 142.146 275.547 142.475 275.75C142.807 275.949 143.074 276.248 143.277 276.646V275.639H144.191ZM145.861 273.055C145.861 272.871 145.926 272.715 146.055 272.586C146.188 272.453 146.348 272.387 146.535 272.387C146.719 272.387 146.875 272.453 147.004 272.586C147.137 272.719 147.203 272.879 147.203 273.066C147.203 273.25 147.139 273.406 147.01 273.535C146.881 273.664 146.723 273.729 146.535 273.729C146.348 273.729 146.188 273.664 146.055 273.535C145.926 273.406 145.861 273.246 145.861 273.055ZM146.078 281V275.639H147.004V281H146.078ZM148.949 281V275.639H149.764V276.752C150.01 276.287 150.271 275.955 150.549 275.756C150.826 275.557 151.164 275.457 151.562 275.457C151.672 275.457 151.777 275.467 151.879 275.486C151.98 275.502 152.082 275.527 152.184 275.562L151.879 276.389C151.773 276.354 151.674 276.328 151.58 276.312C151.486 276.293 151.396 276.283 151.311 276.283C150.826 276.283 150.463 276.459 150.221 276.811C149.979 277.158 149.857 277.684 149.857 278.387V281H148.949ZM156.959 277.713C156.928 277.24 156.77 276.877 156.484 276.623C156.203 276.365 155.816 276.236 155.324 276.236C154.879 276.236 154.508 276.371 154.211 276.641C153.914 276.906 153.742 277.264 153.695 277.713H156.959ZM157.943 278.457H153.695V278.539C153.695 279.113 153.859 279.578 154.188 279.934C154.516 280.285 154.943 280.461 155.471 280.461C155.83 280.461 156.154 280.365 156.443 280.174C156.732 279.979 156.988 279.686 157.211 279.295L157.908 279.764C157.639 280.248 157.295 280.613 156.877 280.859C156.459 281.105 155.975 281.229 155.424 281.229C154.607 281.229 153.947 280.959 153.443 280.42C152.939 279.881 152.688 279.174 152.688 278.299C152.688 277.459 152.938 276.771 153.438 276.236C153.938 275.701 154.58 275.434 155.365 275.434C156.158 275.434 156.785 275.688 157.246 276.195C157.711 276.703 157.943 277.396 157.943 278.275V278.457ZM159.461 280.426C159.461 280.234 159.529 280.07 159.666 279.934C159.803 279.797 159.967 279.729 160.158 279.729C160.354 279.729 160.52 279.797 160.656 279.934C160.797 280.066 160.867 280.23 160.867 280.426C160.867 280.617 160.799 280.779 160.662 280.912C160.525 281.041 160.357 281.105 160.158 281.105C159.963 281.105 159.797 281.041 159.66 280.912C159.527 280.779 159.461 280.617 159.461 280.426Z" fill="black"/>
<mask id="path-5-inside-1_102_1034" fill="white">
<path d="M81.6852 152.307L79.9148 156.128C78.5169 159.204 78.891 162.746 80.9401 165.355C82.2441 167.033 84.4794 168.338 87.1798 169.736C87.1798 169.736 65.8513 164.61 57.9336 158.085C57.9336 158.085 50.8549 172.159 51.6 173.744C52.3451 175.328 75.9105 184.462 90.813 183.623C90.0679 189.495 89.974 191.825 89.2289 197.696C90.9054 201.425 99.1018 212.329 113.167 208.508C115.775 207.762 118.195 204.78 119.406 202.45C142.225 158.645 114.471 192.757 161.692 160.975C145.858 142.707 159.83 147.461 134.403 159.39C134.403 159.39 134.589 146.156 122.387 136.276C123.04 135.158 130.77 127.795 127.044 127.608C126.113 127.515 125.181 127.981 124.622 128.727C123.318 130.311 120.617 133.48 119.965 133.76"/>
</mask>
<path d="M81.6852 152.307L79.9148 156.128C78.5169 159.204 78.891 162.746 80.9401 165.355C82.2441 167.033 84.4794 168.338 87.1798 169.736C87.1798 169.736 65.8513 164.61 57.9336 158.085C57.9336 158.085 50.8549 172.159 51.6 173.744C52.3451 175.328 75.9105 184.462 90.813 183.623C90.0679 189.495 89.974 191.825 89.2289 197.696C90.9054 201.425 99.1018 212.329 113.167 208.508C115.775 207.762 118.195 204.78 119.406 202.45C142.225 158.645 114.471 192.757 161.692 160.975C145.858 142.707 159.83 147.461 134.403 159.39C134.403 159.39 134.589 146.156 122.387 136.276C123.04 135.158 130.77 127.795 127.044 127.608C126.113 127.515 125.181 127.981 124.622 128.727C123.318 130.311 120.617 133.48 119.965 133.76" fill="#010202"/>
<path d="M79.9148 156.128L79.0074 155.708L79.0044 155.715L79.9148 156.128ZM80.9401 165.355L81.7296 164.742L81.7266 164.738L80.9401 165.355ZM87.1798 169.736L86.9461 170.708L87.6395 168.848L87.1798 169.736ZM57.9336 158.085L58.5695 157.314L57.603 156.517L57.0402 157.636L57.9336 158.085ZM90.813 183.623L91.805 183.749L91.9563 182.557L90.7568 182.624L90.813 183.623ZM89.2289 197.696L88.2368 197.57L88.2014 197.85L88.3168 198.107L89.2289 197.696ZM113.167 208.508L113.429 209.473L113.442 209.469L113.167 208.508ZM119.406 202.45L118.52 201.988L118.519 201.988L119.406 202.45ZM161.692 160.975L162.251 161.804L163.188 161.174L162.448 160.32L161.692 160.975ZM134.403 159.39L133.403 159.376L133.38 160.975L134.828 160.296L134.403 159.39ZM122.387 136.276L121.523 135.772L121.091 136.513L121.758 137.053L122.387 136.276ZM127.044 127.608L126.945 128.604L126.969 128.606L126.994 128.607L127.044 127.608ZM124.622 128.727L125.394 129.362L125.409 129.345L125.423 129.327L124.622 128.727ZM81.6852 152.307L80.7779 151.887L79.0074 155.708L79.9148 156.128L80.8221 156.549L82.5926 152.727L81.6852 152.307ZM79.9148 156.128L79.0044 155.715C77.4588 159.115 77.864 163.057 80.1536 165.973L80.9401 165.355L81.7266 164.738C79.918 162.434 79.5751 159.293 80.8252 156.542L79.9148 156.128ZM80.9401 165.355L80.1505 165.969C81.6092 167.846 84.0451 169.239 86.72 170.624L87.1798 169.736L87.6395 168.848C84.9137 167.437 82.8789 166.22 81.7296 164.742L80.9401 165.355ZM87.1798 169.736C87.4135 168.764 87.4135 168.764 87.4134 168.764C87.4133 168.763 87.4131 168.763 87.4129 168.763C87.4123 168.763 87.4115 168.763 87.4103 168.763C87.408 168.762 87.4044 168.761 87.3995 168.76C87.3898 168.758 87.375 168.754 87.3552 168.749C87.3157 168.74 87.2565 168.725 87.1785 168.706C87.0227 168.667 86.7921 168.61 86.4953 168.534C85.9017 168.382 85.0434 168.158 83.988 167.869C81.8767 167.289 78.9807 166.45 75.8407 165.408C69.506 163.307 62.3659 160.442 58.5695 157.314L57.9336 158.085L57.2976 158.857C61.4189 162.253 68.9019 165.214 75.211 167.306C78.3928 168.362 81.3238 169.212 83.4589 169.797C84.5269 170.09 85.3967 170.318 86.0004 170.472C86.3022 170.549 86.5376 170.608 86.6981 170.647C86.7783 170.667 86.8398 170.682 86.8815 170.692C86.9023 170.698 86.9182 170.701 86.929 170.704C86.9344 170.705 86.9386 170.706 86.9414 170.707C86.9428 170.707 86.9439 170.708 86.9447 170.708C86.9451 170.708 86.9454 170.708 86.9456 170.708C86.9459 170.708 86.9461 170.708 87.1798 169.736ZM57.9336 158.085C57.0402 157.636 57.0402 157.636 57.0401 157.636C57.04 157.636 57.0399 157.637 57.0398 157.637C57.0396 157.637 57.0392 157.638 57.0388 157.639C57.0379 157.641 57.0365 157.643 57.0348 157.647C57.0313 157.654 57.0261 157.664 57.0193 157.678C57.0057 157.705 56.9857 157.745 56.9596 157.797C56.9075 157.902 56.8313 158.055 56.7347 158.25C56.5416 158.64 56.2668 159.198 55.9394 159.873C55.2851 161.222 54.4192 163.04 53.5758 164.909C52.7344 166.774 51.907 168.71 51.3351 170.288C51.0503 171.074 50.8189 171.798 50.6832 172.394C50.6156 172.69 50.5653 172.982 50.55 173.249C50.5364 173.486 50.5399 173.839 50.6951 174.169L51.6 173.744L52.5049 173.318C52.567 173.45 52.5384 173.508 52.5467 173.364C52.5532 173.251 52.5785 173.078 52.6332 172.838C52.742 172.361 52.9414 171.725 53.2154 170.969C53.7612 169.463 54.5638 167.583 55.3989 165.732C56.232 163.885 57.0893 162.085 57.7389 160.746C58.0635 160.076 58.3359 159.523 58.527 159.137C58.6225 158.944 58.6977 158.793 58.7489 158.691C58.7745 158.639 58.7941 158.6 58.8073 158.574C58.8139 158.561 58.8188 158.551 58.8221 158.544C58.8238 158.541 58.825 158.539 58.8258 158.537C58.8262 158.536 58.8265 158.536 58.8267 158.535C58.8268 158.535 58.8268 158.535 58.8269 158.535C58.8269 158.535 58.8269 158.535 57.9336 158.085ZM51.6 173.744L50.6951 174.169C50.7957 174.383 50.9444 174.541 51.046 174.638C51.1598 174.746 51.2897 174.848 51.4217 174.941C51.6862 175.128 52.0248 175.329 52.4147 175.538C53.1987 175.959 54.2708 176.457 55.5596 176.996C58.1418 178.077 61.6556 179.352 65.6076 180.549C73.4829 182.934 83.2373 185.051 90.8692 184.621L90.813 183.623L90.7568 182.624C83.4862 183.034 74.0067 181.003 66.1873 178.635C62.2921 177.455 58.8434 176.202 56.3318 175.151C55.0737 174.625 54.0661 174.155 53.3605 173.776C53.0057 173.586 52.7471 173.429 52.5772 173.309C52.492 173.248 52.4455 173.209 52.4255 173.19C52.3933 173.159 52.4508 173.203 52.5049 173.318L51.6 173.744ZM90.813 183.623L89.821 183.497C89.4468 186.446 89.236 188.506 89.0261 190.558C88.8165 192.607 88.6078 194.647 88.2368 197.57L89.2289 197.696L90.2209 197.822C90.5951 194.874 90.8058 192.813 91.0157 190.761C91.2254 188.712 91.4341 186.672 91.805 183.749L90.813 183.623ZM89.2289 197.696L88.3168 198.107C89.225 200.126 91.8093 203.935 95.9922 206.762C100.214 209.615 106.076 211.471 113.429 209.473L113.167 208.508L112.905 207.543C106.193 209.366 100.924 207.681 97.1121 205.105C93.2615 202.502 90.9092 198.995 90.1409 197.286L89.2289 197.696ZM113.167 208.508L113.442 209.469C114.986 209.028 116.39 207.957 117.532 206.765C118.686 205.561 119.648 204.153 120.294 202.911L119.406 202.45L118.519 201.988C117.954 203.076 117.1 204.325 116.088 205.381C115.065 206.449 113.955 207.242 112.892 207.546L113.167 208.508ZM119.406 202.45L120.293 202.912C126.013 191.932 128.572 185.817 129.932 182.321C130.626 180.534 130.97 179.537 131.273 178.871C131.546 178.271 131.683 178.18 131.85 178.096C131.988 178.026 132.186 177.955 132.534 177.854C132.837 177.765 133.341 177.629 133.864 177.472C134.983 177.138 136.54 176.613 138.779 175.617C143.246 173.629 150.419 169.768 162.251 161.804L161.692 160.975L161.134 160.145C149.355 168.073 142.289 171.866 137.966 173.79C135.81 174.749 134.334 175.244 133.291 175.556C132.734 175.723 132.376 175.816 131.973 175.934C131.614 176.039 131.262 176.151 130.946 176.312C130.205 176.687 129.816 177.244 129.453 178.042C129.12 178.774 128.718 179.924 128.068 181.596C126.738 185.017 124.209 191.065 118.52 201.988L119.406 202.45ZM161.692 160.975L162.448 160.32C158.528 155.797 156.458 152.707 155.152 150.782C154.517 149.847 153.996 149.081 153.513 148.595C153.259 148.34 152.958 148.1 152.59 147.958C152.197 147.806 151.8 147.794 151.413 147.886C151.054 147.971 150.721 148.143 150.419 148.332C150.112 148.523 149.781 148.767 149.426 149.04C148.697 149.602 147.822 150.319 146.577 151.229C144.115 153.029 140.276 155.53 133.978 158.485L134.403 159.39L134.828 160.296C141.243 157.286 145.193 154.719 147.757 152.843C149.026 151.916 149.973 151.143 150.646 150.625C150.993 150.358 151.258 150.165 151.476 150.029C151.699 149.89 151.82 149.845 151.876 149.831C151.899 149.826 151.902 149.828 151.891 149.828C151.887 149.827 151.881 149.827 151.877 149.826C151.872 149.825 151.869 149.824 151.87 149.824C151.876 149.826 151.947 149.856 152.095 150.005C152.414 150.327 152.817 150.902 153.497 151.904C154.818 153.852 156.94 157.018 160.937 161.63L161.692 160.975ZM134.403 159.39C135.403 159.404 135.403 159.404 135.403 159.403C135.403 159.403 135.403 159.402 135.403 159.402C135.403 159.401 135.403 159.4 135.403 159.398C135.403 159.396 135.403 159.392 135.403 159.387C135.403 159.379 135.403 159.366 135.403 159.351C135.403 159.321 135.403 159.278 135.402 159.223C135.4 159.113 135.396 158.955 135.386 158.753C135.366 158.349 135.324 157.769 135.234 157.045C135.054 155.597 134.684 153.571 133.922 151.229C132.396 146.542 129.297 140.584 123.016 135.499L122.387 136.276L121.758 137.053C127.679 141.847 130.588 147.447 132.02 151.848C132.736 154.049 133.082 155.949 133.249 157.291C133.332 157.962 133.371 158.493 133.388 158.851C133.397 159.031 133.401 159.167 133.402 159.256C133.403 159.3 133.403 159.333 133.403 159.353C133.403 159.363 133.403 159.37 133.403 159.374C133.403 159.376 133.403 159.377 133.403 159.378C133.403 159.378 133.403 159.378 133.403 159.377C133.403 159.377 133.403 159.377 133.403 159.377C133.403 159.377 133.403 159.376 134.403 159.39ZM122.387 136.276L123.251 136.78C123.249 136.783 123.257 136.77 123.28 136.738C123.302 136.707 123.332 136.668 123.371 136.618C123.45 136.518 123.555 136.394 123.684 136.244C123.944 135.943 124.277 135.572 124.66 135.142C125.417 134.293 126.35 133.238 127.149 132.204C127.918 131.209 128.671 130.1 128.941 129.16C129.074 128.696 129.16 128.031 128.779 127.444C128.379 126.829 127.696 126.64 127.094 126.61L127.044 127.608L126.994 128.607C127.323 128.624 127.214 128.705 127.102 128.534C127.008 128.389 127.096 128.338 127.019 128.608C126.867 129.137 126.345 129.973 125.566 130.981C124.816 131.952 123.927 132.959 123.168 133.811C122.793 134.231 122.444 134.62 122.17 134.937C121.92 135.227 121.661 135.537 121.523 135.772L122.387 136.276ZM127.044 127.608L127.144 126.613C125.823 126.481 124.565 127.136 123.822 128.127L124.622 128.727L125.423 129.327C125.797 128.827 126.402 128.549 126.945 128.604L127.044 127.608ZM124.622 128.727L123.85 128.091C123.203 128.877 122.212 130.054 121.305 131.065C120.85 131.572 120.426 132.026 120.081 132.367C119.908 132.538 119.766 132.67 119.656 132.762C119.522 132.875 119.506 132.869 119.571 132.841L119.965 133.76L120.36 134.679C120.588 134.581 120.798 134.415 120.942 134.294C121.11 134.153 121.295 133.979 121.487 133.789C121.873 133.408 122.328 132.919 122.793 132.401C123.726 131.361 124.737 130.161 125.394 129.362L124.622 128.727Z" fill="black" mask="url(#path-5-inside-1_102_1034)"/>
<path d="M52.3452 170.761L49.086 167.871C49.086 167.871 48.0607 154.916 53.0903 157.153C58.1199 159.297 58.1199 159.297 58.1199 159.297L52.3452 170.761Z" fill="white" stroke="#010202" stroke-miterlimit="10"/>
<path d="M153.31 150.07C153.31 150.07 155.545 145.316 156.57 147.18C157.594 149.045 164.767 150.629 163.928 153.891C163.09 157.153 160.669 159.949 160.669 159.949L153.31 150.07Z" fill="white" stroke="#010202" stroke-miterlimit="10"/>
<path d="M171.752 171.879C172.31 171.413 171.752 170.668 171.752 170.668L152.659 132.175C152.472 131.802 152.378 131.336 152.286 130.963C152.286 130.218 152.472 129.752 152.378 128.913C152.192 127.608 151.261 128.354 150.516 127.142C150.143 126.583 150.051 125.931 150.051 125.465C150.051 125.092 150.237 124.719 150.516 124.439C156.943 119.22 152.565 114.374 152.565 114.374C149.492 111.577 148.747 109.993 147.908 108.875C147.815 108.688 147.908 108.502 148.094 108.409C149.957 108.129 149.492 107.943 149.492 107.943C149.492 107.943 146.511 105.519 146.325 104.308C146.231 103.655 145.951 104.214 145.951 104.401C144.741 109.434 149.957 114.28 149.957 114.28C155.08 119.034 149.212 122.389 149.212 122.389C148.56 122.669 147.815 122.389 147.349 122.109C147.162 122.016 147.07 121.83 146.976 121.643C146.139 119.966 140.737 109.807 140.923 109.527C141.201 109.154 141.76 109.527 142.225 109.434C142.692 109.341 142.413 109.061 142.413 109.061L137.662 105.333C137.57 105.24 137.476 105.333 137.476 105.426L137.57 111.391C137.57 111.391 137.57 111.764 137.942 111.391C138.315 111.018 138.407 110.459 138.78 110.459C139.152 110.459 143.996 120.898 144.835 122.575C144.927 122.762 144.927 122.948 144.927 123.135C144.927 123.694 144.741 124.439 143.996 124.812C143.996 124.812 137.848 127.515 137.103 120.525C137.103 120.525 136.358 113.442 131.609 111.391C131.422 111.298 130.864 111.205 131.329 111.671C132.074 112.603 132.26 116.424 132.26 116.424C132.26 116.424 132.168 116.89 133.472 115.585C133.658 115.399 133.844 115.492 133.936 115.678C134.309 117.076 135.148 118.474 135.521 122.669C135.521 122.669 136.731 129.099 144.741 127.049C145.113 126.956 145.486 127.049 145.766 127.235C146.139 127.515 146.604 127.981 146.79 128.633C147.349 129.938 146.045 130.218 147.07 131.15C147.721 131.802 148.188 131.802 148.747 132.362C149.119 132.641 149.398 133.014 149.584 133.387L168.771 171.786C168.771 171.786 169.144 172.718 169.796 172.532L171.752 171.879Z" fill="white" stroke="#010202" stroke-miterlimit="10"/>
<path d="M94.5387 143.079C94.5387 143.079 65.2925 134.132 69.577 158.457C69.577 158.457 74.9791 172.344 77.4008 173.929C77.4008 173.929 81.4051 174.302 84.2932 175.513C84.2932 175.513 87.46 176.632 89.2289 184.181C89.2289 184.181 90.5329 187.63 97.239 184.181C97.239 184.181 102.082 181.851 102.549 175.14C102.549 175.14 91.1856 158.085 94.5387 143.079Z" fill="white" stroke="#010202" stroke-miterlimit="10"/>
<path d="M113.539 135.437C113.539 135.437 128.442 108.781 142.227 129.192C142.227 129.192 148.001 142.986 147.256 145.689C147.256 145.689 144.648 148.765 143.344 151.654C143.344 151.654 141.854 154.637 145.766 161.347C145.766 161.347 147.162 164.702 139.991 166.939C139.991 166.939 134.868 168.617 129.932 164.05C129.932 164.05 126.299 144.012 113.539 135.437Z" fill="white" stroke="#010202" stroke-miterlimit="10"/>
<path d="M91.7445 148.765C91.7445 148.765 70.1343 143.173 74.3264 162.093L91.7445 148.765Z" fill="white"/>
<path d="M91.7444 148.765C90.6267 148.579 89.4151 148.485 88.2975 148.392C87.1798 148.299 85.9697 148.299 84.852 148.392C82.5227 148.485 80.195 148.951 78.3321 150.07C76.3754 151.095 75.0715 153.052 74.5126 155.289C74.2339 156.408 74.1401 157.526 74.1401 158.738C74.1401 159.297 74.2339 159.856 74.2339 160.508C74.3263 161.068 74.4202 161.627 74.4202 162.279C73.7675 160.042 73.3949 157.619 73.7675 155.196C73.9538 153.984 74.4202 152.866 75.0715 151.747C75.7242 150.722 76.748 149.883 77.7733 149.231C79.9148 148.019 82.4303 147.647 84.7581 147.74C87.1798 147.647 89.509 148.019 91.7444 148.765Z" fill="#010202"/>
<path d="M119.593 137.58C119.593 137.58 131.329 118.567 141.388 135.157L119.593 137.58Z" fill="white"/>
<path d="M119.593 137.581C120.71 135.53 122.201 133.573 123.877 131.895C125.554 130.218 127.603 128.82 130.025 128.167C131.236 127.888 132.54 127.794 133.75 128.074C134.962 128.354 136.079 128.913 137.103 129.658C139.06 131.15 140.456 133.107 141.482 135.158C141.109 134.692 140.736 134.226 140.456 133.76C140.084 133.293 139.711 132.827 139.339 132.455C138.501 131.616 137.662 130.777 136.731 130.218C134.868 129.006 132.54 128.447 130.397 129.099C128.256 129.658 126.299 130.963 124.53 132.455C123.691 133.2 122.853 134.039 122.014 134.878C121.083 135.717 120.338 136.649 119.593 137.581Z" fill="#010202"/>
<path d="M132.54 154.916C132.074 153.705 131.236 152.773 130.211 151.934C129.932 150.629 129.56 149.324 129.093 148.019C124.903 137.487 113.259 132.268 103.108 136.369C99.5683 137.767 96.6802 140.19 94.6311 143.08C90.7192 148.579 89.6953 155.942 92.3957 162.745C93.0484 164.33 93.8859 165.728 94.8173 167.033C94.8173 167.965 94.9112 168.99 95.2838 169.829C96.8664 173.836 102.082 175.794 108.416 175.514C108.602 175.514 108.696 175.514 108.882 175.514C113.539 180.92 119.128 187.817 119.406 190.799C120.059 196.018 117.638 195.646 117.171 192.197C117.171 192.197 113.912 191.172 113.632 192.104C113.353 193.036 114.285 195.646 115.122 197.137C115.402 197.696 122.667 201.704 127.789 192.197C128.069 185.766 127.044 177.285 126.393 168.617C131.515 164.33 134.217 159.11 132.54 154.916Z" fill="white" stroke="#010202" stroke-miterlimit="10"/>
<path d="M117.618 154.1C118.763 153.64 119.116 151.834 118.407 150.066C117.697 148.299 116.194 147.24 115.048 147.7C113.902 148.161 113.548 149.967 114.258 151.734C114.969 153.502 116.472 154.561 117.618 154.1Z" fill="#010202"/>
<path d="M117.618 154.1C118.763 153.64 119.116 151.834 118.407 150.066C117.697 148.299 116.194 147.24 115.048 147.7C113.902 148.161 113.548 149.967 114.258 151.734C114.969 153.502 116.472 154.561 117.618 154.1Z" fill="#010202"/>
<path d="M105.225 159.06C106.37 158.6 106.723 156.794 106.014 155.026C105.304 153.259 103.801 152.2 102.655 152.66C101.509 153.121 101.155 154.927 101.865 156.694C102.576 158.462 104.079 159.521 105.225 159.06Z" fill="#010202"/>
<path d="M105.808 173.184C105.808 173.184 103.851 173.463 104.038 174.861C104.224 176.259 105.435 175.607 104.596 178.776C103.759 181.945 102.362 183.529 102.827 183.902C103.294 184.275 106.459 186.232 110.185 177.284L105.808 173.184Z" fill="white" stroke="#010202" stroke-miterlimit="10"/>
<path d="M126.671 164.795C126.671 164.795 128.348 163.676 129.093 164.795C129.932 165.913 128.534 166.286 131.422 168.057C134.217 169.828 136.358 169.921 136.266 170.48C136.172 171.04 135.24 174.674 126.393 170.76L126.671 164.795Z" fill="white" stroke="#010202" stroke-miterlimit="10"/>
<path d="M105.902 160.695C106.553 159.763 107.392 159.017 108.323 158.271C109.255 157.619 110.279 157.06 111.304 156.594C111.863 156.407 112.42 156.221 112.887 156.035C113.445 155.941 114.004 155.755 114.563 155.755C115.681 155.568 116.799 155.662 117.916 155.848C116.799 156.034 115.681 156.221 114.657 156.5C113.632 156.78 112.608 157.06 111.583 157.526C109.627 158.271 107.765 159.39 105.902 160.695Z" fill="#010202"/>
<path d="M106.739 166.753C108.416 164.516 110.745 162.746 113.259 161.441C114.563 160.882 115.961 160.416 117.357 160.322C118.755 160.136 120.245 160.322 121.549 160.788C120.152 160.695 118.755 160.788 117.451 161.068C116.147 161.348 114.843 161.814 113.632 162.373C112.422 162.932 111.21 163.584 110.092 164.33C108.975 165.076 107.765 165.821 106.739 166.753Z" fill="#010202"/>
<path d="M110.838 171.787C111.396 170.855 112.142 170.109 112.981 169.457C113.818 168.804 114.749 168.245 115.681 167.872C116.147 167.686 116.706 167.5 117.171 167.406C117.73 167.313 118.196 167.127 118.755 167.127C119.779 167.033 120.897 167.127 121.922 167.406C120.897 167.5 119.873 167.593 118.848 167.872C117.824 168.059 116.892 168.338 115.961 168.804C114.191 169.457 112.514 170.482 110.838 171.787Z" fill="#010202"/>
<path d="M113.818 177.097C114.285 176.259 114.936 175.606 115.681 175.047C116.426 174.488 117.265 174.022 118.103 173.649C118.942 173.276 119.873 173.09 120.804 172.996C121.736 172.903 122.667 172.996 123.599 173.183C122.667 173.369 121.828 173.462 120.897 173.742C120.059 173.928 119.22 174.208 118.383 174.581C116.892 175.14 115.308 175.979 113.818 177.097Z" fill="#010202"/>
<path d="M116.985 182.318C117.357 181.665 117.916 181.106 118.475 180.64C119.034 180.174 119.687 179.801 120.432 179.522C121.083 179.242 121.828 179.055 122.573 178.962C123.318 178.869 124.063 178.962 124.809 179.149C124.063 179.335 123.412 179.521 122.76 179.708C122.108 179.894 121.456 180.174 120.804 180.454C119.5 180.92 118.289 181.665 116.985 182.318Z" fill="#010202"/>
<path d="M119.687 186.138C119.965 185.672 120.338 185.206 120.804 184.926C121.269 184.554 121.736 184.274 122.201 184.088C122.76 183.901 123.318 183.715 123.877 183.808C124.436 183.808 125.089 184.088 125.367 184.554C124.809 184.46 124.344 184.46 123.877 184.554C123.412 184.647 122.946 184.833 122.481 185.02C121.642 185.299 120.71 185.765 119.687 186.138Z" fill="#010202"/>
<path d="M121.642 189.495C121.828 189.122 122.108 188.842 122.481 188.563C122.853 188.283 123.226 188.19 123.691 188.096C124.157 188.003 124.622 188.096 124.995 188.376C125.367 188.563 125.648 188.935 125.834 189.308C125.367 189.215 125.089 189.122 124.716 189.029C124.344 189.029 124.064 188.935 123.785 189.029C123.132 189.122 122.481 189.308 121.642 189.495Z" fill="#010202"/>
<path d="M98.9156 149.325C98.7293 148.672 98.8232 148.113 99.1019 147.554C99.2881 147.274 99.4744 147.088 99.847 146.901C100.127 146.715 100.592 146.808 100.778 146.995C100.5 147.181 100.313 147.274 100.22 147.461C100.127 147.647 99.9409 147.833 99.847 148.02C99.6607 148.486 99.4744 148.859 98.9156 149.325Z" fill="#010202"/>
<path d="M111.955 142.427C112.141 142.147 112.422 141.961 112.794 141.774C113.073 141.681 113.445 141.588 113.818 141.588C114.191 141.588 114.563 141.681 114.843 141.867C115.122 142.054 115.402 142.334 115.495 142.706C115.122 142.613 114.843 142.613 114.657 142.52C114.377 142.52 114.098 142.52 113.912 142.52C113.167 142.52 112.608 142.52 111.955 142.427Z" fill="#010202"/>
<path d="M101.059 169.642C100.686 169.548 100.313 169.269 100.127 168.896C99.9409 168.523 99.847 168.057 99.9409 167.684C100.033 167.312 100.22 166.939 100.5 166.659C100.778 166.38 101.059 166.193 101.431 166.007C101.337 166.38 101.245 166.752 101.151 167.032C101.059 167.312 100.965 167.591 100.872 167.871C100.686 168.337 100.778 168.896 101.059 169.642Z" fill="#010202"/>
<path d="M125.181 156.408C125.461 156.129 125.926 156.035 126.299 156.129C126.671 156.129 127.044 156.408 127.417 156.595C127.697 156.874 127.883 157.247 128.069 157.62C128.162 157.993 128.256 158.366 128.162 158.738C127.883 158.459 127.697 158.179 127.417 157.993C127.23 157.806 127.044 157.527 126.765 157.34C126.393 156.968 125.926 156.688 125.181 156.408Z" fill="#010202"/>
<path d="M91.5582 154.078C91.5582 154.078 84.9444 148.859 81.0325 141.123C76.2831 131.896 75.5379 119.127 95.1899 107.756C97.8917 106.172 100.965 105.52 104.039 105.799C144.554 109.807 126.952 146.901 126.952 146.901C126.952 146.901 106.181 136.929 105.808 134.319C105.808 134.319 92.7682 156.501 91.5582 154.078Z" fill="#0995DC" stroke="black" stroke-miterlimit="10"/>
<path d="M80.5675 140.656C80.9401 137.58 82.0578 134.598 83.4541 131.802C84.1068 130.404 85.0383 129.099 85.7834 127.794C86.5285 126.489 87.2736 125.184 88.0188 123.88C89.4151 121.177 90.813 118.474 92.117 115.678C92.7682 114.28 93.4209 112.975 94.0722 111.577C94.4447 110.924 94.7249 110.179 95.0036 109.526C95.1899 109.154 95.2837 108.874 95.47 108.501C95.6563 108.128 95.7487 107.756 95.8426 107.383C95.935 108.128 95.6563 108.967 95.5624 109.713C95.3761 110.458 95.1899 111.204 95.0036 111.95C94.5386 113.441 94.0722 114.932 93.5133 116.33C92.3956 119.219 91.1855 122.015 89.6953 124.812C88.9502 126.21 88.205 127.514 87.366 128.819L86.0621 130.683C85.6895 131.336 85.2245 131.988 84.852 132.547C83.1754 135.064 81.6852 137.767 80.5675 140.656Z" fill="black"/>
<path d="M87.3661 150.07C87.1798 148.951 87.2737 147.833 87.46 146.715C87.6462 145.596 87.8325 144.478 88.2051 143.453C88.4838 142.334 88.8563 141.309 89.2289 140.284C89.6014 139.259 90.0679 138.233 90.5329 137.115L90.6267 137.022C92.2094 134.598 93.7935 132.175 95.2838 129.659C96.774 127.142 98.2643 124.719 99.4744 122.109C99.7545 121.457 100.033 120.804 100.219 120.152C100.406 119.5 100.686 118.754 100.872 118.102C101.431 116.704 101.99 115.306 102.549 114.001C103.2 112.696 103.759 111.391 104.318 109.993C104.598 109.341 104.877 108.688 104.97 107.943C105.063 107.29 105.157 106.451 104.598 105.985C104.97 106.172 105.157 106.545 105.249 106.917C105.343 107.29 105.343 107.663 105.343 108.036C105.343 108.781 105.157 109.527 104.97 110.273C104.598 111.671 104.131 113.069 103.666 114.467C103.2 115.865 102.735 117.17 102.269 118.568L101.99 119.593C101.896 119.966 101.804 120.245 101.71 120.618C101.523 121.364 101.245 122.016 100.965 122.762C99.7545 125.465 98.3567 128.074 96.774 130.591C95.1899 133.107 93.6072 135.53 91.8368 137.86L91.9307 137.767C91.4643 138.793 90.9054 139.725 90.4405 140.75C89.974 141.775 89.5091 142.707 89.1365 143.732C88.7639 144.757 88.2975 145.783 88.0188 146.808C87.6462 147.833 87.3661 148.951 87.3661 150.07Z" fill="black"/>
<path d="M106.18 134.038C106.18 134.038 115.961 115.957 109.069 106.916" stroke="black" stroke-width="1.25" stroke-miterlimit="10"/>
<path d="M114.401 116.671C115.256 117.124 116.086 117.607 116.872 118.131C117.004 118.248 117.147 118.334 117.241 118.39C117.367 118.466 117.428 118.505 117.47 118.547C117.563 118.64 117.683 118.757 117.888 118.873C117.939 118.924 117.955 118.94 118.031 119.015L118.055 119.039L118.082 119.061C118.437 119.327 118.845 119.634 119.356 119.848C120.2 120.407 121.041 120.875 121.966 121.338C122.389 121.573 122.833 121.807 123.272 122.038C123.715 122.272 124.153 122.503 124.566 122.732L124.585 122.742C124.855 122.877 125.273 123.112 125.608 123.328L125.907 123.534C126.331 123.876 126.675 124.218 127.036 124.579C127.62 125.374 128.164 126.148 128.669 126.926C127.989 126.301 127.309 125.684 126.628 125.088L126.614 125.075L126.599 125.064L125.481 124.226C125.042 123.896 124.694 123.78 124.151 123.599C123.25 123.237 122.391 122.717 121.417 122.229C120.476 121.664 119.678 121.22 118.876 120.596L118.852 120.577L118.826 120.562L118.67 120.462C118.329 120.231 118.049 119.957 117.614 119.605C117.61 119.6 117.602 119.591 117.589 119.574C117.571 119.55 117.534 119.503 117.497 119.459C117.434 119.383 117.339 119.282 117.205 119.197L116.592 118.585L116.569 118.563C115.848 117.933 115.118 117.309 114.401 116.671Z" fill="white" stroke="black"/>
<path d="M128.721 140.936C127.51 139.165 126.393 137.488 125.089 135.996C124.436 135.251 123.785 134.598 122.946 133.946C122.201 133.387 121.363 132.828 120.432 132.268C118.755 131.15 116.985 130.032 115.308 128.82C113.632 127.608 111.955 126.397 110.373 125.092C112.328 125.744 114.284 126.676 116.147 127.608C118.01 128.54 119.779 129.566 121.549 130.777C122.387 131.336 123.318 131.989 124.063 132.641C124.903 133.387 125.648 134.226 126.206 135.158C127.324 136.928 128.162 138.886 128.721 140.936Z" fill="black"/>
<rect x="41" y="29" width="16" height="56" fill="#A3B6CC"/>
<rect x="58" y="29" width="15" height="56" fill="#BA256D"/>
<rect x="28" y="29" width="12" height="56" fill="#844020"/>
<rect x="90" y="29" width="16" height="56" fill="#D81F20"/>
<rect x="107" y="29" width="15" height="56" fill="#EBDC22"/>
<rect x="74" y="29" width="15" height="56" fill="#E3780D"/>
<rect x="123" y="29" width="15" height="56" fill="#22B03C"/>
<rect x="139" y="29" width="16" height="56" fill="#214285"/>
<rect x="172" y="29" width="15" height="56" fill="#94C99B"/>
<rect x="156" y="29" width="15" height="56" fill="#010603"/>
<rect x="28" y="44" width="159" height="29" fill="white" stroke="black"/>
<path d="M49.8584 58.5107H50.166C50.7493 58.5107 51.1732 58.39 51.4375 58.1484C51.7018 57.9069 51.834 57.5195 51.834 56.9863C51.834 56.4941 51.7018 56.1364 51.4375 55.9131C51.1732 55.6852 50.7493 55.5713 50.166 55.5713H49.8584V58.5107ZM47.7051 64V53.9922H50.166C51.4785 53.9922 52.4469 54.2428 53.0713 54.7441C53.7002 55.2454 54.0146 56.0202 54.0146 57.0684C54.0146 58.0391 53.6979 58.8001 53.0645 59.3516C52.4355 59.903 51.5628 60.1787 50.4463 60.1787H49.8584V64H47.7051ZM62.7373 64H60.2695L57.6377 59.3242V64H55.498V53.9922H58.5605C59.7773 53.9922 60.6888 54.2292 61.2949 54.7031C61.901 55.1725 62.2041 55.8812 62.2041 56.8291C62.2041 57.5173 61.9967 58.1051 61.582 58.5928C61.1673 59.0804 60.6318 59.3652 59.9756 59.4473L62.7373 64ZM57.6377 58.2578H57.959C58.8249 58.2578 59.3968 58.1644 59.6748 57.9775C59.9528 57.7861 60.0918 57.4557 60.0918 56.9863C60.0918 56.4941 59.9414 56.1455 59.6406 55.9404C59.3444 55.7308 58.7839 55.626 57.959 55.626H57.6377V58.2578ZM74.2354 59.0166C74.2354 59.7321 74.1009 60.4089 73.832 61.0469C73.5677 61.6849 73.1849 62.2454 72.6836 62.7285C72.1641 63.2253 71.5785 63.6058 70.9268 63.8701C70.2751 64.1344 69.6006 64.2666 68.9033 64.2666C68.2926 64.2666 67.6934 64.1641 67.1055 63.959C66.5221 63.7493 65.9867 63.4508 65.499 63.0635C64.8701 62.5622 64.387 61.9629 64.0498 61.2656C63.7171 60.5684 63.5508 59.8187 63.5508 59.0166C63.5508 58.2965 63.6829 57.6221 63.9473 56.9932C64.2116 56.3597 64.599 55.7969 65.1094 55.3047C65.6107 54.8171 66.1917 54.4388 66.8525 54.1699C67.5179 53.901 68.2015 53.7666 68.9033 53.7666C69.6006 53.7666 70.2773 53.901 70.9336 54.1699C71.5944 54.4388 72.1777 54.8171 72.6836 55.3047C73.1895 55.7969 73.5745 56.3597 73.8389 56.9932C74.1032 57.6266 74.2354 58.3011 74.2354 59.0166ZM68.9033 62.3594C69.8102 62.3594 70.5576 62.0426 71.1455 61.4092C71.738 60.7712 72.0342 59.9736 72.0342 59.0166C72.0342 58.0687 71.7357 57.2712 71.1387 56.624C70.5417 55.9769 69.7965 55.6533 68.9033 55.6533C67.9964 55.6533 67.2445 55.9769 66.6475 56.624C66.0505 57.2666 65.752 58.0641 65.752 59.0166C65.752 59.9827 66.0459 60.7826 66.6338 61.416C67.2217 62.0449 67.9782 62.3594 68.9033 62.3594ZM78.2002 58.5107H78.5078C79.0911 58.5107 79.515 58.39 79.7793 58.1484C80.0436 57.9069 80.1758 57.5195 80.1758 56.9863C80.1758 56.4941 80.0436 56.1364 79.7793 55.9131C79.515 55.6852 79.0911 55.5713 78.5078 55.5713H78.2002V58.5107ZM76.0469 64V53.9922H78.5078C79.8203 53.9922 80.7887 54.2428 81.4131 54.7441C82.042 55.2454 82.3564 56.0202 82.3564 57.0684C82.3564 58.0391 82.0397 58.8001 81.4062 59.3516C80.7773 59.903 79.9046 60.1787 78.7881 60.1787H78.2002V64H76.0469ZM91.0791 64H88.6113L85.9795 59.3242V64H83.8398V53.9922H86.9023C88.1191 53.9922 89.0306 54.2292 89.6367 54.7031C90.2428 55.1725 90.5459 55.8812 90.5459 56.8291C90.5459 57.5173 90.3385 58.1051 89.9238 58.5928C89.5091 59.0804 88.9736 59.3652 88.3174 59.4473L91.0791 64ZM85.9795 58.2578H86.3008C87.1667 58.2578 87.7386 58.1644 88.0166 57.9775C88.2946 57.7861 88.4336 57.4557 88.4336 56.9863C88.4336 56.4941 88.2832 56.1455 87.9824 55.9404C87.6862 55.7308 87.1257 55.626 86.3008 55.626H85.9795V58.2578ZM92.3711 64V53.9922H94.5107V64H92.3711ZM96.8008 64V53.9922H102.693V55.7969H98.9404V57.8545H102.693V59.6729H98.9404V62.1816H102.693V64H96.8008ZM101.729 50.5195L99.5898 53.042H98.6191L99.9658 50.5195H101.729ZM108.538 55.8105V64H106.392V55.8105H103.944V53.9922H110.999V55.8105H108.538ZM112.387 64V53.9922H118.279V55.7969H114.526V57.8545H118.279V59.6729H114.526V62.1816H118.279V64H112.387ZM117.315 50.5195L115.176 53.042H114.205L115.552 50.5195H117.315ZM128.752 53.9922V60.582C128.752 61.334 128.722 61.8854 128.663 62.2363C128.604 62.5872 128.506 62.8857 128.369 63.1318C128.169 63.5055 127.872 63.7881 127.48 63.9795C127.093 64.1709 126.621 64.2666 126.065 64.2666C125.364 64.2666 124.801 64.0911 124.377 63.7402C123.958 63.3893 123.689 62.8743 123.57 62.1953L125.122 61.457C125.159 61.7715 125.238 62.0085 125.361 62.168C125.489 62.3275 125.662 62.4072 125.881 62.4072C126.154 62.4072 126.343 62.3092 126.448 62.1133C126.553 61.9128 126.605 61.4684 126.605 60.7803V59.8848V53.9922H128.752ZM141.159 59.0166C141.159 59.7321 141.025 60.4089 140.756 61.0469C140.492 61.6849 140.109 62.2454 139.607 62.7285C139.088 63.2253 138.502 63.6058 137.851 63.8701C137.199 64.1344 136.524 64.2666 135.827 64.2666C135.216 64.2666 134.617 64.1641 134.029 63.959C133.446 63.7493 132.91 63.4508 132.423 63.0635C131.794 62.5622 131.311 61.9629 130.974 61.2656C130.641 60.5684 130.475 59.8187 130.475 59.0166C130.475 58.2965 130.607 57.6221 130.871 56.9932C131.135 56.3597 131.523 55.7969 132.033 55.3047C132.535 54.8171 133.116 54.4388 133.776 54.1699C134.442 53.901 135.125 53.7666 135.827 53.7666C136.524 53.7666 137.201 53.901 137.857 54.1699C138.518 54.4388 139.102 54.8171 139.607 55.3047C140.113 55.7969 140.498 56.3597 140.763 56.9932C141.027 57.6266 141.159 58.3011 141.159 59.0166ZM135.827 62.3594C136.734 62.3594 137.481 62.0426 138.069 61.4092C138.662 60.7712 138.958 59.9736 138.958 59.0166C138.958 58.0687 138.66 57.2712 138.062 56.624C137.465 55.9769 136.72 55.6533 135.827 55.6533C134.92 55.6533 134.168 55.9769 133.571 56.624C132.974 57.2666 132.676 58.0641 132.676 59.0166C132.676 59.9827 132.97 60.7826 133.558 61.416C134.146 62.0449 134.902 62.3594 135.827 62.3594ZM142.971 64V53.9922H145.11V58.5244L148.446 53.9922H150.921L147.339 58.5518L151.051 64H148.474L145.11 58.7637V64H142.971ZM152.049 64V53.9922H157.941V55.7969H154.188V57.8545H157.941V59.6729H154.188V62.1816H157.941V64H152.049ZM167.286 64H164.818L162.187 59.3242V64H160.047V53.9922H163.109C164.326 53.9922 165.238 54.2292 165.844 54.7031C166.45 55.1725 166.753 55.8812 166.753 56.8291C166.753 57.5173 166.546 58.1051 166.131 58.5928C165.716 59.0804 165.181 59.3652 164.524 59.4473L167.286 64ZM162.187 58.2578H162.508C163.374 58.2578 163.946 58.1644 164.224 57.9775C164.502 57.7861 164.641 57.4557 164.641 56.9863C164.641 56.4941 164.49 56.1455 164.189 55.9404C163.893 55.7308 163.333 55.626 162.508 55.626H162.187V58.2578Z" fill="black"/>
</svg>
