<svg width="211" height="328" viewBox="0 0 211 328" fill="none" xmlns="http://www.w3.org/2000/svg" xmlns:xlink="http://www.w3.org/1999/xlink">
<rect x="3.05176e-05" y="9.2231e-06" width="211" height="328" rx="16" fill="#F22B76"/>
<rect x="21" y="25" width="168" height="276" fill="#FBA6C6" fill-opacity="0.8"/>
<rect x="21" y="25" width="168" height="276" fill="url(#pattern0_129_2332)"/>
<rect x="21" y="25" width="168" height="276" stroke="black" stroke-width="2"/>
<path d="M54 34.5C54 46.3741 44.3741 56 32.5 56C20.6259 56 11 46.3741 11 34.5C11 22.6259 20.6259 13 32.5 13C44.3741 13 54 22.6259 54 34.5Z" fill="white" stroke="black" stroke-width="2"/>
<path d="M27.364 29.6641C25.739 29.6641 24.7311 30.6823 24.3405 32.7188L28.2468 32.7188L28.2468 33.7578L24.2311 33.7578L24.2155 34.1953L24.2155 34.6797L24.2311 35.0234L27.7624 35.0234L27.7624 36.0625L24.3561 36.0625C24.5384 36.9688 24.8874 37.6719 25.403 38.1719C25.9239 38.6667 26.6218 38.9141 27.4968 38.9141C28.2884 38.9141 29.0827 38.7422 29.8796 38.3984L29.8796 39.6484C29.1192 39.987 28.2963 40.1563 27.4108 40.1563C26.1817 40.1563 25.1869 39.8099 24.4265 39.1172C23.6713 38.4193 23.1739 37.4011 22.9343 36.0625L21.653 36.0625L21.653 35.0234L22.8093 35.0234L22.7936 34.6953L22.7936 34.3672L22.8093 33.7578L21.653 33.7578L21.653 32.7188L22.9186 32.7188C23.127 31.3438 23.6166 30.2865 24.3874 29.5469C25.1582 28.8021 26.1504 28.4297 27.364 28.4297C28.4317 28.4297 29.3874 28.6771 30.2311 29.1719L29.6374 30.3203C28.7936 29.8828 28.0358 29.6641 27.364 29.6641ZM30.9343 40L33.739 34.5469C34.0827 33.8802 34.3457 33.263 34.528 32.6953C34.7155 32.1276 34.8093 31.6615 34.8093 31.2969C34.8093 30.9375 34.7364 30.6615 34.5905 30.4688C34.4499 30.2761 34.2468 30.1797 33.9811 30.1797C33.5957 30.1797 33.3301 30.3359 33.1843 30.6484C33.0436 30.9557 32.9733 31.5651 32.9733 32.4766L31.114 32.4766C31.1088 32.4245 31.1035 32.3672 31.0983 32.3047C31.0983 32.237 31.0983 32.1406 31.0983 32.0156C31.0983 30.849 31.3535 29.9636 31.864 29.3594C32.3744 28.75 33.1218 28.4453 34.1061 28.4453C34.9499 28.4453 35.6192 28.7005 36.114 29.2109C36.6088 29.7162 36.8561 30.4011 36.8561 31.2656C36.8561 31.8542 36.7285 32.5052 36.4733 33.2188C36.2181 33.9271 35.7233 34.9453 34.989 36.2734L34.0124 38.0313L36.5671 38.0313L36.5671 40L30.9343 40ZM37.6849 40L38.3366 33.3464L40.0456 33.3464L40.392 35.8848C40.4436 36.2706 40.4861 36.6413 40.5196 36.9968C40.556 37.3492 40.5849 37.6925 40.6061 38.0267C40.6608 37.4403 40.7064 36.9785 40.7429 36.6413C40.7824 36.301 40.8143 36.0488 40.8386 35.8848L41.267 33.3464L42.9577 33.3464L43.5183 40L42.1739 40L42.0326 36.9102C42.0295 36.8373 42.025 36.7279 42.0189 36.582C41.9794 35.7739 41.9597 35.1116 41.9597 34.5951L41.0938 40L40.1322 40L39.3164 34.5586C39.3164 35.0113 39.2891 35.6584 39.2344 36.5C39.2223 36.6914 39.2131 36.8342 39.2071 36.9284L39.002 40L37.6849 40Z" fill="black"/>
<circle cx="103" cy="163" r="69.4222" fill="#F22B76" fill-opacity="0.5" stroke="black" stroke-width="3.15556"/>
<path d="M103.526 97.7862C139.253 97.7862 168.214 126.748 168.214 162.475C168.214 198.201 139.253 227.163 103.526 227.163C67.7993 227.163 38.8375 198.201 38.8375 162.475C38.8375 126.748 67.7993 97.7861 103.526 97.7862Z" stroke="black" stroke-width="1.05185"/>
<path d="M81.906 146.24C75.8122 146.24 72.0329 150.059 70.5681 157.695L85.2165 157.695L85.2165 161.592L70.1579 161.592L70.0993 163.232L70.0993 165.049L70.1579 166.338L83.4001 166.338L83.4001 170.234L70.6267 170.234C71.3103 173.633 72.6189 176.27 74.5525 178.145C76.5056 180 79.1228 180.928 82.404 180.928C85.3728 180.928 88.3513 180.283 91.3396 178.994L91.3396 183.682C88.488 184.951 85.4021 185.586 82.0817 185.586C77.4724 185.586 73.7419 184.287 70.8903 181.689C68.0583 179.072 66.1931 175.254 65.2946 170.234L60.49 170.234L60.49 166.338L64.8259 166.338L64.7673 165.107L64.7673 163.877L64.8259 161.592L60.49 161.592L60.49 157.695L65.2361 157.695C66.0173 152.539 67.8532 148.574 70.7439 145.801C73.6345 143.008 77.3552 141.611 81.906 141.611C85.9099 141.611 89.4939 142.539 92.6579 144.395L90.4314 148.701C87.2673 147.061 84.4255 146.24 81.906 146.24ZM95.2946 185L105.812 164.551C107.101 162.051 108.088 159.736 108.771 157.607C109.474 155.479 109.826 153.73 109.826 152.363C109.826 151.016 109.552 149.98 109.006 149.258C108.478 148.535 107.717 148.174 106.72 148.174C105.275 148.174 104.279 148.76 103.732 149.932C103.205 151.084 102.941 153.369 102.941 156.787L95.9685 156.787C95.9489 156.592 95.9294 156.377 95.9099 156.143C95.9099 155.889 95.9099 155.527 95.9099 155.059C95.9099 150.684 96.8669 147.363 98.781 145.098C100.695 142.813 103.498 141.67 107.189 141.67C110.353 141.67 112.863 142.627 114.718 144.541C116.574 146.436 117.502 149.004 117.502 152.246C117.502 154.453 117.023 156.895 116.066 159.57C115.109 162.227 113.254 166.045 110.5 171.025L106.838 177.617L116.418 177.617L116.418 185L95.2946 185ZM120.67 185L123.314 158.005L130.247 158.005L131.653 168.304C131.862 169.869 132.035 171.373 132.17 172.815C132.318 174.245 132.435 175.638 132.522 176.994C132.743 174.615 132.928 172.741 133.076 171.373C133.237 169.993 133.366 168.97 133.465 168.304L135.203 158.005L142.062 158.005L144.336 185L138.882 185L138.309 172.464C138.297 172.168 138.278 171.725 138.253 171.133C138.093 167.854 138.013 165.167 138.013 163.071L134.5 185L130.599 185L127.289 162.923C127.289 164.76 127.178 167.386 126.956 170.8C126.907 171.577 126.87 172.156 126.845 172.538L126.013 185L120.67 185Z" fill="black"/>
<rect x="42" y="221" width="126" height="26" fill="black" stroke="#F22B76" stroke-width="2"/>
<path d="M56.4032 233.78H59.3632V239.46C58.6032 240.033 57.7232 240.473 56.7232 240.78C55.7232 241.087 54.7166 241.24 53.7032 241.24C52.2499 241.24 50.9432 240.933 49.7832 240.32C48.6232 239.693 47.7099 238.833 47.0432 237.74C46.3899 236.633 46.0632 235.387 46.0632 234C46.0632 232.613 46.3899 231.373 47.0432 230.28C47.7099 229.173 48.6299 228.313 49.8032 227.7C50.9766 227.073 52.2966 226.76 53.7632 226.76C54.9899 226.76 56.1032 226.967 57.1032 227.38C58.1032 227.793 58.9432 228.393 59.6232 229.18L57.5432 231.1C56.5432 230.047 55.3366 229.52 53.9232 229.52C53.0299 229.52 52.2366 229.707 51.5432 230.08C50.8499 230.453 50.3099 230.98 49.9232 231.66C49.5366 232.34 49.3432 233.12 49.3432 234C49.3432 234.867 49.5366 235.64 49.9232 236.32C50.3099 237 50.8432 237.533 51.5232 237.92C52.2166 238.293 53.0032 238.48 53.8832 238.48C54.8166 238.48 55.6566 238.28 56.4032 237.88V233.78ZM71.5929 238H65.0929L63.8529 241H60.5329L66.7729 227H69.9729L76.2329 241H72.8329L71.5929 238ZM70.5729 235.54L68.3529 230.18L66.1329 235.54H70.5729ZM90.5254 227V241H87.8654L80.8854 232.5V241H77.6854V227H80.3654L87.3254 235.5V227H90.5254ZM100.618 241.24C99.1644 241.24 97.8511 240.927 96.6778 240.3C95.5178 239.673 94.6044 238.813 93.9378 237.72C93.2844 236.613 92.9578 235.373 92.9578 234C92.9578 232.627 93.2844 231.393 93.9378 230.3C94.6044 229.193 95.5178 228.327 96.6778 227.7C97.8511 227.073 99.1644 226.76 100.618 226.76C102.071 226.76 103.378 227.073 104.538 227.7C105.698 228.327 106.611 229.193 107.278 230.3C107.944 231.393 108.278 232.627 108.278 234C108.278 235.373 107.944 236.613 107.278 237.72C106.611 238.813 105.698 239.673 104.538 240.3C103.378 240.927 102.071 241.24 100.618 241.24ZM100.618 238.48C101.444 238.48 102.191 238.293 102.858 237.92C103.524 237.533 104.044 237 104.418 236.32C104.804 235.64 104.998 234.867 104.998 234C104.998 233.133 104.804 232.36 104.418 231.68C104.044 231 103.524 230.473 102.858 230.1C102.191 229.713 101.444 229.52 100.618 229.52C99.7911 229.52 99.0444 229.713 98.3778 230.1C97.7111 230.473 97.1844 231 96.7978 231.68C96.4244 232.36 96.2378 233.133 96.2378 234C96.2378 234.867 96.4244 235.64 96.7978 236.32C97.1844 237 97.7111 237.533 98.3778 237.92C99.0444 238.293 99.7911 238.48 100.618 238.48ZM116.773 227C118.013 227 119.086 227.207 119.993 227.62C120.913 228.033 121.619 228.62 122.113 229.38C122.606 230.14 122.853 231.04 122.853 232.08C122.853 233.107 122.606 234.007 122.113 234.78C121.619 235.54 120.913 236.127 119.993 236.54C119.086 236.94 118.013 237.14 116.773 237.14H113.953V241H110.713V227H116.773ZM116.593 234.5C117.566 234.5 118.306 234.293 118.813 233.88C119.319 233.453 119.573 232.853 119.573 232.08C119.573 231.293 119.319 230.693 118.813 230.28C118.306 229.853 117.566 229.64 116.593 229.64H113.953V234.5H116.593ZM132.141 241.24C130.688 241.24 129.375 240.927 128.201 240.3C127.041 239.673 126.128 238.813 125.461 237.72C124.808 236.613 124.481 235.373 124.481 234C124.481 232.627 124.808 231.393 125.461 230.3C126.128 229.193 127.041 228.327 128.201 227.7C129.375 227.073 130.688 226.76 132.141 226.76C133.595 226.76 134.901 227.073 136.061 227.7C137.221 228.327 138.135 229.193 138.801 230.3C139.468 231.393 139.801 232.627 139.801 234C139.801 235.373 139.468 236.613 138.801 237.72C138.135 238.813 137.221 239.673 136.061 240.3C134.901 240.927 133.595 241.24 132.141 241.24ZM132.141 238.48C132.968 238.48 133.715 238.293 134.381 237.92C135.048 237.533 135.568 237 135.941 236.32C136.328 235.64 136.521 234.867 136.521 234C136.521 233.133 136.328 232.36 135.941 231.68C135.568 231 135.048 230.473 134.381 230.1C133.715 229.713 132.968 229.52 132.141 229.52C131.315 229.52 130.568 229.713 129.901 230.1C129.235 230.473 128.708 231 128.321 231.68C127.948 232.36 127.761 233.133 127.761 234C127.761 234.867 127.948 235.64 128.321 236.32C128.708 237 129.235 237.533 129.901 237.92C130.568 238.293 131.315 238.48 132.141 238.48ZM142.236 227H145.476V238.36H152.496V241H142.236V227ZM159.581 236.04V241H156.341V236L150.921 227H154.361L158.101 233.22L161.841 227H165.021L159.581 236.04Z" fill="white"/>
<defs>
<pattern id="pattern0_129_2332" patternUnits="userSpaceOnUse" patternTransform="matrix(16.05 0 0 8.2125 20.894 24.8931)" preserveAspectRatio="none" viewBox="-0.353516 -0.356445 53.5 27.375" width="1" height="1">
<use xlink:href="#pattern0_129_2332_inner" transform="translate(-53.5 -27.375)"/>
<use xlink:href="#pattern0_129_2332_inner" transform="translate(0 -27.375)"/>
<use xlink:href="#pattern0_129_2332_inner" transform="translate(-53.5 0)"/>
<g id="pattern0_129_2332_inner">
<path d="M0 0L27 26.5L53.5 0M0 9.5L27 36.5L53.5 9.5" stroke="black" stroke-opacity="0.2"/>
</g>
</pattern></defs>
</svg>
