<svg width="211" height="328" viewBox="0 0 211 328" fill="none" xmlns="http://www.w3.org/2000/svg">
<rect width="211" height="328" rx="16" fill="white"/>
<rect x="11.5" y="11.5" width="187" height="306" stroke="black"/>
<path d="M50.037 233.06L65.5404 250.721C66.8157 252.173 66.6718 254.385 65.2192 255.66L53.195 266.216C51.7423 267.491 49.5309 267.347 48.2557 265.894L32.7522 248.234L50.037 233.06Z" fill="white" stroke="black"/>
<path d="M28.7854 238.41L40.8095 227.854C42.2622 226.579 44.4736 226.723 45.7488 228.175L50.6967 233.812L33.412 248.985L28.4641 243.349C27.2286 241.942 27.3254 239.822 28.6535 238.532L28.7854 238.41Z" fill="black" stroke="black"/>
<path d="M159.211 145.664C157.586 145.664 156.578 146.682 156.188 148.719H160.094V149.758H156.078L156.062 150.195V150.68L156.078 151.023H159.609V152.062H156.203C156.385 152.969 156.734 153.672 157.25 154.172C157.771 154.667 158.469 154.914 159.344 154.914C160.135 154.914 160.93 154.742 161.727 154.398V155.648C160.966 155.987 160.143 156.156 159.258 156.156C158.029 156.156 157.034 155.81 156.273 155.117C155.518 154.419 155.021 153.401 154.781 152.062H153.5V151.023H154.656L154.641 150.695V150.367L154.656 149.758H153.5V148.719H154.766C154.974 147.344 155.464 146.286 156.234 145.547C157.005 144.802 157.997 144.43 159.211 144.43C160.279 144.43 161.234 144.677 162.078 145.172L161.484 146.32C160.641 145.883 159.883 145.664 159.211 145.664ZM164.914 156V146.477H163.828V144.594H167.102V156H164.914ZM169.553 156L170.859 147.422H172.781L174.434 152.473C174.469 152.578 174.506 152.732 174.545 152.936C174.588 153.139 174.627 153.371 174.662 153.633C174.693 153.367 174.729 153.131 174.768 152.924C174.807 152.713 174.844 152.559 174.879 152.461L176.561 147.422H178.453L179.766 156H178.025L177.398 150.826C177.352 150.443 177.32 150.154 177.305 149.959C177.289 149.764 177.281 149.582 177.281 149.414C177.281 149.324 177.281 149.258 177.281 149.215C177.285 149.168 177.289 149.127 177.293 149.092C177.234 149.428 177.178 149.719 177.123 149.965C177.072 150.207 177.025 150.391 176.982 150.516L175.166 156H174.135L172.348 150.516C172.332 150.465 172.297 150.324 172.242 150.094C172.191 149.863 172.119 149.527 172.025 149.086V149.338C172.025 149.736 171.99 150.225 171.92 150.803L171.914 150.826L171.293 156H169.553Z" fill="black"/>
<path d="M159.211 194.664C157.586 194.664 156.578 195.682 156.188 197.719H160.094V198.758H156.078L156.062 199.195V199.68L156.078 200.023H159.609V201.062H156.203C156.385 201.969 156.734 202.672 157.25 203.172C157.771 203.667 158.469 203.914 159.344 203.914C160.135 203.914 160.93 203.742 161.727 203.398V204.648C160.966 204.987 160.143 205.156 159.258 205.156C158.029 205.156 157.034 204.81 156.273 204.117C155.518 203.419 155.021 202.401 154.781 201.062H153.5V200.023H154.656L154.641 199.695V199.367L154.656 198.758H153.5V197.719H154.766C154.974 196.344 155.464 195.286 156.234 194.547C157.005 193.802 157.997 193.43 159.211 193.43C160.279 193.43 161.234 193.677 162.078 194.172L161.484 195.32C160.641 194.883 159.883 194.664 159.211 194.664ZM162.781 205L165.586 199.547C165.93 198.88 166.193 198.263 166.375 197.695C166.562 197.128 166.656 196.661 166.656 196.297C166.656 195.938 166.583 195.661 166.438 195.469C166.297 195.276 166.094 195.18 165.828 195.18C165.443 195.18 165.177 195.336 165.031 195.648C164.891 195.956 164.82 196.565 164.82 197.477H162.961C162.956 197.424 162.951 197.367 162.945 197.305C162.945 197.237 162.945 197.141 162.945 197.016C162.945 195.849 163.201 194.964 163.711 194.359C164.221 193.75 164.969 193.445 165.953 193.445C166.797 193.445 167.466 193.701 167.961 194.211C168.456 194.716 168.703 195.401 168.703 196.266C168.703 196.854 168.576 197.505 168.32 198.219C168.065 198.927 167.57 199.945 166.836 201.273L165.859 203.031H168.414V205H162.781ZM169.553 205L170.859 196.422H172.781L174.434 201.473C174.469 201.578 174.506 201.732 174.545 201.936C174.588 202.139 174.627 202.371 174.662 202.633C174.693 202.367 174.729 202.131 174.768 201.924C174.807 201.713 174.844 201.559 174.879 201.461L176.561 196.422H178.453L179.766 205H178.025L177.398 199.826C177.352 199.443 177.32 199.154 177.305 198.959C177.289 198.764 177.281 198.582 177.281 198.414C177.281 198.324 177.281 198.258 177.281 198.215C177.285 198.168 177.289 198.127 177.293 198.092C177.234 198.428 177.178 198.719 177.123 198.965C177.072 199.207 177.025 199.391 176.982 199.516L175.166 205H174.135L172.348 199.516C172.332 199.465 172.297 199.324 172.242 199.094C172.191 198.863 172.119 198.527 172.025 198.086V198.338C172.025 198.736 171.99 199.225 171.92 199.803L171.914 199.826L171.293 205H169.553Z" fill="black"/>
<path d="M159.211 243.664C157.586 243.664 156.578 244.682 156.188 246.719H160.094V247.758H156.078L156.062 248.195V248.68L156.078 249.023H159.609V250.062H156.203C156.385 250.969 156.734 251.672 157.25 252.172C157.771 252.667 158.469 252.914 159.344 252.914C160.135 252.914 160.93 252.742 161.727 252.398V253.648C160.966 253.987 160.143 254.156 159.258 254.156C158.029 254.156 157.034 253.81 156.273 253.117C155.518 252.419 155.021 251.401 154.781 250.062H153.5V249.023H154.656L154.641 248.695V248.367L154.656 247.758H153.5V246.719H154.766C154.974 245.344 155.464 244.286 156.234 243.547C157.005 242.802 157.997 242.43 159.211 242.43C160.279 242.43 161.234 242.677 162.078 243.172L161.484 244.32C160.641 243.883 159.883 243.664 159.211 243.664ZM162.672 250.734H164.578V250.867C164.578 251.31 164.654 251.648 164.805 251.883C164.961 252.112 165.185 252.227 165.477 252.227C165.799 252.227 166.047 252.083 166.219 251.797C166.396 251.51 166.484 251.104 166.484 250.578C166.484 249.974 166.372 249.544 166.148 249.289C165.924 249.029 165.555 248.898 165.039 248.898C165.008 248.898 164.964 248.901 164.906 248.906C164.849 248.911 164.802 248.914 164.766 248.914V247.039H164.914C165.529 247.039 165.969 246.927 166.234 246.703C166.505 246.479 166.641 246.112 166.641 245.602C166.641 245.211 166.562 244.906 166.406 244.688C166.25 244.464 166.034 244.352 165.758 244.352C165.471 244.352 165.253 244.461 165.102 244.68C164.956 244.898 164.883 245.221 164.883 245.648V245.773H163.039V245.508C163.039 244.513 163.281 243.755 163.766 243.234C164.25 242.708 164.953 242.445 165.875 242.445C166.729 242.445 167.385 242.714 167.844 243.25C168.302 243.786 168.531 244.555 168.531 245.555C168.531 246.242 168.385 246.792 168.094 247.203C167.802 247.609 167.383 247.849 166.836 247.922V248.062C167.523 248.198 168.036 248.487 168.375 248.93C168.714 249.372 168.883 249.974 168.883 250.734C168.883 251.797 168.586 252.633 167.992 253.242C167.404 253.852 166.596 254.156 165.57 254.156C164.643 254.156 163.924 253.885 163.414 253.344C162.909 252.802 162.656 252.034 162.656 251.039C162.656 251.008 162.659 250.961 162.664 250.898C162.669 250.831 162.672 250.776 162.672 250.734ZM169.553 254L170.859 245.422H172.781L174.434 250.473C174.469 250.578 174.506 250.732 174.545 250.936C174.588 251.139 174.627 251.371 174.662 251.633C174.693 251.367 174.729 251.131 174.768 250.924C174.807 250.713 174.844 250.559 174.879 250.461L176.561 245.422H178.453L179.766 254H178.025L177.398 248.826C177.352 248.443 177.32 248.154 177.305 247.959C177.289 247.764 177.281 247.582 177.281 247.414C177.281 247.324 177.281 247.258 177.281 247.215C177.285 247.168 177.289 247.127 177.293 247.092C177.234 247.428 177.178 247.719 177.123 247.965C177.072 248.207 177.025 248.391 176.982 248.516L175.166 254H174.135L172.348 248.516C172.332 248.465 172.297 248.324 172.242 248.094C172.191 247.863 172.119 247.527 172.025 247.086V247.338C172.025 247.736 171.99 248.225 171.92 248.803L171.914 248.826L171.293 254H169.553Z" fill="black"/>
<path d="M29.4902 113.919L28.9678 114.192C28.5837 113.473 28.2939 112.711 28.0986 111.907C27.9066 111.1 27.8105 110.25 27.8105 109.358C27.8105 108.411 27.9049 107.539 28.0938 106.741C28.2858 105.944 28.5771 105.2 28.9678 104.51L29.4902 104.749C29.1387 105.442 28.8783 106.165 28.709 106.917C28.543 107.666 28.46 108.479 28.46 109.358C28.46 110.267 28.5446 111.093 28.7139 111.839C28.8831 112.584 29.1419 113.278 29.4902 113.919ZM30.7402 112V104.568L35.9697 110.281V104.852H36.7803V112.278L31.5508 106.629V112H30.7402ZM38.8652 109.778C38.8652 110.25 39.0231 110.651 39.3389 110.979C39.6546 111.305 40.0371 111.468 40.4863 111.468C40.9323 111.468 41.3115 111.305 41.624 110.979C41.9365 110.651 42.0928 110.25 42.0928 109.778C42.0928 109.306 41.9365 108.908 41.624 108.582C41.3115 108.253 40.9323 108.089 40.4863 108.089C40.0339 108.089 39.6497 108.253 39.334 108.582C39.0215 108.908 38.8652 109.306 38.8652 109.778ZM38.0547 109.778C38.0547 109.45 38.1149 109.14 38.2354 108.851C38.3558 108.558 38.5316 108.297 38.7627 108.069C38.9938 107.841 39.2559 107.669 39.5488 107.552C39.8418 107.431 40.1543 107.371 40.4863 107.371C40.8118 107.371 41.1195 107.431 41.4092 107.552C41.7021 107.672 41.9674 107.848 42.2051 108.079C42.4362 108.304 42.612 108.562 42.7324 108.855C42.8529 109.145 42.9131 109.453 42.9131 109.778C42.9131 110.104 42.8529 110.411 42.7324 110.701C42.612 110.988 42.4362 111.243 42.2051 111.468C41.9674 111.702 41.7005 111.881 41.4043 112.005C41.1113 112.129 40.8053 112.19 40.4863 112.19C40.1576 112.19 39.8451 112.129 39.5488 112.005C39.2559 111.884 38.9938 111.71 38.7627 111.482C38.5316 111.248 38.3558 110.988 38.2354 110.701C38.1149 110.415 38.0547 110.107 38.0547 109.778ZM50.3301 112V109.368C50.3301 108.916 50.2389 108.58 50.0566 108.362C49.8743 108.141 49.5944 108.03 49.2168 108.03C49.0117 108.03 48.8213 108.073 48.6455 108.157C48.473 108.239 48.3265 108.356 48.2061 108.509C48.1182 108.626 48.0547 108.763 48.0156 108.919C47.9766 109.075 47.957 109.332 47.957 109.69V112H47.2197V109.368C47.2197 108.916 47.1286 108.58 46.9463 108.362C46.764 108.141 46.484 108.03 46.1064 108.03C45.9014 108.03 45.7093 108.073 45.5303 108.157C45.3545 108.239 45.2064 108.356 45.0859 108.509C45.0013 108.623 44.9395 108.755 44.9004 108.904C44.8646 109.054 44.8467 109.316 44.8467 109.69V112H44.1094V107.532H44.8564V108.221C45.042 107.934 45.2633 107.721 45.5205 107.581C45.7777 107.441 46.0739 107.371 46.4092 107.371C46.7705 107.371 47.0781 107.449 47.332 107.605C47.5859 107.758 47.778 107.983 47.9082 108.279C48.1003 107.973 48.3265 107.745 48.5869 107.596C48.8506 107.446 49.1549 107.371 49.5 107.371C49.998 107.371 50.387 107.511 50.667 107.791C50.9469 108.071 51.0869 108.46 51.0869 108.958V112H50.3301ZM53.3232 109.788C53.3232 110.309 53.4567 110.716 53.7236 111.009C53.9906 111.302 54.3568 111.448 54.8223 111.448C55.278 111.448 55.6344 111.294 55.8916 110.984C56.152 110.672 56.2822 110.241 56.2822 109.69C56.2822 109.202 56.1553 108.82 55.9014 108.543C55.6475 108.266 55.2959 108.128 54.8467 108.128C54.391 108.128 54.0231 108.281 53.7432 108.587C53.4632 108.89 53.3232 109.29 53.3232 109.788ZM52.5957 104.432H53.3525V108.372C53.5251 108.04 53.748 107.791 54.0215 107.625C54.2949 107.456 54.6156 107.371 54.9834 107.371C55.6247 107.371 56.1357 107.589 56.5166 108.025C56.9007 108.462 57.0928 109.046 57.0928 109.778C57.0928 110.504 56.8975 111.089 56.5068 111.531C56.1162 111.971 55.5986 112.19 54.9541 112.19C54.609 112.19 54.2949 112.104 54.0117 111.932C53.7285 111.756 53.499 111.508 53.3232 111.189V112H52.5957V104.432ZM58.3281 112V107.532H59.0068V108.46C59.2119 108.073 59.43 107.796 59.6611 107.63C59.8923 107.464 60.1738 107.381 60.5059 107.381C60.597 107.381 60.6849 107.389 60.7695 107.405C60.8542 107.418 60.9388 107.439 61.0234 107.469L60.7695 108.157C60.6816 108.128 60.5986 108.107 60.5205 108.094C60.4424 108.077 60.3675 108.069 60.2959 108.069C59.8923 108.069 59.5895 108.216 59.3877 108.509C59.1859 108.799 59.085 109.236 59.085 109.822V112H58.3281ZM65.0029 109.261C64.9769 108.867 64.8451 108.564 64.6074 108.353C64.373 108.138 64.0508 108.03 63.6406 108.03C63.2695 108.03 62.9603 108.143 62.7129 108.367C62.4655 108.589 62.3223 108.886 62.2832 109.261H65.0029ZM65.8232 109.881H62.2832V109.949C62.2832 110.428 62.4199 110.815 62.6934 111.111C62.9668 111.404 63.3232 111.551 63.7627 111.551C64.0622 111.551 64.3324 111.471 64.5732 111.312C64.8141 111.149 65.0273 110.905 65.2129 110.579L65.7939 110.97C65.5693 111.373 65.2829 111.678 64.9346 111.883C64.5863 112.088 64.1826 112.19 63.7236 112.19C63.0433 112.19 62.4932 111.966 62.0732 111.517C61.6533 111.067 61.4434 110.478 61.4434 109.749C61.4434 109.049 61.6517 108.476 62.0684 108.03C62.485 107.584 63.0205 107.361 63.6748 107.361C64.3356 107.361 64.8581 107.573 65.2422 107.996C65.6296 108.419 65.8232 108.997 65.8232 109.729V109.881ZM73.3477 109.788C73.3477 109.29 73.2093 108.89 72.9326 108.587C72.6559 108.281 72.2913 108.128 71.8389 108.128C71.3864 108.128 71.0332 108.266 70.7793 108.543C70.5254 108.82 70.3984 109.202 70.3984 109.69C70.3984 110.241 70.527 110.672 70.7842 110.984C71.0413 111.294 71.3962 111.448 71.8486 111.448C72.3174 111.448 72.6836 111.302 72.9473 111.009C73.2142 110.716 73.3477 110.309 73.3477 109.788ZM74.0898 104.432V112H73.3477V111.189C73.1719 111.512 72.944 111.759 72.6641 111.932C72.3841 112.104 72.0716 112.19 71.7266 112.19C71.0853 112.19 70.5677 111.971 70.1738 111.531C69.7832 111.089 69.5879 110.504 69.5879 109.778C69.5879 109.046 69.7799 108.462 70.1641 108.025C70.5482 107.589 71.0592 107.371 71.6973 107.371C72.0684 107.371 72.3906 107.456 72.6641 107.625C72.9375 107.791 73.1589 108.04 73.3281 108.372V104.432H74.0898ZM78.8213 109.261C78.7952 108.867 78.6634 108.564 78.4258 108.353C78.1914 108.138 77.8691 108.03 77.459 108.03C77.0879 108.03 76.7786 108.143 76.5312 108.367C76.2839 108.589 76.1406 108.886 76.1016 109.261H78.8213ZM79.6416 109.881H76.1016V109.949C76.1016 110.428 76.2383 110.815 76.5117 111.111C76.7852 111.404 77.1416 111.551 77.5811 111.551C77.8805 111.551 78.1507 111.471 78.3916 111.312C78.6325 111.149 78.8457 110.905 79.0312 110.579L79.6123 110.97C79.3877 111.373 79.1012 111.678 78.7529 111.883C78.4046 112.088 78.001 112.19 77.542 112.19C76.8617 112.19 76.3115 111.966 75.8916 111.517C75.4717 111.067 75.2617 110.478 75.2617 109.749C75.2617 109.049 75.4701 108.476 75.8867 108.03C76.3034 107.584 76.8389 107.361 77.4932 107.361C78.154 107.361 78.6764 107.573 79.0605 107.996C79.4479 108.419 79.6416 108.997 79.6416 109.729V109.881ZM28.5186 121.778C28.5186 122.28 28.6569 122.682 28.9336 122.984C29.2103 123.287 29.5765 123.438 30.0322 123.438C30.4782 123.438 30.8281 123.3 31.082 123.023C31.3392 122.747 31.4678 122.363 31.4678 121.871C31.4678 121.321 31.3392 120.89 31.082 120.577C30.8281 120.265 30.4733 120.108 30.0176 120.108C29.5521 120.108 29.1859 120.257 28.9189 120.553C28.652 120.849 28.5186 121.257 28.5186 121.778ZM27.7812 126.178V119.532H28.5088V120.372C28.6813 120.05 28.9092 119.802 29.1924 119.63C29.4756 119.457 29.7913 119.371 30.1396 119.371C30.7842 119.371 31.3018 119.591 31.6924 120.03C32.083 120.47 32.2783 121.052 32.2783 121.778C32.2783 122.517 32.0863 123.105 31.7021 123.541C31.3213 123.974 30.8102 124.19 30.1689 124.19C29.8011 124.19 29.4805 124.107 29.207 123.941C28.9336 123.772 28.7106 123.521 28.5381 123.189V126.178H27.7812ZM33.5137 124V119.532H34.1924V120.46C34.3975 120.073 34.6156 119.796 34.8467 119.63C35.0778 119.464 35.3594 119.381 35.6914 119.381C35.7826 119.381 35.8704 119.389 35.9551 119.405C36.0397 119.418 36.1243 119.439 36.209 119.469L35.9551 120.157C35.8672 120.128 35.7842 120.107 35.7061 120.094C35.6279 120.077 35.5531 120.069 35.4814 120.069C35.0778 120.069 34.7751 120.216 34.5732 120.509C34.3714 120.799 34.2705 121.236 34.2705 121.822V124H33.5137ZM37.4688 121.778C37.4688 122.25 37.6266 122.651 37.9424 122.979C38.2581 123.305 38.6406 123.468 39.0898 123.468C39.5358 123.468 39.915 123.305 40.2275 122.979C40.54 122.651 40.6963 122.25 40.6963 121.778C40.6963 121.306 40.54 120.908 40.2275 120.582C39.915 120.253 39.5358 120.089 39.0898 120.089C38.6374 120.089 38.2533 120.253 37.9375 120.582C37.625 120.908 37.4688 121.306 37.4688 121.778ZM36.6582 121.778C36.6582 121.45 36.7184 121.14 36.8389 120.851C36.9593 120.558 37.1351 120.297 37.3662 120.069C37.5973 119.841 37.8594 119.669 38.1523 119.552C38.4453 119.431 38.7578 119.371 39.0898 119.371C39.4154 119.371 39.723 119.431 40.0127 119.552C40.3057 119.672 40.571 119.848 40.8086 120.079C41.0397 120.304 41.2155 120.562 41.3359 120.855C41.4564 121.145 41.5166 121.453 41.5166 121.778C41.5166 122.104 41.4564 122.411 41.3359 122.701C41.2155 122.988 41.0397 123.243 40.8086 123.468C40.571 123.702 40.304 123.881 40.0078 124.005C39.7148 124.129 39.4089 124.19 39.0898 124.19C38.7611 124.19 38.4486 124.129 38.1523 124.005C37.8594 123.884 37.5973 123.71 37.3662 123.482C37.1351 123.248 36.9593 122.988 36.8389 122.701C36.7184 122.415 36.6582 122.107 36.6582 121.778ZM43.4502 121.778C43.4502 122.28 43.5885 122.682 43.8652 122.984C44.1419 123.287 44.5081 123.438 44.9639 123.438C45.4098 123.438 45.7598 123.3 46.0137 123.023C46.2708 122.747 46.3994 122.363 46.3994 121.871C46.3994 121.321 46.2708 120.89 46.0137 120.577C45.7598 120.265 45.4049 120.108 44.9492 120.108C44.4837 120.108 44.1175 120.257 43.8506 120.553C43.5837 120.849 43.4502 121.257 43.4502 121.778ZM42.7129 126.178V119.532H43.4404V120.372C43.613 120.05 43.8408 119.802 44.124 119.63C44.4072 119.457 44.723 119.371 45.0713 119.371C45.7158 119.371 46.2334 119.591 46.624 120.03C47.0146 120.47 47.21 121.052 47.21 121.778C47.21 122.517 47.0179 123.105 46.6338 123.541C46.2529 123.974 45.7419 124.19 45.1006 124.19C44.7327 124.19 44.4121 124.107 44.1387 123.941C43.8652 123.772 43.6423 123.521 43.4697 123.189V126.178H42.7129ZM48.4453 124V119.532H49.124V120.46C49.3291 120.073 49.5472 119.796 49.7783 119.63C50.0094 119.464 50.291 119.381 50.623 119.381C50.7142 119.381 50.8021 119.389 50.8867 119.405C50.9714 119.418 51.056 119.439 51.1406 119.469L50.8867 120.157C50.7988 120.128 50.7158 120.107 50.6377 120.094C50.5596 120.077 50.4847 120.069 50.4131 120.069C50.0094 120.069 49.7067 120.216 49.5049 120.509C49.3031 120.799 49.2021 121.236 49.2021 121.822V124H48.4453ZM51.8096 117.379C51.8096 117.226 51.8633 117.096 51.9707 116.988C52.0814 116.878 52.2148 116.822 52.3711 116.822C52.5241 116.822 52.6543 116.878 52.7617 116.988C52.8724 117.099 52.9277 117.232 52.9277 117.389C52.9277 117.542 52.874 117.672 52.7666 117.779C52.6592 117.887 52.5273 117.94 52.3711 117.94C52.2148 117.94 52.0814 117.887 51.9707 117.779C51.8633 117.672 51.8096 117.538 51.8096 117.379ZM51.9902 124V119.532H52.7617V124H51.9902ZM57.542 121.261C57.516 120.867 57.3841 120.564 57.1465 120.353C56.9121 120.138 56.5898 120.03 56.1797 120.03C55.8086 120.03 55.4993 120.143 55.252 120.367C55.0046 120.589 54.8613 120.886 54.8223 121.261H57.542ZM58.3623 121.881H54.8223V121.949C54.8223 122.428 54.959 122.815 55.2324 123.111C55.5059 123.404 55.8623 123.551 56.3018 123.551C56.6012 123.551 56.8714 123.471 57.1123 123.312C57.3532 123.149 57.5664 122.905 57.752 122.579L58.333 122.97C58.1084 123.373 57.8219 123.678 57.4736 123.883C57.1253 124.088 56.7217 124.19 56.2627 124.19C55.5824 124.19 55.0322 123.966 54.6123 123.517C54.1924 123.067 53.9824 122.478 53.9824 121.749C53.9824 121.049 54.1908 120.476 54.6074 120.03C55.0241 119.584 55.5596 119.361 56.2139 119.361C56.8747 119.361 57.3971 119.573 57.7812 119.996C58.1686 120.419 58.3623 120.997 58.3623 121.729V121.881ZM55.4619 118.829L56.458 117.13H57.4395L56.0479 118.829H55.4619ZM59.6367 120.162H58.8164V119.532H59.6367V117.73H60.418V119.532H61.2383V120.162H60.418V124H59.6367V120.162ZM65.2764 121.261C65.2503 120.867 65.1185 120.564 64.8809 120.353C64.6465 120.138 64.3242 120.03 63.9141 120.03C63.543 120.03 63.2337 120.143 62.9863 120.367C62.7389 120.589 62.5957 120.886 62.5566 121.261H65.2764ZM66.0967 121.881H62.5566V121.949C62.5566 122.428 62.6934 122.815 62.9668 123.111C63.2402 123.404 63.5967 123.551 64.0361 123.551C64.3356 123.551 64.6058 123.471 64.8467 123.312C65.0876 123.149 65.3008 122.905 65.4863 122.579L66.0674 122.97C65.8428 123.373 65.5563 123.678 65.208 123.883C64.8597 124.088 64.4561 124.19 63.9971 124.19C63.3167 124.19 62.7666 123.966 62.3467 123.517C61.9268 123.067 61.7168 122.478 61.7168 121.749C61.7168 121.049 61.9251 120.476 62.3418 120.03C62.7585 119.584 63.2939 119.361 63.9482 119.361C64.609 119.361 65.1315 119.573 65.5156 119.996C65.903 120.419 66.0967 120.997 66.0967 121.729V121.881ZM63.1963 118.829L64.1924 117.13H65.1738L63.7822 118.829H63.1963ZM66.7803 123.248L67.4346 122.809C67.5583 123.046 67.7145 123.225 67.9033 123.346C68.0921 123.463 68.3151 123.521 68.5723 123.521C68.8229 123.521 69.0247 123.46 69.1777 123.336C69.334 123.212 69.4121 123.049 69.4121 122.848C69.4121 122.691 69.3584 122.561 69.251 122.457C69.1468 122.353 68.9661 122.257 68.709 122.169C68.6829 122.159 68.6406 122.145 68.582 122.125C67.4948 121.751 66.9512 121.282 66.9512 120.719C66.9512 120.322 67.0977 119.998 67.3906 119.747C67.6836 119.496 68.0645 119.371 68.5332 119.371C68.9206 119.371 69.2526 119.449 69.5293 119.605C69.806 119.758 70.0046 119.977 70.125 120.26L69.5049 120.641C69.4137 120.436 69.2786 120.278 69.0996 120.167C68.9238 120.056 68.7188 120.001 68.4844 120.001C68.2598 120.001 68.0758 120.064 67.9326 120.191C67.7926 120.315 67.7227 120.475 67.7227 120.67C67.7227 120.943 68.0189 121.173 68.6113 121.358C68.722 121.394 68.8099 121.422 68.875 121.441C69.36 121.598 69.6969 121.777 69.8857 121.979C70.0778 122.177 70.1738 122.441 70.1738 122.77C70.1738 123.193 70.0225 123.536 69.7197 123.8C69.4202 124.06 69.028 124.19 68.543 124.19C68.1263 124.19 67.7715 124.112 67.4785 123.956C67.1888 123.8 66.9561 123.564 66.7803 123.248ZM70.9355 125.919C71.2839 125.278 71.5426 124.584 71.7119 123.839C71.8812 123.093 71.9658 122.267 71.9658 121.358C71.9658 120.479 71.8812 119.666 71.7119 118.917C71.5459 118.165 71.2871 117.442 70.9355 116.749L71.4531 116.51C71.847 117.2 72.1383 117.944 72.3271 118.741C72.5192 119.539 72.6152 120.411 72.6152 121.358C72.6152 122.25 72.5176 123.1 72.3223 123.907C72.1302 124.711 71.8405 125.473 71.4531 126.192L70.9355 125.919Z" fill="black"/>
<rect x="27.5" y="28.5" width="160" height="57" fill="black" stroke="black"/>
<path d="M42.1756 77.5454V70.1752C42.1756 68.4871 40.8075 67.1186 39.119 67.1186H37.7L37.8692 65.6131H38.179C38.5107 65.6131 38.7945 65.8149 38.9161 66.1017L39.4807 65.8634V65.8631C39.2669 65.3559 38.7646 65.0006 38.179 65L33.8202 65.0003C33.2352 65.0006 32.7329 65.356 32.5188 65.8631L33.0834 66.102C33.2053 65.8149 33.4891 65.6131 33.8202 65.6134H34.1304L34.2995 67.1187H32.8808C31.1929 67.1187 29.8242 68.4871 29.8242 70.1753V77.5455C29.8242 78.8253 30.7553 79.8917 31.9761 80.1039L30.0589 83H31.7635L32.5503 81.8109H39.4502L40.2369 83H41.9409L40.0243 80.1039C41.2446 79.8913 42.1756 78.8253 42.1756 77.5454ZM37.2522 65.6131L37.0834 67.1187H34.9165L34.7471 65.6134L37.2522 65.6131ZM33.3532 68.491H38.6466V69.3732H33.3532V68.491ZM31.7605 71.3425C31.7605 70.9587 32.0713 70.6474 32.4551 70.6474H39.5448C39.9286 70.6474 40.24 70.9587 40.24 71.3425V73.6614C40.24 74.0452 39.9286 74.3562 39.5448 74.3562H32.455C32.0713 74.3562 31.7605 74.0452 31.7605 73.6614L31.7605 71.3425ZM32.4221 78.3065C31.9743 78.3065 31.6114 77.9436 31.6114 77.4964C31.6114 77.0485 31.9743 76.6859 32.4221 76.6859C32.8694 76.6859 33.2322 77.0485 33.2322 77.4964C33.2322 77.9436 32.8694 78.3065 32.4221 78.3065ZM33.0616 81.0379L33.6538 80.1428H38.3461L38.9383 81.0379H33.0616ZM39.5777 78.3065C39.1304 78.3065 38.7676 77.9436 38.7676 77.4964C38.7676 77.0485 39.1304 76.6859 39.5777 76.6859C40.0255 76.6859 40.3884 77.0485 40.3884 77.4964C40.3884 77.9436 40.0255 78.3065 39.5777 78.3065Z" fill="white"/>
<path d="M184.176 77.5454V70.1752C184.176 68.4871 182.807 67.1186 181.119 67.1186H179.7L179.869 65.6131H180.179C180.511 65.6131 180.795 65.8149 180.916 66.1017L181.481 65.8634V65.8631C181.267 65.3559 180.765 65.0006 180.179 65L175.82 65.0003C175.235 65.0006 174.733 65.356 174.519 65.8631L175.083 66.102C175.205 65.8149 175.489 65.6131 175.82 65.6134H176.13L176.299 67.1187H174.881C173.193 67.1187 171.824 68.4871 171.824 70.1753V77.5455C171.824 78.8253 172.755 79.8917 173.976 80.1039L172.059 83H173.764L174.55 81.8109H181.45L182.237 83H183.941L182.024 80.1039C183.245 79.8913 184.176 78.8253 184.176 77.5454ZM179.252 65.6131L179.083 67.1187H176.916L176.747 65.6134L179.252 65.6131ZM175.353 68.491H180.647V69.3732H175.353V68.491ZM173.761 71.3425C173.761 70.9587 174.071 70.6474 174.455 70.6474H181.545C181.929 70.6474 182.24 70.9587 182.24 71.3425V73.6614C182.24 74.0452 181.929 74.3562 181.545 74.3562H174.455C174.071 74.3562 173.76 74.0452 173.76 73.6614L173.761 71.3425ZM174.422 78.3065C173.974 78.3065 173.611 77.9436 173.611 77.4964C173.611 77.0485 173.974 76.6859 174.422 76.6859C174.869 76.6859 175.232 77.0485 175.232 77.4964C175.232 77.9436 174.869 78.3065 174.422 78.3065ZM175.062 81.0379L175.654 80.1428H180.346L180.938 81.0379H175.062ZM181.578 78.3065C181.13 78.3065 180.768 77.9436 180.768 77.4964C180.768 77.0485 181.13 76.6859 181.578 76.6859C182.026 76.6859 182.388 77.0485 182.388 77.4964C182.388 77.9436 182.026 78.3065 181.578 78.3065Z" fill="white"/>
<circle cx="38.5" cy="39.5" r="22" fill="#D9D9D9" stroke="black"/>
<path d="M30.957 31.9121C28.1133 31.9121 26.3496 33.694 25.666 37.2578H32.502V39.0762H25.4746L25.4473 39.8418V40.6895L25.4746 41.291H31.6543V43.1094H25.6934C26.0124 44.6953 26.623 45.9258 27.5254 46.8008C28.4368 47.6667 29.6582 48.0996 31.1895 48.0996C32.5749 48.0996 33.9648 47.7988 35.3594 47.1973V49.3848C34.0286 49.9772 32.5885 50.2734 31.0391 50.2734C28.888 50.2734 27.1471 49.6673 25.8164 48.4551C24.4948 47.2337 23.6243 45.4518 23.2051 43.1094H20.9629V41.291H22.9863L22.959 40.7168V40.1426L22.9863 39.0762H20.9629V37.2578H23.1777C23.5423 34.8516 24.3991 33.0013 25.748 31.707C27.097 30.4036 28.8333 29.752 30.957 29.752C32.8255 29.752 34.498 30.1849 35.9746 31.0508L34.9355 33.0605C33.459 32.2949 32.1328 31.9121 30.957 31.9121ZM37.2051 50L42.1133 40.457C42.7148 39.2904 43.1751 38.2103 43.4941 37.2168C43.8223 36.2233 43.9863 35.4076 43.9863 34.7695C43.9863 34.1406 43.8587 33.6576 43.6035 33.3203C43.3574 32.9831 43.002 32.8145 42.5371 32.8145C41.8626 32.8145 41.3978 33.0879 41.1426 33.6348C40.8965 34.1725 40.7734 35.2389 40.7734 36.834H37.5195C37.5104 36.7428 37.5013 36.6426 37.4922 36.5332C37.4922 36.4147 37.4922 36.2461 37.4922 36.0273C37.4922 33.9857 37.9388 32.4362 38.832 31.3789C39.7253 30.3125 41.0332 29.7793 42.7559 29.7793C44.2324 29.7793 45.4036 30.2259 46.2695 31.1191C47.1354 32.0033 47.5684 33.2018 47.5684 34.7148C47.5684 35.7448 47.3451 36.8841 46.8984 38.1328C46.4518 39.3724 45.5859 41.1543 44.3008 43.4785L42.5918 46.5547H47.0625V50H37.2051ZM48.9277 50L49.7656 41.4453H51.9629L52.4082 44.709C52.4746 45.2051 52.5293 45.6816 52.5723 46.1387C52.6191 46.5918 52.6562 47.0332 52.6836 47.4629C52.7539 46.709 52.8125 46.1152 52.8594 45.6816C52.9102 45.2441 52.9512 44.9199 52.9824 44.709L53.5332 41.4453H55.707L56.4277 50H54.6992L54.5176 46.0273C54.5137 45.9336 54.5078 45.793 54.5 45.6055C54.4492 44.5664 54.4238 43.7148 54.4238 43.0508L53.3105 50H52.0742L51.0254 43.0039C51.0254 43.5859 50.9902 44.418 50.9199 45.5C50.9043 45.7461 50.8926 45.9297 50.8848 46.0508L50.6211 50H48.9277Z" fill="black"/>
<path d="M70.5 139.5V163C70.5 164.933 68.933 166.5 67 166.5H51C49.067 166.5 47.5 164.933 47.5 163V139.5H70.5Z" fill="white" stroke="black"/>
<path d="M51 129.5H67C68.933 129.5 70.5 131.067 70.5 133V140.5H47.5V133C47.5 131.127 48.9708 129.598 50.8203 129.505L51 129.5Z" fill="black" stroke="black"/>
<path d="M57.377 160V148.096H56.0195V145.742H60.1113V160H57.377Z" fill="black"/>
<path d="M62.701 182.983L71.1067 204.928C71.7981 206.733 70.8953 208.757 69.0902 209.449L54.1488 215.172C52.3436 215.863 50.3198 214.96 49.6284 213.155L41.2227 191.21L62.701 182.983Z" fill="white" stroke="black"/>
<path d="M40.9142 180.62L55.8556 174.897C57.6608 174.205 59.6846 175.108 60.376 176.913L63.0587 183.917L41.5804 192.144L38.8977 185.14C38.2278 183.391 39.0545 181.437 40.7482 180.688L40.9142 180.62Z" fill="black" stroke="black"/>
<path d="M70.5 186.5V210C70.5 211.933 68.933 213.5 67 213.5H51C49.067 213.5 47.5 211.933 47.5 210V186.5H70.5Z" fill="white" stroke="black"/>
<path d="M51 176.5H67C68.933 176.5 70.5 178.067 70.5 180V187.5H47.5V180C47.5 178.128 48.9708 176.599 50.8203 176.505L51 176.5Z" fill="black" stroke="black"/>
<path d="M54.7109 207L58.2168 200.184C58.6465 199.351 58.9753 198.579 59.2031 197.87C59.4375 197.16 59.5547 196.577 59.5547 196.122C59.5547 195.672 59.4635 195.327 59.2812 195.086C59.1055 194.846 58.8516 194.725 58.5195 194.725C58.0378 194.725 57.7057 194.92 57.5234 195.311C57.3477 195.695 57.2598 196.457 57.2598 197.596H54.9355C54.929 197.531 54.9225 197.459 54.916 197.381C54.916 197.297 54.916 197.176 54.916 197.02C54.916 195.562 55.235 194.455 55.873 193.7C56.5111 192.938 57.4453 192.557 58.6758 192.557C59.7305 192.557 60.5671 192.876 61.1855 193.514C61.804 194.146 62.1133 195.002 62.1133 196.083C62.1133 196.818 61.9538 197.632 61.6348 198.524C61.3158 199.409 60.6973 200.682 59.7793 202.342L58.5586 204.54H61.752V207H54.7109Z" fill="black"/>
<path d="M60.701 233.984L69.1067 255.929C69.7981 257.734 68.8953 259.758 67.0902 260.45L52.1488 266.173C50.3436 266.864 48.3198 265.961 47.6284 264.156L39.2227 242.211L60.701 233.984Z" fill="white" stroke="black"/>
<path d="M38.9142 231.621L53.8556 225.898C55.6608 225.206 57.6846 226.109 58.376 227.914L61.0587 234.918L39.5804 243.145L36.8977 236.141C36.2278 234.392 37.0545 232.438 38.7482 231.689L38.9142 231.621Z" fill="black" stroke="black"/>
<path d="M60.701 233.984L69.1067 255.929C69.7981 257.734 68.8953 259.758 67.0902 260.45L52.1488 266.173C50.3436 266.864 48.3198 265.961 47.6284 264.156L39.2227 242.211L60.701 233.984Z" fill="white" stroke="black"/>
<path d="M38.9142 231.621L53.8556 225.898C55.6608 225.206 57.6846 226.109 58.376 227.914L61.0587 234.918L39.5804 243.145L36.8977 236.141C36.2278 234.392 37.0545 232.438 38.7482 231.689L38.9142 231.621Z" fill="black" stroke="black"/>
<path d="M68.5 237.501V261.001C68.5 262.934 66.933 264.501 65 264.501H49C47.067 264.501 45.5 262.934 45.5 261.001V237.501H68.5Z" fill="white" stroke="black"/>
<path d="M49 227.501H65C66.933 227.501 68.5 229.068 68.5 231.001V238.501H45.5V231.001C45.5 229.129 46.9708 227.6 48.8203 227.506L49 227.501Z" fill="black" stroke="black"/>
<path d="M52.5742 253.919H54.957V254.085C54.957 254.639 55.0514 255.062 55.2402 255.355C55.4355 255.641 55.7155 255.785 56.0801 255.785C56.4837 255.785 56.793 255.606 57.0078 255.248C57.2292 254.889 57.3398 254.382 57.3398 253.724C57.3398 252.969 57.1999 252.432 56.9199 252.113C56.64 251.787 56.1777 251.625 55.5332 251.625C55.4941 251.625 55.4388 251.628 55.3672 251.634C55.2956 251.641 55.237 251.644 55.1914 251.644V249.3H55.377C56.1452 249.3 56.6953 249.16 57.0273 248.88C57.3659 248.6 57.5352 248.141 57.5352 247.503C57.5352 247.015 57.4375 246.634 57.2422 246.361C57.0469 246.081 56.7767 245.941 56.4316 245.941C56.0736 245.941 55.8001 246.078 55.6113 246.351C55.429 246.625 55.3379 247.028 55.3379 247.562V247.718H53.0332V247.386C53.0332 246.143 53.3359 245.195 53.9414 244.544C54.5469 243.887 55.4258 243.558 56.5781 243.558C57.6458 243.558 58.4661 243.893 59.0391 244.564C59.612 245.235 59.8984 246.195 59.8984 247.445C59.8984 248.304 59.7161 248.991 59.3516 249.505C58.987 250.013 58.4629 250.313 57.7793 250.404V250.58C58.6387 250.749 59.2799 251.11 59.7031 251.664C60.1263 252.217 60.3379 252.969 60.3379 253.919C60.3379 255.248 59.9668 256.292 59.2246 257.054C58.4889 257.816 57.4798 258.197 56.1973 258.197C55.0384 258.197 54.14 257.858 53.502 257.181C52.8704 256.504 52.5547 255.544 52.5547 254.3C52.5547 254.261 52.5579 254.203 52.5645 254.125C52.571 254.04 52.5742 253.972 52.5742 253.919Z" fill="black"/>
<path d="M134.812 120V108.562H136.172V118.703H140.492V120H134.812ZM147.117 119.023C147.742 119.023 148.336 118.906 148.898 118.672C149.466 118.432 149.977 118.086 150.43 117.633C150.878 117.185 151.219 116.677 151.453 116.109C151.688 115.542 151.805 114.94 151.805 114.305C151.805 113.664 151.685 113.055 151.445 112.477C151.211 111.898 150.872 111.388 150.43 110.945C149.982 110.497 149.474 110.156 148.906 109.922C148.344 109.688 147.747 109.57 147.117 109.57C146.482 109.57 145.88 109.688 145.312 109.922C144.745 110.156 144.242 110.497 143.805 110.945C143.357 111.398 143.016 111.911 142.781 112.484C142.547 113.057 142.43 113.664 142.43 114.305C142.43 114.94 142.544 115.539 142.773 116.102C143.008 116.664 143.352 117.174 143.805 117.633C144.263 118.091 144.771 118.438 145.328 118.672C145.891 118.906 146.487 119.023 147.117 119.023ZM153.227 114.305C153.227 115.122 153.076 115.893 152.773 116.617C152.471 117.341 152.031 117.984 151.453 118.547C150.875 119.109 150.208 119.544 149.453 119.852C148.703 120.154 147.924 120.305 147.117 120.305C146.31 120.305 145.531 120.154 144.781 119.852C144.036 119.544 143.375 119.109 142.797 118.547C142.214 117.979 141.768 117.333 141.461 116.609C141.159 115.885 141.008 115.117 141.008 114.305C141.008 113.487 141.159 112.716 141.461 111.992C141.768 111.263 142.214 110.615 142.797 110.047C143.37 109.49 144.031 109.06 144.781 108.758C145.531 108.456 146.31 108.305 147.117 108.305C147.93 108.305 148.711 108.456 149.461 108.758C150.216 109.06 150.88 109.49 151.453 110.047C152.031 110.609 152.471 111.255 152.773 111.984C153.076 112.708 153.227 113.482 153.227 114.305ZM157.391 120V114.766L153.516 108.562H155.086L158.078 113.523L161.055 108.562H162.617L158.75 114.766V120H157.391ZM164.031 120V108.562H170.062V109.805H165.391V113.086H170.062V114.352H165.391V118.734H170.062V120H164.031ZM172.375 120V108.562H175.062C175.828 108.562 176.388 108.607 176.742 108.695C177.102 108.779 177.417 108.924 177.688 109.133C178.026 109.398 178.289 109.755 178.477 110.203C178.664 110.646 178.758 111.138 178.758 111.68C178.758 112.617 178.495 113.331 177.969 113.82C177.448 114.305 176.682 114.547 175.672 114.547H175.43L179.797 120H178.07L173.898 114.547H173.703V120H172.375ZM173.703 109.711V113.539H174.742C175.805 113.539 176.516 113.404 176.875 113.133C177.234 112.857 177.414 112.378 177.414 111.695C177.414 110.961 177.229 110.448 176.859 110.156C176.49 109.859 175.784 109.711 174.742 109.711H173.703Z" fill="black"/>
<path d="M41.9416 281.986L62.2932 293.736C63.9672 294.703 64.5407 296.843 63.5742 298.517L55.5742 312.374C54.6077 314.048 52.4672 314.621 50.7932 313.655L30.4416 301.905L41.9416 281.986Z" fill="white" stroke="black"/>
<path d="M23.5314 293.874L31.5314 280.017C32.4979 278.343 34.6385 277.77 36.3125 278.736L42.8077 282.486L31.3077 302.405L24.8125 298.655C23.1907 297.719 22.6021 295.68 23.4458 294.032L23.5314 293.874Z" fill="black" stroke="black"/>
<path d="M159.211 291.664C157.586 291.664 156.578 292.682 156.188 294.719H160.094V295.758H156.078L156.062 296.195V296.68L156.078 297.023H159.609V298.062H156.203C156.385 298.969 156.734 299.672 157.25 300.172C157.771 300.667 158.469 300.914 159.344 300.914C160.135 300.914 160.93 300.742 161.727 300.398V301.648C160.966 301.987 160.143 302.156 159.258 302.156C158.029 302.156 157.034 301.81 156.273 301.117C155.518 300.419 155.021 299.401 154.781 298.062H153.5V297.023H154.656L154.641 296.695V296.367L154.656 295.758H153.5V294.719H154.766C154.974 293.344 155.464 292.286 156.234 291.547C157.005 290.802 157.997 290.43 159.211 290.43C160.279 290.43 161.234 290.677 162.078 291.172L161.484 292.32C160.641 291.883 159.883 291.664 159.211 291.664ZM164.211 297.453H166.109V294.227C166.109 294.128 166.115 293.982 166.125 293.789C166.135 293.591 166.159 293.229 166.195 292.703C166.065 293.146 165.935 293.555 165.805 293.93C165.674 294.299 165.547 294.617 165.422 294.883L164.211 297.453ZM166.031 302V299.172H162.75V297.453L165.742 290.594H167.938V297.453H168.867V299.172H167.938V302H166.031ZM169.553 302L170.859 293.422H172.781L174.434 298.473C174.469 298.578 174.506 298.732 174.545 298.936C174.588 299.139 174.627 299.371 174.662 299.633C174.693 299.367 174.729 299.131 174.768 298.924C174.807 298.713 174.844 298.559 174.879 298.461L176.561 293.422H178.453L179.766 302H178.025L177.398 296.826C177.352 296.443 177.32 296.154 177.305 295.959C177.289 295.764 177.281 295.582 177.281 295.414C177.281 295.324 177.281 295.258 177.281 295.215C177.285 295.168 177.289 295.127 177.293 295.092C177.234 295.428 177.178 295.719 177.123 295.965C177.072 296.207 177.025 296.391 176.982 296.516L175.166 302H174.135L172.348 296.516C172.332 296.465 172.297 296.324 172.242 296.094C172.191 295.863 172.119 295.527 172.025 295.086V295.338C172.025 295.736 171.99 296.225 171.92 296.803L171.914 296.826L171.293 302H169.553Z" fill="black"/>
<path d="M74.9922 300.535L74.5742 300.754C74.2669 300.178 74.0352 299.569 73.8789 298.926C73.7253 298.28 73.6484 297.6 73.6484 296.887C73.6484 296.129 73.724 295.431 73.875 294.793C74.0286 294.155 74.2617 293.56 74.5742 293.008L74.9922 293.199C74.7109 293.754 74.5026 294.332 74.3672 294.934C74.2344 295.533 74.168 296.184 74.168 296.887C74.168 297.613 74.2357 298.275 74.3711 298.871C74.5065 299.467 74.7135 300.022 74.9922 300.535ZM79.1367 296.047H81.4961V296.238C81.4961 297.139 81.2409 297.85 80.7305 298.371C80.2201 298.892 79.5234 299.152 78.6406 299.152C78.3724 299.152 78.1159 299.124 77.8711 299.066C77.6289 299.009 77.4049 298.926 77.1992 298.816C76.7305 298.559 76.3685 298.203 76.1133 297.75C75.8581 297.294 75.7305 296.777 75.7305 296.199C75.7305 295.723 75.806 295.293 75.957 294.91C76.1107 294.525 76.3411 294.186 76.6484 293.895C76.9062 293.65 77.2057 293.465 77.5469 293.34C77.888 293.215 78.2656 293.152 78.6797 293.152C79.2292 293.152 79.7057 293.253 80.1094 293.453C80.513 293.651 80.8477 293.951 81.1133 294.352L80.543 294.809C80.3372 294.462 80.0807 294.203 79.7734 294.031C79.4661 293.857 79.1094 293.77 78.7031 293.77C78.0391 293.77 77.5 293.993 77.0859 294.441C76.6719 294.889 76.4648 295.475 76.4648 296.199C76.4648 296.882 76.6745 297.441 77.0938 297.879C77.5156 298.316 78.0521 298.535 78.7031 298.535C79.276 298.535 79.7526 298.362 80.1328 298.016C80.5156 297.667 80.7279 297.214 80.7695 296.656H79.1367V296.047ZM82.5078 299V293.281H83.8516C84.2344 293.281 84.5143 293.303 84.6914 293.348C84.8711 293.389 85.0286 293.462 85.1641 293.566C85.3333 293.699 85.4648 293.878 85.5586 294.102C85.6523 294.323 85.6992 294.569 85.6992 294.84C85.6992 295.309 85.5677 295.665 85.3047 295.91C85.0443 296.152 84.6615 296.273 84.1562 296.273H84.0352L86.2188 299H85.3555L83.2695 296.273H83.1719V299H82.5078ZM83.1719 293.855V295.77H83.6914C84.2227 295.77 84.5781 295.702 84.7578 295.566C84.9375 295.428 85.0273 295.189 85.0273 294.848C85.0273 294.48 84.9349 294.224 84.75 294.078C84.5651 293.93 84.2122 293.855 83.6914 293.855H83.1719ZM89.582 298.512C89.8945 298.512 90.1914 298.453 90.4727 298.336C90.7565 298.216 91.0117 298.043 91.2383 297.816C91.4622 297.592 91.6328 297.339 91.75 297.055C91.8672 296.771 91.9258 296.47 91.9258 296.152C91.9258 295.832 91.8659 295.527 91.7461 295.238C91.6289 294.949 91.4596 294.694 91.2383 294.473C91.0143 294.249 90.7604 294.078 90.4766 293.961C90.1953 293.844 89.8971 293.785 89.582 293.785C89.2643 293.785 88.9635 293.844 88.6797 293.961C88.3958 294.078 88.1445 294.249 87.9258 294.473C87.7018 294.699 87.5312 294.956 87.4141 295.242C87.2969 295.529 87.2383 295.832 87.2383 296.152C87.2383 296.47 87.2956 296.77 87.4102 297.051C87.5273 297.332 87.6992 297.587 87.9258 297.816C88.1549 298.046 88.4089 298.219 88.6875 298.336C88.9688 298.453 89.2669 298.512 89.582 298.512ZM92.6367 296.152C92.6367 296.561 92.5612 296.947 92.4102 297.309C92.2591 297.671 92.0391 297.992 91.75 298.273C91.4609 298.555 91.1276 298.772 90.75 298.926C90.375 299.077 89.9857 299.152 89.582 299.152C89.1784 299.152 88.7891 299.077 88.4141 298.926C88.0417 298.772 87.7109 298.555 87.4219 298.273C87.1302 297.99 86.9076 297.667 86.7539 297.305C86.6029 296.943 86.5273 296.559 86.5273 296.152C86.5273 295.743 86.6029 295.358 86.7539 294.996C86.9076 294.632 87.1302 294.307 87.4219 294.023C87.7083 293.745 88.0391 293.53 88.4141 293.379C88.7891 293.228 89.1784 293.152 89.582 293.152C89.9883 293.152 90.3789 293.228 90.7539 293.379C91.1315 293.53 91.4635 293.745 91.75 294.023C92.0391 294.305 92.2591 294.628 92.4102 294.992C92.5612 295.354 92.6367 295.741 92.6367 296.152ZM93.7266 293.281H94.4141V296.84C94.4141 297.418 94.5365 297.842 94.7812 298.113C95.0286 298.384 95.4154 298.52 95.9414 298.52C96.4674 298.52 96.8529 298.384 97.0977 298.113C97.3451 297.842 97.4688 297.418 97.4688 296.84V293.281H98.1602V296.84C98.1602 297.613 97.9753 298.193 97.6055 298.578C97.2383 298.961 96.6836 299.152 95.9414 299.152C95.2018 299.152 94.6471 298.961 94.2773 298.578C93.9102 298.193 93.7266 297.613 93.7266 296.84V293.281ZM100.18 296.434V299H99.5156V293.281H100.715C101.134 293.281 101.443 293.303 101.641 293.348C101.839 293.392 102.01 293.465 102.156 293.566C102.339 293.697 102.48 293.875 102.582 294.102C102.686 294.328 102.738 294.579 102.738 294.855C102.738 295.132 102.686 295.383 102.582 295.609C102.48 295.836 102.339 296.014 102.156 296.145C102.01 296.249 101.839 296.323 101.641 296.367C101.445 296.411 101.137 296.434 100.715 296.434H100.523H100.18ZM100.18 295.816H100.523C101.107 295.816 101.499 295.749 101.699 295.613C101.902 295.475 102.004 295.236 102.004 294.895C102.004 294.53 101.9 294.273 101.691 294.125C101.486 293.977 101.096 293.902 100.523 293.902H100.18V295.816ZM103.578 299V293.281H106.594V293.902H104.258V295.543H106.594V296.176H104.258V298.367H106.594V299H103.578ZM114.75 294.648C114.477 294.352 114.185 294.133 113.875 293.992C113.565 293.849 113.223 293.777 112.848 293.777C112.546 293.777 112.25 293.839 111.961 293.961C111.674 294.083 111.426 294.254 111.215 294.473C110.996 294.699 110.832 294.953 110.723 295.234C110.613 295.513 110.559 295.822 110.559 296.16C110.559 296.426 110.591 296.671 110.656 296.895C110.721 297.118 110.819 297.324 110.949 297.512C111.178 297.837 111.46 298.089 111.793 298.266C112.129 298.44 112.491 298.527 112.879 298.527C113.243 298.527 113.582 298.452 113.895 298.301C114.207 298.15 114.492 297.924 114.75 297.625V298.527C114.466 298.733 114.16 298.889 113.832 298.996C113.507 299.1 113.169 299.152 112.82 299.152C112.518 299.152 112.224 299.107 111.938 299.016C111.651 298.927 111.383 298.797 111.133 298.625C110.716 298.336 110.397 297.98 110.176 297.559C109.957 297.137 109.848 296.673 109.848 296.168C109.848 295.728 109.921 295.328 110.066 294.969C110.215 294.607 110.44 294.279 110.742 293.984C111.034 293.703 111.357 293.493 111.711 293.355C112.065 293.215 112.452 293.145 112.871 293.145C113.202 293.145 113.522 293.195 113.832 293.297C114.142 293.396 114.448 293.551 114.75 293.762V294.648ZM118.707 298.512C119.02 298.512 119.316 298.453 119.598 298.336C119.882 298.216 120.137 298.043 120.363 297.816C120.587 297.592 120.758 297.339 120.875 297.055C120.992 296.771 121.051 296.47 121.051 296.152C121.051 295.832 120.991 295.527 120.871 295.238C120.754 294.949 120.585 294.694 120.363 294.473C120.139 294.249 119.885 294.078 119.602 293.961C119.32 293.844 119.022 293.785 118.707 293.785C118.389 293.785 118.089 293.844 117.805 293.961C117.521 294.078 117.27 294.249 117.051 294.473C116.827 294.699 116.656 294.956 116.539 295.242C116.422 295.529 116.363 295.832 116.363 296.152C116.363 296.47 116.421 296.77 116.535 297.051C116.652 297.332 116.824 297.587 117.051 297.816C117.28 298.046 117.534 298.219 117.812 298.336C118.094 298.453 118.392 298.512 118.707 298.512ZM121.762 296.152C121.762 296.561 121.686 296.947 121.535 297.309C121.384 297.671 121.164 297.992 120.875 298.273C120.586 298.555 120.253 298.772 119.875 298.926C119.5 299.077 119.111 299.152 118.707 299.152C118.303 299.152 117.914 299.077 117.539 298.926C117.167 298.772 116.836 298.555 116.547 298.273C116.255 297.99 116.033 297.667 115.879 297.305C115.728 296.943 115.652 296.559 115.652 296.152C115.652 295.743 115.728 295.358 115.879 294.996C116.033 294.632 116.255 294.307 116.547 294.023C116.833 293.745 117.164 293.53 117.539 293.379C117.914 293.228 118.303 293.152 118.707 293.152C119.113 293.152 119.504 293.228 119.879 293.379C120.257 293.53 120.589 293.745 120.875 294.023C121.164 294.305 121.384 294.628 121.535 294.992C121.686 295.354 121.762 295.741 121.762 296.152ZM125.539 299.223L123.762 295.113L123.043 299H122.379L123.539 293.055L125.539 297.785L127.539 293.055L128.699 299H128.035L127.309 295.113L125.539 299.223ZM130.242 296.434V299H129.578V293.281H130.777C131.197 293.281 131.505 293.303 131.703 293.348C131.901 293.392 132.073 293.465 132.219 293.566C132.401 293.697 132.543 293.875 132.645 294.102C132.749 294.328 132.801 294.579 132.801 294.855C132.801 295.132 132.749 295.383 132.645 295.609C132.543 295.836 132.401 296.014 132.219 296.145C132.073 296.249 131.901 296.323 131.703 296.367C131.508 296.411 131.199 296.434 130.777 296.434H130.586H130.242ZM130.242 295.816H130.586C131.169 295.816 131.561 295.749 131.762 295.613C131.965 295.475 132.066 295.236 132.066 294.895C132.066 294.53 131.962 294.273 131.754 294.125C131.548 293.977 131.159 293.902 130.586 293.902H130.242V295.816ZM133.641 299V293.281H134.32V298.352H136.48V299H133.641ZM137.289 299V293.281H140.305V293.902H137.969V295.543H140.305V296.176H137.969V298.367H140.305V299H137.289ZM142.461 299V293.93H140.844V293.281H144.758V293.93H143.148V299H142.461ZM145.141 300.535C145.419 300.022 145.626 299.467 145.762 298.871C145.897 298.275 145.965 297.613 145.965 296.887C145.965 296.184 145.897 295.533 145.762 294.934C145.629 294.332 145.422 293.754 145.141 293.199L145.555 293.008C145.87 293.56 146.103 294.155 146.254 294.793C146.408 295.431 146.484 296.129 146.484 296.887C146.484 297.6 146.406 298.28 146.25 298.926C146.096 299.569 145.865 300.178 145.555 300.754L145.141 300.535Z" fill="black"/>
<path d="M50.037 281.06L65.5404 298.721C66.8157 300.173 66.6718 302.385 65.2192 303.66L53.195 314.216C51.7423 315.491 49.5309 315.347 48.2557 313.894L32.7522 296.234L50.037 281.06Z" fill="white" stroke="black"/>
<path d="M28.7854 286.41L40.8095 275.854C42.2622 274.579 44.4736 274.723 45.7488 276.175L50.6967 281.812L33.412 296.985L28.4641 291.349C27.2286 289.942 27.3254 287.822 28.6535 286.532L28.7854 286.41Z" fill="black" stroke="black"/>
<path d="M60.701 281.984L69.1067 303.929C69.7981 305.734 68.8953 307.758 67.0902 308.45L52.1488 314.173C50.3436 314.864 48.3198 313.961 47.6284 312.156L39.2227 290.211L60.701 281.984Z" fill="white" stroke="black"/>
<path d="M38.9142 279.621L53.8556 273.898C55.6608 273.206 57.6846 274.109 58.376 275.914L61.0587 282.918L39.5804 291.145L36.8977 284.141C36.2278 282.392 37.0545 280.438 38.7482 279.689L38.9142 279.621Z" fill="black" stroke="black"/>
<path d="M60.701 281.984L69.1067 303.929C69.7981 305.734 68.8953 307.758 67.0902 308.45L52.1488 314.173C50.3436 314.864 48.3198 313.961 47.6284 312.156L39.2227 290.211L60.701 281.984Z" fill="white" stroke="black"/>
<path d="M38.9142 279.621L53.8556 273.898C55.6608 273.206 57.6846 274.109 58.376 275.914L61.0587 282.918L39.5804 291.145L36.8977 284.141C36.2278 282.392 37.0545 280.438 38.7482 279.689L38.9142 279.621Z" fill="black" stroke="black"/>
<path d="M68.5 285.501V309.001C68.5 310.934 66.933 312.501 65 312.501H49C47.067 312.501 45.5 310.934 45.5 309.001V285.501H68.5Z" fill="white" stroke="black"/>
<path d="M49 275.501H65C66.933 275.501 68.5 277.068 68.5 279.001V286.501H45.5V279.001C45.5 277.129 46.9708 275.6 48.8203 275.506L49 275.501Z" fill="black" stroke="black"/>
<path d="M54.498 300.318H56.8711V296.285C56.8711 296.161 56.8776 295.979 56.8906 295.738C56.9036 295.49 56.9329 295.038 56.9785 294.38C56.8158 294.934 56.653 295.445 56.4902 295.914C56.3275 296.376 56.168 296.773 56.0117 297.105L54.498 300.318ZM56.7734 306.001V302.466H52.6719V300.318L56.4121 291.744H59.1562V300.318H60.3184V302.466H59.1562V306.001H56.7734Z" fill="black"/>
</svg>
