<svg width="672" height="389" viewBox="0 0 672 389" fill="none" xmlns="http://www.w3.org/2000/svg">
<path d="M537.684 60.2998V128.9C537.684 134.7 532.984 139.4 527.184 139.4H63.3839C57.5839 139.4 52.8839 134.7 52.8839 128.9V60.2998C52.8839 54.4998 57.5839 49.7998 63.3839 49.7998H251.584C262.284 38.6998 277.884 31.7998 295.284 31.7998C312.684 31.7998 328.284 38.7998 338.984 49.7998H527.184C532.984 49.7998 537.684 54.4998 537.684 60.2998Z" fill="white" stroke="#C81617" stroke-width="5" stroke-miterlimit="10"/>
<path d="M530.684 61.0002V128.5C530.684 130.4 529.184 131.9 527.284 131.9H63.1839C61.2839 131.9 59.7839 130.4 59.7839 128.5V61.0002C59.7839 59.1002 61.2839 57.6002 63.1839 57.6002H254.084C263.484 46.7002 278.584 39.7002 295.584 39.7002C312.584 39.7002 327.684 46.7002 337.084 57.6002H527.384C529.184 57.6002 530.684 59.2002 530.684 61.0002Z" fill="#C81617"/>
<path d="M107.484 92.9992H133.584C133.684 93.2992 133.684 93.6992 133.684 94.0992C133.684 94.4992 133.684 95.0992 133.684 95.8992C133.684 104.499 131.284 111.399 126.384 116.699C121.484 121.999 115.184 124.699 107.384 124.699C98.4839 124.699 91.1839 121.899 85.3839 116.199C79.5839 110.499 76.7839 103.299 76.7839 94.5992C76.7839 85.9992 79.6839 78.7992 85.4839 73.1992C91.2839 67.4992 98.5839 64.6992 107.384 64.6992C112.084 64.6992 116.284 65.6992 120.184 67.5992C124.084 69.5992 127.484 72.4992 130.584 76.3992L122.384 82.4992C120.284 79.8992 118.184 78.0992 115.884 76.9992C113.584 75.8992 110.984 75.2992 107.984 75.2992C102.284 75.2992 97.7839 77.0992 94.3839 80.5992C90.9839 84.0992 89.2839 88.7992 89.2839 94.6992C89.2839 100.499 90.9839 105.099 94.3839 108.699C97.7839 112.299 102.184 113.999 107.684 113.999C111.684 113.999 114.984 113.099 117.484 111.199C119.984 109.299 121.284 106.799 121.284 103.799V103.199H107.484V92.9992Z" fill="white"/>
<path d="M136.484 123.2L158.284 66H172.284L194.384 123.2H180.484L175.884 111.1H153.584L149.584 123.2H136.484ZM172.884 101.4L166.484 83C166.284 82.5 166.084 81.5 165.784 80.2C165.484 78.9 165.184 77.2 164.884 75.3C164.584 77.1 164.184 78.8 163.884 80.3C163.584 81.8 163.384 82.8 163.184 83.2L156.984 101.4H172.884Z" fill="white"/>
<path d="M200.384 123.2V66H213.084L238.384 99.3C239.084 100.2 239.884 101.6 240.784 103.3C241.684 105 242.584 107 243.484 109.3C243.184 107.6 242.984 105.9 242.884 104.3C242.784 102.6 242.684 100.5 242.684 98V66H254.384V123.2H242.384L216.384 89.3C215.684 88.4 214.884 87 213.984 85.3C213.084 83.6 212.184 81.6 211.284 79.2C211.584 80.8 211.784 82.5 211.884 84.2C211.984 85.9 212.084 88 212.084 90.5V123.2H200.384Z" fill="white"/>
<path d="M325.584 94.6996C325.584 98.7996 324.784 102.7 323.284 106.3C321.784 109.9 319.584 113.1 316.684 115.9C313.684 118.7 310.384 120.9 306.684 122.4C302.984 123.9 299.084 124.7 295.084 124.7C291.584 124.7 288.184 124.1 284.784 122.9C281.484 121.7 278.384 120 275.584 117.8C271.984 114.9 269.284 111.5 267.284 107.5C265.284 103.5 264.384 99.1996 264.384 94.5996C264.384 90.4996 265.184 86.5996 266.684 82.9996C268.184 79.3996 270.384 76.1996 273.284 73.3996C276.184 70.5996 279.484 68.4996 283.284 66.8996C287.084 65.3996 290.984 64.5996 294.984 64.5996C298.984 64.5996 302.884 65.3996 306.584 66.8996C310.384 68.3996 313.684 70.5996 316.584 73.3996C319.484 76.1996 321.684 79.3996 323.184 82.9996C324.884 86.7996 325.584 90.5996 325.584 94.6996ZM295.184 113.8C300.384 113.8 304.684 112 307.984 108.4C311.384 104.8 313.084 100.2 313.084 94.6996C313.084 89.2996 311.384 84.6996 307.984 80.9996C304.584 77.2996 300.284 75.4996 295.184 75.4996C289.984 75.4996 285.684 77.2996 282.284 80.9996C278.884 84.6996 277.184 89.1996 277.184 94.6996C277.184 100.2 278.884 104.8 282.184 108.4C285.584 112 289.884 113.8 295.184 113.8Z" fill="white"/>
<path d="M335.884 123.2V66H349.984C357.484 66 362.984 67.4 366.584 70.3C370.184 73.2 371.984 77.6 371.984 83.6C371.984 89.1 370.184 93.5 366.584 96.6C362.984 99.8 357.984 101.3 351.584 101.3H348.184V123.1H335.884V123.2ZM348.184 91.8H349.984C353.284 91.8 355.784 91.1 357.284 89.7C358.784 88.3 359.584 86.1 359.584 83.1C359.584 80.3 358.784 78.2 357.284 76.9C355.784 75.6 353.384 75 349.984 75H348.184V91.8Z" fill="white"/>
<path d="M438.984 94.6996C438.984 98.7996 438.184 102.7 436.684 106.3C435.184 109.9 432.984 113.1 430.084 115.9C427.084 118.7 423.784 120.9 420.084 122.4C416.384 123.9 412.484 124.7 408.484 124.7C404.984 124.7 401.584 124.1 398.184 122.9C394.884 121.7 391.784 120 388.984 117.8C385.384 114.9 382.684 111.5 380.684 107.5C378.684 103.5 377.784 99.1996 377.784 94.5996C377.784 90.4996 378.584 86.5996 380.084 82.9996C381.584 79.3996 383.784 76.1996 386.684 73.3996C389.584 70.5996 392.884 68.4996 396.684 66.8996C400.484 65.3996 404.384 64.5996 408.384 64.5996C412.384 64.5996 416.284 65.3996 419.984 66.8996C423.784 68.3996 427.084 70.5996 429.984 73.3996C432.884 76.1996 435.084 79.3996 436.584 82.9996C438.184 86.7996 438.984 90.5996 438.984 94.6996ZM408.484 113.8C413.684 113.8 417.984 112 421.284 108.4C424.684 104.8 426.384 100.2 426.384 94.6996C426.384 89.2996 424.684 84.6996 421.284 80.9996C417.884 77.2996 413.584 75.4996 408.484 75.4996C403.284 75.4996 398.984 77.2996 395.584 80.9996C392.184 84.6996 390.484 89.1996 390.484 94.6996C390.484 100.2 392.184 104.8 395.484 108.4C398.884 112 403.184 113.8 408.484 113.8Z" fill="white"/>
<path d="M449.284 123.2V66H461.484V112.8H480.984V123.2H449.284Z" fill="white"/>
<path d="M494.684 123.2V97.1L475.284 66H489.584L498.084 81.7C498.484 82.5 498.884 83.5 499.384 84.7C499.784 85.9 500.284 87.3 500.784 88.8C501.184 87.5 501.584 86.2 501.984 85C502.484 83.8 502.984 82.7 503.484 81.6L511.884 66H526.184L506.784 97.1V123.2H494.684Z" fill="white"/>
<path d="M270.884 54.5996L268.984 58.6996C267.484 61.9996 267.884 65.7996 270.084 68.5996C271.484 70.3996 273.884 71.7996 276.784 73.2996C276.784 73.2996 253.884 67.7996 245.384 60.7996C245.384 60.7996 237.784 75.8996 238.584 77.5996C239.384 79.2996 264.684 89.0996 280.684 88.1996C279.884 94.4996 279.784 96.9996 278.984 103.3C280.784 107.3 289.584 119 304.684 114.9C307.484 114.1 310.084 110.9 311.384 108.4C335.884 61.3996 306.084 97.9996 356.784 63.8996C339.784 44.2996 354.784 49.3996 327.484 62.1996C327.484 62.1996 327.684 47.9996 314.584 37.3996C315.284 36.1996 323.584 28.2996 319.584 28.0996C318.584 27.9996 317.584 28.4996 316.984 29.2996C315.584 30.9996 312.684 34.3996 311.984 34.6996" fill="#010202"/>
<path d="M239.384 74.4L235.884 71.3C235.884 71.3 234.784 57.4 240.184 59.8C245.584 62.1 245.584 62.1 245.584 62.1L239.384 74.4Z" fill="white" stroke="#010202" stroke-miterlimit="10"/>
<path d="M347.784 52.1997C347.784 52.1997 350.184 47.0997 351.284 49.0997C352.384 51.0997 360.084 52.7997 359.184 56.2997C358.284 59.7997 355.684 62.7997 355.684 62.7997L347.784 52.1997Z" fill="white" stroke="#010202" stroke-miterlimit="10"/>
<path d="M367.584 75.5997C368.184 75.0997 367.584 74.2997 367.584 74.2997L347.084 32.9997C346.884 32.5997 346.784 32.0997 346.684 31.6997C346.684 30.8997 346.884 30.3997 346.784 29.4997C346.584 28.0997 345.584 28.8997 344.784 27.5997C344.384 26.9997 344.284 26.2997 344.284 25.7997C344.284 25.3997 344.484 24.9997 344.784 24.6997C351.684 19.0997 346.984 13.8997 346.984 13.8997C343.684 10.8997 342.884 9.19967 341.984 7.99967C341.884 7.79967 341.984 7.59967 342.184 7.49967C344.184 7.19967 343.684 6.99967 343.684 6.99967C343.684 6.99967 340.484 4.39967 340.284 3.09967C340.184 2.39967 339.884 2.99967 339.884 3.19967C338.584 8.59967 344.184 13.7997 344.184 13.7997C349.684 18.8997 343.384 22.4997 343.384 22.4997C342.684 22.7997 341.884 22.4997 341.384 22.1997C341.184 22.0997 341.084 21.8997 340.984 21.6997C340.084 19.8997 334.284 8.99967 334.484 8.69967C334.784 8.29967 335.384 8.69967 335.884 8.59967C336.384 8.49967 336.084 8.19967 336.084 8.19967L330.984 4.19967C330.884 4.09967 330.784 4.19967 330.784 4.29967L330.884 10.6997C330.884 10.6997 330.884 11.0997 331.284 10.6997C331.684 10.2997 331.784 9.69967 332.184 9.69967C332.584 9.69967 337.784 20.8997 338.684 22.6997C338.784 22.8997 338.784 23.0997 338.784 23.2997C338.784 23.8997 338.584 24.6997 337.784 25.0997C337.784 25.0997 331.184 27.9997 330.384 20.4997C330.384 20.4997 329.584 12.8997 324.484 10.6997C324.284 10.5997 323.684 10.4997 324.184 10.9997C324.984 11.9997 325.184 16.0997 325.184 16.0997C325.184 16.0997 325.084 16.5997 326.484 15.1997C326.684 14.9997 326.884 15.0997 326.984 15.2997C327.384 16.7997 328.284 18.2997 328.684 22.7997C328.684 22.7997 329.984 29.6997 338.584 27.4997C338.984 27.3997 339.384 27.4997 339.684 27.6997C340.084 27.9997 340.584 28.4997 340.784 29.1997C341.384 30.5997 339.984 30.8997 341.084 31.8997C341.784 32.5997 342.284 32.5997 342.884 33.1997C343.284 33.4997 343.584 33.8997 343.784 34.2997L364.384 75.4997C364.384 75.4997 364.784 76.4997 365.484 76.2997L367.584 75.5997Z" fill="white" stroke="#010202" stroke-miterlimit="10"/>
<path d="M284.684 44.6992C284.684 44.6992 253.284 35.0992 257.884 61.1992C257.884 61.1992 263.684 76.0992 266.284 77.7992C266.284 77.7992 270.584 78.1992 273.684 79.4992C273.684 79.4992 277.084 80.6992 278.984 88.7992C278.984 88.7992 280.384 92.4992 287.584 88.7992C287.584 88.7992 292.784 86.2992 293.284 79.0992C293.284 79.0992 281.084 60.7992 284.684 44.6992Z" fill="white" stroke="#010202" stroke-miterlimit="10"/>
<path d="M305.084 36.4996C305.084 36.4996 321.084 7.89959 335.884 29.7996C335.884 29.7996 342.084 44.5996 341.284 47.4996C341.284 47.4996 338.484 50.7996 337.084 53.8996C337.084 53.8996 335.484 57.0996 339.684 64.2996C339.684 64.2996 341.184 67.8996 333.484 70.2996C333.484 70.2996 327.984 72.0996 322.684 67.1996C322.684 67.1996 318.784 45.6996 305.084 36.4996Z" fill="white" stroke="#010202" stroke-miterlimit="10"/>
<path d="M281.684 50.7998C281.684 50.7998 258.484 44.7998 262.984 65.0998Z" fill="white"/>
<path d="M281.684 50.7997C280.484 50.5997 279.184 50.4997 277.984 50.3997C276.784 50.2997 275.484 50.2997 274.284 50.3997C271.784 50.4997 269.284 50.9997 267.284 52.1997C265.184 53.2997 263.784 55.3997 263.184 57.7997C262.884 58.9997 262.784 60.1997 262.784 61.4997C262.784 62.0997 262.884 62.6997 262.884 63.3997C262.984 63.9997 263.084 64.5997 263.084 65.2997C262.384 62.8997 261.984 60.2997 262.384 57.6997C262.584 56.3997 263.084 55.1997 263.784 53.9997C264.484 52.8997 265.584 51.9997 266.684 51.2997C268.984 49.9997 271.684 49.5997 274.184 49.6997C276.784 49.5997 279.284 49.9997 281.684 50.7997Z" fill="#010202"/>
<path d="M311.584 38.7992C311.584 38.7992 324.184 18.3992 334.984 36.1992Z" fill="white"/>
<path d="M311.584 38.7991C312.784 36.5991 314.384 34.4991 316.184 32.6991C317.984 30.8991 320.184 29.3991 322.784 28.6991C324.084 28.3991 325.484 28.2991 326.784 28.5991C328.084 28.8991 329.284 29.4991 330.384 30.2991C332.484 31.8991 333.984 33.9991 335.084 36.1991C334.684 35.6991 334.284 35.1991 333.984 34.6991C333.584 34.1991 333.184 33.6991 332.784 33.2991C331.884 32.3991 330.984 31.4991 329.984 30.8991C327.984 29.5991 325.484 28.9991 323.184 29.6991C320.884 30.2991 318.784 31.6991 316.884 33.2991C315.984 34.0991 315.084 34.9991 314.184 35.8991C313.184 36.7991 312.384 37.7991 311.584 38.7991Z" fill="#010202"/>
<path d="M325.484 57.3994C324.984 56.0994 324.084 55.0994 322.984 54.1994C322.684 52.7994 322.284 51.3994 321.784 49.9994C317.284 38.6994 304.784 33.0994 293.884 37.4994C290.084 38.9994 286.984 41.5994 284.784 44.6994C280.584 50.5994 279.484 58.4994 282.384 65.7994C283.084 67.4994 283.984 68.9994 284.984 70.3994C284.984 71.3994 285.084 72.4994 285.484 73.3994C287.184 77.6994 292.784 79.7994 299.584 79.4994C299.784 79.4994 299.884 79.4994 300.084 79.4994C305.084 85.2994 311.084 92.6994 311.384 95.8994C312.084 101.499 309.484 101.099 308.984 97.3994C308.984 97.3994 305.484 96.2994 305.184 97.2994C304.884 98.2994 305.884 101.099 306.784 102.699C307.084 103.299 314.884 107.599 320.384 97.3994C320.684 90.4994 319.584 81.3994 318.884 72.0994C324.384 67.4994 327.284 61.8994 325.484 57.3994Z" fill="white" stroke="#010202" stroke-miterlimit="10"/>
<path d="M309.463 56.5242C310.693 56.03 311.072 54.0922 310.31 52.196C309.548 50.2999 307.934 49.1635 306.704 49.6578C305.474 50.152 305.094 52.0898 305.856 53.986C306.618 55.8821 308.233 57.0185 309.463 56.5242Z" fill="#010202"/>
<path d="M309.463 56.5242C310.693 56.03 311.072 54.0922 310.31 52.196C309.548 50.2999 307.934 49.1635 306.704 49.6578C305.474 50.152 305.094 52.0898 305.856 53.986C306.618 55.8821 308.233 57.0185 309.463 56.5242Z" fill="#010202"/>
<path d="M296.158 61.8455C297.387 61.3512 297.767 59.4135 297.005 57.5173C296.243 55.6212 294.628 54.4848 293.398 54.9791C292.168 55.4733 291.789 57.4111 292.551 59.3073C293.313 61.2034 294.928 62.3398 296.158 61.8455Z" fill="#010202"/>
<path d="M296.784 77C296.784 77 294.684 77.3 294.884 78.8C295.084 80.3 296.384 79.6 295.484 83C294.584 86.4 293.084 88.1 293.584 88.5C294.084 88.9 297.484 91 301.484 81.4L296.784 77Z" fill="white" stroke="#010202" stroke-miterlimit="10"/>
<path d="M319.184 67.9992C319.184 67.9992 320.984 66.7992 321.784 67.9992C322.684 69.1992 321.184 69.5992 324.284 71.4992C327.284 73.3992 329.584 73.4992 329.484 74.0992C329.384 74.6992 328.384 78.5992 318.884 74.3992L319.184 67.9992Z" fill="white" stroke="#010202" stroke-miterlimit="10"/>
<path d="M296.884 63.5994C297.584 62.5994 298.484 61.7994 299.484 60.9994C300.484 60.2994 301.584 59.6994 302.684 59.1994C303.284 58.9994 303.884 58.7994 304.384 58.5994C304.984 58.4994 305.584 58.2994 306.184 58.2994C307.384 58.0994 308.584 58.1994 309.784 58.3994C308.584 58.5994 307.384 58.7994 306.284 59.0994C305.184 59.3994 304.084 59.6994 302.984 60.1994C300.884 60.9994 298.884 62.1994 296.884 63.5994Z" fill="#010202"/>
<path d="M297.784 70.0997C299.584 67.6997 302.084 65.7997 304.784 64.3997C306.184 63.7997 307.684 63.2997 309.184 63.1997C310.684 62.9997 312.284 63.1997 313.684 63.6997C312.184 63.5997 310.684 63.6997 309.284 63.9997C307.884 64.2997 306.484 64.7997 305.184 65.3997C303.884 65.9997 302.584 66.6997 301.384 67.4997C300.184 68.2997 298.884 69.0997 297.784 70.0997Z" fill="#010202"/>
<path d="M302.184 75.4994C302.784 74.4994 303.584 73.6994 304.484 72.9994C305.384 72.2994 306.384 71.6994 307.384 71.2994C307.884 71.0994 308.484 70.8994 308.984 70.7994C309.584 70.6994 310.084 70.4994 310.684 70.4994C311.784 70.3994 312.984 70.4994 314.084 70.7994C312.984 70.8994 311.884 70.9994 310.784 71.2994C309.684 71.4994 308.684 71.7994 307.684 72.2994C305.784 72.9994 303.984 74.0994 302.184 75.4994Z" fill="#010202"/>
<path d="M305.384 81.2C305.884 80.3 306.584 79.6 307.384 79C308.184 78.4 309.084 77.9 309.984 77.5C310.884 77.1 311.884 76.9 312.884 76.8C313.884 76.7 314.884 76.8 315.884 77C314.884 77.2 313.984 77.3 312.984 77.6C312.084 77.8 311.184 78.1 310.284 78.5C308.684 79.1 306.984 80 305.384 81.2Z" fill="#010202"/>
<path d="M308.784 86.7994C309.184 86.0994 309.784 85.4994 310.384 84.9994C310.984 84.4994 311.684 84.0994 312.484 83.7994C313.184 83.4994 313.984 83.2994 314.784 83.1994C315.584 83.0994 316.384 83.1994 317.184 83.3994C316.384 83.5994 315.684 83.7994 314.984 83.9994C314.284 84.1994 313.584 84.4994 312.884 84.7994C311.484 85.2994 310.184 86.0994 308.784 86.7994Z" fill="#010202"/>
<path d="M311.684 90.8996C311.984 90.3996 312.384 89.8996 312.884 89.5996C313.384 89.1996 313.884 88.8996 314.384 88.6996C314.984 88.4996 315.584 88.2996 316.184 88.3996C316.784 88.3996 317.484 88.6996 317.784 89.1996C317.184 89.0996 316.684 89.0996 316.184 89.1996C315.684 89.2996 315.184 89.4996 314.684 89.6996C313.784 89.9996 312.784 90.4996 311.684 90.8996Z" fill="#010202"/>
<path d="M313.784 94.4994C313.984 94.0994 314.284 93.7994 314.684 93.4994C315.084 93.1994 315.484 93.0994 315.984 92.9994C316.484 92.8994 316.984 92.9994 317.384 93.2994C317.784 93.4994 318.084 93.8994 318.284 94.2994C317.784 94.1994 317.484 94.0994 317.084 93.9994C316.684 93.9994 316.384 93.8994 316.084 93.9994C315.384 94.0994 314.684 94.2994 313.784 94.4994Z" fill="#010202"/>
<path d="M289.384 51.3994C289.184 50.6994 289.284 50.0994 289.584 49.4994C289.784 49.1994 289.984 48.9994 290.384 48.7994C290.684 48.5994 291.184 48.6994 291.384 48.8994C291.084 49.0994 290.884 49.1994 290.784 49.3994C290.684 49.5994 290.484 49.7994 290.384 49.9994C290.184 50.4994 289.984 50.8994 289.384 51.3994Z" fill="#010202"/>
<path d="M303.384 43.9996C303.584 43.6996 303.884 43.4996 304.284 43.2996C304.584 43.1996 304.984 43.0996 305.384 43.0996C305.784 43.0996 306.184 43.1996 306.484 43.3996C306.784 43.5996 307.084 43.8996 307.184 44.2996C306.784 44.1996 306.484 44.1996 306.284 44.0996C305.984 44.0996 305.684 44.0996 305.484 44.0996C304.684 44.0996 304.084 44.0996 303.384 43.9996Z" fill="#010202"/>
<path d="M291.684 73.1998C291.284 73.0998 290.884 72.7998 290.684 72.3998C290.484 71.9998 290.384 71.4998 290.484 71.0998C290.584 70.6998 290.784 70.2998 291.084 69.9998C291.384 69.6998 291.684 69.4998 292.084 69.2998C291.984 69.6998 291.884 70.0998 291.784 70.3998C291.684 70.6998 291.584 70.9998 291.484 71.2998C291.284 71.7998 291.384 72.3998 291.684 73.1998Z" fill="#010202"/>
<path d="M317.584 58.9996C317.884 58.6996 318.384 58.5996 318.784 58.6996C319.184 58.6996 319.584 58.9996 319.984 59.1996C320.284 59.4996 320.484 59.8996 320.684 60.2996C320.784 60.6996 320.884 61.0996 320.784 61.4996C320.484 61.1996 320.284 60.8996 319.984 60.6996C319.784 60.4996 319.584 60.1996 319.284 59.9996C318.884 59.5996 318.384 59.2996 317.584 58.9996Z" fill="#010202"/>
<path d="M281.484 56.5003C281.484 56.5003 274.384 50.9003 270.184 42.6003C265.084 32.7003 264.284 19.0003 285.384 6.80031C288.284 5.10031 291.584 4.40031 294.884 4.70031C338.384 9.00031 319.484 48.8003 319.484 48.8003C319.484 48.8003 297.184 38.1003 296.784 35.3003C296.784 35.3003 282.784 59.1003 281.484 56.5003Z" fill="#010202" stroke="#010202" stroke-miterlimit="10"/>
<path d="M269.684 42.1004C270.084 38.8004 271.284 35.6004 272.784 32.6004C273.484 31.1004 274.484 29.7004 275.284 28.3004C276.084 26.9004 276.884 25.5004 277.684 24.1004C279.184 21.2004 280.684 18.3004 282.084 15.3004C282.784 13.8004 283.484 12.4004 284.184 10.9004C284.584 10.2004 284.884 9.40039 285.184 8.70039C285.384 8.30039 285.484 8.00039 285.684 7.60039C285.884 7.20039 285.984 6.80039 286.084 6.40039C286.184 7.20039 285.884 8.10039 285.784 8.90039C285.584 9.70039 285.384 10.5004 285.184 11.3004C284.684 12.9004 284.184 14.5004 283.584 16.0004C282.384 19.1004 281.084 22.1004 279.484 25.1004C278.684 26.6004 277.884 28.0004 276.984 29.4004L275.584 31.4004C275.184 32.1004 274.684 32.8004 274.284 33.4004C272.484 36.1004 270.884 39.0004 269.684 42.1004Z" fill="white"/>
<path d="M276.984 52.2004C276.784 51.0004 276.884 49.8004 277.084 48.6004C277.284 47.4004 277.484 46.2004 277.884 45.1004C278.184 43.9004 278.584 42.8004 278.984 41.7004C279.384 40.6004 279.884 39.5004 280.384 38.3004L280.484 38.2004C282.184 35.6004 283.884 33.0004 285.484 30.3004C287.084 27.6004 288.684 25.0004 289.984 22.2004C290.284 21.5004 290.584 20.8004 290.784 20.1004C290.984 19.4004 291.284 18.6004 291.484 17.9004C292.084 16.4004 292.684 14.9004 293.284 13.5004C293.984 12.1004 294.584 10.7004 295.184 9.20039C295.484 8.50039 295.784 7.80039 295.884 7.00039C295.984 6.30039 296.084 5.40039 295.484 4.90039C295.884 5.10039 296.084 5.50039 296.184 5.90039C296.284 6.30039 296.284 6.70039 296.284 7.10039C296.284 7.90039 296.084 8.70039 295.884 9.50039C295.484 11.0004 294.984 12.5004 294.484 14.0004C293.984 15.5004 293.484 16.9004 292.984 18.4004L292.684 19.5004C292.584 19.9004 292.484 20.2004 292.384 20.6004C292.184 21.4004 291.884 22.1004 291.584 22.9004C290.284 25.8004 288.784 28.6004 287.084 31.3004C285.384 34.0004 283.684 36.6004 281.784 39.1004L281.884 39.0004C281.384 40.1004 280.784 41.1004 280.284 42.2004C279.784 43.3004 279.284 44.3004 278.884 45.4004C278.484 46.5004 277.984 47.6004 277.684 48.7004C277.284 49.8004 276.984 51.0004 276.984 52.2004Z" fill="white"/>
<path d="M297.184 35.0004C297.184 35.0004 307.684 15.6004 300.284 5.90039" stroke="white" stroke-width="1.25" stroke-miterlimit="10"/>
<path d="M323.584 30.2004C321.984 28.7004 320.384 27.2004 318.784 25.8004C318.384 25.5004 317.984 25.2004 317.584 24.9004C317.184 24.6004 316.884 24.5004 316.284 24.3004C315.284 23.9004 314.284 23.3004 313.284 22.8004C312.284 22.2004 311.384 21.7004 310.484 21.0004C309.984 20.7004 309.584 20.3004 309.084 19.9004C308.984 19.8004 308.884 19.6004 308.684 19.5004C308.584 19.4004 308.584 19.4004 308.484 19.3004C308.284 19.1004 308.084 18.9004 307.984 18.8004C306.384 17.4004 304.684 16.0004 303.184 14.4004C305.184 15.3004 307.184 16.3004 308.984 17.5004C309.184 17.7004 309.484 17.8004 309.684 18.0004C309.784 18.1004 309.884 18.2004 310.084 18.3004C310.184 18.4004 310.184 18.4004 310.284 18.5004C310.684 18.8004 311.084 19.1004 311.584 19.3004C312.484 19.9004 313.384 20.4004 314.384 20.9004C315.284 21.4004 316.284 21.9004 317.184 22.4004C317.584 22.6004 318.284 23.0004 318.684 23.3004C319.184 23.7004 319.584 24.1004 319.984 24.5004C321.384 26.4004 322.584 28.2004 323.584 30.2004Z" fill="white"/>
<path d="M321.384 42.4004C320.084 40.5004 318.884 38.7004 317.484 37.1004C316.784 36.3004 316.084 35.6004 315.184 34.9004C314.384 34.3004 313.484 33.7004 312.484 33.1004C310.684 31.9004 308.784 30.7004 306.984 29.4004C305.184 28.1004 303.384 26.8004 301.684 25.4004C303.784 26.1004 305.884 27.1004 307.884 28.1004C309.884 29.1004 311.784 30.2004 313.684 31.5004C314.584 32.1004 315.584 32.8004 316.384 33.5004C317.284 34.3004 318.084 35.2004 318.684 36.2004C319.884 38.1004 320.784 40.2004 321.384 42.4004Z" fill="white"/>
<g filter="url(#filter0_d_124_2165)">
<path d="M539.083 317.434L529.302 143.219L563.163 141.318L571.278 285.843L660.103 280.856L661.77 310.546L539.083 317.434Z" fill="#283237"/>
</g>
<path d="M411.799 149.815L446.151 147.887L519.975 318.506L485.132 320.463L466.499 277.941L405.646 281.357L392.135 325.684L357.292 327.64L411.799 149.815ZM459.028 254.484L430.945 183.94L409.953 257.239L459.028 254.484Z" fill="#283237"/>
<g filter="url(#filter1_d_124_2165)">
<path d="M346.157 298.481L347.824 328.172L226.855 334.963L217.074 160.748L335.834 154.08L337.501 183.771L252.602 188.537L254.958 230.496L328.325 226.377L329.867 253.859L256.501 257.978L259.049 303.372L346.157 298.481Z" fill="#283237"/>
</g>
<g filter="url(#filter2_d_124_2165)">
<path d="M51.2114 344.825L41.4302 170.609L104.737 167.055C123.712 165.99 139.8 169.025 153 176.16C166.191 183.132 176.349 193.064 183.472 205.956C190.587 218.685 194.594 233.065 195.494 249.096C196.486 266.763 193.832 282.337 187.533 295.818C181.234 309.3 171.825 320.002 159.306 327.925C146.95 335.839 132.021 340.288 114.518 341.27L51.2114 344.825ZM161.387 251.011C160.754 239.723 158.153 229.941 153.586 221.665C149.01 213.224 142.744 206.848 134.789 202.536C126.826 198.06 117.364 196.13 106.404 196.745L76.9587 198.398L83.406 313.233L112.851 311.58C123.974 310.956 133.243 307.974 140.656 302.635C148.059 297.132 153.481 289.935 156.92 281.045C160.513 271.982 162.003 261.971 161.387 251.011Z" fill="#283237"/>
</g>
<path d="M660.102 280.855L571.277 285.842L563.163 141.318L529.301 143.219L539.082 317.434L661.769 310.546L660.102 280.855ZM578.515 277.744L667.34 272.757L669.868 317.783L531.845 325.532L521.203 135.981L570.4 133.219L578.515 277.744Z" fill="#283237"/>
<path d="M451.072 139.919L531.394 325.558L480.238 328.43L461.605 285.907L411.428 288.724L397.918 333.051L346.72 335.926L406.025 142.448L451.072 139.919ZM411.798 149.816L357.291 327.64L392.136 325.684L405.645 281.357L466.498 277.94L485.132 320.463L519.974 318.507L446.15 147.887L411.798 149.816ZM459.027 254.484L409.953 257.239L430.944 183.939L459.027 254.484ZM420.311 248.965L447.947 247.414L432.133 207.687L420.311 248.965Z" fill="#283237"/>
<path d="M420.311 248.965L447.947 247.414L432.133 207.687L420.311 248.965Z" fill="#283237"/>
<path d="M346.157 298.481L259.049 303.371L256.5 257.978L329.868 253.859L328.325 226.377L254.957 230.496L252.602 188.538L337.501 183.771L335.834 154.08L217.073 160.748L226.854 334.963L347.824 328.171L346.157 298.481ZM345.599 191.009L260.7 195.775L262.195 222.398L335.562 218.278L337.966 261.096L264.599 265.215L266.286 295.273L353.395 290.382L355.923 335.409L219.617 343.062L208.975 153.511L343.071 145.982L345.599 191.009Z" fill="#283237"/>
<path d="M195.494 249.095C194.594 233.064 190.586 218.685 183.472 205.957C176.348 193.065 166.192 183.132 153.001 176.16C140.213 169.247 124.714 166.183 106.506 166.967L104.737 167.055L104.306 159.387C124.298 158.265 141.859 161.425 156.589 169.37L157.939 170.098C171.782 177.72 182.58 188.466 190.191 202.237C197.92 216.076 202.204 231.6 203.162 248.664C204.211 267.359 201.421 284.239 194.491 299.069C187.579 313.861 177.194 325.68 163.447 334.39L163.449 334.392C149.782 343.146 133.514 347.896 114.948 348.938L43.9733 352.923L33.3312 163.372L104.306 159.387L104.737 167.055L41.4296 170.609L51.2107 344.825L114.518 341.27L116.152 341.167C132.952 340.005 147.336 335.592 159.305 327.925C171.433 320.25 180.642 309.966 186.933 297.075L187.533 295.818C193.832 282.337 196.486 266.762 195.494 249.095ZM153.719 251.44C153.137 241.081 150.774 232.464 146.862 225.374L146.848 225.351L146.835 225.325C142.922 218.109 137.694 212.847 131.129 209.288L131.078 209.259L131.026 209.23C124.576 205.605 116.63 203.864 106.834 204.414L85.0566 205.637L90.6428 305.134L112.42 303.912L112.851 311.579L83.4054 313.233L76.9582 198.399L106.404 196.746C117.364 196.131 126.825 198.061 134.789 202.536C142.744 206.849 149.009 213.225 153.585 221.665C158.152 229.942 160.753 239.723 161.387 251.01C162.002 261.97 160.513 271.982 156.919 281.045C153.48 289.935 148.059 297.132 140.655 302.634C133.242 307.973 123.974 310.955 112.851 311.579L112.42 303.912C122.379 303.352 130.138 300.727 136.119 296.434C142.296 291.831 146.83 285.84 149.757 278.273L149.768 278.244L149.78 278.214C152.914 270.31 154.28 261.428 153.719 251.44Z" fill="#283237"/>
<path d="M153.719 251.44C153.137 241.081 150.774 232.464 146.862 225.374L146.848 225.351L146.835 225.325C142.922 218.109 137.694 212.847 131.129 209.288L131.078 209.259L131.026 209.23C124.576 205.605 116.63 203.864 106.834 204.414L85.0566 205.637L90.6428 305.134L112.42 303.912C122.379 303.352 130.138 300.727 136.119 296.434C142.296 291.831 146.83 285.84 149.757 278.273L149.768 278.244L149.78 278.214C152.914 270.31 154.28 261.428 153.719 251.44Z" fill="#283237"/>
<mask id="path-52-outside-1_124_2165" maskUnits="userSpaceOnUse" x="12.675" y="111.791" width="637.719" height="225.903" fill="black">
<rect fill="white" x="12.675" y="111.791" width="637.719" height="225.903"/>
<path d="M31.1065 329.247L21.3254 155.032L84.6318 151.478C103.607 150.412 119.695 153.447 132.895 160.583C146.087 167.555 156.244 177.487 163.368 190.379C170.482 203.107 174.489 217.487 175.389 233.518C176.381 251.185 173.727 266.759 167.428 280.241C161.129 293.722 151.72 304.425 139.201 312.348C126.846 320.262 111.916 324.71 94.4129 325.693L31.1065 329.247ZM141.282 235.433C140.649 224.146 138.048 214.364 133.481 206.087C128.905 197.647 122.639 191.271 114.685 186.959C106.721 182.483 97.2587 180.553 86.2987 181.168L56.8539 182.821L63.3011 297.656L92.746 296.003C103.87 295.378 113.138 292.396 120.551 287.057C127.954 281.555 133.376 274.358 136.815 265.468C140.409 256.405 141.898 246.393 141.282 235.433ZM326.052 282.904L327.719 312.594L206.75 319.386L196.969 145.171L315.73 138.503L317.397 168.193L232.497 172.96L234.853 214.919L308.22 210.8L309.763 238.281L236.396 242.4L238.945 287.795L326.052 282.904ZM391.694 134.238L426.046 132.309L499.87 302.929L465.027 304.885L446.394 262.363L385.541 265.78L372.03 310.106L337.187 312.063L391.694 134.238ZM438.923 238.906L410.84 168.362L389.848 241.662L438.923 238.906ZM518.978 301.856L509.197 127.641L543.059 125.74L551.173 270.265L639.998 265.278L641.665 294.968L518.978 301.856Z"/>
</mask>
<path d="M31.1065 329.247L21.3254 155.032L84.6318 151.478C103.607 150.412 119.695 153.447 132.895 160.583C146.087 167.555 156.244 177.487 163.368 190.379C170.482 203.107 174.489 217.487 175.389 233.518C176.381 251.185 173.727 266.759 167.428 280.241C161.129 293.722 151.72 304.425 139.201 312.348C126.846 320.262 111.916 324.71 94.4129 325.693L31.1065 329.247ZM141.282 235.433C140.649 224.146 138.048 214.364 133.481 206.087C128.905 197.647 122.639 191.271 114.685 186.959C106.721 182.483 97.2587 180.553 86.2987 181.168L56.8539 182.821L63.3011 297.656L92.746 296.003C103.87 295.378 113.138 292.396 120.551 287.057C127.954 281.555 133.376 274.358 136.815 265.468C140.409 256.405 141.898 246.393 141.282 235.433ZM326.052 282.904L327.719 312.594L206.75 319.386L196.969 145.171L315.73 138.503L317.397 168.193L232.497 172.96L234.853 214.919L308.22 210.8L309.763 238.281L236.396 242.4L238.945 287.795L326.052 282.904ZM391.694 134.238L426.046 132.309L499.87 302.929L465.027 304.885L446.394 262.363L385.541 265.78L372.03 310.106L337.187 312.063L391.694 134.238ZM438.923 238.906L410.84 168.362L389.848 241.662L438.923 238.906ZM518.978 301.856L509.197 127.641L543.059 125.74L551.173 270.265L639.998 265.278L641.665 294.968L518.978 301.856Z" fill="white"/>
<path d="M31.1065 329.247L23.4386 329.678L23.8691 337.346L31.537 336.915L31.1065 329.247ZM21.3254 155.032L20.8949 147.364L13.2269 147.795L13.6575 155.462L21.3254 155.032ZM132.895 160.583L129.243 167.339L129.275 167.356L129.307 167.373L132.895 160.583ZM163.368 190.379L156.646 194.093L156.655 194.11L156.664 194.126L163.368 190.379ZM167.428 280.241L174.386 283.492L174.386 283.492L167.428 280.241ZM139.201 312.348L135.094 305.858L135.076 305.87L135.058 305.881L139.201 312.348ZM133.481 206.087L126.73 209.748L126.743 209.773L126.757 209.798L133.481 206.087ZM114.685 186.959L110.922 193.654L110.973 193.682L111.024 193.71L114.685 186.959ZM56.8539 182.821L56.4233 175.153L48.7554 175.584L49.1859 183.252L56.8539 182.821ZM63.3011 297.656L55.6332 298.086L56.0637 305.754L63.7317 305.324L63.3011 297.656ZM120.551 287.057L125.039 293.289L125.086 293.256L125.132 293.221L120.551 287.057ZM136.815 265.468L129.676 262.637L129.664 262.667L129.652 262.697L136.815 265.468ZM31.1065 329.247L38.7744 328.817L28.9933 154.601L21.3254 155.032L13.6575 155.462L23.4386 329.678L31.1065 329.247ZM21.3254 155.032L21.7559 162.7L85.0623 159.146L84.6318 151.478L84.2013 143.81L20.8949 147.364L21.3254 155.032ZM84.6318 151.478L85.0623 159.146C102.993 158.139 117.587 161.038 129.243 167.339L132.895 160.583L136.548 153.827C121.804 145.857 104.222 142.686 84.2013 143.81L84.6318 151.478ZM132.895 160.583L129.307 167.373C141.195 173.656 150.255 182.528 156.646 194.093L163.368 190.379L170.09 186.665C162.233 172.447 150.979 161.454 136.484 153.793L132.895 160.583ZM163.368 190.379L156.664 194.126C163.154 205.737 166.88 218.963 167.721 233.949L175.389 233.518L183.057 233.088C182.099 216.012 177.81 200.478 170.071 186.632L163.368 190.379ZM175.389 233.518L167.721 233.949C168.656 250.588 166.139 264.857 160.47 276.99L167.428 280.241L174.386 283.492C181.316 268.662 184.107 251.783 183.057 233.088L175.389 233.518ZM167.428 280.241L160.47 276.99C154.789 289.148 146.367 298.724 135.094 305.858L139.201 312.348L143.308 318.837C157.073 310.126 167.468 298.297 174.386 283.492L167.428 280.241ZM139.201 312.348L135.058 305.881C124.015 312.955 110.423 317.102 93.9824 318.025L94.4129 325.693L94.8434 333.361C113.41 332.318 129.676 327.569 143.343 318.815L139.201 312.348ZM94.4129 325.693L93.9824 318.025L30.676 321.579L31.1065 329.247L31.537 336.915L94.8434 333.361L94.4129 325.693ZM141.282 235.433L148.95 235.003C148.265 222.788 145.428 211.841 140.205 202.377L133.481 206.087L126.757 209.798C130.669 216.887 133.033 225.504 133.614 235.864L141.282 235.433ZM133.481 206.087L140.233 202.427C134.992 192.762 127.689 185.272 118.345 180.207L114.685 186.959L111.024 193.71C117.59 197.269 122.817 202.532 126.73 209.748L133.481 206.087ZM114.685 186.959L118.447 180.264C108.97 174.937 97.9924 172.819 85.8682 173.5L86.2987 181.168L86.7292 188.836C96.525 188.286 104.472 190.029 110.922 193.654L114.685 186.959ZM86.2987 181.168L85.8682 173.5L56.4233 175.153L56.8539 182.821L57.2844 190.489L86.7292 188.836L86.2987 181.168ZM56.8539 182.821L49.1859 183.252L55.6332 298.086L63.3011 297.656L70.9691 297.225L64.5218 182.391L56.8539 182.821ZM63.3011 297.656L63.7317 305.324L93.1765 303.671L92.746 296.003L92.3155 288.335L62.8706 289.988L63.3011 297.656ZM92.746 296.003L93.1765 303.671C105.439 302.982 116.201 299.655 125.039 293.289L120.551 287.057L116.062 280.825C110.075 285.138 102.3 287.774 92.3155 288.335L92.746 296.003ZM120.551 287.057L125.132 293.221C133.739 286.824 140.034 278.433 143.978 268.239L136.815 265.468L129.652 262.697C126.718 270.283 122.169 276.285 115.969 280.893L120.551 287.057ZM136.815 265.468L143.954 268.299C148.008 258.076 149.62 246.935 148.95 235.003L141.282 235.433L133.614 235.864C134.175 245.852 132.81 254.733 129.676 262.637L136.815 265.468ZM326.052 282.904L333.72 282.473L333.29 274.806L325.622 275.236L326.052 282.904ZM327.719 312.594L328.15 320.262L335.818 319.832L335.387 312.164L327.719 312.594ZM206.75 319.386L199.082 319.816L199.512 327.484L207.18 327.054L206.75 319.386ZM196.969 145.171L196.538 137.503L188.87 137.933L189.301 145.601L196.969 145.171ZM315.73 138.503L323.397 138.072L322.967 130.405L315.299 130.835L315.73 138.503ZM317.397 168.193L317.827 175.861L325.495 175.431L325.064 167.763L317.397 168.193ZM232.497 172.96L232.067 165.292L224.399 165.722L224.829 173.39L232.497 172.96ZM234.853 214.919L227.185 215.349L227.616 223.017L235.283 222.587L234.853 214.919ZM308.22 210.8L315.888 210.369L315.457 202.701L307.789 203.132L308.22 210.8ZM309.763 238.281L310.193 245.949L317.861 245.519L317.431 237.851L309.763 238.281ZM236.396 242.4L235.965 234.733L228.297 235.163L228.728 242.831L236.396 242.4ZM238.945 287.795L231.277 288.225L231.707 295.893L239.375 295.462L238.945 287.795ZM326.052 282.904L318.384 283.335L320.051 313.025L327.719 312.594L335.387 312.164L333.72 282.473L326.052 282.904ZM327.719 312.594L327.289 304.926L206.319 311.718L206.75 319.386L207.18 327.054L328.15 320.262L327.719 312.594ZM206.75 319.386L214.418 318.955L204.637 144.74L196.969 145.171L189.301 145.601L199.082 319.816L206.75 319.386ZM196.969 145.171L197.399 152.839L316.16 146.171L315.73 138.503L315.299 130.835L196.538 137.503L196.969 145.171ZM315.73 138.503L308.062 138.933L309.729 168.624L317.397 168.193L325.064 167.763L323.397 138.072L315.73 138.503ZM317.397 168.193L316.966 160.525L232.067 165.292L232.497 172.96L232.928 180.628L317.827 175.861L317.397 168.193ZM232.497 172.96L224.829 173.39L227.185 215.349L234.853 214.919L242.521 214.488L240.165 172.529L232.497 172.96ZM234.853 214.919L235.283 222.587L308.65 218.467L308.22 210.8L307.789 203.132L234.422 207.251L234.853 214.919ZM308.22 210.8L300.552 211.23L302.095 238.712L309.763 238.281L317.431 237.851L315.888 210.369L308.22 210.8ZM309.763 238.281L309.332 230.613L235.965 234.733L236.396 242.4L236.826 250.068L310.193 245.949L309.763 238.281ZM236.396 242.4L228.728 242.831L231.277 288.225L238.945 287.795L246.612 287.364L244.064 241.97L236.396 242.4ZM238.945 287.795L239.375 295.462L326.483 290.572L326.052 282.904L325.622 275.236L238.514 280.127L238.945 287.795ZM391.694 134.238L391.263 126.57L385.919 126.87L384.351 131.987L391.694 134.238ZM426.046 132.309L433.095 129.26L430.966 124.341L425.616 124.641L426.046 132.309ZM499.87 302.929L500.3 310.597L511.289 309.98L506.918 299.879L499.87 302.929ZM465.027 304.885L457.992 307.968L460.133 312.852L465.457 312.553L465.027 304.885ZM446.394 262.363L453.428 259.281L451.288 254.396L445.963 254.695L446.394 262.363ZM385.541 265.78L385.11 258.112L379.758 258.412L378.195 263.541L385.541 265.78ZM372.03 310.106L372.461 317.774L377.813 317.474L379.376 312.346L372.03 310.106ZM337.187 312.063L329.844 309.812L326.615 320.348L337.618 319.731L337.187 312.063ZM438.923 238.906L439.353 246.574L450.004 245.976L446.058 236.066L438.923 238.906ZM410.84 168.362L417.975 165.522L409.652 144.614L403.457 166.248L410.84 168.362ZM389.848 241.662L382.465 239.547L379.49 249.935L390.279 249.33L389.848 241.662ZM391.694 134.238L392.124 141.906L426.477 139.977L426.046 132.309L425.616 124.641L391.263 126.57L391.694 134.238ZM426.046 132.309L418.998 135.359L492.821 305.979L499.87 302.929L506.918 299.879L433.095 129.26L426.046 132.309ZM499.87 302.929L499.439 295.261L464.596 297.217L465.027 304.885L465.457 312.553L500.3 310.597L499.87 302.929ZM465.027 304.885L472.061 301.803L453.428 259.281L446.394 262.363L439.359 265.446L457.992 307.968L465.027 304.885ZM446.394 262.363L445.963 254.695L385.11 258.112L385.541 265.78L385.971 273.448L446.824 270.031L446.394 262.363ZM385.541 265.78L378.195 263.541L364.684 307.867L372.03 310.106L379.376 312.346L392.887 268.019L385.541 265.78ZM372.03 310.106L371.6 302.438L336.757 304.395L337.187 312.063L337.618 319.731L372.461 317.774L372.03 310.106ZM337.187 312.063L344.53 314.313L399.037 136.489L391.694 134.238L384.351 131.987L329.844 309.812L337.187 312.063ZM438.923 238.906L446.058 236.066L417.975 165.522L410.84 168.362L403.705 171.203L431.788 241.747L438.923 238.906ZM410.84 168.362L403.457 166.248L382.465 239.547L389.848 241.662L397.231 243.776L418.223 170.477L410.84 168.362ZM389.848 241.662L390.279 249.33L439.353 246.574L438.923 238.906L438.492 231.239L389.418 233.994L389.848 241.662ZM518.978 301.856L511.31 302.287L511.741 309.955L519.409 309.524L518.978 301.856ZM509.197 127.641L508.767 119.973L501.099 120.403L501.529 128.071L509.197 127.641ZM543.059 125.74L550.727 125.309L550.296 117.641L542.628 118.072L543.059 125.74ZM551.173 270.265L543.505 270.695L543.935 278.363L551.603 277.933L551.173 270.265ZM639.998 265.278L647.666 264.847L647.235 257.179L639.568 257.61L639.998 265.278ZM641.665 294.968L642.095 302.636L649.763 302.205L649.333 294.538L641.665 294.968ZM518.978 301.856L526.646 301.426L516.865 127.21L509.197 127.641L501.529 128.071L511.31 302.287L518.978 301.856ZM509.197 127.641L509.628 135.309L543.489 133.408L543.059 125.74L542.628 118.072L508.767 119.973L509.197 127.641ZM543.059 125.74L535.391 126.17L543.505 270.695L551.173 270.265L558.841 269.834L550.727 125.309L543.059 125.74ZM551.173 270.265L551.603 277.933L640.429 272.946L639.998 265.278L639.568 257.61L550.742 262.597L551.173 270.265ZM639.998 265.278L632.33 265.708L633.997 295.399L641.665 294.968L649.333 294.538L647.666 264.847L639.998 265.278ZM641.665 294.968L641.234 287.3L518.548 294.188L518.978 301.856L519.409 309.524L642.095 302.636L641.665 294.968Z" fill="#283237" mask="url(#path-52-outside-1_124_2165)"/>
<defs>
<filter id="filter0_d_124_2165" x="525.462" y="141.317" width="140.148" height="183.796" filterUnits="userSpaceOnUse" color-interpolation-filters="sRGB">
<feFlood flood-opacity="0" result="BackgroundImageFix"/>
<feColorMatrix in="SourceAlpha" type="matrix" values="0 0 0 0 0 0 0 0 0 0 0 0 0 0 0 0 0 0 127 0" result="hardAlpha"/>
<feOffset dy="3.84"/>
<feGaussianBlur stdDeviation="1.92"/>
<feComposite in2="hardAlpha" operator="out"/>
<feColorMatrix type="matrix" values="0 0 0 0 0 0 0 0 0 0 0 0 0 0 0 0 0 0 0.25 0"/>
<feBlend mode="normal" in2="BackgroundImageFix" result="effect1_dropShadow_124_2165"/>
<feBlend mode="normal" in="SourceGraphic" in2="effect1_dropShadow_124_2165" result="shape"/>
</filter>
<filter id="filter1_d_124_2165" x="213.234" y="154.08" width="138.43" height="188.563" filterUnits="userSpaceOnUse" color-interpolation-filters="sRGB">
<feFlood flood-opacity="0" result="BackgroundImageFix"/>
<feColorMatrix in="SourceAlpha" type="matrix" values="0 0 0 0 0 0 0 0 0 0 0 0 0 0 0 0 0 0 127 0" result="hardAlpha"/>
<feOffset dy="3.84"/>
<feGaussianBlur stdDeviation="1.92"/>
<feComposite in2="hardAlpha" operator="out"/>
<feColorMatrix type="matrix" values="0 0 0 0 0 0 0 0 0 0 0 0 0 0 0 0 0 0 0.25 0"/>
<feBlend mode="normal" in2="BackgroundImageFix" result="effect1_dropShadow_124_2165"/>
<feBlend mode="normal" in="SourceGraphic" in2="effect1_dropShadow_124_2165" result="shape"/>
</filter>
<filter id="filter2_d_124_2165" x="37.5902" y="166.848" width="161.946" height="185.657" filterUnits="userSpaceOnUse" color-interpolation-filters="sRGB">
<feFlood flood-opacity="0" result="BackgroundImageFix"/>
<feColorMatrix in="SourceAlpha" type="matrix" values="0 0 0 0 0 0 0 0 0 0 0 0 0 0 0 0 0 0 127 0" result="hardAlpha"/>
<feOffset dy="3.84"/>
<feGaussianBlur stdDeviation="1.92"/>
<feComposite in2="hardAlpha" operator="out"/>
<feColorMatrix type="matrix" values="0 0 0 0 0 0 0 0 0 0 0 0 0 0 0 0 0 0 0.25 0"/>
<feBlend mode="normal" in2="BackgroundImageFix" result="effect1_dropShadow_124_2165"/>
<feBlend mode="normal" in="SourceGraphic" in2="effect1_dropShadow_124_2165" result="shape"/>
</filter>
</defs>
</svg>
