<svg width="294" height="205" viewBox="0 0 294 205" fill="none" xmlns="http://www.w3.org/2000/svg">
<path d="M179.557 174.335C180.717 174.831 181.649 173.419 181.649 173.419L230.298 108.336C230.828 107.739 231.357 107.142 232.231 106.638C233.542 105.881 234.449 105.939 235.634 104.964C237.693 103.484 235.717 102.586 237.053 100.358C237.675 99.4165 238.641 98.5673 239.515 98.0628C240.17 97.6844 240.733 97.6506 241.549 98.0537C255.25 104.126 259.86 92.4337 259.86 92.4337C262.11 84.7262 264.009 82.4647 265.218 80.0187C265.31 79.674 265.873 79.6403 266 79.8587C267.984 82.7912 267.916 81.6651 267.916 81.6651C267.916 81.6651 269.637 74.5544 271.477 73.2007C272.443 72.3515 271.317 72.4191 271.099 72.5453C261.754 75.0276 257.774 87.812 257.774 87.812C254.013 100.47 243.875 93.5062 243.875 93.5062C242.807 92.6661 242.832 91.1953 242.891 90.2876C242.983 89.943 243.075 89.5984 243.386 89.1276C245.47 86.177 258.188 68.3472 258.877 68.5318C259.567 68.7165 259.634 69.8427 260.013 70.4981C260.517 71.372 260.92 70.5567 260.92 70.5567L263.312 59.5629C263.404 59.2183 263.06 59.1259 262.841 59.2521L252.884 64.7098C252.884 64.7098 252.228 65.0882 253.044 65.4913C253.859 65.8945 255.078 65.4823 255.456 66.1377C255.834 66.7931 242.393 83.8752 240.183 86.6073C240.091 86.952 239.654 87.2042 239.436 87.3304C238.562 87.8349 237.217 88.0287 235.931 87.3147C235.931 87.3147 226.541 79.6276 237.523 72.4131C237.523 72.4131 248.724 65.0725 248.368 55.3739C248.46 55.0293 248.174 54.0292 247.678 55.1892C246.78 57.1645 240.57 61.041 240.57 61.041C240.57 61.041 239.57 61.327 243.016 62.2504C243.361 62.3428 243.395 62.9059 243.176 63.032C241.37 64.9488 239.379 67.5548 232.858 71.902C232.858 71.902 223.255 79.4858 232.755 90.896C233.134 91.5514 233.512 92.2068 233.327 92.8961C233.269 93.8038 232.773 94.9637 231.807 95.8129C230.001 97.7297 228.555 96.2342 227.782 98.428C227.194 99.9325 227.48 100.933 227.111 102.311C226.926 103 226.523 103.816 225.994 104.412L177.345 169.495C177.345 169.495 176.068 170.815 176.917 171.781L179.557 174.335Z" fill="white" stroke="#010202" stroke-width="2.52273" stroke-miterlimit="10"/>
<path d="M71.2094 81.0868L65.9117 87.3936C61.6231 92.4391 60.614 99.5027 63.1367 105.557C64.9026 109.341 68.1822 113.125 72.7231 117.162C72.7231 117.162 34.8822 96.4755 23.0254 80.0777C23.0254 80.0777 2.33901 103.287 2.84355 106.566C3.3481 109.846 43.4594 139.362 72.4708 145.416C68.1822 156.264 66.6686 160.553 62.1276 171.4C63.389 179.221 73.4799 204.196 101.987 204.196C107.284 204.196 113.339 199.655 116.871 195.871C182.714 124.225 112.582 174.932 218.537 138.605C197.85 95.7187 221.816 111.864 167.325 121.703C167.325 121.703 174.389 96.7277 156.478 71.7527C158.244 69.9868 176.659 59.8959 169.848 57.6255C168.082 57.1209 166.064 57.3732 164.55 58.6346C161.271 60.905 154.459 65.6982 152.946 65.9505" fill="#010202"/>
<path d="M6.12377 101.016L1.33057 93.7002C1.33057 93.7002 5.87147 68.4729 14.4487 75.2842C23.026 82.0956 23.026 82.0956 23.026 82.0956L6.12377 101.016Z" fill="white" stroke="#010202" stroke-width="2.52273" stroke-miterlimit="10"/>
<path d="M208.699 113.379C208.699 113.379 215.258 105.558 216.267 109.595C217.276 113.631 230.142 120.19 226.863 126.245C223.583 132.299 217.529 136.083 217.529 136.083L208.699 113.379Z" fill="white" stroke="#010202" stroke-width="2.52273" stroke-miterlimit="10"/>
<path d="M86.8504 74.5289C86.8504 74.5289 29.3323 56.8698 37.6573 104.802C37.6573 104.802 48.2527 132.299 53.0459 135.074C53.0459 135.074 60.8663 135.831 66.6686 138.102C66.6686 138.102 72.7231 140.372 76.5072 155.004C76.5072 155.004 79.03 161.815 92.4004 155.004C92.4004 155.004 101.987 150.463 102.744 137.345C102.239 137.597 80.0391 104.045 86.8504 74.5289Z" fill="white" stroke="#010202" stroke-width="2.52273" stroke-miterlimit="10"/>
<path d="M123.934 59.645C123.934 59.645 153.198 7.17228 180.443 47.2836C180.443 47.2836 191.795 74.2768 190.282 79.8268C190.282 79.8268 184.984 85.8814 182.714 91.4314C182.714 91.4314 179.686 97.2336 187.507 110.352C187.507 110.352 190.282 116.911 176.155 121.452C176.155 121.452 166.064 124.731 156.477 115.902C156.477 115.902 149.161 76.295 123.934 59.645Z" fill="white" stroke="#010202" stroke-width="2.52273" stroke-miterlimit="10"/>
<path d="M81.3 85.6283C81.3 85.6283 38.6659 74.5283 46.9909 111.865Z" fill="white"/>
<path d="M81.2998 85.6289C76.7589 85.1243 72.218 84.872 67.6771 85.1243C63.1362 85.3766 58.5953 86.1334 54.8112 88.4039C51.0271 90.422 48.5044 94.2061 47.4953 98.4948C46.4862 102.783 46.4862 107.324 46.9907 112.117C45.4771 107.829 44.7203 103.036 45.4771 98.2425C45.9816 95.972 46.7384 93.4493 47.9998 91.4311C49.5134 89.4129 51.2793 87.647 53.5498 86.3857C57.8384 83.8629 62.8839 83.3584 67.4248 83.3584C72.218 83.3584 76.7589 84.1152 81.2998 85.6289Z" fill="#010202"/>
<path d="M136.044 63.6821C136.044 63.6821 159.001 26.3457 178.93 58.8889Z" fill="white"/>
<path d="M136.044 63.6821C138.062 59.6458 140.837 55.6094 144.369 52.3298C147.648 49.0503 151.685 46.023 156.478 44.7617C158.748 44.2571 161.523 44.0049 163.794 44.5094C166.317 45.0139 168.587 46.2753 170.353 47.5367C174.137 50.5639 176.912 54.6003 178.93 58.6367C176.155 54.8526 172.876 51.573 169.344 49.0503C165.56 46.7798 161.271 45.7708 156.983 47.0321C152.694 48.0412 148.91 50.5639 145.63 53.5912C142.098 56.6185 138.819 59.898 136.044 63.6821Z" fill="#010202"/>
<path d="M161.524 97.7391C160.515 95.4687 159.001 93.4505 156.983 91.9369C156.478 89.4141 155.722 86.8914 154.713 84.3687C146.388 63.6823 123.431 53.3391 103.501 61.4118C96.4376 64.1868 90.8876 68.7278 86.8512 74.53C79.283 85.3778 77.0126 99.7573 82.5626 113.38C83.8239 116.407 85.3376 119.182 87.3558 121.705C87.3558 123.723 87.608 125.489 88.3648 127.255C91.6444 135.328 101.735 139.112 114.349 138.355C114.601 138.355 114.853 138.355 115.106 138.355C124.44 148.95 135.288 162.573 136.044 168.375C137.306 178.466 132.513 177.962 131.756 171.15C131.756 171.15 125.197 169.132 124.692 170.898C124.188 172.664 125.953 177.962 127.467 180.737C127.972 181.746 142.351 189.566 152.442 170.898C152.947 158.285 150.928 141.635 149.667 124.48C159.506 116.407 164.803 106.064 161.524 97.7391Z" fill="white" stroke="#010202" stroke-width="2.52273" stroke-miterlimit="10"/>
<path d="M132.765 88.6571C131.756 85.8821 129.485 84.3685 127.719 85.1253C125.953 85.8821 125.449 88.6571 126.458 91.1799L125.449 91.6844C124.187 88.1526 124.692 84.6208 126.962 83.8639C129.233 82.8549 132.008 85.1253 133.521 88.4049" fill="#010202"/>
<path d="M108.546 98.494C107.537 95.719 105.267 94.2054 103.501 94.9622C101.735 95.719 101.23 98.494 102.24 101.017L101.23 101.521C99.9691 97.9895 100.474 94.4577 102.744 93.7009C105.014 92.6918 107.79 94.9622 109.303 98.2418" fill="#010202"/>
<path d="M108.797 133.812C108.797 133.812 105.013 134.317 105.266 137.092C105.77 139.867 108.041 138.606 106.527 144.913C104.761 151.219 101.986 154.247 102.995 155.003C104.004 155.76 110.059 159.544 117.627 141.885L108.797 133.812Z" fill="white" stroke="#010202" stroke-width="2.52273" stroke-miterlimit="10"/>
<path d="M149.919 117.163C149.919 117.163 153.198 114.893 154.712 117.163C156.225 119.434 153.703 120.191 159.253 123.47C164.803 127.002 168.839 127.002 168.839 128.263C168.839 129.525 166.821 136.588 149.414 128.768L149.919 117.163Z" fill="white" stroke="#010202" stroke-width="2.52273" stroke-miterlimit="10"/>
<path d="M109.05 109.09C110.312 107.072 111.825 105.558 113.591 104.297C115.357 102.783 117.375 101.774 119.393 101.017C121.412 100.26 123.682 99.5036 125.953 99.2513C128.223 98.999 130.493 99.2513 132.764 99.7559C130.493 100.26 128.475 100.513 126.457 101.269C124.439 101.774 122.421 102.531 120.403 103.288C116.366 104.801 112.834 106.819 109.05 109.09Z" fill="#010202"/>
<path d="M110.564 120.947C112.078 118.676 114.096 116.658 116.114 114.892C118.384 113.126 120.655 111.613 123.178 110.351C125.7 109.09 128.475 108.333 131.503 108.081C134.278 107.829 137.305 108.333 139.828 109.342C137.053 109.342 134.278 109.595 131.755 110.099C129.232 110.856 126.709 111.613 124.187 112.622C119.646 114.892 115.105 117.92 110.564 120.947Z" fill="#010202"/>
<path d="M118.889 131.037C119.898 129.271 121.159 127.505 122.925 126.244C124.439 124.73 126.457 123.721 128.475 122.965C130.493 122.208 132.511 121.703 134.782 121.451C136.8 121.199 139.07 121.703 141.089 122.208C139.07 122.712 137.052 122.712 135.034 123.469C133.016 123.974 131.25 124.478 129.484 125.235C125.448 126.749 122.168 128.767 118.889 131.037Z" fill="#010202"/>
<path d="M124.692 141.382C125.449 139.616 126.71 138.355 128.224 137.093C129.737 135.832 131.251 134.823 133.017 134.318C134.783 133.562 136.549 133.057 138.567 133.057C140.333 132.805 142.351 133.057 144.117 133.562C142.351 134.066 140.585 134.318 138.819 134.823C137.053 135.327 135.54 135.832 134.026 136.589C130.746 137.85 127.719 139.616 124.692 141.382Z" fill="#010202"/>
<path d="M130.746 151.725C131.503 150.464 132.512 149.203 133.521 148.194C134.782 147.184 136.044 146.428 137.305 145.923C140.08 144.662 143.36 144.409 146.135 145.419C144.621 145.923 143.36 146.175 142.098 146.68C140.837 147.184 139.576 147.689 138.314 148.194C136.044 149.455 133.521 150.716 130.746 151.725Z" fill="#010202"/>
<path d="M136.044 159.292C136.548 158.283 137.305 157.274 138.062 156.517C138.819 155.76 139.828 155.256 140.837 154.751C141.846 154.246 143.108 153.994 144.369 154.246C145.63 154.499 146.892 155.003 147.396 156.012C146.135 156.012 145.378 156.012 144.369 156.265C143.612 156.517 142.603 156.769 141.846 157.021C140.08 157.778 138.314 158.787 136.044 159.292Z" fill="#010202"/>
<path d="M140.081 165.851C140.333 164.842 140.837 164.338 141.594 163.833C142.351 163.329 143.108 163.076 144.117 162.824C145.126 162.824 145.883 162.824 146.892 163.329C147.649 163.833 148.153 164.59 148.406 165.347C147.396 165.347 146.892 165.095 146.135 165.095C145.631 165.095 144.874 165.095 144.369 165.095C143.108 165.599 141.846 165.851 140.081 165.851Z" fill="#010202"/>
<path d="M95.4277 86.8904C94.6708 85.629 94.9231 84.3676 95.6799 83.3585C95.9322 82.854 96.4367 82.3494 97.1936 82.0972C97.9504 81.8449 98.7072 81.8449 99.2118 82.6017C98.7072 83.1063 98.4549 83.3585 98.2027 83.8631C97.9504 84.1153 97.9504 84.6199 97.6981 84.8722C97.1936 85.1244 96.4368 85.8813 95.4277 86.8904Z" fill="#010202"/>
<path d="M120.908 73.2682C121.16 72.5114 121.917 72.0068 122.421 71.7545C122.926 71.5023 123.683 71.25 124.44 71.25C125.196 71.25 125.953 71.5023 126.458 71.7545C127.215 72.2591 127.719 72.7636 127.719 73.7727C126.962 73.7727 126.458 73.7727 125.953 73.7727C125.449 73.7727 124.944 73.7727 124.44 73.7727C123.43 73.7727 122.421 73.7727 120.908 73.2682Z" fill="#010202"/>
<path d="M99.4646 126.749C98.7078 126.749 97.951 126.244 97.4464 125.487C96.9419 124.731 96.9419 123.722 96.9419 122.965C97.1942 122.208 97.4464 121.451 98.2033 120.947C98.7078 120.442 99.4646 119.938 100.221 119.938C100.221 120.694 99.9691 121.451 99.7169 121.956C99.7169 122.46 99.4646 122.965 99.4646 123.469C99.2123 124.226 98.9601 124.983 99.4646 126.749Z" fill="#010202"/>
<path d="M147.144 100.765C147.648 100.009 148.657 99.7564 149.414 100.009C150.171 100.009 151.18 100.513 151.684 101.018C152.946 102.279 153.45 103.793 152.946 105.306C152.189 104.802 151.684 104.297 151.432 103.793C150.928 103.288 150.675 103.036 150.171 102.784C149.162 102.027 148.405 101.522 147.144 100.765Z" fill="#010202"/>
<path d="M80.7961 96.2244C80.7961 96.2244 67.6779 85.8812 60.1098 70.7448C50.7757 52.5812 49.262 27.3539 88.112 5.15393C93.4098 2.12665 99.4643 0.86529 105.519 1.36984C185.237 9.19029 150.676 82.0971 150.676 82.0971C150.676 82.0971 109.807 62.4198 109.051 57.3744C108.798 57.3744 83.0666 100.765 80.7961 96.2244Z" fill="#010202" stroke="#010202" stroke-width="2.52273" stroke-miterlimit="10"/>
<path d="M59.1006 69.7345C59.3529 63.6799 61.6233 57.6254 64.3983 52.0754C65.6597 49.3004 67.4256 46.5254 68.9392 44.0026C70.4528 41.4799 71.9665 38.9572 73.2278 36.1822C76.0028 30.8845 78.7778 25.5867 81.3006 20.289L85.3369 12.2163L87.3551 8.17991C88.1119 6.91855 88.8688 5.40492 89.121 4.14355C89.3733 5.65719 88.8688 7.17083 88.6165 8.68446C88.3642 10.1981 87.8596 11.7117 87.6074 13.2254C86.8506 16.2526 85.8415 19.0276 84.8324 22.0549C82.8142 27.8572 80.2915 33.4072 77.5165 38.7049C76.0028 41.4799 74.4892 44.0027 72.7233 46.7777C70.9574 49.3004 69.4438 51.5708 67.6778 54.0936C64.6506 58.8867 61.6233 64.1845 59.1006 69.7345Z" fill="white"/>
<path d="M72.4715 88.1519C71.9669 85.8815 72.2192 83.611 72.4715 81.5928C72.7237 79.3224 73.2283 77.0519 73.7328 75.0337C74.2374 72.7633 74.9942 70.7451 75.751 68.7269C76.5078 66.7087 77.2647 64.6906 78.2738 62.4201L78.526 62.1678C81.5533 57.3747 84.5806 52.5815 87.6078 47.7883C90.3828 42.9951 93.4101 37.9497 95.6806 32.9042C96.1851 31.6428 96.9419 30.3815 97.1942 29.1201C97.6988 27.8588 97.951 26.3451 98.7079 25.0837C99.717 22.3087 100.978 19.5337 102.24 17.011C103.501 14.4883 104.762 11.9656 105.772 9.19057C106.276 7.9292 106.781 6.66784 107.285 5.15421C107.537 3.89284 107.79 2.37921 106.781 1.37012C108.042 2.12694 108.547 3.89284 108.294 5.40648C108.294 6.92011 108.042 8.43375 107.537 9.69512C106.781 12.4701 106.024 15.2451 105.015 18.0201C104.258 20.7951 103.249 23.3178 102.492 26.0928C101.735 28.6156 100.978 31.8951 99.9692 34.4178C97.6988 39.9678 94.9238 45.0133 91.6442 49.8065C88.6169 54.8519 85.3374 59.3928 81.8056 64.186L82.0578 63.9338C81.0488 65.9519 80.0397 67.7178 79.0306 69.736C78.0215 71.7542 77.2647 73.5201 76.2556 75.5383C75.4987 77.5565 74.4897 79.5747 73.9851 81.5928C73.2283 83.8633 72.4715 85.8815 72.4715 88.1519Z" fill="white"/>
<path d="M109.555 56.8682C109.555 56.8682 128.98 21.2978 115.357 3.63867" stroke="white" stroke-width="3.15341" stroke-miterlimit="10"/>
<path d="M157.991 48.0394C154.711 45.5166 151.936 42.7416 148.909 40.4712C148.152 39.9666 147.396 39.4621 146.639 38.9575C145.882 38.453 145.377 38.453 144.368 37.9485C142.35 37.1916 140.584 36.1825 138.818 35.1735C137.052 34.1644 135.286 33.1553 133.521 31.8939C132.764 31.1371 131.755 30.6325 130.998 29.8757C130.746 29.6235 130.493 29.3712 130.241 29.1189C130.241 29.1189 129.989 28.8666 129.989 28.6144C129.736 28.3621 129.484 27.8575 128.98 27.6053C126.205 24.8303 123.177 22.3075 120.402 19.2803C124.186 20.5416 127.971 22.3075 131.502 24.578C132.007 24.8303 132.259 25.0825 132.764 25.5871C133.016 25.8394 133.268 26.0916 133.521 26.3439C133.773 26.3439 133.773 26.5962 134.025 26.5962C134.782 27.1007 135.539 27.6053 136.296 28.1098C137.809 29.1189 139.575 30.128 141.341 30.8848C143.107 31.8939 144.621 32.903 146.386 33.6598C147.143 33.9121 148.405 34.6689 149.414 35.4257C150.171 36.1825 150.927 36.9394 151.684 37.6962C154.207 40.7235 156.477 44.2553 157.991 48.0394Z" fill="white"/>
<path d="M153.955 70.2405C151.432 66.9609 148.91 63.6814 146.387 60.9064C145.125 59.3928 143.864 58.1314 142.351 57.1223C140.837 56.1132 139.071 54.8518 137.557 53.8428C134.278 51.5723 130.998 49.3018 127.719 47.0314C124.439 44.7609 121.16 42.2382 118.132 39.2109C122.169 40.22 125.953 41.9859 129.737 43.7518C133.521 45.5178 137.053 47.5359 140.585 49.8064C142.35 51.0677 144.116 52.0768 145.63 53.5905C147.396 55.1041 148.657 56.87 149.919 58.6359C151.685 62.1677 153.198 66.2041 153.955 70.2405Z" fill="white"/>
</svg>
